<?xml version="1.0" encoding="UTF-8"?><svg id="Layer_2" xmlns="http://www.w3.org/2000/svg" viewBox="0 0 42.3 48"><defs><style>.cls-1{fill:#5289b1;stroke-width:0px;}</style></defs><g id="Design"><path class="cls-1" d="M38.65,15.05c-2.33-3.38-6.17-5.39-10.27-5.39-1.24,0-2.47.18-3.65.54v2.17l.48-.31c1.02-.32,2.09-.48,3.17-.48,3.47,0,6.71,1.71,8.68,4.56,2.54,3.73,3.65,8.11,3.22,12.65-.86,9.05-8.05,16.28-17.09,17.19-4.39.44-8.65-.57-12.32-2.92-.63-.41-1.35-.61-2.07-.61-.56,0-1.13.13-1.66.38-1.13.55-1.89,1.61-2.05,2.85h-3c-.64-4.81.6-6.75,1.43-7.48.68-.61,1.58-.83,2.4-.59,4.4,1.28,7.84,1.07,10.22-.63,1.36-.98,2.22-2.68,2.54-5.07.12-.9-.05-2.12-.28-3.66-.24-1.67-.55-3.75-.57-6.12,0-2.5.88-4.89,2.48-6.79v-2.44l-.8.5c-.07.04-.13.09-.18.15-2.2,2.32-3.42,5.37-3.42,8.59.02,2.51.34,4.66.59,6.39.19,1.33.36,2.49.28,3.12-.17,1.27-.62,2.95-1.76,3.77-1.87,1.34-4.75,1.46-8.56.35-1.45-.42-3.03-.05-4.21,1-1.43,1.27-2.92,4.04-1.93,10.04.08.46.48.8.95.8h4.74c.53,0,.96-.43.96-.96,0-.24.01-.46.03-.66.06-.62.42-1.14.99-1.41.6-.29,1.29-.24,1.85.12,3.42,2.19,7.3,3.32,11.34,3.32.73,0,1.47-.04,2.21-.11,9.95-1,17.86-8.96,18.81-18.92.47-5-.75-9.81-3.55-13.92Z"/><path class="cls-1" d="M22.26,17.51c-.25,0-.49-.09-.68-.28l-1.24-1.24c-2.89-2.89-4.49-6.74-4.49-10.84V.96c0-.53.43-.96.96-.96h5.07c.53,0,.96.43.96.96v1.54c0,3.71,1.56,7.28,4.27,9.81.39.36.41.97.05,1.36-.36.39-.97.41-1.36.05-3.1-2.89-4.88-6.97-4.88-11.21v-.58h-3.15v3.23c0,3.58,1.39,6.95,3.93,9.48l1.24,1.24c.37.37.37.98,0,1.36-.19.19-.43.28-.68.28Z"/><path class="cls-1" d="M31.95,23.17c-1.21,0-2.3.51-3.06,1.33-.77-.82-1.85-1.33-3.06-1.33-2.32,0-4.19,1.88-4.19,4.19,0,.34.04.66.11.97.67,2.89,4.24,7.33,7.13,7.97h.02s.02,0,.02,0c2.88-.64,6.45-5.08,7.13-7.97.07-.31.11-.64.11-.97,0-2.32-1.88-4.19-4.19-4.19Z"/></g></svg>