<?xml version="1.0" encoding="UTF-8"?><svg id="Layer_2" xmlns="http://www.w3.org/2000/svg" viewBox="0 0 60.31 60"><defs><style>.cls-1{fill:none;stroke:#5289b1;stroke-linecap:round;stroke-linejoin:round;stroke-width:1.16px;}.cls-2{fill:#5289b1;stroke-width:0px;}</style></defs><g id="Design"><path class="cls-2" d="M48.48,43.6c-.02-1.77-.06-5.23-.09-8.68,0-.29.05-.59-.03-.86-.15-.47-.37-.92-.59-1.36-.23-.45-.66-.79-.73-1.33,0-.07-.02-.16-.07-.19-.28-.18-.36-.46-.5-.75-.28-.6-.63-1.16-.95-1.74-.1-.18-.16-.37-.25-.55-.2-.37-.42-.73-.61-1.11-.15-.3-.24-.62-.38-.92-.14-.28-.34-.53-.45-.82-.07-.17-.02-.37-.03-.56,0-.11-.02-.22-.03-.33-.1.05-.2.1-.29.15-.17.09-.35.18-.52.27-.12.06-.25.12-.37.19-.19.11-.41.19-.54.34-.36.42-.98.3-1.36.75-.22.27-.64.39-1,.52-.27.1-.51.16-.73.4-.18.21-.5.34-.78.41-.53.13-.89.52-1.35.75-.19.09-.4.15-.59.25-.35.19-.69.42-1.04.61-.21.12-.43.21-.64.31-.26.12-.52.27-.79.35-.26.07-.54.1-.81.08-.4-.02-.84.07-1.15-.32-.06-.08-.21-.1-.33-.12-.28-.04-.52-.12-.67-.4-.09-.17-.54-.16-.67-.01-.22.24-.44.49-.67.72-.21.21-.46.39-.65.61-.19.23-.37.48-.49.75-.21.47-.38.96-.57,1.44-.04.11-.13.19-.2.29-.07.1-.18.19-.19.29-.08.87-.71,1.45-1.21,2.04-.38.45-1.06.64-1.71.47-.4-.1-.79-.26-1.19-.36-.14-.04-.31.01-.46.03.08.16.12.35.24.47.14.13.21.22.16.42-.15.55-.25,1.11-.44,1.65-.15.43-.41.82-.63,1.22-.16.3-.33.6-.52.89-.09.13-.24.23-.36.34-.04.04-.11.08-.12.12-.09.57-.62.86-.85,1.33-.29.59-.52,1.22-.71,1.86-.07.24.09.54.1.81.02.62.04,1.25.02,1.87-.02.37.02.77-.33,1.05-.04.03-.07.11-.07.16.02.54-.36.92-.57,1.36-.26.55-.68,1.03-1.03,1.54-.2.29-.38.6-.58.89-.14.2-.3.39-.43.59-.34.51-.74.99-1,1.54-.35.74-.18,1.46.29,2.12.06.09.11.19.15.28.16.39.41.63.86.65.24.01,1.24,1.09,1.28,1.34.05.31.15.62.13.92-.07,1.1-.21,1.32-1.35,1.37-.98.05-1.96.03-2.94.01-.51,0-.85-.31-1.11-.73-.27-.44-.58-.87-.86-1.3-.06-.1-.08-.22-.14-.33-.11-.2-.23-.4-.33-.6-.2-.4-.39-.8-.58-1.21-.04-.08-.01-.2-.06-.28-.21-.39-.44-.77-.65-1.16-.06-.11-.11-.24-.12-.37-.1-.81-.18-1.6.3-2.36.22-.35.32-.79.41-1.21.12-.59-.25-1.08-.45-1.59-.18-.45-.45-.86-.72-1.27-.11-.17-.3-.28-.45-.43-.21-.2-.37-.03-.54.06-.02.01-.04.02-.07.03-.61.13-1.23.28-1.85.4-.43.08-.86.07-1.24-.19-.09-.06-.23-.08-.34-.1-.85-.12-1.38-.58-1.59-1.43-.04-.14-.16-.27-.27-.38-.15-.15-.32-.27-.48-.41-.22-.2-.44-.4-.66-.61-.03-.02-.07-.04-.08-.07-.2-.38-.42-.75-.6-1.14-.1-.22-.16-.47-.23-.71-.13-.42-.04-1.38.46-1.79.2-.16.36-.53.33-.78-.11-.92.08-1.8.44-2.59.33-.75.67-1.55,1.48-2,.3-.16.54-.42.8-.64.03-.02.06-.06.09-.06.78.02,1.39-.62,2.2-.56.46.03.68.34.87.6.13.18.03.6-.08.86-.19.43-.47.82-.73,1.21-.56.83-.64,1.77-.63,2.73,0,.54.22.99.55,1.41.14.18.24.4.37.6.06.09.18.24.21.23.12-.06.26-.14.3-.26.16-.43.2-.92.43-1.3.22-.37.27-.87.71-1.11.08-.04.11-.18.16-.27.07-.12.11-.28.2-.37.32-.29.55-.66.83-.95.31-.32.62-.7.98-.92.38-.23.62-.59.97-.79.47-.27.66-.72.93-1.12.08-.12.1-.27.14-.4.06-.15.13-.3.17-.45.08-.32.2-.65.2-.97,0-1.09-.02-2.18-.08-3.27-.01-.26-.24-.5-.26-.76-.07-.64-.2-1.26-.39-1.88-.17-.56-.14-1.18-.16-1.78-.01-.25-.07-.39-.35-.44-.17-.03-.34-.15-.48-.27-.26-.2-.51-.43-.76-.64,0,0-.02-.01-.03-.02-.38-.72-1.12-1.24-1.08-2.19.04-1.14.34-1.25,1.2-1.54.25-.08.49-.06.76.04.37.15.79.19,1.18.27.06.01.13,0,.18.02.68.32,1.17-.12,1.69-.43.37-.22.66-.56,1.13-.64.34-.06.65-.28.96-.46.86-.48,1.64-.25,2.38.25.41.28.87.3,1.31.15.54-.18,1.06-.42,1.58-.65.91-.4,1.68-.11,2.06.79.17.4.35.81.41,1.23.04.3-.13.63-.17.96-.12.86-.61,1.49-1.19,2.09-.06.06-.11.14-.18.17-.73.32-1.18.93-1.59,1.58-.04.07-.1.13-.17.18-.11.09-.32.18-.31.24.03.18.12.37.24.51.33.37.68.72,1.02,1.08.02.03.05.05.06.09.22.44.43.89.65,1.32.13.25.28.49.43.73.02.03.14.04.15.02.2-.26.55-.37.61-.76.03-.19.18-.37.29-.54.21-.32.41-.63.64-.93.22-.29.47-.55.7-.83.07-.08.14-.16.21-.24.07-.08.1-.21.19-.26.78-.41,1.49-1,2.46-.92.47.04.82-.23.94-.71.07-.29.31-.42.47-.62.45-.56,1.09-.77,1.65-1.12.35-.22.75-.38,1.12-.57.18-.1.36-.22.53-.33.09-.05.18-.11.26-.16.16-.09.32-.18.49-.27.12-.06.24-.16.37-.18.25-.04.5-.07.62-.35,0-.02.03-.04.05-.05.39-.18.78-.34,1.17-.53.17-.08.33-.2.49-.3.05-.03.07-.1.12-.12.3-.16.6-.32.91-.47.43-.21.53-.31.26-.7-.32-.47-.32-1.03-.56-1.48-.51-.93-.48-1.91-.5-2.89-.01-.6.11-1.22.22-1.82.04-.22.33-.4.34-.6.02-.47.22-.92.5-1.19.4-.4.53-1.03,1.16-1.25.3-.1.49-.49.85-.59.23-.06.45-.17.68-.26.22-.09.43-.18.65-.26.09-.03.18-.08.27-.09.63-.04,1.28-.16,1.89-.07.6.08,1.28.23,1.72.6.49.4,1.11.74,1.37,1.4.04.09.14.15.22.22.11.1.25.18.35.3.67.83,1.33,1.67,2,2.5.27.33.55.65.83.97.02.02.04.03.05.05.16.67.84.98,1.1,1.58.15.34.54.58.7.92.27.6.95.88,1.1,1.56.03.15.28.24.39.38.31.42.6.86.91,1.28.33.44.67.88,1,1.32.04.05.09.08.12.13.37.55.74,1.11,1.12,1.66.15.22.3.43.45.64.37.49.76.97,1.11,1.48.37.53.71,1.08,1.07,1.62.01.02.03.04.03.06.2,1,.7,1.93.63,2.98-.04.63-.03,1.29-.18,1.89-.16.62-.47,1.2-.77,1.78-.18.35-.38.74-.69.96-.41.31-.68.79-1.11,1.01-.53.28-.82.77-1.28,1.1-.05.04-.08.15-.08.22,0,3.69,0,7.38,0,11.08,0,2.94,0,5.88-.03,8.82,0,.43-.15.86-.26,1.29-.06.25.04.41.28.32.49-.19,1.09-.14,1.44-.65.11-.17.24-.33.31-.51.19-.5.35-1,.35-1.56-.02-6.19-.02-12.38-.03-18.57,0-.28,0-.55,0-.83-.02-.41.22-.6.57-.71.39-.12.76.13.99.43.36.47.21.97.21,1.45,0,6.18-.01,12.35-.04,18.53,0,.42-.2.84-.23,1.26-.08,1.1-.89,1.65-1.63,2.28-.81.7-1.76.57-2.66.48-.93-.09-1.85-.02-2.77.02-.57.03-1.15-.05-1.72-.08-.06,0-.12-.02-.17-.05-.69-.5-1.39-.99-1.83-1.75-.05-.09-.06-.2-.09-.3-.08-.25-.19-.48-.25-.74-.07-.3-.14-.61-.15-.91,0-3.61,0-7.22,0-12.51ZM50.23,45s.02,0,.03,0c0,3.71,0,7.41,0,11.12,0,.71.36,1.25.8,1.75.07.08.17.13.27.17.69.28,1.4.29,2.1.02.4-.15.71-.44.86-.85.27-.71.26-1.46.26-2.2,0-3.41-.01-6.81-.02-10.22-.01-2.79-.03-5.59-.04-8.38,0-.38.06-.73.42-1.01.33-.26.57-.62,1-.82.4-.18.76-.54,1.02-.91.34-.51,1.03-.78,1.05-1.51,0-.06.08-.12.11-.18.09-.2.2-.41.25-.62.08-.32.12-.66.16-.99.03-.26.06-.53.03-.79-.03-.28-.11-.56-.17-.83-.04-.15-.08-.3-.14-.44-.12-.31-.25-.62-.37-.93-.04-.11-.07-.23-.14-.32-.43-.57-.87-1.13-1.29-1.71-.19-.26-.33-.55-.52-.81-.28-.4-.72-.7-.84-1.21-.01-.06-.08-.12-.12-.17-.38-.45-.87-.84-1.11-1.35-.38-.8-1.16-1.32-1.44-2.17-.02-.05-.08-.08-.12-.13-.39-.47-.8-.92-1.17-1.41-.31-.4-.58-.83-.87-1.24-.1-.14-.32-.24-.36-.39-.1-.37-.35-.59-.59-.85-.38-.42-.7-.89-1.04-1.34-.2-.26-.4-.53-.61-.79-.18-.22-.37-.42-.55-.64-.17-.2-.33-.42-.5-.62-.09-.1-.25-.17-.27-.27-.09-.42-.49-.57-.7-.86-.3-.44-.68-.72-1.15-.92-.13-.06-.26-.14-.4-.15-.42-.02-.87-.11-1.25,0-.74.23-1.56.26-2.13.98-.34.43-.77.78-.9,1.34-.17.69-.44,1.37-.49,2.07-.05.69.13,1.39.22,2.09.01.09.11.24.16.24.1,0,.23-.08.28-.16.27-.47.54-.93.76-1.42.16-.36.49-.37.75-.38.25,0,.57.12.73.3.35.4.08,1.17-.19,1.51-.12.15-.18.34-.26.51-.18.4-.36.8-.54,1.2,0,0-.02.01-.03.02-.12.21-.26.41-.36.63-.17.38-.32.77-.48,1.15-.02.04-.07.06-.1.1-.12.14-.23.29-.35.43-.07.08-.13.16-.22.22-.51.33-1.13.42-1.63.83-.54.45-1.28.58-1.87,1-.36.26-.81.4-1.21.6-.43.22-.86.46-1.28.68-.08.04-.19.06-.26.11-.42.33-.83.64-1.37.76-.09.02-.16.15-.23.25-.06.1-.08.23-.16.32-.36.44-.35.94-.17,1.43.23.62.73.95,1.36,1.06.64.12,1.14-.32,1.68-.54.22-.09.55-.22.69-.39.36-.45,1.09-.21,1.33-.8,0-.02.07-.02.1-.04.19-.09.36-.21.56-.28.43-.15.82-.35,1.19-.62.36-.26.83-.35,1.25-.53.07-.03.12-.11.18-.17.08-.07.15-.15.25-.2.59-.32,1.2-.62,1.79-.94.39-.22.84-.4.87-.95,0-.05.06-.1.09-.15.25-.48.49-.97.74-1.45.06-.13.13-.26.19-.39.26-.54.51-1.08.77-1.62.04-.08.11-.15.15-.23.22-.38.48-.75.64-1.15.16-.4.44-.69.83-.7.39,0,.82.34.93.72.2.68-.39,1.08-.56,1.63-.07.22-.22.41-.32.62-.09.18-.16.37-.25.54-.2.37-.42.73-.61,1.11-.21.42-.36.86-.57,1.28-.22.44-.48.86-.7,1.3-.03.06.03.17.04.25.07-.03.16-.04.21-.09.29-.27.76-.21.95.14.23.41.41.85.69,1.21.32.42.34.95.71,1.37.43.49.54,1.19.91,1.77.43.67.73,1.43,1.17,2.11.22.35.39.74.6,1.1.27.46.55.9.83,1.35.02.03.02.07.02.1.02.26.05.53.05.79,0,3.66,0,7.31,0,10.97ZM12.31,22.16s-.02.09-.03.13c.25.23.48.5.76.68.28.19.66.26.92.46.27.21.6.49.65.79.12.62.07,1.26.11,1.9.02.27.03.57.15.8.41.84.45,1.77.59,2.65.16,1.07.16,2.18.1,3.26-.04.8-.29,1.59-.45,2.39,0,.04-.04.1-.08.12-.29.13-.31.4-.37.65-.02.09-.05.2-.11.26-.33.34-.63.73-1.01.99-.29.2-.55.4-.81.64-.38.35-.8.65-1.12,1.07-.14.18-.36.3-.5.48-.21.25-.39.53-.59.8-.06.07-.15.13-.18.21-.29.92-.72,1.81-.61,2.82.01.1-.06.22-.12.32-.09.16-.22.3-.31.46-.11.21-.63.46-.82.34-.56-.33-1.12-.65-1.65-1.03-.3-.21-.55-.51-.8-.78-.13-.15-.22-.33-.33-.5-.06-.1-.13-.2-.19-.31-.21-.41-.54-.8-.61-1.23-.17-1.08-.37-2.19.24-3.22.04-.07.05-.21,0-.27-.04-.05-.24-.07-.25-.05-.15.37-.64.57-.57,1.06,0,.04-.03.09-.05.13-.51.82-.34,1.72-.19,2.57.1.55-.17,1.11-.73,1.16-.23.02-.32.12-.23.32.1.24.24.45.34.69.34.77,1.05,1.14,1.72,1.5.36.19.56.34.5.76-.02.12,0,.27.06.39.04.09.15.21.24.22.27.04.55.07.82.03.39-.07.78-.19,1.16-.31.34-.11.66-.25.99-.36.23-.08.47-.16.71-.16.48,0,.56.58.98.7.4.8,1.18,1.37,1.4,2.28.03.13.14.24.22.36.05.08.12.15.14.24.11.45.29.92.27,1.37-.03.64-.13,1.31-.35,1.92-.23.61-.52,1.19-.29,1.85.16.44.42.85.61,1.29.15.34.25.7.42,1.02.25.47.54.92.82,1.37.25.4.49.82,1.01.89.4.06.8.08,1.21.1.1,0,.21-.07.31-.1-.06-.1-.1-.26-.19-.3-.23-.13-.48-.22-.73-.3-.49-.16-.83-.45-.87-1.01,0-.13-.11-.25-.17-.38-.21-.4-.49-.79-.61-1.22-.12-.43-.14-.9-.12-1.35.02-.37.1-.76.25-1.09.16-.34.46-.62.67-.94.36-.55.69-1.12,1.04-1.68.02-.04.07-.06.1-.1.24-.32.48-.63.7-.96.18-.28.33-.58.48-.87.16-.3.35-.6.47-.91.16-.42.33-.85.4-1.28.18-1.17-.2-2.26-.55-3.35-.04-.13-.16-.24-.22-.37-.1-.21-.2-.43-.26-.65-.1-.38.19-.56.43-.78.38-.35.63-.36.95.05.17.21.38.24.5.05.2-.32.39-.65.59-.97.1-.16.17-.4.32-.47.54-.27.47-.93.9-1.28.23-.19.36-.53.46-.83.13-.4.21-.83.28-1.25.1-.6.49-.96,1.11-1,.12,0,.23-.06.34-.09,0-.03-.01-.07-.02-.1-.49-.16-.99-.12-1.5-.06-.04,0-.1.05-.11.09-.07.42-.42.39-.7.41-.43.03-.67-.29-.8-.61-.09-.22-.06-.56.06-.78.13-.24.4-.42.63-.6.74-.56,1.6-.49,2.41-.31.61.13,1.17.46,1.77.68.15.05.4.06.49-.03.22-.23.38-.51.53-.79.15-.28.27-.57.4-.87.2-.46.39-.92.58-1.38.03-.07.04-.14.08-.2.29-.49.56-.99.87-1.48.12-.19.28-.43.46-.48.51-.15.71-.66,1.14-.9.06-.04.11-.13.14-.21.08-.2-.05-.36-.26-.34-.57.06-.93.49-1.37.78-.3.2-.48.6-.68.93-.26.42-.49.87-.74,1.3-.16.29-.34.57-.5.86-.13.23-.23.48-.39.68-.42.52-1.02.56-1.54.14-.41-.33-.83-.66-1.22-1.03-.22-.21-.41-.46-.56-.72-.26-.45-.42-.95-.71-1.37-.36-.53-.79-1.02-1.24-1.49-.16-.17-.44-.53-.67-.28-.28.32-.59.25-.91.28-.21.02-.88-.47-.94-.67-.19-.59.34-1.16.83-1.22.81-.08,1.5-.36,2.15-.89.54-.44.71-1.24,1.47-1.44.03,0,.04-.06.07-.08.18-.17.34-.36.53-.51.5-.41.71-.95.67-1.59,0-.09-.08-.22-.15-.24-.08-.02-.2.04-.28.09-.12.06-.22.16-.35.21-.23.09-.47.17-.71.23-.32.09-.64.18-.97.23-.85.12-1.54-.3-2.24-.68-.18-.1-.33-.13-.47.05-.04.05-.11.09-.17.12-.79.39-1.65.65-2.28,1.31-.05.05-.15.08-.23.1-.83.17-1.65.4-2.5.04-.13-.05-.31,0-.46.01Z"/><path class="cls-2" d="M29.09,5.36c-.17-.65.19-1.36.5-2.04.32-.69.76-1.35,1.34-1.87.32-.3.67-.57,1.05-.8.2-.13.5-.1.71-.22,1-.53,2.07-.49,3.12-.32.55.09,1.05.43,1.58.63.52.2.9.61,1.27.98.46.46.81,1.03,1.14,1.59.14.23.09.56.15.84.09.44.23.87.29,1.32.03.23-.06.49-.11.73-.07.39-.14.77-.24,1.16-.11.48-.28.94-.68,1.28-.09.08-.14.21-.2.32-.09.14-.14.36-.26.41-.39.17-.58.57-.91.75-.6.33-1.24.58-1.88.81-.64.23-1.3.33-1.98.18-.36-.08-.72-.15-1.08-.24-.1-.02-.18-.11-.26-.17-.11-.07-.21-.16-.32-.22-.37-.19-.81-.31-1.12-.58-.44-.37-.82-.82-1.15-1.3-.29-.41-.43-.92-.68-1.36-.31-.54-.27-1.13-.28-1.88ZM30.94,5.53h-.05c.04.39,0,.82.14,1.17.16.4.49.73.71,1.12.39.69,1.03,1.02,1.75,1.24.09.03.17.08.26.12.58.24,1.16.36,1.74-.01.09-.06.2-.06.3-.1.44-.19.87-.38,1.3-.57.05-.02.07-.1.1-.14.16-.21.29-.46.5-.6.32-.22.39-.5.44-.84.05-.29.14-.58.25-.86.14-.4.1-.77-.06-1.15-.06-.13-.12-.27-.13-.4-.05-.58-.23-1.07-.75-1.39-.08-.05-.15-.13-.19-.21-.27-.61-.9-.72-1.39-.87-.88-.27-1.78-.25-2.68.14-.66.29-1.23.63-1.54,1.25-.23.46-.71.81-.69,1.4,0,.24,0,.48,0,.72Z"/><path class="cls-2" d="M18.36,14.91c-.04.35-.04.72-.12,1.06-.07.32-.61.56-.93.47-.41-.11-.88-.6-.79-1.1.06-.34,0-.69,0-1.04,0-.51.48-1.03.99-1.05.29-.01.79.51.81.86.02.26,0,.53,0,.79.01,0,.02,0,.03,0Z"/><path class="cls-2" d="M18.33,10.65c0,.22,0,.43,0,.65,0,.6-.51,1.01-1.09.89-.29-.06-.72-.59-.72-.89,0-.48-.01-.96.01-1.43,0-.13.1-.27.19-.38.08-.11.21-.19.31-.29.23-.23.59-.23.83,0q.45.43.46,1.47Z"/><path class="cls-2" d="M23.39,2.37c-.02-.21-.09-.44-.04-.63.08-.3.22-.6.37-.87.07-.13.21-.25.35-.29.39-.11.94.18.99.58.08.61.11,1.24.07,1.85-.03.46-.89.88-1.24.61-.25-.19-.37-.55-.52-.85-.05-.11,0-.26,0-.39,0,0,.02,0,.02,0Z"/><path class="cls-2" d="M24.38,7.99c-.52-.09-.85-.37-.97-.86-.03-.13-.06-.27-.07-.41,0-.12.06-.25.02-.35-.18-.49.12-.87.31-1.26.05-.1.28-.15.43-.17.59-.11,1.01.18,1.04.76.03.51-.02,1.03-.03,1.54,0,.25-.1.42-.37.49-.14.04-.26.16-.38.25Z"/><path class="cls-2" d="M29.38,15.86c-1.07.05-1.38-.74-1.12-1.67.02-.07.12-.13.19-.18.2-.12.4-.24.61-.35.09-.05.23-.11.29-.07.42.26.87.49,1.08.98.04.09.07.23.03.31-.16.29-.32.58-.54.82-.11.11-.35.11-.52.15Z"/><path class="cls-2" d="M15.63,3.64c0,.54-.6,1.06-1.16,1.01-.31-.03-.59-.08-.74-.44-.09-.23-.42-.35-.36-.68,0-.05-.02-.12,0-.14.36-.3.47-.86,1.03-.97.45-.09,1.18.52,1.22,1.05,0,.06,0,.12,0,.18Z"/><path class="cls-2" d="M26.15,5.12c-.25-.02-.41-.05-.58-.05-.46,0-.63-.39-.75-.7-.06-.17.11-.56.29-.66.32-.2.6-.51,1.08-.44.68.1,1.35.56,1.07,1.37-.05.13-.18.29-.31.34-.28.09-.58.12-.8.15Z"/><path class="cls-2" d="M19.5,13.64c-.18,0-.26.02-.34.02-.57,0-.93-.23-1.07-.77-.05-.19.03-.5.17-.62.27-.22.6-.41.94-.5.56-.15.9.3,1.26.61.21.17.13.57-.1.73-.05.03-.12.06-.14.11-.12.44-.45.47-.72.42Z"/><path class="cls-2" d="M22.56,5.13c-.26-.04-.47-.08-.68-.1-.42-.04-.56-.35-.59-.69-.02-.3.1-.57.38-.75.66-.44,1.35-.4,1.9.15.31.3.19,1.05-.22,1.21-.26.1-.55.13-.79.18Z"/><path class="cls-2" d="M15.65,13.67c-.25-.03-.54.02-.66-.1-.22-.21-.45-.52-.47-.8-.04-.51.35-.81.81-.95.41-.12.81-.05,1.12.26.18.18.36.38.47.6.04.09-.09.27-.16.4-.03.06-.15.07-.16.12-.14.59-.66.32-.96.46Z"/><path class="cls-1" d="M4.2,33.19s-2.01.84-2.72,2.92"/><path class="cls-1" d="M.85,37.77s-.27.34-.27,1.07"/><path class="cls-1" d="M9.56,36.21s-.78.18-.94,1.6"/></g></svg>