<?xml version="1.0" encoding="UTF-8"?><svg id="Layer_2" xmlns="http://www.w3.org/2000/svg" viewBox="0 0 50.07 48"><defs><style>.cls-1{fill:#5289b1;stroke-width:0px;}</style></defs><g id="Design"><path class="cls-1" d="M18.47,26.51c-.2-.02-.44-.15-.72-.29-.7-.37-1.65-.87-3.06-.19s-1.62,1.73-1.77,2.51c-.06.31-.11.57-.22.74-.93,1.45-1.1,2.74-.53,3.93.51,1.07,2.07,1.62,3.14,1.1,1.16-.56,1.5-1.16,1.75-1.61.16-.29.26-.48.55-.61s.49-.1.82-.04c.5.09,1.19.2,2.35-.35,1.07-.51,1.62-2.07,1.11-3.14-.57-1.19-1.68-1.86-3.39-2.05Z"/><path class="cls-1" d="M10.54,28.41c-1.04-1.22-2.48-1.64-3.26-.97-.4.34-.56.9-.44,1.57.1.61.42,1.25.9,1.8.48.56,1.06.97,1.65,1.17.5.17.97.16,1.34-.02.1-.05.2-.11.28-.18.79-.67.59-2.16-.46-3.37Z"/><path class="cls-1" d="M12,26.94c1.08-.52,1.3-2.25.49-3.95s-2.3-2.61-3.38-2.1-1.3,2.25-.49,3.95c.81,1.69,2.3,2.62,3.38,2.1Z"/><path class="cls-1" d="M17.08,24.51c1.08-.52,1.3-2.25.49-3.95s-2.3-2.61-3.38-2.1c-1.08.52-1.3,2.25-.49,3.95.81,1.69,2.3,2.62,3.38,2.1Z"/><path class="cls-1" d="M20.43,21.14c-.52.1-.93.5-1.17,1.14-.21.58-.26,1.29-.12,2.01.13.72.43,1.37.84,1.83.45.51.98.73,1.5.64.11-.02.22-.06.32-.1.82-.39,1.24-1.64.97-3.04-.29-1.57-1.32-2.66-2.34-2.47Z"/><path class="cls-1" d="M27.88,34.55c-.51,1.07.03,2.63,1.11,3.14,1.16.56,1.85.44,2.35.35.32-.05.54-.09.82.04s.39.32.55.61c.25.44.59,1.05,1.75,1.61,1.07.51,2.63-.03,3.14-1.1.57-1.19.4-2.47-.53-3.93-.11-.17-.16-.44-.22-.74-.15-.77-.36-1.83-1.77-2.51s-2.37-.18-3.06.19c-.28.14-.51.27-.72.29-1.71.19-2.82.86-3.39,2.05Z"/><path class="cls-1" d="M38.74,37.79c.09.07.18.13.28.18.37.18.83.18,1.34.02.58-.19,1.17-.61,1.65-1.17.48-.56.8-1.2.9-1.8.11-.67-.04-1.23-.44-1.57-.79-.67-2.22-.25-3.26.97-1.04,1.22-1.24,2.7-.46,3.37Z"/><path class="cls-1" d="M41.12,30.85c.81-1.69.6-3.43-.49-3.95s-2.57.4-3.38,2.1c-.81,1.69-.6,3.43.49,3.95,1.08.52,2.57-.4,3.38-2.1Z"/><path class="cls-1" d="M36.04,28.41c.81-1.69.6-3.43-.49-3.95s-2.57.4-3.38,2.1c-.81,1.69-.6,3.43.49,3.95s2.57-.4,3.38-2.1Z"/><path class="cls-1" d="M26.96,29.61c-.26,1.4.16,2.65.97,3.04.1.05.21.08.32.1.52.1,1.05-.13,1.5-.64.41-.46.71-1.11.84-1.83.14-.72.09-1.44-.12-2.01-.24-.64-.65-1.04-1.17-1.14-1.02-.19-2.05.89-2.34,2.47Z"/><path class="cls-1" d="M48.54,3.42l-.81-.23c-14.78-4.24-30.46-4.25-45.25-.05l-.87.25C.67,3.69-.06,4.66,0,5.56c.06.9.21,2.94.32,4.54l1.3,18.33h0s.96,13.54.96,13.54l.22,3.13h0s.07.97.07.97c.08,1.07,1.01,1.94,2.08,1.94h40.13c1.07,0,2-.87,2.08-1.94l.07-.97h0s.4-5.62.4-5.62l.79-11.04h0s1.33-18.7,1.33-18.7c.11-1.6.25-3.56.31-4.35.06-.8-.63-1.68-1.52-1.96ZM45.4,45.94c0,.13-.17.28-.3.28H4.96c-.13,0-.29-.15-.3-.28l-1.25-17.57L1.78,5.47c.01-.09.17-.32.35-.37l.84-.24c2.16-.61,4.37-1.14,6.57-1.57l8.06,10.43c.44.57,1.19.93,1.91.93h11.03c.72,0,1.48-.37,1.93-.95l8.05-10.41c2.26.44,4.52.99,6.72,1.62l.8.23c.1.03.2.14.24.21l-2.89,40.6ZM14.82,7.15l.25-.22.41-.27c2.75-1.76,6.04-2.78,9.56-2.78,3.52,0,6.8,1.02,9.56,2.78l.47.33.22.2c.24.23.32.56.19.73-.13.17-.51.65-.84,1.07l-2.5,3.2c-.33.42-.7.89-.81,1.04-.11.15-.36.27-.54.27h-11.5c-.18,0-.42-.11-.52-.25-.11-.14-.47-.59-.8-1.02l-2.54-3.25c-.33-.42-.71-.9-.83-1.07-.13-.16-.02-.51.24-.76ZM16.16,7.53l1.37,1.88-.37.27-1.37-1.88.37-.27ZM17.07,6.95l1.24,1.97-.39.24-1.24-1.97.39-.24ZM18.02,6.44l1.09,2.05-.4.21-1.09-2.05.4-.21ZM19,5.99l.95,2.13-.42.19-.95-2.12.42-.19ZM20.01,5.61l.79,2.18-.43.16-.79-2.18.43-.16ZM21.05,5.29l.64,2.23-.44.12-.64-2.23.44-.13ZM22.1,5.06l.48,2.27-.45.09-.48-2.27.45-.09ZM23.18,4.89l.32,2.3-.45.06-.32-2.3.45-.06ZM24.25,4.8l.15,2.32-.45.03-.15-2.32.45-.03ZM25.33,7.11h-.46s.01-2.32.01-2.32h.46s-.01,2.32-.01,2.32ZM26.25,7.16l-.45-.03.17-2.31.45.03-.17,2.31ZM27.16,7.27l-.45-.07.34-2.3.45.07-.34,2.3ZM28.06,7.45l-.45-.1.5-2.27.44.1-.5,2.27ZM28.95,7.69l-.12-.04-1.12,5.19h-2.97l3.93-5.82.5-1.7.44.13-.66,2.23ZM30.63,5.81l-.81,2.18-.43-.16.81-2.18.43.16ZM31.62,6.23l-.97,2.12-.41-.19.97-2.12.41.19ZM32.59,6.72l-1.11,2.04-.4-.22,1.11-2.04.4.22ZM33.52,7.27l-1.26,1.96-.38-.25,1.26-1.96.38.25ZM34.4,7.89l-1.39,1.87-.37-.27,1.39-1.87.37.27Z"/></g></svg>