<?xml version="1.0" encoding="UTF-8"?><svg id="Layer_2" xmlns="http://www.w3.org/2000/svg" viewBox="0 0 90 46.01"><defs><style>.cls-1{fill:#5289b1;stroke-width:0px;}</style></defs><g id="Design"><path class="cls-1" d="M26.35,12.08l-1.23-5.34-.35-.06.36-.07c-.02-1.24-1.31-2.21-3.86-2.88-.07-.35-.32-.92-1.16-1.12v.02s-.1-.04-.1-.04c0-.02,0-.04,0-.05,0-.08-.02-.17-.06-.32l-.08-.18-.11-.17-.1-.12-.25.25h0s.14-.36.14-.36l-.23.27.1-.38-.19-.12-.18-.1-.17-.08c-.06-.03-.12-.05-.24-.09-.06-.02-.12-.03-.22-.05-.08-.02-.16-.02-.24-.03h-.16s-.21.04-.21.04c0,0-.06.01-.08.02-.08-.14-.18-.26-.3-.36-.07-.06-.16-.1-.33-.18-.07-.02-.13-.04-.18-.04l-.18-.02h-.16c-.07.02-.14.03-.22.05-.06.02-.11.04-.22.08,0,0-.18.09-.22.11-.15-.15-.37-.32-.65-.34-.27-.11-.53-.16-.79-.16-.14,0-.27.02-.4.05-.08.02-.16.04-.34.1-.03,0-.12-.06-.16-.09-.1-.06-.22-.13-.46-.23-.08-.03-.18-.05-.27-.06h-.14c-.08,0-.16,0-.24.02-.1.02-.19.06-.28.1-.07.04-.14.08-.22.14-.08.07-.15.14-.22.21l-.19-.09c-.1-.05-.19-.08-.27-.11l-.11.33h0s0,0,0,0l-.06-.39c-.06-.02-.12-.03-.16-.03-.07-.01-.14-.01-.2-.01h-.11s-.12.02-.15.02l-.15.04c-.06.02-.12.04-.09.05h-.07l-.06.03-.14.09-.14.05h-.14s-.06,0-.1-.01c-.12-.02-.26-.04-.41-.04-.2,0-.38.04-.56.11-.1.04-.2.1-.24.14-.24.13-.46.31-.62.5-.07.09-.13.17-.19.26,0,0,0,.01-.01.02h0c-.21,0-.42.05-.6.15-.28.13-.49.36-.63.67-.04.09-.06.18-.08.27-.03,0-.07.02-.1.03-.24.07-.56.16-.87.44-.12.11-.21.23-.3.34-.04.05-.1.13-.17.16-.11.04-.3.1-.48.25-.21.17-.33.38-.42.57-1.74.67-2.64,1.51-2.68,2.47L.13,12.43c-.09.25-.13.49-.13.74.01,1,.76,2.41,4.26,3.44,2.29.68,5.32,1.05,8.52,1.05h.54c2.47-.03,4.99-.3,7.09-.77.13-.03,3.29-.78,5-2.03.74-.61,1.11-1.29,1.1-2.03,0-.27-.06-.55-.16-.75ZM2.9,6.78s0,.07,0,.11c0,.09,0,.17.03.25-.05-.1-.07-.19-.07-.25,0-.02.01-.06.05-.11ZM3.97,8.85c.06-.11.08-.24.08-.37h0s.2.1.34.17c.1.05.21.09.35.15.45.18.97.34,1.57.48l.19.04c.51.11,1.06.2,1.64.29.74.1,1.53.18,2.36.22l1.06.05s.82.02,1.14.02h.52s.62-.02.62-.02l.75-.03.6-.03.77-.06.72-.07c1.48-.16,3.56-.48,5.02-1.12l.14-.07s.16-.08.28-.14c.08-.03.15-.07.19-.1,0,.12.03.24.09.34.14.27.42.44.73.44.13,0,.26-.03.37-.09.15-.07.28-.16.42-.25l.86,3.79.04.13.02.03c.03.07.05.14.05.2,0,.2-.14.43-.4.67-.97.76-4.29,1.76-4.3,1.76-2.01.45-4.4.71-6.89.74h-.53c-3.04,0-5.89-.34-8.05-.98-2.13-.63-3.09-1.4-3.09-1.9,0-.05.01-.1.04-.18l.03-.11.76-3.88c.13.09.27.17.42.24.11.06.24.08.36.08.31,0,.59-.17.73-.45ZM6.25,4.33c.05-.06.09-.11.13-.15.02-.02.14-.05.2-.07.17-.05.4-.11.64-.26l-.19-.3h0s.06.03.06.03c.12.15.31.24.57.24h.02c.33-.03.57-.32.55-.66,0-.07-.02-.14-.05-.21.06-.02.12-.05.18-.08.3-.17.47-.41.57-.57l.08-.11s.1-.1.19-.14c.02,0,.03-.02.05-.03.03,0,.07.01.1.02.12.02.25.04.47.04h.06c.1,0,.19-.02.29-.05.07-.02.14-.04.2-.06l.37-.15.12-.33v.38s.28.13.28.13l.19.07c.08.03.16.05.23.06.05.01.1.02.15.02h.14c.18,0,.36-.03.51-.1.18-.08.32-.19.44-.31.21.12.51.28.92.28.1,0,.2,0,.31-.03.1-.02.2-.05.29-.08l.16-.04c.05,0,.13.02.22.06.02.01.05.02.07.03.05.08.11.17.21.26.07.07.15.12.31.2.07.03.13.05.29.09h.16c.1.01.2,0,.37-.04l.14-.05.13-.06s0,.02.01.03c.02.06.05.11.08.18.08.13.17.25.28.34.07.06.15.11.24.15.14.06.28.09.43.09.08,0,.16,0,.24-.03.12-.03.22-.07.39-.18.07-.05.13-.11.19-.18.01-.02.03-.04.05-.06v.02l.08.05s0,.05,0,.07c0,.13.02.25.06.37.04.11.09.22.16.31.06.08.13.16.21.23l.1.09h.01s.07.05.12.07c.04.03.09.05.14.07l.2.09c.06.02.26.08.33.1,0,.11-.02.29-.04.43,0,0-.03.28-.04.31-.04.11-.06.22-.05.34.03.58.32,1.02.83,1.26,0,.02,0,.03,0,.05.05.19.15.35.31.49.04.04.09.07.14.11-1.61.64-4.52,1.06-7.65,1.1h-.5c-3.13,0-6-.39-7.46-1.02.03-.29.06-.62-.03-.94,0,0,0-.02.01-.03.05.01.1.02.16.02h.28s.18-.03.18-.03l.06-.02c.1-.03.19-.09.24-.15.08-.07.13-.16.14-.21.05-.1.07-.2.07-.35l-.02-.14c-.03-.11-.09-.22-.18-.3l-.1-.09-.04-.02c-.1-.06-.21-.09-.34-.1.29-.16.47-.39.6-.56ZM23.46,6.52s.05.09.05.11c0,.08-.02.17-.07.26.01-.08.02-.17.02-.26,0-.04,0-.07,0-.11Z"/><path class="cls-1" d="M14.37,46.01c-.14,0-.28-.04-.41-.11-.65-.37-2.45-.63-3.65-.8l-.96-.14c-2.02-.29-4.78-.69-6.33-2.82-1.08-1.48-1.38-3.5-.92-6.17,1.23-7.16,8-11.69,8.76-12.18.5-.61,1.07-1.15,1.65-1.57,2.58-1.88,5.94-3.07,10.58-3.75,3.82-.56,7.84-.83,12.28-.83,3.31,0,6.9.15,10.98.45,3.2.24,6.91.6,10.35,1.95,3.11,1.22,5.49,2.7,7.1,4.4,1.69.07,3.21.61,4.43,1.57.31.24.61.52.92.85,1.13.1,5.93.77,7.18,4.55.07.22.05.46-.06.66-.11.2-.31.34-.53.4-.05.01-1.25.29-2.61.29-.32,0-.63-.02-.93-.05.1.37.18.74.25,1.08.43.29,3.13,1.99,7.62,1.99.5,0,1.03-.02,1.58-.07.46-.04.9-.06,1.31-.06,5.72,0,6.97,3.54,7.02,3.69.08.25.04.53-.11.74-.15.21-.4.34-.66.34h-14.74s-.04.04-.06.06c-.06.18-.17.43-.31.66-.97,1.6-2.93,2.67-4.88,2.67-.03,0-12.26-.87-12.26-.87.34.73.44,1.24.45,1.3.05.24-.02.49-.17.68-.16.19-.39.3-.63.3h-6.5c-1.06,0-1.98-.75-2.19-1.78l-12.86-.69c-.44-.02-.78-.39-.78-.83,0-.35.03-.72.08-1.1-3.82-.34-7.06-.66-9.5-.91,1.29.27,2.52.76,3.38,1.61.88.88,1.27,2,1.15,3.34-.04.42-.39.75-.82.75h-7.64c-.08,0-.17-.01-.25-.04-.03,0-2.88-.9-5.87-1.64.3.64.37,1.08.38,1.13.03.24-.04.47-.19.65-.16.18-.38.28-.62.28ZM14.04,35.49c.4,0,.74.28.81.67.08.45-.22.87-.66.95l-.23.05c-.71.16-1.31.38-1.87.66-.89.46-1.64,1.08-2.12,1.74-.29.41-.45.8-.46,1.12,0,.18.01.6,1.03.72.77.09,1.72.26,2.82.5,3.29.72,7,1.85,7.71,2.07h6.66c-.08-.51-.29-.93-.66-1.3-.92-.91-2.87-1.44-5.36-1.44-.59,0-1.21.03-1.84.09-.67.06-1.25.09-1.75.09-2.35,0-3.08-.59-3.29-1.08-.1-.24-.08-.51.05-.74.13-.22.36-.37.62-.4,2.11-.21,4.02-.66,5.67-1.33,1.91-.77,3.38-1.8,4.38-3.05,1.19-1.5,1.67-3.26,1.42-5.22-.63-4.97-6.11-5.66-6.17-5.66h0c-.43,0-.79-.37-.79-.82s.37-.82.83-.82c.07,0,6.95.75,7.76,7.1.3,2.38-.31,4.61-1.76,6.44-.69.87-1.59,1.66-2.67,2.34,2.42.26,6.06.63,10.51,1.02.97-3.59,3.44-7.12,4.09-7.33.08-.03.17-.04.26-.04.35,0,.66.23.78.56.11.34,0,.71-.29.92-.25.28-2.36,3.11-3.23,6.24-.11.4-.21.83-.27,1.24-.02.12-.04.24-.05.36l12.8.69c.24.01.46.13.61.32.15.2.2.44.14.68-.04.18,0,.36.11.51.11.14.29.23.47.23h5.34c-.16-.33-.35-.67-.57-.99-.06-.05-.13-.15-.18-.26-.9-1.21-2.22-2.21-3.88-2.92-1.99-.86-4.45-1.29-7.3-1.29-.36,0-.73,0-1.1.02h0c-.47,0-.83-.35-.85-.79,0-.22.07-.43.22-.59.15-.16.35-.25.57-.26.4-.01.79-.02,1.16-.02,3.28,0,6.09.54,8.35,1.6,1.67.79,3.03,1.84,4.04,3.14l13.35.94c1.01,0,2.06-.44,2.82-1.14-1.06-.12-1.84-.49-2.31-1.11-.7-.92-.43-1.95-.39-2.06.14-.46.56-1.26,1.33-1.63-2.42-1.47-3.38-4.1-3.69-5.19-.06-.21-.09-.35-.1-.38-.09-.45.19-.88.64-.97.06-.01.11-.02.17-.02.39,0,.72.27.8.65,0,.03.56,2.48,2.37,4.02-.41-2.29-1.38-5.22-3.66-7.03-1-.79-2.31-1.21-3.78-1.21-.21,0-.42,0-.63.03-2.06.16-4.17,1.09-5.65,2.48-.15.14-.35.22-.56.22-.23,0-.44-.1-.6-.26-.15-.16-.23-.37-.22-.59,0-.22.1-.42.26-.57,1.48-1.39,3.49-2.4,5.56-2.78-1.38-1.14-3.22-2.16-5.47-3.04-3.22-1.26-6.78-1.61-9.87-1.84-4.04-.3-7.59-.44-10.86-.44-4.37,0-8.31.26-12.05.81-4.36.63-7.49,1.73-9.85,3.45-.79.58-1.59,1.46-2.25,2.48-1.48,2.29-2.06,4.84-1.54,6.81.03.1.06.19.09.29.09.28.2.54.34.81.05.09.09.17.14.25.46.76,1.06,1.36,1.81,1.84.59-.24,1.2-.42,1.83-.53h.14ZM8.51,27.85c-1.96,1.94-4.18,4.84-4.79,8.4-.37,2.18-.16,3.83.63,4.92,1.14,1.57,3.41,1.89,5.23,2.16l.95.14c.77.11,1.59.23,2.34.39-.11-.16-.24-.33-.37-.49-.78-.12-1.54-.26-2.16-.33-1.51-.18-2.44-1.03-2.47-2.27,0-.28.04-.59.14-.91-.65-.65-1.05-1.36-1.18-2.11-.28-1.58.6-2.95,1.43-3.97-.6-1.73-.51-3.81.25-5.93ZM22.15,39.62c-.28-.03-.53-.06-.76-.09-.07.03-.13.06-.2.09.16,0,.32,0,.48,0s.32,0,.49,0ZM72.06,37.62c-.18,0-.36.01-.54.03-.32.04-.54.5-.59.67,0,.02-.07.35.13.61.25.32.92.51,1.84.51l.24.16-.07-.16c.07-.03.14-.06.21-.18.05-.09.1-.2.13-.34.09-.37.06-.77-.02-.94-.05-.11-.32-.25-.78-.32-.16-.02-.37-.04-.54-.04ZM87.62,38.78c-.78-.74-2.19-1.49-4.68-1.49-.37,0-.76.02-1.17.05-.6.05-1.18.07-1.73.07-2.95,0-5.21-.67-6.63-1.27.02.02.03.03.05.05.65.16,1.15.53,1.41,1.06.2.41.28.96.23,1.52h12.53ZM9.1,35.4c-.54.8-.75,1.46-.64,2.07.05.29.19.58.41.88.43-.53.97-1.02,1.6-1.45-.52-.43-.97-.93-1.36-1.49ZM71.64,30.95c.41.12.91.17,1.48.17.45,0,.88-.04,1.21-.08-.86-1.27-2.42-1.93-3.73-2.26.39.66.74,1.39,1.03,2.16Z"/><path class="cls-1" d="M89.79,39.4c-.06-.17-1.44-4.08-8.15-3.51-5.93.51-9.33-1.96-9.36-1.99,0,0,0,0,0,0-.09-.45-.19-.91-.32-1.4.39.06.78.08,1.17.08,1.33,0,2.5-.26,2.57-.28.37-.08.59-.47.47-.83-1.24-3.73-6.02-4.34-7.09-4.44-.29-.31-.6-.61-.95-.88-1.28-1.02-2.82-1.49-4.4-1.54-1.58-1.7-3.96-3.19-7.08-4.41-3.41-1.34-7.1-1.7-10.3-1.94-9.47-.7-16.63-.58-23.23.38-4.6.67-7.94,1.85-10.5,3.72-.57.41-1.13.95-1.66,1.57-.86.55-7.47,5.01-8.68,12.06-.45,2.62-.16,4.59.89,6.03,1.5,2.06,4.22,2.46,6.21,2.75l.95.14c1.21.17,3.04.43,3.72.82.1.06.21.09.32.09.39,0,.69-.35.64-.73,0-.05-.1-.61-.53-1.42,3.11.76,6.21,1.72,6.26,1.74.06.02.13.03.19.03h7.64c.33,0,.61-.26.64-.59.11-1.29-.26-2.36-1.1-3.2-2.04-2.03-6.27-1.94-8.19-1.79.52-.15,1.01-.32,1.49-.5,2.43.27,7.06.77,13.14,1.3-.06.42-.1.85-.11,1.27,0,.35.26.63.61.65l13,.7c.14.98.98,1.77,2.04,1.77h6.5c.41,0,.71-.37.63-.77-.02-.09-.15-.7-.57-1.53,11.54.82,12.52.89,12.56.89,1.89,0,3.79-1.04,4.72-2.59.14-.23.24-.46.33-.69.04-.04.07-.08.1-.12h14.82c.21,0,.4-.1.52-.27s.15-.38.09-.58ZM72.06,37.45c.18,0,.4.02.57.04.46.07.82.21.92.41.11.23.13.67.03,1.06-.04.14-.09.28-.15.39-.09.15-.18.21-.27.24-.01,0-.02,0-.02,0-.05.01-.09.02-.12.02-.65.01-1.7-.07-2.1-.57-.27-.34-.16-.77-.16-.77,0,0,.24-.73.74-.79.19-.02.38-.04.56-.04ZM74.7,37.34c-.26-.53-.78-.85-1.38-1.02-.24-.25-.5-.49-.79-.7,0-.03,0-.06,0-.09,1.51.79,4.66,2.02,9.23,1.63,3.75-.32,5.51.9,6.28,1.79h-13.15c.09-.57.03-1.17-.18-1.62ZM74.63,31.19c-.82.12-2.13.22-3.13-.09-.32-.87-.74-1.75-1.27-2.57,1.4.3,3.45,1.01,4.4,2.67ZM71.12,34.76c-2.16-1.55-2.78-4.37-2.79-4.4-.07-.35-.41-.57-.76-.5-.35.07-.57.41-.5.76,0,.03.04.16.09.37.29,1.02,1.3,3.86,3.93,5.27-.92.24-1.42,1.12-1.58,1.65-.03.11-.28,1.06.36,1.91.5.65,1.36,1.01,2.56,1.07-.78.88-2.02,1.46-3.22,1.47-.6-.04-12.77-.9-13.43-.95-.82-1.07-2.08-2.24-4.03-3.16-2.18-1.02-5.21-1.72-9.43-1.56-.35.01-.63.31-.62.67.01.35.3.63.67.62,3.77-.14,6.5.43,8.48,1.28,2,.86,3.23,2.01,3.98,3.02.04.09.09.16.16.23.33.48.55.92.7,1.27h-5.62c-.5,0-.87-.46-.76-.95.09-.39-.19-.77-.59-.79l-12.98-.7c.02-.19.05-.37.07-.56.06-.42.16-.86.28-1.26.87-3.14,2.96-5.97,3.29-6.33h0c.22-.17.32-.46.23-.73-.11-.34-.48-.52-.81-.41-.51.17-3.05,3.63-4.01,7.35-4.71-.41-8.55-.8-11.18-1.09,1.25-.72,2.29-1.58,3.08-2.57,1.43-1.79,2.02-3.98,1.73-6.31-.79-6.21-7.51-6.94-7.58-6.94-.36,0-.65.29-.65.64s.3.64.63.64c.06,0,5.68.69,6.33,5.82.26,2.01-.24,3.81-1.46,5.35-1.02,1.29-2.54,2.34-4.45,3.11-1.8.73-3.79,1.14-5.72,1.34-.2.02-.38.14-.49.31s-.12.39-.04.58c.2.48,1.1,1.23,4.86.88,3.4-.31,6.15.21,7.34,1.4.44.43.68.96.73,1.59h-6.91c-.66-.21-4.4-1.35-7.69-2.07-.87-.19-1.9-.39-2.8-.5-.77-.09-1.17-.38-1.19-.85,0-.01,0-.03,0-.04,0-.42.24-.87.49-1.22.45-.63,1.2-1.29,2.18-1.8.55-.28,1.17-.51,1.84-.66.1-.02.2-.05.31-.07.35-.06.58-.4.52-.75-.06-.36-.41-.58-.75-.52-.67.12-1.3.31-1.88.55-.75-.46-1.42-1.09-1.94-1.94-.05-.09-.1-.17-.15-.26-.14-.27-.26-.55-.35-.84-.03-.1-.06-.2-.09-.3-.59-2.26.24-4.91,1.56-6.95.68-1.05,1.48-1.93,2.29-2.53,2.38-1.74,5.54-2.84,9.93-3.48,6.5-.95,13.58-1.06,22.95-.37,3.1.23,6.68.58,9.92,1.85,2.45.96,4.39,2.07,5.81,3.32-2.19.33-4.32,1.38-5.84,2.8-.26.24-.27.65-.03.91.24.26.65.27.91.03,1.48-1.39,3.64-2.36,5.76-2.52,1.65-.13,3.27.22,4.54,1.23,2.5,1.98,3.44,5.28,3.8,7.59ZM13.26,44.13c-.86-.21-1.87-.35-2.75-.48l-.95-.14c-1.86-.27-4.17-.6-5.35-2.23-.82-1.13-1.04-2.83-.66-5.06.68-3.97,3.33-7.12,5.43-9.06-.92,2.13-1.28,4.54-.51,6.65-.82,1.01-1.72,2.37-1.45,3.91.13.75.54,1.45,1.21,2.1-.11.33-.17.65-.17.96.03,1.14.9,1.92,2.32,2.09.67.08,1.45.22,2.28.39.26.31.46.61.61.87ZM8.86,38.63c-.32-.37-.51-.75-.58-1.13-.15-.84.29-1.67.82-2.41.48.75,1.04,1.34,1.66,1.82-.79.5-1.44,1.1-1.9,1.72Z"/><path class="cls-1" d="M49.32,37.33c-.22,0-.43-.11-.58-.27-.15-.17-.22-.38-.2-.61.27-3.5,2.78-6.29,3.27-6.59.13-.08.28-.12.43-.12.29,0,.55.15.7.39.23.38.13.87-.24,1.11-.23.18-1.87,1.97-2.39,4.42,1.41-.12,3.76-.57,5.28-2.24.15-.17.38-.27.61-.27.21,0,.4.08.55.21.16.15.26.35.27.57.01.22-.07.43-.21.59-.87.95-2.02,1.69-3.42,2.17-1.68.58-3.23.65-3.82.65h-.23Z"/><path class="cls-1" d="M55.72,33.53c-1.68,1.85-4.36,2.24-5.62,2.32.46-2.59,2.22-4.54,2.51-4.76.29-.19.37-.58.19-.87-.19-.3-.58-.4-.88-.21-.48.29-2.92,3.02-3.18,6.45-.03.36.25.68.61.69,0,0,.1,0,.23,0,.57,0,2.11-.06,3.76-.64,1.16-.4,2.38-1.06,3.35-2.12.24-.26.22-.67-.04-.91-.26-.24-.67-.22-.91.04Z"/></g></svg>