<?xml version="1.0" encoding="UTF-8"?>
<svg xmlns="http://www.w3.org/2000/svg" version="1.1" viewBox="0 0 244.36 234.05">
  <defs>
    <style>
      .cls-1 {
        fill: #9a9486;
      }
    </style>
  </defs>
  <!-- Generator: Adobe Illustrator 28.6.0, SVG Export Plug-In . SVG Version: 1.2.0 Build 709)  -->
  <g>
    <g id="_圖層_1" data-name="圖層_1">
      <path class="cls-1" d="M144.15,190.08c-1.96,1.98-3.68,3.73-5.41,5.49-1.99,2.02-3.84,4.22-6.02,6-1.66,1.36-3.73,2.23-5.66,3.23-.95.49-1.09.73-.23,1.34,3.24,2.3,5.14,5.56,6.38,9.2.46,1.35.38,2.92.4,4.39.03,3.56,0,7.11-.09,10.67-.05,1.93-2.05,3.64-4.01,3.64-20.91-.02-41.81-.03-62.72-.04-1.28,0-2.59.13-3.83-.11-2.6-.52-4.94-1.69-7.09-3.28-.52-.39-1.27-.67-1.92-.67-5.12-.04-10.23,0-15.35,0-.32,0-.64,0-.96-.06-7.4-1.37-13.97-4.24-18.99-10.14-2.6-3.06-4.38-6.55-6-10.16-1.29-2.86-2.57-5.73-3.7-8.65-.91-2.37-1.6-4.82-2.36-7.24-.89-2.84-1.75-5.69-2.62-8.54-.06-.19-.14-.38-.18-.57-.7-3.38-1.55-6.75-2.04-10.16-.53-3.66-.72-7.37-1.05-11.06-.13-1.43-.17-2.87-.33-4.3-.47-4.26-.52-8.51-.06-12.78.31-2.89.34-5.82.52-8.73.14-2.22.94-4.12,3.12-4.98.9-.36,2.19-.62,2.96-.24,3.86,1.89,7.72,3.82,11.36,6.1,4.81,3.02,8.75,7.09,12.09,11.68,2.49,3.42,4.73,7.02,6.24,11.01,1.03,2.71,1.92,5.47,3.02,8.15.49,1.2,1.27,2.3,2.01,3.39.43.63.93.41,1.12-.25.72-2.57,1.37-5.15,2.09-7.71.49-1.74,1.07-3.46,1.58-5.2.43-1.44.78-2.9,1.23-4.33.38-1.21.81-2.42,1.3-3.59.82-1.97,1.61-3.98,2.6-5.87,1.97-3.78,3.9-7.6,6.16-11.21,4.28-6.84,9.51-12.93,15.51-18.32,2.49-2.23,5.18-4.25,7.83-6.3,3.19-2.47,6.42-4.87,9.64-7.3,3.67-2.76,7.35-5.51,11-8.29,7.11-5.41,14.53-10.48,20.46-17.28,1.99-2.28,3.84-4.7,5.5-7.23,2.15-3.25,3.99-6.7,6.07-10,.63-1,1.58-1.8,2.42-2.65,1.65-1.68,3.3-3.38,5.01-4.99,1.37-1.29,1.96-2.89,2.44-4.66.66-2.4,1.59-4.73,2.38-7.09.55-1.65,1.06-3.31,1.61-4.96.79-2.36,1.61-4.71,2.4-7.07.52-1.53,1.02-3.08,1.54-4.61.54-1.57,1.11-3.13,1.62-4.71.53-1.62,1.07-3.23,1.5-4.88.76-2.92,2.41-4.79,5.37-5.82,4.16-1.45,8.18-3.29,12.27-4.93,2.06-.83,4.25-1.39,6.19-2.43,1.93-1.02,3.86-.74,5.84-.76,6.63-.05,13.27-.13,19.9-.22,2.19-.03,3.32,1.43,4.23,3.03,1.35,2.38,2.55,4.86,3.76,7.32.81,1.63,1.6,3.28,2.3,4.97.74,1.81,1.43,2.23,3.47,2.22,6.52-.04,13.03-.05,19.55-.01,1.17,0,2.38.17,3.49.52,2.33.72,3.18,2.79,3.23,4.86.17,6.95.15,13.91,0,20.86-.03,1.21-.8,2.63-1.66,3.56-1.25,1.36-2.83,2.46-4.38,3.51-3.33,2.27-6.73,4.43-10.11,6.63-.33.22-.68.47-1.06.55-1.71.36-3.43.66-5.15,1-2.9.58-5.8,1.2-8.71,1.77-.66.13-1.36.04-2.02.18-1,.21-1.99.49-2.97.81-.27.09-.6.37-.67.63-.38,1.32-.7,2.67-1.03,4.01-.08.31-.07.64-.17.94-.7,2.22-1.43,4.44-2.14,6.66-.28.86.4,1.02.93.98,2.26-.18,4.07.94,5.92,1.94,2.77,1.5,4.36,3.94,5.63,6.73,1.18,2.59.98,5.33.56,7.87-.49,2.96-2.25,5.55-4.69,7.44-2.92,2.27-6.16,3.68-10,3.03-.92-.16-1.14.26-1.09,1.17.11,1.9.07,3.81.06,5.71-.02,1.84.09,3.7-.17,5.5-.42,2.93-.34,5.96-1.63,8.73-.13.28-.17.61-.25.92-.56,2.05-1.05,4.12-1.69,6.15-.69,2.19-1.47,4.35-2.3,6.49-.74,1.88-1.58,3.73-2.42,5.57-1.02,2.25-1.81,4.45-1.78,7.06.13,12.83.04,25.66.04,38.49,0,1.84.13,3.63.94,5.37.55,1.19.67,2.59.96,3.9.44,1.93.85,3.86,1.31,5.78.08.35.31.8.6.94.89.41,1.85.7,2.78,1.03,1.86.65,3.72,1.3,5.6,1.92.75.25,1.6.28,2.29.63,2.75,1.4,3.63,4.36,2.59,7.39-.83,2.42-1.27,4.97-1.92,7.46-.51,1.91-1.09,3.8-1.63,5.7-.1.34-.21.69-.24,1.04-.22,3.22-2.43,5.1-5.68,5.09-12.91-.04-25.82-.07-38.73.02-2,.01-3.37-.75-4.27-2.29-.64-1.1-.88-2.43-1.27-3.67-.18-.56-.24-1.16-.41-1.73-.5-1.75-1.03-3.49-1.52-5.24-.6-2.14-1.19-4.28-1.76-6.42-.51-1.91-1.01-3.82-1.51-5.73-.29-1.14-.52-2.29-.84-3.42-.52-1.82-1.11-3.63-1.63-5.45-.54-1.91-1.03-3.83-1.56-5.74-.38-1.36-.8-2.71-1.26-4.26ZM122.26,196.29c.71-.1,1.21-.04,1.53-.24,1.33-.85,2.76-1.62,3.88-2.71,5.26-5.14,10.46-10.34,15.62-15.58,2.56-2.6,5.19-2.11,7.26.65.72.96.95,2.3,1.33,3.49.52,1.62,1.01,3.25,1.45,4.89.52,1.95.94,3.92,1.47,5.87.51,1.83,1.13,3.63,1.66,5.46.33,1.13.61,2.28.89,3.43.47,1.92.86,3.85,1.38,5.76.55,2.02,1.23,4,1.82,6.01.6,2.05,1.17,4.1,1.75,6.16.1.34.17.7.25,1.04.32,1.22.58,2.46.99,3.66.1.29.66.59,1.02.59,4.23.05,8.47.03,12.71.04.71,0,1.06-.32,1.24-1.02.61-2.42,1.33-4.81,1.9-7.24.12-.52-.03-1.33-.38-1.67-.48-.47-1.25-.67-1.93-.89-1.69-.56-3.4-1.06-5.1-1.6-.79-.25-1.65-.41-2.33-.85-2.03-1.31-3.19-3.19-3.23-5.68,0-.47-.17-.93-.27-1.4-.2-.93-.41-1.85-.61-2.78-.12-.54-.22-1.08-.34-1.62-.51-2.15-1.04-4.29-1.54-6.45-.21-.89-.35-1.79-.51-2.68-.14-.82-.38-1.64-.38-2.47-.02-7.91.03-15.83-.01-23.74-.01-2.22.74-4.01,2.29-5.55,4.85-4.82,9.58-9.75,14.54-14.45,2.03-1.92,2.84-4.38,3.96-6.73.96-2.04,1.77-4.15,2.63-6.23.48-1.17,1-2.34,1.39-3.54.53-1.65,1-3.33,1.4-5.02.53-2.23,1.03-4.48,1.43-6.74.31-1.76.43-3.56.64-5.34.18-1.59.61-3.19.5-4.75-.31-4.45-.84-8.89-1.29-13.33,0-.08-.05-.15-.06-.23-.23-1.23-.51-2.46-.67-3.71-.11-.86-.49-1.28-1.33-1.11-3.24.68-6.21-.81-9.29-1.27-2.65-.4-5.19-1.59-7.73-2.57-6.13-2.37-11.68-5.69-16.4-10.31-2.77-2.71-5.68-5.29-7.7-8.66-.63-1.06-1.31-2.1-2.03-3.1-.31-.44-.73-1.2-1.4-.45-2,2.23-3.63,4.7-5.2,7.26-2.42,3.93-4.99,7.82-7.88,11.41-3.35,4.16-6.95,8.14-11.23,11.44-3.86,2.97-7.63,6.05-11.49,9.02-3.22,2.48-6.52,4.88-9.77,7.32-2.11,1.58-4.2,3.18-6.31,4.76-3.16,2.37-6.51,4.53-9.44,7.15-4.07,3.65-8.03,7.45-11.63,11.55-2.96,3.37-5.43,7.19-7.88,10.96-1.6,2.46-2.88,5.15-4.12,7.81-1.07,2.29-1.9,4.7-2.8,7.07-.46,1.22-.92,2.46-1.26,3.72-.47,1.75-.81,3.54-1.25,5.3-.54,2.14-1.13,4.28-1.72,6.41-.46,1.68-.82,3.41-1.48,5.01-.59,1.44-.82,2.85-.52,4.32.29,1.44.73,2.85,1.15,4.25.86,2.85,1.75,5.69,2.63,8.53.36,1.17.74,2.33,1.05,3.52.46,1.76.85,3.54,1.3,5.31.29,1.15.48,2.35.97,3.41.95,2.1,1.12,4.29,1.18,6.54.05,1.98.08,4.01.53,5.92.52,2.19,2.1,3.76,4.29,4.4,1.39.41,2.88.64,4.33.65,18.35.06,36.69.07,55.04.1.78,0,1.31-.19,1.45-1.05.43-2.62.01-5.23-1.27-7.4-1.54-2.61-4-4.28-7.26-4.28-5.76,0-11.51-.03-17.27.03-2.1.02-3.36-1.12-4.24-2.78-.39-.73-.79-1.76-.57-2.46.77-2.51,1.53-3.95,4.9-4.2,2.98-.23,5.86-.87,8.46-2.58,4.54-3,6.78-7.29,7.31-12.54.34-3.44-1-6.63-2.32-9.65-2.28-5.21-5.96-9.32-11.05-12.04-1.79-.96-3.56-1.93-5.34-2.91-2.91-1.6-3.29-5-1.15-7.4,1.43-1.6,3.39-1.96,5.31-.95.99.52,2,1,3,1.49,3.23,1.59,6.35,3.34,9.01,5.83,6.26,5.87,10.43,12.82,11.59,21.49.53,3.93.32,7.67-1.07,11.37-.15.4-.21.82-.38,1.53ZM168.72,38.07s-.02,0-.02,0c0-2.4.11-4.8-.04-7.19-.09-1.37.35-2.38,1.32-3.14,1.14-.89,2.33-1.96,3.98-1.43,2.67.86,4,2.88,3.98,5.74-.04,4.16,0,8.31-.05,12.47-.03,2.57-.08,5.19-1.16,7.58-.81,1.79-1.7,3.59-2.84,5.18-1.81,2.5-4.28,4.39-7.13,5.48-1.98.75-4,1.99-6.34,1.18-.24-.08-.57.12-.86.2.15.33.21.77.46.97,3.27,2.68,6.38,5.57,10.17,7.54,2.26,1.17,4.52,2.39,6.89,3.31,2.24.87,4.63,1.36,6.95,2.02.31.09.62.16.94.19,2.19.2,4.37.4,6.56.58.87.07,1.6-.17,1.88-1.11.68-2.28,1.36-4.55,2-6.84.82-2.93,1.6-5.88,2.41-8.81.31-1.11.03-1.64-1.1-1.91-.65-.16-1.31-.31-1.95-.52-1.35-.44-2.65-1.06-4.03-1.36-3.01-.65-4.78-2.59-4.83-5.66-.04-2.52-.12-5.05.06-7.55.15-2.18.73-4.17,3.25-5.06,2.88-1.02,6.27,1.14,6.25,4.2,0,1.56,0,3.12-.05,4.67-.02.78.27,1.14,1.04,1.33,1.38.34,2.78.66,4.08,1.21,1.85.79,3.61,1.49,5.72.97,2.65-.65,5.36-1.08,8.04-1.6.93-.18,1.88-.33,2.81-.51,2.22-.43,4.43-.87,6.65-1.31.11-.02.22-.1.32-.17,3.22-2.14,6.44-4.28,9.66-6.43.65-.44,1.03-.98.8-1.82-.23-.82-.7-1.31-1.58-1.41-.39-.04-.79-.15-1.14-.33-2.64-1.34-4.94-3.14-6.69-5.52-1.07-1.45-1.98-3.08-2.61-4.76-.38-1.03-.76-1.43-1.81-1.4-2.44.06-4.88-.08-7.31.09-1.92.14-3.25-.72-4.34-2.04-.65-.78-1.07-1.77-1.54-2.69-2.05-4.05-4.09-8.11-6.1-12.18-.38-.77-.95-.95-1.74-.95-5.28.02-10.55,0-15.83,0-.42,0-.86.14-1.25.3-2.81,1.13-5.6,2.28-8.4,3.41-3.32,1.34-6.65,2.67-9.96,4.03-.28.12-.59.41-.69.7-.64,1.79-1.22,3.6-1.83,5.4-.32.94-.66,1.87-.95,2.82-.8,2.61-1.53,5.24-2.39,7.83-.81,2.44-1.77,4.83-2.64,7.25-.38,1.04-.69,2.11-1.05,3.16-.62,1.83-1.22,3.67-1.89,5.48-.27.73-.49,1.41.22,1.96,2.64,2.04,5.45,3.43,8.96,2.68,2.5-.53,4.26-2.03,5.41-4.14,1.16-2.12,1.61-4.47,1.4-6.94-.14-1.71-.03-3.44-.03-5.15ZM9.87,144.07c-.13.57-.26.87-.26,1.16.12,6.26-.56,12.54.6,18.78.38,2.07.29,4.22.62,6.31.49,3.14,1.13,6.25,1.75,9.36.35,1.78.78,3.55,1.17,5.33.03.15.13.29.18.44.53,1.62,1.05,3.25,1.58,4.87.75,2.33,1.41,4.7,2.29,6.98,1.13,2.93,2.46,5.78,3.66,8.68,2.22,5.39,5.24,10.1,10.88,12.43,1.88.77,3.71,1.78,5.89,1.74,3.43-.07,6.87.02,10.31.07.9.01,1.08-.48,1.06-1.22-.03-1.56.01-3.12-.1-4.67-.08-1.13-.3-2.26-.57-3.36-.37-1.51-.86-2.98-1.26-4.48-.46-1.72-.86-3.45-1.34-5.16-.52-1.87-1.09-3.72-1.64-5.57-.56-1.86-1.12-3.73-1.68-5.59-.47-1.56-1.1-3.09-1.35-4.68-.15-.97-.58-1.37-1.29-1.91-1.96-1.49-3.96-2.98-5.65-4.75-3.19-3.34-4.75-7.58-6.01-11.93-1.21-4.16-3.38-7.87-6-11.21-3-3.82-6.37-7.38-10.56-10.01-.72-.45-1.39-.98-2.25-1.59ZM181.4,174.3h.03c0-4.59,0-9.18,0-13.78,0-.72.11-1.43.09-2.15,0-.23-.22-.5-.41-.64-.09-.06-.42.14-.57.29-2.13,2.21-4.28,4.4-6.36,6.66-.41.45-.77,1.16-.77,1.75-.06,6.31.18,12.63-.12,18.92-.16,3.37,1.04,6.4,1.42,9.61.31,2.62,1.15,5.18,1.83,7.75.12.45.57.99.99,1.15,2.27.84,4.59,1.56,6.88,2.34.83.28,1.26-.02,1.07-.89-.3-1.42-.69-2.83-1.04-4.24-.65-2.61-1.31-5.22-1.97-7.82-.07-.27-.21-.52-.27-.79-.28-1.18-.76-2.37-.79-3.56-.09-4.87-.04-9.74-.04-14.62ZM194.47,224.8c1.12.08,1.7-.61,1.93-1.56.42-1.76.71-3.55,1.1-5.32.14-.64.36-1.29.67-1.86.3-.56.37-1.02-.28-1.26-1.89-.69-3.79-1.39-5.72-1.97-1.15-.34-1.57.08-1.65,1.32-.05.71,0,1.45-.18,2.14-.61,2.37-1.31,4.72-1.96,7.08-.32,1.14-.08,1.44,1.07,1.44,1.67-.01,3.34,0,5.01,0ZM200.52,89.63c-.05,1.47,1.53,2.85,3.28,2.83,2.6-.02,3.91-1.56,4.28-3.97.27-1.76-2.24-4.39-4.11-4.23-.91.08-1.87.67-2.63,1.26-1.45,1.13-.29,2.9-.82,4.11ZM233.11,26.84c-.14.11-.42.32-.7.53.52.55,1.04,1.09,1.56,1.64.22-.24.59-.45.62-.71.11-.87-.42-1.3-1.48-1.45Z"/>
      <path class="cls-1" d="M195.11,22.1c2.37-.09,5.02,2.34,5.03,4.62.01,2.29-2.52,4.82-4.93,4.91-2.03.08-4.67-2.17-4.72-4.01-.1-3.65,1.35-5.39,4.62-5.52Z"/>
    </g>
  </g>
</svg>