<?xml version="1.0" encoding="UTF-8"?>
<svg xmlns="http://www.w3.org/2000/svg" version="1.1" viewBox="0 0 177.36 93.2">
  <defs>
    <style>
      .cls-1 {
        fill: #9a9486;
      }
    </style>
  </defs>
  <!-- Generator: Adobe Illustrator 28.6.0, SVG Export Plug-In . SVG Version: 1.2.0 Build 709)  -->
  <g>
    <g id="_圖層_1" data-name="圖層_1">
      <g>
        <path class="cls-1" d="M127.68,83.38h-49.57l-.3-1.45s-.02-.09-.03-.13c0-.03-.01-.06-.02-.09-1.15-5.23-5.87-9.02-11.23-9.02s-10.08,3.79-11.22,9.01c0,.04-.01.07-.02.1,0,.04-.02.09-.03.13l-.3,1.45h-25.54v-33.2c0-1,.81-1.81,1.81-1.81s1.81.81,1.81,1.81v29.57h19.02c.87-2.85,2.59-5.41,4.92-7.31,2.68-2.18,6.07-3.39,9.54-3.39s6.85,1.2,9.54,3.39c2.33,1.9,4.05,4.46,4.92,7.31h43.05V3.63H33.06v5.51c0,1-.81,1.81-1.81,1.81s-1.81-.81-1.81-1.81V0h98.25v83.38Z"/>
        <path class="cls-1" d="M168.88,83.38h-8.18l-.3-1.45s-.02-.09-.03-.14c0-.03,0-.06-.02-.08-1.15-5.23-5.87-9.02-11.23-9.02s-10.08,3.79-11.22,9.01c0,.04-.01.07-.02.1,0,.04-.02.09-.03.13l-.3,1.45h-13.52V29.37h16.59c4.6,0,9,1.72,12.39,4.83l24.33,22.38v18.32c0,4.68-3.8,8.48-8.48,8.48ZM163.6,79.75h5.28c2.68,0,4.85-2.18,4.85-4.85v-16.72l-23.16-21.3c-2.72-2.5-6.25-3.88-9.94-3.88h-12.96v46.76h7c.87-2.85,2.59-5.41,4.92-7.31,2.68-2.18,6.07-3.39,9.54-3.39s6.85,1.2,9.54,3.39c2.33,1.9,4.05,4.46,4.92,7.31Z"/>
        <path class="cls-1" d="M66.54,93.2c-4.97,0-9.02-4.04-9.02-9.02,0-.66.07-1.32.22-1.95.43-1.97,1.54-3.76,3.11-5.04,1.6-1.3,3.62-2.02,5.69-2.02s4.09.72,5.69,2.02c1.58,1.28,2.68,3.08,3.12,5.05.14.63.21,1.28.21,1.94,0,4.97-4.04,9.02-9.02,9.02ZM66.54,78.79c-2.51,0-4.72,1.78-5.26,4.22-.09.38-.13.77-.13,1.17,0,2.97,2.42,5.39,5.39,5.39s5.39-2.42,5.39-5.39c0-.39-.04-.78-.13-1.16-.54-2.46-2.75-4.23-5.26-4.23Z"/>
        <path class="cls-1" d="M149.14,93.2c-4.97,0-9.02-4.04-9.02-9.02,0-.66.07-1.32.22-1.95.43-1.97,1.54-3.76,3.11-5.04,1.6-1.3,3.62-2.02,5.69-2.02s4.09.72,5.69,2.02c1.58,1.28,2.68,3.08,3.12,5.05.14.62.21,1.28.21,1.94,0,4.97-4.04,9.02-9.02,9.02ZM149.14,78.79c-2.51,0-4.72,1.78-5.26,4.22-.09.38-.13.77-.13,1.17,0,2.97,2.42,5.39,5.39,5.39s5.39-2.42,5.39-5.39c0-.39-.04-.78-.13-1.16-.54-2.46-2.75-4.23-5.26-4.23Z"/>
        <path class="cls-1" d="M172.31,56.91c-.09,0-.19,0-.28-.02l-38.84-6v-13.16c0-1,.81-1.81,1.81-1.81s1.81.81,1.81,1.81v10.05l35.77,5.52c.99.15,1.67,1.08,1.52,2.07-.14.9-.91,1.54-1.79,1.54Z"/>
        <g>
          <path class="cls-1" d="M46.16,18.98H1.81c-1,0-1.81-.81-1.81-1.81s.81-1.81,1.81-1.81h44.34c1,0,1.81.81,1.81,1.81s-.81,1.81-1.81,1.81Z"/>
          <path class="cls-1" d="M53.23,31.23h-24.18c-1,0-1.81-.81-1.81-1.81s.81-1.81,1.81-1.81h24.18c1,0,1.81.81,1.81,1.81s-.81,1.81-1.81,1.81ZM16.95,31.23h-3.63c-1,0-1.81-.81-1.81-1.81s.81-1.81,1.81-1.81h3.63c1,0,1.81.81,1.81,1.81s-.81,1.81-1.81,1.81Z"/>
          <path class="cls-1" d="M60.3,43.47H15.95c-1,0-1.81-.81-1.81-1.81s.81-1.81,1.81-1.81h44.34c1,0,1.81.81,1.81,1.81s-.81,1.81-1.81,1.81Z"/>
        </g>
        <g>
          <path class="cls-1" d="M91.71,31.23c-.55,0-1.09-.25-1.45-.72l-7.81-10.33c-.6-.8-.45-1.94.35-2.54.8-.6,1.94-.45,2.54.35l7.81,10.33c.6.8.45,1.94-.35,2.54-.33.25-.71.37-1.09.37Z"/>
          <path class="cls-1" d="M102.7,31.45s-.03,0-.04,0l-10.99-.23c-1-.02-1.8-.85-1.78-1.85.02-.99.83-1.78,1.81-1.78,0,0,.03,0,.04,0l10.99.23c1,.02,1.8.85,1.78,1.85-.02.99-.83,1.78-1.81,1.78Z"/>
          <path class="cls-1" d="M91.71,49.27h0c-.08,0-.16,0-.24,0-1-.01-1.8-.83-1.79-1.83.01-.99.82-1.79,1.81-1.79,0,0,.01,0,.01,0,.07,0,.14,0,.21,0,1,0,1.82.81,1.82,1.81s-.81,1.81-1.81,1.81ZM98.51,47.95c-.72,0-1.39-.43-1.68-1.13-.38-.93.07-1.99,1-2.36,1.95-.79,3.7-1.94,5.21-3.42.03-.02.05-.05.08-.07.02-.03.05-.05.07-.08,1.49-1.49,2.66-3.23,3.48-5.17.39-.92,1.45-1.36,2.38-.97.92.39,1.36,1.45.97,2.38-1,2.37-2.43,4.5-4.26,6.32-.03.03-.06.06-.09.09-.03.03-.06.06-.09.09-1.85,1.8-3.99,3.21-6.37,4.18-.22.09-.46.13-.68.13ZM84.7,47.86c-.23,0-.47-.05-.7-.14-2.37-1-4.5-2.43-6.32-4.25-.03-.03-.06-.06-.09-.09-.03-.03-.06-.06-.09-.09-1.8-1.85-3.21-3.99-4.18-6.37-.38-.93.07-1.99.99-2.36.93-.38,1.99.07,2.36.99.79,1.95,1.94,3.7,3.42,5.21.02.03.05.05.07.08.03.02.05.05.08.07,1.49,1.49,3.23,2.66,5.17,3.48.92.39,1.36,1.45.97,2.38-.29.69-.96,1.11-1.67,1.11ZM109.75,31.46s-.02,0-.02,0c-1-.01-1.8-.83-1.79-1.84,0-.07,0-.14,0-.21v-.04c0-1,.81-1.81,1.81-1.81s1.81.81,1.81,1.81v.04c0,.08,0,.17,0,.25-.01.99-.82,1.79-1.81,1.79ZM73.66,31.25c-1,0-1.81-.81-1.81-1.81v-.02c0-.08,0-.16,0-.24.01-.99.82-1.79,1.81-1.79h.02c1,.01,1.8.83,1.79,1.83,0,.06,0,.13,0,.19v.02c0,1-.81,1.81-1.81,1.81ZM108.41,24.4c-.71,0-1.39-.42-1.68-1.13-.8-1.94-1.95-3.7-3.42-5.21-.02-.03-.05-.05-.07-.08-.03-.02-.05-.05-.08-.07-1.5-1.49-3.24-2.66-5.17-3.47-.92-.39-1.36-1.45-.97-2.37.39-.92,1.45-1.36,2.37-.97,2.37,1,4.5,2.43,6.33,4.25.03.03.06.06.09.09.03.03.06.06.09.09,1.81,1.85,3.21,3.99,4.19,6.37.38.93-.06,1.99-.99,2.37-.22.09-.46.14-.69.14ZM75.06,24.23c-.23,0-.47-.05-.7-.14-.92-.39-1.36-1.45-.97-2.38,1-2.37,2.43-4.5,4.25-6.33.03-.03.06-.06.09-.09.03-.03.06-.06.09-.09,1.85-1.8,3.99-3.21,6.37-4.19.93-.38,1.99.07,2.37.99.38.93-.07,1.99-.99,2.37-1.94.79-3.7,1.95-5.21,3.42-.03.02-.05.05-.08.07-.02.03-.05.05-.07.08-1.49,1.49-2.66,3.23-3.48,5.17-.29.69-.96,1.11-1.67,1.11ZM91.91,13.18h-.02c-.06,0-.12,0-.18,0h-.03c-1,0-1.81-.81-1.81-1.81s.81-1.81,1.81-1.81h.04c.06,0,.14,0,.21,0,1,.01,1.8.83,1.79,1.83-.01.99-.82,1.79-1.81,1.79Z"/>
        </g>
      </g>
    </g>
  </g>
</svg>