<?xml version="1.0" encoding="UTF-8"?>
<svg xmlns="http://www.w3.org/2000/svg" version="1.1" viewBox="0 0 228.55 235.71">
  <defs>
    <style>
      .cls-1 {
        fill: #9a9486;
      }
    </style>
  </defs>
  <!-- Generator: Adobe Illustrator 28.6.0, SVG Export Plug-In . SVG Version: 1.2.0 Build 709)  -->
  <g>
    <g id="_圖層_1" data-name="圖層_1">
      <g>
        <path class="cls-1" d="M89.55,235.67c-28.22,0-56.44,0-84.67,0-2.86,0-5.02-2.28-4.85-5.11.05-.88.05-1.76.05-2.64C.04,193.27,0,158.61,0,123.96c0-1.8.31-3.66.82-5.4,1.86-6.38,3.87-12.71,5.81-19.07,1.35-4.42,2.7-8.84,4.01-13.26,1.34-4.51,2.66-9.03,3.96-13.56.83-2.87,1.6-5.75,2.42-8.62.16-.57.5-1.09.71-1.64.27-.7.18-1.28-.65-1.5-3.35-.86-5.38-3.25-7.01-6.08-2.25-3.89-2.57-8.16-1.92-12.43.67-4.39,2.6-8.29,6.6-10.63,1.45-.85,3.3-1.44,4.97-1.45,14.35-.09,28.7-.02,43.05-.02.73,0,1.56-.13,2.19-.47,5.76-3.11,11.49-6.28,17.23-9.42,4.48-2.45,8.98-4.88,13.47-7.31,1.93-1.05,3.88-2.07,5.78-3.16,2.93-1.69,6.1-2.2,9.43-2.2,20.99.02,41.97.02,62.96.02,4.8,0,9.59-.01,14.39.02.96,0,1.43-.34,1.43-1.3,0-.88,0-1.76.04-2.64.09-2.13,1.81-3.81,3.94-3.81,10.11-.01,20.23-.02,30.34-.01,2.47,0,4.55,2.2,4.55,4.68,0,16.15,0,32.3.01,48.45,0,2.24-2.5,4.64-4.91,4.64-9.59.01-19.19.05-28.78,0-1.1,0-2.29-.33-3.28-.83-1.36-.69-2.03-1.91-1.95-3.56.1-1.87.06-3.76.03-5.63-.02-1.4-.32-1.62-1.74-1.6-1.4.02-2.8.02-4.19-.04-.76-.03-1.03.25-1.15,1-1.17,7.32-5.05,12.72-11.66,16.07-2.28,1.16-4.67,2.08-7.33,1.9-.95-.07-1.02.48-.79,1.25,1.06,3.55,2.06,7.11,3.13,10.65,1.16,3.84,2.42,7.65,3.55,11.51,1.12,3.83,2.11,7.69,3.21,11.53.82,2.87,1.79,5.71,2.58,8.59,1.19,4.3,2.36,8.6,3.37,12.94.33,1.41.13,2.94.13,4.42,0,33.82,0,67.64,0,101.45,0,1.32.08,2.64.09,3.96.02,2.43-1.89,4.34-4.29,4.34-28.34,0-56.68,0-85.02,0v-.03ZM132.76,174.2h0c0-16.59.05-33.17-.05-49.76-.02-2.96.78-5.68,1.54-8.43,1.11-4.03,2.41-8.01,3.58-12.02,1.45-4.97,2.81-9.96,4.26-14.93.79-2.7,1.72-5.37,2.54-8.06,1-3.31,1.97-6.63,2.92-9.96.09-.3-.03-.67-.06-1-.31.11-.67.16-.91.35-1.1.92-2.14,1.92-3.26,2.81-4.04,3.19-8.07,6.41-12.19,9.5-4.43,3.32-9.28,5.07-14.91,3.47-6.48-1.84-10.59-5.9-12.56-12.4-1.18-3.9-.66-7.44.95-11,.14-.32.14-.82-.02-1.11-.11-.2-.62-.24-.95-.24-.6,0-1.19.12-1.79.12-24.74-.06-49.48-.14-74.22-.21-.82,0-1.39.34-1.61,1.15-.4,1.46-.76,2.93-1.17,4.39-.88,3.11-1.79,6.21-2.7,9.31-.73,2.48-1.49,4.96-2.23,7.44-.56,1.9-1.11,3.81-1.67,5.71-.45,1.53-.92,3.06-1.35,4.59-.89,3.1-1.73,6.22-2.64,9.32-.75,2.55-1.58,5.08-2.35,7.63-.54,1.79-1.09,3.57-1.56,5.38-.73,2.8-1.67,5.52-1.65,8.53.07,14.63-.03,29.26-.06,43.88-.03,18.62-.05,37.25-.07,55.87q0,3.03,3,3.03c38.45,0,76.9,0,115.35,0,1.52,0,3.04.03,4.55.13,1.02.06,1.38-.39,1.35-1.33-.04-1.12-.08-2.24-.08-3.36,0-16.27,0-32.53,0-48.8ZM82.12,30.03l.2.25c1.39,0,2.77,0,4.16,0,16.67,0,33.34,0,50,0,.62,0,1.31.07,1.86.34,2.59,1.24,4.35,4.09,1.07,7.36-4.03,4-8.03,8.03-12.03,12.05-4.54,4.56-9.12,9.08-13.58,13.72-2.56,2.67-2.97,7.21-1.04,10.34,1.18,1.92,2.85,3.47,5.11,3.86,3.27.56,6.37.05,8.84-2.5.27-.28.63-.49.95-.73,4.18-3.21,8.36-6.42,12.54-9.64,3.19-2.46,6.36-4.96,9.59-7.38.53-.39,1.31-.6,1.98-.61,3.16-.06,6.33.15,9.47-.06,2.03-.14,4.19-.5,5.99-1.38,4.64-2.27,7.11-6.16,7.22-11.39.08-3.5,2.82-6.29,6.33-6.31,2.48-.02,4.96-.04,7.43,0,1.01.01,1.46-.39,1.45-1.41-.02-6.11,0-12.23-.04-18.34-.02-2.22-.08-2.22-2.44-2.22-25.74,0-51.48-.01-77.23,0-.55,0-1.17,0-1.64.24-4.19,2.06-8.37,4.13-12.51,6.27-4.22,2.18-8.4,4.43-12.58,6.67-.41.22-.74.6-1.11.9ZM170.64,171.03c0-15.43.02-30.86-.03-46.29,0-1.57-.3-3.17-.63-4.72-.34-1.64-.87-3.24-1.34-4.84-1.14-3.86-2.3-7.72-3.45-11.58-.83-2.78-1.69-5.56-2.51-8.35-.86-2.9-1.69-5.82-2.53-8.73-.81-2.79-1.62-5.58-2.4-8.38-.42-1.49-.78-2.99-1.21-4.48-.07-.26-.38-.45-.57-.67-.19.18-.48.32-.55.54-.55,1.79-1.06,3.59-1.57,5.38-.49,1.71-.94,3.44-1.45,5.14-.79,2.63-1.64,5.24-2.42,7.87-.92,3.1-1.75,6.22-2.69,9.31-.79,2.63-1.72,5.22-2.51,7.85-.9,2.97-1.75,5.95-2.55,8.95-.47,1.73-1.06,3.48-1.16,5.24-.19,3.23-.06,6.47-.06,9.71,0,26.42,0,52.84,0,79.26,0,2.52-.09,5.03-.11,7.55,0,.44.13.89.2,1.33.44-.21.98-.33,1.31-.66,2.56-2.53,5.02-5.16,7.64-7.62,1.36-1.28,1.82-2.62,1.81-4.5-.07-24.78-.04-49.56-.04-74.35,0-1.64-.05-3.28-.01-4.92.05-1.93,1.3-3,2.9-3.75,1.4-.65,2.56-.02,3.65.8,1.24.93,1.53,2.21,1.53,3.7-.03,24.34-.02,48.69-.03,73.03,0,2.04.11,4.09-.05,6.11-.1,1.3.32,2.19,1.19,3.07,2.87,2.89,5.69,5.83,8.55,8.74.2.2.53.29.8.42.15-.3.42-.6.42-.9,0-1.2-.11-2.39-.12-3.59,0-15.23,0-30.46,0-45.69ZM71.92,38.79v-.02c-17.18,0-34.36,0-51.54-.01-1.06,0-1.87.34-2.44,1.21-2.3,3.48-2.2,7.14-.69,10.85.7,1.72,2.03,2.41,3.99,2.39,9.67-.08,19.34-.03,29.01-.04,19.98-.01,39.95-.06,59.93-.01,1.68,0,2.84-.49,3.98-1.65,3.87-3.93,7.83-7.76,11.73-11.65.21-.21.33-.62.29-.92-.02-.13-.52-.29-.8-.29-2.47.03-4.95.13-7.42.13-15.34.01-30.69,0-46.03,0ZM219.84,28.78s-.03,0-.04,0c0-6.27,0-12.55,0-18.82,0-1.63-.25-1.87-1.88-1.76-.52.03-1.04.02-1.56.02-5.83-.02-11.67-.02-17.5-.06-.85,0-1.15.37-1.11,1.16.04.76.09,1.52.09,2.27,0,8.03.02,16.07,0,24.1-.01,4.11-.07,8.23-.14,12.34-.02.92.42,1.16,1.25,1.16,6.51,0,13.03,0,19.54.03.98,0,1.36-.43,1.35-1.37-.01-6.35,0-12.71,0-19.06ZM163.74,227.55c.02.1.04.21.07.31.25-.16.71-.35.7-.47-.04-.31-.24-.65-.48-.89-2.43-2.42-4.89-4.81-7.31-7.24-.71-.71-1.19-.64-1.88.06-2.34,2.39-4.75,4.72-7.12,7.09-.23.23-.36.58-.54.87.34.15.68.41,1.02.41,1.15,0,2.31-.13,3.46-.13,4.03-.02,8.05,0,12.08,0Z"/>
        <path class="cls-1" d="M69.03,129.41c0,2.24-.09,4.48.03,6.71.1,1.87-.69,3.41-1.48,4.98-1.82,3.59-3.69,7.16-5.47,10.77-.3.61-.36,1.39-.33,2.09.27,5.35.53,10.69.91,16.03.23,3.27.75,6.51.99,9.77.43,5.97.85,11.95,1.09,17.94.19,4.81-3.35,9.28-8.03,10.97-.89.32-1.88.48-2.83.47-3.23-.04-6.48.02-9.68-.34-3.18-.36-5.56-2.32-7.3-4.94-1.8-2.71-2.22-5.7-1.9-8.94.54-5.52.84-11.07,1.28-16.61.51-6.41,1.09-12.81,1.58-19.22.15-1.95.3-3.93.11-5.86-.12-1.17-.85-2.29-1.4-3.39-1.79-3.61-3.64-7.19-5.42-10.81-.29-.59-.47-1.29-.48-1.94-.04-5.28-.04-10.55-.01-15.83.01-2.13,1.74-3.66,4.04-3.67,2.14,0,4.04,1.59,4.07,3.58.06,3.36.03,6.71.01,10.07,0,1.38.14,1.59,1.55,1.64,1.4.04,2.8,0,4.19.03.85.02,1.27-.37,1.27-1.21.02-3.28.22-6.56,0-9.82-.15-2.16,1.63-4.13,3.74-4.27,2.29-.16,4.38,1.42,4.45,3.73.09,3.27,0,6.55-.11,9.82-.04,1.35.1,1.67,1.45,1.73,1.36.06,2.72,0,4.07.04,1.03.04,1.42-.36,1.4-1.41-.06-3.2-.04-6.39-.05-9.59,0-2.46,1.82-4.3,4.28-4.32,2.3-.02,3.96,1.66,4.01,4.14.05,2.56.01,5.11.01,7.67h-.06ZM49.77,200.98s0,.02,0,.03c.96,0,1.92,0,2.87,0,2.45.02,4.19-1.72,4.04-4.15-.26-4.46-.54-8.92-.88-13.38-.46-6.13-.98-12.25-1.45-18.38-.2-2.55-.34-5.1-.52-7.65-.06-.85-.24-1.61-1.35-1.59-1.68.03-3.35.07-5.03.04-1.09-.02-1.42.49-1.49,1.53-.43,7.41-.87,14.82-1.39,22.22-.41,5.81-.95,11.61-1.41,17.42-.17,2.12,1.36,3.82,3.47,3.9,1.04.04,2.08,0,3.11,0ZM49.82,147.84s0,.02,0,.03c1.24,0,2.47-.05,3.71.02.97.05,1.61-.32,2.03-1.15.77-1.53,1.54-3.06,2.3-4.59.46-.93.2-1.3-.89-1.27-1.12.04-2.23.11-3.35.1-3.67-.02-7.34-.06-11-.1-.72,0-1.29.15-.84,1.03.87,1.7,1.81,3.37,2.68,5.06.36.7.88.93,1.65.89,1.23-.05,2.47-.01,3.71-.01Z"/>
        <path class="cls-1" d="M103.24,144.58c0,7.12-.14,14.23.05,21.34.12,4.42.77,8.83,1.17,13.24.12,1.27.2,2.55.32,3.82.42,4.45.81,8.9,1.28,13.35.65,6.13-3.09,10.32-7.81,12.29-.86.36-1.88.52-2.82.51-3.39-.06-6.87.21-10.14-.47-3.52-.74-6.01-3.32-7.51-6.69-1.19-2.67-1.15-5.42-.65-8.23.3-1.73.58-3.47.75-5.21.68-6.96,1.29-13.92,2.01-20.87.13-1.27-.33-1.96-1.38-2.45-1.05-.49-2.08-1.03-3.12-1.52-2.52-1.19-3.39-2.75-2.98-5.48.55-3.59.9-7.22,1.74-10.74.88-3.7,2.22-7.3,3.39-10.93,1.14-3.57,2.88-6.84,5.13-9.83,2.92-3.88,6.38-7.11,11.18-8.41,1.85-.5,3.87-.59,5.8-.54,2.06.06,3.73,2.19,3.73,4.28,0,7.51,0,15.03,0,22.54-.05,0-.1,0-.15,0ZM95.01,145.41s-.02,0-.03,0c0-5.87,0-11.74-.02-17.61,0-.31-.17-.72-.41-.9-.15-.12-.66-.01-.83.16-1.68,1.75-3.55,3.38-4.93,5.34-2.45,3.47-4.11,7.37-5.11,11.52-.94,3.88-1.83,7.76-2.78,11.64-.27,1.12.06,1.83,1.14,2.29.95.4,1.88.88,2.79,1.37,1.21.64,2.43,1.31,2.86,2.74.29.94.91,1.21,1.81,1.19,1.36-.03,2.72-.02,4.07.02,1.02.02,1.44-.46,1.44-1.45-.01-5.43,0-10.86,0-16.3ZM91.4,200.98v.03c.72,0,1.44-.06,2.15.01,2.83.28,4.72-1.57,4.42-4.4-.58-5.47-1.14-10.94-1.69-16.41-.25-2.5-.45-5.01-.71-7.51-.14-1.35-.53-1.58-1.89-1.53-1.59.05-3.19.05-4.78-.02-.8-.04-1.17.19-1.25,1.02-.49,4.96-.99,9.91-1.52,14.87-.33,3.05-.6,6.11-1.11,9.14-.44,2.6,1.1,4.76,3.74,4.8.88.02,1.76,0,2.63,0Z"/>
      </g>
    </g>
  </g>
</svg>