<?xml version="1.0" encoding="UTF-8"?><svg id="Layer_2" xmlns="http://www.w3.org/2000/svg" viewBox="0 0 90 90"><defs><style>.cls-1{fill:#5289b1;}.cls-1,.cls-2,.cls-3{fill-rule:evenodd;}.cls-1,.cls-2,.cls-3,.cls-4,.cls-5{stroke-width:0px;}.cls-2,.cls-4{fill:#fff;}.cls-3{fill:#f7f7f7;}.cls-5{fill:red;}</style></defs><g id="Overlay"><path class="cls-2" d="M40.41,32.64l-5.25,5.25,19.37,19.37c1.09,1.09,2.45,1.45,3.8.9,2.06,2.06,4.36-.49,2.39-2.46.55-1.35.16-2.6-.93-3.69l-19.37-19.37Z"/><path class="cls-1" d="M64.29,55.44c.15-.66.14-1.3-.02-1.92-.21-.85-.7-1.64-1.41-2.36l-18.33-18.33c.37-.59.33-1.37-.18-1.88-.59-.59-1.56-.59-2.15,0l-.06.07-14.79-14.79c-1.76-1.76-4.64-1.76-6.39,0-1.76,1.76-1.76,4.64,0,6.39l14.79,14.79-.07.07c-.59.59-.59,1.56,0,2.15.51.51,1.29.55,1.88.18l18.33,18.33c.71.71,1.53,1.19,2.41,1.39.64.15,1.31.16,1.98,0,.93.66,1.91.75,2.72.49.42-.14.8-.37,1.1-.68.3-.3.53-.68.67-1.1.28-.84.18-1.85-.47-2.79ZM42.86,34.6l14.27,14.27-3.53,3.53-14.27-14.27,3.53-3.53Z"/><path class="cls-1" d="M60.72,75.77c.57.22,1.22.32,1.89.32s1.32-.09,1.89-.32c.5-.19.95-.49,1.34-.9,2.18-2.36.61-5.28-.84-7.96-.44-.81-.87-1.61-1.21-2.4-1.53-3.57-.83-3.56-2.37,0-.34.79-.77,1.59-1.2,2.4-1.44,2.68-3.01,5.6-.84,7.96.37.41.81.69,1.29.89l.05.02Z"/><path class="cls-3" d="M25.78,17.25l4.02,4.02c.88.88-.45,2.22-1.34,1.34l-4.02-4.02c-.88-.88.45-2.22,1.34-1.34"/><rect class="cls-5" x=".97" y="42.74" width="89" height="5.47" transform="translate(-18.84 45.27) rotate(-44.83)"/><path class="cls-4" d="M75.09,13.75l2.27,2.28L15.84,77.19l-2.27-2.28L75.09,13.75M75.1,10.57l-1.6,1.59L11.98,73.31l-1.6,1.59,1.59,1.6,2.27,2.28,1.59,1.59,1.6-1.59,61.52-61.15,1.6-1.59-1.59-1.6-2.27-2.28-1.59-1.59h0Z"/><path class="cls-5" d="M45,90C20.19,90,0,69.81,0,45S20.19,0,45,0s45,20.19,45,45-20.19,45-45,45ZM45,3.22C21.96,3.22,3.22,21.96,3.22,45s18.74,41.78,41.78,41.78,41.78-18.74,41.78-41.78S68.04,3.22,45,3.22Z"/></g></svg>