<?xml version="1.0" encoding="UTF-8"?><svg id="Layer_2" xmlns="http://www.w3.org/2000/svg" viewBox="0 0 90 90"><defs><style>.cls-1{fill-rule:evenodd;}.cls-1,.cls-2,.cls-3,.cls-4{stroke-width:0px;}.cls-1,.cls-3{fill:#fff;}.cls-2{fill:#5289b1;}.cls-4{fill:red;}</style></defs><g id="Overlay"><path class="cls-1" d="M32.9,58.56V16.64h-.14c-1.23,0-2.23-1-2.23-2.23s1-2.23,2.23-2.23h10.09c1.23,0,2.23,1,2.23,2.23s-1,2.23-2.23,2.23h-.15v41.92h-9.8Z"/><path class="cls-2" d="M41.31,54h-7.01v3.17h7.01v-3.17ZM34.3,33.76h7.01V15.25h1.54c.23,0,.44-.09.59-.24.15-.15.24-.36.24-.59s-.09-.44-.24-.59c-.15-.15-.36-.24-.59-.24h-10.09c-.23,0-.44.09-.59.24-.15.15-.24.36-.24.59s.09.44.24.59c.15.15.36.24.59.24h1.54v18.51ZM31.51,58.56V17.82c-.49-.18-.94-.47-1.3-.84-.66-.66-1.07-1.57-1.07-2.56s.41-1.9,1.06-2.56c.66-.66,1.56-1.06,2.56-1.06h10.09c.99,0,1.9.41,2.56,1.06.66.66,1.07,1.57,1.07,2.56s-.41,1.9-1.06,2.56c-.37.37-.82.66-1.31.84v42.14h-12.59v-1.4Z"/><path class="cls-1" d="M51.44,46.08c6.86,2.1,11.84,8.47,11.84,16.01,0,9.25-7.5,16.74-16.74,16.74s-16.74-7.5-16.74-16.74c0-7.54,4.99-13.92,11.84-16.01v-15.24h-.14c-1.23,0-2.23-1-2.23-2.23s1-2.23,2.23-2.23h10.09c1.23,0,2.23,1,2.23,2.23s-1,2.23-2.23,2.23h-.15v15.24Z"/><path class="cls-2" d="M58.89,52.98c-1.93-2.62-4.68-4.6-7.86-5.57l-.99-.3v-17.67h1.54c.23,0,.44-.09.59-.24.15-.15.24-.36.24-.59s-.09-.44-.24-.59c-.15-.15-.36-.24-.59-.24h-10.09c-.23,0-.44.09-.59.24-.15.15-.24.36-.24.59s.09.44.24.59c.15.15.36.24.59.24h1.54v17.67l-.99.3c-3.18.97-5.92,2.95-7.86,5.57-1.88,2.54-2.99,5.7-2.99,9.11,0,4.24,1.72,8.08,4.49,10.85,2.78,2.78,6.61,4.49,10.85,4.49s8.08-1.72,10.85-4.49c2.78-2.78,4.49-6.61,4.49-10.85,0-3.42-1.11-6.57-2.99-9.11M52.84,45.09c3.34,1.24,6.22,3.43,8.29,6.24,2.23,3.02,3.55,6.74,3.55,10.77,0,5.01-2.03,9.54-5.31,12.83-3.28,3.28-7.82,5.31-12.83,5.31s-9.54-2.03-12.83-5.31c-3.28-3.28-5.31-7.82-5.31-12.83,0-4.03,1.32-7.76,3.55-10.77,2.08-2.81,4.95-5,8.29-6.24v-13.08c-.49-.18-.94-.47-1.3-.84-.66-.66-1.07-1.57-1.07-2.56s.41-1.9,1.06-2.56c.66-.66,1.56-1.06,2.56-1.06h10.09c.99,0,1.9.41,2.56,1.06.66.66,1.07,1.57,1.07,2.56s-.41,1.9-1.06,2.56c-.37.37-.82.66-1.31.84v13.08Z"/><path class="cls-2" d="M32.7,62.86c.4,7.3,6.44,13.1,13.84,13.1s13.44-5.8,13.84-13.1h-27.67Z"/><path class="cls-3" d="M53.44,69.19c.66.66.66,1.74,0,2.4-.66.66-1.74.66-2.4,0-.66-.66-.66-1.73,0-2.4.66-.66,1.73-.66,2.4,0M51.42,64.73c.53.53.53,1.4,0,1.94-.53.53-1.4.53-1.94,0-.53-.53-.53-1.4,0-1.94.53-.53,1.4-.53,1.94,0ZM55.27,65.38c.42.42.42,1.1,0,1.52-.42.42-1.1.42-1.52,0-.42-.42-.42-1.1,0-1.52.42-.42,1.1-.42,1.52,0ZM44.57,65.01c.42.42.42,1.1,0,1.52-.42.42-1.1.42-1.52,0s-.42-1.1,0-1.52c.42-.42,1.1-.42,1.52,0ZM48.06,69.42c.97.97.97,2.55,0,3.52-.97.97-2.55.97-3.52,0-.97-.97-.97-2.55,0-3.52.97-.97,2.55-.97,3.52,0Z"/><path class="cls-3" d="M38.72,42.85c.68.68.68,1.77,0,2.45-.68.68-1.78.68-2.45,0-.68-.68-.68-1.77,0-2.45.68-.68,1.77-.68,2.45,0M36.87,38.37c.61.61.61,1.61,0,2.22-.62.62-1.61.62-2.23,0-.61-.61-.61-1.61,0-2.22.61-.62,1.61-.62,2.23,0ZM39.51,36.2c.39.39.39,1.02,0,1.41-.39.39-1.02.39-1.41,0-.39-.39-.39-1.02,0-1.41.39-.39,1.02-.39,1.41,0Z"/><rect class="cls-4" x=".97" y="42.74" width="89" height="5.47" transform="translate(-18.84 45.27) rotate(-44.83)"/><path class="cls-3" d="M75.09,13.75l2.27,2.28L15.84,77.19l-2.27-2.28L75.09,13.75M75.1,10.57l-1.6,1.59L11.98,73.31l-1.6,1.59,1.59,1.6,2.27,2.28,1.59,1.59,1.6-1.59,61.52-61.15,1.6-1.59-1.59-1.6-2.27-2.28-1.59-1.59h0Z"/><path class="cls-4" d="M45,90C20.19,90,0,69.81,0,45S20.19,0,45,0s45,20.19,45,45-20.19,45-45,45ZM45,3.22C21.96,3.22,3.22,21.96,3.22,45s18.74,41.78,41.78,41.78,41.78-18.74,41.78-41.78S68.04,3.22,45,3.22Z"/></g></svg>