<?xml version="1.0" encoding="UTF-8"?><svg id="Layer_2" xmlns="http://www.w3.org/2000/svg" viewBox="0 0 90 90"><defs><style>.cls-1{fill:#5289b1;}.cls-1,.cls-2,.cls-3{stroke-width:0px;}.cls-2{fill:#fff;}.cls-3{fill:red;}</style></defs><g id="Overlay"><path class="cls-1" d="M58.42,13.55h0s0,0,0,0h0s0,0,0,0c-.05,0-6.55.01-10.17,4.03-3.24,3.59-2.43,7.37-.18,9.51-.77,1.35-1.98,4.1-2.83,9h-.46c-.85-4.9-2.06-7.64-2.83-9,2.25-2.14,3.06-5.92-.18-9.51-3.62-4.02-10.12-4.03-10.17-4.03h0s0,0,0,0h0s0,0,0,0c-.02.05-2.52,6.05-.22,10.94,2.21,4.69,6.42,5.17,9.31,3.54.67,1.22,1.73,3.7,2.51,8.06h-3.58c-2.21,0-4,1.8-4,4,0,1.84,1.25,3.4,2.95,3.86v26.18c0,3.48,2.83,6.31,6.31,6.31s6.31-2.83,6.31-6.31v-26.18c1.7-.46,2.95-2.02,2.95-3.86,0-2.21-1.8-4-4-4h-3.3c.78-4.35,1.84-6.83,2.51-8.06,2.89,1.63,7.1,1.15,9.31-3.54,2.3-4.89-.2-10.89-.22-10.94ZM37.53,40.1c0-1.15.93-2.08,2.08-2.08h3.88c.17,1.29.31,2.7.41,4.16h-4.29c-1.15,0-2.08-.93-2.08-2.08ZM49.25,70.14c0,2.42-1.97,4.38-4.38,4.38s-4.38-1.97-4.38-4.38v-26.04h3.54c.14,2.75.19,5.55.2,7.95,0,.29,0,.57,0,.84,0,3.28-.09,5.63-.09,5.69h.18s0,.04,0,.05l.69-.02.69.02s0-.03,0-.05h.18c0-.06-.08-2.41-.09-5.69,0-.27,0-.55,0-.84,0-2.4.05-5.21.2-7.95h3.27v26.04ZM52.2,40.1c0,1.15-.93,2.08-2.08,2.08h-4.02c.1-1.46.24-2.87.41-4.16h3.61c1.15,0,2.08.93,2.08,2.08Z"/><rect class="cls-3" x=".97" y="42.74" width="89" height="5.47" transform="translate(-18.84 45.27) rotate(-44.83)"/><path class="cls-2" d="M75.09,13.75l2.27,2.28L15.84,77.19l-2.27-2.28L75.09,13.75M75.1,10.57l-1.6,1.59L11.98,73.31l-1.6,1.59,1.59,1.6,2.27,2.28,1.59,1.59,1.6-1.59,61.52-61.15,1.6-1.59-1.59-1.6-2.27-2.28-1.59-1.59h0Z"/><path class="cls-3" d="M45,90C20.19,90,0,69.81,0,45S20.19,0,45,0s45,20.19,45,45-20.19,45-45,45ZM45,3.22C21.96,3.22,3.22,21.96,3.22,45s18.74,41.78,41.78,41.78,41.78-18.74,41.78-41.78S68.04,3.22,45,3.22Z"/></g></svg>