<?xml version="1.0" encoding="UTF-8"?><svg id="Layer_2" xmlns="http://www.w3.org/2000/svg" viewBox="0 0 90 90"><defs><style>.cls-1{fill:#5289b1;}.cls-1,.cls-2,.cls-3{stroke-width:0px;}.cls-2{fill:#fff;}.cls-3{fill:red;}</style></defs><g id="Overlay"><path class="cls-1" d="M26.14,15.66l-10.87,10.87c-.94.94-.94,2.46,0,3.4s2.46.94,3.4,0l4.59-4.59,7.73,7.73-6.28,6.28,24.88,24.88,5.35-5.35,3.82,3.82,1.36-1.36,10.95,10.95.85-.85-10.95-10.95,1.36-1.36-3.82-3.82,5.35-5.35-24.88-24.88-6.28,6.28-7.73-7.73,4.59-4.59c.94-.94.94-2.46,0-3.4-.94-.94-2.46-.94-3.4,0ZM48.72,38.25l-10.87,10.87-9.77-9.77,10.87-10.87,9.77,9.77Z"/><rect class="cls-3" x=".97" y="42.74" width="89" height="5.47" transform="translate(-18.84 45.27) rotate(-44.83)"/><path class="cls-2" d="M75.09,13.75l2.27,2.28L15.84,77.19l-2.27-2.28L75.09,13.75M75.1,10.57l-1.6,1.59L11.98,73.31l-1.6,1.59,1.59,1.6,2.27,2.28,1.59,1.59,1.6-1.59,61.52-61.15,1.6-1.59-1.59-1.6-2.27-2.28-1.59-1.59h0Z"/><path class="cls-3" d="M45,90C20.19,90,0,69.81,0,45S20.19,0,45,0s45,20.19,45,45-20.19,45-45,45ZM45,3.22C21.96,3.22,3.22,21.96,3.22,45s18.74,41.78,41.78,41.78,41.78-18.74,41.78-41.78S68.04,3.22,45,3.22Z"/></g></svg>