<?xml version="1.0" encoding="UTF-8"?><svg id="Layer_2" xmlns="http://www.w3.org/2000/svg" viewBox="0 0 90 90"><defs><style>.cls-1{fill:#5289b1;}.cls-1,.cls-2,.cls-3{stroke-width:0px;}.cls-2{fill:#fff;}.cls-3{fill:red;}</style></defs><g id="Overlay"><path class="cls-1" d="M37.66,14.63c-.79-.11-1.4-.79-1.4-1.61,0-.9.73-1.63,1.63-1.63h13.42c.9,0,1.63.73,1.63,1.63,0,.82-.61,1.5-1.4,1.61v17.25s.83,1.73.83,1.73l-1.16,1.16-1.14-2.38c-.05-.1-.08-.22-.08-.34V14.64s-10.78,0-10.78,0v17.41c0,.12-.03.23-.08.34l-13.38,27.84-3.31,3.31,15.22-31.65V14.63Z"/><path class="cls-1" d="M26.94,73.71h35.3c1.75,0,3.32-.9,4.19-2.42.87-1.52.87-3.32,0-4.84,0-.02-.02-.03-.03-.05l-12.1-25.17,1.16-1.16,12.32,25.63c1.14,1.99,1.13,4.37-.02,6.36-1.15,2-3.22,3.19-5.53,3.19H26.94c-1.81,0-3.46-.73-4.65-2.01l1.1-1.1c.9.99,2.17,1.55,3.56,1.55Z"/><polygon class="cls-1" points="48.25 37.71 30.06 55.91 38.81 37.71 48.25 37.71"/><path class="cls-1" d="M64.63,67.37l-11.84-24.62-27.97,27.97c.38.45,1.06.96,2.12.96h35.3c1.47,0,2.19-.98,2.44-1.41.24-.42.73-1.54,0-2.82l-.05-.09Z"/><rect class="cls-3" x=".97" y="42.74" width="89" height="5.47" transform="translate(-18.84 45.27) rotate(-44.83)"/><path class="cls-2" d="M75.09,13.75l2.27,2.28L15.84,77.19l-2.27-2.28L75.09,13.75M75.1,10.57l-1.6,1.59L11.98,73.31l-1.6,1.59,1.59,1.6,2.27,2.28,1.59,1.59,1.6-1.59,61.52-61.15,1.6-1.59-1.59-1.6-2.27-2.28-1.59-1.59h0Z"/><path class="cls-3" d="M45,90C20.19,90,0,69.81,0,45S20.19,0,45,0s45,20.19,45,45-20.19,45-45,45ZM45,3.22C21.96,3.22,3.22,21.96,3.22,45s18.74,41.78,41.78,41.78,41.78-18.74,41.78-41.78S68.04,3.22,45,3.22Z"/></g></svg>