<?xml version="1.0" encoding="UTF-8"?><svg id="Layer_2" xmlns="http://www.w3.org/2000/svg" viewBox="0 0 47.43 60"><defs><style>.cls-1{fill:#5289b1;stroke-width:0px;}</style></defs><g id="Design"><path class="cls-1" d="M18.75,20.26c-.12-.1-.28-.16-.44-.16-.15,0-.29.05-.41.14-.69.53-1.45,1.62-1.56,2.69-.07.67.12,1.28.54,1.76.56.64.57.77.6,1.23.02.23.04.52.12.92.29,1.47,2.18,1.63,2.98,1.62h.12c.26,0,.8,0,.88-.71-.19-5.19-2.7-7.39-2.81-7.49Z"/><path class="cls-1" d="M12.51,27.45c1.03-.88,1.02-1.66.84-2.16-.39-1.06-1.93-1.7-3.18-1.7-.29,0-.56.03-.81.09-1.27.3-2.23,1.28-2.44,2.49-.03.12-.07.32-.11.37,0,0-.04.03-.19.03-.2,0-.43-.05-.63-.08-.11-.02-.21-.04-.26-.05-.35-.08-.69-.13-1.01-.13-.75,0-1.37.23-1.77.66-.4.43-.58,1.02-.53,1.77.07,1.38,1.01,2.85,2.46,2.93h.13c.29,0,.55-.05.8-.1.19-.04.37-.08.58-.09.42,0,.86.25,1.05.6.18.36.24.79.3,1.25.09.71.2,1.51.82,2.08.39.38.93.58,1.52.58.37,0,.74-.09,1.06-.25.9-.45,1.12-1.28,1.28-1.88.16-.59.23-.75.47-.83.1-.03.21-.06.32-.09.51-.14,1.1-.3,1.46-.91.48-.82.05-1.81-.62-2.33-.29-.21-.63-.38-.97-.54-.53-.26-1.08-.53-1.13-.84-.03-.21.17-.52.57-.89Z"/><path class="cls-1" d="M46.75,54.98s-4.33-.31-7.46-1.82c-1.96-.94-4.27-1.32-5.95-1.47.08-1.22-.11-2.64-.58-4.25.46-1.82,1.01-4.08,1.01-6.14.2-2.25-.11-3.81-.97-4.76-.6-.67-1.46-1.01-2.56-1.02-1.28,0-2.52.58-3.38,1.55-.34-.28-.7-.49-1.08-.64-1.86-2.26-3.49-5.65-3.87-6.48.03-.3.05-.67-.17-.93-.09-.1-.24-.22-.55-.24-.39,0-.72.32-.73.7-.46,5.4-2,14.23-3.02,20.08-.34,1.92-.62,3.55-.8,4.69-.03.21-.06.35-.08.45-.06.25-.08.4.08.73.58.91,1.06,1.99,1.37,3.09h-4.19l2.21-21.41c.02-.25-.08-.49-.27-.64-.12-.11-.28-.17-.45-.17-.39,0-.72.29-.74.63,0,.02-1.56,15.13-1.56,15.13-.4-.04-.81-.1-1.25-.17.03-.18.1-.32.19-.44.06-.1.17-.16.3-.24.12-.07.26-.15.39-.28.18-.21.22-.5.1-.76-.12-.27-.39-.45-.67-.45-.1,0-.19.02-.27.06-.24.09-.46.23-.66.39-1.18-1.53-2.16-3.26-2.91-5.07l-.85-8.16c-.04-.37-.35-.66-.8-.66h0c-.4.04-.7.4-.66.81l2.23,21.41H3.93c.3-1.09.79-2.2,1.35-3.08.11-.16.15-.35.12-.54,0-.04-.65-3.74-.65-3.74-.88-5.12-2.46-14.52-3.14-19.86-.67-6.27,1.32-8.86,2.92-10.95.18-.24.36-.47.56-.76.47-1.23.28-3.54.11-5.57-.02-.18-.03-.35-.04-.52,3.12,1.83,6.29,2.07,6.47,2.08.37,0,.68-.27.73-.64.42-3.07-.39-5.64-.9-6.9-.12-.28-.37-.45-.66-.45-.25,0-.49.13-.63.33-.13.2-.16.44-.06.68.41.99,1.05,2.99.88,5.41-1.22-.19-3.69-.76-5.93-2.35,1.16-4.08,6.18-7.59,8.31-8.93.33-.21.68-.31,1.07-.31.73,0,1.5.35,2.31.72.83.38,1.69.77,2.54.77.14,0,.29-.01.43-.03.89-.14,1.69-.53,2.25-.85.59.47,1.34.71,2.19.71.75,0,1.53-.19,2.19-.54.35.6.5,1.28.48,2.16-.44.43-.96.87-1.58,1.09-.53.17-1.09.23-1.68.3-1.19.14-2.42.28-3.39,1.34-.2.22-.25.51-.14.78.12.28.4.46.69.46.2,0,.38-.08.53-.24.62-.67,1.51-.77,2.52-.88.97-.06,2.29-.31,3.32-1.12.09.39.07.7-.06.94-.3.56-1.18.78-2.11,1.02-.92.24-1.88.48-2.49,1.09-.38.35-.64.75-.9,1.15-.13.2-.26.4-.4.59-.63.82-1.48,1.43-2.38,2.07l-.14.1c-.59.42-1.19.86-1.75,1.4-1.52,1.79-.6,3.61.1,4.32.14.14.33.22.54.22.29,0,.55-.18.67-.46.11-.28.05-.59-.15-.79-.02-.02-.16-.17-.31-.44-.26-.4-.29-1.29.24-1.85.52-.48,1.11-.91,1.69-1.32.94-.67,1.91-1.37,2.66-2.34.16-.2.3-.43.45-.65.22-.34.43-.67.68-.9.44-.4,1.08-.56,1.71-.71l.14-.03c1.12-.27,2.98-.73,3.3-2.38.11-.56-.01-1.09-.13-1.61-.07-.29-.13-.57-.15-.84,0-.15,0-.31,0-.46,0-.67-.02-1.35-.34-2.08-.29-.62-1.33-2.68-2.82-3.07-.14-.04-.29-.06-.45-.06-.8,0-1.57.53-2.12.91l-.12.08c-.93.62-1.89,1.26-2.98,1.44-.06.01-.13.02-.19.02-.53,0-1.19-.3-1.9-.63-.88-.41-1.89-.86-2.94-.86-.67,0-1.27.18-1.86.54C10.11,3.04,3.27,7.07,3.44,12.07c0,.2.07.36.16.59.34,3.32.38,5.89.22,6.19-.13.17-.26.34-.4.53C1.81,21.45-.61,24.58.14,31.48c.69,5.42,2.29,14.91,3.2,20.19-.59.53-.92,1.21-.97,1.99-.05.86.27,1.74.89,2.44-.46,1-.79,2.03-.98,3.04-.04.21.01.43.15.6.14.17.35.27.57.27h5.95c.21,0,.4-.09.54-.25.14-.16.21-.37.18-.56l-.11-1.02c1-.06,1.92-.1,2.8-.12l-.12,1.14c-.03.2.04.41.18.57s.34.25.55.25h5.95c.22,0,.42-.1.56-.27.14-.17.2-.39.15-.59-.08-.42-.18-.84-.31-1.27,1.42.43,3.04.66,4.63.66s4.02-.24,5.96-1.39c.53-.19,1.67-.48,2.36-.48.13,0,.31-.01.53-.01,1.48,0,4.29.16,5.99.6.72.15,1.49.23,2.32.23h0c3.01,0,5.72-1.02,5.82-1.07.33-.12.52-.45.46-.8-.05-.36-.33-.61-.67-.63ZM12.24,56.57c-.76.02-1.5.04-2.27.09-.18.01-.37.02-.55.03l-.41-3.9c1.03.28,2.42.6,3.82.74l-.31,3.02h-.28ZM10.31,51.52s-.01.05-.02.08c-.52-.12-.99-.25-1.45-.38l-.22-2.07c.51.83,1.08,1.63,1.68,2.37ZM21.04,55.92c0-.23-.13-.44-.43-.65-.12-.05-.23-.07-.34-.07-.3,0-.46.19-.61.35-.05.06-.11.13-.19.2-.19.16-.46.31-.77.42-.2-.44-.5-1-.69-1.31,1.72-9.85,2.93-17.31,3.6-22.19.58,1.1,1.35,2.42,2.21,3.63-.56.16-1.07.52-1.51,1.07-.97,1.21-1.4,3.17-1.26,4.23-.05.7,1.54,4.31,3.61,8.96.4.91.76,1.71,1.01,2.27.49,1.4,1.55,2.3,2.69,2.3.92,0,1.74-.57,2.31-1.61.51-.96.89-1.95,1.18-2.85.02.41.01.8-.03,1.17-.05.31-.12.7.1.98.12.15.29.24.53.27,1.4.08,4.06.36,6.18,1.38,1.36.65,2.88,1.09,4.21,1.38-.6.08-1.19.12-1.75.12-.71,0-1.38-.06-1.98-.19-1.8-.46-4.75-.63-6.29-.63-.24,0-.44,0-.57.01-.89,0-2.22.32-2.98.63-1.71,1.01-3.83,1.23-5.31,1.23-1.13,0-2.27-.12-3.32-.36.22-.23.39-.48.38-.75ZM27.21,41.86s.86,5.21,1.24,6.36c.05.16.16.29.3.38.12.08.25.12.39.12.24,0,.48-.13.62-.33.14-.19.17-.43.09-.64-.82-2.45-1.35-5.05-1.12-5.57.49-1.51-.29-3.09-.88-4,.61-.76,1.48-1.19,2.43-1.19.62,0,1.08.17,1.41.53.8.86.67,2.7.6,3.71,0,1.97-.52,4.06-1.03,6.08l-.06.24c-.06.2-.13.47-.21.77-.42,1.6-1.4,5.35-2.66,5.35-.7-.03-1.13-.95-1.43-1.74l-.21-.52v.02c-.36-.81-.82-1.82-1.3-2.89-1.03-2.26-2.56-6.46-2.5-6.42,0,0-1.08-2.9.82-4.14s3.46.3,3.92,1.92c0,0,.24,1.14-.43,1.94ZM23.36,2.14c.52-.36.93-.64,1.28-.64.17,0,.42.06.81.48-.34.15-.81.3-1.32.3-.28,0-.53-.05-.77-.14Z"/></g></svg>