<?xml version="1.0" encoding="UTF-8"?><svg id="Layer_2" xmlns="http://www.w3.org/2000/svg" viewBox="0 0 47.97 48"><defs><style>.cls-1{fill:#5289b1;stroke-width:0px;}</style></defs><g id="Design"><path class="cls-1" d="M23.9,48h-.01c-6.4,0-12.4-2.5-16.91-7.03C2.47,36.44,0,30.41,0,23.99.01,10.76,10.75,0,23.93,0h.01c13.21,0,23.99,10.76,24.03,23.96.02,6.38-2.47,12.4-7,16.95-4.56,4.57-10.62,7.09-17.07,7.09ZM23.89,46.12h.01c5.95,0,11.54-2.32,15.74-6.54,4.18-4.19,6.47-9.74,6.45-15.62-.04-12.17-9.98-22.08-22.15-22.09h-.01C11.78,1.88,1.89,11.79,1.88,23.99c0,5.92,2.28,11.48,6.43,15.65,4.15,4.18,9.69,6.48,15.58,6.48Z"/><path class="cls-1" d="M9.49,16.2c.34.21.71.39,1.01.65.89.79,1.67,1.68,2.24,2.74,1.11,2.04,1.79,4.22,2.12,6.51.11.76.24,1.51.37,2.33h7.4c-.13,1.05-.4,2.07-.36,3.08.09,2.34.9,3.77,3.46,4.3,1.47.3,2.95.15,4.16-.9.67-.58,1.03-1.38,1.24-2.24.3-1.22.27-2.45.11-3.68-.02-.16,0-.33,0-.54.46,0,.89,0,1.32,0,1.17,0,2.33,0,3.5,0,.28,0,.41-.08.48-.36.32-1.25.54-2.49.42-3.82-.21-2.49-1.18-4.66-2.54-6.69-.07-.1-.12-.22-.25-.45,2.35.95,4.03,2.49,5.22,4.56,1.19,2.07,1.63,4.33,1.53,6.75h3.46c-.18.47-.31.89-.49,1.28-.84,1.77-1.74,3.52-2.97,5.06-1.03,1.28-2.11,2.54-3.29,3.68-1.58,1.53-3.42,2.71-5.44,3.61-1.59.71-3.24,1.21-4.95,1.43-1.47.19-2.97.27-4.45.21-2.22-.09-4.42-.42-6.53-1.17-2.2-.78-4.23-1.86-6.02-3.39-2.7-2.29-4.64-5.1-5.85-8.41-.27-.73-.5-1.47-.77-2.28.28,0,.46,0,.63,0,1.6,0,3.2-.01,4.79,0,.32,0,.54-.11.72-.34.89-1.1,1.49-2.33,1.72-3.73.34-2.07-.05-4.04-.94-5.92-.35-.73-.74-1.45-1.11-2.17.03-.03.06-.06.09-.09Z"/><path class="cls-1" d="M15.97,9.35c1.82.77,3.36,1.73,4.78,2.88.69.56,1.38,1.14,1.98,1.79,1.64,1.78,2.98,3.74,3.94,5.98.69,1.59,1.16,3.24,1.54,4.92.14.64.12,1.31.3,1.93.25.84.63,1.63.94,2.45.47,1.24.63,2.46-.18,3.65-.89,1.3-1.96,1.48-3.37,1-1.11-.38-1.67-1.22-1.68-2.48,0-1.28.33-2.45.93-3.56.51-.95.51-1.98.35-2.94-.27-1.53-.68-3.04-1.17-4.52-.77-2.32-1.93-4.45-3.49-6.35-.74-.9-1.5-1.8-2.33-2.61-.75-.74-1.61-1.37-2.54-2.14Z"/><path class="cls-1" d="M31.45,11.48c1.21-.26,2.37-.51,3.56-.77.25-1.15.5-2.32.76-3.49.03,0,.07-.02.1-.02.26,1.17.52,2.34.77,3.51,1.16.25,2.32.5,3.47.75,0,.04,0,.07,0,.11-.55.13-1.09.27-1.64.38-.52.11-1.06.18-1.58.32-.15.04-.31.25-.35.41-.23,1.03-.43,2.07-.64,3.1,0,.02-.05.03-.12.08-.22-.96-.5-1.89-.63-2.84-.08-.63-.38-.79-.92-.88-.85-.14-1.69-.33-2.53-.51-.07-.02-.14-.08-.26-.17Z"/><path class="cls-1" d="M19.11,23.33c-.15-.69-.35-1.37-.44-2.07-.06-.45-.29-.55-.66-.62-.64-.12-1.28-.27-1.93-.52.56-.12,1.12-.27,1.69-.37.74-.13.82-.18.97-.92.12-.59.23-1.18.44-1.79.12.53.24,1.07.36,1.6.02.1.04.19.05.29.04.56.38.74.89.81.58.08,1.16.24,1.73.48-.65.14-1.29.29-1.95.41-.37.07-.59.19-.64.63-.08.69-.29,1.36-.44,2.05-.03,0-.06,0-.08,0Z"/></g></svg>