<?xml version="1.0" encoding="UTF-8"?><svg id="Layer_2" xmlns="http://www.w3.org/2000/svg" viewBox="0 0 55.36 51"><defs><style>.cls-1{stroke-width:2px;}.cls-1,.cls-2{fill:none;stroke:#5289b1;stroke-linecap:round;stroke-linejoin:round;}.cls-2{stroke-width:1.29px;}</style></defs><g id="Design"><path class="cls-1" d="M15.7,28.51c-.58-2.67-.3-5.55,1-8.19,3.06-6.22,10.57-8.78,16.79-5.72,6.22,3.06,8.78,10.57,5.72,16.79s-10.57,8.78-16.79,5.72"/><line class="cls-1" x1="27.77" y1="18.28" x2="27.77" y2="26.04"/><line class="cls-1" x1="33.59" y1="26.04" x2="27.77" y2="26.04"/><line class="cls-2" x1="22.31" y1="37.13" x2="26.9" y2="35.55"/><line class="cls-2" x1="22.31" y1="37.13" x2="24.97" y2="41.2"/><path class="cls-1" d="M27.02,49.58c-1.06-.67-26.02-16.72-26.02-33.71C1,7.67,7.37,1,15.21,1c5.27,0,10.03,3.06,12.47,7.75,2.45-4.69,7.21-7.75,12.47-7.75,7.83,0,14.21,6.67,14.21,14.87,0,16.99-24.96,33.04-26.02,33.71l-.66.42-.66-.42Z"/></g></svg>