<?xml version="1.0" encoding="UTF-8"?><svg id="Layer_2" xmlns="http://www.w3.org/2000/svg" viewBox="0 0 41.13 50.99"><defs><style>.cls-1{fill:#5289b1;stroke-width:0px;}.cls-2{fill:none;stroke:#5289b1;stroke-miterlimit:10;stroke-width:1.99px;}</style></defs><g id="Design"><path class="cls-1" d="M24.15,37.11h-7.17c-.66,0-1.2-.54-1.2-1.2v-5.63h-5.63c-.66,0-1.2-.54-1.2-1.2v-7.17c0-.66.54-1.2,1.2-1.2h5.63v-5.63c0-.66.54-1.2,1.2-1.2h7.17c.66,0,1.2.54,1.2,1.2v5.63h5.63c.66,0,1.2.54,1.2,1.2v7.17c0,.66-.54,1.2-1.2,1.2h-5.63v5.63c0,.66-.54,1.2-1.2,1.2Z"/><path class="cls-2" d="M20.57,49.99c-.18,0-.36-.04-.53-.12-.78-.38-19.05-9.47-19.05-24.73V8.7c0-.63.48-1.15,1.1-1.2,5.9-.49,11.9-2.61,17.83-6.32.39-.24.88-.24,1.27,0,5.93,3.71,11.93,5.84,17.83,6.32.62.05,1.1.57,1.1,1.2v16.44c0,15.26-18.27,24.35-19.05,24.73-.17.08-.35.12-.53.12Z"/></g></svg>