<?xml version="1.0" encoding="UTF-8"?><svg id="Layer_2" xmlns="http://www.w3.org/2000/svg" viewBox="0 0 60 53.6"><defs><style>.cls-1{fill:#5289b1;stroke-width:0px;}</style></defs><g id="Design"><path class="cls-1" d="M56.69,40.17h-3.64c.63-3.84,1.43-15.21-9.64-20.22-.69-.31-1.37-.6-2.06-.88-.33-.87-.77-1.72-1.33-2.51-3.86-5.46-8.67-7.36-12.09-7.37l-2.72-3.85c.83-1.14.89-2.73.04-3.93-1.07-1.52-3.17-1.88-4.69-.81-.68.48-1.14,1.18-1.32,1.95-.79-.09-1.6.11-2.28.6-1.51,1.07-1.88,3.17-.8,4.69.85,1.2,2.37,1.68,3.71,1.28l2.62,3.71c-.23.57-.4,1.19-.52,1.86-1.03-.06-1.85-.08-2.4-.09-.97.01-1.91.46-2.51,1.28-.43.59-1.01,1.43-1.62,2.46-.89.08-1.71.25-2.46.5l-3.83-2.76c.41-1.34-.05-2.87-1.24-3.73-.73-.53-1.62-.74-2.51-.59-.89.14-1.66.62-2.19,1.35-.49.68-.69,1.49-.62,2.28-.77.18-1.48.63-1.97,1.3-1.08,1.5-.74,3.61.76,4.7,1.19.86,2.78.82,3.93,0l3.68,2.66c-.11,2.28.72,5.09,2.82,7.87.26,2.72,1.22,5.53,3.28,8.23h-4.79c-1.83,0-3.31,1.49-3.31,3.31s1.49,3.31,3.31,3.31h2.41l1.26,4.1c.49,1.61,1.96,2.7,3.64,2.7h31c1.56,0,2.94-.93,3.53-2.37l1.81-4.43h2.71c1.83,0,3.31-1.49,3.31-3.31s-1.49-3.31-3.31-3.31ZM38.33,17.76c.06.08.11.17.16.25-5.64-1.95-10.8-2.79-14.43-3.15.29-1.52.95-2.61,1.67-3.12,1.53-1.08,7.73-.88,12.6,6.01ZM21.06,7.23c-.2-.28-.52-.44-.85-.44-.2,0-.41.06-.58.18-.58.4-1.38.26-1.79-.32-.41-.58-.27-1.39.31-1.8.46-.32,1.07-.31,1.52.03.36.27.85.28,1.22.02.37-.26.52-.73.39-1.15-.17-.54.02-1.12.48-1.44.58-.41,1.39-.27,1.81.31.41.57.27,1.38-.3,1.79-.46.33-.56.97-.24,1.43l2.61,3.69c-.42.14-.79.32-1.1.53-.32.23-.62.5-.9.82l-2.58-3.65ZM10.04,20.78c-.23.32-.42.68-.58,1.07l-3.62-2.61c-.18-.13-.39-.2-.6-.2-.32,0-.63.14-.83.42-.42.57-1.22.69-1.79.28-.58-.42-.71-1.23-.29-1.81.33-.45.91-.64,1.45-.46.43.14.9-.01,1.16-.38.26-.36.26-.86,0-1.22-.34-.46-.34-1.07-.02-1.52.2-.28.5-.47.84-.52.34-.06.68.03.96.23.57.41.71,1.21.3,1.79-.32.46-.22,1.1.24,1.43l3.66,2.64c-.34.26-.64.55-.87.86ZM11.72,21.99c.55-.76,2.28-1.59,4.78-1.61,2.09,0,5.38.53,9.09,3.21,1.72,1.24,2.91,2.99,3.35,4.93.43,1.89.09,3.74-.96,5.2-.75,1.04-1.82,1.81-3.03,2.21-2.94.81-7.96-1.22-10.75-4.36-3.55-4.05-3.58-8.04-2.47-9.58ZM14.54,34.69c2.69,2.14,6.1,3.47,8.97,3.47.72,0,1.41-.08,2.03-.26,1.68-.56,3.11-1.59,4.11-2.98,1.4-1.95,1.87-4.38,1.3-6.86-.55-2.43-2.03-4.62-4.16-6.16-3.45-2.48-6.59-3.33-8.94-3.54.32-.49.62-.92.86-1.25.2-.28.52-.47.82-.44,2.77.02,12.6.46,23,5.16,10.27,4.64,8.99,15.35,8.41,18.33H17.81c-1.64-1.77-2.67-3.62-3.27-5.48ZM56.69,44.73h-3.41c-.42,0-.8.25-.96.64l-2.07,5.07c-.27.66-.9,1.08-1.61,1.08h-31c-.77,0-1.44-.5-1.66-1.23l-1.48-4.84c-.13-.44-.53-.73-.99-.73h-3.18c-.69,0-1.24-.56-1.24-1.24s.56-1.24,1.24-1.24h46.36c.69,0,1.24.56,1.24,1.24s-.56,1.24-1.24,1.24Z"/><path class="cls-1" d="M19.67,20.23c-.23-.03-.47.03-.66.16-.18.12-.32.3-.39.5-.42,1.2-.46,3.13.27,4.51.46.86,1.17,1.45,2.07,1.7,1.18.32,1.31.48,1.72,1.01.21.27.47.6.88,1.02,1.53,1.54,3.95.21,4.91-.42l.14-.09c.32-.21.97-.65.49-1.57-4.41-6.13-9.22-6.78-9.42-6.81Z"/><path class="cls-1" d="M45.5,29.47c1-.86,1-1.62.82-2.1-.38-1.04-1.88-1.66-3.11-1.66-.28,0-.55.03-.79.09-1.24.3-2.18,1.25-2.38,2.43-.02.12-.07.31-.11.36,0,0-.04.03-.19.03-.19,0-.42-.04-.61-.08-.11-.02-.2-.04-.26-.04-.34-.08-.67-.12-.99-.12-.74,0-1.33.22-1.73.65-.39.42-.56,1-.52,1.73.07,1.34.98,2.78,2.4,2.85h.12c.28,0,.54-.05.78-.1.18-.04.36-.08.57-.09.41,0,.84.25,1.03.59.18.35.23.77.29,1.22.09.69.19,1.47.8,2.03.38.37.91.57,1.48.57.36,0,.72-.09,1.04-.25.88-.44,1.09-1.25,1.25-1.83.15-.57.22-.73.46-.81.1-.03.2-.06.31-.09.5-.14,1.07-.29,1.43-.88.47-.8.05-1.77-.6-2.27-.28-.2-.62-.37-.95-.53-.52-.25-1.06-.52-1.1-.82-.03-.21.16-.51.56-.87Z"/><path class="cls-1" d="M37.23,23.71c0-1.12-1.09-2-2.48-2s-2.48.88-2.48,2,1.09,2,2.48,2,2.48-.88,2.48-2Z"/></g></svg>