<?xml version="1.0" encoding="UTF-8"?><svg id="Layer_2" xmlns="http://www.w3.org/2000/svg" viewBox="0 0 51.44 60.89"><defs><style>.cls-1{fill:#5289b1;stroke-width:0px;}</style></defs><g id="Design"><path class="cls-1" d="M27.86,24.5c-.13-2.22-1.69-2.21-3.45-2.5-1.41-.23-4.41-.34-4.48,2.1-.08,2.71,8.13,3.97,7.93.4Z"/><path class="cls-1" d="M50.52,12.76c-.07-.06-.15-.12-.23-.19-1.37-1.17-2.7-2.62-3.57-3.89l-.23-.33c-1.13-1.66-1.94-2.86-3.96-3.98-1.3-.72-2.27-.6-3.4-.36-.4.08-1.02.09-1.66.1-1.05.01-2.19.03-3.06.35-.97-.79-2.12-1.34-3.43-1.5-.78-.1-1.51.11-2.2.32-.6.17-1.16.34-1.67.27-.89-.11-1.67-.52-2.5-.96-.89-.47-1.82-.96-2.93-1.08-.79-.09-1.5-.11-2.19.03-.82-.44-1.95-.62-2.99-.78-.64-.1-1.24-.19-1.63-.33-1.09-.39-2.03-.65-3.42-.12-2.15.82-3.12,1.89-4.48,3.38l-.27.3c-1.04,1.14-2.56,2.39-4.08,3.35-.09.06-.17.11-.25.16-.73.45-1.36.83-1.04,2.12.23.92,1.01,1.71,2.09,2.11.61.22,1.35.34,2.13.34.61,0,1.24-.07,1.86-.21.31-.07.62-.17.92-.31h0c1.22-.55,2.12-1.55,2.99-2.52.61-.68,1.2-1.33,1.87-1.82.18,0,.36.01.55.03-.65,1.6-1,3.4-.99,5.28,0,1.4.42,2.8.82,4.16.32,1.07.62,2.08.7,3.04.11,1.18-.09,2.22-.28,3.22-.26,1.36-.52,2.75,0,4.42-.08.14-.15.28-.2.42-.1.25-.18.53-.24.83-1.06,1-1.63,2.51-2.04,3.98-.66,2.34-.78,4.74-.37,7.34,0,0,0,.02,0,.03-.12-.25-.23-.56-.32-.81-.08-.23-.17-.46-.26-.67l-.16-.37c-.53-1.23-1.02-2.4-1.18-3.67l-.04-.29c-.2-1.62-.39-3.14-2.23-4.37-1.22-.81-2.62-1-3.95-.52-1.35.49-2.43,1.6-2.82,2.91-.32,1.06-.31,2.66.67,3.98.59.8,1.76,1.76,3.97,1.86.09.54.35,1.68.94,4.18.14.59.27,1.13.39,1.62v.03c-.06.11-.1.22-.14.33-.04.11-.08.23-.11.34,0,.02-.01.05-.02.09-.02.09-.04.18-.06.28v.07c-.03.1-.04.2-.05.31v.04c-.01.11-.02.22-.02.33,0,0,0,.02,0,.02,0,0,0,.01,0,.02-.02,2.91,2.55,5.85,3.78,7.1-.16.06-.33.1-.5.14-.61.16-1.3.34-1.75,1.11-.64,1.09-.4,2.7.52,3.51.82.72,1.72.98,2.64.98,1.29,0,2.59-.51,3.66-.92.23-.09.46-.18.67-.26,1-.36,2.27-.83,3.45-1.58,1.61.74,3.5.88,5.25.88.88,0,1.89-.04,2.82-.17.34,1.51,1.17,2.87,3.12,3.72,1.07.47,2.06.7,2.96.7.3,0,.6-.03.88-.08.88-.17,1.55-.66,1.75-1.28.12-.37.06-.76-.17-1.12.34.06.69.1,1.03.1.91,0,1.82-.25,2.64-.98.92-.81,1.16-2.42.52-3.51-.45-.77-1.14-.95-1.75-1.11-.17-.05-.34-.09-.5-.14,1.23-1.25,3.81-4.21,3.78-7.13,0-.11,0-.22-.02-.34v-.04c-.01-.1-.03-.2-.05-.32v-.05c-.02-.09-.04-.18-.07-.3v-.06c-.05-.11-.08-.23-.12-.34-.04-.11-.08-.22-.12-.33l-.05-.11c-.03-.07-.06-.14-.09-.2l-.06-.12c-.03-.06-.05-.12-.08-.17l-.07-.14s-.05-.09-.07-.14c-.02-.04-.05-.08-.07-.12-.03-.05-.06-.1-.08-.15l-.07-.12s-.06-.09-.09-.14l-.07-.11s-.06-.09-.1-.13l-.07-.1s-.06-.08-.11-.13l-.07-.09c-.05-.06-.1-.11-.15-.17l-.05-.06c-.06-.06-.11-.12-.17-.17l-.07-.07s-.08-.07-.12-.11c.36-.38.69-.79,1-1.25.07-.11.15-.21.22-.32.41-.56.92-1.26,1.83-3.63,0-.03.8-2.64.18-3.02-.12-.07-.38-.15-.68.21-.44.51-3.33,3.7-3.8,4.05-.59.43-1.21.8-1.85,1.1.16-2.04-.02-3.96-.55-5.84-.38-1.35-.89-2.72-1.78-3.71.3-.75.52-1.49.74-2.42.11-.43.11-1.12.12-1.85,0-.74.02-1.58.15-1.96.2-.58.68-1.01,1.18-1.47.47-.43.95-.87,1.26-1.47.75-1.5,1.04-3.14,1.22-4.53.18-1.41.2-2.9.05-4.35.25.01.5.02.76.03.46.01.92.03,1.36.09.6.58,1.09,1.3,1.6,2.06.73,1.08,1.48,2.2,2.61,2.91.28.17.57.32.87.44.94.36,1.94.54,2.84.54.4,0,.78-.04,1.13-.11,1.13-.24,2.01-.91,2.36-1.79.5-1.23-.07-1.7-.73-2.25ZM10.79,8.54c-.86.96-1.67,1.86-2.76,2.35-.26.12-.52.2-.79.26-.99.22-2.46.31-3.59-.1-.86-.32-1.48-.92-1.65-1.62-.19-.79.04-.93.73-1.36.08-.05.17-.1.26-.16,1.57-.99,3.14-2.29,4.22-3.47l.27-.3c1.29-1.42,2.21-2.44,4.21-3.2.46-.18.85-.26,1.24-.26.52,0,1.03.14,1.69.38.45.16,1.09.26,1.76.37,1.28.2,2.86.45,3.35,1.2.18.27.21.61.09,1.02-.43,1.57-1.89,1.72-3.59,1.9-.98.1-2,.21-2.81.64-1.04.56-1.86,1.46-2.64,2.34ZM18.25,5.96c-.21.17-.43.32-.64.43-.84.45-1.88.33-2.99.21-.08,0-.16-.02-.24-.03.57-.17,1.24-.24,1.93-.31.64-.07,1.32-.14,1.94-.31ZM35.17,39.94c.04-.23.06-.46.09-.69.82-.35,1.61-.8,2.35-1.34.49-.36,2.71-2.81,3.58-3.78-.08.62-.28,1.53-.35,1.73-.88,2.28-1.36,2.94-1.74,3.47-.08.12-.16.23-.24.34-.3.45-.62.84-.97,1.21-.02-.01-.05-.03-.07-.04l-.09-.05s-.09-.05-.16-.09l-.06-.04s-.1-.05-.16-.08l-.06-.03c-.06-.03-.12-.05-.19-.08h-.04c-.16-.08-.32-.13-.5-.18-.07-.02-.15-.04-.22-.05h-.05c-.06-.02-.13-.04-.19-.05h-.06c-.06-.02-.13-.03-.19-.04h-.06c-.07-.01-.13-.02-.19-.02h-.06c-.07,0-.14-.01-.2-.01h-.05s-.09,0-.13,0c0-.06.02-.11.03-.17ZM35.03,40.81s.02,0,.03,0c.07,0,.14,0,.21,0h.03c.06,0,.12,0,.18,0h.05c.06,0,.11.01.19.02h.03c.06,0,.11.02.17.03h.05c.06.02.11.03.16.04h.05c.06.02.13.04.21.06.14.04.28.08.43.14,0,0,.03.01.03.01.05.02.1.04.15.06l.07.03s.08.04.12.06l.07.04s.08.04.12.07l.07.05s.07.05.11.07l.08.05s.07.05.1.07l.07.06s.07.06.11.09l.07.06s.07.07.11.1l.06.06c.05.05.1.1.15.15l.05.05s.08.09.13.14l.07.09s.06.07.08.1l.07.09s.06.08.09.12l.07.1s.05.08.08.12l.07.11s.05.09.08.13c.02.04.04.07.06.11l.13.26c.03.05.05.11.08.16l.05.11c.03.06.05.12.09.2l.04.08c.04.1.08.2.12.3.03.1.06.19.09.29l.02.07c.02.08.04.15.05.23v.06c.02.08.03.17.04.26v.03c.01.09.02.18.02.29h0c.03,2.97-2.99,6.08-3.92,6.97-.08.07-.12.18-.11.29.01.11.07.2.16.26.36.23.74.33,1.11.43.55.14,1.02.27,1.32.78.47.79.28,2.04-.38,2.63-1.64,1.45-3.82.61-5.57-.07-.06-.05-.11-.11-.15-.17-.29-.43-.18-1.04-.07-1.63.04-.22.08-.45.1-.66.18-1.89.36-3.74.69-5.58.05-.28.11-.58.2-.91.19-.75.45-1.52.7-2.26.52-1.54,1.06-3.12,1.06-4.75,0-.06.02-.11.03-.17ZM34.12,32.78c.54,1.91.7,3.86.49,5.94-.08-.16-.25-.24-.42-.18-.18.06-.28.26-.22.45,0,.01,0,.03.01.04.74,2.21.04,4.28-.71,6.47-.26.75-.52,1.53-.72,2.31-.09.34-.16.66-.21.96-.33,1.87-.52,3.73-.7,5.64-.02.18-.05.39-.09.6-.13.7-.27,1.49.18,2.15.34.51.9.73,1.4.92.38.15.74.29.97.53.23.24.31.48.24.7-.12.37-.61.69-1.22.8-.98.19-2.14,0-3.43-.58-3.04-1.33-2.97-4.08-2.89-6.74.01-.45.03-.91.02-1.35,0-1.04.02-2.1.05-3.12.05-1.72.1-3.5-.03-5.25l-.03-.4s-.02-.09-.04-.13c-.06-.12-.19-.21-.34-.2-.19.01-.34.18-.33.37l.03.41c.12,1.71.07,3.48.02,5.18-.03,1.03-.06,2.1-.05,3.15,0,.43,0,.86-.02,1.32-.03.98-.06,2,.08,2.99-.76.1-1.66.16-2.7.16-2.53,0-5.33-.28-7-2.38-.78-.99-1.26-2.12-1.63-3.09-.07-.18-.27-.27-.45-.21,0,0,0,0,0,0-.18.07-.27.27-.2.45.36.97.89,2.21,1.73,3.28.46.58.99,1.04,1.57,1.39-.91.52-1.92.92-2.97,1.3-.22.08-.45.17-.69.26-1.76.68-3.94,1.53-5.58.07-.66-.59-.84-1.84-.38-2.63.3-.52.77-.64,1.32-.78.37-.1.76-.2,1.11-.43.09-.06.15-.15.16-.26.01-.11-.03-.21-.11-.29-.93-.88-3.95-4-3.92-6.96h0c0-.1,0-.2.01-.29v-.04s.02-.1.02-.15c.32,1.22.55,1.96.7,2.2,1,1.7,2.21,2.63,3.61,2.75.11,0,.21.01.32.01,1.02,0,2-.42,2.89-1.02.93-.63,1.76-1.46,2.41-2.24.63-.74,1.36-1.62,2.03-2.51.12-.15.09-.37-.07-.49-.13-.09-.29-.09-.41,0-.03.02-.06.04-.08.07-.66.87-1.38,1.74-2,2.48-1.74,2.06-3.52,3.12-5.02,2.99-1.16-.1-2.19-.91-3.07-2.41-.45-.76-2.24-8.8-2.33-9.36,0-.04,0-.07-.02-.1-.05-.13-.18-.22-.32-.23-1.67-.02-2.95-.57-3.7-1.59-.82-1.11-.81-2.51-.56-3.37.33-1.1,1.24-2.04,2.39-2.45,1.12-.4,2.3-.25,3.32.44,1.57,1.05,1.72,2.3,1.92,3.88l.04.29c.17,1.37.71,2.64,1.24,3.86l.16.37c.08.2.16.42.24.64.31.86.63,1.75,1.36,1.78.33.01.66-.16,1.02-.53.58-.41,1.1-1.33,1.44-1.94.03-.06.07-.12.1-.17.03-.05.05-.09.08-.13.1-.17.05-.38-.12-.48-.17-.1-.38-.05-.48.12-.05.08-.11.19-.18.32-.28.49-.79,1.41-1.25,1.72-.02.01-.04.03-.06.05-.06.06-.1.1-.15.15-.02-.15-.05-.3-.08-.46-.39-2.5-.27-4.8.36-7.05.35-1.26.75-2.22,1.24-2.93-.02.84.1,1.67.35,2.26.49,1.15,1.41,2.09,2.09,2.67,1.98,1.68,4.3,2.15,5.91,2.25.64.04,1.28.07,1.92.07,2.36,0,4.7-.41,6.65-2.29,1.14-1.09,2.27-2.34,2.5-4.45.02-.18.03-.35.04-.53.49.72.89,1.68,1.24,2.94ZM36.99,15.1c-.17,1.34-.44,2.9-1.15,4.31-.25.49-.66.87-1.1,1.27-.54.49-1.1,1-1.37,1.75-.17.48-.18,1.31-.19,2.18,0,.66-.01,1.33-.1,1.69-.39,1.6-.7,2.56-1.55,4.02-1.88,3.24-5.9,3.49-9.06,2.3t0,0c-.31-.12-.52-.22-.72-.32-.38-.19-.7-.35-1.44-.47-2.81-.44-3.61-.8-5.05-3.33-1.22-2.14-.92-3.66-.59-5.43.2-1.05.41-2.14.29-3.42-.1-1.03-.4-2.07-.73-3.18-.39-1.31-.79-2.66-.79-3.96,0-1.87.35-3.65,1.02-5.21.03,0,.06,0,.08,0,1.16.13,2.36.26,3.39-.29.73-.39,1.55-1.12,1.92-1.95.29-.31.51-.7.65-1.21.17-.61.11-1.15-.18-1.59-.03-.04-.06-.08-.09-.12.11,0,.22-.01.34-.01.31,0,.65.02,1.02.06.99.11,1.81.55,2.69,1.01.85.45,1.72.9,2.74,1.03.66.08,1.32-.11,1.96-.3.63-.18,1.28-.37,1.92-.29,1.05.13,2,.56,2.83,1.18-.09.07-.18.15-.26.24-.35.4-.48.92-.4,1.55.07.52.23.94.47,1.29.25.87.96,1.71,1.62,2.2.55.4,1.18.58,1.85.66.16,1.44.15,2.93-.03,4.32ZM38.51,10.17c-1.11-.03-2.16-.07-2.93-.63-.19-.14-.39-.32-.58-.52.59.26,1.25.42,1.88.58.68.17,1.32.33,1.87.58-.08,0-.16,0-.24,0ZM50.6,14.74c-.27.66-.96,1.18-1.86,1.37-1.18.25-2.62-.04-3.57-.4-.26-.1-.51-.22-.74-.37-1.01-.64-1.68-1.65-2.4-2.71-.66-.97-1.33-1.98-2.29-2.68-.73-.54-1.73-.79-2.69-1.03-1.65-.41-3.08-.77-3.29-2.38-.05-.43.02-.76.23-1,.59-.68,2.2-.7,3.49-.72.68,0,1.33-.02,1.8-.12,1.2-.25,1.91-.27,2.92.29,1.86,1.03,2.64,2.17,3.71,3.76l.23.33c.9,1.32,2.28,2.82,3.69,4.03.08.07.16.14.24.2.62.51.83.69.53,1.44Z"/><path class="cls-1" d="M21.74,16.13c.14-1.67-.56-3.05-1.69-3.19-1.13-.14-2.3.98-2.81,2.6.7-.48,1.55-.72,2.41-.61.87.11,1.6.56,2.09,1.21Z"/><path class="cls-1" d="M31.05,14.54c-1.13-.14-2.3.98-2.81,2.6.7-.48,1.55-.72,2.41-.61.87.11,1.6.56,2.09,1.21.14-1.67-.56-3.05-1.69-3.19Z"/><path class="cls-1" d="M29.62,27.95c-.02-.17-.05-.37-.1-.54,0,0-.26-.59-.61-.6h0c-.15,0-.3.1-.35.25-.02.04-.05.11-.05.21.02.84-1.15,1.66-1.59,1.97l-.12.08c-.41.3-3.12,1.18-5.12,1.07-.12,0-.24.05-.31.15-.07.1-.08.23-.03.34.11.24.32.41.65.52.17.16.43.25.65.33.08.03.15.05.21.08l.1.05c.96.44,1.59.64,2,.64.11,0,.2-.01.28-.04.11-.03.22-.07.33-.11.33-.12.67-.24.98-.24.08,0,.17,0,.26,0,.45,0,.97.02,1.42-.2.89-.44,1.42-1.62,1.48-2.56v-.05c.05-.63.03-1.01-.08-1.24,0-.04,0-.07-.01-.11ZM29.02,29.24v.06c-.05.73-.47,1.67-1.1,1.98-.3.15-.7.14-1.09.13-.09,0-.18,0-.27,0-.43,0-.85.15-1.22.28-.1.04-.21.07-.31.11-.07.02-.41.05-1.78-.57l-.11-.05c-.08-.03-.17-.07-.27-.1,0,0-.02,0-.03,0,1.88-.17,3.9-.84,4.37-1.17l.11-.08c.4-.29,1.2-.85,1.61-1.58,0,.04.03.08.05.12.02.04.08.21.02.89Z"/></g></svg>