<?xml version="1.0" encoding="UTF-8"?><svg id="Layer_2" xmlns="http://www.w3.org/2000/svg" viewBox="0 0 65.75 65.36"><defs><style>.cls-1{fill:none;stroke:#9a9486;stroke-miterlimit:10;stroke-width:1.6px;}</style></defs><g id="Design"><path class="cls-1" d="M33.39,52.49H3.9c.58-7.64,6.96-13.66,14.74-13.66s14.17,6.02,14.75,13.66Z"/><path class="cls-1" d="M29.34,52.49H7.94c.56-5.41,5.14-9.63,10.7-9.63s10.14,4.22,10.7,9.63Z"/><path class="cls-1" d="M24.85,52.49h-12.42c.53-2.95,3.11-5.18,6.21-5.18s5.68,2.24,6.21,5.18Z"/><path class="cls-1" d="M63.14,52.49h-29.49c.58-7.64,6.95-13.66,14.74-13.66s14.17,6.02,14.74,13.66Z"/><path class="cls-1" d="M59.1,52.49h-21.41c.56-5.41,5.14-9.63,10.7-9.63s10.14,4.22,10.7,9.63Z"/><path class="cls-1" d="M54.61,52.49h-12.42c.53-2.95,3.1-5.18,6.21-5.18s5.68,2.24,6.21,5.18Z"/><path class="cls-1" d="M62.42,58.16H3.33c-1.39,0-2.53-1.14-2.53-2.53v-.62c0-1.39,1.14-2.53,2.53-2.53h59.09c1.39,0,2.53,1.14,2.53,2.53v.62c0,1.39-1.14,2.53-2.53,2.53"/><path class="cls-1" d="M35.15.56c-3.17,3.19-4.27,5.81-.55,9.21,2.83,2.59,4.22,6.3-1.9,12.87"/><path class="cls-1" d="M21.62.56c-3.17,3.19-4.27,5.81-.55,9.21,2.83,2.59,4.22,6.3-1.9,12.87"/><path class="cls-1" d="M48.68.56c-3.17,3.19-4.27,5.81-.55,9.21,2.83,2.59,4.22,6.3-1.9,12.87"/><path class="cls-1" d="M30.64,29.42c-.47-.7-1.07-1.3-1.79-1.74-1.9-1.17-4.4-1.12-6.48.06-1.03,2.16-.9,4.66.4,6.47,1.71,2.39,5.2,3.25,8.21,1.8l.25-.26"/><path class="cls-1" d="M30.24,35.32c2.45.97,5.13.1,6.34-1.87.92-1.5.88-3.46-.05-5.1-1.7-.81-3.66-.71-5.09.32-1.88,1.35-2.55,4.09-1.41,6.46l.21.19Z"/><path class="cls-1" d="M4.35,58.16c.29,1.4.88,3.77,1.99,6.41h53.06c1.09-2.6,1.68-4.94,1.98-6.35"/><path class="cls-1" d="M22.31,34.37c-1.65,1.09-2.92,2.7-3.59,4.6"/><path class="cls-1" d="M55.62,40.71c0-4.35-3.53-7.88-7.88-7.88-.12,0-.24.01-.37.02-1.04-2.81-3.74-4.82-6.92-4.82-1.31,0-2.55.34-3.61.95"/><line class="cls-1" x1="32.25" y1="38.83" x2="33.24" y2="40.21"/><line class="cls-1" x1="42.67" y1="31.77" x2="42.19" y2="32.68"/><line class="cls-1" x1="40.36" y1="37.32" x2="41.71" y2="36.72"/><line class="cls-1" x1="24.85" y1="28.82" x2="27.71" y2="32.68"/></g></svg>