<?xml version="1.0" encoding="UTF-8"?><svg id="Layer_2" xmlns="http://www.w3.org/2000/svg" viewBox="0 0 68.03 43.35"><defs><style>.cls-1{fill:#5289b1;stroke-width:0px;}</style></defs><g id="Design"><path class="cls-1" d="M65.78,25.91c-.66-.25-1.37-.43-1.95-.57-.41-.1-.76-.19-.99-.27-.01,0-.03,0-.04-.01-.66-.16-1.31-.56-1.94-.94-.29-.18-.59-.36-.89-.52-.49-.26-1.02-.45-1.53-.63-.35-.13-.72-.26-1.06-.41-.04-.02-.09-.04-.13-.06.97-.3,1.87-.65,2.76-1.13.14-.08.28-.15.43-.22.76-.37,1.7-.84,3.93-2.67.02-.02,2.16-2.02,1.76-2.68-.15-.24-.42-.28-.82-.12-.6.25-5.76,2.28-6.53,2.46-1.47.33-2.97.49-4.4.47-.91-.82-1.97-1.52-3.17-2.07-.14-.06-.65-.27-1.55-.63-1.37-.55-3.45-1.37-3.88-1.59-.58-.3-1.25-.79-1.96-1.31-.07-.05-.13-.1-.2-.14-.39-1.06-1.25-1.84-2.08-2.59-.51-.46-1.04-.94-1.47-1.48-.43-.55-.69-1.19-.96-1.87-.29-.72-.59-1.47-1.12-2.13-1.22-1.52-5.37-5.64-8.39-4.63-.96.32-1.63.73-2.03,1.23-1.29-.07-2.53.15-3.82.38-.46.08-.93.17-1.41.24-.56.09-1.11.04-1.69,0-.54-.04-1.1-.08-1.68-.01-.53-.29-1.23-.45-2.12-.5-.05,0-.1,0-.15,0-3.26,0-6.2,5.21-6.98,7.07-.34.82-.43,1.65-.52,2.47-.08.77-.16,1.49-.44,2.17-.27.67-.67,1.31-1.06,1.93-.35.56-.71,1.14-.97,1.74-.3.17-.63.33-1,.5-.56.25-1.19.38-1.8.51-1.15.24-2.34.49-3.06,1.54C.37,19.87,0,20.58,0,21.7c0,.38.12.7.32.97.1.67.29,1.34.46,1.97.11.38.2.74.29,1.09.59,2.58,1.83,4.4,3.69,5.42,1.3.71,2.84,1.09,4.47,1.1.02,0,.04,0,.06,0,1.23,0,2.25-.22,3.32-.46.38-.08.76-.17,1.17-.25.47-.09.95-.17,1.46-.25.08-.01.16-.03.25-.04-.61,1.53-.82,3.33-.49,4.96.11.57.28,1.1.51,1.6.93,2.07,2.79,3.23,5.52,3.45.34.03.69.04,1.03.04,1.77,0,5.4,0,6.04-3.77.9.19,1.83.22,2.81.22.67,0,1.39-.03,2.2-.1-.3.69-.44,1.43-.37,2.14.1,1.11.69,2.06,1.65,2.67.85.54,2.19.89,3.31.89.23,0,.45-.01.65-.05.66-.1,1.16-.44,1.65-.78.29-.2.6-.41.95-.58,1.5-.7,3.26-.56,4.97-.42.69.06,1.4.11,2.09.12h.03c1.86,0,3.95-.36,5.42-2.97.14-.26.28-.53.39-.81.43-1.05.68-2.32.74-3.78.01-.3.01-.61,0-.93.03,0,.06,0,.1,0,1.2.12,2.43.24,3.56-.12.95-.3,1.55-.91,2.12-1.5.33-.34.64-.66,1.02-.93.55-.4,1.36-.05,2.21.31,1.21.52,2.72,1.16,3.75-.52.63-1.02.81-1.92.56-2.68-.26-.77-.96-1.37-2.14-1.82ZM58.94,18.85c.74-.17,4.7-1.72,6.15-2.29-.41.52-1.03,1.2-1.19,1.34-2.17,1.77-3.07,2.22-3.79,2.58-.16.08-.31.15-.45.23-.9.49-1.82.84-2.83,1.14-.43-.9-1-1.75-1.7-2.51,1.25-.04,2.55-.2,3.81-.48ZM27.89,2.33c.16-.6.82-1.09,1.95-1.47,2.4-.8,6.21,2.68,7.58,4.39.46.57.73,1.24,1.01,1.94.28.7.57,1.41,1.06,2.05.46.6,1.02,1.1,1.56,1.58.91.82,1.76,1.59,1.99,2.67.37,1.7-.69,3.04-1.81,4.45-.66.84-1.35,1.7-1.74,2.67-.09.22-.14.48-.19.76-.13.71-.25,1.2-.73,1.4-.74.31-1.36.32-1.92.03-1.63-.87-2.26-4.11-2.56-5.67-.04-.23-.08-.42-.12-.58-.09-.42-.19-.85-.28-1.27-.21-.93-.43-1.89-.61-2.84-.4-2.05-1.03-3.54-2.17-5.12-.26-.36-.6-.76-.96-1.18-1.04-1.21-2.34-2.72-2.04-3.82ZM9.95,11.1c.09-.79.17-1.54.47-2.26.88-2.1,3.67-6.61,6.3-6.61.04,0,.07,0,.11,0,.32.02.61.05.87.1-1.63.64-3.05,1.75-4.12,2.67-1.75,1.51-3,3.63-3.64,6.17,0-.02,0-.04,0-.07ZM8.34,15.52c.29-.46.58-.93.83-1.43-.24.65-.54,1.2-.99,1.68.05-.08.1-.17.16-.25ZM15.12,30.56c-.49.08-1,.16-1.48.25-.42.08-.81.17-1.19.25-1.1.24-2.06.44-3.22.44-1.51,0-2.93-.36-4.12-1.01-1.66-.91-2.78-2.57-3.32-4.93-.08-.37-.19-.74-.29-1.13-.1-.37-.21-.75-.29-1.13,2.05.88,6.05-.04,6.61-2.6.46-2.14-2.07-2.11-3.86-2.09.05,0,.09-.02.14-.03.65-.14,1.31-.28,1.95-.56,2.94-1.3,3.66-2.69,4.26-5.16.34.2.67.46,1.02.57-.32.27-.57.65-.87.95.43.41,1.41.1,1.87.07.61-.05,1.21-.14,1.83-.18.4-.03,1.14.13,1.22-.47.14-1.01-1-1.66-1.62-1.72,0,0-.01,0-.02,0-.64-.05-1.26.18-1.85.35-.54.16-1.09.2-1.58.42.08-.32.16-.67.23-1.03.57-2.59,1.78-4.75,3.52-6.25,1.1-.95,2.59-2.12,4.27-2.68.76-.26,1.49-.2,2.26-.14.59.05,1.21.09,1.85,0,.49-.07.97-.16,1.43-.24,1.15-.21,2.22-.4,3.29-.38,0,0,0,.01,0,.02-.41,1.49,1.03,3.16,2.19,4.51.35.41.68.79.93,1.13,1.08,1.49,1.67,2.88,2.05,4.82.19.96.41,1.93.62,2.86.1.42.19.84.28,1.27.03.15.07.34.11.56.32,1.67.99,5.15,2.94,6.18.38.2.78.3,1.21.3s.88-.1,1.35-.3c.89-.38,1.05-1.29,1.17-1.95.04-.24.08-.46.15-.61.31-.75.83-1.47,1.38-2.16.42,1.18.64,2.5.62,3.89-.04,3.46-1.48,6.68-3.74,8.41-3.25,2.48-9.52,4.41-13.29.92-.32-.29-.55-.71-.8-1.15-.36-.63-.72-1.29-1.4-1.66-.09-.05-.19-.1-.29-.14.07-.08.13-.16.17-.26.17-.38.31-.75.54-1.1.23-.35.58-.58.85-.89.14-.16.51-.47.44-.76-.06-.24-.54-.31-.74-.33-.65-.09-1.11.43-1.48,1.01-.36.57-.72,1.14-1.08,1.71-.1.16-.18.34-.28.5-.59.11-1.18.34-1.72.6-1.28.6-2.78.84-4.23,1.07ZM22.05,40.56c-.32,0-.65-.01-.97-.04-2.47-.19-4.08-1.18-4.9-3.01-.2-.45-.35-.92-.46-1.44-.32-1.62-.05-3.48.65-4.96,1.13-.2,2.26-.46,3.3-.94.31-.15.64-.28.96-.39.37.63.77,1.21,1.18,1.76.4,1.18.88,2.27,1.62,3.14.87,1.04,1.81,1.6,2.86,2.18.36.2.72.35,1.08.47-.42,2.66-2.43,3.23-5.31,3.23ZM30.9,37.01c-1.54,0-2.92-.06-4.25-.8-.98-.54-1.86-1.07-2.65-2.01-.17-.21-.33-.43-.47-.67,2.46,2.35,5.27,2.92,8.1,2.92.76,0,1.53-.04,2.28-.1-.14.16-.27.34-.38.51-.98.09-1.85.14-2.62.14ZM66.73,30.02c-.66,1.07-1.5.78-2.82.22-.96-.41-2.04-.87-2.93-.23-.43.31-.78.67-1.12,1.01-.54.55-1.05,1.07-1.82,1.32-.98.31-2.14.2-3.26.09-.07,0-.13-.01-.19-.02-.09-1.66-.39-3.46-.86-5.14-.06-.2-.26-.31-.46-.26-.2.06-.31.26-.26.46,0,.01,0,.02,0,.03.62,2.17.92,4.56.84,6.55-.06,1.37-.29,2.55-.68,3.52-.1.25-.22.5-.35.73-1.28,2.27-3.05,2.6-4.77,2.6h-.03c-.66,0-1.36-.06-2.04-.11-1.8-.15-3.67-.3-5.35.49-.41.19-.74.42-1.06.64-.45.31-.84.58-1.34.65-1.02.15-2.57-.17-3.45-.74-.78-.49-1.23-1.22-1.31-2.11-.1-1.14.43-2.41,1.4-3.3,1.78-1.65,3.75-1.32,5.84-.98l.13.02c1.13.18,2.48-.03,3.61-.58.12-.06.32-.14.54-.22.94-.36,1.68-.67,1.9-1.15.26-.56-.11-1.3-.43-1.96-.12-.25-.25-.5-.28-.65-.05-.19-.08-.39-.11-.62,0-.03-.02-.06-.03-.09-.06-.15-.21-.26-.38-.24-.2.02-.35.21-.33.41.03.25.07.48.12.7.05.23.19.49.34.8.2.4.53,1.07.42,1.32-.11.24-1.07.61-1.48.76-.24.09-.45.17-.6.24-.98.48-2.19.68-3.16.52l-.13-.02c-.35-.06-.71-.11-1.06-.16.98-.6,1.95-1.4,2.87-2.44.95-1.08,2.22-2.81,2.89-4.94.64-2.04.63-5.74-.03-7.91h0c-.39-1.3-1.15-2.65-1.82-3.84,0,0,0-.01-.01-.02.14-.46.21-.94.18-1.45.56.41,1.1.78,1.59,1.03.46.24,2.4,1.01,3.95,1.63.75.3,1.39.55,1.52.61,2.52,1.16,4.42,3.01,5.38,5.22v.03c.05.1.1.21.18.33,0,.05.02.11.05.16.43.71.8,1.46,1.11,2.24.06.15.2.24.35.24.05,0,.09,0,.14-.03.19-.07.29-.29.21-.48-.19-.49-.41-.96-.65-1.43.18.07.36.13.53.19.51.18.99.35,1.43.59.28.15.56.32.85.49.67.41,1.37.83,2.13,1.02.27.1.64.19,1.05.29.59.14,1.25.31,1.86.54.96.37,1.51.82,1.7,1.37.18.54.02,1.23-.49,2.05Z"/><path class="cls-1" d="M22.83,14.3c.86.1,1.71.26,2.57.36.65.08,2.03.52,2.6.07-.44-.37-.83-.84-1.29-1.18.5-.1.95-.4,1.42-.6-.71-.31-1.51-.4-2.29-.63-.83-.25-1.71-.56-2.61-.55-.01,0-.02,0-.03,0-.85.03-2.39.71-2.11,1.9.17.71,1.18.58,1.74.65Z"/></g></svg>