<?xml version="1.0" encoding="UTF-8"?><svg id="Layer_2" xmlns="http://www.w3.org/2000/svg" viewBox="0 0 109.97 42.24"><defs><style>.cls-1{fill:#5289b1;stroke-width:0px;}</style></defs><g id="Design"><path class="cls-1" d="M79.88.04c-.31-.12-.6.04-.85.49-.38.67-3.71,6.32-4.3,7.04-1.3,1.58-2.8,2.99-4.36,4.08-.43.3-.86.6-1.29.89-.1.07-.21.14-.31.22-.23-.12-.46-.25-.71-.36-1.52-.73-3.3-1.28-5.61-1.75-5.86-1.18-11.57-1.55-16.95-1.11-.51.04-1.04.09-1.58.16-.19-.18-.38-.33-.57-.47h0c-.82-.58-1.87-.99-2.81-1.35-.24-.09-.46-.18-.67-.26-1.21-.49-2.41-.62-3.6-.4-1.55-1.06-3.27-1.78-4.77-1.33-.41.12-.76.26-1.08.41-.69-.02-1.39.02-2.09.06-.44.03-.89.05-1.35.06-.53.02-1.03-.09-1.57-.2-.77-.16-1.56-.33-2.48-.14-.36.08-.71.18-1.06.3-.35-.34-.83-.6-1.45-.79-3.09-.91-7.53,5.7-7.58,5.77-.49.74-.79,1.55-1.08,2.34-.28.75-.54,1.45-.95,2.08-.4.62-.88,1.18-1.35,1.72-.59.68-1.18,1.38-1.61,2.19-.09,0-.18.02-.27.02-.86.07-1.74.15-2.48.6-1.24.07-2.69.64-2.8,3.05-.04.87.48,1.46,1.25,1.78.03.3.07.6.11.9.05.39.1.75.13,1.1,0,.04,0,.07.01.1-1.46.32-2.75,1.04-3.47,2.74-.51,1.21-.48,2.54.1,3.54.61,1.07,1.74,1.65,2.54,1.99.55.24,1.19.47,1.89.47.03,0,.06,0,.09,0,.8-.02,1.52-.37,2.16-.68.76-.37,3.51-.68,6.74-1.03.41,0,.83-.02,1.24-.03-.55.5-1.01,1.16-1.3,2.05-.42,1.3-.29,2.67.36,3.68.69,1.07,1.86,1.59,2.68,1.89.5.18,1.08.36,1.69.36.11,0,.22,0,.33-.02.8-.09,1.5-.51,2.11-.89.75-.46,3.61-1.02,6.93-1.67,5.57-1.09,13.09-2.56,17.01-4.78.19-.03.39-.06.58-.09l.23-.04c1.98-.31,3.93-.82,5.82-1.32,1.04-.27,2.1-.55,3.17-.8-.38.79-.5,1.74-.29,2.61.33,1.35,1.44,2.4,2.68,2.55.12.01.24.02.36.02.79,0,1.5-.31,2.18-.61.26-.12.51-.22.77-.32,1.04-.38,1.93-.36,3.06-.35h.39c2.16.04,4.62.08,6.56-1.28.87-.61,1.31-1.51,1.26-2.55-.04-.74-.68-2.07-1.28-3.27,1.79-.9,3.03-2.19,3.76-3.92,1.01-2.38.62-5.53-1.03-8.49,0,0,0-.01.01-.02.37-.59.82-1.14,1.31-1.73,0,0,0,0,0,0,1.65-1.98,2.85-3.6,3.73-5.61.08-.17.16-.34.24-.52.43-.9.97-2.02,1.73-5.35,0-.03.54-3.45-.32-3.78ZM31.77,6.73c2.55-.76,6.5,3.04,7.9,4.9.47.62.74,1.33,1.02,2.08.28.75.57,1.53,1.09,2.22.48.65,1.06,1.2,1.62,1.74.94.89,1.82,1.74,2.04,2.88.34,1.8-.81,3.18-2.02,4.63-.73.87-1.48,1.77-1.93,2.79-.11.24-.16.52-.22.81-.15.74-.29,1.24-.79,1.43-.78.3-1.43.3-2-.03-1.7-.96-2.29-4.42-2.57-6.08-.04-.24-.08-.45-.11-.62-.09-.45-.18-.91-.27-1.36-.2-.99-.41-2.02-.58-3.03-.38-2.2-1.01-3.8-2.19-5.53-.27-.39-.62-.83-1-1.28-1.08-1.32-2.42-2.95-2.07-4.1.19-.61.88-1.1,2.07-1.46ZM10.14,18.09c.49-.57.99-1.15,1.42-1.82.46-.71.75-1.49,1.03-2.25.29-.77.56-1.5,1-2.16,1.32-2.01,4.36-5.46,6.23-5.46.13,0,.25.02.37.05.3.09.55.2.76.32-1,.46-1.9,1.04-2.65,1.55-1.97,1.35-3.5,3.46-4.42,6.1-1.07,3.07-1.66,4.14-4.52,5.04-.12.04-.24.07-.36.09.34-.5.74-.97,1.16-1.46ZM6.76,34.53c-.58.28-1.19.58-1.8.6-.55.02-1.12-.19-1.6-.4-.68-.29-1.64-.78-2.13-1.62-.44-.76-.46-1.81-.05-2.76.55-1.29,1.5-1.9,2.77-2.2.37,2.13,1.27,3.75,2.7,4.82.71.53,1.42.86,2.14,1.07-.95.15-1.64.31-2.03.5ZM13.65,33.42c-.34,0-.67.02-.99.03-2.02.06-3.76.11-5.49-1.18-1.44-1.08-2.27-2.82-2.48-5.18-.03-.37-.08-.76-.13-1.14-.02-.18-.05-.36-.07-.54,1.93.26,4.54-.68,5.03-2.83.28-1.23-.33-1.77-1.22-2.02.43-.05.87-.12,1.3-.25,3.38-1.06,4.03-2.56,5.09-5.59.86-2.46,2.27-4.41,4.09-5.66,1.16-.79,2.7-1.75,4.34-2.1.23-.05.44-.07.66-.07.49,0,.96.1,1.45.2.56.12,1.14.24,1.77.22.47-.01.93-.04,1.38-.06.29-.02.58-.03.86-.05-.18.22-.32.47-.4.73-.49,1.59,1.02,3.43,2.23,4.91.36.44.71.87.95,1.23,1.1,1.61,1.7,3.11,2.05,5.18.18,1.03.38,2.06.59,3.06.09.45.18.9.27,1.36.03.16.06.36.1.59.09.55.22,1.28.4,2.06-1.16.55-2.26,1.09-3.25,1.58l-.28.14c-2.95,1.46-6.06,2.6-8.71,3.51l-.26.09c-1.33.46-2.7.93-4.06,1.14-.76.11-1.53.27-2.26.57-.99.03-1.99.06-2.97.07ZM73.4,25.19c-.7,1.65-1.92,2.85-3.73,3.66-.11.05-.19.14-.23.25-.04.11-.03.24.02.34.04.09.1.2.16.33.36.71,1.2,2.37,1.23,3.01.04.72-.28,1.35-.88,1.78-1.71,1.2-4.01,1.16-6.04,1.13h-.4c-1.17-.02-2.19-.04-3.37.39-.28.1-.55.22-.82.34-.71.31-1.38.61-2.08.52-.88-.11-1.69-.9-1.93-1.89-.24-.97.07-2.1.76-2.75.02-.02.03-.04.04-.06,0,0,.02,0,.03-.02.52-.45,1.2-.65,2.06-.79.98-.17,2.56-.25,3.41-.28.16,0,.3-.1.37-.24.07-.14.06-.31-.02-.44-.48-.74-1.1-1.54-1.75-2.4-.64-.84-1.33-1.73-1.96-2.67-1.66-2.45-2.94-5.15-2.02-7.71.68-1.91,2.59-3.19,5.66-3.81.22-.04.44-.08.67-.11.07,0,.15-.02.22-.03.24-.03.42-.24.39-.48-.03-.24-.24-.42-.48-.39-.33.03-.65.08-.97.15-3.39.68-5.51,2.15-6.31,4.37-1.12,3.12.52,6.26,2.47,9.02.54.76,1.1,1.5,1.63,2.19.45.59.89,1.16,1.27,1.7-.93.05-1.98.13-2.73.26-.65.11-1.33.27-1.93.61-.19.11-.38.24-.55.39,0,0,0,0-.01.01-1.42.29-2.83.66-4.2,1.02-1.55.41-3.13.82-4.73,1.12.73-.62,1.44-1.37,2.07-2.2.15-.19.11-.47-.09-.62-.19-.15-.47-.11-.62.09,0,0,0,0,0,0-.87,1.15-1.87,2.12-2.9,2.8-3.56,2.34-11.51,3.89-17.32,5.03-3.68.72-6.34,1.24-7.22,1.78-.53.33-1.14.7-1.75.76-.54.06-1.12-.12-1.62-.3-.7-.26-1.7-.7-2.24-1.54-.5-.77-.6-1.9-.26-2.93.64-1.99,2.2-2.61,4.34-2.93,1.45-.21,2.86-.7,4.22-1.18l.26-.09c2.68-.93,5.82-2.07,8.82-3.56l.28-.14c.94-.47,1.99-.99,3.09-1.51.45,1.54,1.16,3.09,2.37,3.78.43.24.89.36,1.39.36.43,0,.89-.09,1.37-.28.98-.38,1.18-1.36,1.33-2.07.05-.25.1-.48.17-.63.16-.37.38-.73.62-1.08.18-.26.37-.51.57-.76.13-.13.26-.27.39-.41,1.31-1.39,2.96-3.78,3.31-7.27.12-1.2.16-2.99-.34-4.68-.33-1.12-1.2-2.54-2.14-3.64.3-.03.59-.06.88-.08,5.3-.43,10.93-.06,16.71,1.1,2.23.45,3.94.98,5.4,1.68,2.04.98,3.51,2.25,4.51,3.91,1.71,2.84,2.16,5.87,1.21,8.1ZM79.34,3.62c-.74,3.23-1.25,4.3-1.66,5.16-.09.19-.17.36-.25.54-.84,1.91-2,3.49-3.6,5.4-.43.51-.81.98-1.16,1.49-.78-1.17-1.79-2.16-3.07-2.98.43-.29.85-.58,1.28-.88,1.62-1.13,3.19-2.6,4.53-4.24.57-.69,3.13-5.02,4.07-6.61,0,.78-.09,1.87-.13,2.11Z"/><path class="cls-1" d="M23,20.2c1.07.14,2.12-1.19,2.35-2.95.06-.47.05-.93,0-1.35l-3.58-.32c-.14.36-.24.75-.29,1.17-.23,1.77.46,3.31,1.53,3.44Z"/><path class="cls-1" d="M14.96,18.37c.6.14,1.35-.83,1.66-2.16.09-.37.13-.73.13-1.06l-2.1-.19c-.09.23-.17.47-.23.73-.31,1.34-.07,2.54.53,2.68Z"/><path class="cls-1" d="M19.12,29.6c-.2-.06-.38-.1-.49-.11-.69-.07-1.38-.06-2.06.01-1.33.14-2.76.5-3.9,1.11,1.52.55,2.31.87,3.91.36.44-.14.86-.33,1.3-.45.91-.26,1.9-.28,2.77-.61-.23.09-.97-.15-1.52-.3Z"/><path class="cls-1" d="M108.74,35.96c.8-.66,1.25-1.4,1.24-2.23,0-.29-.07-.58-.19-.86l-1.57-6.92s.01-.1.01-.15c-.02-1.35-1.62-2.47-4.63-3.26-.08-.02-.16-.04-.23-.06,0-.08-.02-.16-.03-.23-.07-.4-.33-.93-1.15-1.13-.06-.01-.11-.03-.17-.05-.04-.01-.08-.02-.12-.04l-.2.55.17-.57s-.05-.02-.08-.04c-.02,0-.04-.02-.05-.03,0,0,0,0,0,0,0,0-.02,0-.02-.02v-.02s.02-.08.02-.13c0-.06,0-.11,0-.18,0-.07-.01-.15-.03-.21,0-.03-.01-.05-.02-.08-.01-.04-.03-.08-.05-.13l-.03-.06s-.04-.07-.06-.1c-.01-.02-.03-.04-.04-.06-.02-.03-.04-.05-.07-.08-.01-.02-.03-.03-.04-.04-.02-.02-.05-.05-.08-.07,0,0-.03-.03-.04-.03-.02-.02-.05-.04-.08-.06,0,0-.03-.02-.03-.02-.03-.02-.07-.05-.1-.07-.04-.02-.07-.05-.11-.07-.05-.03-.11-.06-.16-.09l-.05-.03c-.05-.03-.11-.06-.15-.08,0,0-.03-.01-.04-.02-.07-.03-.13-.05-.2-.08l-.05-.02c-.06-.02-.12-.04-.18-.05-.01,0-.04,0-.05-.01-.08-.02-.16-.02-.24-.03-.02,0-.04,0-.06,0-.03,0-.07,0-.11,0-.03,0-.07,0-.1.02-.02,0-.05,0-.08.02-.1.03-.19.06-.28.11-.07.04-.13.08-.18.13,0-.06-.02-.11-.04-.17,0-.01-.02-.05-.02-.07-.07-.21-.19-.38-.35-.5-.07-.05-.14-.09-.22-.13-.02,0-.04-.02-.07-.02-.06-.02-.12-.03-.18-.04-.01,0-.05,0-.06,0-.08,0-.15,0-.22,0-.07,0-.14.02-.2.04-.06.02-.11.04-.16.06l-.05.02s-.07.03-.11.05c0,0-.03.01-.03.02-.09.04-.17.09-.26.14l-.08.04.29.51h0s-.32-.49-.32-.49c-.03.02-.06.03-.09.05,0,0,0,0-.01,0-.04-.07-.08-.15-.15-.22-.13-.16-.35-.34-.72-.39-.45-.18-.86-.22-1.26-.13-.09.02-.18.05-.26.07-.07.02-.13.04-.2.06-.16.03-.26-.02-.5-.16-.12-.07-.25-.15-.41-.21-.03-.01-.06-.03-.09-.04,0,0,0,0-.01,0-.08-.03-.16-.05-.22-.05-.02,0-.05,0-.06,0-.1,0-.19,0-.28.02-.09.02-.18.05-.26.09-.07.03-.13.08-.2.13-.12.09-.21.19-.29.28-.05.05-.12.14-.13.15h-.05s-.05-.02-.08-.03h-.03s-.05-.03-.08-.05l-.33-.16c-.11-.05-.21-.09-.29-.12-.02,0-.05-.02-.1-.03-.03-.01-.07-.02-.09-.03-.06-.01-.11-.02-.16-.03-.11-.01-.21-.02-.31,0-.05,0-.1.01-.14.02-.04,0-.08.02-.09.02-.01,0-.03,0-.05.01-.07.02-.13.04-.21.07,0,0-.03.01-.03.01l-.17.07s-.1.04-.15.06c0,0-.03,0-.03,0-.05.02-.11.04-.18.06,0,0,0,0,0,0-.01,0-.03,0-.04,0-.08,0-.2-.01-.32-.03-.28-.04-.63-.1-.99.06-.09.04-.18.09-.26.16-.26.14-.5.33-.67.54-.08.1-.15.2-.21.28-.05.08-.13.19-.17.21-.02.01-.06.02-.1.03-.04,0-.07,0-.11,0-.2,0-.41.05-.6.15-.26.12-.45.33-.57.63-.06.15-.1.31-.1.47l-.05.04c-.1.06-.23.1-.38.14-.27.08-.61.17-.92.46-.13.12-.24.26-.33.37-.11.13-.21.26-.29.31-.04.02-.09.03-.13.05-.13.04-.31.11-.48.24-.26.2-.37.47-.45.69,0,.01,0,.02-.01.03-2.13.79-3.27,1.77-3.32,2.88l-1.42,7.28c-.1.26-.14.52-.14.78.02,1.61,1.79,2.97,5.11,3.95,2.9.85,6.68,1.32,10.72,1.32.23,0,.45,0,.68,0,3.08-.04,6.23-.37,8.94-.96,0,0,4.07-.95,6.19-2.5ZM104.32,25.26c.45.27.59.49.59.59,0,0,0,.01,0,.02-.16-.23-.39-.42-.59-.57,0-.01,0-.03,0-.04ZM100.96,20.31l-.36.36-.07.03s0,0,0-.01l.43-.38ZM82.81,25.31c.05-.08.1-.16.14-.25.01,0,.02-.02.04-.03.06-.05.15-.11.23-.2.02.02.04.03.06.05.07.04.14.06.22.06h.34c.06,0,.12-.01.17-.04.05-.02.1-.05.14-.09.04-.04.07-.09.09-.14.03-.05.04-.11.04-.17,0-.04-.01-.08-.02-.12-.02-.07-.06-.14-.11-.19-.03-.02-.06-.05-.09-.07-.07-.04-.14-.06-.22-.06h-.34s-.07,0-.11.02c-.02-.07-.05-.13-.1-.19-.07-.09-.15-.21-.2-.28,0-.01,0-.03.02-.05.04-.11.06-.14.06-.14,0,0,0,0,0,0,.02-.01.09-.03.13-.05.08-.03.18-.06.28-.11.32-.16.53-.42.69-.63.07-.09.14-.18.21-.25.09-.09.22-.13.44-.19.2-.06.45-.13.69-.28.02-.01.04-.03.07-.05.03-.02.05-.04.08-.05.07-.05.13-.11.2-.17.01-.01.02-.03.04-.05.05.14.2.24.34.22h.05c.19-.03.31-.19.3-.37-.01-.18-.19-.31-.36-.3h-.06s-.04.02-.06.03c.01-.06.02-.12.01-.19,0-.03,0-.05,0-.11,0-.02.01-.03.02-.03.01,0,.03-.02.04-.02.01,0,.03,0,.03,0,.05,0,.1,0,.14,0,.19-.02.41-.05.64-.17.29-.16.45-.4.58-.59.04-.06.08-.12.12-.17.09-.1.23-.21.38-.29.04-.02.09-.06.13-.09.07-.01.22,0,.34.03.17.03.36.06.58.04.09,0,.18-.02.26-.04,0,0,0,0,0,0,.1-.03.19-.06.27-.09,0,0,.03-.01.03-.01.07-.03.14-.05.2-.08l.18-.07s.06-.02.08-.03c0,0,.01,0,.01,0h.05s.03-.01.05,0c.01,0,.03,0,.05,0h.04s.04.02.04.02c.05.02.11.04.19.08l.14.07s.09.04.13.06l.06.03s.09.04.15.06l.06.02c.08.03.16.05.23.06.05,0,.09.02.15.02.22.02.42-.01.6-.09.25-.11.42-.31.55-.45.03-.04.07-.08.1-.11.08.04.17.09.26.14.3.18.71.41,1.32.3.11-.02.22-.05.33-.09.06-.02.12-.04.17-.05.18-.04.37-.01.62.1.06.03.14.04.21.05,0,.01.01.02.02.03.05.1.12.24.26.37.06.06.13.1.21.15.01,0,.05.03.07.03.06.02.12.04.18.06.02,0,.05.01.07.01.13.02.27.01.42-.03l.06-.02s.08-.03.12-.04l.05-.02s.09-.04.14-.06c.04-.02.08-.04.15-.08,0,0,.03-.01.03-.01l.08-.05c.07-.04.14-.08.24-.13h0s0,.06,0,.09c0,.05,0,.09.02.14.01.12.04.23.09.34.02.06.05.11.08.17.07.12.16.23.26.31.06.05.13.1.2.13.17.08.37.1.55.05.1-.02.19-.06.27-.11.01,0,.05-.03.06-.04.06-.05.12-.1.16-.15.04-.04.07-.09.11-.15,0,0,.02-.03.02-.03l.04-.07s.02-.03.01-.03c0,0,0,0,.01,0,0,0,.01,0,.02,0,.02,0,.04,0,.05,0,0,0,.03,0,.03,0,.03,0,.05.01.1.03.04.01.07.03.12.05.03.02.07.03.1.05,0,0,.03.02.03.02.04.02.08.04.11.06l.07.05s.04.03.08.05l.04.03s.03.03.03.03h0s0,.02,0,.03v.05s0,0-.01.01c-.01.07-.02.13-.02.2,0,.11.02.23.06.33.03.1.08.2.15.28.05.08.12.15.2.21,0,0,0,0,0,0,.06.05.13.1.21.15,0,0,0,0,.01,0,.04.03.09.05.14.07.05.02.1.05.17.07l.06.02c.06.02.12.04.19.06.08.02.15.04.23.06.24.06.26.13.28.22.05.2,0,.51-.04.81-.01.09-.03.19-.04.28,0,.05-.01.11-.01.16-.05.09-.07.19-.06.3.04.73.47,1.07.82,1.23.07.03.15.06.22.08-.01.08-.01.17.01.27.05.22.2.34.25.39.07.06.16.13.25.2.1.08.28.21.35.3,0,.04.01.09.02.15-1.95.97-6.01,1.63-10.48,1.69-4.53.06-8.74-.53-10.64-1.48,0-.08.02-.16.03-.23.05-.41.11-.89-.07-1.28,0-.02.02-.03.03-.04ZM102.46,37.28c-2.43.55-5.45.91-8.86.96-4.18.05-8.1-.4-11.05-1.26-2.66-.78-4.25-1.84-4.26-2.84,0-.12.02-.25.08-.39.01-.03.02-.07.03-.1l1.1-5.65c.27.27.61.52,1.03.73.08.04.17.06.26.06.22,0,.42-.12.53-.33.04-.09.06-.18.06-.27,0-.21-.12-.42-.32-.52-.89-.44-1.21-1.09-1.21-1.51,0-.41.57-1.04,2.09-1.67-.01.03-.03.05-.04.08-.69.45-1.09.98-1.08,1.58,0,.61.42,1.14,1.21,1.61,0,0,.01.01.02.02.01,0,.02.01.04.02.11.06.22.12.34.17.02,0,.03.01.05.02.12.06.25.11.39.17,0,0,.02,0,.02,0,0,0,0,0,.01,0,.54.22,1.18.41,1.94.58.07.02.15.03.23.05,0,0,0,0,0,0,.64.14,1.32.26,2.05.36,0,0,0,0,0,0,.93.13,1.93.22,2.97.28.09,0,.19.01.28.02.19,0,.38.02.57.03.16,0,.32.01.48.02.15,0,.31,0,.46.01.28,0,.57,0,.86,0,.04,0,.08,0,.12,0,.22,0,.43,0,.65,0,.26,0,.52,0,.79-.02.07,0,.15,0,.22,0,.24,0,.48-.02.73-.03.08,0,.16,0,.24-.01.17,0,.34-.02.52-.03.1,0,.19-.01.29-.02.23-.02.46-.03.68-.05.06,0,.11,0,.16-.01.21-.02.43-.04.64-.06.04,0,.07,0,.11-.01,2.48-.26,4.73-.72,6.26-1.39.04-.02.09-.04.13-.06.02,0,.03-.01.05-.02.1-.05.19-.09.28-.14.04-.02.08-.04.11-.05.07-.03.13-.07.19-.11.78-.47,1.23-1.02,1.22-1.66,0-.67-.5-1.25-1.46-1.74,1.75.62,2.42,1.29,2.42,1.73,0,.56-.44,1.12-1.21,1.51-.2.11-.32.31-.32.53,0,.09.02.18.06.26.15.29.5.4.79.25.4-.2.73-.45,1.01-.73l1.26,5.54s.02.08.04.12c.07.15.11.3.11.44,0,.4-.23.81-.68,1.21-1.31,1.03-5.66,2.32-5.66,2.32Z"/><path class="cls-1" d="M95.37,30.82c-.46-.01-.85.45-.86,1.03-.01.58.35,1.07.81,1.08.46.01.85-.45.86-1.03.01-.58-.35-1.07-.81-1.08Z"/><path class="cls-1" d="M91.28,31.81c.01-.58-.35-1.07-.81-1.08-.46-.01-.85.45-.86,1.03-.01.58.35,1.07.81,1.08.46.01.85-.45.86-1.03Z"/><path class="cls-1" d="M94.83,35.77c-.11-.04-.22,0-.27.11-.13.33-.6.6-1.01.47-.22-.07-.4-.26-.48-.5-.04-.13-.06-.26-.07-.4.64-.14,1.48-.54,1.02-.97-.08-.07-.2-.08-.31-.09-.35-.02-.71-.03-1.06-.05-.29-.01-.69.04-.96.14-.05.02-.1.04-.11.09,0,.03,0,.07.01.1.13.38.44.68.82.81.03.01.07.01.12.02-.02.11-.04.23-.08.33-.1.24-.29.42-.51.48-.42.11-.87-.19-.98-.52-.04-.11-.15-.16-.26-.13-.11.04-.16.15-.13.26.14.43.63.81,1.16.82.1,0,.21,0,.32-.04.29-.08.54-.29.7-.57.14.29.38.51.67.6.1.03.21.05.31.05.53.01,1.03-.34,1.2-.76.04-.11,0-.22-.11-.27Z"/></g></svg>