<?xml version="1.0" encoding="UTF-8"?><svg id="Layer_2" xmlns="http://www.w3.org/2000/svg" xmlns:xlink="http://www.w3.org/1999/xlink" viewBox="0 0 2400 610"><defs><style>.cls-1{clip-path:url(#clippath);}.cls-2{fill:none;}.cls-2,.cls-3{stroke-width:0px;}.cls-4{opacity:.12;}.cls-3{fill:#9a9486;}</style><clipPath id="clippath"><rect class="cls-2" width="2400" height="610"/></clipPath></defs><g id="BG"><g class="cls-1"><g class="cls-4"><path class="cls-3" d="M1085.76,443.65c3.61,13.1,1.73,25.49-3.7,37.41-1.57,3.46-3.44,6.78-5.28,10.11-3.44,6.22-6.49,12.72-10.57,18.5-4.66,6.62-9.72,13.16-15.57,18.72-10.28,9.78-19.38,19.81-23.84,33.92-3.87,12.26-12.61,20.39-26.31,21.82-1.38.14-2.61,2.05-3.84,3.22-8.37,7.99-15.57,18.08-25.36,23.48-12.02,6.63-25.24,13.64-40.31,10.05-9.79-2.33-19.24-5.13-23.15-16.24-.77-2.18-3.66-4.97-5.73-5.12-11.87-.81-15.78-9.71-20.1-18.44-.96-1.94-1.81-4.37-3.45-5.49-11.87-8.05-16.27-20.05-17.43-33.42-.82-9.4-1.19-18.98-.3-28.35.55-5.85,3.89-11.43,5.83-17.17,4.9-14.52,14.03-26.42,22.33-39.08,13.75-20.96,36.2-24.18,56.75-30.9,21.01-6.87,42.72-11.63,64.22-16.92,7.9-1.95,16.14-2.5,24.11-4.22,5.88-1.27,11.52-4.51,17.37-4.82,4.81-.25,10.73,1.31,14.43,4.25,5.01,3.97,9.41,4.77,15.31,3.44,38.26-8.63,77.03-13.14,116.25-13.46,2.33-.02,4.66,1.09,7,1.67-1.03,2.19-1.7,4.67-3.17,6.5-3.48,4.31-7.17,8.48-11.09,12.39-7.12,7.11-16.72,6.87-25.76,8.13-26.54,3.71-52.91,8.05-78.66,20ZM1051.14,408.83c-9.39-3.63-13.37,3.41-18.43,9.22,1.15,1.22,2.04,2.38,3.15,3.3,6.65,5.51,8.76,10.94,2.6,18.88-2.87,3.69-3.11,9.45,3.83,12.45,4.07,1.76,7.11,5.88,11.17,9.43-3.15,2.11-5.13,3.45-7.12,4.78.02.72.05,1.43.07,2.15,4.21.51,8.43,1.02,12.64,1.53-3.12-4.16-1.75-9.25,3.48-11.39-2.66-.9-4.78-1.62-7.66-2.59,2.2-.87,3.39-1.35,5.32-2.12-2.09-.82-3.32-1.3-4.55-1.78.29-.63.58-1.25.87-1.88,2.74,1.44,6.53,2.22,7.93,4.49,1.5,2.41.73,6.22.96,9.42,1.38-2.34,1.5-4.73,1.82-7.1.24-1.82.74-3.62,1.12-5.42,2.81.91,5.81,1.46,8.35,2.87,1.53.85,3.61,3.92,3.23,4.48-2.87,4.19-1.47,9.21-3.1,13.45-2.09,5.44-2.36,12.47-10.42,13.99,3.3,5.74,6.88,4.03,8.85-.24,4.67-10.12,9.89-20.21,8.46-32.06-.85-7.06-5.08-10.07-11.87-8.52,3.13,1.92,6.73,4.13,10.95,6.72-11.68-1.76-22.1-3.33-32.84-4.95,5.5-.76,11.15-1.53,18.45-2.53-6.19-.83-10.98-1.46-15.76-2.1.02-.46.04-.91.07-1.37h25.19c-10.89-2.56-21.76-4.42-32.95-.3,3.99-2.02,7.97-4.04,11.96-6.05-.14-.38-.28-.77-.42-1.15-4.62,1.53-9.25,3.06-13.87,4.59-.2-.53-.41-1.06-.61-1.59,5.43-2.22,10.86-4.44,15.71-6.42-3.12-1.5-6.47-3.11-10.07-4.85,1.47-1.11,3-2.27,5.91-4.46-3.99.57-6.07.86-9.52,1.36,2.67-2.18,4.16-3.39,5.64-4.6l-.67-1.06c-2.82.93-5.64,1.86-8.47,2.78-.16-.44-.32-.88-.49-1.33,3.64-1.86,7.28-3.72,10.92-5.58,4.23.54,8.47,1.07,14.23,1.8-3.5,3.21-5.97,5.48-6.78,6.23,2.65,2.79,5.91,6.22,8.47,8.92.37-5.14,1.22-11.71,1.06-18.24-.04-1.7-3.17-4.59-5.03-4.71-3.87-.26-7.83.95-11.76,1.56ZM918.64,599.22l-.23-.22,2.8,10.64c-.45.32-.9.63-1.35.95-1.53-2.18-3.07-4.36-5.38-7.65.36,9.88,13.97,16.11,27.67,14.45-.6-.98-1.2-1.95-1.96-3.18,16.56,2.5,29.59-2.59,40.47-14.33,4.36-4.7,4.17-9.32,1.75-14.49-.97-2.07-2.12-4.04-3.19-6.06-.28.09-.55.17-.83.26.59,4.54,1.18,9.08,1.77,13.63-.5.15-.99.29-1.49.44-1.68-3.53-3.37-7.07-5.05-10.6-.39.15-.77.31-1.16.46.96,5.06,1.92,10.12,2.87,15.17-.39.17-.77.33-1.16.5-2.5-4.06-5-8.12-7.5-12.18-.55.24-1.1.48-1.64.72,1.51,5.14,3.01,10.28,4.52,15.41-.57.21-1.14.42-1.71.63-2.37-4.07-4.75-8.15-7.12-12.22l-.89.51c.7,4.68,1.4,9.36,2.1,14.04-.52.13-1.04.26-1.56.39-2.08-4.29-4.16-8.57-6.24-12.86-.33.12-.65.24-.98.35.82,4.67,1.65,9.34,2.47,14.02-.46.15-.93.3-1.39.45-1.93-4-3.87-8.01-5.8-12.01-.37.17-.74.35-1.11.52.87,4.64,1.73,9.28,2.6,13.92-.65.17-1.3.34-1.96.51-1.83-4.17-3.67-8.34-5.5-12.51l-.75.15c.49,4.02.98,8.03,1.47,12.05-.63.19-1.27.39-1.9.58-1.67-4.52-5.46-9.67-4.36-13.37.92-3.1,7.62-4.38,11.61-6.71,9.37-5.47,18.64-11.1,27.97-16.65,1.73-1.03,3.51-1.99,5.27-2.98,1.07,2.07,2.65,4.04,3.13,6.24,1.14,5.24,1.76,10.59,2.92,17.99,2.68-8.21,12.25-11.97,6.92-22.45-.59,2.53-.92,3.93-1.24,5.34-.8-.15-1.6-.31-2.4-.46.76-5.25-.12-11.64,2.58-15.54,7.66-11.05,16.79-21.08,25.47-31.68-6.66-.42-9.15,6.85-14.2,9.72,5.64-5.25,10.96-10.92,17.02-15.63,5.79-4.5,13.57-6.99,13.9-17.93-5.05,5.37-9.02,9.58-13,13.8-.27-.24-.54-.49-.81-.73,1.54-2.72,3.08-5.45,4.62-8.17-.38-.33-.76-.67-1.14-1-2.64,2.51-5.27,5.03-8.14,7.77,1.4-4.35,2.56-7.94,3.71-11.54-.74-.29-1.48-.58-2.21-.87-5.13,3.25-10.26,6.49-15.7,9.93,2.11-4.02,4.14-7.91,6.18-11.8-.3-.18-.6-.36-.89-.54-2.36,2.85-4.71,5.71-8.52,10.33,1.66-4.76,2.59-7.43,3.52-10.1-.35-.19-.69-.38-1.04-.57-2.98,3.49-5.95,6.97-8.93,10.46-.32-.19-.64-.38-.96-.57,2.13-4.04,4.27-8.08,6.4-12.12-.31-.16-.61-.32-.92-.48-2.02,2.39-4.04,4.77-6.06,7.16-.33-.19-.67-.37-1-.56.97-2.6,1.93-5.2,2.9-7.81-7.59,6.4-14.22,13.4-20.9,20.36-.21.21-.83.03-1.89.03,4.21-6.75,8.22-13.19,12.24-19.61,7.77-12.42,18.58-14.1,29.7-4.69.92.78,2.46.87,3.28,1.7,6.84,6.92,20.47-2.88,23.4,9.42,5.54-7.11,10.89-13.98,16.47-21.14-4.8-.23,1.81-10.18-6.94-9.82-3.84.16-7.75-1.16-12.05-1.88,3.32-4.62,6.91-9.62,10.5-14.63-.16-.23-.32-.46-.49-.69-2.57,2.06-5.14,4.11-8.91,7.13,1.11-3.03,1.72-4.68,2.68-7.29-2.77,2.03-4.47,3.27-7.67,5.62,1.95-4.07,3.1-6.46,4.61-9.6-2.13.83-3.33,1.3-4.9,1.91.45-2.39.81-4.25,1.2-6.35-1.73.51-2.97.87-4.99,1.47,1.85-3.96,3.32-7.09,5.1-10.9-1.87,1-3.07,1.64-5.31,2.83,1.73-3.1,2.77-4.96,3.8-6.82-.28-.22-.56-.43-.84-.65-1.5,1.27-3.01,2.55-4.51,3.82-.23-.2-.47-.39-.7-.59,1.86-3.32,3.71-6.64,5.57-9.96-.87-.73-1.74-1.46-2.6-2.19-2.47,3.18-4.94,6.36-7.4,9.54-.17-.18-.34-.37-.51-.55,3.58-4.73,7.16-9.45,10.74-14.18-.36-.33-.72-.66-1.08-.99-2.59,2.24-5.18,4.48-7.78,6.73-.16-.22-.31-.44-.47-.66,1.93-2.87,3.86-5.74,5.79-8.61-.38-.28-.76-.56-1.14-.84-4.25,3.77-8.49,7.54-12.74,11.31-.26-.24-.52-.48-.78-.72,3.81-4.99,7.63-9.97,11.44-14.96-.33-.26-.65-.52-.98-.78-4.79,4.58-9.58,9.16-14.37,13.74-.28-.28-.56-.56-.83-.85,2.6-3.26,5.19-6.52,7.79-9.79-.68-.67-1.37-1.35-2.05-2.02-3.05,4.06-6.09,8.12-9.14,12.18-.47-.47-.95-.94-1.42-1.41,1.48-2.05,2.96-4.09,4.45-6.14-.28-.26-.56-.52-.85-.77-2.98,2.5-5.95,5-8.93,7.51-.21-.28-.42-.56-.63-.85,2.09-2.99,4.18-5.98,6.28-8.97-.45-.37-.89-.74-1.34-1.11-4.32,4.54-8.65,9.08-12.97,13.63-.35-.29-.69-.57-1.04-.86,2.51-3.7,5.03-7.41,7.54-11.11-1.04-.89-2.09-1.78-3.13-2.68-3.22,4.54-6.44,9.08-9.66,13.61-.39-.38-.79-.77-1.18-1.15,1.45-2.4,2.91-4.8,4.36-7.2l-1.47-1.16c-4.65,5.06-9.31,10.12-13.96,15.18l-.84-.59c2.51-3.9,5.02-7.81,7.52-11.71-.62-.48-1.24-.97-1.85-1.45-3.26,3.7-6.52,7.4-9.77,11.1-.25-.17-.5-.34-.75-.52,1-2.06,1.99-4.12,2.99-6.19-.39-.26-.79-.51-1.18-.77-5.35,5.77-10.71,11.54-16.06,17.31-.31-.29-.62-.57-.93-.86,2.65-3.74,5.29-7.47,7.94-11.21-.58-.52-1.16-1.03-1.73-1.55-4.72,5.55-9.45,11.1-14.17,16.65-.56-.51-1.12-1.02-1.67-1.53,3.01-4,6.03-8.01,9.04-12.01-.5-.41-1-.83-1.49-1.24-5.25,5.67-10.49,11.35-15.74,17.02-.31-.26-.61-.52-.92-.78,2.94-4.49,5.88-8.98,8.82-13.48-.61-.49-1.22-.99-1.83-1.48-5.62,7.17-11.24,14.34-16.85,21.51-.35-.27-.7-.54-1.05-.8,3.27-5.14,6.55-10.27,9.82-15.41-.52-.4-1.05-.8-1.57-1.2-3.45,3.66-6.9,7.32-11.53,12.23,1.38-3.59,2.14-5.57,2.5-6.5-16.44,2.4-27.28,12.23-33.66,26.7,2.28.39,4.87.3,6.96,1.28,10.15,4.78,20.01,3.65,30.45.47,4.82-1.47,10.62.26,18.05.65-8.58,11.71-15.59,21.28-22.6,30.84-.41-.27-.82-.54-1.23-.81,3.59-6.6,7.18-13.21,10.76-19.81-.48-.28-.97-.56-1.45-.83-3.8,4.48-7.59,8.95-11.39,13.43-.34-.25-.67-.51-1.01-.76,3.62-5.9,7.23-11.8,10.85-17.7-.45-.29-.89-.57-1.34-.86-7.69,10.58-15.38,21.16-23.07,31.74-.27-.2-.54-.41-.81-.61,2.32-4.52,4.64-9.05,6.96-13.57l-1.4-.77c-3.39,4.5-6.79,8.99-10.18,13.49-.4-.26-.8-.51-1.2-.77,4-7.66,8-15.32,12-22.98-.25-.14-.49-.29-.74-.43-5.55,6.94-11.1,13.89-16.65,20.83-.31-.13-.62-.27-.93-.4,2.19-4.53,4.39-9.06,6.58-13.6-.34-.17-.68-.34-1.02-.51-3.96,5.5-7.92,11.01-11.89,16.51-.34-.18-.68-.36-1.02-.53,2.02-4.65,4.05-9.31,6.07-13.96-.38-.18-.77-.36-1.15-.55-5.79,9.78-11.57,19.57-17.36,29.35,4.52-10.61,9.05-21.22,13.57-31.83-3.8,4.91-6.91,10.19-9.86,15.55-3.33,6.06-8.5,11.94-9.32,18.36-1.27,9.88.16,20.17,1.06,30.23.85,9.58,5.81,17.1,13.01,23.46,3.39,2.99,5.94,6.94,8.39,9.89,1.83-.2,4.62-1.43,6.02-.52,9.05,5.87,20.91,7.97,26.22,18.99ZM1081.83,426.42c.1.27.2.54.3.82,11-3.23,21.99-6.45,32.99-9.68.14.5.28.99.42,1.49-10.21,3.39-20.42,6.78-30.63,10.16,12.76-1.49,25.22-3.88,37.64-6.47,7.76-1.62,15.46-3.56,23.19-5.36.07.37.15.74.22,1.11-14.9,4.39-29.8,8.77-44.7,13.16.09.25.17.5.26.75,22.96-5.24,45.91-10.48,68.87-15.72l-.03-.65h-11.48c2.74-1.21,4.68-2.06,6.63-2.92-.13-.34-.25-.67-.38-1.01-5.35.7-10.7,1.4-14.17,1.86,11.57-4.06,24.84-8.71,38.11-13.37-17.49-4.16-110.82,7.9-109.95,12.19,1.42.38,2.85.77,4.67,1.26-4.33,1.55-8.03,2.89-11.23,4.04,5.22,1.7,10.19,3.32,15.71,5.13-2.65,1.33-4.54,2.27-6.43,3.22ZM1008.56,554.89l-1.35.18c.72,5.68,1.45,11.36,2.17,17.04-.38.15-.76.31-1.13.46-1.43-2.74-2.86-5.47-5.01-9.61v13.43c-1.23-1.73-1.76-2.5-2.32-3.24-.55-.72-1.14-1.41-2.16-2.67.22,9.92,2.12,12.09,7.55,9.84,10.91-4.54,17.52-13.25,20.17-24.02,2.83-11.46,9.49-19.53,18.08-26.58,11.4-9.36,20.31-20.31,24.44-36.28-3.49,3.05-5.96,5.21-7.68,6.71-.61-.77-1.51-1.9-3.63-4.56-.3,6.22-.46,9.63-.63,13.03-.32.04-.64.08-.97.13-.98-3.51-1.96-7.03-2.94-10.54-.29.09-.59.18-.88.27v14.83l-.89.32c-1.29-3.09-2.58-6.18-3.87-9.26-.29.08-.58.15-.87.23.42,4.54.85,9.07,1.27,13.61-.45.06-.89.13-1.34.19-1.02-1.8-2.05-3.6-4.25-7.48v11.83c-.35.01-.69.03-1.04.04-.8-2.63-1.6-5.26-2.39-7.88-.43.1-.85.19-1.28.29.41,4.63.82,9.27,1.23,13.9-.54.12-1.08.24-1.62.36-.9-2.89-1.8-5.79-2.71-8.68-.43.09-.85.19-1.28.28v12.99c-.38.04-.76.08-1.14.13-.84-3.04-1.68-6.08-2.51-9.12-.44.1-.88.21-1.33.31.34,4.98.67,9.95,1.01,14.93-.48.04-.97.09-1.45.13-.75-1.24-1.49-2.49-3.07-5.11v12.82c-.34.09-.69.18-1.03.27-.86-2.02-1.73-4.03-2.59-6.05-.32.09-.64.17-.96.26v9.4c-1.14-1.4-1.79-2.19-3.77-4.62.73,5.98,1.22,10.06,1.72,14.14l-.84.25c-1.6-4.6-3.2-9.2-4.81-13.79l-1.04.26c.93,5.84,1.85,11.67,2.78,17.51-.42.07-.85.14-1.27.21-1.45-3.69-2.91-7.38-4.36-11.06ZM1071.51,455.18c-.3,2.95-.65,4.78-.65,6.61,0,6.86-5.17,16.51-8.86,15.16-3.65-1.34-4.69.36-4.13,1.91.58,1.6,3.7,3.3,5.56,3.14,2.26-.19,4.76-1.88,6.45-3.61,4.79-4.92,5.63-14.94,1.63-23.22ZM1176.54,416.77c4.49,4.7,13.14-.65,18.8-15.22-6.15,4.98-12.3,9.96-18.8,15.22Z"/><path class="cls-3" d="M1156.68,510.96c1.22,2.87,2.44,5.75,4.16,9.79,2.57-6.39,4.8-11.95,7.81-19.43v12.12c.41.37.81.74,1.22,1.11,3.96-5.88,7.91-11.77,11.91-17.7.1,1.41.23,3.23.41,5.74,1.82-.11,3.69-.22,7.15-.43-3.05,2.39-4.93,3.87-7.23,5.68,1.35,1.1,2.59,2.11,3.74,3.04-5.31,1.36-10.86,2.78-16.42,4.21.16.72.31,1.45.47,2.17,1.49.7,2.99,1.4,4.99,2.33-4.64,1.59-8.58,2.95-13.91,4.78,3.69,1.36,6.06,2.23,8.43,3.1-.04.42-.08.83-.12,1.25h-13.88c2.42,2.82,4.2,4.89,6.2,7.22-4.14-.54-8.01-1.05-11.87-1.56-.1.79-.2,1.59-.29,2.38,2.17,1.87,4.34,3.74,6.77,5.84-5.46,2.34-11.11-6.89-16.07,2,3.58,1.1,6.6,2.02,11.1,3.4-3.81.85-6.25,1.6-8.74,1.9-2.53.3-5.31-.41-7.62.38-2.42.83-4.42,2.91-7.25,4.9,3.29,1.3,5.55,2.19,9.75,3.85-5.4,1.35-9,2.24-13.6,3.39,2.82,1.47,4.63,2.42,7.47,3.9-7.99,2.19-17.01-1.37-21.32,7.84,2.14,1.27,4.4,2.61,8.29,4.91-5.84.39-9.94.67-13.62.92,2.19,4.3,4.39,8.62,6.6,12.96,1.18-2.26,2.85-5.47,5.42-10.4v8.71q4.89-.54,4.45-13.15c2.35,2.9,4.24,5.22,7.28,8.97.72-5.47,1.17-8.83,1.61-12.18l1.58-.22c.48,2.44.96,4.88,1.45,7.32q3.3-.35,7.66-13.75c2.02,3.16,3.54,5.53,5.64,8.81,1.99-3.43,4.49-7.75,7.7-13.29.19,3.21.32,5.22.41,6.85,10.85,2.81,9.49-8.62,15.06-13.19v7.47c2.1-.66,4.16-1.3,5.98-1.87v8.98c-5.29.64-11.45,1.38-18.72,2.25,2,2.49,3.39,4.2,4.64,5.76-4.9-.45-9.72-.89-14.54-1.33-.17.78-.34,1.55-.51,2.33,2.01,1.69,4.01,3.38,7.62,6.4-6.65-1.62-11.36-2.76-16.07-3.9-.21.74-.43,1.47-.64,2.21,1.5,1.15,3,2.3,5.49,4.21h-16.67c4.12,2.48,6.54,3.94,9.87,5.96-7.52,1.87-15.2-6.25-20.62,3.22,1.98,1.27,4.19,2.69,6.44,4.14q-2.13,2.69-18.75.99c1.09,2.61,2.27,5.42,3.86,9.23-5.59-1.58-9.52-2.68-13.46-3.79-.21.43-.42.85-.63,1.28,2.03,2.37,4.06,4.74,5.22,6.09-3.3,2.14-6.12,3.97-9.61,6.23-1.35-1.65-3.52-4.3-5.83-7.13-2.41,1.08-4.61,2.06-6.47,2.9,1.32,3.47,2.56,6.71,4.38,11.48-6.4-2.61-10.6-4.32-16.57-6.75,1.57,3.44,2.13,4.67,2.66,5.83-4.85,3.1-11.26-5.62-15.21,2.82,2.87.75,5.6,1.46,10.03,2.61-9.12,2.63-16.47,4.76-22.57,6.52.44-4.32,1.08-10.68,1.76-17.36,1.17,1.94,2.6,4.29,4.03,6.65.63-.08,1.26-.17,1.9-.25-1.34-7.05-2.69-14.1-4.03-21.16l.81-.9c1,2,1.99,4,2.99,6,.51-.45,1.01-.9,1.52-1.34.16-2.52.32-5.03.53-8.24,1.55,1.27,2.6,2.13,5.09,4.18-1.91-5.96-3.33-10.39-5.03-15.72,1.57.64,2.64,1.07,4.11,1.67-.12-2.05-.23-4.09-.35-6.13.86-.77,1.73-1.55,2.59-2.32,1.31,2.15,2.63,4.31,3.94,6.46.28-.05.56-.11.83-.16-1.14-3.63-2.29-7.27-3.73-11.83,1.55.74,2.65,1.27,3.7,1.78.61-5.09,1.23-10.34,2-16.82,3.21,2.72,5.06,4.3,6.92,5.87l2.05-.8c-1.44-5.98-2.88-11.97-4.29-17.86.3.11,1.68.63,3.32,1.24-.51-2.39-.95-4.5-1.4-6.61.44-.22.87-.44,1.31-.66,1.85,2.98,3.71,5.96,5.66,9.11.68-3.18,1.27-5.9,2.16-10.05-.91-1.15-3.09-3.87-6.62-8.29,3.35.98,4.73,1.38,6.39,1.87-.32-1.76-.62-3.38-1.02-5.56,2.1,1.14,3.56,1.94,5.03,2.74.44-.29.89-.59,1.33-.88-2.21-3.98-4.42-7.96-6.87-12.37h9.98c-1.12-4.74-2.11-8.97-3.37-14.29,2.11,1.88,3.46,3.08,5.06,4.5.82-2.39,1.52-4.43,2.29-6.67,7.47,6.86-2.48,10.2-2.33,15.49,1.94,1.47,4.03,3.05,5.52,4.18-2.87,3.25-5.55,6.28-8.23,9.31,1.15.38,2.3.75,3.78,1.23-.92,1.47-1.78,2.85-2.93,4.7,2.28-.48,4.12-.86,5.96-1.24l.69,1.17c-3.96,3.07-7.92,6.15-13.18,10.24h8.45c-2.35,2.03-3.78,3.25-5.86,5.04,2.34.19,4.11.33,7.3.59-5.13,2.4-8.99,4.21-12.85,6.02.16.44.31.88.47,1.31h6.56c.16.45.31.89.47,1.34-3.01,1.4-6.02,2.8-9.02,4.2.55.24,1.1.48,1.65.72-.71,1.45-1.42,2.91-2.1,4.31.94.25,2.13.57,3.99,1.06-3.15,2.22-5.82,4.09-9.67,6.8,3.33-.63,5.44-1.02,9.39-1.76-6.35,5.98-11.43,10.77-17.34,16.34,2.9-.5,5.05-.87,7.52-1.3.22,3.39.43,6.55.64,9.71.53.01,1.07.03,1.6.04v-14.79c3.83,2.12,6.72,3.73,10.08,5.59.67-6.29,1.34-12.68,2.01-18.98,3.73,2.69,6.96,5.02,10.19,7.35.38-.26.75-.53,1.13-.79-1.81-4.2-3.61-8.41-6.12-14.23,5.18,2.21,8.65,3.7,12.11,5.18.91-5.05,1.99-11.03,3.07-17.01.7.03,1.4.07,2.09.1.29,2.79.58,5.58.94,8.95,2.29-1.06,4.5-2.09,7.45-3.46-.36-6.81-.75-14.12-1.15-21.75,3.44,3.04,6.74,5.95,10.57,9.33.53-3.82.94-6.73,1.34-9.63.34.01.69.02,1.03.04.2,3.17.41,6.34.61,9.53q5.15-2.53,6.67-18.92c1.96,2.41,3.42,4.22,5.06,6.24,1.49-.76,3.04-1.54,4.92-2.5-1.3-3.08-2.54-6.04-3.79-9,.3-.4.59-.8.89-1.21,2.58,1.8,5.15,3.61,9.49,6.65-.9-4.89-1.51-8.24-2.26-12.29,1.37.78,2.44,1.39,4.31,2.46.3-1.87.58-3.64.93-5.88,1.28.65,2.43,1.23,4.13,2.09-.15-3.06-.28-5.72-.41-8.38.51-.21,1.01-.41,1.52-.62Z"/><path class="cls-3" d="M1005.1,540.88c-13.12,15.39-30.63,25.01-47.42,35.4-7.23,4.48-15.7,7.18-23.89,9.78-3.36,1.07-7.54.07-11.24-.58-19.78-3.47-37.77-10.54-50.08-27.44-2.54-3.48-3.76-8.21-4.62-12.56-1.29-6.48-2.09-13.12-2.36-19.73-.11-2.64,1.75-5.35,2.71-8.03v15.33c3.02-3.41,5.06-5.73,7.11-8.04l.76.34c-2.41,5.03-4.81,10.07-7.22,15.1.45.25.91.51,1.36.76,4.02-6.15,8.03-12.31,12.05-18.46.38.2.77.4,1.15.6-3.73,7.83-7.46,15.65-11.2,23.48.42.26.84.51,1.26.77,3.93-6.1,7.85-12.21,11.78-18.31.34.19.69.37,1.03.56-3.99,8.01-7.98,16.01-11.97,24.02.3.17.61.34.91.52,4.86-7.81,9.71-15.63,14.57-23.44l1.26.65c-4.52,8.94-9.05,17.89-13.57,26.83.48.31.96.61,1.44.92,4.9-7.82,9.79-15.63,14.69-23.45l.91.47c-4.28,8.96-8.57,17.92-12.85,26.88.5.28,1,.56,1.51.84,1.93-2.46,3.86-4.93,7.14-9.11-1.52,4.98-2.42,7.94-3.33,10.9.36.17.72.33,1.08.5,2.61-4.22,5.22-8.43,7.83-12.65.48.22.95.45,1.43.67-2.36,5.12-4.71,10.24-7.07,15.36l1.55.93c4.54-7.33,9.09-14.66,13.63-22,.47.22.94.44,1.41.65-2.64,5.61-5.28,11.21-7.92,16.82.27.14.54.28.81.42,4.41-6.99,8.83-13.98,13.24-20.96.54.32,1.08.63,1.62.95-4.96,9.18-9.92,18.36-14.88,27.53.47.25.95.5,1.42.76,6.59-9.72,13.17-19.44,19.76-29.17.44.26.88.52,1.32.78-5.75,10.14-11.49,20.28-17.24,30.42.53.31,1.06.63,1.59.94,6.89-11.22,13.79-22.44,20.68-33.66.47.26.95.52,1.42.78-3.89,8.09-7.78,16.18-11.67,24.27.44.25.88.5,1.33.75,2.96-4.75,5.93-9.49,8.89-14.24.37.18.74.35,1.11.53-3.65,7.88-7.31,15.75-10.96,23.63.44.24.89.48,1.33.73,3.88-6.47,7.76-12.93,11.64-19.4.41.2.82.4,1.23.6-2.87,6.56-5.74,13.11-8.61,19.67.44.2.88.4,1.32.61,1.87-3.22,3.74-6.44,6.72-11.57-.6,4.14-.9,6.2-1.47,10.12,4.91-8.06,8.84-14.5,12.77-20.94.42.19.84.38,1.26.57-2.51,5.66-5.03,11.32-7.54,16.98.34.18.69.36,1.03.54,2.23-3.2,4.46-6.41,6.69-9.61.27.14.54.28.81.42-1.36,3.11-2.73,6.21-4.09,9.32.43.28.86.56,1.29.83,5.32-8.4,10.64-16.81,15.96-25.21.37.2.74.4,1.11.6-3.46,7.16-6.92,14.31-10.37,21.47l1.92,1.19c5.56-9.25,11.12-18.5,16.68-27.75.41.16.81.31,1.22.47-2.73,6.39-5.47,12.79-8.2,19.18.48.27.96.54,1.44.82,2.48-4.2,4.96-8.41,7.44-12.61.29.12.57.24.86.36-.85,2.54-1.69,5.08-2.54,7.62.36.28.73.57,1.09.85,4.7-7.14,9.4-14.28,14.1-21.41.4.19.8.38,1.2.56-2.28,4.99-4.55,9.97-6.83,14.96.36.21.71.43,1.07.64,4.07-5.86,8.14-11.72,12.22-17.57.38.16.76.32,1.14.48-1.01,2.47-2.02,4.94-3.03,7.42.37.29.73.58,1.1.88,3.73-4.45,7.45-8.89,10.94-13.05,1.84.85,3.35,1.55,4.87,2.25Z"/><path class="cls-3" d="M952.93,476.07c-6.81,8.38-13.63,16.75-20.44,25.13-.35-.21-.69-.42-1.04-.64,5.02-8.22,10.04-16.44,15.06-24.66-.38-.24-.76-.48-1.14-.72-7.41,10.04-14.82,20.08-22.23,30.12-.51-.35-1.02-.71-1.54-1.06,7.25-11.18,14.51-22.37,22.33-34.42,3.06,2.28,5.9,4.4,8.74,6.52,0,0,.26-.27.26-.27Z"/><path class="cls-3" d="M962.3,493.13c-5.02,5.49-10.04,10.97-15.05,16.46-.28-.15-.57-.3-.85-.45,3.66-6.05,7.32-12.1,10.98-18.15-.36-.22-.72-.45-1.08-.67-2.87,3.42-5.74,6.83-8.61,10.25l-.77-.42c3.07-5.97,6.13-11.95,9.2-17.92l-.27.28c1.49-1.12,2.99-2.25,5.2-3.91,2.01,2.97,3.81,5.64,5.62,8.31-1.45,2.08-2.9,4.15-4.35,6.23Z"/><path class="cls-3" d="M962.3,493.13c1.45-2.08,2.9-4.15,4.35-6.23,1.44.13,2.88.25,5.93.52-6.37,7.85-11.98,14.76-17.6,21.67-.29-.15-.57-.31-.86-.46,2.72-5.17,5.45-10.33,8.17-15.5Z"/><path class="cls-3" d="M956.1,482.23c-4.82,5.42-9.64,10.83-14.46,16.25-.21-.12-.43-.24-.64-.36,3.97-7.34,7.95-14.69,11.93-22.04,0,0-.26.27-.25.26,9.14-2.06,2.92,3.7,3.15,6.17,0,0,.28-.28.28-.28Z"/><path class="cls-3" d="M918.64,599.22c.16-.98.33-1.96.48-2.84,11.63-.29,13.51,9.65,18.64,17.22-8.89,1.14-13.52-2.52-15.82-10.09-.51-1.69-2.31-3-3.52-4.49,0,0,.22.21.22.21Z"/><path class="cls-3" d="M1051.05,408.6c4.36.37,8.72.75,13.08,1.12.02.57.04,1.15.05,1.72-4.35.66-8.71,1.33-13.06,1.99-3.37.31-6.73.62-12.18,1.11,5.19-2.55,8.65-4.25,12.11-5.95Z"/></g><g class="cls-4"><path class="cls-3" d="M1828.3,257.21c7.18-8.65,17.85-7.39,28.77-4.37,5.74,1.59,11.56,3.11,17.06,5.34,7.41,3,12.55,8.56,15.52,16.05,1.96,4.93,4.08,9.8,5.9,14.78,3.08,8.41.65,16.51-2.29,24.28-2.04,5.39-5.58,10.2-7.95,15.49-1.57,3.5-2.2,7.42-3.38,11.12-1.26,3.99-2.2,8.17-4.12,11.84-2.45,4.69-5.91,8.85-8.62,13.41-3.76,6.32-8.86,10.97-15.27,14.61-5.42,3.08-9.99,7.73-15.51,10.55-8.52,4.35-17.53,7.7-26.32,11.52-5.28,2.29-10.32,5.73-15.82,6.76-13.73,2.58-27.18,8.08-41.63,5.12-1.52-.31-3.56-.01-4.84.81-5.18,3.32-10.71,2.63-16.39,2.38-6.94-.31-14.22,1.39-20.8-.16-11.63-2.75-22.79-7.4-34.23-11.04-5.19-1.65-10.49-3.37-15.85-3.97-9.71-1.09-19.5-1.51-29.26-1.94-8.21-.36-11.23-2.76-12.78-10.78-1.63-8.44-3.43-16.84-4.98-25.29-.32-1.73-.36-3.83.34-5.36,3.94-8.56,7.22-17.6,15.53-23.31,1.2-.82,2.3-2.44,2.56-3.86,1.94-10.43,6.52-19.49,14.94-25.91,11.57-8.82,23.38-17.38,35.58-25.31,8.37-5.44,17.69-9.39,26.33-14.44,6.99-4.08,13.83-8.51,20.34-13.32,10.57-7.81,22.18-10.66,35.07-8.65,1.13.18,2.44.41,3.29,1.09,7.69,6.12,16.75,3.42,25.28,3.99,9.06.6,18.31-.02,26.39,5.49,1.89,1.29,4.25,1.87,7.18,3.11ZM1791.89,253.89c-.75-.02-1.69.24-2.23-.11-4.12-2.62-8.12-3.21-12.53-.44-2.95,1.85-6.27,3.12-10.53,5.19,2.28-2.68,3.88-4.36,5.22-6.21,1.46-2.01,1.27-4.22-1.4-4.56-6.65-.84-13.66-2.68-19.96-1.36-6.9,1.44-13.33,5.65-19.64,9.22-6.19,3.5-11.52,8.9-18.03,11.37-12.1,4.61-22.1,12.32-32.64,19.3-5.97,3.95-11.53,8.58-17.72,12.14-9.2,5.28-17.48,11.25-21.47,21.55-1.69,4.36-2.92,8.9-4.59,13.26-.5,1.31-1.57,2.66-2.75,3.43-7.88,5.1-11.41,13.16-14.72,21.35-.65,1.6-.87,3.6-.59,5.3,1.33,8.16,2.89,16.28,4.4,24.4,1.43,7.71,3.8,9.53,11.77,9.73,7.28.18,14.56.66,21.84.96.84.03,1.7-.26,2.57-.41-3.87-5.05-7.44-9.82-11.12-14.49-5-6.34-10.05-12.64-15.17-18.88-1.73-2.11-3.57-4.01-1.57-7.49,1.94,3.06,3.5,5.53,5.2,8.21.53-2.15.97-3.95,1.78-7.26,3.78,8.09,6.9,14.75,10.05,21.5.41-2.75.71-4.85,1.02-6.95.41.05.83.1,1.24.15,3.1,6.31,6.19,12.61,9.29,18.92-.78-4.35-2.87-8.16-4-12.23-2.75-9.83-2.57-9.88-1.29-10.94,5.42,9.95,10.88,20.13,16.53,30.2.77,1.38,2.49,2.22,3.78,3.3.29-.35.59-.7.88-1.05-1.46-1.69-3.35-3.16-4.32-5.09-4.67-9.32-9.19-18.71-13.48-28.2-.62-1.37.26-3.42.44-5.15,1.92.92,2.49,1.72,2.96,2.59,6.31,11.75,8.88,25.43,18.3,35.6,1.16,1.26,1.72,3.68,3.03,4.11,10.66,3.47,21.3,7.25,32.24,9.57,5.99,1.27,12.56-.45,18.84-.2,5.52.22,10.89.98,15.83-2.53,1.23-.87,3.32-1.24,4.82-.92,15.19,3.26,29.1-3.61,43.64-5.34,1.6-.19,3.21-.89,4.65-1.66,9.45-5.02,19.15-9.4,28.94-13.73,11.37-5.03,21.63-13.36,31.07-21.72,6.05-5.36,9.79-13.34,14.45-20.22.81-1.2,1.58-2.83,1.46-4.19-1.02-11.3,5.56-19.34,11.22-28,5.01-7.67,6.12-16.32,3.22-25.25-.74-2.29-2.01-3.24-4.34-2.07-.31-.26-.62-.52-.92-.77-1.16-5.62-5.2-9.15-9.43-12.31-8.17-6.1-16.57-11.91-24.87-17.83.3-.52.61-1.04.91-1.56,7.65,4.32,15.29,8.63,22.94,12.95l.32-.54c-.75-.84-1.5-1.67-2.99-3.35,3.49,1.67,5.82,2.79,8.15,3.92-.32,1.55-.64,3.09-1.04,5,1.8,1.78,4.03,4,6.27,6.21.41-.31.82-.62,1.23-.92-2.19-3.38-4.37-6.76-6.56-10.14-1.12-1.2-2.14-2.52-3.38-3.59-6.68-5.76-15.02-7.48-23.25-9.58-11.13-2.85-21.52-3.25-29.3,7.85-1.65-2.13-2.68-4.39-4.43-5.55-9.18-6.09-19.77-5.74-30.17-6.05-.03,0-.09,1.12-.14,1.72l.12-.16Z"/><path class="cls-3" d="M1888.6,298.43c-1.53-2.98-2.54-6.42-4.68-8.88-9.25-10.58-20.43-18.87-32.31-26.26-2.9-1.8-5.61-3.91-8.41-5.88.28-.45.55-.91.83-1.36,9.31,5.73,18.92,11.05,27.83,17.35,5.75,4.07,10.48,9.58,15.66,14.44.31.26.62.52.92.77,1.18,2.24,2.6,4.4,3.5,6.75,1.47,3.85-.43,4.18-3.47,2.93l.13.14Z"/><path class="cls-3" d="M1824.84,383.2c-2.99-3.51-5.75-7.26-9.05-10.45-3.44-3.32-7.41-6.08-11.43-9.32-3.22,5.03-6.44,10.06-9.64,15.06-5.22-2.75-49.75-57.21-49.89-62.15,16.47,18.87,32.27,36.97,48.07,55.07.44-.34.88-.68,1.32-1.02-.92-1.44-1.68-3-2.77-4.29-11.54-13.49-23.11-26.96-34.72-40.39-1.74-2.01-3.89-3.69-5.44-5.83-1.07-1.48-1.44-3.48-2.12-5.25.59-.33,1.17-.65,1.76-.98,14.99,17.33,29.98,34.65,44.97,51.98.49-.43.98-.85,1.48-1.28-4.9-5.64-9.92-11.2-14.68-16.96-4.97-6.02-9.95-12.05-14.43-18.42-4.21-5.99-11.38-9.76-13.16-17.59,17.33,14.62,29.77,33.67,46.23,49.2-1.02-1.61-1.85-3.39-3.08-4.82-11.92-13.83-23.94-27.57-35.82-41.45-1.3-1.51-1.83-3.68-2.72-5.54.61-.38,1.22-.77,1.82-1.15,6.41,7.57,12.71,15.24,19.27,22.67,6.85,7.76,13.96,15.29,20.97,22.93.01.01-.08-.12-.08-.12,5.43,5.65,10.75,11.4,16.32,16.92,3.94,3.9,8.2,7.47,13.19,11.97l-6.44,1.08.08.11Z"/><path class="cls-3" d="M1758.39,401.32c-3.64-3.46-7.23-6.99-10.94-10.38-12.42-11.32-21.04-25.5-29.74-39.6-1.91-3.09-3.52-6.37-5.09-9.66-.88-1.86-1.39-3.89-1.21-6.21,7.49,11.49,14.61,23.24,22.57,34.4,8.04,11.27,17.82,21,30,28.13-8.83-9.4-18.31-18.3-26.31-28.36-7.97-10.02-15.74-20.46-20.42-32.6.39-.25.78-.51,1.16-.76,6.54,9.61,12.57,19.63,19.75,28.73,7.35,9.31,15.82,17.73,23.8,26.55.4-.35.79-.71,1.19-1.06-7.39-9.23-15.25-18.13-22.03-27.79-6.69-9.52-14.83-18.3-18.48-29.71,17.33,20.74,29.79,45.41,53.49,61.64-6.04,4.07-11.23,7.09-17.78,6.68h.01Z"/><path class="cls-3" d="M1881.23,318.08c1.72,5.49-3.64,5.86-6.17,8-1.46,1.24-4.1,1.1-5.07,1.32-10.95-10.95-21.61-21.59-32.26-32.24.46-.45.91-.89,1.37-1.34,13.13,7.74,22.79,19.4,33.51,29.94-7.74-16.23-23.7-24.64-35.98-36.55,10.75,3.68,30.66,20.74,40.29,32.79-.79-1.65-1.39-3.43-2.41-4.93-9.25-13.64-22.24-23.22-35.43-32.59-1.86-1.32-3.45-3.02-5.17-4.54.3-.39.6-.78.9-1.16,1.03.62,2.16,1.13,3.08,1.88,11.44,9.37,23,18.59,34.17,28.26,3.65,3.16,6.27,7.5,9.37,11.3l-.21-.15Z"/><path class="cls-3" d="M1758.38,401.33c-4.84,1.06-9.84,3.36-14.49,2.78-3.61-.44-7.28-4-10.04-6.99-6.62-7.16-12.97-14.61-18.9-22.35-1.88-2.46-2.06-6.22-2.24-9.77,9.86,15.45,20.19,30.04,38.28,38.39-8.93-9.03-17.9-16.74-25.16-25.81-7.14-8.92-12.53-19.24-16.74-29.91.6-.33,1.2-.65,1.81-.98.97,1.73,1.9,3.48,2.9,5.19,10.81,18.44,22.17,36.41,41.02,47.98,1.08.66,2.36.99,3.56,1.48,0,0,0,0,0,0Z"/><path class="cls-3" d="M1814.82,315.39c1.81,1.19,3.88,2.12,5.38,3.62,10.33,10.3,20.52,20.74,30.83,31.08,1.45,1.45,2,4.96,5.6,2.68-.97-2.28-1.98-4.63-2.98-6.98.34-.23.68-.47,1.01-.7,1.48.87,2.95,1.74,5.09,3.01-2.3-4.32-4.29-8.05-6.28-11.79l1.47-1.11c2.08,1.88,4.15,3.77,6.23,5.65.33-.25.65-.5.98-.75-2.8-3.83-5.6-7.66-8.84-12.1,7.16,1.27,10.13,6.56,12.93,11.22,1.13,1.87-.22,5.99-1.6,8.44-2.35,4.17-5.57,7.86-8.56,11.66-.3.38-1.49.06-2.26.06l.12.11c-1.91-2.39-3.61-5.01-5.78-7.13-4.51-4.41-9.61-8.25-13.86-12.87-6.92-7.53-13.36-15.51-20.01-23.3.16-.28.34-.54.54-.78Z"/><path class="cls-3" d="M1853.81,359.37c-2.13,2.75-4.27,5.51-6.41,8.27-6.81-6.15-13.44-12.03-19.93-18.05-4.25-3.94-8.31-8.1-12.44-12.18-2.06-2.04-4.76-3.88-2.8-7.33,11.54,10.82,23,21.57,34.46,32.32.42-.44.84-.89,1.27-1.33-3.01-2.85-6.16-5.57-9.01-8.57-7.75-8.16-15.45-16.36-22.96-24.73-1.44-1.61-1.93-4.07-2.85-6.14l-.15.21c2.07,1.45,4.64,2.5,6.12,4.41,9.97,12.82,21.25,24.21,34.82,33.23,0,0-.12-.11-.12-.11Z"/><path class="cls-3" d="M1807.43,354.09c3.43,2.32,7.07,4.37,10.23,7.01,5.11,4.28,9.89,8.94,14.81,13.44l1.57-1.72c-4.65-4.25-9.36-8.42-13.92-12.76-3.72-3.53-7.36-7.15-10.79-10.96-.89-.99-.87-2.79-1.26-4.22.43-.25.85-.49,1.28-.74,10.22,9.47,20.45,18.94,31.07,28.78-2.6,2.89-4.96,5.53-7.58,8.45-2.71-2.65-5.26-5.21-7.9-7.69-4.47-4.21-9.18-8.18-13.4-12.62-1.82-1.91-2.67-4.76-3.96-7.17,0,0-.14.19-.14.19Z"/><path class="cls-3" d="M1831.74,319.18c2.05,3.37,3.49,8.85,6.28,9.66,5.89,1.72,7.48,7.07,11.5,10.17,1.71,1.32,2.44,3.93,2.84,6.57-7.49-5.95-14.72-11.84-20.69-19.4-5.94-7.52-13.4-13.82-19.82-20.99-6.15-6.87-12.09-13.95-18.53-20.63l1.92-1.48c12.22,12.08,24.43,24.15,36.65,36.23l-.15-.12Z"/><path class="cls-3" d="M1785.73,379.59c-1.25-1.69-2.42-3.45-3.77-5.05-6.16-7.33-12.4-14.6-18.55-21.94-4.68-5.58-9.35-11.18-13.9-16.87-2.36-2.95-4.46-6.11-6.68-9.18.59-.45,1.19-.91,1.78-1.36,15.74,18.44,31.48,36.88,47.64,55.8-1.23,1.44-3.11,3.64-5.46,6.39-1.19-1.39-2.16-2.52-3.42-3.99,1.76-1.11,3.05-1.92,5.01-3.15-1.33-.35-1.99-.52-2.65-.69v.04Z"/><path class="cls-3" d="M1803.96,346.47c1.15,2.54,2.31,5.08,3.47,7.61,0,0,.14-.19.14-.19-2.21,1.84-4.14,1.38-5.86-.76,0-.01.09.12.08.11-3.74-5.2-7.27-10.54-11.24-15.54-5.46-6.88-11.19-13.55-16.93-20.2-3.35-3.88-6.99-7.52-10.4-11.35-1.15-1.3-1.99-2.88-2.96-4.32.47-.38.93-.75,1.4-1.13,6.53,6.66,13.28,13.13,19.54,20.04,7.22,7.98,14,16.36,21.01,24.54.5.58,1.3.9,1.96,1.34l-.21-.15Z"/><path class="cls-3" d="M1785.72,379.54c-2.39,2.3-4.83,2.86-7.18,0-12.92-15.72-25.86-31.44-38.68-47.24-1.21-1.49-1.69-3.57-2.5-5.38.41-.26.82-.52,1.23-.78,3.89,4.31,8.32,8.26,11.58,13.01,8.94,13.01,18.65,25.32,30,36.3,1.64,1.59,3.7,2.76,5.56,4.12,0,0,0-.04,0-.04Z"/><path class="cls-3" d="M1833.85,262.8c18.7,10.64,36.69,22.14,50.02,39.44,2.26,2.93,5.49,5.96,2.53,11.62-11.71-23.69-34.59-34.78-52.55-51.06Z"/><path class="cls-3" d="M1775.46,255.97c23.65,8.99,40.55,25.51,52.61,47.42-.34.42-.67.84-1.01,1.26-1.19-.99-2.66-1.79-3.52-3.02-6.53-9.38-12.38-19.37-21.86-26.21-8.08-5.83-16.44-11.28-24.71-16.83-.79-.53-1.87-.63-2.82-.93.44-.56.88-1.12,1.32-1.69Z"/><path class="cls-3" d="M1888.47,298.28c.76,2.25,1.62,4.48,2.21,6.77.11.43-.8,1.51-1.35,1.61-.56.09-1.64-.52-1.86-1.07-5.26-13.15-16.26-21.02-27.07-28.85-8.07-5.85-16.73-10.87-24.53-17.1,10.52,1.28,42.69,25.81,52.71,38.78,0,.01-.12-.13-.12-.13Z"/><path class="cls-3" d="M1663.55,357.24c10.14,15.2,13.88,34.11,27.91,47.05-.35.45-.69.9-1.04,1.35-2.04-1.24-4.69-2.02-5.99-3.8-3.87-5.3-7.52-10.81-10.69-16.56-3.99-7.24-7.51-14.75-10.99-22.25-.75-1.62-.46-3.73-.65-5.61.48-.06.97-.12,1.45-.18Z"/><path class="cls-3" d="M1731.95,334.6c11.22,14.06,21.83,27.36,32.47,40.64,1.35,1.68,3.07,3.08,4.24,4.87.83,1.27,1.01,2.96.89,4.71-15.54-13.1-25.26-30.69-37.62-46.13-.59-.74-.02-2.42.02-4.09Z"/><path class="cls-3" d="M1881.44,318.23c-3.44-12.42-12.86-20.25-22.09-28.01-7.62-6.4-15.87-12.06-23.77-18.15-1.64-1.26-2.94-2.96-4.18-4.65,13.8,6.89,38.53,26.64,47.35,37.73,2.15,2.7,3.88,5.79,5.4,8.9,1.3,2.64,1.14,4.91-2.91,4.03,0,0,.2.15.2.15Z"/><path class="cls-3" d="M1804.16,346.62c-6.78-8.88-13.35-17.94-20.42-26.59-4.59-5.61-9.96-10.58-14.87-15.94-1.05-1.15-1.63-2.74-1.5-4.82.5.31,1.1.53,1.49.94,12.29,13.17,24.63,26.28,36.76,39.58,3.08,3.38,2.37,5.27-1.67,6.67,0,0,.21.15.21.15Z"/><path class="cls-3" d="M1636.37,387.2c.67,2.34,1.33,4.67,2,7.01q-9.5.11-12.54-8.5c-.61-1.72-1.09-3.48-1.68-5.2-.53-1.55-1.14-3.08-.92-5.1,2.06,3.56,4.13,7.12,6.19,10.69.52-.27,1.03-.53,1.55-.8-3.42-7.34-6.83-14.68-10.28-22.08,5.76,2.47,7.53,8.02,9.95,13.17,1.29,2.75,3.2,5.22,4.83,7.81.3,1,.6,1.99.9,2.99Z"/><path class="cls-3" d="M1780.8,254.02c20.02,5.99,46.89,30.17,45.57,40.45-6.59-7.48-12.61-15.78-20.1-22.43-7.61-6.76-16.67-11.91-25.47-18.02Z"/><path class="cls-3" d="M1776.91,381.15c-3.9,1.21-6.03-1.31-8.1-4.28-2.5-3.58-5.09-7.13-7.87-10.5-9.25-11.24-18.62-22.38-27.86-33.62-.53-.64-.36-1.85-.68-3.71,15.19,17.79,29.82,34.91,44.51,52.11Z"/><path class="cls-3" d="M1845.48,369.76c-.48.56-1.08,1.37-1.78,2.06-.33.32-.86.43-.87.43-9.43-8.85-18.77-17.44-27.89-26.28-2.54-2.46-4.41-5.62-6.58-8.47.54-.46,1.07-.91,1.61-1.37,11.65,11.03,23.3,22.06,35.51,33.61Z"/><path class="cls-3" d="M1831.89,319.31c-4.01-4.73-7.96-9.52-12.06-14.17-6.35-7.2-12.85-14.28-19.16-21.51-.64-.73-.44-2.21-.63-3.33.42-.27.85-.53,1.27-.8,2.73,2.7,6.01,5.03,8.1,8.16,6.4,9.54,12.84,18.87,23.12,24.82,1.42.82,2.53,3.07,2.8,4.82.48,3.01-1.24,3.4-3.59,1.9,0,0,.14.11.14.11Z"/><path class="cls-3" d="M1818.68,385.53c-3.91,3.66-8.19,6.06-13.77,4.08l.18.16c-1.87-2.54-3.84-5.01-5.55-7.66-.74-1.15-.91-2.67-1.34-4.02.44-.13.87-.25,1.31-.38,3.42,2.78,6.83,5.57,10.25,8.35.33-.29.66-.57,1-.86-2.31-4.8-9.37-6.45-8.94-13.33,5.65,4.58,11.31,9.17,16.96,13.75,0,0-.11-.09-.11-.09Z"/><path class="cls-3" d="M1806.46,337.16c-1.04-.89-2.2-1.67-3.09-2.69-10.29-11.86-20.54-23.76-30.24-36.13,12.85,11.37,26.2,22.29,34.83,37.36-.5.49-1,.97-1.5,1.46Z"/><path class="cls-3" d="M1718.3,405.97c-5.37,2.17-6.75-3.13-10.11-5.53-5.58-3.99-8.37-9.61-11.56-15.07-1.03-1.76-.83-4.25-.07-6.31,7.28,9.02,14.56,18.03,21.73,26.92Z"/><path class="cls-3" d="M1713.72,378.59c6.38,11.8,16.27,19.8,28.55,26.34-4.87,1.55-8.16,1.72-11.35-1.83-5.62-6.24-11.78-11.97-17.43-18.18-1.17-1.28-1.08-3.7-1.58-5.59.6-.25,1.21-.49,1.81-.74Z"/><path class="cls-3" d="M1791.77,254.05c4.72,1.98,9.44,3.97,14.15,5.95,1.45.96,2.89,1.92,4.34,2.88,5.02,5.41,10.03,10.82,15.05,16.23l-.21-.16c.93,2.42,1.86,4.84,2.79,7.26-.38.23-.75.46-1.13.69-.77-.42-2.02-.67-2.25-1.29-3.97-10.78-13.28-16.5-21.66-23.11-3.65-2.88-7.32-5.72-10.97-8.59,0,0-.11.15-.11.15Z"/><path class="cls-3" d="M1840.06,302.77c10.21,5.69,17.04,15.11,25.12,23.24-4.15,2.7-5.88.78-8.5-2.63-4.4-5.72-10.06-10.47-15.15-15.67-1.1-1.12-1.97-2.46-2.95-3.69.5-.41.99-.83,1.49-1.24Z"/><path class="cls-3" d="M1701.48,405.37c-6.47,1.26-9.55-3.08-11.89-6.75-4.84-7.59-8.81-15.74-13.02-23.72-.38-.71.05-1.84.19-4.23,8.35,12.51,13.02,25.76,24.72,34.71Z"/><path class="cls-3" d="M1774.38,290.93c11.4,9.02,21.48,19.24,28.43,32.31-9.98-10.41-19.96-20.81-29.95-31.22.51-.36,1.01-.72,1.52-1.08Z"/><path class="cls-3" d="M1709.81,388.66c.91.04,2.18-.29,2.68.19,5.81,5.55,11.5,11.23,16.89,16.55-5.38,1.98-6.14,1.99-12.04-4.53-3.22-3.55-8.71-6.04-7.38-12.4l-.14.19Z"/><path class="cls-3" d="M1824.77,383.09c-1.41,2.36-3.06,4.11-6.08,2.44,0,0,.11.09.11.09-3.12-3.52-6.19-7.08-9.37-10.53-1.45-1.57-3.34-2.77-4.64-4.45-.74-.95-.66-2.53-.95-3.83.4-.16.81-.32,1.21-.48,6.6,5.61,13.19,11.23,19.8,16.85,0,.01-.07-.1-.07-.1Z"/><path class="cls-3" d="M1772.05,259.45c6.76,4.13,13.6,8.15,20.25,12.45,2.33,1.51,4.28,3.66,6.23,5.69.44.46.14,1.64.18,2.48-.85-.17-2.45-.32-2.45-.51-.08-3.17-2.92-2.98-4.67-4.23-6.8-4.81-13.41-9.9-20.09-14.89l.55-1.01Z"/><path class="cls-3" d="M1810.27,262.88c-1.45-.96-2.89-1.92-4.34-2.88-.75-1.23-1.5-2.46-2.24-3.69.16-.32.33-.63.49-.95,2.79,1.74,5.94,3.09,8.29,5.29,5,4.68,9.66,9.75,14.32,14.78,2.01,2.17,2.15,3.91-1.68,3.52l.21.16c-2.55-7.7-8.57-12.18-15.05-16.23Z"/><path class="cls-3" d="M1693.16,387.16c5.64,6.24,10.93,12.09,16.62,18.38-9.05-.73-18.57-11.41-16.62-18.38Z"/><path class="cls-3" d="M1814.82,315.39c-.21.24-.39.5-.54.78-3.81-3.78-7.63-7.55-11.42-11.34-1.64-1.64-3.44-3.18-4.77-5.05-1.06-1.49-1.51-3.42-1.17-5.65,5.25,5.5,10.57,10.93,15.68,16.55,1.12,1.23,1.5,3.12,2.22,4.71Z"/><path class="cls-3" d="M1774.17,382.84c2.19.13,3.59-.2,4.37.35,2.2,1.54,4.14,3.44,6.19,5.2-2.1,1.61-4.77,4.93-6.17,4.46-2.88-.97-5.16-3.89-7.49-6.21-.31-.31.58-1.81,1.01-3.06,2.5,2.01,4.53,3.64,6.55,5.26.25-.24.51-.49.76-.73-1.49-1.5-2.98-3.01-5.23-5.27Z"/><path class="cls-3" d="M1683.05,361.44c-1.98-4.98-4.03-9.94-5.86-14.97-.3-.82.36-1.98.58-2.99.88.46,2.21.7,2.57,1.42,2.08,4.09,4.18,8.22,5.71,12.53.41,1.16-1.13,3.02-1.78,4.55-.41-.18-.82-.37-1.22-.55Z"/><path class="cls-3" d="M1804.92,389.6c-.59,2.34-7.91,6.15-10.1,4.68-1.54-1.03-2.04-3.61-3-5.5.43-.28.85-.56,1.28-.85,1.22.58,2.45,1.16,3.79,1.79-.99-1.95-1.85-3.65-2.72-5.35.38-.22.75-.44,1.13-.66,3.27,2.02,6.54,4.04,9.81,6.06,0,0-.18-.17-.18-.17Z"/><path class="cls-3" d="M1673.85,372.14c-1.52-6.91-6.57-12.68-7.29-19.85.57-.29,1.15-.57,1.72-.86.98,1.32,2.19,2.53,2.9,3.98,1.81,3.71,3.68,7.44,4.96,11.35.53,1.61-.38,3.69-.64,5.56-.55-.06-1.1-.12-1.65-.18Z"/><path class="cls-3" d="M1690.66,387.68c-3.56-6.61-9.64-12.1-9.26-20.34,3.75,6.52,10.75,11.56,9.26,20.34Z"/><path class="cls-3" d="M1813.13,321.63c-1.94-1.32-4.1-2.41-5.79-4-3.36-3.18-6.56-6.55-9.61-10.03-1.07-1.22-1.51-2.99-1.69-4.86,6.68,5.54,13.81,10.56,16.95,19.1,0,0,.15-.21.15-.21Z"/><path class="cls-3" d="M1691.57,357.92c-1.18-.73-3.09-1.24-3.41-2.24-1.56-4.91-2.69-9.96-3.94-14.84,5.13-.29,10.26,10.83,7.24,17.25l.11-.16Z"/><path class="cls-3" d="M1838.05,318.8c6.13,4.52,12.72,8.7,13.58,18.77-5.32-6.74-11.32-11.36-13.58-18.77Z"/><path class="cls-3" d="M1678.04,367.97c-2.47-7.15-4.69-13.56-6.91-19.97.45-.14.89-.28,1.34-.42,5.83,6.26,8.94,15.94,5.57,20.38Z"/><path class="cls-3" d="M1709.95,388.47c-1.97,1.33-3.39,1.3-4.57-1.19-1.61-3.42-3.81-6.57-5.31-10.03-.66-1.52-.21-3.51-.26-5.29.7-.14,1.4-.28,2.09-.42,2.63,5.71,5.26,11.41,7.9,17.12,0,0,.15-.19.15-.19Z"/><path class="cls-3" d="M1693.44,379.74c-4.7-5.53-8.05-15.66-5.87-17.73,5.37,5.31,8.31,14.19,5.87,17.73Z"/><path class="cls-3" d="M1638.08,352.48c7.59,5.56,12.19,16.32,8.69,19.3-2.8-6.22-5.59-12.41-8.69-19.3Z"/><path class="cls-3" d="M1705.45,364.83c2.28,5.15,6.86,9.09,5.33,15.43-4.85-1.8-8.38-11.3-5.33-15.43Z"/><path class="cls-3" d="M1691.46,358.08c2-.52,3.6-.65,4.28,2.06.59,2.37,2.06,4.52,2.66,6.89.45,1.77.14,3.73.16,5.61l-2.2.3c-1.6-5-3.2-10.01-4.79-15.02,0,0-.11.16-.11.16Z"/><path class="cls-3" d="M1826.29,270.27c-2.53-2.6-5-5.26-7.6-7.78-2.81-2.72-5.74-5.3-7.55-6.96,4.24-.03,14.94,8.28,15.15,14.74Z"/><path class="cls-3" d="M1793.31,303.58c-3.59-3.32-7.28-6.55-10.67-10.06-.63-.65-.06-2.46.58-3.95,2.82,5.22,11.02,6.07,10.1,14.01Z"/><path class="cls-3" d="M1651.29,367.18c-2.65-5.92-5.03-11.23-7.41-16.55,7.58,4.79,10.63,12.18,7.41,16.55Z"/><path class="cls-3" d="M1695.46,352.22c-2.93-5.24-5.41-9.68-8.13-14.53,3.29.26,9.53,6.71,9.99,10.08.18,1.3-1.12,2.8-1.86,4.45Z"/><path class="cls-3" d="M1659.96,335.92c2.28,3.35,4.68,6.63,6.72,10.12.4.69-.57,2.17-.9,3.29-.87-.48-2.15-.74-2.55-1.48-1.94-3.61-4.97-6.87-4.92-11.23.55-.23,1.1-.47,1.65-.7Z"/><path class="cls-3" d="M1767.75,266.55c6.16-1.17,15.24,5.29,14.79,9.78-5.06-3.34-9.92-6.56-14.79-9.78Z"/><path class="cls-3" d="M1709.39,294.98c4.05,3.85,8.15,7.66,12.11,11.61.47.47.18,1.71.25,2.59-.76,0-1.87.33-2.22-.05-3.87-4.25-7.62-8.61-11.4-12.94.42-.41.84-.81,1.26-1.22Z"/><path class="cls-3" d="M1707.37,315.36c-5.5-5.12-10.99-10.24-16.49-15.35.4-.46.79-.93,1.19-1.39,5.63,4.94,11.26,9.88,16.9,14.83-.53.64-1.06,1.28-1.6,1.92Z"/><path class="cls-3" d="M1636.37,387.2c-.3-1-.6-1.99-.9-2.99.87-.75,1.75-1.51,2.62-2.26,2.19,4.15,4.38,8.3,6.58,12.45-.73.44-1.46.87-2.2,1.31-2.03-2.84-4.07-5.68-6.1-8.51Z"/><path class="cls-3" d="M1700.91,293.69c5.83,5.62,11.67,11.23,17.96,17.29-3.64.58-11.2-6.53-17.96-17.29Z"/><path class="cls-3" d="M1699.14,347.14c-2.42-4.94-4.51-9.21-7.16-14.6,7.8,3.75,9.89,8.16,7.16,14.6Z"/><path class="cls-3" d="M1712.44,314.24c-5.84-5.85-11.68-11.69-17.52-17.54,7.3,4.28,13.44,9.81,18.9,16.07-.46.49-.92.98-1.38,1.47Z"/><path class="cls-3" d="M1651.54,348.08c2.74,3.72,6.12,7.26,4.66,13.65-3.33-4.7-6.71-8.15-4.66-13.65Z"/><path class="cls-3" d="M1700.43,365.09c-.68-4.05-1.36-8.09-2.03-12.14.41-.08.82-.16,1.23-.24,1.98,3.8,4.65,7.46.8,12.38Z"/><path class="cls-3" d="M1656.77,344.14c5.84,6.4,6.2,8.55,2.08,12.41l-2.08-12.41Z"/><path class="cls-3" d="M1682.44,307.25c3.42,1.81,6.9,3.53,10.22,5.51.71.42.85,1.81,1.25,2.75-1,.02-2.29.46-2.94,0-3.17-2.25-6.17-4.74-9.23-7.14.23-.37.46-.74.7-1.11Z"/><path class="cls-3" d="M1714.64,294.36c3.29,3.85,8.97,5.25,11.32,10.06-.54.55-1.07,1.11-1.61,1.66-3.58-3.57-7.15-7.14-10.73-10.71l1.01-1.01Z"/><path class="cls-3" d="M1772.18,277.09c-2.82-2.17-5.64-4.34-8.93-6.89,3.23-2.46,5.05.59,6.93,1.68,1.41.82,2.26,2.59,3.37,3.93l-1.36,1.27Z"/><path class="cls-3" d="M1682.95,316.47c-3.31-2.17-6.61-4.34-9.92-6.51.27-.48.55-.96.82-1.45,3.47,1.89,6.93,3.78,10.4,5.68-.43.76-.87,1.52-1.3,2.28Z"/><path class="cls-3" d="M1690.01,305.44c4.27,2.96,8.55,5.92,12.82,8.88-.48.65-.96,1.31-1.44,1.96-1.97-1.64-3.9-3.32-5.91-4.91-2.06-1.62-4.18-3.15-6.28-4.72l.81-1.21Z"/><path class="cls-3" d="M1833.08,303.57c-1.48-2.57-2.96-5.14-4.44-7.71.48-.28.96-.55,1.44-.83,2.97,1.75,5.75,3.62,4.66,7.73-.56.27-1.11.54-1.67.81Z"/><path class="cls-3" d="M1748.26,299.37c-2.48-2.48-4.95-4.96-7.43-7.44.39-.36.79-.72,1.18-1.08,3.38,1.66,6.66,3.42,7.38,7.49-.38.35-.76.69-1.13,1.04Z"/><path class="cls-3" d="M1742.1,268.36c2.62.97,5.3,1.81,7.81,3,.54.26.46,1.81.66,2.77-1.18-.01-2.71.44-3.48-.13-1.91-1.41-3.48-3.29-5.19-4.98.07-.22.14-.44.2-.66Z"/><path class="cls-3" d="M1742.87,302.87c-1.73-2.12-5.28-3.31-4.07-6.95l1.82-.97c1.3,2.34,2.6,4.68,3.9,7.03-.55.3-1.1.59-1.65.89Z"/><path class="cls-3" d="M1830.05,303.59c2.91,1.36,6.35,2.36,3.99,8.56-2.05-3.13-3.53-5.38-5-7.63.34-.31.68-.62,1.02-.93Z"/><path class="cls-3" d="M1664.16,333.5c2.25,2.04,4.57,4,6.68,6.17.49.5.21,1.75.29,2.65-.85-.12-2.09.08-2.47-.41-1.93-2.49-3.64-5.14-5.43-7.74.31-.22.62-.45.93-.67Z"/><path class="cls-3" d="M1635.03,380.61c-1.73-3.29-3.47-6.57-5.66-10.73,4.27,3.13,6.31,6.35,7.73,9.9-.69.28-1.38.55-2.07.83Z"/><path class="cls-3" d="M1793.76,295.77c-1.76-1.88-3.51-3.75-5.27-5.63l.43-1.16c1.34.42,3.08.45,3.94,1.34,1.19,1.24,1.72,3.12,2.54,4.72-.55.24-1.09.48-1.64.72Z"/><path class="cls-3" d="M1726.99,275.45c4.22,2.17,7.39,3.68,10.4,5.48.57.34.46,1.83.66,2.8-1.17-.25-2.65-.13-3.46-.81-2.36-1.99-4.44-4.31-7.6-7.46Z"/><path class="cls-3" d="M1676.51,323.43c2.4,1.8,4.8,3.6,7.2,5.41l-1.04,1.37c-3.76,0-5.01-3.33-7-5.68.28-.37.56-.74.83-1.1Z"/><path class="cls-3" d="M1719.89,332.96c-1.37-2.46-2.73-4.93-4.1-7.39.68-.35,1.37-.7,2.05-1.04,1.35,2.48,2.7,4.96,4.05,7.44-.67.33-1.34.66-2.01.99Z"/><path class="cls-3" d="M1734.97,274.71c1.97,1.04,4.08,1.91,5.85,3.22.72.53.69,2.07.99,3.15-1-.16-2.28,0-2.94-.56-1.67-1.43-3.07-3.19-4.58-4.82.22-.33.45-.66.67-1Z"/><path class="cls-3" d="M1766.19,279.57c-2.16-1.7-4.32-3.41-7.63-6.02,2.21-.05,3.51-.49,4.13-.02,1.84,1.38,3.42,3.11,5.1,4.71-.53.45-1.07.89-1.6,1.34Z"/></g><g class="cls-4"><path class="cls-3" d="M1243.73-48.12c20.88-.95,38.39,6.22,53.07,21.14,3.09,3.14,7.62,5.74,11.91,6.68,11.75,2.57,20.59,9.66,28.83,17.46,17.42,16.5,31.32,35.78,41.27,57.58,8.19,17.94,10.59,37.26,8.42,56.72-1.36,12.17-5.78,23.97-7.52,36.13-4.92,34.45-24.81,59.62-50.32,80.81-15.53,12.9-34.26,20.18-54.25,23.95-7.79,1.47-15.41,3.78-23.13,5.62-10.72,2.55-21.55,2.86-32.39,1.05-12.77-2.14-25.73-3.72-38.17-7.14-7.61-2.09-14.4-7.17-21.53-10.97-3.29-1.76-6.34-4.1-9.79-5.42-14.3-5.47-25.81-14.69-36.36-25.55-13.61-14.01-23.24-30.37-30.24-48.45-2.8-7.22-7.17-14.1-8.52-21.56-4-22.03-4.04-43.98,6.44-64.72.44-.86.92-1.82.96-2.75.73-15.58,9.92-27.59,17.07-40.43,6.26-11.24,14.84-20.44,25.16-28.14,3.08-2.3,5.44-5.58,8.11-8.43,16.72-17.84,38.03-27.85,60.66-35.69,16.31-5.65,33.12-7.88,50.3-7.89ZM1238.47,135.62c-4.52-4.57-9.15-8.98-14.9-11.85-.38.54-.77,1.07-1.15,1.61,5.28,3.48,10.55,6.97,15.83,10.45,2.54,3.12,4.48,7.3,7.74,9.17,10.98,6.27,22.4,11.77,33.72,17.41,1.96.98,4.27,1.25,6.42,1.84-.12-1.34-.54-1.8-1.06-2.04-6.62-3.04-13.56-5.52-19.82-9.18-9.18-5.37-17.88-11.57-26.79-17.42ZM1259.06,105.77l.12.11c.22-1.38.88-2.85.58-4.11-1.32-5.64-10.68-12.36-17.92-12.49,2.73,10.49,4.21,21.08,11.49,29.65-9.68-7.65-10.19-19.7-14.53-29.96.88,11.48,1.96,22.9,9.8,32.09,3.68,4.31,7.65,8.47,12.01,12.08,7.63,6.32,15.52,12.33,23.59,18.07,2.23,1.59,5.49,3.49,8.78.16-1.01-.69-1.6-1.35-2.31-1.52-10.81-2.67-17.86-10.33-24.03-18.76-1.92-2.63-2.44-6.49-2.95-9.89-.65-4.3-.42-8.72-1.06-13.02-.14-.96-2.33-1.62-3.58-2.42ZM1120.97,203.13c-.2.9-.85,2.05-.52,2.67,3.66,6.75,8.5,8.87,15.29,6.74,2.54-.8,5-1.87,7.5-2.81.18.46.36.92.53,1.38-4.02,1.67-8.05,3.34-12.08,5.01,4.47,5.92,5.91,6.43,12.19,4.03,4.92-1.87,9.78-3.89,14.67-5.84.13.29.25.57.38.86-5.88,2.57-11.76,5.14-17.74,7.75,6.06,8.13,9.87.13,15.09-.81-.59,1.59-2.11,2-3.03,2.98-.93.99-1.27,2.54-1.87,3.84,1.61-.02,3.68.59,4.76-.18,4.33-3.11,9.09-6.07,12.33-10.16,6.72-8.49,12.7-17.6,18.76-26.6,7.59-11.26,14.97-22.67,22.6-34.25.54.39-.44-.2-.39-.31,2.89-6.13,5.86-12.21,8.82-18.31-9.14,12.36-20.05,22.77-33.12,30.8,9.18-8.67,19.73-15.94,26.22-27.25-2.08,1.98-4.16,3.97-6.24,5.95-.2-.23-.4-.46-.6-.69,3.39-4.82,6.78-9.64,10.17-14.46-.51-.46-1.03-.91-1.54-1.37-5.09,3.65-7.43,10.1-12.33,13.95-5.2,4.08-10.37,8.18-15.56,12.27-.23-.29-.46-.59-.69-.88,7.23-6.5,14.47-13,21.7-19.5-.4-.57-.8-1.15-1.21-1.72-5.19,2.48-10.33,5.08-15.6,7.39-5.24,2.29-10.62,4.27-15.94,6.39-.14-.35-.27-.7-.41-1.05,10.89-5.06,21.77-10.12,32.66-15.18-.19-.47-.38-.95-.58-1.42-6.39,2.42-12.77,4.85-19.16,7.27-.11-.23-.22-.46-.32-.69,2.41-1.48,4.82-2.95,7.23-4.43-12.05,1.64-22.87,6.5-33.85,11.22-14.42,6.2-29.23,11.51-43.99,16.88-4.68,1.7-9.89,1.95-14.58,3.63-1.97.71-4.43,3.36-4.51,5.23-.13,2.79,2.22,4.89,5.65,4.64,3.07-.23,6.15-.37,9.22-.53.91-.05,1.83,0,2.74,0,.03.44.07.88.1,1.32-4.17.73-8.34,1.46-14.14,2.47,2.65,2.32,4.11,4.59,6.04,5.11,7.61,2.03,15.36,3.52,23.07,5.16,1.36.29,2.76.38,4.13.56-9.41,2.55-17.86-.95-26.77-3.19,2.12,3.88,2.95,8.72,8.45,9.48,4.3.59,8.62,1.12,12.93,1.67l-.12,1.26h-11.37c-.02.35-.04.7-.06,1.05,1.65.94,3.29,1.87,4.94,2.81l.13-.15ZM1250.12,33.98c.63-.02,1.25-.04,1.88-.05-1.2,13.76-2.4,27.51-3.47,39.81,1.16-2.27,3.1-6.07,5.05-9.86.38.18.75.37,1.13.55-.65,2.4-1.31,4.79-1.96,7.19.6.19,1.2.38,1.79.57,3.52-8.68,7.04-17.35,10.55-26.03-1.29,13.46-6.69,25.2-14.59,36,9.4-8.46,15.79-18.94,20.6-30.52.65.4,1.3.79,1.95,1.19-5,8.64-9.99,17.29-14.99,25.93.4.28.8.55,1.19.83,4.48-6.37,9.6-12.39,13.33-19.18,11.71-21.3,16.64-44.93,21.72-68.37,1.05-4.86-1.46-10.49-2.33-15.77-.48.05-.96.1-1.44.14-1.15,3.18-2.29,6.37-3.44,9.55-.3-3.77.44-7.24.52-10.73.03-1.52-1.28-3.06-1.99-4.59-1.42.81-3.35,1.27-4.17,2.48-2.5,3.71-4.58,7.71-6.82,11.59-.3-.14-.6-.28-.9-.42,2.52-5.27,5.05-10.54,7.61-15.9-9.1-7.64-10.12,2.39-14.42,5.99,1.25-3.21,2.51-6.41,3.76-9.59-5.18-2.84-6.22-2.68-8.41,2.48-1.63,3.84-2.67,7.93-3.98,11.92-.27-.07-.54-.15-.81-.22,1.44-5.57,2.87-11.13,4.5-17.47-2.33-.25-5.61-1.48-6.44-.54-2.64,2.97-4.36,6.76-6.83,10.87.87-4.25,1.62-7.91,2.36-11.57-9.26-1.55-10.32-.77-11.33,7.97-.23,1.96-.45,3.92-.68,5.89-.6-.04-1.2-.09-1.81-.13.29-4.6.58-9.19.92-14.52-2.82.4-7.18.23-7.45,1.2-.9,3.24-.34,6.89-.34,11.55-1.19-3.4-2.34-5.72-2.76-8.17-.47-2.72-1.8-3.32-4.31-3.36-10.13-.15-12.23,2.07-10.49,11.76.34,1.9,1.02,3.74,1.61,5.58,2.17,6.79,4.61,13.51,6.51,20.38,2.97,10.75,6.23,21.49,8.17,32.45,2.15,12.14,2.9,24.52,4.41,36.78.43,3.48,1.37,6.89,2.07,10.33.46-.08.92-.16,1.38-.23,2.52-14.11,2.29-28.3.62-42.54,4.5,13.34,2.22,27.12,3.61,40.8,1.11-5.23,2.23-10.46,3.34-15.69.27-.01.55-.03.82-.04.29,1.83.59,3.65.88,5.48.53,0,1.05,0,1.58,0,.75-10.58,1.51-21.16,2.26-31.75ZM1205.43,33.37c7.76,7.62,12.88,16.98,17.78,27.57.31-2.21.49-3.43.86-6.05,1.8,5.49,3.14,9.62,4.49,13.74l1.51-.36c-.94-8.84-1.7-17.71-2.87-26.52-3.21-24.29-11.97-47-20-69.93-1.27-3.63-3.41-4.68-7.5-4.35,1.27,3.01,2.39,5.65,3.94,9.31-4.54-3.4-3.52-10.57-9.45-10.25-4.32.23-8.54,2.28-12.57,3.45,2.77,5.79,5.19,10.86,7.62,15.92-.45.19-.89.38-1.34.58-1.39-2.89-2.79-5.77-4.15-8.67-1.44-3.05-3.07-6.07-7.13-5.22-4.46.94-5.18,4.51-4.82,8.33.44,4.72,1.13,9.41,1.71,14.12-.4.05-.79.11-1.19.16-.82-6.17-1.65-12.34-2.48-18.55-7.68,2.86-7.71,2.86-6.94,10.28.27,2.61.72,5.2,1.09,7.81-.38.06-.76.12-1.14.17-.62-4.2-1.24-8.41-1.88-12.7-7.72,2.8-8.2,3.47-6.81,10.45.69,3.46,1.75,6.85,2.64,10.27-.38.11-.75.23-1.13.34-1.51-4.77-3.01-9.54-4.73-14.95-3.22,2.43-6.35,4.09-8.47,6.6-1.68,2-3.33,5.28-2.87,7.57,1.27,6.29,2.7,12.89,5.78,18.41,10.46,18.73,24.22,35.02,40.01,49.48,4.64,4.25,10.51,7.16,15.81,10.68.37-.46.73-.92,1.1-1.38-9.86-8.49-18.1-18.2-23.39-30.2,9.72,10.37,16.51,23.62,30.18,29.97-1.69-2.56-3.38-5.12-5.07-7.68.17-.08.35-.16.52-.24,4.06,3.37,8.13,6.73,12.19,10.1.37-.41.74-.81,1.11-1.22-1.2-1.89-2.47-3.73-3.59-5.67-4.63-8-9.33-15.96-13.73-24.09-.94-1.73-.71-4.09-1.19-7.36,5.53,9.98,10.29,18.58,15.05,27.18.48-.25.96-.49,1.44-.74-1.06-2.55-2.12-5.11-3.18-7.66.47-.24.93-.48,1.4-.72,2.83,5.07,5.66,10.15,8.49,15.22-.91-16.38-9.37-29.54-17.08-43.22ZM1185.02,234.81c.25,4.45-.91,9.36,1.03,11.59,2.17,2.5,7.13,2.58,11.77,3.99-.6-4.37-1.03-7.48-1.57-11.35,3.44,5.31,2.05,14.12,11.97,12.77-.5-1.97-1.01-3.65-1.35-5.37-.34-1.67-.51-3.37-.76-5.06,6.66,12.65,8.08,13.77,15.59,11.44-2.89-5.34-5.76-10.64-8.72-16.1.74-.1,1-.19,1.03-.14,2.17,3.58,4.25,7.22,6.51,10.75,4.81,7.51,7.64,8.51,16.89,5.92-3.07-4.37-6.06-8.65-9.06-12.92,5.98,4.38,8.33,12.95,18.27,13.13-2.75-5.85-5.21-11.07-7.66-16.29,1.42-.02,1.85.44,2.15.97,2.34,4.08,4.44,8.33,7.13,12.15.76,1.08,3.26.95,4.97,1.37.24-1.42.99-2.99.63-4.25-1.29-4.51-3.06-8.89-4.46-13.37-1.57-5.03-2.94-10.12-4.39-15.18.38-.1.76-.2,1.14-.31.65,2.14,1.17,4.34,1.99,6.42,2.91,7.39,5.8,14.79,9.01,22.05.47,1.06,2.68,1.34,4.09,1.99.6-1.54,2.03-3.34,1.65-4.58-1.07-3.54-2.82-6.89-4.41-10.26-9.35-19.69-13.24-40.97-18.2-61.95-1.44-6.1-3.32-12.09-5-18.12-.42.11-.85.21-1.27.32,2.35,13.84,4.7,27.67,7.05,41.51-.45.09-.91.17-1.36.26-2.45-14.15-4.91-28.29-7.36-42.44-1.76,7.26-2.57,14.54-4.37,21.56-1.77,6.92-4.55,13.59-6.89,20.37-.52-.15-1.05-.3-1.57-.45,5.78-15.65,11.07-31.4,9.09-48.83-2.01,1.2-3.86,2.6-4.79,4.46-1.52,3.02-2.24,6.43-3.66,9.51-2.85,6.16-5.94,12.2-8.94,18.3-.39-.19-.77-.38-1.16-.57,3.37-7.35,6.74-14.7,10.12-22.05-9.45,7.6-17.08,16.26-23.18,26.43-7.5,12.5-15.91,24.46-23.94,36.64-2.32,3.52-5.02,6.85-6.96,10.57-3.95,7.57-2.62,9.85,6.11,11.66,1.47-3.87,2.95-7.74,4.42-11.6.5.21,1.01.41,1.51.62-.79,1.88-1.62,3.74-2.38,5.63-2.68,6.68-1.02,9.01,6.3,8.89.94-3.16,1.88-6.32,2.99-10.05ZM1088.71,152.54c-.15.55-.29,1.11-.44,1.66,3.58,1.37,7.16,3.89,10.74,3.9,12.57.01,24.76-2.22,36.4-7.57,13.25-6.09,26.8-11.55,40.31-17.04,8.48-3.44,17.14-6.43,25.72-9.63.57-.21,1.1-.53,1.64-.8-5.87.62-11.13,2.31-16.5,2.86-13.1,1.33-13.12,1.12-16.8-1.51,9.23-.74,18.21.39,26.19-4.77-4.6-.3-9.19-.6-13.79-.9.04-.36.09-.73.13-1.09,5.78-.4,11.57-.8,17.35-1.19.04-.82.08-1.63.12-2.45-13.3,2.93-25.73.34-37.82-4.63,11.09.59,22.09,3.9,33.32,1.26-3.12-1.77-6.31-2.86-9.56-3.67-29.88-7.47-60.1-13.77-88.66-25.78-1.78-.75-3.69-1.48-5.58-1.63-1.62-.13-3.31.59-4.97.93-.01.53-.02,1.06-.03,1.59,5.23,2.35,10.46,4.69,15.69,7.04-.16.37-.31.75-.47,1.12-3.82-1.57-7.66-3.07-11.44-4.72-5.42-2.37-6.56-1.95-6.85,3.97-.1,2.07,1.11,4.75,2.62,6.25,2.57,2.56,5.85,4.41,8.84,6.56-.21.36-.41.72-.62,1.08-3.7-2.04-7.41-4.07-11.12-6.11-2.86,6.5-2.09,9,3.7,11.96,2.9,1.49,5.86,2.86,8.79,4.28-.16.36-.31.71-.47,1.07-4.23-1.92-8.47-3.84-12.84-5.82-1.57,6.4-.81,10.81,5.09,13.31,5.99,2.54,11.83,5.44,17.68,8.15-8.66.93-15-5.71-23.36-8.46.22,3.26.74,5.98.5,8.62-.54,5.87,2.18,8.74,7.71,9.74,3.15.57,6.23,1.51,9.34,2.28-.13.55-.27,1.1-.4,1.65-4.88-1.13-9.77-2.25-14.65-3.38-1.09,6.65,0,9.59,3.77,9.81,7.62.44,15.25.81,22.89.95,2.9.05,5.81-.6,8.72-.94-10.06,4.31-20.58,1.76-30.91,2.07ZM1346,73.38c-.2-.4-.39-.81-.59-1.21,6.61-4.02,13.22-8.05,19.85-12.05,2.86-1.72,3.58-3.6,1.66-6.76-3.24-5.32-4.37-5.85-10.38-2.82-1.73.87-3.38,1.95-4.93,3.11-19.81,14.9-41.26,26.28-65.77,31.46-4.65.98-8.96,3.59-13.42,5.45.27.72.53,1.45.8,2.17,11.57-3.44,23.15-6.89,34.72-10.33.11.35.23.7.34,1.05-10.41,3.45-20.82,6.9-31.23,10.34.09.3.18.6.27.9,1.9-.22,3.8-.44,5.7-.66.09.34.18.67.27,1.01-2.33,1.02-4.65,2.03-6.98,3.05.06.27.12.53.19.8h8.39c.04.4.07.8.11,1.19-5.17.56-10.34,1.12-15.5,1.68.02.16.05.33.07.49,4.8.3,9.6.6,14.4.9-.03.57-.06,1.14-.09,1.7h-13.79c-.03.33-.05.65-.08.98,8.22.69,16.43,1.38,24.65,2.06-.06.67-.11,1.33-.17,2-7.32-.49-14.64-.98-21.96-1.47-.07.61-.14,1.22-.21,1.82,1.56.38,3.12.74,4.68,1.14,13.62,3.44,27.51,6.09,40.8,10.52,17.01,5.67,33.76,11.7,52.09,10.04,5.9-.53,8.79-3.49,8.96-10.68-1.74,1.77-3.47,3.53-5.27,5.36-.2-1.23-.39-2.39-.61-3.71-4.4.6-8.45,1.14-12.5,1.69,4.43-2.14,10.24-1.77,13.15-4.5,2.72-2.55,2.35-8.38,3.56-13.73-6.02,1.75-10.42,3.02-14.82,4.3,4.97-5.01,16.18-1.69,15.91-13.34.47,1.41.94,2.81,1.43,4.26,3.9-2.02,4.75-8.76,1.57-14.49-1.28,1.92-2.37,3.54-3.45,5.16-.11-.44-.22-.88-.33-1.33-5.28,1.98-10.57,3.97-15.85,5.95,3.49-2.69,7.28-4.49,11.15-6.13,4.18-1.77,5.08-4.59,3.05-8.72h-5.5c6.38-4.43,6.71-7.65,1.7-13.69-5.75,3.71-11.5,7.42-17.26,11.13,4.4-4.31,9.31-7.75,14.28-11.11,3.65-2.47,3.36-5.08.38-8.25-7.84,4.43-15.62,8.84-23.41,13.25ZM1203.53,96.85c.29-.5.57-1,.86-1.5-6.1-3.5-12.22-6.96-18.28-10.52-6.22-3.65-12.38-7.41-18.56-11.12.37-.59.74-1.19,1.1-1.78,3.42,2.03,6.8,4.13,10.27,6.07,3.69,2.06,7.41,4.07,11.2,5.94,3.39,1.67,6.9,3.1,10.35,4.64.27-.47.55-.95.82-1.42-29.7-20.3-50.5-48.08-67.43-79.39-3.39,7.98,3.44,13.82,4.86,20.7-.43.13-.86.25-1.29.38-2.44-6.01-4.89-12.03-7.33-18.04-10.06,4.89-10.62,6.18-6.91,15.86,1.28,3.33,2.78,6.57,4.18,9.86-.46.19-.92.39-1.39.58-2.41-5.84-4.82-11.68-7.24-17.54-8.19,5.52-8.99,8.65-4.47,16.77,1.46,2.63,2.84,5.3,4.26,7.95-.45.21-.89.42-1.34.63-2.6-5.24-5.2-10.48-7.81-15.73-7.34,5.07-7.6,6.62-3.1,13.77,1.36,2.16,2.26,4.62,3.36,6.95-.5.25-.99.51-1.49.76-2.06-3.75-4.11-7.49-6.19-11.27-6.14,5.06-6.52,8.18-1.74,13.66,1.95,2.24,3.99,4.41,5.99,6.61-.4.34-.8.68-1.2,1.02-3.12-3.44-6.25-6.89-9.37-10.33-.57.12-1.14.23-1.71.35-.82,6.18-1.79,12.35-2.31,18.55-.1,1.19,1.29,3.08,2.49,3.71,7.87,4.18,15.49,9.44,23.9,11.86,21.6,6.21,43.53,11.32,65.42,16.43,5.71,1.33,11.79,1.06,18.75,1.61-13.07-6.86-24.82-13.02-36.57-19.19.23-.47.47-.94.7-1.41,12.54,4.47,22.76,15.17,37.17,14.58ZM1314.42,6.52c-.27-.12-.54-.24-.81-.35.53-1.25,1.09-2.49,1.6-3.75,3.15-7.73,1.96-9.77-6.28-11.67-2.47-.57-3.72-.14-4.15,2.4-.24,1.43-.68,2.84-1.01,4.26-2.13,9.07-4.26,18.13-6.39,27.2-.43-.1-.86-.19-1.29-.29,2.36-10.56,4.73-21.12,7.09-31.68-.65-.22-1.3-.44-1.95-.66-9.29,31.72-17.81,63.77-37.83,90.99,5.53-6.07,10.65-12.37,15.01-19.15,4.33-6.74,7.9-13.97,11.8-20.99.52.3,1.03.61,1.55.91-6.69,11.47-13.38,22.94-20.06,34.39,9.86-6.05,19.82-12.16,29.78-18.26.2.35.4.69.6,1.04-10.77,7.08-21.54,14.16-32.32,21.24.33.54.66,1.09.98,1.63,15.18-2.84,28.07-11.62,42.71-16.18-6.36,3.23-12.71,6.45-19.07,9.68.18.38.36.76.54,1.15,4.68-1.72,9.32-3.55,14.04-5.14,18.15-6.14,33.54-16.93,48.34-28.68,3.5-2.78,3.68-4.03,2.43-7.33-5.01,4.41-9.75,9.34-15.24,13.22-5.45,3.85-11.65,6.65-17.52,9.91-.25-.45-.49-.89-.74-1.34,2.43-1.26,5.07-2.23,7.26-3.82,7.45-5.41,15.07-10.66,21.97-16.72,4.31-3.78,3.39-8.18-2.15-13.18-4.17-3.76-4.45,2.46-6.91,3.29-.39.13-.77.32-1.36.57q5.28-9.51.09-12.11c-2.66,2.17-5.26,4.3-7.86,6.43-.19-.25-.39-.51-.58-.77,2.15-2.78,4.3-5.57,6.58-8.51-2.71-2.94-5.09-5.53-7.66-8.32-2.06,2.29-3.45,3.84-4.84,5.39,3.73-7.37,3.51-7.9-5.33-11.4-2.2,3.46-4.44,6.99-6.68,10.52q3.26-13.41.38-14.26c-1.55,3.44-3.12,6.91-4.68,10.37ZM1318.48,165.66c-.21.46-.43.91-.64,1.37-4.49-2.02-9-3.99-13.45-6.09-2.32-1.1-4.21-1.64-5.49,1.44-1.12,2.69-1.56,4.57,1.78,6.29,5.42,2.79,10.5,6.22,15.73,9.37-.21.36-.43.71-.64,1.07-4.85-2.81-9.82-5.46-14.53-8.5-3.73-2.41-6.15-1.69-8.12,2.33,5.36,3.51,10.61,6.95,15.87,10.4-.25.38-.5.77-.75,1.15-6.4-4.05-12.81-8.11-19.21-12.16-.31.47-.62.94-.93,1.4,3,2.67,6.2,5.15,8.97,8.05,8.62,9.04,16.99,18.32,25.62,27.35,7.37,7.72,13.4,6.94,19.22-2.36-2.1-2.59-4.25-5.23-6.4-7.88,9.77,6.97,10.36,6.85,16.89-3.64.49-.78.82-1.66.98-2-4.82-8.35-9.4-2.02-14.15-.47,1.87-1.8,3.74-3.6,5.63-5.43-.56-1.2-1.06-2.27-1.11-2.39,1.9-.51,4.46-.44,5.11-1.52,2.69-4.43,10.68-6.87,5.59-14.48,2.54.96,3.28.34,10.79-7.99-1.54,3.47-3.09,6.93-4.67,10.48,2.79,3.43,5.4,2.96,6.75-.96,1.89-5.49,3.37-11.16,4.61-16.84,1.47-6.75-.69-10.56-7.28-12.73-6.45-2.13-13.05-3.82-19.6-5.63-17.8-4.92-35.59-9.9-53.44-14.65-5.44-1.45-11.05-2.26-16.58-3.36-.07.37-.14.74-.21,1.11,11.24,3.3,22.48,6.59,33.73,9.89-.16.6-.33,1.21-.49,1.81-10.32-2.67-20.65-5.34-30.97-8.01-.23.63-.45,1.27-.68,1.9,9.41,4.36,18.83,8.71,28.24,13.07-.06.39-.12.79-.18,1.18-2.06-.13-4.33.26-6.13-.48-7.21-2.94-14.26-6.25-21.39-9.4-.99-.44-2.02-.79-3.04-1.18,11.48,9.9,25.61,13.12,39.79,16.2-.06.52-.11,1.04-.17,1.56-4.05-.28-8.1-.57-11.52-.81-1.14,11.18,9.92,8.21,15.2,12.3-.2.49-.4.98-.59,1.46-4.96-1.38-9.91-2.75-14.84-4.12-2.02,2.89-.44,4.13,1.99,5.21,4.93,2.17,9.81,4.46,14.71,6.7ZM1260.3,169.29c6.46,14.66,15.44,28.15,18.5,44.19-6.83-19.31-16.55-36.97-28.84-53.2-.36.2-.72.39-1.08.59,3.76,6.32,7.52,12.65,11.28,18.97-.36.22-.73.43-1.09.65-1.22-1.44-2.44-2.87-4.42-5.2,2.89,8.92,5.42,16.74,7.96,24.56-.39.13-.78.26-1.17.39-2.85-8.07-5.69-16.14-8.54-24.2-.74.04-1.49.08-2.23.12-.3,1.91-1.21,3.97-.81,5.72,2.91,12.81,5.58,25.7,9.35,38.27,2.29,7.65,5.86,15.07,9.85,22.01,2.92,5.08,8.6,6.01,14.98,3.97-2.22-3.28-4.39-6.48-6.56-9.69,3.29,2.23,5.53,5.33,8.41,7.62,4.13,3.28,6.88-1.12,10.92-2.4-3.61-4.18-6.82-7.9-10.02-11.61,4.82,3.19,7.84,8.36,14.67,8.64-1.93-2.91-3.85-5.82-5.78-8.73,9.77,8.98,10.59,9.16,15.04,2.68-2.69-2.95-5.42-5.93-8.15-8.92,3.02,1.59,5.22,4.03,7.89,5.7,1.38.87,3.61.38,5.46.5-.19-1.85.05-3.9-.68-5.5-.89-1.94-2.6-3.5-3.95-5.22.41-.34.82-.68,1.23-1.02,2.3,2.62,4.6,5.24,6.91,7.85.53,0,1.06,0,1.59,0,.48-2.24,1.89-4.81,1.25-6.66-1.46-4.21-3.17-8.78-6.13-11.93-10.47-11.11-21.4-21.81-32.4-32.39-2.93-2.82-6.77-4.69-10.19-7-.18.21-.37.42-.55.63,1.14,2.15,2.29,4.31,3.43,6.46-5.29-4.67-9.03-10.56-15.5-13.59,8.11,8.83,15.29,18.21,20.25,29.1-6.4-8.57-12.81-17.14-19.21-25.72-.4.3-.8.59-1.19.89,2.23,3.46,4.47,6.93,6.7,10.39-.35.23-.71.46-1.06.69-2.04-2.55-4.08-5.1-6.12-7.65ZM1270.46,150.75c.37-.64.73-1.27,1.1-1.91-20.5-14.61-34.66-34.41-46.64-56.02-.5-.9-2.07-1.21-3.15-1.79-.05,1.41-.6,3.06-.07,4.2,8.23,17.48,21.67,31.29,33.38,46.26,3.44,4.4,10.17,6.24,15.38,9.25ZM1216.24,102.6c-.63.65-1.27,1.3-1.9,1.94,12.31,9.82,19.56,24.85,34.13,32.36-4.91-6.07-9.77-12.08-14.63-18.08-.41-.5-1.05-1.47-1.24-1.39-4.97,2.01-4.84-2.96-6.83-4.95-3.23-3.24-6.36-6.58-9.53-9.88ZM1364.39,175.07c-2.84,0-5.46-.77-6.33.14-3.44,3.59-6.34,7.7-9.43,11.6,5.79,4.95,6.55,4.82,9.89-1.28,1.63-2.98,3.32-5.93,5.87-10.46ZM1230.23,113.1c-3.17-5.2-7.18-11.77-11.19-18.34-.63.1-1.27.21-1.9.31-.2,1.96-1.32,4.81-.43,5.72,4.58,4.69,9.67,8.89,13.52,12.31ZM1382.19,103.52c-3.94,2.18-5.82,9.87-4.19,15.92,4.3-1.11,6.17-7.92,4.19-15.92ZM1377.85,62.22c-5.39,4.88-1.08,8.41-.66,11.96.09.76,1.35,1.39,2.06,2.07.61-1.01,1.89-2.15,1.72-3-.69-3.38-1.83-6.66-3.12-11.04ZM1298.78,142.81c-6.33-2.36-12.66-4.72-20.22-7.54,5.83,7.15,12.38,8.81,20.22,7.54ZM1370.06,55.6c.5-.04,1.01-.08,1.51-.12.3-1.2,1.24-2.89.78-3.51-1.35-1.78-3.26-3.13-4.96-4.65-.51.47-1.02.94-1.52,1.4,1.4,2.29,2.8,4.59,4.2,6.88ZM1233.85,95.02c.41-.22.82-.45,1.22-.67-1.28-2.66.42-7.46-5.91-6.53,1.56,2.4,3.13,4.8,4.69,7.2Z"/><path class="cls-3" d="M1277.08,35.69c2.73-13.53,5.48-27.13,8.2-40.58,1.79,5.57-4.35,36.15-8.2,40.58Z"/><path class="cls-3" d="M1230.34,5.77c-3.4-13.03-6.79-26.05-10.19-39.08.15-.07.29-.15.44-.22,1,2.28,2.31,4.47,2.96,6.84,2.63,9.65,5.12,19.35,7.49,29.07.25,1.04-.55,2.34-.86,3.52l.16-.12Z"/><path class="cls-3" d="M1230.19,5.89c.73,1.73,1.69,3.41,2.14,5.21.8,3.22,1.29,6.51,1.91,9.77-.52.09-1.04.18-1.56.27-.78-5.13-1.55-10.25-2.33-15.37,0,0-.16.13-.16.13Z"/><path class="cls-3" d="M1149.32-4.89c4.46,15.64,8,31.56,17.84,45.1-7.7-3.82-20.34-36.33-17.84-45.1Z"/><path class="cls-3" d="M1206.31-13.41c3.72,10.57,7.44,21.15,11.15,31.72-.45.16-.91.32-1.36.48-3.79-10.55-7.57-21.1-11.36-31.64.52-.18,1.04-.37,1.57-.55Z"/><path class="cls-3" d="M1145.95,12.97c-1.11-4.43-2.23-8.87-3.34-13.3.41-.11.83-.22,1.24-.33,1.15,4.42,2.3,8.85,3.46,13.27-.45.12-.91.24-1.36.36Z"/><path class="cls-3" d="M1159.89,156.66c-9.53,4.42-19.06,8.83-28.6,13.25-.19-.4-.37-.8-.56-1.2,9.47-4.44,18.93-8.88,28.4-13.32.25.43.5.85.76,1.28Z"/><path class="cls-3" d="M1120.84,203.28c5.98,1.55,11.96,3.11,17.94,4.66-6.44.34-12.52-.71-17.81-4.81,0,0-.13.15-.13.15Z"/><path class="cls-3" d="M1173.57,184.32c-4.07,3.61-8.13,7.23-12.2,10.84l-.76-.83c4-3.66,8-7.31,12-10.97.32.32.64.64.95.95Z"/><path class="cls-3" d="M1193.22,201.32c-3.36,5.8-6.72,11.61-10.09,17.41,2.11-6.55,4.69-12.81,10.19-17.31l-.1-.09Z"/><path class="cls-3" d="M1193.33,201.41c2.56-4.51,5.12-9.03,7.68-13.54.36.22.72.45,1.08.67-2.22,4.71-4.21,9.57-8.86,12.78,0,0,.1.09.1.09Z"/><path class="cls-3" d="M1149.27,135.51c-14.43,7.22-29.4,11.31-39.58,10.89,13.02-3.58,26.41-7.26,39.58-10.89Z"/><path class="cls-3" d="M1146.88,129.05c-8.69,2.06-17.38,4.12-26.06,6.17-.1-.43-.2-.86-.3-1.28,8.67-2.13,17.34-4.27,26.01-6.4.12.5.24,1.01.36,1.51Z"/><path class="cls-3" d="M1139.88,122.46h-24.31c-.01-.23-.03-.45-.04-.68h24.39c-.01.23-.02.45-.03.68Z"/><path class="cls-3" d="M1146.19,116.52c-7.73-1.37-15.46-2.75-23.19-4.12.05-.31.1-.61.14-.92,7.71,1.2,15.42,2.39,23.13,3.59-.03.49-.06.97-.08,1.46Z"/><path class="cls-3" d="M1131.36,99.8c-7.24-2.14-14.49-4.28-21.73-6.43.23-.66.46-1.31.68-1.97,6.98,2.83,13.96,5.65,20.93,8.48l.12-.08Z"/><path class="cls-3" d="M1131.25,99.88c6.23,1.04,12.46,2.08,18.69,3.13-.13.61-.27,1.22-.4,1.84-6.05-1.69-12.1-3.38-18.16-5.05-.01,0-.13.09-.13.09Z"/><path class="cls-3" d="M1345.17,124.11c-13.86.09-25.58-8.23-38.8-11.44.17-.55.33-1.1.5-1.65,12.85,4.39,25.7,8.78,38.3,13.08Z"/><path class="cls-3" d="M1360.75,55.08c-11.21,7.24-22.42,14.48-33.63,21.71-.26-.4-.52-.8-.77-1.2,11.15-7.23,22.3-14.46,33.45-21.68.32.39.63.78.95,1.17Z"/><path class="cls-3" d="M1332.1,80.66c-7.91,3.26-15.82,6.52-23.73,9.78-.18-.43-.36-.86-.54-1.29,7.9-3.29,15.81-6.59,23.71-9.88.18.47.37.93.55,1.4Z"/><path class="cls-3" d="M1100.65,63.54c15.25,9.94,29.33,22,49,24.71-8.03,3.19-41.64-14-49-24.71Z"/><path class="cls-3" d="M1167.62,67.64c-7.97-9.63-15.93-19.26-23.9-28.89.39-.32.78-.64,1.16-.97,7.98,9.65,15.97,19.29,23.95,28.94-.41.31-.81.61-1.22.92Z"/><path class="cls-3" d="M1319.21,131.57c15.64,3.5,31.12,7.42,45.25,16.36-15.39-5.56-30.32-10.96-45.25-16.36Z"/><path class="cls-3" d="M1329.93,190.87c-3.75-4.38-7.37-8.6-10.87-12.69,5.47,1.24,10.7,7.13,10.87,12.69Z"/><path class="cls-3" d="M1325.27,148.62c7.51,1.64,15.02,3.29,22.53,4.93-.09.42-.19.84-.28,1.26-7.58-1.62-15.15-3.23-22.73-4.85.16-.45.32-.9.48-1.34Z"/><path class="cls-3" d="M1335.63,181.95c-4.69-3.8-9.39-7.6-14.08-11.4.27-.35.54-.69.82-1.04,4.8,3.68,9.59,7.37,14.39,11.05-.37.46-.75.93-1.12,1.39Z"/><path class="cls-3" d="M1343.91,166.97c-5.24-2.46-10.48-4.91-15.72-7.37.18-.39.35-.79.53-1.18,5.27,2.39,10.54,4.78,15.81,7.17-.21.46-.41.92-.62,1.38Z"/><path class="cls-3" d="M1320.19,188.97c3.95,4.03,7.9,8.06,11.85,12.09-.08.08-.17.17-.25.25-3.77-4.2-7.53-8.4-11.3-12.6-.1.09-.2.17-.3.26Z"/><path class="cls-3" d="M1259.06,105.77c.69,3.26,1.43,6.5,2.04,9.77.3,1.61.36,3.26-.32,5.15-2.19-9.41-5.16-18.31-12.33-25.24.48-.34.95-.68,1.43-1.02,3.1,3.81,6.19,7.62,9.29,11.44,0,0-.11-.11-.11-.11Z"/></g></g></g></svg>