<?xml version="1.0" encoding="UTF-8"?><svg id="Layer_2" xmlns="http://www.w3.org/2000/svg" viewBox="0 0 311.05 222.84"><defs><style>.cls-1{stroke:#fff;stroke-miterlimit:10;stroke-width:.82px;}.cls-1,.cls-2{fill:#fff;}.cls-2{stroke-width:0px;}</style></defs><g id="Design"><path class="cls-2" d="M291.64,204.76c3.14-1.2,4.85-4.65,4.18-7.9-.67-3.26-4.04-5.65-7.36-4.86-3.65.87-5.82,6.07-4.3,9.41,1.26,2.78,4.5,4.49,7.47,3.35ZM287.12,200.66c-1.04-1.97-.4-4.93,2.09-5.27,2.82-.39,4.39,3.37,2.99,5.53-.35.54-.82.9-1.36,1.11-1.33.52-2.99.02-3.72-1.37Z"/><path class="cls-2" d="M286.87,198.58s0-.03,0-.05c0,0,0,0,0,.05Z"/><path class="cls-2" d="M307.86,181.36c3.31-2.34,4.08-7.39,2.11-10.82-2.09-3.64-6.78-5.23-10.65-3.62-5.52,2.28-7.1,10.65-2.16,14.37,1.49,1.12,3.41,1.67,5.34,1.67,1.93,0,3.86-.53,5.36-1.59ZM297.58,176.59c-.66-2.4.49-4.94,2.85-5.91,4.7-1.93,8.92,3.85,5.66,7.74-.4.48-.88.86-1.41,1.14-2.74,1.46-6.26.06-7.09-2.97Z"/><path class="cls-2" d="M286.5,167.92c4.36-5.27,4.31-12.89.48-18.44-3.92-5.68-11.09-8.13-17.62-5.86-8.92,3.1-12.76,14.08-8.06,22.1,1.85,3.15,4.7,5.77,8.19,6.96,5.88,2.01,13.04.05,17.01-4.75ZM268.46,168c-8.47-5.74-5.68-20.49,5.07-20.95,5.06-.22,9.5,3.12,11.15,7.83,1.54,4.38.49,10.1-3.36,12.97-3.92,2.93-8.85,2.86-12.86.15Z"/><path class="cls-2" d="M290.67,94.86c3.88,1.71,8.42,2.99,11.76-.44,3.34-3.43,2.01-8.02-.23-11.62,2.63.03,5.09-2.31,6.43-4.5,3.41-5.56,2.99-13.38-2.89-17.13-2.67-1.71-6-2.11-8.9-.71-1.2.58-2.24,1.4-3.07,2.38-.27-1.07-.72-2.1-1.29-3.04-2.9-4.81-9.24-6.03-14-3.32-4.33,2.46-6.15,8.35-4.03,12.79-6.07.09-11.4,4.47-11.49,10.88-.07,5.57,4.53,10.04,9.89,9.95-.86,2.82-1.04,5.87,0,8.67,1.21,3.26,3.93,5.79,7.38,6.46,3.36.66,7.09-.6,9.05-3.48,1.36-2,1.7-4.5,1.39-6.89ZM280.85,102.14c-5.85-.97-7.47-8.06-5.42-12.77.39-.89-.26-1.82-1.26-1.62-4.63.93-8.79-2.83-8.78-7.45,0-2.76,1.4-5.33,3.56-7.01,1.09-.84,2.35-1.46,3.68-1.8.86-.22,3.62.03,4.07-.8.16-.29.08-.65,0-.97-.59-2.35-1.06-4.57-.23-6.95,1.3-3.99,5.73-6.13,9.72-4.99,1.94.55,3.56,1.93,4.52,3.69.63,1.29.92,2.69,1.08,4.11.08.73-.17,1.69.18,2.36.67,1.28,1.21-.37,1.59-1.04,1.15-2.04,2.61-3.91,4.96-4.58,7.3-2.08,11.75,7.62,9.14,13.35-.84,1.85-2.28,3.4-4.03,4.42-.89.52-1.87.92-2.89,1.13-.65.14-1.62.65-.87,1.52,1.41,1.65,2.16,3.37,1.99,5.59-.11,1.36-.7,2.83-1.67,3.81-2.88,2.93-7.57,1.1-10.65-.44-.98-.49-1.91.4-1.7,1.4.96,4.55-1.72,9.89-7.01,9.01Z"/><path class="cls-2" d="M300.58,100.91c-2.71.5-5.37-.45-7.34-2.34-.26-.25.03-.64.34-.44,1.97,1.26,4.58,1.69,6.88,1.24,1.14-.22,2.25-.73,3.18-1.42.51-.37.95-.8,1.37-1.27.37-.41.79-.91,1.27-1.19.31-.18.68.1.68.43-.03,1.35-1.42,2.55-2.41,3.28-1.18.86-2.53,1.45-3.97,1.71Z"/><path class="cls-2" d="M272.02,74.39c-1.64.75-3.02,1.99-3.94,3.55-.23.39-.91,0-.69-.39.96-1.75,2.41-3.12,4.19-4.02,1.82-.92,3.79-1.15,5.77-.69.38.09.33.65-.08.61-1.76-.17-3.65.22-5.26.95Z"/><path class="cls-2" d="M285.53,109.25c-1.3,0-2.7-.17-3.94-.55-.19-.06-.07-.34.12-.29.67.19,1.36.31,2.06.34.65.02,1.21-.15,1.83-.32,1.11-.3,2.15-.61,3.13-1.24,1-.64,1.78-1.5,2.38-2.52.55-.93,1.1-1.97,1.43-3,.23-.71,1.25-.55,1.15.22-.17,1.38-.59,2.53-1.45,3.62-.82,1.04-1.89,1.94-3.03,2.59-1.07.61-2.42,1.15-3.67,1.14Z"/><path class="cls-2" d="M303.23,76.54c-.15,0-.26-.17-.24-.31.04-.33.14-.65.28-.96.16-.35.53-.61.78-.9.47-.55.87-1.21,1.08-1.9.47-1.53.31-3.2-.37-4.65-.12-.25.26-.44.39-.19.81,1.58,1.05,3.37.74,5.11-.14.81-.39,1.58-.75,2.32-.18.37-.39.87-.73,1.12-.35.25-.76.36-1.17.36Z"/><path class="cls-2" d="M50.31,45.44c-.83-1.34-.89-2.97-1.31-4.47-.44-1.58-.88-3.15-.96-4.8-.17-3.34.46-6.55,2.03-9.5.54-1.01-.95-1.92-1.53-.92-1.81,3.13-3.05,6.65-3.34,10.26-.14,1.75-.14,3.52.08,5.27.14,1.07.54,1.99,1,2.89-4.46-.32-9.03.85-12.79,3.26-4.57,2.93-9.11,9.16-5.96,14.58.34.59,1.13.4,1.24-.25,1.59-9.62,10.54-15.77,20.02-14.17,1.05.18,2.13-1.19,1.53-2.16Z"/><path class="cls-2" d="M235.44,122.16c-2.58-5.64-7.85-10.31-14.01-11.32,6.79-3.05,11.48-10.18,11.61-17.69.08-4.79-1.4-9.82-4.79-13.3-1.75-1.8-3.88-3.14-6.15-3.63.34-.15.67-.31,1-.49,2.68-1.44,5.13-3.37,7.08-5.7,4.43-5.3,6.09-12.86,4.55-19.55-3.19-13.79-18.37-20.44-31.25-16.34-4.12,1.31-7.71,3.61-10.51,6.71.08-.59.13-1.19.12-1.79-.07-4.01-1.57-7.72-4.4-10.58-2.43-2.46-5.59-3.91-9-4.32-3.81-.47-7.42.67-10.54,2.84-1.42.98-2.69,2.15-3.83,3.44-.17-2.54-.78-5.13-1.47-7.42-1.4-4.63-3.55-9.02-6.7-12.71C151.72,3.95,143.89-.19,135.41.22c-8.48.4-16.19,5.55-21.88,11.52-3.47,3.64-6.88,8.61-7.77,13.75-.9-.96-1.96-1.84-3.09-2.43-1.84-.95-4.06-.94-6.06-.74-3.22.33-6.2,2.05-7.96,4.8-.11.18-.2.36-.3.54-.84-1.78-1.9-3.45-3.22-4.91-4.07-4.49-10.18-7.15-16.28-6.48-11.58,1.27-19.96,13.24-18.2,24.51.4,2.58,1.43,5.84,3.11,8.52-2.89-.51-5.8-.09-8.55.92-5.23,1.92-10.67,5.37-13.16,10.54-2.75,5.71-1.48,12.08,1.86,17.23,1.27,1.95,2.94,4.04,4.89,5.74-5.55-.68-11.41.13-16.37,2.32-8.92,3.93-15.61,12.14-19.54,20.92-8.59,19.15,3.18,38.87,19.74,48.79,4.65,2.79,9.69,5.03,15.21,4.78,3.88-.18,7.72-.65,11.27-2.01-1.53,2.69-1.96,6.04-1,8.97,1.67,5.11,6.98,9.34,12.43,9.33,1.35,0,2.6-.31,3.73-.86-5.65,9.91-2.07,25.1,7.46,31.14,3.14,1.99,6.94,3.68,10.47,4.88,4.07,1.39,8.24.9,12.16-.75,5.77-2.44,11.16-6.3,15.36-10.95,2.43-2.69,3.86-5.77,5.57-8.92.08-.14.13-.28.2-.43.54,4.88,3.66,9.83,6.82,13.12,5.15,5.36,12.37,8.81,19.84,9.09,7.89.29,15.26-3.23,20.22-9.32,2.4-2.95,4.41-6.2,5.37-9.91.29-1.13.48-2.29.55-3.46,1.05,3.09,2.59,5.91,5.13,8.16,3.28,2.92,7.55,4.69,11.99,4.29,5.17-.47,9.04-3.73,11.58-8.1,2.55-4.4,3.48-9.31,2.33-14.31-.62-2.69-1.72-5.16-3.39-7.35-.06-.08-.12-.15-.18-.22,10.27,5.2,23.93.01,31.6-8.24,9.92-10.66,14.31-28.94,8.11-42.51ZM229.81,153.02c-3.2,6.79-8.35,12.17-15.06,15.54-3.34,1.68-6.86,2.77-10.59,3.07-4.74.38-8.86-1.19-13.14-3.02-.16-.07-.33.02-.42.15-.13.06-.21.21-.13.38.21.43.2.91.41,1.35.3.64.99,1.22,1.4,1.83.61.91,1.1,1.85,1.49,2.88.81,2.15,1.35,4.45,1.43,6.75.18,4.76-1.34,10.35-4.74,13.8-3.15,3.19-8.08,3.35-12.05,1.67-2.37-1-4.21-2.74-5.95-4.57-1.74-1.84-3.2-3.71-4.42-5.94-.06-.11-.15-.16-.25-.17-.27-.64-.64-1.23-1.09-1.92-.09-.13-.26-.19-.41-.18-.01-.05-.02-.1-.03-.15,0-.03-.01-.06-.03-.08-.02-.03-.04-.04-.07-.06-.04-.02-.09-.02-.13,0-.04.02-.08.05-.1.09-.02.05-.02.13.02.17.04.04.08.09.11.13-.06.05-.1.12-.11.21-.66,5.49-1.53,11.37-5.74,15.49-4.3,4.21-10.72,6.38-16.59,6.97-12.41,1.24-25.84-9.28-26.22-22.04.21-1.09.38-2.2.48-3.39.06-.7-.97-.7-1.15-.11-.98,3.19-2.48,6.82-4.25,9.66-1.61,2.59-4.48,5.07-6.76,7.09-2.59,2.3-5.57,4.28-8.71,5.75-3.42,1.6-7.4,3.3-11.23,2.89-3.99-.43-8.12-2.15-11.53-4.23-3.33-2.02-5.35-5.54-6.91-9-2.98-6.61-2.78-13.8-.08-20.41.03-.03.06-.06.09-.09.39-.46.73-.96,1.05-1.48.22-.35.68-.92.52-1.38-.29-.83-1.21,0-1.57.29-1.85,1.51-4.17,2.97-6.66,2.6-2.49-.37-4.67-2.13-6.48-3.77-3.37-3.06-5.26-8.5-2.69-12.33.6-.32,1.18-.66,1.76-1.05,1.14-.76-.04-2.43-1.21-1.97-3.88,1.53-8.47,1.71-12.61,1.63-4.6-.09-8.46-1.36-12.42-3.67-6.97-4.07-13.37-9.85-17.3-16.97-3.91-7.08-5.57-15.69-3.54-23.61,1.13-4.44,3.77-8.6,6.38-12.31,2.26-3.21,4.97-5.99,8.3-8.09,7.58-4.79,16.05-5.93,24.73-4.11.31.06.59-.06.8-.26.13,0,.26.04.4.03.76-.02.69-1.01.08-1.22-2.16-.74-3.81-3.09-5.25-4.79-1.46-1.75-2.91-3.48-4-5.49-2.18-4-3-9.5-.81-13.66,2.06-3.91,6.52-6.67,10.57-8.13,2.23-.81,4.59-1.08,6.96-.84,1.37.14,2.63.55,3.94.94.9.27,1.68.6,2.6.4.31-.07.41-.42.36-.69-.02-.08-.06-.14-.09-.22.02-.17,0-.34-.06-.5-.92-2.48-2.85-4.51-4-6.91-1.16-2.43-1.83-5.14-1.76-7.84.14-5.41,2.63-10.6,6.99-13.87,4.66-3.5,11-3.96,16.15-1.22,2.68,1.42,4.89,3.61,6.47,6.19,1.55,2.54,1.9,5.49,3.4,8.01.33.56,1.31.48,1.54-.13.56-1.49.52-2.98.2-4.47.02-.13.04-.27.06-.4.2-1.18.67-2.33,1.39-3.29,1.52-2.01,3.85-2.74,6.29-2.65,1.27.04,2.53-.03,3.64.66,1.02.62,1.85,1.54,2.68,2.38.84.86,1.54,1.8,2.08,2.87.07.13.11.27.17.41.04.11.1.22.14.33.11.27.24.54.35.82.23.59.6,1.01.93,1.55.17.28.57.19.71-.06.23-.4.39-.77.51-1.16.09-.16.15-.34.13-.54,0-.1,0-.19,0-.29,0-.02,0-.04,0-.06,0-.03,0-.06-.01-.09-.44-8.02,2.89-14.48,8.9-19.81,5.4-4.78,12.5-8.07,19.82-7.7,6.91.35,13.34,4.4,17.49,9.81,2.04,2.67,3.62,5.7,4.76,8.85,1.21,3.34,1.67,6.88,2.82,10.18-.14.73-.08,1.47.33,2.12.23.37.73.44,1.09.23.63-.37,1.12-1.09,1.6-1.65.66-.78,1.21-1.58,1.97-2.28,1.41-1.3,3.07-2.55,4.78-3.42,3.09-1.56,6.51-1.5,9.65-.09,3.35,1.5,5.6,4.1,6.73,7.59.55,1.68.79,3.49.75,5.26-.04,1.91-.99,3.52-1.18,5.37-.03.31.1.67.37.83.07.04.13.08.2.11.28.13.67.05.9-.15.79-.69,1.28-1.68,1.64-2.71,3.84-4.2,9.31-7.17,14.89-7.99,6.7-.99,13.14,1.21,17.95,5.94,5.43,5.34,6.82,13.45,3.79,20.43-1.35,3.13-3.63,5.89-6.31,7.97-1.3,1.01-2.7,1.84-3.99,2.87-1.27,1.01-2.81,1.19-4.24,1.89-.47.23-.17.85.25.89.76.07,1.5-.04,2.24-.18.06.05.14.07.23.06,3.92-.66,8.06,2.09,10.19,5.21,2.37,3.48,3.44,7.75,2.97,11.93-.85,7.65-6.58,13.19-13.27,16.22-.7.32-.39,1.43.38,1.31.46-.07.91-.17,1.36-.28,8.05,3.56,13.54,9.6,14.86,18.6,1.1,7.52-.06,15.62-3.3,22.5Z"/><path class="cls-2" d="M53.11,90.54c-3.3-1.35-6.74-2.2-10.3-2.42-3.55-.22-7.51-.06-10.95.92-3.2.91-6.17,2.33-8.84,4.31-2.82,2.08-4.85,4.78-6.72,7.72-.2.32.25.74.52.44,2.07-2.28,4.56-4.01,7.11-5.7,2.65-1.76,5.63-3.22,8.67-4.18,3.15-.99,6.1-1.63,9.42-1.53,3.58.11,7.07.9,10.39,2.22,1,.4,1.71-1.36.71-1.77Z"/><path class="cls-2" d="M57.3,147.86c-1.63.46-3.14,1.28-4.78,1.76-1.89.55-3.85.73-5.81.75-3.83.04-7.58-.55-11.21-1.79-7.11-2.44-13.22-6.51-18.61-11.72-.21-.21-.61.03-.45.31,4.07,6.95,11.09,12.17,18.77,14.54,3.86,1.19,8.01,1.98,12.06,1.62,3.56-.31,8.44-1.4,10.63-4.52.32-.45,0-1.12-.61-.95Z"/><path class="cls-2" d="M56.42,183.05c-.59-.71-1.7-.92-2.58-1.1-1.3-.27-2.59-.67-3.8-1.21-1.89-.85-3.8-1.99-5.18-3.57-1.39-1.59-2.49-3.68-2.85-5.77-.19-1.1-.39-2.26-.35-3.38.04-1.1.55-2.21.5-3.28-.02-.5-.57-.8-.98-.46-.89.74-1.3,2.25-1.66,3.32-.43,1.3-.79,2.6-.78,3.98.02,2.84.97,5.55,2.89,7.66,1.87,2.06,4.25,3.71,6.95,4.44,1.37.37,2.8.6,4.22.67,1.09.06,2.75.18,3.55-.72.13-.14.18-.42.05-.58Z"/><path class="cls-2" d="M53.64,186.8c-1.19.32-2.33.66-3.56.82-1.2.15-2.41.45-3.63.47-2.41.05-4.77-.83-6.4-2.62-.24-.26-.66.06-.49.36,1.37,2.46,3.73,3.85,6.38,4.57,1.4.38,2.79.73,4.25.71,1.53-.02,3.18-.16,4.62-.71,2.28-.87,1.19-4.22-1.16-3.6Z"/><path class="cls-2" d="M116.24,203.57c-1.09.93-2.25,1.62-3.28,2.63-1.09,1.07-2.15,2.15-3.28,3.19-2.29,2.11-4.56,4.14-7.29,5.69-5.43,3.1-12.32,6.13-18.67,4.9-.8-.16-1.16,1.02-.43,1.36,3.31,1.57,7.18,1.73,10.77,1.25,3.64-.49,7-1.56,10.2-3.37,3.02-1.71,5.91-3.77,8.32-6.28,1.16-1.21,2.24-2.72,3.05-4.19.89-1.6,1.06-2.98,1.34-4.75.07-.43-.38-.74-.74-.44Z"/><path class="cls-2" d="M122.38,212.16c-.72-.44-1.51-.34-2.17.15-.51.38-.85.91-1.23,1.41-.31.41-.59.84-.88,1.27-.56.83-1.15,1.64-1.79,2.4-.01.02-.11.13-.13.15-.07.08-.14.16-.22.24-.17.18-.33.35-.51.52-.36.35-.73.69-1.12,1.01-.76.61-1.59,1.11-2.48,1.51-.76.34-.31,1.51.48,1.35,2.18-.43,4.14-1.49,5.91-2.8.87-.64,1.68-1.35,2.47-2.1.92-.87,1.92-1.86,2.38-3.06.27-.7-.06-1.66-.71-2.05Z"/><path class="cls-2" d="M162.4,175.66c-.29-.51-1.25-.59-1.39.1-.31,1.52-.28,3.03-.5,4.57-.22,1.58-.58,3.16-1.09,4.67-1.01,2.97-2.64,5.78-4.51,8.29-2.08,2.79-4.56,4.9-7.38,6.89-1.41.99-2.96,1.84-4.68,2.11-1.75.28-3.55.13-5.32.28-.51.04-.57.72-.23.99,1.47,1.17,2.91,1.38,4.76,1.32,2-.06,4.07-.44,5.97-1.09,3.66-1.25,6.66-4.13,9.09-7.05,2.49-2.99,4.34-6.38,5.4-10.14.94-3.32,1.67-7.8-.11-10.94Z"/><path class="cls-2" d="M191.27,185c-.5,1.3-1.61,2.25-2.65,3.11-.98.82-1.99,1.67-3.13,2.27-1.04.54-2.15.89-3.32.87-1.16-.02-2.43-.37-3.62.12-.21.09-.4.38-.38.61.13,1.91,2.33,2.6,3.97,2.47,1.69-.13,3.31-.72,4.69-1.7,1.35-.96,2.49-2.18,3.42-3.54.85-1.24,1.48-2.61,1.43-4.14,0-.24-.32-.28-.4-.06Z"/><path class="cls-2" d="M158.21,34.3c-.25-3.26-1.02-6.39-2.35-9.37-2.29-5.15-5.98-9.74-11.17-12.11-.14-.06-.27.13-.15.23,4.24,3.35,7.4,7.96,8.99,13.12.85,2.75,1.41,5.61,1.81,8.45.21,1.5.41,3,.52,4.51.08,1.18-.18,2.68.78,3.54.16.14.44.19.62.05,1.05-.81.88-2.27.94-3.49.08-1.64.13-3.3,0-4.93Z"/><path class="cls-2" d="M226.35,33.04c-2.08-5.19-8.97-7.51-14.15-7.55-2.84-.02-5.67.51-8.31,1.56-1.39.55-2.69,1.25-3.96,2.02-.65.39-1.25.86-1.85,1.32-.04-5.75-5.03-9.91-10.41-11.84-.22-.08-.37.24-.18.37,4.33,2.97,9.6,7.62,8.03,13.52-.3,1.14,1.29,2.36,2.02,1.13,1.3-2.19,4.33-3.69,6.64-4.51,2.43-.86,5.03-1.25,7.61-1.05,2.12.17,4.36.68,6.34,1.45,2.73,1.05,5.09,2.82,7.77,3.98.24.1.53-.13.42-.38Z"/><path class="cls-2" d="M244.55,138.51c-.01-3.96-.38-7.99-1.19-11.86-.82-3.92-2.25-7.67-4.1-11.22-1.06-2.02-2.2-3.82-3.88-5.15,6.24-5.51,8.69-14.37,6.01-22.39-.13-.39-.66-.21-.59.17,1.35,8.03-2.16,16.28-8.73,21.05-1.12.82-.95,2.25.32,2.79,3,1.27,4.49,5.38,5.67,8.16,1.24,2.93,2.25,6,3.04,9.08.8,3.13,1.24,6.28,1.33,9.52.08,3.1-.56,6.29-.19,9.35.05.43.75.55.94.16,1.39-2.85,1.38-6.55,1.37-9.66Z"/><path class="cls-2" d="M247.8,115.9c-1.03-1.76-2.37-3.58-4.07-4.79,1.3-2.18,2.15-4.57,2.47-7.1.05-.43-.64-.51-.74-.1-.65,2.6-1.89,4.91-3.68,6.9-.28.31-.21.8,0,1.12,1.21,1.84,2.72,3.4,3.73,5.4.97,1.93,1.9,3.88,2.75,5.85.24.56,1.13.43,1.18-.19.18-2.49-.37-4.92-1.65-7.09Z"/><path class="cls-2" d="M224.17,55.08c-.41-1.13-1.26-2.09-2.04-2.98-.14-.16-.49-.08-.43.18.45,1.9,1.28,4.24.76,6.19-.15.55-.49,1.03-.73,1.54-.23.5-.42,1.03-.65,1.54-.41.92-.79,1.85-1.23,2.76-1.6,3.28-3.72,6.39-7.08,8.03-.42.21-.17.97.29.88,2.1-.38,3.6-1.32,5.27-2.58,1.81-1.37,3.04-3.14,4.17-5.1.57-.99,1.09-2,1.49-3.08.48-1.31.55-2.47.61-3.85.05-1.2-.03-2.37-.44-3.51Z"/><path class="cls-2" d="M170.66,20.55c-.01-1.27-.31-2.57-.59-3.81-.55-2.4-1.6-4.69-2.83-6.82-2.42-4.2-5.77-7.57-10.04-9.89-.23-.13-.51.22-.28.38,3.1,2.33,5.73,5.39,7.69,8.74,1.04,1.78,1.88,3.68,2.51,5.64.69,2.16,1.16,4.38,1.75,6.57.22.83.27,1.74.84,2.42.12.14.33.11.44-.03.63-.86.52-2.19.51-3.2Z"/><path class="cls-2" d="M201.36,135.61c-.21.12-.31.41-.43.62-.12.24-.24.48-.35.72-.21.47-.39.96-.54,1.45-.15.5-.26,1-.33,1.52-.07.49-.2,1.09-.07,1.58.07.27.49.4.6.08.16-.46.14-.99.22-1.47.09-.51.2-1.01.33-1.51.13-.48.29-.96.47-1.42.09-.23.19-.46.3-.69.11-.24.25-.43.24-.7,0-.23-.28-.27-.44-.18Z"/><path class="cls-2" d="M207.47,141.4c-.42-.24-.95.01-1.38.13-.43.12-.85.28-1.27.42-.42.14-.84.29-1.26.43-.49.17-.95.36-1.42.57-.31.14-.13.6.18.54.43-.07.85-.14,1.28-.26.51-.14,1.01-.27,1.52-.41.42-.11.85-.21,1.26-.35.43-.14,1.01-.23,1.23-.67.08-.15,0-.33-.14-.41Z"/><path class="cls-2" d="M203.59,149.99c-.17-.46-.35-.9-.56-1.34-.2-.41-.39-.82-.59-1.22-.11-.23-.21-.46-.36-.67-.14-.18-.29-.35-.43-.53-.21-.26-.55.02-.51.28.03.23.05.47.09.7.05.24.16.48.25.71.15.41.31.83.46,1.24.17.44.36.86.56,1.29.17.36.5,1.07,1.01.87.52-.21.22-.96.08-1.33Z"/><path class="cls-2" d="M197.62,145.98c-.43.29-.8.69-1.18,1.04-.39.37-.75.79-1.11,1.18-.36.39-.73.77-1.08,1.16-.4.45-.87.96-.82,1.6.02.19.24.38.43.37.62-.03,1.06-.54,1.44-.98.36-.41.7-.83,1.04-1.25.34-.4.69-.8,1.01-1.22.32-.43.67-.87.91-1.34.22-.44-.22-.84-.64-.56Z"/><path class="cls-2" d="M196.28,141.32c-.1-.19-.27-.37-.41-.53-.19-.21-.48-.36-.72-.52-.21-.15-.42-.3-.64-.43-.36-.22-.73-.45-1.09-.68-.21-.13-.39-.24-.63-.3-.22-.05-.44-.12-.66-.18-.33-.1-.57.28-.36.55.13.17.27.35.39.53.14.21.34.36.54.51.35.26.69.52,1.04.78.27.2.55.37.82.56.22.15.42.29.67.38.38.13.8.22,1.19.15.08-.02.12-.11.11-.18-.04-.23-.15-.42-.26-.63Z"/><path class="cls-2" d="M36.23,117.26c.12.21.41.31.62.43.24.12.48.24.72.35.47.21.96.39,1.45.54.5.15,1,.26,1.52.33.49.07,1.09.2,1.58.07.27-.07.4-.49.08-.6-.46-.16-.99-.14-1.47-.22-.51-.09-1.01-.2-1.51-.33-.48-.13-.96-.29-1.42-.47-.23-.09-.46-.19-.69-.3-.24-.11-.43-.25-.7-.24-.23,0-.27.28-.18.44Z"/><path class="cls-2" d="M42.01,111.15c-.24.42.01.95.13,1.38.12.43.28.85.42,1.27.14.42.29.84.43,1.26.17.49.36.95.57,1.42.14.31.6.13.54-.18-.07-.43-.14-.85-.26-1.28-.14-.51-.27-1.01-.41-1.52-.11-.42-.21-.85-.35-1.26-.14-.43-.23-1.01-.67-1.23-.15-.08-.33,0-.41.14Z"/><path class="cls-2" d="M50.61,115.03c-.46.17-.9.35-1.34.56-.41.2-.82.39-1.22.59-.23.11-.46.21-.67.36-.18.14-.35.29-.53.43-.26.21.02.55.28.51.23-.03.47-.05.7-.09.24-.05.48-.16.71-.25.41-.15.83-.31,1.24-.46.44-.17.86-.36,1.29-.56.36-.17,1.07-.5.87-1.01-.21-.52-.96-.22-1.33-.08Z"/><path class="cls-2" d="M46.59,121c.29.43.69.8,1.04,1.18.37.39.79.75,1.18,1.11.39.36.77.73,1.16,1.08.45.4.96.87,1.6.82.19-.02.38-.24.37-.43-.03-.62-.54-1.06-.98-1.44-.41-.36-.83-.7-1.25-1.04-.4-.34-.8-.69-1.22-1.01-.43-.32-.87-.67-1.34-.91-.44-.22-.84.22-.56.64Z"/><path class="cls-2" d="M41.93,122.34c-.19.1-.37.27-.53.41-.21.19-.36.48-.52.72-.15.21-.3.42-.43.64-.22.36-.45.73-.68,1.09-.13.21-.24.39-.3.63-.05.22-.12.44-.18.66-.1.33.28.57.55.36.17-.13.35-.27.53-.39.21-.14.36-.34.51-.54.26-.35.52-.69.78-1.04.2-.27.37-.55.56-.82.15-.22.29-.42.38-.67.13-.38.22-.8.15-1.19-.02-.08-.11-.12-.18-.11-.23.04-.42.15-.63.26Z"/><path class="cls-1" d="M88.83,63.32c-4.34,5.17-7.41,12.34-5.9,19.17,1.01,4.59,4.55,8.04,9.44,7.19,6.42-1.12,9.23-7.39,12.08-12.46,3.99-7.1,10.35-11.17,18.36-12.45,10.45-1.68,16.53,5.64,16.06,15.48-.43,8.8-5.52,14.99-11.45,21-8.95,9.06-21.25,21.27-15.2,35.34,2.5,5.81,8.62,9.15,14.72,9.79,3.95.42,8.62-.27,12.11-2.22,4.68-2.61,7.92-9.11,3.3-13.41-1.15-1.07-2.62-1.72-4.18-1.85-1-.08-1.65.14-2.65.27-3.85.5-5.95-.32-5.8-4.23.14-3.62,2.77-6.67,5.1-9.2,3-3.27,6.14-6.42,9.21-9.62,10.03-10.48,23.9-23.71,19.76-39.96-3.69-14.48-19.85-23.98-34.09-24.63-16.57-.75-32.5,9.96-41.61,23.17-.31.45,1.58.79,1.91.31,8.59-12.46,23.89-23.47,39.66-22.68,14.48.72,31.5,11.82,32.76,27.36,1.24,15.31-11.22,26.65-20.79,36.64-4.36,4.55-10.74,9.41-13.15,15.41-1.32,3.28-.95,8.09,3.19,8.87,3.33.63,6.69-2.22,9.42.95,2.35,2.73,1.79,6.55-.29,9.23-3.22,4.16-9.61,5.54-14.52,4.68-8.29-1.47-13.49-8.01-13.44-16.4.08-15.2,14.33-23.56,22.68-34.33,6.26-8.07,8.95-23.32-1.61-29.21-9.24-5.15-23.34.07-29.26,8.09-2.07,2.8-3.36,6.06-5.23,8.98-.96,1.5-2.04,2.85-3.42,3.99-1.9,1.57-1.94,1.26-4.95,1.26-2.97,0-3.7.18-5.03-2.28-3.84-7.1.04-16.33,4.75-21.94.33-.39-1.52-.77-1.91-.31h0Z"/><path class="cls-1" d="M119.53,158.7c-5.05,6-.93,13.87,5.59,16.48,5.42,2.18,12.75,1.8,17.08-2.49,2.39-2.37,3.54-5.99,2.66-9.28-.96-3.59-4.61-5.9-7.82-7.31-5.87-2.57-12.83-2.08-17.45,2.63-.31.32,1.49.67,1.92.23,9.41-9.6,29.85,3.74,18.38,13.8-9.1,7.99-27.43-3.15-18.43-13.83.31-.37-1.53-.7-1.92-.23h0Z"/><path class="cls-1" d="M85.9,71.11c.05,5.34.09,10.67.14,16.01,0-.1.37-.2.4-.3,1.44-6.41,2.23-12.87,2.36-19.44,0,.1-.39.19-.4.3-.43,6.71.26,13.25,2.1,19.72-.02-.06.39-.23.4-.3.9-8.41,1.79-16.81,2.69-25.22-.01.11-.37.19-.4.3-1.94,8-.97,16.1,2.83,23.41-.02-.03.39-.25.4-.3,1.65-9.29,1.68-18.64.1-27.94.01.08-.38.21-.4.3-.55,4.26-.72,8.54-.38,12.83.2,2.51.08,8.3,3.67,8.34.05,0,.38-.26.4-.3,2.56-8.62,3.24-17.49,2-26.4,0,.07-.36.23-.4.3-3.27,7.34-3.24,15.38.09,22.69-.01-.03.37-.25.4-.3,4.24-8.13,6.58-16.91,6.97-26.07,0,.05-.29.22-.34.26-6.44,5.02-4.61,16.41-2.99,23.26-.01-.06.37-.23.4-.3,2.43-8.27,4.86-16.54,7.28-24.81-.03.11-.32.21-.4.3-3.13,3.64-4.86,8.16-4.73,12.99.04,1.61.16,6.78,2.56,6.19,1.89-.47,3.06-5.3,3.66-6.66,1.85-4.2,6.72-11.18,4.37-15.76,0,0-.36.27-.4.3-5.75,5.18-5.3,13.39-4.58,20.46,0-.05.35-.26.4-.3,5.69-5.21,8.77-12.32,8.67-20.04,0,.05-.34.25-.39.3-5.2,4.32-6.93,11.36-4.32,17.6,0-.02.35-.27.39-.3,3.52-3.13,6.45-6.81,8.49-11.08.5-1.04,2.99-5.62,2.36-6.6-.6-.93-2.35.23-2.92.64-5.38,3.83-5.7,13.77-4.56,19.5,0-.04.35-.26.4-.3,4.77-5.18,8.67-11.04,11.42-17.54.83-1.97.71-1.95-1.06-.8-.29.19-.6.42-.89.64-.37.28-.74.57-1.08.89-1.73,1.61-3.03,3.66-3.79,5.9-.61,1.8-1.67,6.82-.08,8.42.73.73,4.06-2.12,5.12-3.08,1.96-1.75,3.65-3.81,5.01-6.06.77-1.28,1.44-2.64,1.97-4.04.2-.53.38-1.06.55-1.6.44-1.42.89-1.59-.53-1.19-1.52.43-3.58,2.23-4.76,3.33-1.95,1.83-3.5,4.08-4.55,6.53-.56,1.32-.97,2.67-1.21,4.08-.12.7-.2,1.41-.24,2.12-.08,1.61-.29,1.41,1.05,1.3,2.77-.22,5.95-2.61,8.12-4.29,1.34-1.04,2.59-2.17,3.72-3.44.78-.87,5.66-6.74,4.83-7.99-.51-.77-5.38,2.51-6.5,3.42-3.44,2.77-7.71,8.64-6.85,13.41.24,1.35-.68.99,1.19.56.7-.16,1.73-.82,2.32-1.12,1.53-.79,3.01-1.66,4.44-2.61,1.13-.74,2.22-1.54,3.28-2.37,1.59-1.24,7.33-5.23,5.54-7.77-1.07-1.52-3.12.56-4.2,1.46-4.48,3.75-7.66,8.99-8.89,14.7-.25,1.15-.64,1.26.29,1.52.62.17,1.75-.46,2.37-.66,1.57-.5,3.09-1.12,4.56-1.85,1.7-.84,3.31-1.83,4.83-2.94.76-.55,1.51-1.14,2.22-1.75,1.13-.96,2.8-2.18,3.5-3.48.5-.94,1.31-.64,0-1.46-.46-.29-1.34-.18-1.84-.09-2.56.43-5.25,2.97-7.18,4.67-2.58,2.27-6.02,5.43-7.39,8.65-1.92,4.52,4.77,1.76,6.77,1.07,5.14-1.77,9.8-4.44,14.09-7.74,0,0,.14-.12.14-.11-4.63-3.2-11.49,3.16-15.12,6.25-1.33,1.14-3.2,2.46-3.58,4.27-.74,3.56,3.49,2.21,5.39,1.71,5.53-1.47,10.71-3.83,15.54-6.86.09-.06.3-.3.4-.3-6.32.03-12.34,2.57-16.76,7.08-1.18,1.2-4.51,4.29-2.58,5.92,1.47,1.24,5.71.56,7.46.22,3-.58,5.8-1.93,8.18-3.84.36-.29.67-.54,1.04-.88.55-.5,1.06-1.04,1.53-1.6-.38-.04-.75-.08-1.13-.13-1.16-.46-3.31-.06-4.52.1-3.8.5-7.41,1.98-10.5,4.24-.39.29-.79.6-1.16.9-.3.25-.59.5-.88.76-1.78,1.63-1.72,1.76.65,2.29,5.07,1.15,10.2-.14,14.37-3.14.05-.03.35-.31.39-.3-4.97-1.99-10.22.75-14.21,3.76-1.23.93-2.6,1.97-2.63,3.66-.08,4.84,12.84,2.35,15.16.39.67-.57,1.36-1.25.65-2.19-2.06-2.73-16.94,2.24-15.7,7.26.67,2.72,6.42,2.16,7.96.78,3.63-3.23-1.37-4.99-4.19-4.8-2.32.15-4.87.87-6.65,2.45-1.75,1.55-2.36,3.87-.34,5.5,2.96,2.4,7.29.15,10.51-.3.05,0,.4-.27.4-.3-.1-6.28-11.14-1.85-12.36,2.54-1.89,6.81,7.66,6.34,6.67,1.72-1.28-5.99-12.45-2.48-7.98,2.7,2.06,2.39,5.58,1.2,7.7-.36.4-.3.79-.63,1.15-.97.35-.32,1.97-1.73,2.08-2.31.17-.94.39-.33-.65-.81-.59-.28-1.52-.31-2.16-.35-3.06-.2-6.11.84-8.47,2.78-2.45,2.01-5,7.64.13,8.09.05,0,.37-.25.4-.3,2.1-4.69-3.73-7.05-7.2-4.58-1.18.84-2.77,2.36-2.69,3.91.23,4.22,7.88,2.98,10.34,2.17.11-.03.3-.32.4-.3-3.81-.5-8.87-.48-12.14,1.92-.98.72-1.89,1.69-1.5,3.04,1.15,3.96,6.05,1.41,8.13-.06.07-.05.32-.31.39-.3-4.48-.59-9.43-.85-13.03,2.33-.28.24-.56.5-.81.77-.49.54-1.15,1.36-1.34,2.1-.45,1.72-.58,1.07.82,1.37,3.47.75,8.9-2.26,11.71-3.97.13-.08.26-.26.4-.3-4.81,1.49-9.16,4.16-12.53,7.93-.39.43-.77.87-1.12,1.33-.95.71-1,1.05-.13,1.03.69.53,2.59.21,3.39.13,2.09-.2,4.09-.9,5.85-2.04.8-.51,1.45-1.09,2.16-1.71,0,0,0,0,0,0-3.61.31-6.92,2.05-9.16,4.89-2.18,2.75-3.89,7.84,1.47,6.84,1.91-.36,3.68-1.22,5.25-2.34,1.29-.92,2.45-2.02,3.36-3.32.2-.28,1.22-1.73,1.12-1.93-.14-.27-2.84,1.08-3.06,1.2-.61.34-.69.43-1.07.7-2.88,2-8.9,10.78-2.49,11.53,3.15.37,6.52-2.61,8.15-5.03,1.41-2.1,1.68-6.07-1.86-4-.41.24-.82.61-1.16.91-3.87,3.54-4.05,14.15,2.87,9.28.69-.49,1.35-1.05,1.93-1.66,1.25-1.31,2.23-2.89,2.83-4.6.58-1.64,1.81-5.36-1.06-3.82-2.99,1.6-5.25,9.33-.9,10.45,4.96,1.27,6.33-5.66,6.48-8.76,0,0,0,0,0,0-.37.25-.87.56-1.24.88-1.31,1.14-4.16,7.09-1.24,6.47,2.9-.62,4.3-4.66,3.93-7.05.01.08-.41.22-.4.3.3,1.96-.36,6.21-3.14,6.45-1.48.13-1.3-.23-1.18-1.83.07-.92.37-2.29,1-3.01,2.18-2.49,1.82,1.06,1.29,2.66-.77,2.32-3.29,4.73-5.86,3.3-2.79-1.55-1.57-9.81,1.69-9.95,2.02-.09.42,3.91-.17,5.22-1.07,2.36-3.61,5.94-6.39,6.02-4.18.12-3.2-5.87-1.9-8.27.78-1.45,3.67-5,5.17-2.56,1.09,1.77-1.55,4.65-2.7,5.79-3.36,3.31-10.12,3.66-8.06-2.79.55-1.73,1.58-3.35,2.87-4.62.68-.67,2.9-2.48,4.21-2.59,1.23-.62,1.41-.39.54.69-.38.64-.8,1.25-1.28,1.82-1.39,1.64-9.89,7.5-10.89,2.7-.35-1.68,1.31-4.15,2.28-5.37,1.13-1.41,2.58-2.56,4.22-3.3.96-.43,5.4-2.08,1.79.71-1.64,1.27-4.58,1.61-6.57,1.52.06,0-2.17-.1-2.25-.3-.14-.32,1.96-2.44,2.2-2.7,2.39-2.55,5.72-5.02,9.15-6.15,3.69-1.21-1.99,1.31-3.01,1.66-.82.28-6.82,2.17-7.34,1.34-1.05-1.66,3.66-5.04,4.27-5.33,2.05-1,4.36-1.17,6.61-1.1,1.1.04,3.86-.47,2.07,1.57-.95,1.09-3.51.89-4.57.16-5.47-3.73,5.23-6.13,7.65-6.2.35-.01,2.96-.27,3.03.38.02.16-2.31.39-2.65.4-1.87.08-5.89-.11-6.43-2.52-1-4.47,6.56-6.64,8.89-3.04.82,1.26,1.29,4.36-1.12,3.04-1.9-1.04-1.4-3.75-.54-5.23,1.35-2.32,4.01-3.73,6.56-4.28,1.32-.28,4.86-.8,5.96.27.67.65-.27,1.26-1.08,2.07-1.55,1.54-3.2,2.88-5.38,2.95-2.24.08-4.48-1.32-4.45-3.78.05-4.27,7.36-3.07,8.09.34.87,4.08-6.49,3.73-6.06-1.35.31-3.75,7.37-8.05,10.77-5.21,2.7,2.25-2.41,2.95-4,3.2-1.97.3-4.48.26-5.82-1.54-3.54-4.74,5.74-7.11,8.94-6.69,1.89.25,4.35,1.45,3.03,3.79-1.1,1.95-5.36,1.96-7.08.87-4.94-3.14,6.6-7.88,9.28-8.32,1.12-.18,3.7-.74,4.64.41,1.86,2.29-4.21,3.12-5.28,3.31-2.65.47-11.7,2.01-9.41-3.47.95-2.28,5.4-4.34,7.74-5.24,1.2-.47,6.03-2.06,6.88-.64,1.75,2.92-10.19,3.72-11.72,3.49-.68-.1-2.91-.33-3.38-.89-.3-.36,4.37-3.79,5.81-4.55,2.17-1.14,4.54-1.91,6.96-2.28,1.3-.2,5.09-.93,6.2-.06.98.76-7.11,5.01-8.88,5.47-1.79.46-3.66.66-5.5.55-3-.17-4.59-.93-2.64-3.82,3.07-4.57,8.27-7.66,13.62-8.7.43-.08,3.07-.71,3.38-.38.84.87-1.11,1.3-1.85,1.7-2.3,1.26-4.7,2.35-7.16,3.26-1.98.74-11.4,4.75-10.39-.12.2-.97.95-1.77,1.58-2.48,2.22-2.49,5.26-4.47,8.1-6.18,1.69-1.02,3.69-2.24,5.75-2.16,4.54.18-2.23,4.16-3.72,4.97-2.32,1.26-4.74,2.34-7.24,3.19-1.5.51-4.3,1.84-5.82,1.53-3.23-.66.11-4.26,1.24-5.72,1.3-1.67,2.72-3.24,4.26-4.68-1.57,1.48,8.48-8.22,9.95-4.32.12.33-2.2,2.49-2.46,2.75-1.92,1.91-4.1,3.55-6.45,4.9-2.14,1.22-4.42,2.2-6.78,2.9-.4.11-.79.22-1.19.33-1.23.68-1.57.4-1.01-.83-.12-.88.58-2.45.86-3.27.59-1.78,1.38-3.51,2.34-5.12,1.14-1.94,2.53-3.76,4.14-5.33-1.35,1.33,3.75-4.57,4.95-2.68.45.71.37,1.47.14,2.23-.84,2.88-4.82,5.37-6.98,6.89-1.85,1.3-5.45,4.18-7.82,4.45-1.39.16-.78,1.27-1.19-.56-.2-.88.2-2.31.39-3.17.54-2.44,1.63-4.75,3.11-6.75,1.59-2.16,3.65-3.98,6.07-5.17.28-.14,2.76-1.37,3-1.12.2.2-1.21,2.76-1.35,3.02-2.86,5.38-7.73,9.67-13.48,11.73-.35.12-.7.23-1.05.35-1.05.67-1.41.41-1.08-.77-.24-.81.19-2.37.35-3.18.36-1.74.97-3.43,1.8-5.01,1.57-2.99,3.93-5.62,6.89-7.31,1.34-.76,1.79-1.65,1.64.15-.08.94-.77,2.32-1.14,3.18-.89,2.07-2.07,4.01-3.47,5.78-.7.88-1.45,1.73-2.26,2.51-1.34,1.05-2.68,2.11-4.03,3.16-.82.91-1.25.78-1.3-.39-2.01-3.01.28-9,2.05-11.56.78-1.13,1.55-1.8,2.64-2.66.46-.36.92-.72,1.38-1.08,1.11-.8,1.26-.55.44.74-.31,2.21-2.26,4.96-3.35,6.87-1.05,1.85-2.2,3.64-3.45,5.36-.75,1.03-1.53,2.04-2.34,3.03-1.38,1.67-1.84,2.66-2.54.18-1.11-3.91.41-9.44,2.07-13,.48-1.04,3.24-6.26,5.03-4.15.57.67-1.97,5.78-2.36,6.6-.84,1.75-6.64,11.86-8.64,9.33-2.31-2.92-.15-9.65,1.49-12.35.26-.42.75-1.32,1.18-1.67l.68-.77c1.15-.32,1.52.07,1.11,1.19.45,1.81-.71,4.92-1.28,6.62-.59,1.78-1.38,3.5-2.35,5.12-.58.97-1.22,1.9-1.92,2.78-.75.95-1.78,2.98-2.82,1.91-.8-.83-.33-5.3-.3-6.45.04-1.76.19-3.53.58-5.24.44-1.96,1.16-3.86,2.34-5.5,2.27-3.15,2.63.47,2.08,2.66-1.17,4.68-3.94,9.31-5.89,13.72-.94,2.14-2.57,5.3-3.66,1.64-.72-2.43-.83-5.06-.46-7.56.26-1.8.78-3.56,1.54-5.21.41-.88.93-2.13,1.63-2.83,1.55-1.54.44.27.16,1.36-1.4,5.56-3.24,11.04-4.86,16.54-.61,2.09-1.18,6.26-1.93,1.82-.43-2.51-.64-5.05-.62-7.6.02-2.36.14-4.8.82-7.07.26-.86.58-1.68,1.02-2.46.24-.47.53-.9.87-1.3,1.18-.16,1.52.33,1.02,1.49.47,2.14-.65,5.58-1.09,7.7-.44,2.11-1,4.21-1.67,6.26-.69,2.13-1.44,5.48-2.89,7.21-1.18,1.41-.76,1.48-1.74-.26-.66-1.17-.9-2.85-1.14-4.16-.76-4.01-1.12-10.3,1.07-13.99.94-1.58.39-1.19.81.01.33.95.23,2.33.29,3.32.18,3.11.12,6.23-.18,9.33-.22,2.21-.56,4.42-1.02,6.59-.33,1.56-.86,6.52-3.05,3.86-1.37-1.67-1.33-4.65-1.51-6.66-.24-2.7-.3-5.41-.18-8.11.03-.54.62-3.7.33-4.05.31.37.35,2.63.41,3.13.29,2.32.47,4.66.55,7,.09,2.81.03,5.62-.18,8.42-.11,1.4-.25,2.8-.43,4.19-.16,1.24.19,3.5-1.12,2.15-1.31-1.36-1.85-4.82-2.24-6.6-.55-2.48-.81-5.03-.76-7.57.03-2.01.14-4.36.74-6.3-.9,2.93-.88,6.38-1.2,9.45-.26,2.47-.53,4.95-.79,7.42-.16,1.47-.21,3-.47,4.45-.34,1.93-.13,1.83-.66-.09-.76-2.72-1.12-5.62-1.35-8.43-.08-.95-.13-1.9-.15-2.84-.03-.95-.03-1.9,0-2.85.4-1.4.31-1.78-.28-1.14-.58.35-.5,7.38-.62,8.38-.28,2.32-.66,4.63-1.11,6.92-.59,2.95-.24.32-.22-.47.03-1.45-.03-2.91-.04-4.37-.03-2.91-.05-5.82-.08-8.73,0,.1-.4.2-.4.3h0Z"/><path class="cls-1" d="M119.85,165.02c.6-1.3,1.27-2.8,2.3-3.83.61-.97,1.53-1.48,2.75-1.53-.14.77-.35,1.53-.62,2.26-.47,1.3-1.18,3.24-2.15,4.25-.25,1.12-.58,1.33-.99.63,0-.72.11-1.43.32-2.12.51-1.82,3-6.63,5.03-7.14,2.9-.73,3.04,4,2.77,5.68-.24,1.49-.84,2.9-1.51,4.24-.4.79-1.58,3.61-2.41,3.95-2.53,1.04-.5-3.54-.03-4.57.58-1.28,1.34-2.48,2.25-3.54,1.03-1.21,2.25-2.21,3.66-3,.8-.78,1.28-.61,1.46.51,1.63,2.41-1.22,6.5-2.35,8.48-.46.81-1.46,3.59-2.38,3.08-.59-.33-.12-3.78-.04-4.35.42-2.82,1.7-5.74,3.74-7.77,1.88-1.87,2.83-1.71,4.08.38.53.87.79,1.92.88,2.93.09,1-1.6,8.89-3.3,7.84-2.8-1.74,7.42-16.49,7.11-5.79-.04,1.39-.41,2.78-1.06,4.01-.68,1.31-2.11,3.06-2.43.74-.16-1.16,1.02-2.99,1.72-3.82,1.04-1.25,4.19-3.68,3.34-.67.04-.13.36-.17.4-.3.28-.99.2-1.31-.52-2.05,0,0-.07.05-.06.04-3.01,2.26-5.75,5.1-5.16,9.18,0-.04.33-.25.37-.28,2.24-1.77,3.71-4.23,3.8-7.15.08-2.54-.4-4.78-3.05-3.1-2.29,1.45-7.39,7.77-4.25,9.9.02.01.37-.27.4-.3,2.07-3.2,4.29-7.19,2.44-11.02-.75-1.55-1.71-2.52-3.27-1.84-5.02,2.2-6.29,10.2-5.29,14.8-.01-.05.36-.24.4-.3,1.67-2.93,6.88-9.27,4.89-12.93-.85-1.57-2.03-.24-3.25.65-.09.07-.18.14-.27.21-2.13,1.64-3.82,3.77-4.84,6.27-.4.97-2.01,4.88.13,4.3,1.42-.39,2.72-3.63,3.29-4.77.92-1.83,3.57-10.87-1.26-9.92-.33.06-.7.46-.99.66-3.01,2.13-5.37,6.68-5.04,10.29,0-.07.35-.24.4-.3,1.97-3.05,3.74-6.05,4.2-9.7,0,0,0,0,0,0-2.6,1.9-4.61,4.14-5.98,7.13.06-.13.33-.17.4-.3h0Z"/></g></svg>