<?xml version="1.0" encoding="UTF-8"?><svg id="Layer_2" xmlns="http://www.w3.org/2000/svg" xmlns:xlink="http://www.w3.org/1999/xlink" viewBox="0 0 123.8 114.41"><defs><style>.cls-1{fill:url(#_未命名漸層_5);opacity:.5;}.cls-1,.cls-2,.cls-3{stroke-width:0px;}.cls-4{stroke-width:1.44px;}.cls-4,.cls-5,.cls-6,.cls-7{stroke:#a98d72;}.cls-4,.cls-8,.cls-6{stroke-linecap:round;stroke-linejoin:round;}.cls-4,.cls-8,.cls-6,.cls-7{fill:none;}.cls-5{fill:#fff;stroke-width:.48px;}.cls-5,.cls-7{stroke-miterlimit:10;}.cls-8{stroke:#5289b1;}.cls-8,.cls-6{stroke-width:1.92px;}.cls-2{fill:#f2eeea;}.cls-3{fill:#5289b1;}.cls-7{stroke-width:.96px;}</style><linearGradient id="_未命名漸層_5" x1="88.01" y1="90.86" x2="94.63" y2="104.81" gradientUnits="userSpaceOnUse"><stop offset="0" stop-color="#a98d72"/><stop offset="1" stop-color="#a98d72" stop-opacity="0"/></linearGradient></defs><g id="Design"><polygon class="cls-1" points="101.64 84.1 123.8 92.79 83.34 114.41 59.63 104.54 101.64 84.1"/><circle class="cls-8" cx="67.71" cy="5.28" r="4.32"/><path class="cls-8" d="M21.15,20.19c0,1.86-1.51,3.36-3.36,3.36s-3.36-1.51-3.36-3.36,1.51-3.36,3.36-3.36,3.36,1.51,3.36,3.36Z"/><line class="cls-6" x1=".96" y1="51.79" x2="6.74" y2="51.79"/><line class="cls-6" x1="3.85" y1="54.68" x2="3.85" y2="48.9"/><line class="cls-6" x1="44.33" y1="16.67" x2="49.63" y2="16.67"/><line class="cls-6" x1="46.98" y1="19.32" x2="46.98" y2="14.02"/><polygon class="cls-2" points="59.63 54.66 101.64 36.28 101.64 83.54 59.63 104.54 15 83.54 15 36.28 59.63 54.66"/><polygon class="cls-2" points="101.64 36.28 58.32 21.84 15 36.28 59.61 54.68 101.64 36.28"/><polyline class="cls-7" points="101.64 36.28 59.61 54.68 15 36.28"/><line class="cls-7" x1="36.32" y1="45.06" x2="77.68" y2="28.29"/><line class="cls-7" x1="59.63" y1="104.54" x2="59.63" y2="54.66"/><polygon class="cls-4" points="58.32 21.84 15 36.28 15 84.1 59.63 104.54 101.64 84.1 101.64 36.28 58.32 21.84"/><path class="cls-3" d="M31.97,75.65l-.16-.05c-.21-.07-.43-.16-.64-.29-.21-.13-.33-.22-.36-.28-.07-.16-.13-.29-.18-.37-.35-.68-.53-1.3-.53-1.87v-.21c.11-.74.25-1.34.44-1.79.25-.6.46-1.02.63-1.24l.22-.35c.29-.47.46-.74.49-.81.03-.07.07-.09.09-.09s.05-.01.05-.06c0-.05.08-.13.21-.24.36-.3.61-.44.74-.44.14,0,.27,0,.41-.04.14-.03.23-.04.28-.03.04.01.13.07.28.16.29.21.44.33.44.37s0,.07.01.1l.04.18s-.02.05-.05.05c-.03,0-.05.03-.05.07s-.05.09-.14.14c-.09.05-.14.11-.14.17-.02.1-.27.29-.74.57-.16.08-.31.22-.45.4-.15.18-.23.33-.26.45,0,.1-.05.2-.15.3-.1.1-.15.18-.15.24s-.04.14-.12.23c-.08.09-.15.21-.2.36l-.09.19c-.18.38-.32.76-.41,1.13-.16.56-.23,1-.23,1.3,0,.2.03.32.1.34s.21,0,.42-.03c.21-.04.44-.11.69-.2.25-.09.43-.18.55-.27l.38-.22c.92-.57,1.64-1.03,2.15-1.38.2-.15.34-.22.39-.2,0,.05-.11.15-.34.29-.22.15-.34.24-.34.28h0s-.04.06-.12.08c-.08.02-.12.04-.12.06v.03c0,.1-.04.14-.12.12h-.01c-.12-.04-.21,0-.29.11l-.06.04h.09s.01.02.01.03c0,.02-.03.03-.1.04-.07,0-.1.01-.1.02s.02.02.07.03.07.03.07.05c0,.02-.04.05-.08.08-.04.04-.07.06-.07.07.07.02.55-.28,1.43-.91.18-.13.32-.22.44-.28.08-.04.12-.07.12-.1h0s.06-.1.18-.19c.12-.09.21-.17.29-.25.08-.08.13-.11.16-.1,0,0,.02,0,.02.01,0,0,0,.02,0,.04l-.03.05s-.07.08-.07.12-.09.15-.26.31c-.17.12-.25.21-.25.25h.01s.09-.04.23-.12h.06s.01,0,.01,0c0,.08-.19.3-.57.65-.04.03-.07.06-.09.09-.02.03-.03.05-.03.06h0s-.02.05-.07.1c-.05.05-.11.1-.19.16-.08.06-.14.12-.17.16-.04.04-.06.08-.06.1,0,.03-.16.17-.48.42-.32.25-.48.42-.48.51v.11c0,.08-.03.13-.1.14-.14.06-.29.16-.47.3-.28.21-.5.35-.65.44-.15.08-.31.14-.49.16-.23.05-.37.1-.42.13-.1.07-.28.08-.54.02ZM33.41,73.68l.12-.04-.03-.04s-.04,0-.07.02c-.03.02-.04.03-.04.04l.03.02ZM33.85,73.47s.03,0,.07-.02c.04-.01.07-.03.1-.04l.03-.02-.03-.04s-.05-.05-.09-.06h-.01s.01.06.01.06c0,.03-.03.05-.05.07-.02.02-.04.03-.04.04ZM34.13,73.28s.04,0,.04-.05c0-.02,0-.03-.03-.04h-.03s-.03.03-.03.04c0,.02.01.03.04.04ZM34.26,73.2s.02-.01.04-.04c.01-.03.02-.05.02-.06s0-.02-.01-.02h-.01s-.06.03-.06.07c0,.03,0,.05.01.05h.01ZM34.62,73.6s.04,0,.08,0c.04,0,.09-.02.15-.05.05-.02.1-.06.15-.11.05-.05.07-.09.07-.11-.03,0-.13.03-.29.13-.12.08-.18.12-.18.13s0,.02.01.02ZM35.25,73.26s.12-.04.23-.16c.08-.09.12-.14.12-.15v-.02s-.04,0-.09.03c-.05.03-.1.06-.15.11-.05.05-.08.08-.1.11-.02.02-.03.04-.03.05,0,.01,0,.02.01.02ZM35.79,72.98s.02,0,.03-.02c0-.02.02-.04.03-.08,0-.02-.02-.05-.06-.08-.03,0-.04.02-.04.08s.01.1.04.11ZM35.89,72.78s.04,0,.07,0c.03-.01.04-.04.04-.09,0-.01,0-.02-.03-.02s-.04,0-.07.03c-.03.03-.04.05-.04.07,0,.01,0,.02.03.02Z"/><path class="cls-3" d="M38.19,77.78c-.08-.02-.14-.05-.2-.08-.05-.03-.12-.06-.2-.09-.19-.08-.4-.19-.61-.32-.21-.14-.38-.26-.5-.36-.05-.05-.11-.13-.2-.24-.08-.12-.16-.24-.24-.38-.35-.62-.53-1.25-.53-1.92,0-.3.01-.53.04-.71.03-.18.05-.33.06-.46.03-.21.08-.41.15-.58l.09-.31c.13-.49.29-.83.5-1.03,0-.02.06-.08.14-.18.08-.1.2-.26.34-.48.94-1.36,1.85-2.02,2.73-1.98.15.01.26.02.34.03.08,0,.28.06.61.15.21.06.38.16.49.27.11.12.24.32.37.6.05.1.08.18.09.26,0,.08.01.18.01.3-.05.49-.16.85-.34,1.07-.08.11-.12.18-.12.22s-.01.05-.03.04-.04.01-.07.05c-.03.04-.06.08-.1.13-.09.16-.19.28-.29.37-.11.09-.22.2-.34.34-.25.31-.7.52-1.33.62-.43.07-.75.08-.96.01-.09-.03-.16-.07-.22-.12-.06-.05-.12-.1-.18-.15-.14.17-.23.31-.27.42-.04.11-.1.3-.17.56l-.12.35c-.15.43-.22.91-.22,1.43,0,.38.03.6.1.67.07.07.19.13.35.18.37.11.74.07,1.12-.13l.47-.24c.4-.21.62-.35.66-.39.04-.05.13-.1.27-.16.22-.11.49-.31.8-.6.36-.36.58-.53.66-.5.03,0,.09-.05.18-.18.09-.13.15-.19.18-.18s.04.02.04.03v.06s-.01.01-.01.01c0,.01,0,.02.01.02s.03,0,.05-.01c.02-.01.04-.05.04-.11,0-.01-.02-.02-.04-.03s-.02-.01-.02-.02c0-.02.01-.04.04-.07.02-.02.05-.03.07-.03,0,0,.02.02.04.05.01.03.02.05.02.06,0,.12-.23.36-.7.7-.21.16-.32.25-.32.27v.03s-.06.05-.09.07c-.03.03-.08.06-.13.11-.05.05-.1.1-.15.16-.22.22-.55.46-.96.72-.12.07-.18.11-.18.15h.01c.11,0,.38-.13.82-.37.2-.13.43-.3.67-.5.1-.07.18-.13.26-.18.07-.05.15-.1.22-.16.07-.06.2-.19.39-.39.05-.06.12-.13.22-.21.1-.08.23-.2.41-.36.13-.11.22-.19.28-.22h.06s-.09.14-.28.32c-.29.28-.51.47-.66.58l-.58.52-.04.09s0,.01-.01.01l-.13-.07s-.02,0-.03.02l.03.21s0,.03-.01.03v-.02s-.04-.02-.06-.03c-.04-.01-.08,0-.12.06,0,0-.01.03-.01.07v.03s-.01-.02-.01-.02c0,0-.03,0-.06.03-.07.05-.13.13-.18.25v.09s.11-.05.28-.17c.17-.12.25-.2.25-.23s.07-.09.2-.17c.06-.03.1-.07.13-.1l.04-.08s.03-.03.09-.04c.06,0,.1-.04.12-.1.02-.06.07-.12.15-.18.04-.02.07-.04.08-.07.01-.03.02-.06.02-.1s.03-.07.09-.1c.12-.09.35-.31.69-.68l.03-.02c.12-.12.19-.19.22-.21.03-.02.07-.06.11-.1.04-.05.09-.09.12-.13.16-.16.25-.23.28-.22h0c0,.07-.03.13-.1.21-.12.16-.21.26-.28.31l-.06.06c-.1.14-.32.37-.67.68-.06.02-.09.05-.09.08s-.12.2-.36.5c-.24.3-.4.49-.49.55-.03.02-.11.1-.23.25l-.39.4c-.15.11-.22.19-.22.23s-.07.12-.2.22l-.72.47c-.3.21-.55.36-.74.43-.19.07-.45.09-.76.04ZM37.98,72.56c.09.03.25.01.48-.04.37-.07.65-.16.83-.25.18-.1.37-.25.58-.47.25-.26.44-.47.56-.62.12-.16.24-.34.34-.54.09-.16.15-.29.18-.4.03-.11.05-.23.05-.37,0-.23,0-.35-.03-.36,0,0-.1.05-.28.14-.22.13-.37.2-.45.21-.11.04-.24.11-.39.22-.42.28-.63.46-.63.54,0,0-.01.03-.04.05-.02.02-.05.05-.08.08-.09.04-.13.08-.13.12s-.03.08-.09.13c-.06.05-.13.13-.22.25-.23.3-.35.48-.35.57s-.06.21-.18.39c-.12.18-.18.29-.18.33,0,0,0,.02.03.02ZM40.3,76.24s.08,0,.14-.06c.06-.05.09-.08.09-.1l-.03-.02s-.08,0-.14.04c-.06.04-.09.08-.09.12l.03.02ZM42.28,73.8h-.01s-.01-.02-.01-.04c0-.04.08-.12.23-.23.16-.12.23-.2.23-.24s.05-.08.15-.09c.1-.02.17-.05.22-.09.05-.05.07-.09.07-.13l-.03-.07h.01s.03.04.03.04c.02.02.03.04.03.07,0,.01,0,.03-.01.07,0,.04-.17.18-.48.43-.24.18-.38.28-.42.28Z"/><path class="cls-3" d="M46.91,81.1c-.11-.03-.18-.06-.23-.09s-.08-.06-.11-.09c-.03-.03-.04-.06-.04-.08s0-.04-.01-.05v-.02h-.04s-.06-.03-.08-.08c-.02-.04-.05-.07-.07-.07-.01,0-.01,0-.01.01h-.01s-.14-.11-.28-.28c-.14-.17-.23-.31-.28-.43-.05-.12-.07-.31-.07-.57v-.4c0-.2.03-.48.09-.84.03-.14.05-.23.05-.25,0-.02.02-.13.05-.31.03-.18.06-.31.09-.39v-.08l.12-.61c.03-.21.08-.46.15-.73v.03s-.07.09-.09.13c-.02.04-.03.08-.04.09l-.16.35c-.13.15-.22.33-.29.54l-.04.14s.01,0,.01.02,0,.02-.01.04c0,.02-.03.04-.05.05-.02.02-.04.03-.04.04v.04s0,.02,0,.03c-.01,0-.02.02-.04.04-.01.02-.03.05-.06.1-.02.04-.04.09-.06.13-.01.05-.03.09-.06.12-.02.03-.05.05-.07.05-.02,0-.04.02-.04.05v.07c.01.08-.01.17-.07.26-.09.13-.13.22-.13.28-.03.07-.05.11-.07.1s-.03,0-.04.02c0,.02,0,.04,0,.07-.04.1-.08.16-.13.19-.09.1-.16.2-.22.3-.09.18-.28.33-.57.47l-.23.16c-.05.06-.11.07-.18.05-.01,0-.02.02-.03.04-.01.02-.03.03-.07.03-.03,0-.07,0-.11-.02-.08-.02-.12-.04-.13-.06-.01-.02-.02-.04-.04-.05h-.09s-.08-.05-.12-.09c-.04-.04-.09-.12-.13-.22-.04-.1-.09-.16-.15-.18l-.04-.03s-.01,0-.01.01h0s.06.14.06.14v.05s-.08-.1-.19-.29c-.17-.31-.25-.53-.25-.64,0-.03.01-.05.04-.07.02-.01.04-.04.04-.08,0-.05-.02-.08-.06-.09s-.06-.03-.06-.06l-.03-1.14.03-.19s.01,0,.01.02c.03.05.05.08.07.08.04.01.06-.04.06-.17,0-.1,0-.16-.03-.16-.04-.01-.06.02-.06.08s-.01.09-.04.09c-.02,0-.02-.03-.01-.07l.04-.31c.03-.36.2-1.23.51-2.61.1-.4.16-.69.19-.89.02-.14.07-.34.14-.61.07-.27.16-.54.25-.8.09-.26.14-.4.14-.42l.19-.63.41-1.17c.03-.11.13-.33.29-.66l.09-.17.29-.83c.07-.25.12-.39.15-.41.04-.07.06-.12.06-.17.03-.1.08-.18.16-.23.08-.05.15-.06.2-.04l.26.13c.09.03.17.07.23.13.14.12.26.26.38.42.04.06.06.15.06.26,0,.21-.07.48-.2.81-.1.21-.16.38-.18.48-.02.11-.04.17-.07.19-.03.02-.04.05-.04.09s-.06.19-.19.47c-.06.12-.11.22-.17.31-.05.09-.08.17-.08.24s0,.1-.03.11c-.02,0-.15.34-.38.99l-.1.26c0,.08-.03.19-.1.34-.08.22-.12.37-.14.45-.01.08-.07.24-.15.48-.07.18-.13.39-.2.61-.06.22-.11.42-.14.58,0,.11-.03.27-.09.46l-.19.81c-.02.1-.04.14-.07.13s-.04.04-.04.14c0,.06-.05.2-.15.43v.09c0,.05-.01.09-.04.13-.03.04-.05.06-.06.08v.06s.01.01.01.03-.02.08-.06.17c-.06.19-.11.5-.15.93-.04.44-.06.84-.06,1.2,0,.13,0,.26.03.38.18-.06.28-.1.28-.13,0-.03.02-.06.05-.09.15-.11.25-.21.32-.29.07-.09.13-.15.19-.19.06-.04.09-.09.09-.13s.01-.06.04-.05c.03-.02.14-.19.32-.51.18-.32.3-.5.34-.52l.06-.06c.08-.13.13-.21.17-.25.03-.04.07-.06.09-.05s.04-.06.04-.2v-.08s.02.02.02.04c0,.03.01.05.02.06h.03s.03,0,.03-.01v-.05s0-.03,0-.02.07-.06.17-.21c.06-.11.1-.17.12-.16,0,0,.02.01.02.03,0,.02,0,.03,0,.04s0,.02,0,.04c0,.01-.02.02-.04.02-.02,0-.04.02-.04.07s-.05.18-.15.38c-.22.32-.4.65-.53.99l-.07.12s0,.02,0,.03c0,.01.01.02.02.02.04.01.09-.06.16-.21.09-.14.14-.2.15-.2s.02,0,.03-.02c0-.02.01-.04.02-.05,0-.06.02-.1.06-.1.04,0,.06-.02.06-.04v-.03s-.01-.02,0-.04c0-.01.02-.02.05-.03.03,0,.04-.04.04-.09s.09-.25.28-.58c.32-.63.53-1.07.61-1.34.02-.05.04-.1.07-.17.03-.07.06-.14.09-.23.03-.09.06-.19.09-.3,0-.03.02-.07.04-.14.01-.07.03-.13.06-.19.02-.06.07-.21.13-.45.06-.24.14-.51.23-.81l.38-1.38c.03-.09.06-.2.09-.32.03-.12.06-.22.09-.3.06-.21.1-.33.12-.38.02-.05.05-.13.08-.25.03-.12.06-.23.08-.33l.1-.35c.07-.14.14-.36.2-.66.21-.76.36-1.23.42-1.41l.04-.12s-.04,0-.09.01c-.05.01-.11.02-.18.04-.07.02-.13.03-.2.03-.06,0-.1,0-.12,0-.01,0-.01,0-.01-.02l.03-.02s.05-.02.12-.03c.07-.01.16-.05.26-.1.23-.14.35-.26.35-.36s.09-.18.26-.26c.11-.05.2-.06.28-.04.09.03.18.09.29.19.11.1.19.16.23.17.03,0,.05,0,.06,0,0,0,.02,0,.04,0,.03,0,.07.05.12.11.08.12.13.21.15.28.02.07.04.18.04.31,0,.28-.07.57-.19.87-.04.09-.1.26-.18.51-.2.57-.37,1.09-.5,1.58-.06.17-.09.27-.11.3-.01.04-.03.05-.05.05-.03,0-.08.09-.15.29-.07.2-.1.35-.1.43s-.03.17-.09.26l-.1.32c0,.09-.02.15-.06.17h-.06s0,.03.03.04.03.03.03.07c0,.05,0,.1-.01.16,0,.05-.02.1-.04.15-.02.05-.04.07-.06.07-.02,0-.03.01-.03.02s0,.02.01.02c0,0,.01,0,.01.02s0,.02-.03.04c-.04.08-.07.16-.09.25-.05.27-.14.57-.28.89-.08.22-.15.49-.2.79l-.04.23-.09.34c-.02.07-.03.13-.04.18,0,.05-.02.13-.04.23-.13.4-.2.68-.22.84-.02.16-.04.28-.07.37,0,.02-.02.05-.04.11-.01.06-.03.12-.04.19-.02.12-.04.22-.07.31-.03.09-.04.19-.04.29s-.02.25-.07.44c-.04.13-.07.3-.1.5-.08.55-.12.94-.12,1.17,0,.15,0,.23.01.23.03,0,.08,0,.16-.04.08-.04.14-.05.19-.03h.02s0,0,0,0,.02-.03.07-.07.11-.07.18-.11c.07-.04.13-.07.2-.09.06-.02.1-.03.11-.03.03,0,.04.03.04.07s0,.06.02.08.03.03.06.04.04.02.04.03v.02s0,.04-.03.07c-.05.09-.07.15-.07.18-.04.21-.11.34-.2.38-.04.03-.07.05-.08.07-.01.02-.02.05-.02.09v.05s0,.06-.04.07c-.04.02-.1.02-.18,0s-.13-.02-.16,0c-.02.04-.16.03-.41-.05ZM42.23,77.85s.04-.16.04-.43-.02-.42-.06-.43c-.02,0-.03.04-.03.14,0,.15,0,.29.01.42v.27l.03.02ZM42.28,76.4s.03-.01.06-.04c.03-.03.04-.09.04-.17s0-.12-.03-.13h-.03s-.02,0-.03.05c0,.04-.02.08-.03.12,0,.04-.02.07-.02.08,0,.02,0,.03,0,.04,0,.02.01.03.03.04h.01ZM42.33,75.96s.02,0,.03-.01c.01-.01.02-.04.04-.07.01-.04.02-.08.03-.13,0-.05.01-.1.02-.15,0-.05.02-.1.04-.14.02-.04.03-.09.04-.14,0-.05,0-.1,0-.14,0-.04-.01-.06-.02-.06-.03,0-.07.11-.12.36-.05.2-.07.35-.07.47,0,0,0,.02.01.02ZM42.64,74.69s.03,0,.03-.04,0-.05-.03-.05c-.03,0-.04,0-.04.03s.01.05.04.06ZM45.86,78.43v-.03c.06-.06.1-.17.12-.34.1-.49.15-.87.15-1.13v-.05s-.03.03-.03.1-.01.12-.04.13c-.02.02-.04.11-.05.27-.02.07-.03.13-.04.19-.01.06-.02.12-.03.2,0,.07-.02.15-.02.22,0,.07-.02.18-.05.33v.09s0,.02,0,.02ZM46.21,80.2s.04-.1.04-.33,0-.43.03-.61c.03-.09.06-.28.09-.55.02-.19.04-.3.07-.35.02-.04.04-.08.04-.1h-.01c0-.1.02-.23.07-.42.05-.18.09-.39.13-.61,0-.14.01-.24.04-.29l.06-.15s0-.08.03-.14c.04-.18.06-.29.06-.32,0-.04,0-.07-.01-.07,0,0-.01-.03-.01-.06,0,0,.03-.1.09-.26.06-.17.09-.3.09-.4,0-.03-.01-.05-.04-.06s-.04,0-.04.02v.05s-.01.1-.01.1c-.04.03-.06.07-.06.13v.04c.01.05,0,.07-.01.07h-.03s-.03-.04-.03-.09c0-.09.02-.25.07-.47.05-.22.08-.33.1-.32s.03.03.04.06c0,.04,0,.08-.01.11,0,.03-.03.06-.05.08-.02.02-.04.04-.04.05s0,.02.03.02.05,0,.09-.02c.08-.03.12-.11.12-.25.02-.14.04-.23.07-.27.03-.01.06-.09.09-.25.09-.37.18-.72.28-1.05.05-.09.07-.16.07-.22l-.03-.02s-.06,0-.1.01c-.04.02-.07.05-.09.1-.02.05-.04.1-.06.14v-.17c0-.11,0-.17.03-.16s.03,0,.04,0c0,0,0-.02,0-.03v-.08s0-.09.04-.15c.03-.06.06-.1.07-.12v-.07s0-.09.03-.17c.06-.06.09-.13.09-.19s.02-.15.07-.24c.05-.1.08-.14.1-.14v.02s0,.08-.01.11c-.02.03-.03.05-.03.08v.08s.02.05.06.06c.02,0,.04,0,.06-.01.03-.08.04-.15.04-.19s.02-.14.07-.28c.04-.08.06-.14.06-.18,0-.02-.02-.04-.03-.04l-.03.02s-.05.03-.07.06c-.02.03-.04.06-.05.08-.01.03-.02.04-.02.05v.05s0,.04-.03.03c-.02,0-.03-.04-.03-.1,0-.18.04-.43.13-.75l.22-.74s-.01-.04-.04-.06c-.03,0-.11.19-.25.61-.16.54-.29.93-.41,1.16-.03.06-.05.09-.06.09,0-.03.02-.12.07-.27.05-.15.07-.24.07-.28,0-.02,0-.03-.01-.03-.02,0-.05,0-.09.05-.04.04-.07.08-.07.13v.04c.01.05,0,.09-.03.13-.03.04-.06.12-.08.26-.02.14-.05.23-.09.29-.03.06-.07.19-.11.38-.06.26-.14.56-.23.92l-.07.28c-.05.09-.08.16-.08.21,0,.05-.01.1-.02.14,0-.02.02-.03.04-.04.01-.01.03-.04.06-.09.02-.05.05-.1.07-.16.02-.05.03-.09.04-.12,0-.02.01-.04.03-.06.01-.02.03-.03.05-.05.02-.09.04-.15.06-.2.02-.05.03-.1.04-.15v.14s.04-.06.07-.08c.06-.07.1-.12.11-.15.01-.03.05-.04.09-.05,0,0,.01.01.01.04s-.01.05-.03.08c-.02.03-.04.06-.06.08-.02.02-.03.03-.04.03h-.01s0,.07,0,.07c0,.06-.06.2-.18.42l-.13.34c0,.06-.01.09-.04.08s-.04.02-.04.08v.08c0,.13-.02.19-.06.18-.03,0-.04-.05-.04-.14v.05c-.02.09-.04.14-.06.16-.02.02-.04.05-.06.1-.02.05-.04.09-.07.15-.02.05-.04.11-.05.17-.01.06-.03.11-.07.16,0,0-.02.04-.04.09-.02.05-.03.11-.03.17-.02.14-.04.22-.05.24-.01.02-.03.07-.04.15-.01.08-.03.18-.05.31-.02.12-.03.22-.03.29v.05s0,.02.01.02h.01s.03-.01.04-.03c0-.02.01-.04.01-.06v-.03s0-.07.02-.13c.01-.06.03-.11.04-.16.01-.05.03-.11.04-.18.01-.07.03-.12.04-.16,0-.04.03-.11.05-.21.02-.09.05-.2.07-.32h.01c.02-.1.04-.2.07-.3.02-.09.04-.16.04-.2.02-.11.05-.15.09-.14l.03.02v.05c0,.1-.08.47-.23,1.11-.22,1.02-.37,1.73-.42,2.13,0,.1,0,.17-.03.19-.02.02-.03.09-.04.2-.02.22-.03.48-.03.77,0,.15.01.23.04.24.02,0,.04-.03.05-.11.01-.08.03-.27.06-.57.02-.3.06-.45.09-.44,0,0,.02.02.04.06.01.04.02.08.02.12,0,.05-.02.1-.04.15-.01.05-.03.17-.05.35-.02.18-.03.37-.03.56,0,.31.02.46.06.48ZM46.25,78.25s-.03-.02-.03-.04c-.01-.03,0-.06.03-.09.03-.03.04-.1.04-.22s.01-.17.04-.16c0,.01.02.04.03.08,0,.19-.01.31-.04.36-.03.05-.05.07-.07.06ZM46.45,80.11s.03-.01.03-.06,0-.08.02-.09c.01-.02.03-.02.05-.02s.03,0,.03,0l-.03-.04s-.04-.06-.04-.12l.03-.19c0-.14.02-.26.06-.36.05-.18.1-.26.15-.25,0,0,.01.01.01.04v.07c-.01.06,0,.09.01.1.04.01.06-.02.06-.1s-.02-.13-.07-.14h-.01s-.03-.02-.04-.05c0-.11.02-.26.06-.44v-.09s0-.03,0-.03h-.04s-.01,0-.01-.02,0-.03.03-.06c.02-.03.04-.04.07-.03s.04,0,.04-.03c0-.02-.02-.04-.06-.05h-.03s-.01-.01-.01-.04c0-.02,0-.05.03-.1.02-.04.04-.06.06-.06,0,0,.01,0,.01.02,0,0,.02,0,.03,0,0,0,.01-.01.01-.03,0-.05-.01-.09-.04-.12-.02-.03-.04-.05-.04-.06,0-.02,0-.04.01-.06,0-.02.02-.03.03-.04,0-.01.01-.04.01-.07s0-.08,0-.13c0-.05.02-.08.04-.09l.19.1s.01,0,.01-.01,0-.02,0-.04c0-.02-.01-.03-.02-.04,0,0-.03-.02-.07-.04-.03-.02-.05-.03-.05-.05s.02-.04.06-.07c.04-.03.06-.06.07-.08,0-.05,0-.1-.02-.15-.01-.05-.03-.1-.04-.16v-.12s.02-.02.03-.02v.02s.04,0,.05,0c.01,0,.03,0,.04-.03v-.06s-.02-.04-.04-.05c-.02-.01-.03-.02-.03-.03,0-.03.04-.05.12-.06l.06.02.03-.02s.03-.04.03-.08c0-.02,0-.04-.01-.05h-.01s0,.01,0,.01c0,.02-.01.03-.03.03-.02,0-.04,0-.07-.01-.04-.01-.06-.02-.06-.03,0-.04,0-.08.01-.1.07-.22.12-.33.15-.32l.12.04s.07,0,.07-.04c0-.02,0-.03-.01-.04h-.04s-.05-.02-.06-.03l.04-.17s0-.03-.01-.03c-.02,0-.03,0-.04,0,0,0-.02.04-.05.11,0,0-.01-.02-.01-.07,0-.03.01-.06.04-.1.02-.03.06-.07.1-.1.04-.03.07-.05.08-.04s.01,0,.01.02l-.03.1s.04-.03.07-.1c.02-.03.03-.08.03-.13v-.13s-.01.01-.04.04c-.03.03-.05.05-.06.04-.01,0-.01-.02-.01-.05,0-.08.03-.15.09-.22.04-.09.06-.15.06-.17v-.05s-.01-.03-.01-.03c0,0,.03-.02.05-.02.02,0,.04-.03.04-.06,0-.02,0-.05-.02-.09s-.03-.06-.04-.06v.03s-.02.05-.04.05-.03-.04-.03-.12c.02-.06.05-.08.09-.07.12.04.18.02.18-.04,0-.03-.03-.06-.1-.08h-.04s-.04-.03-.04-.06c0-.07.05-.2.16-.39h.06s.01-.02.01-.02c0,0,.01-.03.01-.06s0-.06.02-.09c.01-.03.03-.04.05-.04,0,0,.02,0,.02.01,0,0,0,.02,0,.04s0,.03.01.04.02,0,.04-.02c.02-.01.03-.03.03-.05s0-.05-.03-.08c-.02-.03-.03-.06-.04-.1v-.1s.01-.02,0-.03c0-.01-.02-.02-.04-.03s-.04-.03-.04-.07c0,0,0-.02.02-.02.01,0,.04,0,.07,0s.04-.03.04-.12c0-.01-.02-.02-.04-.03-.01,0-.02,0-.02,0,0,0,0,.02,0,.04s0,.03-.01.03h-.01s-.01-.05-.01-.1c.03-.04.06-.06.09-.05l.06.02s.05,0,.06,0c0-.01.01-.02.01-.03,0-.01-.03-.02-.07-.04s-.06-.03-.07-.07v-.02s0-.05.03-.05c.02,0,.03-.03.04-.06,0-.21,0-.33.03-.34l.03.02.03.12s.02,0,.02-.02c0-.02,0-.04,0-.07-.01-.02-.02-.05-.04-.08-.02-.03-.03-.05-.03-.06s.02,0,.07,0,.07,0,.07-.04c0-.02,0-.03-.03-.04h-.01s-.01-.04-.01-.04c0-.12.03-.17.1-.15s.1.01.1-.03c0-.02-.01-.03-.03-.04h-.13s-.03-.02-.03-.03,0-.02.03-.04c.02-.02.05-.07.09-.16.08-.24.13-.45.15-.61.04-.26.09-.49.16-.67l.06-.21s0-.04-.01-.05v-.02s0-.05.03-.04c.02,0,.04-.05.07-.15,0-.03.02-.1.06-.21v-.03s.01-.02,0-.04c0-.02-.01-.03-.02-.03-.07-.02-.23.47-.5,1.47-.06.19-.09.31-.1.38-.01.07-.03.12-.07.14-.03.03-.05.06-.05.11s-.01.11-.04.19c-.02.02-.1.32-.25.89-.1.39-.19.73-.28,1.03-.26.82-.53,1.94-.8,3.36-.04.19-.07.36-.1.5-.03.14-.05.22-.05.23,0,.01-.02.09-.04.23-.08.38-.14.8-.19,1.24v.56c0,.07.02.11.07.13ZM46.43,80.27s.04,0,.06,0c.02,0,.03-.02.04-.04,0-.02-.02-.04-.06-.05-.06-.02-.09,0-.09.03,0,.03.01.05.04.06ZM46.51,76.98s-.01-.03-.01-.08v-.09c.05-.24.09-.35.13-.34.03,0,.04.04.04.09s-.02.14-.07.26c-.04.12-.08.18-.09.17ZM46.6,74.49v-.04s0,.02,0,.04ZM46.75,79.51s.03-.02.03-.07,0-.08-.03-.08v.15ZM46.85,78.84s.03-.04.03-.13c0-.07,0-.11-.01-.11s-.02.01-.04.05c-.01.04-.02.07-.02.1,0,0,0,.03.01.05,0,.02.02.04.03.04ZM46.94,78.24s.04,0,.04-.03c0-.15,0-.23-.01-.23s-.03,0-.05.01c-.02.01-.04.06-.04.14,0,.06.01.1.04.1h.01ZM46.98,77.9s.02,0,.04-.02c.04-.07.06-.16.06-.26,0-.03,0-.05-.01-.05s-.03.03-.07.11-.05.13-.05.16v.03s0,.02.03.02ZM47.01,73.47l.03-.14c.03-.13.07-.26.12-.39.08-.2.12-.37.12-.5,0-.03.02-.04.07-.02,0,0,.02,0,.02.01,0,0,0,.02,0,.03v.03s-.04.07-.07.17c-.03.26-.08.46-.15.61-.07.15-.12.22-.14.22ZM47.05,74.66v-.05c0-.16.01-.24.04-.23s.04.04.04.1c0,.02,0,.04-.01.07,0,.03-.02.05-.04.07-.01.02-.03.03-.04.03ZM47.21,77.32s.01-.02.01-.06c0-.03-.01-.05-.04-.06-.02,0-.03,0-.03.02v.04s.04.05.06.06ZM47.21,73.87v-.02s0-.03,0-.05c0-.02.02-.04.03-.07,0-.02.01-.04.01-.06.02-.05.03-.08.04-.08h.01v.05c0,.07-.01.13-.03.17-.02.04-.04.06-.07.05ZM47.27,76.25c.08.02.12,0,.12-.09,0-.05,0-.08-.01-.08l-.15.11s-.03.01-.03.02c0,.01.02.02.07.04ZM47.64,73.22s.04,0,.04-.05c0-.03-.01-.05-.04-.06s-.05,0-.06.03c0,.03.03.06.06.08ZM47.61,73.04s.05-.03.09-.11.07-.16.08-.24c0-.07-.01-.11-.04-.12-.06-.02-.1.09-.13.31v.1s0,.05,0,.05ZM48.18,70.24s.06,0,.06-.06-.02-.08-.06-.09c-.03,0-.04.01-.04.06s.01.08.04.09ZM48.19,70.85s.04,0,.07,0c.03,0,.05-.02.07-.04.02-.02.03-.03.03-.04s-.01-.02-.04-.03c-.02,0-.04,0-.07,0s-.05.02-.07.03c-.02.01-.03.03-.03.05,0,.01.01.02.04.03ZM48.25,69.83s.03-.02.07-.06c.03-.04.06-.07.08-.1.02-.02.03-.04.03-.05,0-.02-.01-.04-.03-.05-.04-.01-.08,0-.11.04-.03.04-.05.09-.05.14s0,.08.01.08ZM48.4,72.36s.02,0,.03-.02v-.05s0-.07.02-.07c.02,0,.04-.02.04-.03l-.09-.07s-.01.02-.01.03,0,.02,0,.02h-.02s-.04-.04-.04-.04h-.03s.01.05.04.12c.02.06.05.1.08.11ZM48.59,69.67c.07,0,.1-.06.1-.14v-.03s-.05.01-.09.04c-.04.03-.06.06-.07.08,0,.02,0,.03.03.04h.03Z"/><path class="cls-3" d="M51.14,81.72c-.08-.02-.14-.05-.2-.08-.05-.03-.12-.06-.2-.09-.19-.08-.4-.19-.61-.32-.21-.14-.38-.26-.5-.36-.05-.05-.11-.13-.2-.24-.08-.12-.16-.24-.24-.38-.35-.62-.53-1.25-.53-1.92,0-.3.01-.53.04-.71.03-.18.05-.33.06-.46.03-.21.08-.41.15-.58l.09-.31c.13-.49.29-.83.5-1.03,0-.02.06-.08.14-.18.08-.1.2-.26.34-.48.94-1.36,1.86-2.02,2.73-1.98.15.01.26.02.34.03.08,0,.29.06.61.15.21.06.38.16.49.27.11.12.24.32.37.6.05.1.08.18.09.26,0,.08.01.18.01.3-.05.49-.16.85-.34,1.07-.08.11-.12.18-.12.22s-.01.05-.03.04-.04.01-.07.05c-.03.04-.06.08-.1.13-.09.16-.19.28-.29.37-.11.09-.22.2-.34.34-.25.31-.7.52-1.33.62-.43.07-.75.08-.96.01-.09-.03-.16-.07-.22-.12-.06-.05-.12-.1-.18-.15-.14.17-.23.31-.27.42-.04.11-.1.3-.17.56l-.12.35c-.15.43-.22.91-.22,1.43,0,.38.03.6.1.67.07.07.19.13.35.18.37.11.75.07,1.13-.13l.47-.24c.4-.21.62-.35.66-.39.04-.05.13-.1.27-.16.22-.12.49-.31.8-.6.36-.36.58-.53.66-.5.03,0,.09-.05.18-.18.09-.13.15-.19.18-.18s.04.02.04.03v.06s-.01.01-.01.01c0,.01,0,.02.01.02s.03,0,.05-.01c.02-.01.04-.05.04-.11,0-.01-.02-.02-.04-.03s-.02-.01-.02-.02c0-.02.01-.04.04-.07.02-.02.05-.03.07-.03,0,0,.02.02.04.05.01.03.02.05.02.06,0,.12-.23.36-.7.7-.21.16-.32.25-.32.27v.03s-.06.05-.09.07c-.03.03-.08.06-.13.11-.05.05-.1.1-.15.16-.22.22-.55.46-.96.72-.12.07-.18.11-.18.15h.01c.11,0,.38-.13.82-.37.2-.13.43-.3.67-.5.1-.07.18-.13.26-.18.07-.05.15-.1.22-.16.07-.06.2-.19.39-.39.05-.06.12-.13.22-.21.1-.08.23-.2.41-.36.13-.11.22-.19.28-.22h.06s-.09.14-.28.32c-.29.28-.51.47-.66.58l-.58.52-.04.09s0,.01-.01.01l-.13-.07s-.02,0-.03.02l.03.21s0,.03-.01.03v-.02s-.04-.02-.06-.03c-.04-.01-.08,0-.12.06,0,0-.01.03-.01.07v.03s-.01-.02-.01-.02c0,0-.03,0-.06.03-.07.05-.13.13-.18.25v.09s.11-.05.28-.17c.17-.12.25-.2.25-.23s.07-.09.2-.17c.06-.03.1-.07.13-.1l.04-.08s.03-.03.09-.04c.06,0,.1-.04.12-.1.02-.06.07-.12.15-.18.04-.02.07-.04.08-.07.01-.03.02-.06.02-.1s.03-.07.09-.1c.12-.09.35-.31.69-.68l.03-.02c.12-.12.19-.19.22-.21.03-.02.07-.06.11-.1.04-.05.09-.09.12-.13.16-.16.25-.23.28-.22h0c0,.07-.03.13-.1.21-.12.16-.21.26-.28.31l-.06.06c-.1.14-.32.37-.67.68-.06.02-.09.05-.09.08s-.12.2-.36.5c-.24.3-.4.49-.49.55-.03.02-.11.1-.23.25l-.39.4c-.15.11-.22.19-.22.23s-.07.12-.2.22l-.72.47c-.3.21-.55.36-.75.43-.19.07-.45.09-.76.04ZM50.94,76.5c.09.03.25.01.48-.04.37-.07.65-.16.83-.25.18-.1.37-.25.58-.47.25-.26.44-.47.56-.62.12-.16.24-.34.34-.54.09-.16.15-.29.18-.4.03-.11.05-.23.05-.37,0-.23,0-.35-.03-.36,0,0-.1.05-.28.14-.22.13-.38.2-.45.21-.11.04-.24.11-.39.22-.42.28-.63.46-.63.54,0,0-.01.03-.04.05-.02.02-.05.05-.08.08-.09.04-.13.08-.13.12s-.03.08-.09.13c-.06.05-.13.13-.22.25-.23.3-.35.48-.35.57s-.06.21-.18.39c-.12.18-.18.29-.18.33,0,0,0,.02.03.02ZM53.26,80.18s.08,0,.14-.06c.06-.05.09-.08.09-.1l-.03-.02s-.08,0-.14.04c-.06.04-.09.08-.09.12l.03.02ZM55.24,77.74h-.01s-.01-.02-.01-.04c0-.04.08-.12.23-.23.16-.12.23-.2.23-.24s.05-.08.15-.09c.1-.02.17-.05.22-.09.05-.05.07-.09.07-.13l-.03-.07h.01s.03.04.03.04c.02.02.03.04.03.07,0,.01,0,.03-.01.07,0,.04-.17.18-.48.43-.24.18-.38.28-.42.28Z"/><path class="cls-3" d="M30.91,57.69c-.15-.47-.36-.85-.61-1.13-.26-.28-.62-.48-1.09-.63-.2-.08-.38-.15-.53-.2-.15-.05-.23-.07-.24-.06h-.4c-.27-.02-.45,0-.53.05-.08.05-.16.09-.23.11-.07.02-.14.03-.19.02-.12-.04-.28,0-.48.15-.04.05-.05.09-.04.12v.02s.03,0,.04.01c.01.04-.01.08-.06.12-.05,0-.09.01-.13.02,0,0,0,0,0,0l-.03-.1c-.02-.07-.09-.08-.2-.04l-.14.06s-.05.04-.06.07v.04s.03.04.08.04c-.05.01-.08.02-.11.03-.11.05-.27.11-.47.19-1.2.54-2.64,2.22-3.58,5.4-.14.51-.25.88-.3,1.27-.04.29-.13.86-.14.9-.21,1.2-.17.9-.22,1.89l-.03.84c-.05.37-.06.72-.04,1.14.02.25.05.64.06.99,0,.35.05.71.12,1.26.16,1.23.51,2.04,1.14,2.94.14.2.34.46.48.62.14.16.3.18.37.23.19.12.38.3.71.4.32.1.69.09.97.1.11,0,.21.02.29.03.08.01.17.01.29,0,.43-.14.77-.34,1.02-.61.25-.27.94-.79,1.3-1.4l.72-1.24c.03-.06.07-.11.1-.16.08-.08.15-.15.2-.22.06-.09.08-.15.07-.18-.01-.03.1-.22.33-.55.35-.6.72-1.53,1.09-2.8.14-.51.19-.81.16-.9-.03-.09-.01-.18.06-.28.07-.09.09-.18.06-.25-.02-.07.03-.29.16-.66.01-.07.01-.12,0-.15-.01-.03,0-.07,0-.12.01-.05.04-.09.07-.14.09-.12.12-.32.1-.6.04-.32.07-.5.11-.52.04-.02.05-.06.03-.11-.02-.05-.01-.14,0-.26.02-.12.04-.26.06-.42.02-.15.05-.31.07-.47.03-.16.04-.28.04-.36,0-.08,0-.19.02-.34.01-.15.02-.3.03-.44.08-1.19-.09-2.42-.5-3.7ZM26.89,56.07c.06-.04.1-.03.12.04.02.05.02.08,0,.09-.03.02-.06.02-.1-.01-.03-.03-.05-.05-.06-.06l.04-.05ZM24.17,72.72c-.24.02-.35-.02-.46-.11-.11-.08-.37-.4-.47-1.1-.13-.96-.05-1.95.04-2.86l.07-.72c.03-.54.06-.92.09-1.15.03-.23.12-.56.26-.97l.26-.77c-.01-.08.05-.32.17-.73.12-.41.17-.69.15-.84-.02-.15.09-.58.34-1.29.09-.28.17-.48.24-.61.07-.13.1-.23.09-.29,0-.07.04-.17.15-.31.03-.08.06-.15.09-.21.03-.06.04-.1.04-.12-.02-.15.06-.54.56-1.35.19-.3.3-.67.43-.82.1-.09.08-.37.35-.76.21-.31.23-.5.71-.82.24-.16.42-.26.55-.32.01,0,.03,0,.04,0,.26.05.53.25.81.59.28.34.52.82.72,1.45.09.28.14.53.16.76l.04.36.06.35s.07.01.1,0c.09-.06.16-.06.21-.02v.02s0,.06-.02.08l-.19.07c-.06.04-.08.09-.06.16.04.13.04.29-.02.48-.05.19-.06.34-.03.45l.04.03s-.01.04-.05.06c-.04.02-.04.07,0,.12l.07.13s.01.07,0,.1c0,.03-.03.06-.06.09-.04.02-.07.2-.1.52-.03.32-.03.52,0,.6.01.03.02.04.04.03l.06-.07s.05.06.09.21c.06.2.07.34,0,.44h-.02s0-.05,0-.13c0-.08,0-.14-.01-.17-.03-.08-.07-.1-.13-.06-.07.05-.13.19-.18.42-.03.08-.03.15-.01.2.02.06-.13.72-.44,1.99-.12.28-.3,1.03-.62,1.76-.35.74-.54,1.17-.82,1.54-.17.21-.65.94-.7,1.06-.05.12-.07.07-.56.74l-.58.77c-.47.64-.97.98-1.5,1.03ZM29.11,57.2s.06,0,.1.04c.04.04.07.08.1.1.02.02.04.05.05.08.02.07.02.11-.01.13-.04.03-.08.02-.13-.02-.04-.04-.07-.11-.1-.19l-.02-.14ZM29.71,59.73s.03-.11.13-.18c.12-.08.18-.09.2-.04,0,.02,0,.07,0,.16,0,.09-.02.15-.05.17-.03.02-.08.02-.15,0-.07-.02-.11-.06-.13-.11ZM29.71,62.27c-.02-.06-.01-.12.02-.18.04-.05.06-.09.08-.1.01,0,.03,0,.04.04.02.07,0,.13-.04.21l-.04.03h-.02s-.02.02-.03,0ZM30.28,64.13s-.08.07-.1.11c-.02.04-.02.09-.01.13.01.04,0,.08-.05.11-.03.02-.05.01-.06-.02-.02-.05-.02-.12-.01-.2.02-.21.05-.33.09-.36.04-.03.1,0,.16.07l.02.05s0,.09-.04.12ZM29.95,61.3s-.04,0-.06-.03c-.03-.03-.04-.05-.05-.07,0-.02-.01-.03-.02-.05,0-.02,0-.04,0-.06h.02s.08-.03.1.04c.03.1.03.16,0,.18ZM30.2,61.52l-.05-.08c-.03-.08-.03-.13-.02-.14.03-.02.05,0,.08.07,0,.02,0,.04.01.08,0,.04,0,.06-.02.07ZM30.02,60.77l-.18.09s0-.03.04-.05c.08-.08.11-.15.08-.24l-.08-.16s-.01-.04-.02-.06c0-.02,0-.05.03-.07.06-.04.1-.01.13.08.03.09.05.13.07.12.03-.02.05-.06.08-.13.02-.07.02-.21,0-.44-.02-.23-.05-.47-.08-.74-.03-.27-.08-.5-.14-.7-.05-.15-.09-.21-.14-.18-.04.03-.06.13-.04.29.1.47.11.73.04.78h-.02s-.05-.07-.05-.07c-.02-.05-.02-.11-.02-.19,0-.08,0-.16,0-.23,0-.08-.02-.13-.03-.16l-.03-.1c-.04-.11-.09-.28-.16-.5-.07-.22-.1-.35-.09-.37v-.02s.07,0,.13.06c.06.06.11.1.14.13.03.03.04.05.05.07v.09s.04.03.08,0c.03-.02.04-.04.04-.07,0-.03,0-.05,0-.07-.01-.03-.03-.05-.05-.06-.19-.33-.31-.57-.36-.71-.01-.09-.01-.14,0-.15l.04-.03s.06-.06.05-.09c-.02-.05-.08-.12-.2-.21-.12-.09-.24-.16-.36-.22-.12-.06-.2-.07-.23-.05-.03.02-.05.02-.05,0-.01-.03,0-.06.05-.09.04-.03.11-.03.21-.02.16.01.34.06.53.15.19.09.41.39.66.9l.35.75s.02.09.01.11c-.01.13,0,.24.03.34.22,1.25.21,1.95-.03,2.12-.12.08-.16.17-.13.26,0,.02.02.02.03.01l.09-.12s.03-.02.06-.02c.02,0,.04,0,.05.04.02.05,0,.12-.06.22-.06.04-.11.05-.16.03-.05-.02-.09-.08-.13-.2l-.03-.16s-.07-.02-.18.03ZM31.11,61.53c-.01.19-.03.35-.07.48-.04.13-.07.21-.1.23h-.02s-.03.06-.06.12c-.03.06-.04.13-.05.21.02.18,0,.3-.06.34-.07.04-.13.1-.18.17s-.09.11-.11.12h-.03s.04-.06.04-.06c.02-.05.05-.18.1-.4.05-.21.09-.44.14-.69.04-.25.09-.49.13-.73.05-.24.09-.45.13-.61.04-.17.07-.26.09-.27.03-.02.05-.01.06.02.04.13.04.49,0,1.08ZM31.08,60.29s-.05,0-.07-.05l-.04-.21-.12-.94c-.05-.44-.07-.67-.04-.69.03-.02.06.02.09.12.05.16.12.55.19,1.16.03.38.03.58-.02.61Z"/><path class="cls-3" d="M29.66,57.03s-.05.08-.03.17c.03.1.08.2.15.29h.05s.02-.11-.03-.26c-.05-.16-.1-.23-.14-.2Z"/><polygon class="cls-5" points="65.04 95.57 65.04 85.31 79.61 78.19 79.61 88.25 65.04 95.57"/></g></svg>