<?xml version="1.0" encoding="UTF-8"?><svg id="Layer_2" xmlns="http://www.w3.org/2000/svg" xmlns:xlink="http://www.w3.org/1999/xlink" viewBox="0 0 198.25 183.2"><defs><style>.cls-1{stroke:#fff;stroke-width:3.08px;}.cls-1,.cls-2,.cls-3{fill:none;}.cls-1,.cls-3{stroke-linecap:round;stroke-linejoin:round;}.cls-2{stroke-width:1.54px;}.cls-2,.cls-4{stroke-miterlimit:10;}.cls-2,.cls-4,.cls-3{stroke:#a98d72;}.cls-5{fill:url(#_未命名漸層_47);}.cls-5,.cls-6,.cls-7{stroke-width:0px;}.cls-4{fill:#fff;stroke-width:.77px;}.cls-6{fill:#f2eeea;}.cls-7{fill:#5289b1;}.cls-3{stroke-width:2.31px;}</style><linearGradient id="_未命名漸層_47" x1="140.94" y1="145.49" x2="151.54" y2="167.83" gradientUnits="userSpaceOnUse"><stop offset="0" stop-color="#2d516c"/><stop offset="1" stop-color="#5289b1" stop-opacity="0"/></linearGradient></defs><g id="Design"><polygon class="cls-5" points="162.76 134.67 198.25 148.58 133.45 183.2 95.49 167.4 162.76 134.67"/><circle class="cls-1" cx="108.43" cy="8.46" r="6.92"/><path class="cls-1" d="M33.87,32.34c0,2.97-2.41,5.38-5.38,5.38s-5.38-2.41-5.38-5.38,2.41-5.38,5.38-5.38,5.38,2.41,5.38,5.38Z"/><line class="cls-1" x1="1.54" y1="82.93" x2="10.79" y2="82.93"/><line class="cls-1" x1="6.16" y1="87.56" x2="6.16" y2="78.31"/><line class="cls-1" x1="70.99" y1="26.69" x2="79.47" y2="26.69"/><line class="cls-1" x1="75.23" y1="30.93" x2="75.23" y2="22.45"/><polygon class="cls-6" points="95.49 87.52 162.76 58.09 162.76 133.77 95.49 167.4 24.02 133.77 24.02 58.09 95.49 87.52"/><polygon class="cls-6" points="162.76 58.09 93.39 34.97 24.02 58.09 95.45 87.56 162.76 58.09"/><polyline class="cls-2" points="162.76 58.09 95.45 87.56 24.02 58.09"/><line class="cls-2" x1="58.15" y1="72.15" x2="124.38" y2="45.3"/><line class="cls-2" x1="95.49" y1="167.4" x2="95.49" y2="87.52"/><polygon class="cls-3" points="93.39 34.97 24.02 58.09 24.02 134.67 95.49 167.4 162.76 134.67 162.76 58.09 93.39 34.97"/><path class="cls-7" d="M51.19,121.14l-.26-.08c-.34-.1-.68-.26-1.02-.47-.34-.21-.53-.36-.57-.46-.11-.26-.2-.46-.28-.6-.56-1.08-.84-2.08-.84-2.99l.02-.34c.16-1.19.38-2.15.68-2.87.41-.97.74-1.63,1.01-1.99l.35-.55c.47-.75.73-1.18.78-1.29.05-.11.11-.15.15-.14s.07-.02.08-.1c0-.08.12-.21.34-.39.58-.48.97-.71,1.19-.7.22,0,.44-.01.65-.07.22-.06.37-.07.44-.05.06.02.21.1.44.26.47.34.7.53.7.59s0,.11.02.17l.07.29s-.03.08-.08.08c-.05,0-.08.04-.08.11s-.07.14-.22.23c-.15.09-.22.18-.22.27-.03.15-.43.46-1.19.91-.25.14-.49.35-.73.64-.23.29-.37.53-.42.73,0,.16-.08.32-.23.48-.16.16-.23.28-.23.38s-.07.22-.2.37c-.13.15-.24.34-.32.58l-.14.3c-.3.61-.51,1.21-.65,1.81-.25.9-.37,1.6-.37,2.09,0,.33.05.51.16.54s.33.01.67-.05c.33-.07.7-.18,1.1-.33.4-.15.69-.29.88-.43l.61-.35c1.48-.92,2.63-1.65,3.44-2.21.33-.24.54-.35.63-.32,0,.08-.18.24-.54.47-.36.23-.54.38-.54.45v.02s-.06.07-.19.1c-.13.04-.19.07-.19.1v.05c0,.16-.06.23-.19.19h-.02c-.19-.06-.34,0-.47.17l-.09.07.14.02s.02.02.02.03c0,.03-.05.05-.16.06-.11,0-.16.02-.16.04s.03.03.11.06.11.05.11.08c-.02.03-.06.07-.13.13-.07.06-.11.1-.11.11.11.03.87-.45,2.29-1.46.28-.21.51-.36.7-.45.12-.06.19-.11.19-.16v-.02s.09-.14.28-.28c.19-.14.34-.27.47-.4.12-.13.21-.18.26-.17.02,0,.03.01.03.02,0,.01.01.03.01.06l-.05.08c-.08.06-.12.12-.12.2s-.14.24-.42.5c-.27.2-.4.33-.4.39h.02s.14-.06.37-.2l.09-.02.02.03c0,.13-.3.48-.91,1.04-.06.05-.11.09-.14.14-.03.05-.05.08-.05.1v.02s-.04.06-.12.14c-.08.07-.18.16-.3.26-.13.1-.22.19-.28.26-.06.07-.09.12-.09.15,0,.05-.26.27-.77.67-.51.4-.77.67-.77.82v.17c0,.13-.05.2-.16.22-.22.1-.47.26-.75.48-.45.33-.8.57-1.04.7-.24.13-.5.22-.78.26-.37.08-.6.15-.68.21-.16.12-.44.13-.87.03ZM53.5,117.98l.19-.07-.05-.06s-.07,0-.12.03c-.05.03-.07.05-.07.06l.05.04ZM54.2,117.65s.05,0,.12-.03c.06-.02.12-.04.16-.06l.05-.04-.05-.06s-.08-.07-.14-.09h-.02s.02.1.02.1c-.02.04-.04.08-.08.11-.04.03-.06.05-.06.07ZM54.65,117.35s.07-.01.07-.08c0-.03-.02-.05-.05-.06h-.05s-.05.05-.05.07c0,.03.02.06.07.07ZM54.86,117.22s.03-.02.06-.07c.02-.05.04-.08.04-.1s0-.03-.02-.03h-.02c-.06,0-.09.05-.09.11,0,.05,0,.08.02.08h.02ZM55.44,117.86s.06,0,.13-.01c.07-.01.15-.04.23-.08.09-.04.17-.1.25-.18.08-.08.12-.14.12-.17-.05-.01-.2.05-.47.2-.19.12-.28.19-.28.21s0,.03.02.03ZM56.45,117.31c.06.02.19-.07.37-.25.12-.14.19-.22.19-.24v-.02s-.06.01-.14.06c-.08.04-.16.1-.23.17-.08.07-.13.13-.16.17-.03.04-.05.07-.05.08,0,.02,0,.03.02.03ZM57.31,116.86s.03,0,.05-.04c.02-.03.03-.07.05-.13,0-.03-.03-.07-.09-.13-.05-.01-.07.03-.07.13s.02.15.07.17ZM57.48,116.54s.07,0,.12-.01c.05-.02.07-.07.07-.15,0-.02-.02-.03-.05-.04s-.07,0-.12.05c-.05.04-.07.08-.07.11,0,.02.02.03.05.04Z"/><path class="cls-7" d="M61.15,124.55c-.13-.04-.23-.08-.32-.12-.09-.04-.19-.09-.32-.14-.31-.13-.64-.3-.98-.52-.34-.22-.61-.41-.79-.58-.08-.07-.18-.2-.32-.39-.13-.19-.26-.39-.39-.61-.56-.99-.84-2.01-.84-3.07,0-.47.02-.85.07-1.14.05-.29.08-.53.09-.74.05-.34.12-.65.23-.93l.14-.49c.2-.79.47-1.33.79-1.64.02-.03.09-.12.22-.29.13-.16.32-.42.55-.77,1.51-2.18,2.97-3.24,4.37-3.17.23.02.42.04.55.04.13,0,.46.09.97.25.34.1.6.25.78.43.18.19.38.51.6.96.08.15.12.3.14.42.02.13.02.29.02.48-.08.79-.26,1.36-.54,1.72-.13.17-.19.29-.19.35s-.02.08-.05.07-.07.02-.12.08c-.05.06-.1.13-.16.21-.14.25-.3.45-.47.59-.17.14-.35.33-.54.55-.41.5-1.11.83-2.13.99-.69.12-1.2.12-1.54.02-.14-.04-.26-.11-.35-.19-.09-.09-.19-.17-.28-.24-.22.28-.36.5-.43.68-.07.17-.16.47-.27.9l-.19.55c-.23.7-.35,1.46-.35,2.29,0,.6.05.96.16,1.08.11.12.3.21.56.29.59.18,1.19.11,1.8-.21l.75-.38c.64-.34.99-.55,1.06-.63.07-.08.21-.16.43-.26.36-.18.79-.5,1.29-.95.58-.57.93-.84,1.05-.8.05.01.14-.08.29-.29.15-.21.25-.3.29-.29s.07.03.07.05l-.02.09v.02s0,.03.02.03.04,0,.08-.02c.04-.02.06-.08.06-.18-.02-.02-.03-.04-.06-.04s-.03-.02-.03-.03c0-.03.02-.07.06-.1.04-.04.07-.05.11-.04.02,0,.03.03.06.08.02.05.03.08.03.1,0,.2-.37.57-1.12,1.13-.34.25-.51.4-.51.43l-.02.04s-.07.08-.13.12c-.05.04-.13.1-.21.18-.09.08-.17.17-.25.26-.36.35-.87.73-1.54,1.15-.19.11-.28.18-.28.23h.02c.17,0,.61-.21,1.31-.6.33-.21.69-.48,1.08-.8.16-.12.29-.21.41-.29.12-.08.23-.16.35-.26.12-.1.32-.3.62-.62.08-.09.19-.2.35-.33.16-.13.37-.33.66-.58.2-.18.35-.3.44-.35h.09c0,.05-.15.22-.44.51-.47.44-.82.75-1.05.93l-.94.84-.07.15s0,.02-.02.02l-.21-.11s-.03,0-.05.04l.05.33s0,.05-.02.04l-.02-.03s-.04-.04-.07-.05c-.06-.02-.13.01-.19.09-.02.01-.02.05-.02.12l.02.06-.05-.04s-.05,0-.09.04c-.11.08-.2.22-.28.4l-.02.14s.2-.08.47-.27c.26-.2.4-.32.4-.37s.11-.14.33-.27c.09-.05.16-.1.21-.16l.07-.13s.05-.05.15-.06c.1,0,.17-.06.2-.16.03-.1.11-.19.23-.28.06-.03.11-.07.13-.11.02-.04.03-.1.03-.16s.05-.12.14-.15c.19-.14.55-.5,1.1-1.08l.05-.03c.19-.19.3-.3.35-.33.05-.03.11-.09.18-.17.07-.08.14-.15.2-.21.25-.25.4-.37.44-.35v.02c0,.08-.05.19-.16.32-.19.25-.34.42-.44.5l-.09.09c-.16.23-.51.59-1.08,1.09-.09.04-.14.08-.14.13s-.19.32-.57.8c-.38.49-.64.78-.78.89-.05.03-.17.17-.37.4l-.63.64c-.23.17-.35.3-.35.37s-.11.19-.33.35l-1.15.75c-.48.34-.88.57-1.19.69-.31.12-.72.14-1.22.07ZM60.82,116.19c.14.04.4.02.77-.06.59-.11,1.03-.25,1.32-.41.29-.16.6-.41.92-.75.41-.42.71-.75.9-1,.19-.25.38-.54.55-.86.14-.25.24-.46.29-.63.05-.17.08-.37.08-.6,0-.38-.02-.57-.05-.58-.02,0-.16.07-.44.23-.36.2-.6.32-.72.34-.17.06-.38.18-.63.35-.67.45-1.01.74-1.01.87,0,.02-.02.04-.06.08-.04.04-.08.08-.13.13-.14.07-.21.14-.21.19s-.05.12-.14.2c-.09.08-.21.21-.35.4-.37.47-.56.77-.56.91s-.1.34-.29.62c-.19.28-.29.46-.29.52,0,.02.02.03.05.04ZM64.54,122.09s.12-.02.22-.09c.1-.08.15-.13.15-.16l-.05-.04s-.12,0-.22.07c-.1.06-.15.12-.15.19l.05.04ZM67.7,118.18h-.02s-.02-.03-.02-.06c0-.06.12-.19.37-.38.25-.18.37-.31.37-.39s.08-.12.23-.15c.16-.03.27-.08.35-.15.08-.07.12-.14.12-.21l-.05-.11h.02s.05.07.05.07c.03.03.05.06.05.11,0,.02,0,.05-.02.12-.02.06-.27.29-.77.69-.39.29-.62.44-.68.45Z"/><path class="cls-7" d="M75.11,129.87c-.17-.05-.29-.1-.36-.15s-.13-.1-.18-.15c-.05-.05-.07-.1-.07-.13s0-.06-.02-.08v-.02h-.07s-.09-.05-.13-.12c-.04-.07-.07-.11-.11-.12-.02,0-.02,0-.02.02h-.02c-.08-.03-.23-.18-.44-.45-.22-.27-.37-.5-.44-.69-.08-.19-.12-.49-.12-.92v-.64c0-.33.05-.78.14-1.35.05-.23.07-.36.08-.4,0-.04.03-.21.08-.5.05-.29.09-.5.14-.62v-.12l.19-.97c.05-.34.13-.74.23-1.18l-.02.04c-.05.07-.09.14-.12.21-.03.07-.05.12-.07.15l-.26.56c-.2.25-.36.54-.47.86l-.07.22s.02.02.02.03,0,.04-.02.07c-.02.03-.04.06-.08.08-.04.03-.06.05-.06.07v.02l.02.03s0,.03-.02.04c-.02.01-.04.03-.06.07-.02.03-.06.09-.09.15-.04.07-.07.14-.09.22-.02.08-.05.14-.09.19-.04.05-.08.08-.12.09-.04,0-.06.03-.06.08l.02.11c0,.13-.05.27-.14.42-.14.2-.21.35-.21.45-.05.12-.09.17-.12.16s-.05,0-.06.03c0,.03-.01.07-.01.12-.06.16-.13.26-.21.3-.14.15-.26.31-.35.48-.14.28-.44.53-.91.75l-.37.25c-.08.09-.17.12-.28.09-.02.01-.03.03-.05.06-.02.03-.05.04-.11.04-.06,0-.11,0-.18-.03-.13-.04-.2-.07-.21-.1-.02-.03-.04-.06-.07-.08l-.14-.02c-.06-.02-.13-.06-.2-.13-.07-.07-.14-.19-.21-.35-.07-.16-.15-.25-.25-.28l-.07-.05s-.02,0-.02.02v.02l.09.2v.07s-.13-.16-.3-.46c-.27-.5-.4-.85-.4-1.03,0-.05.02-.08.06-.1.04-.02.06-.06.06-.13,0-.08-.03-.13-.09-.15s-.09-.05-.09-.1l-.05-1.82.05-.3s.02.02.02.03c.05.08.09.12.12.13.06.02.09-.07.09-.27,0-.16-.02-.25-.05-.26-.06-.02-.09.03-.09.13s-.02.15-.07.14c-.03,0-.04-.04-.02-.11l.07-.49c.05-.57.32-1.97.82-4.18.16-.64.26-1.11.3-1.42.03-.22.11-.55.22-.98.12-.44.25-.87.4-1.29.15-.42.22-.65.22-.68l.3-1.01.65-1.88c.05-.18.2-.53.47-1.06l.14-.28.47-1.32c.11-.41.19-.63.23-.66.06-.11.09-.2.09-.26.05-.16.13-.29.26-.36.12-.08.23-.1.33-.07l.42.2c.14.04.27.11.37.21.22.2.42.42.61.67.06.1.09.24.09.42,0,.34-.11.77-.33,1.29-.16.34-.25.6-.28.77-.03.17-.07.27-.12.31-.05.04-.07.08-.07.14s-.1.31-.3.75c-.09.18-.18.35-.27.49-.09.15-.13.27-.13.38s-.02.17-.05.18c-.03.01-.23.54-.61,1.59l-.16.41c0,.13-.05.31-.16.54-.13.35-.2.6-.22.73-.02.13-.11.39-.25.77-.11.29-.21.62-.32.98-.1.36-.18.67-.22.93,0,.18-.05.43-.14.74l-.3,1.3c-.03.15-.07.22-.11.21s-.06.06-.06.23c0,.1-.08.33-.23.69v.15c0,.08-.02.15-.07.21-.05.06-.08.1-.09.13v.1s.02.02.02.06-.03.12-.09.27c-.09.3-.17.8-.23,1.49-.06.7-.09,1.34-.09,1.93,0,.21.02.41.05.6.3-.09.45-.16.46-.2,0-.05.04-.1.08-.15.23-.17.4-.33.51-.47.11-.14.21-.24.3-.31.09-.07.14-.14.14-.2s.02-.09.07-.08c.05-.04.22-.31.51-.82.3-.51.48-.79.54-.84l.09-.09c.12-.21.21-.34.27-.41.05-.06.11-.09.15-.08s.07-.09.07-.32v-.12s.03.03.03.07c0,.04.02.08.03.1h.05s.05.01.05-.02l-.02-.08s.01-.05.03-.04.11-.1.27-.33c.09-.18.16-.27.19-.26.02,0,.03.02.03.05,0,.03.01.05.01.06s0,.04-.01.06c0,.02-.03.03-.07.03-.04,0-.06.04-.06.12s-.08.29-.23.61c-.36.51-.64,1.04-.84,1.58l-.12.18s0,.03.01.05c0,.02.02.03.03.03.06.02.15-.09.26-.34.14-.22.22-.32.25-.32s.04,0,.05-.03c0-.03.02-.06.03-.09,0-.1.03-.15.09-.17.06-.01.09-.04.09-.07l-.02-.06s0-.04.01-.06c0-.02.03-.04.08-.05.05-.01.07-.06.07-.15s.15-.4.44-.93c.51-1,.84-1.72.98-2.15.03-.07.07-.16.12-.27.05-.11.09-.23.14-.37.05-.14.09-.3.14-.48.02-.04.03-.12.06-.23.02-.11.05-.21.09-.3.04-.09.11-.33.21-.72.1-.38.22-.82.36-1.3l.61-2.21c.05-.15.09-.32.14-.51.05-.19.09-.35.14-.48.09-.33.16-.54.19-.62.03-.08.07-.21.13-.4.05-.19.1-.37.13-.54l.16-.56c.11-.23.22-.58.33-1.05.34-1.22.57-1.97.68-2.26l.07-.2s-.06,0-.14.02c-.08.02-.17.04-.28.06-.11.02-.21.04-.32.05-.1,0-.17,0-.2,0-.02,0-.02-.02-.02-.03l.05-.04s.08-.03.2-.05c.12-.02.25-.07.41-.16.37-.23.56-.42.56-.58s.14-.29.42-.42c.17-.08.32-.1.44-.06.14.04.3.14.47.3.17.16.3.25.37.27.05.01.08.02.09,0,.02-.01.04-.01.07,0,.05.01.11.07.19.18.12.18.21.34.25.45.04.12.06.28.06.49-.02.45-.12.92-.3,1.4-.06.14-.16.42-.28.82-.33.91-.59,1.75-.8,2.52-.09.26-.15.43-.18.48-.02.06-.05.08-.08.07-.05-.01-.13.14-.23.47-.11.33-.16.56-.16.7s-.05.28-.14.41l-.16.51c0,.15-.03.23-.09.26l-.09.02s.02.03.05.04.05.05.05.11c0,.08,0,.16-.02.25-.02.09-.04.16-.07.24-.03.07-.06.11-.09.12-.03,0-.05.02-.05.04s0,.03.02.03c.02,0,.02.02.02.03s-.02.04-.05.06c-.06.13-.11.26-.14.4-.08.43-.23.91-.44,1.43-.13.35-.23.78-.33,1.27l-.07.37-.14.54c-.03.1-.05.2-.06.29,0,.09-.03.21-.06.36-.2.64-.32,1.09-.35,1.35-.03.26-.07.46-.12.59-.02.03-.03.09-.06.18-.02.09-.04.19-.06.3-.03.19-.07.35-.12.49-.05.14-.07.3-.07.47s-.04.41-.12.71c-.06.21-.12.48-.16.81-.13.88-.19,1.5-.19,1.88,0,.24,0,.37.02.37.05.01.13,0,.26-.07.12-.06.23-.08.3-.05h.04s.01,0,.01-.01.04-.05.12-.11.17-.12.28-.18c.11-.06.21-.11.32-.15.1-.03.16-.05.18-.04.05.01.07.05.07.11s.01.1.03.13.05.05.09.07.06.03.06.04v.02s-.02.07-.05.11c-.08.14-.12.23-.12.28-.06.34-.17.54-.33.61-.06.05-.11.09-.13.12-.02.03-.04.08-.04.15l.02.08s-.03.09-.09.12c-.06.03-.16.03-.28-.01s-.21-.04-.26,0c-.03.07-.25.05-.66-.08ZM67.63,124.66s.07-.26.07-.69-.03-.67-.09-.69c-.03,0-.05.07-.05.23,0,.24,0,.47.02.67v.44l.05.04ZM67.7,122.34s.05-.02.09-.07c.05-.05.07-.14.07-.27s-.02-.2-.05-.21h-.05s-.03.01-.05.08c-.02.07-.03.13-.05.19-.02.06-.03.11-.03.14,0,.03-.01.05-.01.07,0,.03.02.05.05.06h.02ZM67.79,121.63s.03,0,.05-.02c.02-.02.04-.06.06-.12.02-.06.04-.13.05-.21,0-.08.02-.16.04-.25.02-.09.04-.16.07-.22.03-.06.05-.14.06-.23,0-.09,0-.16,0-.22,0-.06-.02-.09-.03-.1-.05-.01-.11.18-.19.58-.08.32-.12.57-.12.75,0,.02,0,.03.02.03ZM68.28,119.61s.05-.01.05-.06-.02-.08-.05-.09c-.05-.01-.07,0-.07.05s.02.08.07.1ZM73.43,125.59l.02-.04c.08-.09.13-.27.16-.54.16-.78.23-1.39.23-1.81v-.07s-.05.04-.05.16-.02.19-.06.21c-.04.03-.07.17-.08.43-.03.11-.05.2-.07.3-.02.09-.03.2-.05.32-.02.12-.03.24-.03.36,0,.12-.03.29-.08.52l-.02.14.02.03ZM73.99,128.43s.07-.16.07-.53.02-.69.05-.98c.05-.15.09-.44.14-.89.03-.3.07-.48.11-.55.04-.07.06-.12.06-.15h-.02c0-.15.04-.37.12-.67.08-.29.15-.62.21-.98,0-.23.02-.38.07-.47l.09-.24s.02-.13.05-.23c.06-.29.09-.46.09-.51,0-.07,0-.1-.02-.12-.02-.01-.02-.04-.02-.09,0-.02.05-.16.14-.42.09-.26.14-.48.14-.64,0-.05-.02-.08-.07-.09s-.07,0-.07.03l.02.08-.05.16c-.06.05-.09.12-.09.22l.02.06c0,.08-.02.12-.05.11h-.05s-.05-.07-.05-.15c0-.15.04-.4.12-.75.08-.35.13-.52.16-.51s.05.04.07.09c0,.07,0,.12-.02.18-.02.05-.04.1-.08.13-.04.04-.06.06-.06.08s.02.03.05.04.08,0,.14-.03c.13-.04.19-.18.19-.41.03-.22.07-.36.12-.43.05-.02.09-.15.14-.4.14-.59.29-1.15.44-1.68.08-.14.12-.26.12-.36l-.05-.04s-.1,0-.16.02c-.06.03-.11.09-.14.17-.03.08-.06.16-.09.23v-.27c0-.18.02-.26.05-.25s.05,0,.06,0c0-.01.01-.03.01-.05l-.02-.13c0-.07.03-.14.08-.23.05-.09.09-.16.11-.2l-.02-.11s.02-.14.07-.27c.09-.1.14-.21.14-.31s.04-.24.12-.39c.08-.16.13-.23.16-.22l.02.03c0,.07-.02.12-.05.17-.03.05-.05.09-.05.12v.12s.03.08.09.1c.03,0,.06,0,.09-.02.05-.13.07-.24.07-.31s.04-.22.12-.44c.06-.13.09-.22.09-.29-.02-.04-.03-.06-.05-.06l-.05.04s-.09.05-.12.1c-.03.05-.06.09-.08.13-.02.04-.03.07-.03.09l.02.08s-.02.07-.07.05c-.03,0-.05-.06-.05-.16,0-.29.07-.7.21-1.21l.35-1.19s-.02-.06-.07-.09c-.05-.01-.18.31-.4.98-.25.87-.47,1.49-.66,1.86-.05.1-.08.15-.09.14,0-.05.04-.19.12-.43.08-.24.12-.39.12-.45,0-.03,0-.05-.02-.06-.03,0-.08.02-.15.08-.07.06-.11.13-.11.21l.02.06c0,.08-.02.15-.07.21-.05.06-.09.2-.13.41-.04.22-.09.37-.14.47-.05.1-.11.3-.18.61-.09.41-.22.9-.37,1.48l-.12.45c-.08.14-.12.25-.13.34,0,.09-.02.16-.03.22.02-.03.03-.05.06-.07.02-.02.05-.07.09-.14.04-.08.07-.16.11-.25.03-.09.05-.15.06-.19,0-.04.02-.07.05-.1.02-.02.05-.05.08-.07.03-.14.06-.24.09-.31.03-.07.05-.15.07-.25v.22c.03-.06.07-.1.12-.14.09-.12.15-.2.18-.24.02-.04.07-.07.15-.08.02,0,.02.02.02.06s-.02.08-.05.13c-.03.06-.06.1-.09.13-.03.03-.05.04-.07.04h-.02s0,.12,0,.12c0,.1-.09.32-.28.67l-.21.55c0,.1-.02.14-.06.13s-.06.03-.06.13v.12c0,.21-.03.31-.09.29-.05-.01-.07-.09-.07-.22v.07c-.03.14-.06.22-.09.25-.03.03-.06.08-.09.15-.03.07-.07.15-.11.24-.04.09-.07.18-.08.27-.02.09-.06.18-.12.26-.02.01-.04.06-.07.14-.03.08-.05.17-.05.27-.03.22-.06.35-.08.38-.02.03-.05.12-.07.25-.02.13-.05.29-.08.49-.03.19-.05.35-.05.46v.07s0,.03.02.03h.02s.05-.02.07-.05c.02-.03.02-.06.02-.09v-.05s.01-.12.03-.21c.02-.09.05-.18.07-.26.02-.08.05-.18.07-.28.02-.11.04-.19.06-.26.02-.07.04-.18.08-.33.04-.15.07-.32.11-.51h.02c.03-.16.07-.32.11-.47.04-.15.06-.26.06-.32.03-.17.08-.24.14-.23l.05.04v.07c0,.16-.13.75-.37,1.77-.36,1.63-.58,2.77-.68,3.41,0,.16-.02.26-.05.3-.03.04-.05.15-.07.32-.03.35-.05.76-.05,1.23,0,.24.02.37.07.39.03,0,.06-.05.08-.17.02-.12.05-.43.09-.91.04-.49.09-.72.15-.7.02,0,.03.04.06.1.02.06.03.13.03.19-.02.08-.03.16-.06.24-.02.08-.05.27-.08.56-.03.29-.05.59-.05.9,0,.49.03.74.09.76ZM74.06,125.3s-.05-.03-.05-.06c-.02-.05,0-.1.05-.15.05-.04.07-.16.07-.35s.02-.27.07-.26c.02.02.03.07.05.14,0,.31-.02.5-.07.58-.05.08-.09.11-.12.1ZM74.39,128.28s.05-.02.05-.1.01-.12.03-.15c.02-.03.05-.03.08-.02s.05,0,.05,0l-.05-.06s-.07-.09-.07-.19l.05-.3c0-.23.03-.42.09-.58.08-.29.16-.42.23-.39.02,0,.02.02.02.06l-.02.11c0,.1.02.15.05.16.06.02.09-.04.09-.17s-.04-.21-.12-.23h-.02s-.05-.04-.07-.08c0-.18.03-.42.09-.71l.02-.14s0-.05-.02-.06h-.07s-.02-.01-.02-.03.02-.05.05-.1c.03-.05.07-.07.11-.05s.06,0,.06-.06c0-.03-.03-.06-.09-.08h-.05s-.02-.02-.02-.07c0-.03.02-.08.05-.16.03-.07.06-.1.09-.09.02,0,.02.01.02.03.02,0,.03,0,.05,0,.02,0,.02-.02.02-.05,0-.08-.02-.14-.06-.19-.04-.04-.06-.07-.06-.09,0-.03,0-.06.02-.09.02-.03.03-.05.05-.07.02-.02.02-.06.02-.12s0-.13.01-.22c0-.09.03-.13.06-.14l.3.17s.02,0,.02-.02,0-.04-.01-.06c0-.03-.02-.05-.03-.06-.02-.01-.05-.03-.11-.06-.05-.02-.08-.05-.08-.09s.03-.07.09-.12c.06-.05.1-.09.12-.14,0-.08-.01-.16-.03-.24-.02-.08-.04-.16-.06-.25v-.2s.03-.04.05-.03l.02.03s.03,0,.06,0c.02,0,.04-.02.06-.04v-.1s-.04-.06-.07-.08c-.03-.02-.05-.03-.05-.05,0-.05.06-.08.19-.09l.09.03.05-.03s.05-.07.05-.13c0-.03,0-.06-.02-.08h-.02s0,.02,0,.02c0,.03-.02.05-.05.05-.03,0-.07,0-.12-.02-.06-.02-.09-.04-.09-.05,0-.07,0-.12.02-.16.11-.36.19-.53.23-.52l.19.06c.08.02.12,0,.12-.06,0-.03,0-.05-.02-.06h-.07s-.08-.03-.09-.05l.07-.27s0-.05-.02-.06c-.03,0-.05-.01-.06,0,0,0-.04.07-.08.18-.02,0-.02-.04-.02-.1,0-.05.02-.1.06-.15.04-.05.09-.11.16-.16.07-.05.11-.08.13-.07s.02.02.02.03l-.05.16s.07-.04.12-.16c.03-.06.05-.12.05-.21l.02-.21s-.05.02-.09.07c-.05.05-.08.07-.09.07-.02,0-.02-.03-.02-.08,0-.13.05-.25.14-.35.06-.14.09-.23.09-.27l-.02-.08v-.05s.04-.02.08-.04c.04-.01.06-.04.06-.09,0-.03-.01-.08-.03-.15s-.04-.1-.06-.1v.05c-.02.06-.04.09-.07.08s-.05-.07-.05-.18c.03-.09.08-.12.14-.1.19.06.28.04.28-.06,0-.05-.05-.09-.16-.12h-.07s-.07-.04-.07-.09c0-.11.09-.32.26-.63l.09-.02.02-.02s.02-.04.02-.09.01-.1.03-.15c.02-.05.05-.07.08-.06.02,0,.03.01.03.02,0,.01.01.03.01.06s0,.05.02.06.04,0,.07-.03c.03-.02.05-.05.05-.08s-.02-.07-.05-.12c-.03-.05-.05-.1-.07-.16v-.12l.02-.04s0-.03-.01-.05c0-.02-.03-.03-.07-.05s-.06-.05-.06-.12c0-.02.01-.03.04-.04.02,0,.06,0,.11,0s.07-.05.07-.2c-.02-.02-.04-.04-.07-.05-.02,0-.03,0-.04.01,0,.01-.01.04-.01.07s0,.05-.02.04h-.02s-.02-.08-.02-.16c.05-.07.09-.09.14-.08l.09.03s.08.01.09,0c.02-.02.02-.04.02-.05-.02-.02-.05-.04-.11-.06s-.09-.05-.11-.11v-.02s.02-.08.05-.08c.03,0,.05-.04.07-.1,0-.34.02-.52.05-.55l.05.04.05.19s.03,0,.03-.04c0-.03.01-.07.01-.12-.02-.04-.04-.08-.07-.13-.03-.05-.05-.08-.05-.1s.03-.01.11,0,.11,0,.11-.07c0-.03-.02-.05-.05-.06h-.02s-.02-.06-.02-.06c0-.2.05-.28.16-.24s.16.02.16-.05c0-.03-.02-.05-.05-.06l-.21-.02s-.05-.02-.05-.04.02-.04.05-.07c.03-.03.08-.12.14-.26.12-.39.2-.71.23-.98.06-.42.15-.78.26-1.07l.09-.34s0-.06-.02-.08v-.02s.02-.07.05-.07c.03,0,.07-.08.12-.25,0-.05.03-.16.09-.34l.02-.04s0-.04-.01-.06c0-.03-.02-.04-.03-.05-.11-.03-.37.75-.8,2.35-.09.3-.15.5-.16.61-.02.11-.05.18-.11.22-.05.04-.08.1-.08.17s-.02.18-.07.31c-.03.04-.16.51-.4,1.42-.16.62-.3,1.17-.44,1.65-.42,1.31-.85,3.1-1.29,5.38-.06.31-.12.57-.16.79-.05.22-.07.34-.08.37,0,.02-.03.14-.06.36-.13.61-.23,1.28-.3,1.99v.9c0,.11.04.18.12.21ZM74.34,128.54s.06,0,.09,0c.03-.01.05-.04.07-.06,0-.03-.03-.06-.09-.08-.09-.03-.14,0-.14.06,0,.05.02.08.07.09ZM74.48,123.27s-.02-.05-.02-.13v-.15c.08-.38.15-.57.21-.55.05.01.07.06.07.14s-.03.22-.11.41c-.07.19-.12.28-.15.27ZM74.62,119.28l.02-.07s-.02.03-.02.07ZM74.85,127.32s.05-.03.05-.11-.02-.13-.05-.14v.24ZM75.02,126.25s.05-.06.05-.21c0-.11,0-.17-.02-.18s-.03.02-.06.08c-.02.06-.03.11-.03.16,0,.02,0,.04.02.08.02.04.03.06.05.06ZM75.16,125.29s.07,0,.07-.05c0-.24,0-.37-.02-.37s-.04,0-.08.02c-.04.02-.06.1-.06.23,0,.1.02.15.07.17h.02ZM75.23,124.75s.04,0,.07-.03c.06-.11.09-.25.09-.41,0-.05,0-.08-.02-.08s-.05.05-.11.18-.08.21-.08.26v.05s.02.03.05.04ZM75.28,117.65l.05-.23c.05-.21.11-.42.19-.63.12-.32.19-.59.19-.8,0-.05.04-.06.12-.04.02,0,.03.01.03.02,0,.01.01.02.01.04l-.02.04s-.05.12-.09.26c-.05.41-.13.74-.25.98-.12.24-.19.36-.22.35ZM75.35,119.55v-.07c0-.26.02-.38.07-.37s.07.07.07.17c0,.03,0,.07-.02.11-.02.04-.03.08-.06.12-.02.03-.04.05-.06.04ZM75.6,123.81s.02-.03.02-.09c0-.05-.02-.08-.07-.09-.03,0-.05,0-.05.03l.02.06c.02.05.04.08.07.09ZM75.6,118.28l-.02-.03s0-.04.02-.08c.02-.04.03-.07.05-.11.02-.04.02-.07.02-.1.03-.09.05-.13.07-.13h.02v.08c0,.11-.02.21-.05.28-.03.07-.07.1-.12.09ZM75.7,122.1c.12.04.19,0,.19-.14,0-.08,0-.13-.02-.13l-.23.17s-.05.02-.05.03c0,.02.04.04.12.06ZM76.28,117.24s.07-.01.07-.08c0-.05-.02-.08-.07-.09s-.08,0-.09.04c.02.05.05.1.09.13ZM76.23,116.96s.08-.05.15-.17.11-.25.13-.38c0-.11-.02-.18-.07-.19-.09-.03-.16.14-.21.5l-.02.16s0,.08.02.08ZM77.15,112.47c.06.02.09-.01.09-.09s-.03-.13-.09-.15c-.05-.01-.07.02-.07.1s.02.13.07.14ZM77.17,113.45s.07,0,.12,0c.05-.01.09-.03.12-.06.03-.03.05-.06.05-.07s-.02-.03-.07-.05c-.03,0-.07,0-.12,0s-.09.03-.12.05c-.03.02-.05.05-.05.08,0,.02.02.03.07.05ZM77.26,111.82s.05-.03.11-.09c.05-.06.1-.12.13-.16.03-.04.05-.07.05-.08,0-.03-.02-.06-.05-.09-.06-.02-.12,0-.18.07-.05.07-.08.14-.08.22s0,.12.02.13ZM77.5,115.88s.03,0,.05-.03l-.02-.08c0-.07.02-.1.06-.12.04-.01.06-.03.06-.04l-.14-.12s-.02.03-.02.05,0,.04-.01.03h-.03s-.07-.06-.07-.06h-.05s.02.09.06.19c.04.1.08.16.13.17ZM77.8,111.57c.11-.02.16-.09.16-.22l-.02-.06s-.05.02-.12.06c-.06.05-.1.09-.12.14,0,.03.02.05.05.06h.05Z"/><path class="cls-7" d="M81.9,130.86c-.13-.04-.23-.08-.32-.12-.09-.04-.19-.09-.32-.14-.31-.13-.64-.3-.98-.52-.34-.22-.61-.41-.8-.58-.08-.07-.18-.2-.32-.39-.13-.19-.26-.39-.39-.61-.56-.99-.84-2.01-.84-3.07,0-.47.02-.85.07-1.14.05-.29.08-.53.09-.74.05-.34.12-.66.23-.93l.14-.49c.2-.79.47-1.33.8-1.64.02-.03.09-.12.22-.29.13-.16.32-.42.55-.77,1.51-2.18,2.97-3.24,4.38-3.17.23.02.42.04.55.04.13,0,.46.09.97.25.34.1.6.25.78.43.18.19.38.51.6.96.08.15.12.3.14.42.02.13.02.29.02.48-.08.79-.26,1.37-.54,1.72-.13.17-.19.29-.19.35s-.02.08-.05.07-.07.02-.12.08c-.05.06-.1.13-.16.21-.14.25-.3.45-.47.59-.17.14-.35.33-.54.55-.41.5-1.12.83-2.13.99-.69.12-1.2.12-1.54.02-.14-.04-.26-.11-.35-.19-.09-.09-.19-.17-.28-.24-.22.28-.36.5-.43.68-.07.17-.16.47-.27.9l-.19.55c-.23.7-.35,1.46-.35,2.29,0,.6.05.96.16,1.08.11.12.3.21.56.29.59.18,1.19.11,1.8-.21l.75-.38c.64-.34.99-.55,1.06-.63.07-.08.21-.16.43-.26.36-.18.79-.5,1.29-.95.58-.57.93-.84,1.05-.8.05.01.14-.08.29-.29.15-.21.25-.3.29-.29s.07.03.07.05l-.02.09v.02s0,.03.02.03.04,0,.08-.02c.04-.02.06-.08.06-.18-.02-.02-.03-.04-.06-.04s-.03-.02-.03-.03c0-.03.02-.07.06-.1.04-.04.07-.05.11-.04.02,0,.03.03.06.08.02.05.03.08.03.1,0,.2-.37.57-1.12,1.13-.34.25-.51.4-.51.43l-.02.04s-.07.08-.13.12c-.05.04-.13.1-.21.18-.09.08-.17.17-.25.26-.36.35-.87.73-1.54,1.15-.19.11-.28.18-.28.23h.02c.17,0,.61-.21,1.31-.6.33-.21.69-.48,1.08-.8.16-.12.29-.21.41-.29.12-.08.23-.16.35-.26.12-.1.32-.3.62-.62.08-.09.2-.2.35-.33.16-.13.37-.33.66-.58.2-.18.35-.3.44-.35h.09c0,.05-.15.22-.44.51-.47.44-.82.75-1.05.93l-.94.84-.07.15s0,.02-.02.02l-.21-.11s-.03,0-.05.04l.05.33s0,.05-.02.04l-.02-.03s-.04-.04-.07-.05c-.06-.02-.13.01-.19.09-.02.01-.02.05-.02.12l.02.06-.05-.04s-.05,0-.09.04c-.11.08-.2.22-.28.4l-.02.14s.2-.08.47-.27c.26-.2.4-.32.4-.37s.11-.14.33-.27c.09-.05.16-.1.21-.16l.07-.13s.05-.05.15-.06c.1,0,.17-.06.2-.16.03-.1.11-.19.23-.28.06-.03.11-.07.13-.11.02-.04.03-.1.03-.16s.05-.12.14-.15c.19-.14.55-.5,1.1-1.08l.05-.03c.19-.19.3-.3.35-.33.05-.03.11-.09.18-.17.07-.08.14-.15.2-.21.25-.25.4-.37.44-.35v.02c0,.08-.05.19-.16.32-.19.25-.34.42-.44.5l-.09.09c-.16.23-.51.59-1.08,1.09-.09.04-.14.08-.14.13s-.19.32-.57.8c-.38.49-.64.78-.78.89-.05.03-.17.17-.37.4l-.63.64c-.23.17-.35.3-.35.37s-.11.19-.33.35l-1.15.75c-.48.34-.88.57-1.19.69-.31.12-.72.14-1.22.07ZM81.57,122.49c.14.04.4.02.77-.06.59-.11,1.03-.25,1.32-.41.29-.16.6-.41.92-.75.41-.42.71-.75.9-1,.2-.25.38-.54.55-.86.14-.25.24-.46.29-.63.05-.17.08-.37.08-.6,0-.38-.02-.57-.05-.58-.02,0-.16.07-.44.23-.36.2-.6.32-.73.34-.17.06-.38.18-.63.35-.67.45-1.01.74-1.01.87,0,.02-.02.04-.06.08-.04.04-.08.08-.13.13-.14.07-.21.14-.21.19s-.05.12-.14.2c-.09.08-.21.21-.35.4-.37.47-.56.77-.56.91s-.1.34-.29.62c-.19.28-.29.46-.29.52,0,.02.02.03.05.04ZM85.29,128.39s.12-.02.22-.09c.1-.08.15-.13.15-.16l-.05-.04s-.12,0-.22.07c-.1.06-.15.12-.15.19l.05.04ZM88.45,124.48h-.02s-.02-.03-.02-.06c0-.06.12-.19.37-.38.25-.18.37-.31.37-.39s.08-.12.23-.15c.16-.03.27-.08.35-.15.08-.07.12-.14.12-.21l-.05-.11h.02s.05.07.05.07c.03.03.05.06.05.11,0,.02,0,.05-.02.12-.02.06-.27.29-.77.69-.39.29-.62.44-.68.45Z"/><path class="cls-7" d="M49.49,92.38c-.24-.76-.57-1.36-.98-1.8-.41-.44-.99-.78-1.74-1-.33-.13-.61-.24-.84-.32-.24-.08-.37-.11-.39-.09h-.64c-.43-.03-.71,0-.84.09-.13.09-.25.15-.37.18-.12.03-.22.05-.31.04-.19-.06-.45.01-.77.23-.06.07-.08.14-.07.19v.04s.05,0,.06.02c.02.06-.02.13-.09.19-.08,0-.15.02-.21.03,0,0,0,0,0,0l-.05-.16c-.03-.11-.14-.13-.32-.07l-.22.1s-.08.07-.09.11l-.02.06s.07.06.14.06c-.07.02-.13.04-.18.05-.18.08-.43.18-.76.3-1.92.86-4.22,3.55-5.74,8.65-.23.82-.4,1.41-.49,2.03-.07.47-.21,1.38-.22,1.45-.33,1.93-.27,1.44-.35,3.03l-.04,1.35c-.08.59-.09,1.16-.07,1.83.03.39.09,1.02.1,1.58,0,.57.08,1.13.2,2.01.26,1.96.81,3.27,1.82,4.7.22.32.54.73.77.99.23.25.47.29.6.37.3.19.61.48,1.13.64.52.16,1.1.14,1.55.16.18.01.34.03.47.05.13.02.28.02.46,0,.7-.22,1.24-.55,1.64-.98.39-.43,1.51-1.26,2.08-2.24l1.15-1.98c.05-.09.1-.18.15-.26.13-.12.24-.24.32-.36.09-.14.13-.24.12-.29-.02-.05.16-.35.52-.88.57-.96,1.15-2.45,1.74-4.48.22-.82.3-1.3.26-1.44-.05-.14-.02-.29.09-.44.11-.15.14-.29.1-.4-.04-.12.05-.47.25-1.06.02-.11.02-.19,0-.24-.02-.05-.02-.12,0-.19.02-.07.06-.15.12-.22.14-.19.19-.51.16-.97.06-.52.12-.8.18-.84.06-.04.07-.1.05-.18-.03-.08-.02-.22.01-.42.04-.2.07-.42.1-.67.03-.25.07-.5.12-.75.05-.25.07-.45.07-.57,0-.13.01-.31.04-.55.02-.24.04-.47.05-.7.12-1.9-.15-3.88-.81-5.93ZM43.05,89.78c.09-.06.16-.04.19.06.03.08.03.13,0,.14-.05.03-.1.03-.15-.02-.06-.04-.09-.08-.1-.1l.06-.09ZM38.71,116.44c-.38.04-.56-.04-.73-.18-.18-.14-.6-.64-.75-1.75-.21-1.54-.08-3.13.06-4.58l.12-1.16c.04-.86.09-1.48.14-1.85.05-.37.19-.89.42-1.55l.41-1.23c-.02-.12.07-.51.27-1.17.19-.66.28-1.11.24-1.35-.03-.24.15-.93.54-2.07.14-.44.27-.77.38-.98.11-.21.15-.37.14-.47-.01-.1.07-.27.24-.5.05-.13.1-.24.14-.33.04-.1.06-.16.06-.19-.03-.24.09-.87.89-2.17.3-.49.48-1.07.7-1.31.16-.14.13-.59.57-1.22.34-.49.36-.8,1.13-1.32.38-.26.68-.41.88-.51.02,0,.05,0,.07,0,.42.08.86.4,1.3.94.44.55.83,1.32,1.15,2.32.14.45.23.85.26,1.21l.06.58.1.56c.06.02.12.02.16-.01.14-.09.25-.1.33-.03v.04c.03.05.01.1-.03.13l-.3.11c-.09.06-.12.15-.09.25.07.21.06.47-.03.76-.09.3-.1.54-.04.72l.06.06s-.02.06-.07.1c-.06.04-.06.11,0,.19l.11.21c.02.05.02.11.01.16-.01.06-.05.1-.1.14-.06.04-.11.32-.16.83-.05.51-.05.83,0,.96.02.05.04.07.06.06l.09-.11s.07.1.15.33c.1.31.11.55.02.71l-.04.02s-.01-.1-.01-.23c0-.13,0-.22-.02-.27-.04-.13-.11-.17-.2-.1-.12.08-.21.3-.29.68-.04.13-.05.23-.02.33.03.09-.21,1.16-.7,3.18-.19.45-.49,1.64-1,2.82-.57,1.19-.87,1.88-1.31,2.47-.27.33-1.04,1.51-1.12,1.7-.08.19-.11.11-.9,1.19l-.92,1.24c-.75,1.02-1.55,1.57-2.39,1.65ZM46.61,91.59s.1-.01.17.06c.06.07.12.12.16.16.04.04.07.08.09.13.03.11.03.17-.02.21-.07.05-.14.04-.2-.03-.06-.07-.12-.17-.16-.3l-.03-.22ZM47.57,95.64c-.03-.08.04-.17.21-.28.19-.13.29-.15.32-.07,0,.03,0,.11,0,.26,0,.15-.04.24-.08.27-.05.03-.12.03-.24,0-.11-.04-.18-.09-.2-.17ZM47.57,99.71c-.03-.1-.02-.2.03-.29.06-.09.1-.14.12-.15.02-.02.04,0,.06.06.03.11.01.21-.06.33l-.07.05-.04.02s-.04.01-.05-.02ZM48.48,102.69c-.07.05-.12.11-.16.18-.03.07-.04.14-.02.2.02.07,0,.12-.07.17-.05.03-.08.02-.1-.03-.03-.08-.03-.19-.02-.32.03-.34.08-.54.15-.58.07-.05.15,0,.25.12l.03.08c.03.08,0,.14-.07.19ZM47.96,98.16s-.06,0-.1-.05c-.04-.05-.07-.09-.08-.11,0-.03-.02-.05-.03-.08,0-.03,0-.06,0-.1l.04-.02c.07-.05.12-.02.16.09.05.16.05.25,0,.28ZM48.36,98.5l-.08-.13c-.04-.13-.05-.2-.03-.22.05-.03.09,0,.12.11,0,.03.01.07.02.13,0,.06,0,.1-.03.11ZM48.07,97.32l-.29.15s.01-.05.06-.09c.13-.12.18-.25.13-.38l-.12-.25s-.02-.06-.03-.1c-.01-.04,0-.07.05-.11.09-.06.16-.02.21.12.05.14.08.21.1.19.05-.03.09-.1.13-.2.04-.1.04-.34,0-.7-.03-.36-.07-.76-.13-1.18-.05-.43-.13-.8-.23-1.11-.08-.24-.15-.33-.22-.28-.07.05-.09.2-.06.47.16.76.18,1.17.06,1.25l-.04.02-.09-.13c-.03-.08-.04-.18-.04-.31,0-.13,0-.25-.01-.37-.01-.12-.02-.21-.04-.26l-.05-.16c-.06-.18-.15-.45-.26-.81-.11-.35-.16-.55-.15-.59v-.04s.11,0,.21.09c.1.09.17.16.22.21.04.05.07.09.08.11v.14c.02.05.06.06.13,0,.05-.03.07-.07.07-.12,0-.05,0-.08-.01-.11-.02-.05-.04-.08-.07-.09-.31-.52-.5-.91-.58-1.14-.02-.15-.02-.23,0-.24l.07-.05c.07-.05.1-.1.08-.15-.03-.08-.13-.19-.32-.33-.19-.14-.38-.26-.58-.35-.2-.09-.32-.12-.37-.09-.05.03-.07.03-.08,0-.02-.05,0-.1.08-.15.07-.05.18-.06.33-.03.26.02.54.1.84.25.3.15.65.63,1.06,1.44l.56,1.2c.03.08.03.14.02.18-.02.21,0,.39.05.54.36,2,.34,3.12-.05,3.39-.19.13-.25.27-.2.42,0,.03.02.03.05.02l.15-.2s.05-.03.09-.04c.04-.01.07.01.08.06.03.08,0,.2-.1.35-.09.06-.18.08-.26.05-.08-.03-.15-.13-.21-.32l-.04-.26c-.02-.05-.11-.04-.28.05ZM49.82,98.53c-.02.3-.05.56-.11.77-.06.21-.11.34-.16.37l-.03.02s-.06.07-.1.16c-.04.09-.07.21-.08.34.04.29,0,.48-.1.55-.1.07-.2.16-.29.27s-.15.17-.17.19l-.05-.02.06-.09c.03-.08.08-.3.16-.63.08-.34.15-.71.22-1.1.07-.4.14-.79.22-1.18.07-.39.15-.71.21-.98.07-.27.11-.41.14-.43.05-.03.08-.02.1.03.07.21.07.78,0,1.72ZM49.77,96.55s-.08,0-.11-.07l-.07-.34-.19-1.5c-.09-.71-.11-1.08-.06-1.11.05-.03.09.03.15.19.08.26.18.88.3,1.86.05.6.05.93-.03.98Z"/><path class="cls-7" d="M47.5,91.33c-.07.05-.08.14-.04.27.05.16.13.31.23.46h.08s.03-.17-.04-.41c-.08-.26-.16-.37-.23-.32Z"/><polygon class="cls-4" points="104.14 153.03 104.14 136.61 127.47 125.21 127.47 141.31 104.14 153.03"/></g></svg>