<?xml version="1.0" encoding="UTF-8"?><svg id="Layer_2" xmlns="http://www.w3.org/2000/svg" viewBox="0 0 60.28 52.96"><defs><style>.cls-1{stroke-width:2px;}.cls-1,.cls-2{fill:none;stroke:#5082a8;stroke-miterlimit:10;}.cls-3{fill:#5082a8;stroke-width:0px;}</style></defs><g id="Design"><path class="cls-1" d="M32.27,41.45H4.25s-2.94.81-2.94,6.59v2.8c0,.62.5,1.12,1.12,1.12h31.85c.62,0,1.12-.5,1.12-1.12v-3.88c0-2.37-1.25-4.44-3.12-5.62.5-.5.92-1.19,1.29-2.16.01-.04.03-.08.04-.12l.93-3.61c.06-.09.11-.2.14-.31l.57-2.2c.42-1.63,1.65-2.86,3.22-3.2l.08-.02v1.04c0,.3.12.6.34.81.21.2.49.31.78.31h.04l16.16-.61c1.89-.01,3.43-1.6,3.43-3.56,0-1-.41-1.97-1.14-2.64-.7-.65-1.61-.98-2.58-.91l-16.03,1.56c-.57.06-1.01.54-1.01,1.12v.58l-.56.12c-1.84.4-3.37,1.59-4.27,3.22H2.12c-.35,0-.67.16-.89.44-.21.27-.28.63-.2.97l1.78,6.89s.02.08.04.12c.39,1.03.85,1.76,1.39,2.26"/><line class="cls-1" x1="45.27" y1="25.29" x2="45.27" y2="31.69"/><line class="cls-1" x1="1.72" y1="34.82" x2="34.67" y2="34.82"/><path class="cls-2" d="M23.56,4.7c.17-.25.42-.42.72-.48.59-.12,1.19.29,1.31.88h0c.12.61-.28,1.2-.88,1.32-.07.01-.15.02-.22.02-.53,0-1-.38-1.1-.9-.06-.29,0-.59.17-.84Z"/><path class="cls-3" d="M33.53,15.28c-.11.03-.22.05-.33.05-.49,0-.93-.31-1.07-.79-.09-.29-.06-.59.08-.85.14-.26.37-.46.66-.55.58-.18,1.23.16,1.4.74.19.59-.15,1.22-.73,1.4"/><path class="cls-3" d="M38.32,20.29c.21.21.33.49.33.79,0,.15-.03.3-.09.43-.05.14-.13.26-.24.36-.21.21-.49.33-.79.33-.15,0-.3-.03-.43-.08-.13-.06-.26-.14-.36-.25-.21-.21-.32-.49-.32-.79s.12-.58.32-.79c.05-.06.11-.1.17-.14.06-.04.12-.08.19-.11.07-.03.14-.04.21-.06.14-.03.29-.03.44,0,.07.02.14.03.21.06.07.03.13.07.2.11.06.04.12.08.17.14"/><path class="cls-3" d="M27.77,26.69c-.21-.21-.33-.49-.33-.79,0-.07.01-.15.02-.22.02-.07.03-.14.06-.21.03-.07.07-.14.11-.2.04-.06.08-.12.14-.17.05-.05.11-.1.17-.14.06-.04.12-.08.2-.11.07-.03.13-.04.21-.06.36-.07.75.04,1.01.31.05.05.1.11.13.17.04.06.08.13.11.2.03.07.05.13.06.21.02.07.02.15.02.22,0,.3-.12.58-.32.79-.11.11-.23.19-.37.25-.14.06-.28.08-.43.08s-.29-.03-.42-.08c-.14-.06-.26-.14-.36-.25"/><path class="cls-3" d="M5.61,9.86c.32.53.15,1.22-.38,1.54-.17.11-.38.16-.58.16-.4,0-.76-.2-.96-.54-.16-.26-.2-.55-.13-.85.07-.29.25-.54.51-.69.52-.31,1.23-.14,1.54.38"/><path class="cls-3" d="M4.19,24.86c.03.07.05.14.06.21.02.07.02.15.02.22,0,.15-.03.29-.08.43-.06.14-.14.25-.25.36-.21.21-.49.33-.79.33s-.58-.12-.79-.33c-.11-.11-.19-.22-.25-.36-.06-.14-.08-.28-.08-.43,0-.07,0-.15.02-.22.02-.07.03-.15.06-.21.03-.07.07-.13.1-.19.04-.06.09-.12.14-.17.05-.05.11-.1.17-.14.06-.04.13-.08.2-.11.07-.03.13-.05.21-.06.15-.03.29-.03.44,0,.07.01.15.03.21.06.07.03.13.06.19.11.06.04.12.09.17.14.06.06.1.11.14.17.05.06.08.12.11.19"/><path class="cls-3" d="M8.04,3.92c-.3-.01-.58-.14-.78-.36-.2-.22-.31-.5-.29-.81.02-.62.53-1.1,1.17-1.07.3.01.58.14.78.36.2.22.3.5.29.8-.03.6-.52,1.07-1.12,1.07h-.04Z"/><path class="cls-3" d="M8.02,19.36c.2.22.31.5.31.8-.02.61-.51,1.09-1.12,1.09h-.03c-.62-.01-1.11-.53-1.09-1.14.01-.6.51-1.1,1.12-1.1h.03c.3.01.58.13.79.35"/><path class="cls-3" d="M12.14,5.88c.41-.41,1.17-.42,1.59,0,.21.21.33.5.33.79s-.11.58-.33.79c-.21.21-.49.33-.8.33s-.58-.12-.79-.33c-.21-.21-.33-.49-.33-.79s.12-.58.33-.79"/><path class="cls-3" d="M17.24.37c1.71-.62,3.68-.45,5.26.45.54.31.72.99.42,1.53-.2.35-.57.57-.97.57-.19,0-.39-.05-.56-.15-.62-.35-1.3-.53-2.02-.54-.47,0-.94.09-1.38.24-.57.21-1.23-.11-1.43-.67-.21-.58.1-1.23.68-1.44"/><path class="cls-3" d="M2.44,18.94c-.93-1.13-1.44-2.55-1.44-4.02,0-.37.03-.73.09-1.08.1-.6.68-1.03,1.29-.92.61.1,1.02.68.91,1.29-.04.23-.06.47-.06.7,0,.96.32,1.86.93,2.6.19.23.27.52.25.82-.03.3-.17.57-.4.76-.2.16-.45.25-.71.25-.34,0-.65-.15-.86-.41"/><path class="cls-3" d="M8.49,14.56c-.1.54-.55.93-1.1.93-.07,0-.13,0-.2-.02-.29-.06-.55-.22-.72-.46-.17-.25-.24-.54-.18-.84v-.03s.01-.07.02-.13c0-.1.02-.24.04-.42.06-.44.15-.85.27-1.22.23-.7.83-1.97,2.33-2.73.54-.27,1.24-.05,1.51.48.14.26.16.57.07.85-.09.29-.28.52-.55.66-1.02.53-1.28,1.43-1.41,2.26-.01.11-.02.2-.03.29-.01.12-.02.23-.05.38"/><path class="cls-3" d="M30.09,22.45c-.62,0-1.12-.5-1.12-1.12s.5-1.12,1.12-1.12c.71-.01,1.04-.18,1.32-.44.29-.28.53-.76.67-1.38.14-.59.76-.97,1.35-.83.61.15.97.75.83,1.36-.26,1.06-.68,1.87-1.3,2.47-.71.69-1.71,1.06-2.83,1.06h-.04Z"/><path class="cls-3" d="M26.83,14.68c-.24-.18-.4-.44-.44-.73-.04-.3.03-.59.21-.84.35-.48,1.08-.59,1.57-.23h.01c.28.22.56.5.81.79.4.49.88,1.18.95,2.16.03.62-.44,1.15-1.05,1.19h-.07c-.59,0-1.08-.46-1.12-1.05.04-.36-.65-1.15-.85-1.27l-.02-.02Z"/><path class="cls-3" d="M20.86,27.57s.38-.87.38-1.67c0-.1,0-.2-.02-.31-.15-.92-.6-1.6-1.06-2.07-.26.62-.69,1.36-1.38,2.18-.4.47-1.1.54-1.58.14-.47-.4-.53-1.11-.14-1.58,1.18-1.4,1.24-2.3,1.24-2.46-.11-.41.03-.79.36-1.07.32-.28.79-.29,1.19-.12.12.05,2.74,1.2,3.47,4.11.78-1.27,1.18-2.65,1.18-4.13,0-2.05-.75-3.97-1.5-5.37l-.32,1.87v.08s-.01,0-.01,0c-.08.54-.55.96-1.11.96-.17,0-.37-.08-.6-.21,0,0,0,0,0,0-1.26-.74-3.19-3.45-3.54-7.34-.81,1.2-1.58,2.78-1.58,4.46,0,.6.1,1.18.29,1.75.52.89.83,1.97.66,3.26-.08.61-.64,1.05-1.25.97-.61-.08-1.05-.64-.97-1.25.16-1.22-.47-2.17-1.2-2.85.06,2.09-.45,4.52-1.06,6.91-.48,1.88.52,2.55,2.28,3.02.22.06.38.11.47.15.57.24.84.9.6,1.47-.18.43-.6.69-1.03.69-.14,0-.29-.03-.43-.09-.02,0-.1-.03-.19-.05-4.13-1.11-4.38-3.73-3.87-5.74.77-3.02,1.44-6.35.63-8.22-.18-.41-.09-.9.22-1.22.31-.33.79-.43,1.22-.27.07.03.68.27,1.43.75.39-4.27,4.06-7.53,4.23-7.68.35-.31.85-.36,1.26-.15.41.22.64.67.58,1.13-.07.59-.11,1.17-.11,1.73,0,2.26.62,3.97,1.26,5.1l.42-2.41c.08-.43.39-.77.81-.89.42-.12.87.03,1.15.36.14.17,3.5,4.18,3.5,9.09,0,3.19-1.4,5.98-4.15,8.3-.21.18-.46.26-.72.26-.24,0-.48-.08-.68-.23-.42-.32-.56-.88-.34-1.36"/></g></svg>