<?xml version="1.0" encoding="UTF-8"?><svg id="Layer_2" xmlns="http://www.w3.org/2000/svg" viewBox="0 0 65.08 39.07"><defs><style>.cls-1{fill:#5289b1;}.cls-1,.cls-2{stroke-width:0px;}.cls-2{fill:#fff;}</style></defs><g id="Design"><path class="cls-1" d="M43.23,36.39h16.43c1.81,0,2.61-1,2.61-1.99V13.78c1.78-1.42,2.8-3.59,2.8-5.97,0-4.31-3.45-7.81-7.69-7.81h-29.24c-4.3,0-7.79,3.5-7.79,7.81,0,2.19,1.01,4.4,2.7,5.93v8.24s11.43-1.14,20.17,14.41ZM60.37,34.32s-.3.13-.71.13h-10.24s0-.02,0-.05c0,0,0,0,0,0v-15.83c0-1.76,0-3.2,0-4.03h10.93l.02,19.79ZM38.58,27.24c-.14-.14-.28-.27-.43-.41-.21-.2-.43-.39-.65-.58-.34-.29-.7-.58-1.06-.86-.07-.06-.14-.11-.22-.17-1.55-1.17-3.33-2.22-5.28-3.08-.02,0-.04-.02-.06-.03-.6-.26-1.21-.51-1.84-.73-.07-.03-.14-.05-.21-.08-.59-.2-1.19-.39-1.8-.56-.24-.06-.47-.12-.71-.18-.44-.11-.88-.22-1.33-.3v-7.44l-.36-.29c-1.46-1.18-2.34-2.94-2.34-4.73,0-3.24,2.63-5.87,5.86-5.87h16.25c3.21,0,5.82,2.63,5.82,5.87,0,1.96-.85,3.67-2.32,4.69l-.42.29v21.5c-.11.07-.37.15-.64.16-.06,0-.1,0-.17,0h-3.63c-.52-2.42-2.11-4.95-4.46-7.22ZM60.76,12.49l-.15.11h-10.03c1.02-1.31,1.58-2.98,1.58-4.79,0-1.15-.26-2.24-.7-3.23,0,0,0-.02-.01-.02-.11-.23-.23-.46-.35-.68-.02-.03-.03-.05-.05-.08-.12-.2-.25-.4-.39-.59-.03-.03-.05-.07-.08-.1-.14-.18-.28-.36-.44-.53-.03-.03-.06-.06-.09-.1-.16-.18-.34-.35-.52-.51-.01-.01-.03-.03-.04-.04h7.89c3.17,0,5.75,2.63,5.75,5.87,0,1.93-.87,3.64-2.38,4.69Z"/><path class="cls-1" d="M37.05,22.97h0c-.97-.45-2.04-.85-3.19-1.22l-.08-.03c-1.97-.61-4.05-1.05-6.15-1.3h0s-.1-.02-.1-.02c-.99-.12-2.03-.21-3.11-.26-.58-.02-1.17-.04-1.76-.04-1.46,0-2.95.08-4.42.24-1.04.11-2.07.26-3.09.46h-.01c-2.12.41-4.13,1-5.98,1.76l-.07.02c-1.04.43-2.01.91-2.9,1.43-3.99,2.34-6.19,5.43-6.19,8.7,0,2.13.89,3.66,2.71,4.68.12.07.24.13.34.18.24.12.49.23.76.33.09.04.18.07.26.09.15.05.31.11.47.15.12.04.24.07.36.1.17.04.34.09.5.12.16.04.32.07.57.12.16.03.32.06.49.09l.54.08c.19.03.38.05.58.08l.68.07,1.17.1.62.04,1.25.05.76.02c.78.02,1.58.02,2.41.02,1.22,0,2.49-.01,3.83-.03h.15c1.36-.02,2.76-.03,4.2-.03s2.84.02,4.2.03h.15c1.32.02,2.6.03,3.82.03.83,0,1.64,0,2.42-.02h.52s.68-.03.91-.04l1.22-.06c.27-.02,1.23-.1,1.23-.1l.61-.07c.19-.02.39-.05.56-.07.13-.02.56-.09.56-.09.17-.03.33-.06.57-.11.16-.03.32-.06.48-.1.17-.04.35-.08.52-.13.13-.04.24-.07.35-.1.16-.05.32-.1.47-.15.09-.03.17-.06.26-.09.28-.1.53-.21.76-.33.11-.05.23-.12.35-.18,1.83-1.02,2.72-2.55,2.72-4.68,0-3.82-3.01-7.38-8.25-9.77ZM24.14,25.27l.07.21c.06.2.14.39.22.59l.1.21c.07.14.13.28.24.48.04.07.07.13.1.17.04.08.09.14.15.24.28.42.59.77.89,1.12.14.16.56.63.6.77.15,1.13,1.12,1.98,2.26,1.98.11,0,.21,0,.35-.03.05,0,.11-.02.18-.03.06-.01.13-.03.26-.08l.12-.04c.05-.02.13-.06.19-.09l.18-.11s.23-.18.3-.24c.05-.04.08-.09.19-.21l-.22-.23s0,0,0,0l.3.15s.09-.12.13-.2l.06-.1.06-.12c.04-.08.06-.16.09-.24l-.3-.14h.34s.02-.13.02-.13c.05-.26.06-.49.03-.71-.19-1.45-1.05-2.44-1.73-3.23-.19-.22-.37-.42-.49-.61-.08-.12-.15-.27-.2-.41-.26-.64-.33-1.42-.36-1.96,0-.07,0-.14-.01-.23,1.58.23,3.13.56,4.6.99.02.23.05.48.08.73l.02.14c.05.32.11.65.2.98l.03.12c.09.35.21.7.38,1.11.17.4.36.75.58,1.07.27.4.57.75.89,1.12.14.16.56.63.6.77.15,1.13,1.12,1.98,2.26,1.98.11,0,.21,0,.3-.02.6-.08,1.14-.39,1.51-.87.28-.36.44-.79.47-1.23.01-.15,0-.3-.01-.45-.17-1.28-.86-2.2-1.49-2.94,3.28,2.01,5.14,4.59,5.14,7.21,0,1.57-.6,2.6-1.95,3.35-.08.05-.18.09-.27.14-.19.1-.39.18-.65.28-.05.02-.11.04-.18.07-.13.05-.27.09-.42.14l-.29.08-.48.12c-.13.03-.26.06-.5.11-.14.03-.29.06-.43.08l-.53.08c-.17.03-.35.05-.52.07l-.59.07-.42.04c-.25.02-.5.04-.84.06l-.53.03-1.22.05-.75.02c-.77.02-1.57.02-2.39.02-1.19,0-2.44-.01-3.8-.03-1.41-.02-2.87-.03-4.36-.03s-2.95.02-4.39.03c-1.3.01-2.56.03-3.77.03-.83,0-1.63,0-2.41-.02h-.5s-.88-.04-.88-.04l-1.19-.06c-.26-.02-1.18-.1-1.18-.1l-.59-.07c-.17-.02-.35-.04-.53-.07l-.37-.06s-.43-.07-.56-.1l-.15.3h0l.04-.32c-.15-.03-.28-.06-.41-.09-.16-.04-.32-.08-.47-.12-.11-.03-.21-.06-.31-.09-.14-.04-.28-.09-.43-.14-.05-.02-.1-.04-.19-.07-.23-.08-.43-.17-.63-.27-.1-.05-.18-.09-.27-.14-1.34-.75-1.94-1.78-1.94-3.35,0-2.49,1.64-4.92,4.63-6.89,0,0,.11.27.14.35.17.37.33.68.53.98.27.4.57.75.89,1.12.14.16.56.63.6.77.15,1.13,1.12,1.98,2.26,1.98.11,0,.21,0,.3-.02.6-.08,1.14-.39,1.51-.87.28-.36.44-.79.47-1.23.01-.15,0-.3-.01-.45-.19-1.46-1.06-2.45-1.74-3.23-.18-.21-.36-.42-.49-.61-.09-.14-.18-.32-.25-.53-.01-.04-.08-.28-.09-.31,1.35-.52,2.81-.96,4.32-1.29v.06c.08,1.35.31,3.09,1.37,4.67.06.09.12.18.19.26.04.05.08.11.14.18.16.2.32.39.52.63.14.16.56.63.6.77.15,1.13,1.12,1.98,2.26,1.98.11,0,.21,0,.3-.02.6-.08,1.14-.39,1.51-.87.28-.36.44-.79.47-1.23.01-.15,0-.3-.01-.45-.19-1.45-1.05-2.44-1.69-3.17l-.29-.34-.25.21s0,0,0,0l.18-.3c-.06-.08-.12-.15-.17-.23-.09-.13-.16-.28-.24-.47-.13-.35-.22-.76-.28-1.29-.02-.21-.04-.41-.05-.6-.01-.15-.02-.3-.02-.47,1.17-.11,2.37-.16,3.56-.16.32,0,.65,0,.97.01.01.3.03.6.05.92l.06.75.1.76c.05.27.1.55.2.92l.03.11M9.35,25.49c.17.25.38.49.65.81.56.64,1.19,1.37,1.33,2.37.03.2-.03.4-.15.55-.12.16-.3.26-.6.29-.38,0-.7-.28-.74-.65-.06-.52-.42-.96-1.01-1.63-.23-.27-.5-.58-.72-.91-.15-.23-.29-.49-.42-.78-.02-.05-.16-.43-.18-.49.43-.24.89-.46,1.35-.68.04.12.08.23.12.35l.07.17c.09.21.19.4.32.6ZM18.4,25.41s0,0,0,0v.05s.06.05.06.05c.04.06.07.11.16.23l.24-.21-.16.32.12.14.27.31c.56.64,1.19,1.37,1.33,2.37.03.2-.03.4-.15.55-.12.16-.3.26-.6.29-.38,0-.7-.28-.74-.65-.06-.52-.42-.96-.96-1.57l-.07-.09c-.22-.26-.47-.55-.7-.88-.82-1.23-1.01-2.71-1.08-3.87v-.26c.48-.09.98-.16,1.48-.23,0,.13.01.27.02.4.02.39.07.97.23,1.66.06.24.12.47.21.7.08.2.18.39.31.61.02.04.03.07.04.07ZM25.76,25.27c-.11-.28-.2-.57-.29-.95-.07-.31-.13-.62-.17-.97-.04-.31-.06-.61-.08-.9-.01-.24-.03-.49-.04-.73.51.03,1.02.07,1.52.13,0,.17.02.34.03.52.03.57.11,1.43.4,2.26l.08.2c.1.23.2.46.34.67.17.25.38.49.65.81.56.64,1.19,1.37,1.33,2.37.01.09,0,.18-.02.3-.03.09-.07.17-.14.26-.06.07-.13.14-.22.19-.08.05-.17.08-.38.1-.38,0-.7-.28-.74-.65-.06-.52-.42-.96-1.02-1.64-.23-.27-.49-.57-.72-.91-.18-.27-.33-.56-.47-.9M38.61,28.67c.03.2-.03.4-.15.55-.12.16-.3.26-.6.29-.38,0-.7-.28-.74-.65-.06-.52-.42-.96-1.01-1.63-.23-.27-.5-.58-.72-.91-.17-.26-.32-.55-.47-.89-.03-.06-.1-.3-.1-.3-.08-.21-.15-.43-.2-.64-.03-.12-.05-.23-.08-.34-.04-.19-.07-.37-.11-.61.58.21,1.14.43,1.66.66.02.07.16.5.19.56.11.29.24.52.37.73.16.24.36.47.57.72l.08.09c.56.64,1.19,1.37,1.33,2.37Z"/><path class="cls-2" d="M24.14,25.27l.07.21c.06.2.14.39.22.59l.1.21c.07.14.13.28.24.48.04.07.07.13.1.17.04.08.09.14.15.24.28.42.59.77.89,1.12.14.16.56.63.6.77.15,1.13,1.12,1.98,2.26,1.98.11,0,.21,0,.35-.03.05,0,.11-.02.18-.03.06-.01.13-.03.26-.08l.12-.04c.05-.02.13-.06.19-.09l.18-.11s.23-.18.3-.24c.05-.04.08-.09.19-.21l-.22-.23s0,0,0,0l.3.15s.09-.12.13-.2l.06-.1.06-.12c.04-.08.06-.16.09-.24l-.3-.14h.34s.02-.13.02-.13c.05-.26.06-.49.03-.71-.19-1.45-1.05-2.44-1.73-3.23-.19-.22-.37-.42-.49-.61-.08-.12-.15-.27-.2-.41-.26-.64-.33-1.42-.36-1.96,0-.07,0-.14-.01-.23,1.58.23,3.13.56,4.6.99.02.23.05.48.08.73l.02.14c.05.32.11.65.2.98l.03.12c.09.35.21.7.38,1.11.17.4.36.75.58,1.07.27.4.57.75.89,1.12.14.16.56.63.6.77.15,1.13,1.12,1.98,2.26,1.98.11,0,.21,0,.3-.02.6-.08,1.14-.39,1.51-.87.28-.36.44-.79.47-1.23.01-.15,0-.3-.01-.45-.17-1.28-.86-2.2-1.49-2.94,3.28,2.01,5.14,4.59,5.14,7.21,0,1.57-.6,2.6-1.95,3.35-.08.05-.18.09-.27.14-.19.1-.39.18-.65.28-.05.02-.11.04-.18.07-.13.05-.27.09-.42.14l-.29.08-.48.12c-.13.03-.26.06-.5.11-.14.03-.29.06-.43.08l-.53.08c-.17.03-.35.05-.52.07l-.59.07-.42.04c-.25.02-.5.04-.84.06l-.53.03-1.22.05-.75.02c-.77.02-1.57.02-2.39.02-1.19,0-2.44-.01-3.8-.03-1.41-.02-2.87-.03-4.36-.03s-2.95.02-4.39.03c-1.3.01-2.56.03-3.77.03-.83,0-1.63,0-2.41-.02h-.5s-.88-.04-.88-.04l-1.19-.06c-.26-.02-1.18-.1-1.18-.1l-.59-.07c-.17-.02-.35-.04-.53-.07l-.37-.06s-.43-.07-.56-.1l-.15.3h0l.04-.32c-.15-.03-.28-.06-.41-.09-.16-.04-.32-.08-.47-.12-.11-.03-.21-.06-.31-.09-.14-.04-.28-.09-.43-.14-.05-.02-.1-.04-.19-.07-.23-.08-.43-.17-.63-.27-.1-.05-.18-.09-.27-.14-1.34-.75-1.94-1.78-1.94-3.35,0-2.49,1.64-4.92,4.63-6.89,0,0,.11.27.14.35.17.37.33.68.53.98.27.4.57.75.89,1.12.14.16.56.63.6.77.15,1.13,1.12,1.98,2.26,1.98.11,0,.21,0,.3-.02.6-.08,1.14-.39,1.51-.87.28-.36.44-.79.47-1.23.01-.15,0-.3-.01-.45-.19-1.46-1.06-2.45-1.74-3.23-.18-.21-.36-.42-.49-.61-.09-.14-.18-.32-.25-.53-.01-.04-.08-.28-.09-.31,1.35-.52,2.81-.96,4.32-1.29v.06c.08,1.35.31,3.09,1.37,4.67.06.09.12.18.19.26.04.05.08.11.14.18.16.2.32.39.52.63.14.16.56.63.6.77.15,1.13,1.12,1.98,2.26,1.98.11,0,.21,0,.3-.02.6-.08,1.14-.39,1.51-.87.28-.36.44-.79.47-1.23.01-.15,0-.3-.01-.45-.19-1.45-1.05-2.44-1.69-3.17l-.29-.34-.25.21s0,0,0,0l.18-.3c-.06-.08-.12-.15-.17-.23-.09-.13-.16-.28-.24-.47-.13-.35-.22-.76-.28-1.29-.02-.21-.04-.41-.05-.6-.01-.15-.02-.3-.02-.47,1.17-.11,2.37-.16,3.56-.16.32,0,.65,0,.97.01.01.3.03.6.05.92l.06.75.1.76c.05.27.1.55.2.92l.03.11"/><path class="cls-2" d="M38.61,28.67c.03.2-.03.4-.15.55-.12.16-.3.26-.6.29-.38,0-.7-.28-.74-.65-.06-.52-.42-.96-1.01-1.63-.23-.27-.5-.58-.72-.91-.17-.26-.32-.55-.47-.89-.03-.06-.1-.3-.1-.3-.08-.21-.15-.43-.2-.64-.03-.12-.05-.23-.08-.34-.04-.19-.07-.37-.11-.61.58.21,1.14.43,1.66.66.02.07.16.5.19.56.11.29.24.52.37.73.16.24.36.47.57.72l.08.09c.56.64,1.19,1.37,1.33,2.37Z"/></g></svg>