<?xml version="1.0" encoding="UTF-8"?>
<svg id="_圖層_2" data-name="圖層 2" xmlns="http://www.w3.org/2000/svg" viewBox="0 0 40.16 34.76">
  <defs>
    <style>
      .cls-1 {
        fill: #fff;
        stroke-width: 0px;
      }
    </style>
  </defs>
  <g id="_圖層_1-2" data-name="圖層 1">
    <g>
      <g>
        <path class="cls-1" d="M16.46,34.76c-5.27,0-10.39-.61-12.24-1.17-.53-.16-1.03-.37-1.14-.83h0c-.11-.46.25-.87.65-1.25,2.88-2.71,18.04-11.68,23.78-9.96,1.92.58,3.39,2.29,3.93,4.6.54,2.3-.02,4.49-1.49,5.86-2.25,2.09-7.95,2.76-13.49,2.76ZM4.52,32.42c3.04.96,20.69,2.34,24.61-1.31,1.13-1.05,1.56-2.85,1.13-4.7-.43-1.85-1.62-3.27-3.1-3.71-5.14-1.54-20.35,7.52-22.65,9.72ZM4.27,32.48h0,0Z"/>
        <path class="cls-1" d="M23.85,25.18c-.28,0-.52-.19-.59-.47l-.55-2.34c-.08-.33.13-.65.45-.73.32-.08.65.13.73.45l.55,2.34c.08.33-.13.65-.45.73-.05.01-.09.02-.14.02Z"/>
        <path class="cls-1" d="M23.27,34.33c-.28,0-.52-.19-.59-.47l-.47-2.01c-.08-.33.13-.65.45-.73.32-.08.65.13.73.45l.47,2.01c.08.33-.13.65-.45.73-.05.01-.09.02-.14.02Z"/>
        <path class="cls-1" d="M17.76,29.39c-.28,0-.52-.19-.59-.47l-.43-1.83c-.08-.33.13-.65.45-.73.32-.08.65.13.73.45l.43,1.83c.08.33-.13.65-.45.73-.05.01-.09.02-.14.02Z"/>
        <path class="cls-1" d="M13.34,34.68c-.28,0-.52-.19-.59-.47l-.44-1.9c-.08-.33.13-.65.45-.73.32-.08.65.13.73.45l.44,1.9c.08.33-.13.65-.45.73-.05.01-.09.02-.14.02Z"/>
        <path class="cls-1" d="M8.38,31.07c-.28,0-.52-.19-.59-.47l-.31-1.32c-.08-.33.13-.65.45-.73.33-.08.65.13.73.45l.31,1.32c.08.33-.13.65-.45.73-.05.01-.09.02-.14.02Z"/>
        <path class="cls-1" d="M27.35,29.92c-.28,0-.52-.19-.59-.47l-.37-1.58c-.08-.33.13-.65.45-.73.32-.08.65.13.73.45l.37,1.58c.08.33-.13.65-.45.73-.05.01-.09.02-.14.02Z"/>
        <path class="cls-1" d="M37.74,31.46c-.28,0-.54-.1-.75-.29-.84-.77-3.09-2.55-5.84-2.55-.04,0-.07,0-.11,0-.33,0-.6-.26-.61-.6,0-.33.26-.61.6-.61,3.14-.07,5.68,1.88,6.7,2.79l.71-1.02c-.47-.52-1.6-1.65-2.85-2.14-.31-.12-.47-.47-.34-.78.12-.31.47-.47.78-.34,1.49.58,2.74,1.82,3.36,2.52.35.39.38.95.08,1.38l-.81,1.17c-.18.27-.47.44-.79.47-.04,0-.08,0-.12,0ZM38.48,29.24h0,0Z"/>
        <path class="cls-1" d="M35.8,27.09c-.26,0-.49-.16-.58-.42-.1-.32.07-.66.39-.76.07-.02,1.58-.51,3.33-.59l-.08-1.54c-1.93.15-3.98,1.08-4,1.09-.3.14-.66,0-.8-.3-.14-.3,0-.66.3-.8.1-.04,2.41-1.09,4.61-1.21.27-.01.55.08.75.26.21.18.33.44.34.71l.1,1.9c.01.28-.08.55-.27.76-.19.21-.45.32-.72.33-1.65.05-3.16.53-3.18.54-.06.02-.13.03-.19.03Z"/>
        <path class="cls-1" d="M30.07,24.94c-.23,0-.46-.14-.56-.36-.13-.31,0-.66.31-.8,2.55-1.12,3.79-3.21,4.2-4.06.14-.28.39-.5.7-.58.31-.08.63-.03.89.14l1.19.78c.38.25.57.7.48,1.13-.44,2.13-2.24,3.55-2.32,3.61-.27.2-.65.16-.85-.11-.21-.26-.16-.64.11-.85.01-.01,1.47-1.17,1.85-2.81l-1.02-.67c-.52,1.03-1.94,3.29-4.75,4.53-.08.03-.16.05-.24.05Z"/>
        <path class="cls-1" d="M4.15,29.08c-.28,0-.54-.2-.59-.49-.13-.68-.09-1.38.1-2.03-.79-.18-1.51-.58-2.09-1.18-.79-.81-1.22-1.89-1.2-3.02.02-1.09.44-2.11,1.19-2.88-.13-.1-.25-.21-.36-.32C.41,18.33-.02,17.26,0,16.13c.02-1.13.47-2.19,1.29-2.98.81-.79,1.87-1.21,3.02-1.2,1.13.02,2.19.47,2.98,1.29.11.11.21.24.31.37.81-.77,1.85-1.2,2.98-1.16,1.13.02,2.19.47,2.98,1.29.77.8,1.2,1.85,1.2,2.97,0,.33-.27.6-.61.6h0c-.33,0-.61-.27-.6-.61,0-.8-.3-1.55-.85-2.12-.56-.58-1.32-.91-2.13-.92-.8,0-1.58.29-2.16.86-.14.14-.28.3-.39.47-.12.18-.33.28-.55.26-.22-.02-.41-.15-.5-.34-.16-.33-.34-.6-.55-.81-.56-.58-1.32-.91-2.13-.92-.81,0-1.58.29-2.16.86-.58.56-.91,1.32-.92,2.13s.29,1.58.86,2.16c.21.21.47.4.79.57.19.1.31.29.33.5s-.09.42-.27.54c-.18.12-.31.22-.42.33-.58.56-.91,1.32-.92,2.13s.29,1.58.86,2.16c.55.57,1.3.89,2.09.91.21,0,.4.12.51.3s.11.4.01.59c-.33.62-.44,1.34-.31,2.02.06.33-.15.65-.48.71-.04,0-.08.01-.12.01Z"/>
        <path class="cls-1" d="M8.72,21.45s-.02,0-.03,0l-2.29-.12c-.33-.02-.59-.3-.57-.64.02-.33.31-.59.64-.57l2.29.12c.33.02.59.3.57.64-.02.32-.28.57-.6.57Z"/>
        <path class="cls-1" d="M10.68,23.62s-.03,0-.04,0c-.33-.02-.59-.31-.57-.64l.25-3.92c.02-.33.31-.59.64-.57.33.02.59.31.57.64l-.25,3.92c-.02.32-.29.57-.6.57Z"/>
        <path class="cls-1" d="M9.56,11.63c-.09,0-.17-.02-.26-.06-.3-.14-.43-.5-.29-.81.17-.36.4-.69.68-.97-.4-.43-.68-.95-.82-1.54-.39-1.73.64-3.46,2.32-3.96-.02-.07-.04-.14-.06-.21-.2-.87-.05-1.77.43-2.53.48-.76,1.22-1.28,2.09-1.48.87-.2,1.77-.05,2.53.43.76.48,1.28,1.22,1.48,2.09.02.07.03.15.04.22,1.71-.25,3.35.86,3.74,2.57.13.58.11,1.18-.07,1.74.46.16.89.42,1.24.76.24.23.25.62.02.86-.23.24-.62.25-.86.02-.35-.34-.82-.55-1.31-.59-.21-.02-.39-.14-.49-.33s-.09-.41.02-.59c.29-.48.39-1.04.26-1.59-.13-.56-.46-1.03-.95-1.33-.48-.3-1.06-.4-1.61-.27-.1.02-.21.06-.35.12-.2.08-.42.06-.6-.07-.17-.13-.26-.34-.24-.55.03-.26.02-.48-.03-.68-.13-.56-.46-1.03-.95-1.33-.48-.3-1.06-.4-1.61-.27-.56.13-1.03.46-1.33.95s-.4,1.06-.27,1.61c.05.21.14.41.27.63.11.18.12.42.02.61-.1.19-.3.31-.52.32-.14,0-.29.02-.43.05-1.15.26-1.87,1.41-1.61,2.56.12.54.45,1.01.92,1.32.18.11.28.31.28.52,0,.21-.12.4-.3.51-.38.22-.67.55-.86.94-.1.22-.32.35-.55.35Z"/>
        <path class="cls-1" d="M16.72,13.98c-.27,0-.52-.19-.59-.47l-1.72-7.24c-.08-.33.12-.65.45-.73.33-.08.65.12.73.45l1.72,7.24c.08.33-.12.65-.45.73-.05.01-.09.02-.14.02Z"/>
        <path class="cls-1" d="M15.7,9.67c-.11,0-.22-.03-.32-.09-.28-.18-.37-.55-.2-.83l1.45-2.35c.18-.29.55-.37.83-.2.28.18.37.55.2.83l-1.45,2.35c-.11.19-.31.29-.52.29Z"/>
        <path class="cls-1" d="M16.46,12.87c-.11,0-.22-.03-.32-.09l-1.75-1.08c-.28-.18-.37-.55-.2-.83s.55-.37.83-.2l1.75,1.08c.28.18.37.55.2.83-.11.19-.31.29-.52.29Z"/>
        <path class="cls-1" d="M15.54,22.67c-.1,0-.2-.03-.3-.08-.29-.16-.4-.53-.23-.82.3-.53.71-.98,1.21-1.32-.42-.58-.67-1.27-.72-2-.07-1.03.26-2.03.94-2.81.64-.73,1.5-1.19,2.46-1.3-.02-.12-.04-.25-.05-.37-.15-2.13,1.46-3.98,3.59-4.13,1.03-.07,2.03.26,2.81.94.78.68,1.25,1.62,1.32,2.65.03.4-.01.8-.13,1.24-.09.32-.42.52-.74.43-.32-.08-.52-.42-.43-.74.08-.31.11-.59.09-.85-.05-.71-.37-1.36-.91-1.82-.54-.47-1.23-.69-1.93-.65-1.46.1-2.57,1.38-2.47,2.84.02.26.09.53.21.83.08.2.05.42-.07.59-.13.17-.34.26-.55.24-.19-.02-.34-.03-.47-.02-1.47.1-2.57,1.38-2.47,2.84.05.69.36,1.33.89,1.8.16.14.23.35.19.56-.04.21-.18.38-.37.46-.57.23-1.05.65-1.35,1.18-.11.2-.32.31-.53.31Z"/>
        <path class="cls-1" d="M22.67,20.27c-.33,0-.6-.27-.61-.6l-.07-5.3c0-.33.26-.61.6-.61.34-.01.61.26.61.6l.07,5.3c0,.33-.26.61-.6.61h0Z"/>
        <path class="cls-1" d="M22.64,17.66c-.15,0-.3-.06-.42-.17-.24-.23-.24-.62-.01-.86l1.26-1.29c.23-.24.62-.24.86-.01s.24.62.01.86l-1.26,1.29c-.12.12-.28.18-.43.18Z"/>
        <path class="cls-1" d="M22.67,19.7c-.15,0-.3-.06-.42-.17l-1.88-1.84c-.24-.23-.24-.62-.01-.86.23-.24.62-.24.86-.01l1.88,1.84c.24.23.24.62.01.86-.12.12-.28.18-.43.18Z"/>
        <path class="cls-1" d="M11.58,24.63c-.17,0-.33-.07-.45-.2l-5.54-6.15c-.22-.25-.2-.63.05-.86.25-.22.63-.2.86.05l5.54,6.15c.22.25.2.63-.05.86-.12.1-.26.15-.41.15Z"/>
      </g>
      <path class="cls-1" d="M32.47,10.24h-1.54c-.26,0-.48.21-.48.48v2.18h-2.18c-.26,0-.48.21-.48.48v1.54c0,.26.21.48.48.48h2.18v2.18c0,.26.21.48.48.48h1.54c.26,0,.48-.21.48-.48v-2.18h2.18c.26,0,.48-.21.48-.48v-1.54c0-.26-.21-.48-.48-.48h-2.18v-2.18c0-.26-.21-.48-.48-.48Z"/>
    </g>
  </g>
</svg>