<?xml version="1.0" encoding="UTF-8"?><svg id="Layer_2" xmlns="http://www.w3.org/2000/svg" viewBox="0 0 37.16 36"><defs><style>.cls-1{fill:#fff;stroke-width:0px;}</style></defs><g id="Design"><path class="cls-1" d="M37.16,18.58c0-.32-.26-.58-.58-.58H.58C.26,18,0,18.26,0,18.58,0,25.99,4.65,32.32,11.18,34.84h-5.66c-.32,0-.58.26-.58.58s.26.58.58.58h26.13c.32,0,.58-.26.58-.58s-.26-.58-.58-.58h-5.66c6.53-2.52,11.18-8.85,11.18-16.26ZM1.17,19.16h34.82c-.02.54-.06,1.07-.14,1.6H1.31c-.07-.52-.12-1.06-.14-1.6ZM19.74,34.84h-2.32c-7.82,0-14.36-5.55-15.91-12.92h34.14c-1.54,7.37-8.09,12.92-15.91,12.92Z"/><path class="cls-1" d="M11.49,9.78c.02.07.04.14.07.21.35-.17.71-.31,1.08-.44-.31-.87-.13-1.71.37-2.31-.14-.27-.2-.57-.17-.89.06-.56.39-1.02.86-1.26-.17-.29-.26-.63-.22-.99.08-.83.79-1.45,1.61-1.45.05,0,.11,0,.17,0,.08-.83.79-1.45,1.61-1.45.05,0,.11,0,.17,0,.4.04.75.22,1,.48.3-.34.74-.54,1.21-.54.05,0,.11,0,.17,0,.69.07,1.23.55,1.41,1.17.16-.06.33-.1.51-.1.45,0,.96.24,1.46.96,1.09,1.55.17,2.15.63,3.57.33-.24.7-.39,1.07-.47-.08-.31-.06-.56-.03-.88.07-.69.16-1.63-.73-2.89-.79-1.12-1.65-1.42-2.28-1.45-.46-.6-1.15-.99-1.93-1.07-.09,0-.19-.01-.28-.01-.44,0-.86.1-1.25.3-.27-.12-.56-.2-.85-.23-.09,0-.19-.01-.28-.01-1.09,0-2.03.61-2.49,1.53-1.1.29-1.94,1.23-2.06,2.4-.02.24-.02.48.02.72-.37.42-.6.95-.66,1.53-.03.28-.01.57.05.84-.43.81-.52,1.78-.24,2.7Z"/><path class="cls-1" d="M26.38,12.14c-.14-.29-.49-.4-.78-.26-.29.14-.4.49-.26.78l2.09,4.18h4.9l1.02-.29c.31-.09.49-.41.4-.72-.09-.31-.41-.49-.72-.4l-3.45.98c.39-.71.73-1.41,1.04-2.08l2.71-1.43c.28-.15.39-.5.24-.78-.15-.28-.5-.39-.78-.24l-1.45.77c.58-1.48.88-2.53.92-2.67.09-.31-.1-.63-.4-.71-.31-.09-.63.1-.71.4,0,.03-.36,1.27-1.06,2.97l-1.3-2.18c-.16-.28-.52-.37-.8-.2-.28.16-.37.52-.2.8l1.73,2.9c-.32.71-.7,1.45-1.12,2.2l-2.01-4.01Z"/><path class="cls-1" d="M35.81,8.7c-.31-.33-.75-.5-1.3-.5h0c-.06,0-.13,0-.2,0-.01,0-.02,0-.04,0-.13,0-.24-.12-.52-.83-.24-.61-.65-1.63-1.76-1.63-.21,0-.42.04-.63.13-.06-.06-.13-.13-.18-.18-.37-.37-.83-.84-1.51-.84-.31,0-1.06.11-1.45,1.13-.01.04-.03.07-.04.1-.19-.09-.42-.16-.69-.16h0c-.24,0-1.07.08-1.4,1.13-.09.28-.17.44-.22.53-.04-.01-.08-.02-.12-.04-.2-.06-.46-.14-.75-.14-.24,0-1.42.08-1.55,1.69,0,.08-.01.16-.02.24,0,.06,0,.12-.01.18-.08.01-.18.02-.34.03-.87.03-1.28.45-1.47.8-.41.78.02,1.54.35,2.06-.3.35-.42.82-.36,1.4-1.1.74-.92,1.88-.83,2.44.04.27.06.44.05.59h1.16c.04-.87-.46-1.61.31-2.09,1.05-.66-.07-1.43.86-1.77.93-.35-1.56-2.21-.03-2.26,1.54-.05,1.42-.71,1.49-1.52.04-.49.18-.62.39-.62.26,0,.61.21.98.21.42,0,.86-.26,1.21-1.37.08-.24.18-.32.29-.32.24,0,.56.34.91.34.28,0,.59-.22.9-1.03.1-.27.23-.38.36-.38.44,0,1.03,1.13,1.65,1.13.1,0,.2-.03.3-.1.14-.1.27-.14.37-.14.8,0,.63,2.46,2.29,2.46.04,0,.07,0,.11,0,.04,0,.09,0,.13,0,1.24,0-.13,1.36,1.15,2.61,1.32,1.29-1.83,1.78-.44,2.94,1.25,1.05-1.04.36-.92,1.93h1.17s0-.01,0-.02c.05-.02.11-.04.15-.06.32-.12.99-.38,1.12-1.16.1-.58-.21-1.03-.48-1.31.37-.36.89-.89.9-1.68,0-.53-.23-1.02-.68-1.47-.27-.26-.27-.45-.24-.91.02-.41.05-1.03-.42-1.53Z"/><path class="cls-1" d="M7.34,16.84h1.2c.9-3.16,3.81-5.48,7.26-5.48,1.76,0,3.38.61,4.67,1.62.04-.21.09-.4.16-.57-.13-.27-.25-.59-.31-.95-1.32-.8-2.86-1.26-4.51-1.26-4.09,0-7.53,2.84-8.46,6.65Z"/><path class="cls-1" d="M15.8,12.81c-1.66,0-3.17.67-4.27,1.75-.01.01-.03.02-.04.03-.01.01-.02.03-.03.04-.61.62-1.08,1.37-1.39,2.21h1.25c.16-.35.37-.68.61-.99l.99.99h1.64l-1.81-1.81c.7-.55,1.54-.92,2.47-1.03v2.83h1.16v-2.83c.93.11,1.77.48,2.47,1.03l-1.81,1.81h1.64l.87-.87c-.04-.45-.04-1.07.21-1.69-1.07-.92-2.45-1.48-3.96-1.48Z"/><path class="cls-1" d="M3.34,6.9s-.09-.05-.14-.06c0,0,0,0,0,0-.05-.01-.1-.02-.14-.02-.01,0-.02,0-.04,0-.05,0-.1,0-.14.02,0,0,0,0,0,0-.05.01-.09.04-.13.06,0,0-.01,0-.02,0,0,0,0,.01-.02.01-.03.03-.07.05-.1.09,0,0-.01,0-.01.02,0,0,0,0,0,0l-.03.04s-.03.04-.04.06C1.79,8.12-.51,11.58.1,15.36c.08.51.22,1.01.4,1.48.03,0,.05,0,.08,0h1.18c-.1-.21-.19-.43-.26-.65l1.97.65h2.1l.77-.76c.39-1.29,1.02-2.46,1.86-3.47-.38-1.01-.93-1.9-1.53-2.67-.02-.04-.05-.07-.09-.11-1.27-1.58-2.72-2.58-3.16-2.86-.03-.02-.06-.04-.09-.05h0s0,0,0,0h0s-.01,0-.02,0ZM2.73,8.93l.57,3.18-1.67-.75c.31-.96.74-1.8,1.1-2.43ZM6.18,11.21c.46.68.86,1.45,1.11,2.3l-2.18,2.15-.43-2.43,1.5-2.02ZM5.45,10.26l-1.05,1.41-.52-2.94c.47.39,1.03.9,1.57,1.53ZM3.55,13.49l.41,2.28-2.75-.9c-.09-.81-.03-1.62.12-2.37l2.22.99Z"/><path class="cls-1" d="M15.82,9.03c1.66,0,3.23.42,4.6,1.16.05-.13.1-.26.18-.4.06-.11.14-.24.25-.37l.31-3.14c.03-.32-.2-.6-.52-.64-.32-.03-.6.2-.64.52l-.21,2.14c-.5-.65-1.04-1.25-1.6-1.79-.23-.22-.6-.21-.82.02-.22.23-.21.6.02.82.53.5,1.03,1.08,1.51,1.7l-2.42-.43c-.3-.05-.58.13-.66.42Z"/></g></svg>