<?xml version="1.0" encoding="UTF-8"?>
<svg id="_圖層_2" data-name="圖層 2" xmlns="http://www.w3.org/2000/svg" viewBox="0 0 32.12 34.66">
  <defs>
    <style>
      .cls-1 {
        fill: none;
        stroke: #fff;
        stroke-linecap: round;
        stroke-linejoin: round;
        stroke-width: 1.15px;
      }
    </style>
  </defs>
  <g id="_圖層_1-2" data-name="圖層 1">
    <g>
      <g>
        <path class="cls-1" d="M10.35,16.44l-.89.89c-1.48,1.48-1.35,3.92.28,5.23l13.56,10.9c1.15.92,2.81.83,3.85-.21h0c1.04-1.04,1.13-2.7.21-3.85l-10.9-13.56c-1.31-1.63-3.75-1.76-5.23-.28l-.89.89Z"/>
        <g>
          <line class="cls-1" x1="10.48" y1="23.17" x2="13" y2="20.65"/>
          <line class="cls-1" x1="18.47" y1="29.26" x2="20.49" y2="27.23"/>
        </g>
        <g>
          <path class="cls-1" d="M20.01,20.79c-.71.71-2.25,2.25-2.25,2.25"/>
          <line class="cls-1" x1="23.92" y1="29.64" x2="25.94" y2="27.62"/>
        </g>
      </g>
      <path class="cls-1" d="M6.09,10.62c-2.12-2.12-3.05-2.22-3.56-1.71s-.42,1.44,1.71,3.56c2.12,2.12,5.62,3.76,5.8,3.95,0,0-1.82-3.68-3.95-5.8Z"/>
      <path class="cls-1" d="M10.59,15.87s0-3.76-.89-6.37c-.89-2.61-1.61-3.06-2.24-2.85-.45.15-.72.6-.53,1.77"/>
      <path class="cls-1" d="M9.83,16.63s-3.76,0-6.37-.89c-2.61-.89-3.06-1.61-2.85-2.24.13-.38.48-.64,1.33-.59"/>
      <g>
        <path class="cls-1" d="M28.16,25.8c.71-4.79,1.52-10.3,1.52-10.3.31-2.07-1.25-3.95-3.34-4.03l-1.26-.05-1.26-.05c-2.09-.08-3.79,1.67-3.64,3.76,0,0,.09,1.22.21,3.01"/>
        <line class="cls-1" x1="20.23" y1="16.09" x2="23.79" y2="16.23"/>
      </g>
      <path class="cls-1" d="M26.45,4.35c.12-3-.44-3.75-1.17-3.77-.72-.03-1.34.67-1.45,3.67-.12,3,1.06,6.68,1.05,6.94,0,0,1.46-3.84,1.57-6.84Z"/>
      <path class="cls-1" d="M30.03,6.42c1.78-2.42,1.74-3.35,1.16-3.78-.58-.43-1.48-.2-3.27,2.22-1.78,2.42-2.88,6.12-3.04,6.32,0,0,3.36-2.35,5.15-4.77Z"/>
      <path class="cls-1" d="M21.45,5.06c-1.93-2.3-2.85-2.47-3.4-2.01-.55.47-.54,1.4,1.39,3.7,1.93,2.3,5.27,4.24,5.44,4.43,0,0-1.5-3.82-3.43-6.12Z"/>
      <line class="cls-1" x1="28.84" y1="21.17" x2="25.15" y2="21.17"/>
    </g>
  </g>
</svg>