<?xml version="1.0" encoding="UTF-8"?>
<svg id="_圖層_2" data-name="圖層 2" xmlns="http://www.w3.org/2000/svg" viewBox="0 0 35.28 35.28">
  <defs>
    <style>
      .cls-1 {
        fill: #5289b1;
      }

      .cls-1, .cls-2 {
        stroke-width: 0px;
      }

      .cls-2 {
        fill: #fff;
      }
    </style>
  </defs>
  <g id="_圖層_1-2" data-name="圖層 1">
    <g>
      <path class="cls-2" d="M22.9,5.31h0s0,0,0,0h0s0,0,0,0c-.02,0-2.57,0-3.99,1.58-1.27,1.41-.95,2.89-.07,3.73-.3.53-.78,1.61-1.11,3.53h-.18c-.33-1.92-.81-3-1.11-3.53.88-.84,1.2-2.32-.07-3.73-1.42-1.57-3.97-1.58-3.99-1.58h0s0,0,0,0h0s0,0,0,0c0,.02-.99,2.37-.09,4.29.86,1.84,2.52,2.03,3.65,1.39.26.48.68,1.45.99,3.16h-1.4c-.87,0-1.57.7-1.57,1.57,0,.72.49,1.33,1.16,1.51v10.26c0,1.36,1.11,2.47,2.47,2.47s2.47-1.11,2.47-2.47v-10.26c.67-.18,1.16-.79,1.16-1.51,0-.87-.7-1.57-1.57-1.57h-1.3c.31-1.71.72-2.68.98-3.16,1.13.64,2.78.45,3.65-1.39.9-1.92-.08-4.27-.09-4.29ZM14.71,15.72c0-.45.37-.82.82-.82h1.52c.07.51.12,1.06.16,1.63h-1.68c-.45,0-.82-.37-.82-.82ZM19.3,27.5c0,.95-.77,1.72-1.72,1.72s-1.72-.77-1.72-1.72v-10.21h1.39c.06,1.08.07,2.18.08,3.12,0,.11,0,.22,0,.33,0,1.29-.03,2.21-.03,2.23h.07s0,.02,0,.02h.27s.27,0,.27,0c0,0,0-.01,0-.02h.07s-.03-.94-.03-2.23c0-.11,0-.22,0-.33,0-.94.02-2.04.08-3.12h1.28v10.21ZM20.46,15.72c0,.45-.37.82-.82.82h-1.58c.04-.57.09-1.13.16-1.63h1.41c.45,0,.82.37.82.82Z"/>
      <g>
        <path class="cls-2" d="M17.64,35.28C7.91,35.28,0,27.37,0,17.64S7.91,0,17.64,0s17.64,7.91,17.64,17.64-7.91,17.64-17.64,17.64ZM17.64,1.26C8.61,1.26,1.26,8.61,1.26,17.64s7.35,16.38,16.38,16.38,16.38-7.35,16.38-16.38S26.67,1.26,17.64,1.26Z"/>
        <g>
          <rect class="cls-2" x=".38" y="16.75" width="34.89" height="2.14" transform="translate(-7.38 17.75) rotate(-44.83)"/>
          <path class="cls-1" d="M29.44,5.39l.89.89L6.21,30.26l-.89-.89L29.44,5.39M29.44,4.14l-.63.62L4.7,28.74l-.63.62.62.63.89.89.62.63.63-.62L30.95,6.91l.63-.62-.62-.63-.89-.89-.62-.63h0Z"/>
        </g>
      </g>
    </g>
  </g>
</svg>