<?xml version="1.0" encoding="UTF-8"?><svg id="Layer_2" xmlns="http://www.w3.org/2000/svg" viewBox="0 0 37.3 37.3"><defs><style>.cls-1{fill:none;stroke:#fff;stroke-linecap:round;stroke-linejoin:round;stroke-width:1.3px;}</style></defs><g id="Design"><line class="cls-1" x1="3.13" y1="5.62" x2="3.13" y2="14.93"/><line class="cls-1" x1="5.62" y1="5.62" x2="5.62" y2="14.93"/><path class="cls-1" d="M8.1,5.62v6.21c0,.78-.37,1.52-.99,1.99l-1.49,1.12h-2.48l-1.49-1.12c-.63-.47-.99-1.2-.99-1.99v-6.21"/><path class="cls-1" d="M4.37,34.17h0c-.69,0-1.24-.56-1.24-1.24V14.93h2.48v18c0,.69-.56,1.24-1.24,1.24Z"/><path class="cls-1" d="M36.65,24.24h-4.97c-1.37,0-2.48-1.11-2.48-2.48v-7.66c0-5.76,3.96-9.02,7.45-9.72h0v19.86Z"/><polygon class="cls-1" points="32.93 24.24 32.93 31.68 31.68 31.68 31.68 34.17 36.65 34.17 36.65 31.68 36.65 24.24 32.93 24.24"/><circle class="cls-1" cx="18.65" cy="18.65" r="8.07"/><path class="cls-1" d="M9.52,34.17c2.68,1.58,5.8,2.48,9.13,2.48s6.45-.9,9.13-2.48"/><path class="cls-1" d="M27.77,3.13c-2.68-1.58-5.79-2.48-9.12-2.48s-6.45.9-9.13,2.48"/></g></svg>