<?xml version="1.0" encoding="UTF-8"?><svg id="Layer_2" xmlns="http://www.w3.org/2000/svg" viewBox="0 0 40 40"><defs><style>.cls-1{fill:#5289b1;}.cls-1,.cls-2{stroke-width:0px;}.cls-2{fill:#fff;}</style></defs><g id="Design"><path class="cls-2" d="M20,40C8.97,40,0,31.03,0,20S8.97,0,20,0s20,8.97,20,20-8.97,20-20,20ZM20,1.43C9.76,1.43,1.43,9.76,1.43,20s8.33,18.57,18.57,18.57,18.57-8.33,18.57-18.57S30.24,1.43,20,1.43Z"/><rect class="cls-2" x=".43" y="18.99" width="39.55" height="2.43" transform="translate(-8.37 20.12) rotate(-44.83)"/><path class="cls-1" d="M33.38,6.11l1.01,1.01L7.04,34.31l-1.01-1.01L33.38,6.11M33.38,4.7l-.71.7L5.33,32.58l-.71.71.71.71,1.01,1.01.7.71.71-.7L35.09,7.84l.71-.71-.71-.71-1.01-1.01-.7-.71h0Z"/><path class="cls-2" d="M16.74,6.5c-.35-.05-.62-.35-.62-.72,0-.4.32-.73.73-.73h5.96c.4,0,.73.32.73.73s-.27.67-.62.72v7.67s.37.77.37.77l-.52.52-.51-1.06s-.03-.1-.03-.15v-7.74s-4.79,0-4.79,0v7.74c0,.05-.01.1-.03.15l-5.95,12.37-1.47,1.47,6.76-14.07v-7.67Z"/><path class="cls-2" d="M11.97,32.76h15.69c.78,0,1.47-.4,1.86-1.08.39-.67.39-1.48,0-2.15,0,0,0-.02-.01-.02l-5.38-11.19.52-.52,5.48,11.39c.51.89.5,1.94,0,2.83-.51.89-1.43,1.42-2.46,1.42h-15.69c-.8,0-1.54-.33-2.07-.89l.49-.49c.4.44.97.69,1.58.69Z"/><polygon class="cls-2" points="21.45 16.76 13.36 24.85 17.25 16.76 21.45 16.76"/><path class="cls-2" d="M28.72,29.94l-5.26-10.94-12.43,12.43c.17.2.47.43.94.43h15.69c.65,0,.97-.44,1.08-.63.11-.19.33-.69,0-1.25l-.02-.04Z"/></g></svg>