<?xml version="1.0" encoding="UTF-8"?><svg id="Layer_2" xmlns="http://www.w3.org/2000/svg" viewBox="0 0 53.33 46.15"><defs><style>.cls-1{fill:#fff;stroke-width:0px;}</style></defs><g id="Design"><path class="cls-1" d="M21.86,46.15c-7,0-13.8-.81-16.25-1.55-.7-.21-1.37-.5-1.51-1.11h0c-.14-.61.33-1.16.86-1.66,3.83-3.6,23.95-15.51,31.57-13.23,2.55.76,4.5,3.05,5.22,6.1.71,3.06-.02,5.97-1.97,7.78-2.98,2.78-10.56,3.67-17.92,3.67ZM6,43.05c4.03,1.27,27.47,3.11,32.68-1.74,1.5-1.4,2.08-3.79,1.5-6.24-.57-2.45-2.15-4.34-4.11-4.93-6.83-2.05-27.02,9.98-30.07,12.91ZM5.66,43.12h0,0Z"/><path class="cls-1" d="M31.67,33.44c-.37,0-.7-.25-.78-.62l-.73-3.11c-.1-.43.17-.87.6-.97.43-.1.87.17.97.6l.73,3.11c.1.43-.17.87-.6.97-.06.01-.12.02-.18.02Z"/><path class="cls-1" d="M30.89,45.59c-.37,0-.7-.25-.78-.62l-.62-2.67c-.1-.43.17-.87.6-.97.43-.1.87.17.97.6l.62,2.67c.1.43-.17.87-.6.97-.06.01-.12.02-.18.02Z"/><path class="cls-1" d="M23.58,39.02c-.37,0-.7-.25-.78-.62l-.57-2.43c-.1-.43.17-.87.6-.97.43-.1.87.17.97.6l.57,2.43c.1.43-.17.87-.6.97-.06.01-.12.02-.18.02Z"/><path class="cls-1" d="M17.71,46.05c-.37,0-.7-.25-.78-.62l-.59-2.52c-.1-.43.17-.87.6-.97.43-.1.87.17.97.6l.59,2.52c.1.43-.17.87-.6.97-.06.01-.12.02-.18.02Z"/><path class="cls-1" d="M11.12,41.25c-.37,0-.7-.25-.78-.62l-.41-1.75c-.1-.43.17-.87.6-.97.44-.1.87.17.97.6l.41,1.75c.1.43-.17.87-.6.97-.06.01-.12.02-.18.02Z"/><path class="cls-1" d="M36.32,39.73c-.37,0-.7-.25-.78-.62l-.49-2.1c-.1-.43.17-.87.6-.97.43-.1.86.17.97.6l.49,2.1c.1.43-.17.87-.6.97-.06.01-.12.02-.18.02Z"/><path class="cls-1" d="M50.11,41.78c-.37,0-.72-.14-.99-.39-1.12-1.02-4.1-3.38-7.76-3.38-.05,0-.09,0-.15,0-.44,0-.8-.35-.8-.79,0-.44.35-.81.79-.82,4.16-.1,7.54,2.49,8.89,3.7l.94-1.36c-.63-.69-2.12-2.19-3.78-2.84-.41-.16-.62-.63-.46-1.04.16-.41.63-.62,1.04-.46,1.97.77,3.64,2.42,4.46,3.34.46.51.5,1.27.11,1.83l-1.08,1.56c-.25.35-.63.58-1.05.63-.05,0-.11,0-.16,0ZM51.1,38.82h0,0Z"/><path class="cls-1" d="M47.54,35.97c-.34,0-.65-.22-.76-.56-.14-.42.09-.88.52-1.01.09-.03,2.1-.68,4.42-.78l-.11-2.05c-2.56.2-5.28,1.44-5.31,1.45-.4.19-.88,0-1.07-.4-.19-.4,0-.88.4-1.07.13-.06,3.2-1.45,6.12-1.61.36-.02.72.1,1,.35.27.24.43.58.45.95l.14,2.52c.02.37-.11.74-.36,1.01-.25.27-.59.43-.96.44-2.19.06-4.2.71-4.22.71-.08.03-.17.04-.25.04Z"/><path class="cls-1" d="M39.93,33.11c-.31,0-.6-.18-.74-.48-.18-.41,0-.88.41-1.06,3.39-1.49,5.03-4.27,5.58-5.39.18-.38.52-.66.93-.77.41-.11.84-.04,1.19.19l1.58,1.03c.5.33.76.93.64,1.5-.59,2.83-2.98,4.71-3.08,4.79-.35.27-.86.21-1.13-.14-.27-.35-.21-.86.14-1.13.02-.01,1.95-1.55,2.46-3.73l-1.36-.89c-.69,1.36-2.57,4.37-6.31,6.01-.11.05-.21.07-.32.07Z"/><path class="cls-1" d="M5.51,38.61c-.38,0-.71-.27-.79-.65-.17-.9-.12-1.83.14-2.7-1.05-.24-2.01-.78-2.77-1.56-1.05-1.08-1.61-2.5-1.59-4.01.02-1.44.58-2.8,1.58-3.83-.17-.13-.33-.28-.48-.43C.54,24.34-.02,22.92,0,21.41c.02-1.51.63-2.91,1.71-3.96,1.08-1.05,2.48-1.61,4.01-1.59,1.51.02,2.91.63,3.96,1.71.15.15.28.31.41.49,1.07-1.02,2.45-1.59,3.96-1.54,1.51.02,2.91.63,3.96,1.71,1.03,1.06,1.59,2.45,1.59,3.94,0,.44-.36.8-.8.8h0c-.44,0-.8-.36-.8-.81,0-1.06-.4-2.06-1.13-2.81-.75-.77-1.76-1.21-2.83-1.22-1.07,0-2.09.39-2.87,1.14-.19.19-.37.39-.52.62-.16.24-.44.37-.73.35-.29-.02-.54-.2-.66-.46-.21-.44-.45-.79-.73-1.08-.75-.77-1.76-1.21-2.83-1.22-1.08,0-2.09.39-2.87,1.14-.77.75-1.21,1.76-1.22,2.83s.39,2.09,1.14,2.87c.28.28.62.53,1.05.75.25.13.42.38.43.67s-.12.55-.35.71c-.24.16-.41.3-.56.44-.77.75-1.21,1.75-1.22,2.83-.02,1.08.39,2.09,1.14,2.87.73.75,1.72,1.19,2.78,1.21.28,0,.53.16.67.4s.15.54.02.78c-.44.82-.58,1.77-.41,2.68.08.44-.2.86-.64.94-.05,0-.1.02-.15.02Z"/><path class="cls-1" d="M11.58,28.49s-.03,0-.04,0l-3.04-.16c-.44-.02-.78-.4-.76-.85.02-.44.41-.79.85-.76l3.04.16c.44.02.78.4.76.85-.02.43-.38.76-.8.76Z"/><path class="cls-1" d="M14.18,31.37s-.03,0-.05,0c-.44-.03-.78-.41-.75-.85l.33-5.2c.03-.44.41-.79.85-.75.44.03.78.41.75.85l-.33,5.2c-.03.43-.38.75-.8.75Z"/><path class="cls-1" d="M12.7,15.44c-.11,0-.23-.02-.34-.08-.4-.19-.58-.67-.39-1.07.23-.48.53-.92.91-1.29-.53-.57-.91-1.27-1.08-2.04-.52-2.3.85-4.6,3.08-5.25-.03-.09-.05-.19-.07-.28-.26-1.16-.06-2.35.57-3.35.63-1.01,1.62-1.7,2.78-1.97,1.16-.26,2.35-.06,3.35.57,1.01.63,1.7,1.62,1.97,2.78.02.1.04.19.05.29,2.27-.33,4.45,1.14,4.97,3.41.18.77.14,1.57-.09,2.31.61.21,1.18.55,1.65,1.01.32.31.33.82.02,1.14-.31.32-.82.33-1.14.02-.47-.45-1.09-.73-1.74-.79-.28-.02-.52-.19-.65-.44s-.11-.54.03-.78c.39-.64.51-1.39.35-2.11-.17-.74-.61-1.37-1.26-1.77-.64-.4-1.4-.53-2.14-.36-.14.03-.28.08-.47.16-.26.11-.56.07-.79-.09-.23-.17-.35-.45-.32-.73.03-.34.02-.64-.04-.91-.17-.74-.61-1.37-1.26-1.77-.64-.4-1.4-.53-2.14-.36-.74.17-1.37.61-1.77,1.26s-.53,1.4-.36,2.14c.06.27.18.55.36.84.15.25.16.55.02.8-.14.25-.4.41-.69.42-.19,0-.38.03-.57.07-1.53.35-2.48,1.87-2.14,3.4.16.72.6,1.34,1.23,1.75.23.15.37.41.37.69,0,.28-.15.53-.39.68-.5.3-.89.73-1.14,1.25-.14.29-.43.46-.73.46Z"/><path class="cls-1" d="M22.21,18.57c-.36,0-.69-.25-.78-.62l-2.28-9.61c-.1-.43.16-.87.6-.97.43-.11.87.17.97.6l2.28,9.61c.1.43-.16.87-.6.97-.06.02-.12.02-.19.02Z"/><path class="cls-1" d="M20.85,12.85c-.14,0-.29-.04-.42-.12-.38-.23-.5-.73-.26-1.11l1.93-3.12c.23-.38.73-.5,1.11-.26.38.23.5.73.26,1.11l-1.93,3.12c-.15.25-.42.38-.69.38Z"/><path class="cls-1" d="M21.85,17.08c-.14,0-.29-.04-.42-.12l-2.32-1.43c-.38-.23-.5-.73-.26-1.11s.73-.5,1.11-.26l2.32,1.43c.38.23.5.73.26,1.11-.15.25-.42.38-.69.38Z"/><path class="cls-1" d="M20.63,30.11c-.13,0-.27-.03-.39-.1-.39-.22-.53-.71-.31-1.09.39-.7.95-1.3,1.61-1.75-.56-.77-.89-1.68-.96-2.65-.1-1.37.35-2.7,1.25-3.73.84-.97,2-1.58,3.26-1.73-.03-.17-.05-.33-.06-.49-.2-2.83,1.94-5.29,4.77-5.49,1.37-.1,2.7.35,3.73,1.25,1.04.9,1.66,2.15,1.75,3.52.04.53-.02,1.07-.17,1.65-.11.43-.56.69-.98.58-.43-.11-.69-.55-.58-.98.11-.41.15-.79.12-1.13-.07-.94-.49-1.8-1.21-2.42-.71-.62-1.63-.92-2.57-.86-1.94.14-3.42,1.83-3.28,3.77.02.35.12.7.28,1.1.11.26.07.56-.1.79-.17.23-.45.35-.73.32-.26-.03-.45-.03-.62-.02-1.95.14-3.42,1.83-3.28,3.77.06.92.48,1.77,1.18,2.39.21.19.3.47.26.74-.05.27-.24.5-.49.61-.76.3-1.39.86-1.79,1.57-.15.26-.42.41-.7.41Z"/><path class="cls-1" d="M30.11,26.92c-.44,0-.8-.35-.8-.79l-.09-7.03c0-.44.35-.81.79-.81.45-.02.81.35.81.79l.09,7.03c0,.44-.35.81-.79.81h0Z"/><path class="cls-1" d="M30.06,23.45c-.2,0-.4-.08-.56-.23-.32-.31-.32-.82-.01-1.14l1.68-1.72c.31-.32.82-.32,1.14-.01s.32.82.01,1.14l-1.68,1.72c-.16.16-.37.24-.58.24Z"/><path class="cls-1" d="M30.1,26.16c-.2,0-.4-.08-.56-.23l-2.5-2.44c-.32-.31-.32-.82-.01-1.14.31-.32.82-.32,1.14-.01l2.5,2.44c.32.31.32.82.01,1.14-.16.16-.37.24-.58.24Z"/><path class="cls-1" d="M15.38,32.71c-.22,0-.44-.09-.6-.27l-7.35-8.17c-.3-.33-.27-.84.06-1.14.33-.3.84-.27,1.14.06l7.35,8.17c.3.33.27.84-.06,1.14-.15.14-.35.21-.54.21Z"/><path class="cls-1" d="M43.11,13.59h-2.05c-.35,0-.64.28-.64.64v2.89h-2.89c-.35,0-.64.28-.64.64v2.05c0,.35.28.64.64.64h2.89v2.89c0,.35.28.64.64.64h2.05c.35,0,.64-.28.64-.64v-2.89h2.89c.35,0,.64-.28.64-.64v-2.05c0-.35-.28-.64-.64-.64h-2.89v-2.89c0-.35-.28-.64-.64-.64Z"/></g></svg>