<?xml version="1.0" encoding="UTF-8"?><svg id="Layer_2" xmlns="http://www.w3.org/2000/svg" viewBox="0 0 40 40"><defs><style>.cls-1{fill:#5289b1;}.cls-1,.cls-2{stroke-width:0px;}.cls-2{fill:#fff;}</style></defs><g id="Design"><path class="cls-2" d="M25.96,6.02h0s0,0,0,0h0s0,0,0,0c-.02,0-2.91,0-4.52,1.79-1.44,1.59-1.08,3.27-.08,4.23-.34.6-.88,1.82-1.26,4h-.2c-.38-2.18-.92-3.4-1.26-4,1-.95,1.36-2.63-.08-4.23-1.61-1.79-4.5-1.79-4.52-1.79h0s0,0,0,0h0s0,0,0,0c0,.02-1.12,2.69-.1,4.86.98,2.08,2.85,2.3,4.14,1.57.3.54.77,1.65,1.12,3.58h-1.59c-.98,0-1.78.8-1.78,1.78,0,.82.56,1.51,1.31,1.72v11.64c0,1.55,1.26,2.8,2.8,2.8s2.8-1.26,2.8-2.8v-11.64c.75-.21,1.31-.9,1.31-1.72,0-.98-.8-1.78-1.78-1.78h-1.47c.35-1.94.82-3.04,1.12-3.58,1.29.73,3.16.51,4.14-1.57,1.02-2.18-.09-4.84-.1-4.86ZM16.68,17.82c0-.51.41-.92.92-.92h1.72c.08.57.14,1.2.18,1.85h-1.91c-.51,0-.92-.41-.92-.92ZM21.89,31.17c0,1.07-.87,1.95-1.95,1.95s-1.95-.87-1.95-1.95v-11.57h1.57c.06,1.22.08,2.47.09,3.53,0,.13,0,.25,0,.37,0,1.46-.04,2.5-.04,2.53h.08s0,.02,0,.02h.31s.31,0,.31,0c0,0,0-.01,0-.02h.08s-.04-1.07-.04-2.53c0-.12,0-.25,0-.37,0-1.07.02-2.31.09-3.53h1.45v11.57ZM23.2,17.82c0,.51-.41.92-.92.92h-1.79c.05-.65.11-1.28.18-1.85h1.6c.51,0,.92.41.92.92Z"/><path class="cls-2" d="M20,40C8.97,40,0,31.03,0,20S8.97,0,20,0s20,8.97,20,20-8.97,20-20,20ZM20,1.43C9.76,1.43,1.43,9.76,1.43,20s8.33,18.57,18.57,18.57,18.57-8.33,18.57-18.57S30.24,1.43,20,1.43Z"/><rect class="cls-2" x=".43" y="18.99" width="39.55" height="2.43" transform="translate(-8.37 20.12) rotate(-44.83)"/><path class="cls-1" d="M33.38,6.11l1.01,1.01L7.04,34.31l-1.01-1.01L33.38,6.11M33.38,4.7l-.71.7L5.33,32.58l-.71.71.71.71,1.01,1.01.71.71.71-.7L35.09,7.84l.71-.71-.71-.71-1.01-1.01-.7-.71h0Z"/></g></svg>