<?xml version="1.0" encoding="UTF-8"?>
<svg id="_圖層_2" data-name="圖層 2" xmlns="http://www.w3.org/2000/svg" viewBox="0 0 36.22 34.41">
  <defs>
    <style>
      .cls-1 {
        fill: none;
        stroke: #fff;
        stroke-miterlimit: 10;
        stroke-width: 1.1px;
      }
    </style>
  </defs>
  <g id="_圖層_1-2" data-name="圖層 1">
    <g>
      <g>
        <path class="cls-1" d="M27.01,15c0-2.86,1.94-5.18,4.33-5.18,2.39,0,4.33,2.32,4.33,5.18,0,2.86-1.94,5.18-4.33,5.18-2.39,0-4.33-2.32-4.33-5.18Z"/>
        <path class="cls-1" d="M4.88,9.82c2.39,0,4.33,2.32,4.33,5.18,0,2.86-1.94,5.18-4.33,5.18-2.39,0-4.33-2.32-4.33-5.18,0-2.86,1.94-5.18,4.33-5.18Z"/>
        <path class="cls-1" d="M23.62,10.88c-.17,0-.35-.01-.53-.04-1.15-.17-2.15-.86-2.82-1.95-.67-1.09-.92-2.44-.73-3.8.41-2.83,2.67-4.85,5.03-4.5,2.36.34,3.95,2.92,3.54,5.75-.38,2.62-2.34,4.54-4.51,4.54Z"/>
        <path class="cls-1" d="M13.12,10.84c-.19.03-.37.04-.56.04-.96,0-1.9-.38-2.71-1.09-.95-.84-1.59-2.06-1.8-3.43-.43-2.82,1.14-5.42,3.51-5.77,2.36-.36,4.63,1.65,5.06,4.47.21,1.37-.04,2.72-.7,3.81-.66,1.09-1.66,1.79-2.8,1.97Z"/>
        <path class="cls-1" d="M8.06,20.99h.02s0-.01,0-.01c.41-.31.86-.58,1.33-.8.44-.21.86-.5,1.23-.85,0,0,.02-.02.03-.03.38-.37.7-.79.96-1.27l.07-.12c.12-.22.2-.42.27-.6.19-.51.41-1,.67-1.45,1.27-2.22,3.3-3.54,5.44-3.54,2.12,0,4.07,1.24,5.37,3.41v.02c.3.49.56,1.03.76,1.59.2.55.5,1.05.89,1.47l.06.07c.53.56,1.14,1.01,1.82,1.35,2.58,1.29,4.19,3.77,4.19,6.47,0,2.4-1.28,4.66-3.42,6.04h0c-.62.4-1.29.71-1.99.93h0s-.01,0-.01,0c-.59.12-1.26.19-1.94.19-1.18,0-2.31-.2-3.1-.55h-.01c-.18-.09-.35-.18-.49-.27-.5-.34-1-.54-1.49-.6-.27-.03-.55-.04-.82-.03-.58.03-1.14.2-1.6.51-.79.52-2.3.84-3.96.84-.27,0-.53,0-.79-.02-.74-.05-1.46-.25-2.14-.59-.49-.25-1.16-.61-1.55-.92-1.72-1.4-2.71-3.41-2.71-5.52,0-2.22,1.07-4.3,2.94-5.7Z"/>
      </g>
      <path class="cls-1" d="M19.36,17.11h-2.45c-.42,0-.76.34-.76.76v3.46h-3.46c-.42,0-.76.34-.76.76v2.45c0,.42.34.76.76.76h3.46v3.46c0,.42.34.76.76.76h2.45c.42,0,.76-.34.76-.76v-3.46h3.46c.42,0,.76-.34.76-.76v-2.45c0-.42-.34-.76-.76-.76h-3.46v-3.46c0-.42-.34-.76-.76-.76Z"/>
    </g>
  </g>
</svg>