<?xml version="1.0" encoding="UTF-8"?><svg id="Layer_2" xmlns="http://www.w3.org/2000/svg" viewBox="0 0 42.92 40.77"><defs><style>.cls-1{fill:none;stroke:#fff;stroke-miterlimit:10;stroke-width:1.3px;}</style></defs><g id="Design"><path class="cls-1" d="M32,17.77c0-3.39,2.3-6.14,5.13-6.14,2.83,0,5.13,2.75,5.13,6.14,0,3.39-2.3,6.14-5.13,6.14-2.83,0-5.13-2.75-5.13-6.14Z"/><path class="cls-1" d="M5.78,11.63c2.83,0,5.13,2.75,5.13,6.14,0,3.39-2.3,6.14-5.13,6.14-2.83,0-5.13-2.75-5.13-6.14,0-3.39,2.3-6.14,5.13-6.14Z"/><path class="cls-1" d="M27.99,12.89c-.21,0-.41-.01-.62-.05-1.36-.2-2.55-1.02-3.34-2.31-.79-1.29-1.1-2.89-.86-4.51.49-3.35,3.16-5.74,5.96-5.34,2.8.41,4.69,3.46,4.2,6.81-.45,3.1-2.78,5.38-5.34,5.38Z"/><path class="cls-1" d="M15.55,12.84c-.22.03-.44.05-.66.05-1.14,0-2.26-.44-3.21-1.29-1.13-1-1.89-2.44-2.13-4.06-.51-3.35,1.35-6.42,4.15-6.84,2.8-.43,5.49,1.95,6,5.3.25,1.62-.05,3.22-.83,4.51-.78,1.3-1.96,2.12-3.32,2.33Z"/><path class="cls-1" d="M9.55,24.87l.02-.02h0c.49-.36,1.02-.68,1.57-.95.53-.25,1.01-.59,1.45-1.01.01,0,.02-.02.04-.03.45-.43.83-.94,1.13-1.51l.08-.14c.14-.26.24-.49.32-.71.22-.6.49-1.18.8-1.72,1.51-2.63,3.92-4.2,6.45-4.2,2.51,0,4.83,1.47,6.36,4.04v.02c.36.59.66,1.22.9,1.88.24.65.59,1.24,1.05,1.75l.07.08c.63.66,1.35,1.2,2.16,1.6,3.06,1.53,4.96,4.46,4.96,7.67,0,2.85-1.52,5.52-4.06,7.15h0c-.73.47-1.52.84-2.36,1.1h0s-.02,0-.02,0c-.7.15-1.5.22-2.3.22-1.4,0-2.74-.24-3.68-.65h-.02c-.22-.1-.41-.21-.57-.32-.59-.4-1.18-.64-1.77-.71-.32-.04-.65-.05-.97-.03-.69.03-1.34.24-1.89.6-.93.61-2.73.99-4.69.99-.32,0-.63,0-.94-.03-.87-.05-1.73-.29-2.54-.7-.59-.3-1.38-.73-1.83-1.09-2.04-1.65-3.21-4.04-3.21-6.54,0-2.63,1.27-5.09,3.49-6.76Z"/><path class="cls-1" d="M22.94,20.27h-2.91c-.5,0-.9.4-.9.9v4.1h-4.1c-.5,0-.9.4-.9.9v2.91c0,.5.4.9.9.9h4.1v4.1c0,.5.4.9.9.9h2.91c.5,0,.9-.4.9-.9v-4.1h4.1c.5,0,.9-.4.9-.9v-2.91c0-.5-.4-.9-.9-.9h-4.1v-4.1c0-.5-.4-.9-.9-.9Z"/></g></svg>