<?xml version="1.0" encoding="UTF-8"?><svg id="Layer_2" xmlns="http://www.w3.org/2000/svg" viewBox="0 0 36.42 39.3"><defs><style>.cls-1{fill:none;stroke:#fff;stroke-linecap:round;stroke-linejoin:round;stroke-width:1.3px;}</style></defs><g id="Design"><path class="cls-1" d="M11.73,18.64l-1.01,1.01c-1.68,1.68-1.53,4.44.32,5.93l15.38,12.35c1.3,1.05,3.18.94,4.37-.24h0c1.18-1.18,1.28-3.06.24-4.37l-12.35-15.38c-1.49-1.85-4.25-2-5.93-.32l-1.01,1.01Z"/><line class="cls-1" x1="11.88" y1="26.27" x2="14.74" y2="23.41"/><line class="cls-1" x1="20.94" y1="33.17" x2="23.24" y2="30.87"/><path class="cls-1" d="M22.68,23.57c-.81.81-2.55,2.55-2.55,2.55"/><line class="cls-1" x1="27.11" y1="33.61" x2="29.41" y2="31.31"/><path class="cls-1" d="M6.91,12.04c-2.41-2.41-3.46-2.52-4.04-1.94s-.47,1.63,1.94,4.04c2.41,2.41,6.37,4.27,6.58,4.48,0,0-2.07-4.17-4.48-6.58Z"/><path class="cls-1" d="M12.01,18s-.01-4.26-1.01-7.22c-1-2.95-1.82-3.47-2.53-3.23-.5.17-.82.68-.6,2.01"/><path class="cls-1" d="M11.15,18.85s-4.26-.01-7.22-1.01c-2.95-1-3.47-1.82-3.23-2.53.15-.44.54-.73,1.5-.66"/><path class="cls-1" d="M31.92,29.25c.8-5.43,1.73-11.68,1.73-11.68.35-2.35-1.42-4.48-3.79-4.57l-1.43-.05-1.43-.05c-2.37-.09-4.3,1.9-4.13,4.26,0,0,.1,1.38.24,3.41"/><line class="cls-1" x1="22.93" y1="18.25" x2="26.98" y2="18.4"/><path class="cls-1" d="M29.99,4.93c.13-3.4-.5-4.25-1.32-4.28-.82-.03-1.52.76-1.65,4.16-.13,3.4,1.2,7.57,1.19,7.87,0,0,1.65-4.35,1.78-7.75Z"/><path class="cls-1" d="M34.05,7.28c2.02-2.74,1.97-3.79,1.31-4.28-.66-.49-1.68-.22-3.7,2.52-2.02,2.74-3.27,6.93-3.45,7.17,0,0,3.81-2.67,5.84-5.41Z"/><path class="cls-1" d="M24.32,5.74c-2.19-2.61-3.23-2.81-3.86-2.28-.63.53-.61,1.58,1.58,4.19,2.19,2.61,5.98,4.8,6.17,5.03,0,0-1.7-4.33-3.89-6.94Z"/><line class="cls-1" x1="32.7" y1="24" x2="28.51" y2="24"/></g></svg>