<?xml version="1.0" encoding="UTF-8"?><svg id="Layer_2" xmlns="http://www.w3.org/2000/svg" viewBox="0 0 40 40"><defs><style>.cls-1{fill:#5289b1;}.cls-1,.cls-2{stroke-width:0px;}.cls-2{fill:#fff;}</style></defs><g id="Design"><circle class="cls-2" cx="20" cy="10.25" r="1.35"/><circle class="cls-2" cx="16.24" cy="13.48" r="1.35"/><circle class="cls-2" cx="16.95" cy="17.13" r="1.35"/><circle class="cls-2" cx="13.53" cy="17.13" r="1.35"/><circle class="cls-2" cx="16.24" cy="20.54" r="1.35"/><circle class="cls-2" cx="23.5" cy="20.54" r="1.35"/><circle class="cls-2" cx="28.95" cy="20.54" r="1.35"/><circle class="cls-2" cx="11.07" cy="20.54" r="1.35"/><circle class="cls-2" cx="20" cy="22.69" r="1.35"/><circle class="cls-2" cx="26.47" cy="22.95" r="1.35"/><circle class="cls-2" cx="13.53" cy="22.95" r="1.35"/><path class="cls-2" d="M31.46,25.25c-.23.41-.66.71-1.17.71s-.93-.29-1.17-.71h-4.87c-.14.6-.65,1.06-1.29,1.06s-1.16-.46-1.29-1.06h-3.44c-.14.6-.65,1.06-1.29,1.06s-1.16-.46-1.29-1.06h-4.78c-.23.41-.66.71-1.17.71s-.93-.29-1.17-.71h-2.25l1.54,4.02c.42,1.11,1.48,1.84,2.66,1.84h18.77c1.13,0,2.16-.67,2.61-1.71l1.81-4.15h-2.23Z"/><path class="cls-2" d="M11.07,24.6c0-.75-.61-1.35-1.35-1.35s-1.35.61-1.35,1.35c0,.24.08.45.19.65h2.33c.11-.2.19-.41.19-.65Z"/><path class="cls-2" d="M31.65,24.6c0-.75-.61-1.35-1.35-1.35s-1.35.61-1.35,1.35c0,.24.08.45.19.65h2.33c.11-.2.19-.41.19-.65Z"/><path class="cls-2" d="M18.3,24.95c0-.75-.61-1.35-1.35-1.35s-1.35.61-1.35,1.35c0,.1.04.2.06.29h2.59c.02-.1.06-.19.06-.29Z"/><path class="cls-2" d="M24.33,24.95c0-.75-.61-1.35-1.35-1.35s-1.35.61-1.35,1.35c0,.1.04.2.06.29h2.59c.02-.1.06-.19.06-.29Z"/><circle class="cls-2" cx="26.47" cy="17.13" r="1.35"/><circle class="cls-2" cx="22.97" cy="17.13" r="1.35"/><circle class="cls-2" cx="20" cy="14.42" r="1.35"/><circle class="cls-2" cx="20" cy="18.78" r="1.35"/><circle class="cls-2" cx="23.5" cy="13.48" r="1.35"/><path class="cls-2" d="M20,40C8.97,40,0,31.03,0,20S8.97,0,20,0s20,8.97,20,20-8.97,20-20,20ZM20,1.43C9.76,1.43,1.43,9.76,1.43,20s8.33,18.57,18.57,18.57,18.57-8.33,18.57-18.57S30.24,1.43,20,1.43Z"/><rect class="cls-2" x=".43" y="18.99" width="39.55" height="2.43" transform="translate(-8.37 20.12) rotate(-44.83)"/><path class="cls-1" d="M33.38,6.11l1.01,1.01L7.04,34.31l-1.01-1.01L33.38,6.11M33.38,4.7l-.71.7L5.33,32.58l-.71.71.71.71,1.01,1.01.71.71.71-.7L35.09,7.84l.71-.71-.71-.71-1.01-1.01-.7-.71h0Z"/></g></svg>