<?xml version="1.0" encoding="UTF-8"?><svg id="Layer_2" xmlns="http://www.w3.org/2000/svg" viewBox="0 0 71.55 63.92"><defs><style>.cls-1{fill:#e5edf3;stroke-miterlimit:10;}.cls-1,.cls-2,.cls-3{stroke:#5289b1;stroke-width:2px;}.cls-2{fill:#fff;}.cls-2,.cls-3{stroke-linecap:round;stroke-linejoin:round;}.cls-3{fill:none;}</style></defs><g id="Design"><path class="cls-1" d="M54.99,62.92c10.57,0,9.36-9.74,9.36-9.74,5.41,0,5.22-5.31,5.22-5.31H1s-.19,5.31,5.22,5.31c0,0-1.2,9.74,9.36,9.74h39.41"/><line class="cls-3" x1="6.22" y1="53.18" x2="57.68" y2="53.18"/><polyline class="cls-1" points="7.69 32.28 7.69 37.33 34.59 37.33 34.59 16.85 7.69 16.85 7.69 32.28"/><path class="cls-1" d="M27.62,20.47c1.45,1.34,3.39,2.17,5.52,2.17,4.5,0,8.14-3.64,8.14-8.14s-3.64-8.14-8.14-8.14c-.85,0-1.68.13-2.45.38-1.82-3.41-5.41-5.73-9.55-5.73s-7.73,2.32-9.55,5.73c-.77-.24-1.6-.38-2.45-.38C4.64,6.36,1,10,1,14.5s3.64,8.14,8.14,8.14c2.13,0,4.07-.83,5.52-2.17"/><rect class="cls-1" x="11.54" y="37.3" width="19.2" height="6.22"/><path class="cls-1" d="M68.43,23.69c.63-1.81,1.2-3.83,1.69-6.06.34-1.54.4-2.62.43-3.36.07-1.54-1.43-1.67-1.89-.62-2.65,6.09-6.22,12.49-8.15,15.34-1.39,2.06-4.55.12-3.35-2.05l8.53-15.46c.77-1.39-1.17-2.68-2.16-1.44l-11,13.82c-1.55,1.95-4.55-.23-3.18-2.3,1.89-2.87,6.43-8.63,11.03-13.42.79-.82.09-2.16-1.3-1.51-.67.31-1.64.78-2.94,1.69-9.18,6.41-12.92,12.62-12.61,17.45.14,2.16,1.6,4.42,3.65,6.3l-14.63,20.76c-1.08,1.53-.68,3.65.88,4.68,1.55,1.04,3.66.58,4.66-.99l13.54-21.48c2.51,1.18,5.16,1.66,7.22.95,3.06-1.05,5.99-4,8.31-9.11l1.26-3.17Z"/><line class="cls-2" x1="37.6" y1="51.26" x2="36.08" y2="53.53"/></g></svg>