<?xml version="1.0" encoding="UTF-8"?><svg id="Layer_2" xmlns="http://www.w3.org/2000/svg" viewBox="0 0 79.22 68.55"><defs><style>.cls-1{fill:#5289b1;stroke-width:0px;}</style></defs><g id="Design"><path class="cls-1" d="M32.47,68.55c-10.4,0-20.5-1.2-24.14-2.31-1.04-.32-2.03-.74-2.24-1.64h0c-.21-.91.49-1.72,1.28-2.47,5.68-5.34,35.58-23.04,46.9-19.65,3.79,1.14,6.69,4.52,7.75,9.06,1.06,4.54-.04,8.86-2.93,11.56-4.43,4.13-15.69,5.45-26.61,5.45ZM8.91,63.94c5.99,1.89,40.8,4.62,48.55-2.59,2.23-2.08,3.08-5.63,2.23-9.27-.85-3.64-3.19-6.45-6.11-7.32-10.14-3.04-40.14,14.83-44.67,19.17ZM8.41,64.06h.01-.01Z"/><path class="cls-1" d="M47.04,49.67c-.54,0-1.03-.37-1.16-.92l-1.08-4.62c-.15-.64.25-1.29.89-1.43.64-.15,1.29.25,1.43.89l1.08,4.62c.15.64-.25,1.29-.89,1.43-.09.02-.18.03-.27.03Z"/><path class="cls-1" d="M45.89,67.72c-.54,0-1.03-.37-1.16-.92l-.93-3.97c-.15-.64.25-1.29.89-1.43.64-.15,1.29.25,1.43.89l.93,3.97c.15.64-.25,1.29-.89,1.43-.09.02-.18.03-.27.03Z"/><path class="cls-1" d="M35.03,57.96c-.54,0-1.03-.37-1.16-.92l-.84-3.61c-.15-.64.25-1.29.89-1.43.64-.15,1.29.25,1.43.89l.84,3.61c.15.64-.25,1.29-.89,1.43-.09.02-.18.03-.27.03Z"/><path class="cls-1" d="M26.31,68.4c-.54,0-1.03-.37-1.16-.92l-.88-3.75c-.15-.64.25-1.29.89-1.43.64-.15,1.29.25,1.43.89l.88,3.75c.15.64-.25,1.29-.89,1.43-.09.02-.18.03-.27.03Z"/><path class="cls-1" d="M16.52,61.28c-.54,0-1.03-.37-1.16-.92l-.61-2.6c-.15-.64.25-1.29.89-1.43.65-.15,1.29.25,1.43.89l.61,2.6c.15.64-.25,1.29-.89,1.43-.09.02-.18.03-.27.03Z"/><path class="cls-1" d="M53.95,59.02c-.54,0-1.03-.37-1.16-.92l-.73-3.12c-.15-.64.25-1.29.89-1.43.64-.15,1.28.25,1.43.89l.73,3.12c.15.64-.25,1.29-.89,1.43-.09.02-.18.03-.27.03Z"/><path class="cls-1" d="M74.43,62.06c-.54,0-1.07-.2-1.48-.57-1.67-1.52-6.1-5.03-11.53-5.03-.07,0-.14,0-.22,0-.65,0-1.18-.52-1.19-1.18-.01-.66.52-1.2,1.18-1.21,6.18-.14,11.2,3.7,13.21,5.5l1.4-2.02c-.93-1.03-3.15-3.25-5.61-4.21-.62-.24-.92-.93-.68-1.55.24-.61.93-.92,1.55-.68,2.93,1.15,5.41,3.6,6.63,4.96.68.76.75,1.88.16,2.72l-1.6,2.31c-.36.52-.93.86-1.57.93-.08,0-.16.01-.24.01ZM75.9,57.67h.01-.01Z"/><path class="cls-1" d="M70.62,53.42c-.5,0-.97-.32-1.14-.83-.2-.63.14-1.3.77-1.5.13-.04,3.12-1,6.56-1.16l-.17-3.04c-3.8.3-7.84,2.14-7.89,2.15-.6.28-1.31.01-1.58-.59-.28-.6-.01-1.31.59-1.58.19-.09,4.75-2.16,9.09-2.39.54-.02,1.08.15,1.49.52.41.36.64.86.67,1.41l.21,3.75c.03.55-.17,1.09-.54,1.5-.37.41-.88.64-1.42.65-3.25.09-6.24,1.05-6.27,1.06-.12.04-.25.06-.37.06Z"/><path class="cls-1" d="M59.32,49.19c-.46,0-.9-.27-1.09-.71-.27-.6,0-1.31.61-1.57,5.03-2.21,7.48-6.34,8.29-8.01.27-.56.78-.98,1.38-1.14.6-.16,1.24-.06,1.76.28l2.35,1.54c.74.49,1.12,1.38.95,2.22-.87,4.2-4.42,7-4.57,7.12-.52.4-1.27.31-1.68-.21-.41-.52-.31-1.27.21-1.68.03-.02,2.9-2.31,3.66-5.54l-2.02-1.32c-1.03,2.03-3.82,6.49-9.37,8.93-.16.07-.32.1-.48.1Z"/><path class="cls-1" d="M8.19,57.35c-.56,0-1.06-.4-1.17-.97-.26-1.33-.18-2.71.21-4.01-1.56-.36-2.99-1.15-4.12-2.32-1.56-1.6-2.4-3.72-2.37-5.96.03-2.14.86-4.15,2.34-5.69-.25-.2-.49-.41-.71-.64C.81,36.16-.03,34.05,0,31.81c.03-2.24.93-4.33,2.54-5.89,1.6-1.56,3.68-2.39,5.96-2.37,2.24.03,4.33.93,5.89,2.54.22.22.42.46.61.72,1.6-1.51,3.65-2.36,5.88-2.29,2.24.03,4.33.93,5.89,2.54,1.52,1.57,2.36,3.65,2.36,5.85,0,.66-.54,1.19-1.19,1.19h0c-.66,0-1.19-.54-1.19-1.2,0-1.58-.6-3.06-1.68-4.18-1.11-1.15-2.61-1.79-4.21-1.81-1.59,0-3.11.58-4.26,1.69-.28.28-.54.59-.77.92-.24.35-.65.55-1.08.52-.43-.03-.8-.29-.99-.68-.31-.65-.66-1.17-1.08-1.6-1.11-1.15-2.61-1.79-4.21-1.81-1.6,0-3.11.58-4.26,1.69-1.15,1.11-1.79,2.61-1.81,4.21s.58,3.11,1.69,4.26c.41.42.92.79,1.56,1.12.37.19.62.57.64.99s-.17.82-.52,1.06c-.35.24-.61.44-.83.65-1.15,1.11-1.79,2.61-1.81,4.21s.58,3.11,1.69,4.26c1.09,1.12,2.55,1.76,4.13,1.8.41.01.79.24,1,.59s.22.8.02,1.16c-.65,1.22-.86,2.63-.6,3.98.12.65-.3,1.27-.95,1.4-.08.01-.15.02-.23.02Z"/><path class="cls-1" d="M17.2,42.31s-.04,0-.06,0l-4.51-.24c-.66-.04-1.16-.6-1.13-1.26.04-.66.6-1.17,1.26-1.13l4.51.24c.66.04,1.16.6,1.13,1.26-.03.64-.56,1.13-1.19,1.13Z"/><path class="cls-1" d="M21.06,46.6s-.05,0-.08,0c-.66-.04-1.16-.61-1.12-1.27l.49-7.73c.04-.66.6-1.17,1.27-1.12.66.04,1.16.61,1.12,1.27l-.49,7.73c-.04.63-.57,1.12-1.19,1.12Z"/><path class="cls-1" d="M18.86,22.94c-.17,0-.34-.04-.51-.11-.6-.28-.85-.99-.58-1.59.34-.72.79-1.36,1.35-1.91-.79-.84-1.35-1.88-1.61-3.03-.78-3.42,1.26-6.83,4.58-7.8-.04-.14-.08-.28-.11-.42-.39-1.72-.09-3.49.85-4.98.94-1.49,2.4-2.53,4.12-2.92,1.72-.39,3.49-.09,4.98.85s2.53,2.4,2.92,4.12c.03.14.06.29.08.43,3.37-.49,6.61,1.7,7.38,5.07.26,1.15.21,2.33-.14,3.43.91.31,1.75.82,2.45,1.49.47.46.49,1.21.03,1.69-.46.48-1.21.49-1.69.03-.7-.67-1.61-1.09-2.58-1.17-.41-.04-.78-.28-.96-.65s-.17-.81.05-1.16c.58-.95.76-2.06.52-3.13-.25-1.1-.91-2.03-1.87-2.63-.95-.6-2.08-.79-3.18-.54-.21.05-.42.12-.7.24-.39.16-.83.11-1.17-.14-.34-.25-.52-.66-.48-1.08.05-.5.03-.94-.06-1.35-.25-1.1-.91-2.03-1.87-2.63-.95-.6-2.09-.79-3.18-.54-1.1.25-2.03.91-2.63,1.87s-.79,2.08-.54,3.18c.09.41.27.82.53,1.25.22.36.24.82.03,1.2-.2.38-.59.61-1.02.62-.28,0-.57.04-.84.1-2.27.52-3.69,2.78-3.17,5.04.24,1.07.89,2,1.82,2.6.35.22.55.61.54,1.03,0,.41-.23.79-.58,1-.74.44-1.33,1.08-1.69,1.86-.2.43-.63.69-1.08.69Z"/><path class="cls-1" d="M32.99,27.58c-.54,0-1.03-.37-1.16-.92l-3.39-14.28c-.15-.64.24-1.29.89-1.44.65-.16,1.29.25,1.44.89l3.39,14.28c.15.64-.24,1.29-.89,1.44-.09.02-.19.03-.28.03Z"/><path class="cls-1" d="M30.97,19.08c-.21,0-.43-.06-.63-.18-.56-.35-.74-1.08-.39-1.64l2.86-4.64c.35-.56,1.08-.74,1.64-.39.56.35.74,1.08.39,1.64l-2.86,4.64c-.23.37-.62.57-1.02.57Z"/><path class="cls-1" d="M32.46,25.38c-.21,0-.43-.06-.63-.18l-3.45-2.12c-.56-.35-.74-1.08-.39-1.64s1.08-.74,1.64-.39l3.45,2.12c.56.35.74,1.08.39,1.64-.23.37-.62.57-1.02.57Z"/><path class="cls-1" d="M30.65,44.72c-.2,0-.4-.05-.58-.15-.58-.32-.78-1.05-.46-1.63.58-1.04,1.41-1.93,2.39-2.6-.83-1.15-1.33-2.5-1.43-3.94-.14-2.04.52-4,1.86-5.54,1.25-1.44,2.96-2.34,4.85-2.57-.04-.25-.08-.49-.09-.73-.29-4.2,2.89-7.86,7.09-8.15,2.03-.14,4,.52,5.54,1.86,1.54,1.34,2.47,3.2,2.61,5.23.06.78-.03,1.58-.26,2.46-.17.64-.83,1.02-1.46.85-.64-.17-1.02-.82-.85-1.46.16-.62.22-1.17.19-1.68-.1-1.4-.73-2.68-1.79-3.6-1.06-.92-2.42-1.37-3.81-1.28-2.89.2-5.07,2.71-4.87,5.6.04.51.17,1.05.41,1.63.16.39.1.83-.15,1.17-.25.34-.67.51-1.08.47-.38-.04-.67-.05-.92-.03-2.89.2-5.08,2.71-4.88,5.6.1,1.37.71,2.63,1.75,3.55.31.28.45.69.38,1.1-.07.41-.35.75-.73.9-1.12.45-2.07,1.28-2.66,2.33-.22.39-.62.61-1.04.61Z"/><path class="cls-1" d="M44.72,39.99c-.65,0-1.19-.52-1.19-1.18l-.13-10.45c0-.66.52-1.2,1.18-1.21.67-.02,1.2.52,1.21,1.18l.13,10.45c0,.66-.52,1.2-1.18,1.21h-.01Z"/><path class="cls-1" d="M44.66,34.83c-.3,0-.6-.11-.83-.34-.47-.46-.48-1.22-.02-1.69l2.49-2.55c.46-.47,1.22-.48,1.69-.02s.48,1.22.02,1.69l-2.49,2.55c-.23.24-.54.36-.86.36Z"/><path class="cls-1" d="M44.71,38.86c-.3,0-.6-.11-.83-.34l-3.71-3.62c-.47-.46-.48-1.22-.02-1.69.46-.47,1.22-.48,1.69-.02l3.71,3.62c.47.46.48,1.22.02,1.69-.23.24-.54.36-.86.36Z"/><path class="cls-1" d="M22.85,48.59c-.33,0-.65-.13-.89-.4l-10.92-12.14c-.44-.49-.4-1.25.09-1.69.49-.44,1.25-.4,1.69.09l10.92,12.14c.44.49.4,1.25-.09,1.69-.23.21-.51.31-.8.31Z"/><path class="cls-1" d="M64.04,20.19h-3.04c-.52,0-.94.42-.94.94v4.29h-4.29c-.52,0-.94.42-.94.94v3.04c0,.52.42.94.94.94h4.29v4.29c0,.52.42.94.94.94h3.04c.52,0,.94-.42.94-.94v-4.29h4.29c.52,0,.94-.42.94-.94v-3.04c0-.52-.42-.94-.94-.94h-4.29v-4.29c0-.52-.42-.94-.94-.94Z"/></g></svg>