<?xml version="1.0" encoding="UTF-8"?><svg id="Layer_2" xmlns="http://www.w3.org/2000/svg" viewBox="0 0 23 23"><defs><style>.cls-1{fill:#fdfdfd;}.cls-1,.cls-2{fill-rule:evenodd;}.cls-1,.cls-2,.cls-3{stroke-width:0px;}.cls-2{fill:#fcfcfc;}.cls-3{fill:#0d9f16;}</style></defs><g id="Design"><path class="cls-3" d="M23,11.5c0,6.35-5.15,11.5-11.5,11.5S0,17.85,0,11.5,5.15,0,11.5,0s11.5,5.15,11.5,11.5Z"/><path class="cls-2" d="M18.15,9.9c-.75-3.11-3.43-5.23-6.66-5.27-.43,0-.87.04-1.31.13-4.51.91-6.85,5.92-4.65,9.95.06.11.06.2.03.31-.29,1.06-.58,2.13-.87,3.19q-.05.17.13.13c1.1-.29,2.21-.58,3.31-.87.09-.02.16-.01.25.03,1.42.73,2.92.94,4.48.64,3.74-.73,6.19-4.53,5.3-8.24ZM12.45,17.05c-.31.05-.62.08-.78.08-1.2,0-2.18-.27-3.08-.82-.12-.07-.22-.09-.35-.05-.6.17-1.21.32-1.82.48-.13.04-.14.01-.11-.1.16-.58.31-1.15.48-1.72.05-.16.03-.28-.06-.43-1.24-2-1.19-4.49.2-6.34,1.45-1.93,3.41-2.72,5.77-2.21,2.32.49,3.8,1.99,4.34,4.29.74,3.16-1.4,6.29-4.59,6.82Z"/><path class="cls-1" d="M13.28,14.72c-.24.01-.48-.05-.71-.11-1.57-.45-2.74-1.43-3.69-2.72-.36-.49-.69-.99-.8-1.59-.13-.73.08-1.34.62-1.84.17-.16.7-.23.9-.13.08.04.13.11.16.18.2.47.39.94.59,1.41.04.09.02.18-.02.27-.1.22-.26.39-.42.56-.12.13-.13.24-.04.39.55.92,1.32,1.59,2.32,1.99.15.06.26.04.36-.09.17-.21.34-.41.5-.62.11-.15.23-.17.38-.1.33.15.66.31.99.46.07.03.15.07.22.1.34.17.33.17.3.54-.06.72-.6,1.08-1.24,1.26-.14.04-.29.04-.44.03Z"/></g></svg>