<?xml version="1.0" encoding="UTF-8"?><svg id="Layer_2" xmlns="http://www.w3.org/2000/svg" viewBox="0 0 67.18 63.87"><defs><style>.cls-1{fill:#5289b1;stroke-width:0px;}</style></defs><g id="Design"><path class="cls-1" d="M65.27,15.9c-.46-.59-.94-1.19-1.31-1.86-.37-.68-.56-1.44-.76-2.25-.21-.85-.43-1.74-.88-2.55-.58-1.04-1.98-3.07-3.65-4.56-2.13-2.59-5.78-4.53-8.79-3.71l-.2.06c-.35.1-.68.2-.96.12-.13-.03-.27-.11-.42-.2l-.1-.06c-3.17-1.78-8.58-.73-11.64,1.36-.61.42-1.16.92-1.63,1.49-.11-.01-.21-.03-.33-.04-3.19-.28-5.9,5.36-6.59,7.36-.3.86-.36,1.75-.42,2.62-.06.81-.11,1.58-.35,2.3-.24.71-.59,1.37-.93,2.01-.64,1.2-1.3,2.43-1.18,3.94.03.35.09.67.18.98-1.8,1.88-4.23,5.13-7.35,9.37l-1.14,1.54c-4.07,5.51-6.44,9.92-7.43,13.77-.66-.75-1.3-1.51-1.83-2.2-3.46-4.54-5.16-8.55-5.79-10.06-.3-.7-.34-.8-.51-.9-.27-.15-.57-.11-.79.09-1.05.98-.39,8.43,1.94,13.41.95,2.04,2.79,5.02,6.2,8,.25,1.31.65,2.44,1.09,3.21.85,1.48,2.79,2.35,4.54,2.25.04,0,.07,0,.1-.01.1,0,.2-.02.29-.03.11-.02.22-.04.34-.06.02,0,.04,0,.05-.01.13-.03.25-.07.37-.11.2.74.75,1.51,2.1,1.87.93.24,1.88.31,2.66.31.73,0,1.3-.06,1.56-.09.03,0,.09-.01.15-.02.09-.01.2-.04.32-.07.03,0,.06-.02.09-.02.1-.03.2-.06.32-.1.05-.02.09-.03.14-.05,0,0,.02,0,.03-.01.44-.18.93-.48,1.27-.95.23-.32.37-.68.41-1.08,1.18-.14,2.21-.39,3.06-.76.14.76.31,1.46.52,2.07.35.99,2.36,1.61,4.12,1.61.22,0,.43,0,.64-.03,1.71-.16,2.8-.97,2.99-2.21.07-.46-.04-.82-.24-1.11.86.18,1.73.24,2.45.24.63,0,1.14-.04,1.43-.07.01.03.02.07.03.11.32.95,2.13,1.51,3.81,1.51.18,0,.37,0,.54-.02,1.83-.14,3.01-.95,3.24-2.24.18-1.01-.55-1.53-1.04-1.87-.17-.12-.39-.28-.43-.37-.23-.57-.36-3.02,1.43-12.94v-.08c.12-.57.23-1.15.34-1.73.32-1.71.65-3.43.84-5.12,2.88-.32,5.88-1.62,7.48-4.25.96-1.58,1.41-3.17,1.44-5.16.34.82.8,1.51,1.43,1.92.41.27.87.41,1.37.41.36,0,.74-.07,1.15-.21.96-.34,1.23-1.36,1.42-2.11.07-.27.14-.52.22-.69.46-.96,1.21-1.82,1.93-2.66,1.35-1.56,2.75-3.18,2.54-5.55-.14-1.53-1.03-2.65-1.89-3.74ZM27.08,18.42c.36-.67.73-1.37.99-2.15.27-.82.33-1.68.39-2.52.06-.84.11-1.64.37-2.39.75-2.17,3.16-6.79,5.53-6.79.05,0,.11,0,.16,0,1.09.1,1.82.43,2.17.99.7,1.13-.09,3.18-.73,4.82-.22.56-.42,1.08-.56,1.54-.6,2.03-.75,3.81-.52,6.15.11,1.08.19,2.18.27,3.25.04.49.07.98.11,1.47.01.17.04.4.06.66.17,1.7.57,5.69-.81,6.97-.4.36-.92.48-1.6.35-.52-.1-.8-.72-1.07-1.32-.13-.29-.25-.56-.4-.77-.66-.95-1.56-1.71-2.42-2.44-1.47-1.24-2.86-2.41-3.02-4.39-.1-1.25.47-2.32,1.08-3.46ZM8.61,50.57c-.26,1.38-.29,2.76-.17,4.03-2.81-2.65-4.38-5.22-5.22-7.02-2.12-4.51-2.59-10.33-2.28-12,.01.03.03.07.04.1.65,1.54,2.37,5.62,5.9,10.25.64.84,1.45,1.78,2.26,2.69-.22.62-.39,1.25-.51,1.87-.01.03-.03.05-.03.08ZM35.59,59.64c-1.21-.28-1.46-.86-1.5-1.3-.04-.85,0-2.31.29-4.83.21-.31.42-.62.63-.93l.03-.04c.36-.54.7-1.1,1.04-1.64.53-.87,1.09-1.77,1.71-2.58.16-.21.34-.42.51-.64.13,1.16.24,2.36.27,3.57l.02.9c.06,2.49.13,5.51.62,7.7-.69.06-2.19.13-3.61-.2ZM46.5,42.9c-.11.58-.22,1.16-.32,1.73v.08c-1.43,7.84-1.88,12.23-1.39,13.42.13.32.44.54.73.75.52.37.76.59.69,1.01-.21,1.19-1.62,1.47-2.45,1.53-1.82.14-3.33-.5-3.47-.9-.7-2.06-.78-5.57-.84-8.4l-.02-.9c-.04-1.64-.23-3.24-.4-4.78-.19-1.68-.4-3.43-.4-5.2,0-.16-.09-.29-.22-.37-.07-.04-.14-.07-.22-.07h0c-.24,0-.43.2-.43.44,0,1.79.2,3.53.4,5.22-.05.06-.1.11-.14.17-.32.38-.62.76-.92,1.15-.66.85-1.22,1.77-1.77,2.66-.23.38-.48.77-.72,1.15.2-1.52.45-3.33.8-5.48v-.07c.1-.58.2-1.17.3-1.76.19-1.12.38-2.27.53-3.41.03-.24-.14-.46-.37-.49-.24-.03-.46.14-.49.37,0,.02,0,.05-.01.07-.15,1.11-.34,2.23-.52,3.32-.1.59-.2,1.19-.29,1.77v.07c-1.27,7.98-1.63,12.46-1.11,13.69.14.33.44.54.76.77.51.37.81.62.74,1.07-.17,1.12-1.46,1.4-2.21,1.48-1.8.17-3.67-.51-3.85-1.01-.77-2.13-.93-5.73-1.06-8.62l-.04-.92c-.08-1.68-.31-3.32-.53-4.9-.29-2.09-.59-4.26-.54-6.5,0,0,0-.01,0-.02,0-.23-.19-.42-.42-.42-.23,0-.44.18-.45.42-.05,2.31.25,4.51.55,6.64.22,1.56.44,3.17.52,4.82l.04.92c.09,1.86.18,4.02.45,5.92-.03.01-.06.03-.09.04-.78.35-1.75.6-2.87.73,0,0,0-.02,0-.03-.2-1.01-1.01-1.84-1.72-2.23-.22-.12-.44-.2-.65-.24.68-1.68,1.62-4.63,1.66-4.78.66-2.09.97-4.21.89-6.12-.12-2.86-3.21-4.59-5.13-5.02-.88-.2-2.18-.02-3.54.48-.23.08-.34.33-.26.56.08.23.33.34.56.26,1.2-.44,2.34-.6,3.06-.45,1.67.37,4.35,1.83,4.45,4.21.08,1.81-.21,3.83-.85,5.82-.43,1.37-1.39,4.25-1.9,5.31-.08.16-.05.36.08.49.12.13.32.17.48.1.17-.07.45-.01.75.15.63.34,1.16,1.01,1.28,1.63.02.12.04.24.04.35,0,0,0,0,0,0,0,.07,0,.14,0,.21,0,.02,0,.05,0,.07,0,.07-.02.14-.04.2,0,.02-.01.04-.02.05-.12.37-.37.64-.65.83-.02.01-.04.03-.06.04-.03.02-.06.04-.1.06-.06.03-.12.06-.18.09-.02,0-.03.01-.05.02-.04.02-.07.03-.11.05-.02,0-.04.02-.06.02-.04.02-.09.03-.13.04-.03.01-.07.02-.1.03-.02,0-.03,0-.05.01-.03,0-.06.02-.09.02-.01,0-.02,0-.04,0-.08.02-.15.03-.21.04-.02,0-.03,0-.04,0,0,0-.02,0-.02,0-.02,0-.04,0-.05,0-.5.06-2.24.23-3.89-.2-1.02-.27-1.51-.8-1.54-1.68,0-.15-.09-.29-.23-.36-.07-.04-.14-.05-.21-.05,0,0,0,0,0,0-.02,0-.04,0-.05,0-.02,0-.04,0-.06,0-.04,0-.07.02-.1.04-1.52.87-4.18.11-5.08-1.45-.05-.09-.1-.19-.15-.29-.03-.06-.06-.11-.08-.18-.02-.04-.04-.08-.05-.12-.12-.27-.24-.59-.35-.95-.01-.03-.02-.06-.03-.1-.02-.07-.04-.15-.07-.23-.03-.11-.06-.23-.09-.35,0-.03-.02-.06-.02-.09-.03-.14-.06-.28-.1-.43-.41-2.03-.46-4.69.52-7.29,0-.02.01-.04.02-.07.8-3.92,3.18-8.46,7.47-14.28l1.14-1.55c2.22-3.02,4.98-6.77,6.97-8.97.19,2.53,1.29,4.96,3.1,6.56,3.2,2.83,7.04,4,9.91,4.02.74.76,1.57,1.43,2.44,1.97,1.29.8,2.67,1.34,3.99,1.52.53.07,1.08.11,1.66.11.19,0,.38,0,.58-.01-.19,1.6-.5,3.25-.81,4.88ZM56.19,26.91c.01.18.02.36.03.53.14,2.39-.23,4.07-1.29,5.8-1.38,2.26-3.92,3.43-6.45,3.8.08-.18.14-.35.2-.51,2.04-.13,4.03-.96,4.11-2.26.16-2.52-2.73-2.59-4.27-2.64-1.9-.06-3.91.09-4.26,2.36-.26,1.66,1.44,2.44,3.39,2.55-.08.19-.17.4-.28.61-.75.04-1.49.01-2.17-.09-2.11-.29-4.39-1.58-6.12-3.44-1.42-1.53-2.17-3.6-2.76-5.55.18-1.63,0-3.46-.12-4.68-.03-.25-.05-.47-.06-.64-.04-.49-.07-.98-.11-1.47-.08-1.07-.16-2.18-.27-3.27-.22-2.22-.08-3.91.49-5.82.13-.43.32-.94.53-1.48.71-1.83,1.59-4.1.66-5.6-.32-.52-.84-.9-1.54-1.13.35-.37.74-.71,1.16-.99,2.79-1.9,7.88-2.91,10.73-1.32l.09.05c.18.1.38.22.62.28.51.13.99,0,1.42-.13l.19-.05c3.07-.83,7.05,1.74,8.71,4.58,1.05,1.79.93,3.79.81,5.9-.02.31-.04.62-.05.93v.19c-.11,2.32-.22,4.71-1.32,6.78-.21.39-.46.78-.7,1.15-.27.42-.54.84-.77,1.29-.01,0-.02-.02-.03-.03-.64-.45-1.01,1.15-2.68,1.01-1.66-.13-1.84-2.2-2.65-1.75-.81.45.59,2.8,2.49,3.09.93.14,1.77-.31,2.32-.86-.19.93-.13,1.88-.07,2.8ZM63.97,24.63c-.76.88-1.55,1.79-2.06,2.85-.12.24-.19.53-.27.84-.17.65-.35,1.32-.87,1.51-.7.25-1.27.22-1.75-.1-1.27-.83-1.72-3.48-1.91-5.42.02-.1.04-.2.07-.29.22-.77.66-1.46,1.13-2.19.25-.39.51-.79.73-1.21,1.19-2.24,1.3-4.74,1.41-7.15v-.19c.02-.31.04-.61.06-.92.09-1.52.17-3.08-.2-4.58.53.7.97,1.38,1.27,1.91.4.71.59,1.5.8,2.33.2.82.41,1.68.84,2.45.4.73.9,1.37,1.39,1.98.82,1.03,1.59,2.01,1.7,3.28.18,2-1.04,3.41-2.33,4.9Z"/><path class="cls-1" d="M44.33,22.08c-.71-.33-.78,1.32-2.44,1.49-1.66.18-2.22-1.82-2.93-1.23-.71.59,1.1,2.64,3.02,2.57,1.93-.07,3.06-2.52,2.35-2.84Z"/></g></svg>