<?xml version="1.0" encoding="UTF-8"?>
<svg xmlns="http://www.w3.org/2000/svg" viewBox="0 0 25.16 21.88">
    <defs>
        <style>.cls-1{fill:#fff;stroke-width:0px;}</style>
    </defs>
    <g>
        <path class="cls-1" d="M17.32,13.49c-.26-.16-.49-.48-.77-.85-.7-.93-1.65-2.21-3.97-2.21s-3.28,1.28-3.97,2.21c-.28.37-.51.69-.77.85-2.17,1.35-3.22,2.95-3.22,4.9,0,1.76,1.73,3.49,3.49,3.49,1.91,0,2.75-.59,3.36-1.03.4-.28.66-.47,1.12-.47s.72.19,1.12.47c.61.43,1.45,1.03,3.36,1.03,1.76,0,3.49-1.73,3.49-3.49,0-1.95-1.05-3.55-3.22-4.9Z"/>
        <path class="cls-1" d="M5.51,10.96c-.61-2.29-2.26-3.78-3.74-3.38-.75.2-1.32.84-1.6,1.81-.25.88-.23,1.94.05,2.99.28,1.05.8,1.98,1.45,2.61.57.55,1.19.83,1.8.83.17,0,.33-.02.49-.06,1.48-.4,2.16-2.5,1.55-4.8Z"/>
        <path class="cls-1" d="M8.4,9.93c1.78,0,3.18-2.18,3.18-4.96S10.19,0,8.4,0s-3.18,2.18-3.18,4.96,1.4,4.96,3.18,4.96Z"/>
        <path class="cls-1" d="M16.75,9.93c1.78,0,3.18-2.18,3.18-4.96s-1.4-4.96-3.18-4.96-3.18,2.18-3.18,4.96,1.4,4.96,3.18,4.96Z"/>
        <path class="cls-1" d="M23.38,7.58c-.75-.2-1.57.07-2.29.77-.66.63-1.17,1.56-1.45,2.61-.28,1.05-.3,2.11-.05,2.99.28.97.84,1.61,1.6,1.81.16.04.33.06.49.06,1.34,0,2.7-1.4,3.25-3.44.61-2.29-.07-4.4-1.55-4.8Z"/>
    </g>
</svg>