<?xml version="1.0" encoding="UTF-8"?><svg id="Layer_2" xmlns="http://www.w3.org/2000/svg" viewBox="0 0 63 63"><defs><style>.cls-1{fill:#5289b1;}.cls-1,.cls-2{stroke-width:0px;}.cls-2{fill:#eef3f7;}</style></defs><g id="Design"><rect class="cls-1" x=".68" y="29.92" width="62.3" height="3.83" transform="translate(-13.19 31.69) rotate(-44.83)"/><path class="cls-2" d="M52.57,9.63l1.59,1.6L11.09,54.03l-1.59-1.6L52.57,9.63M52.57,7.4l-1.12,1.11L8.39,51.32l-1.12,1.11,1.11,1.12,1.59,1.6,1.11,1.12,1.12-1.11L55.27,12.34l1.12-1.11-1.11-1.12-1.59-1.6-1.11-1.12h0Z"/><path class="cls-1" d="M36.78,20.6c-.56-.78-1.24-1.41-2.03-1.9-.79-.49-1.77-.73-2.91-.73s-2.14.16-2.89.49c-.75.32-1.3.79-1.66,1.41-.35.62-.53,1.38-.53,2.3,0,1.12.34,2.04,1.02,2.76.68.72,1.56,1.34,2.65,1.85,1.09.52,2.25,1.01,3.49,1.48.79.29,1.65.68,2.56,1.15.91.47,1.77,1.05,2.56,1.74.79.69,1.44,1.55,1.94,2.56.5,1.02.75,2.23.75,3.64,0,1.74-.36,3.27-1.08,4.61-.72,1.34-1.77,2.38-3.16,3.11-1.38.74-3.11,1.1-5.17,1.1-1.68,0-3.24-.36-4.68-1.08-1.44-.72-2.7-1.71-3.77-2.98-1.07-1.27-1.94-2.75-2.58-4.46l3.18-1.9c.62,1.41,1.31,2.63,2.07,3.66.76,1.03,1.64,1.83,2.63,2.38.99.56,2.11.84,3.38.84,1.18,0,2.16-.2,2.94-.6.78-.4,1.37-.97,1.77-1.72.4-.75.6-1.64.6-2.67,0-1.32-.36-2.41-1.08-3.27-.72-.85-1.63-1.56-2.74-2.12-1.1-.56-2.24-1.04-3.42-1.46-.77-.26-1.6-.62-2.49-1.06-.9-.44-1.74-1.01-2.54-1.7-.79-.69-1.45-1.54-1.96-2.54-.52-1-.77-2.21-.77-3.62s.4-2.69,1.19-3.82c.79-1.13,1.87-2.03,3.22-2.69,1.35-.66,2.87-.99,4.55-.99s3.15.33,4.41.99c1.27.66,2.33,1.5,3.2,2.52.87,1.02,1.51,2.05,1.92,3.11l-3.05,2.03c-.44-.85-.94-1.67-1.5-2.45ZM33.55,9.63v6.62h-3.27v-6.62h3.27ZM33.55,43.62v7.06h-3.27v-7.06h3.27Z"/><path class="cls-1" d="M31.5,63C14.13,63,0,48.87,0,31.5S14.13,0,31.5,0s31.5,14.13,31.5,31.5-14.13,31.5-31.5,31.5ZM31.5,2.25C15.37,2.25,2.25,15.37,2.25,31.5s13.12,29.25,29.25,29.25,29.25-13.12,29.25-29.25S47.63,2.25,31.5,2.25Z"/></g></svg>