<?xml version="1.0" encoding="UTF-8"?><svg id="Layer_2" xmlns="http://www.w3.org/2000/svg" viewBox="0 0 74.58 60.79"><defs><style>.cls-1{stroke-linecap:round;}.cls-1,.cls-2{fill:none;stroke:#5289b1;stroke-linejoin:round;stroke-width:1.8px;}</style></defs><g id="Design"><circle class="cls-2" cx="11.62" cy="9.75" r="8.85"/><path class="cls-1" d="M21.94,59.89s-.18,0-.1-7.98"/><path class="cls-1" d="M.9,24.24c.79-.3,1.54-.52,2.22-.66,4.25-.87,7.48-.87,13.51,0,6.03.87,11.44,4.95,11.7,11.23l.44,10.64,10.66,1.5c2.11.37,3.53,2.27,3.16,4.4h0c-.01.06-.02.12-.04.18-.39,1.75-2.09,2.9-3.87,2.68l-14.42-1.96c-2.61-.35-4.58-2.54-4.68-5.17l-.45-12.49"/><path class="cls-1" d="M25.96,23.05v-14.43c0-2.62,2.13-4.75,4.75-4.75h38.23c2.62,0,4.75,2.13,4.75,4.75v26.56c0,2.62-2.13,4.75-4.75,4.75h-36.33"/><line class="cls-1" x1="31.64" y1="33.81" x2="73.65" y2="33.81"/><rect class="cls-1" x="45.95" y="39.99" width="7.73" height="7.03"/><line class="cls-1" x1="40.57" y1="47.17" x2="73.68" y2="47.17"/><path class="cls-1" d="M53.26,26.81c0,.36.29.66.66.66s.66-.29.66-.66-.29-.66-.66-.66-.66.29-.66.66Z"/><path class="cls-1" d="M45.4,26.81c0,.36.29.66.66.66s.66-.29.66-.66-.29-.66-.66-.66-.66.29-.66.66Z"/><path class="cls-1" d="M38.29,11.42h2.22c.16,0,.3.11.33.26l2.82,11.02c.12.47.54.8,1.03.8h.7s10.13,0,10.13,0c.47,0,.88-.33.97-.78l1.32-6.71c.06-.25-.14-.49-.4-.49h-15.61"/></g></svg>