<?xml version="1.0" encoding="UTF-8"?><svg id="Layer_2" xmlns="http://www.w3.org/2000/svg" viewBox="0 0 74.37 57.52"><defs><style>.cls-1{fill:#5289b1;stroke-width:0px;}</style></defs><g id="Design"><path class="cls-1" d="M70.09,57.52H4.28c-2.36,0-4.28-1.92-4.28-4.28V4.28C0,1.92,1.92,0,4.28,0h65.81c2.36,0,4.28,1.92,4.28,4.28v48.97c0,2.36-1.92,4.28-4.28,4.28ZM4.28,1.74c-1.4,0-2.53,1.14-2.53,2.53v48.97c0,1.4,1.14,2.53,2.53,2.53h65.81c1.4,0,2.53-1.14,2.53-2.53V4.28c0-1.4-1.14-2.53-2.53-2.53H4.28Z"/><rect class="cls-1" x="0" y="9.88" width="73.2" height="1.74"/><path class="cls-1" d="M7.06,8.08c-1.45,0-2.63-1.18-2.63-2.63s1.18-2.63,2.63-2.63,2.63,1.18,2.63,2.63-1.18,2.63-2.63,2.63ZM7.06,4.55c-.49,0-.89.4-.89.89s.4.89.89.89.89-.4.89-.89-.4-.89-.89-.89Z"/><path class="cls-1" d="M14.74,8.08c-1.45,0-2.63-1.18-2.63-2.63s1.18-2.63,2.63-2.63,2.63,1.18,2.63,2.63-1.18,2.63-2.63,2.63ZM14.74,4.55c-.49,0-.89.4-.89.89s.4.89.89.89.89-.4.89-.89-.4-.89-.89-.89Z"/><path class="cls-1" d="M22.42,8.08c-1.45,0-2.63-1.18-2.63-2.63s1.18-2.63,2.63-2.63,2.63,1.18,2.63,2.63-1.18,2.63-2.63,2.63ZM22.42,4.55c-.49,0-.89.4-.89.89s.4.89.89.89.89-.4.89-.89-.4-.89-.89-.89Z"/><rect class="cls-1" x="11.43" y="34.98" width="13.12" height="1.74" transform="translate(-22.1 37.38) rotate(-65.54)"/><rect class="cls-1" x="26.66" y="27.31" width="1.74" height="8.93" transform="translate(-14.36 35.29) rotate(-53.89)"/><rect class="cls-1" x="31.51" y="27.71" width="11.55" height="1.74" transform="translate(-5.24 48.54) rotate(-62.62)"/><rect class="cls-1" x="45.42" y="22.62" width="1.74" height="17.29" transform="translate(-8.97 23.09) rotate(-25.62)"/><rect class="cls-1" x="51.99" y="36.33" width="6.89" height="1.74" transform="translate(-9.99 50.5) rotate(-45.36)"/><path class="cls-1" d="M14.17,47.91c-1.99,0-3.61-1.62-3.61-3.61s1.62-3.61,3.61-3.61,3.61,1.62,3.61,3.61-1.62,3.61-3.61,3.61ZM14.17,42.44c-1.03,0-1.86.84-1.86,1.86s.84,1.86,1.86,1.86,1.86-.84,1.86-1.86-.84-1.86-1.86-1.86Z"/><path class="cls-1" d="M21.83,31.01c-1.99,0-3.61-1.62-3.61-3.61s1.62-3.61,3.61-3.61,3.61,1.62,3.61,3.61-1.62,3.61-3.61,3.61ZM21.83,25.54c-1.03,0-1.86.84-1.86,1.86s.84,1.86,1.86,1.86,1.86-.84,1.86-1.86-.84-1.86-1.86-1.86Z"/><path class="cls-1" d="M33.28,39.71c-1.99,0-3.61-1.62-3.61-3.61s1.62-3.61,3.61-3.61,3.61,1.62,3.61,3.61-1.62,3.61-3.61,3.61ZM33.28,34.24c-1.03,0-1.86.84-1.86,1.86s.84,1.86,1.86,1.86,1.86-.84,1.86-1.86-.84-1.86-1.86-1.86Z"/><path class="cls-1" d="M41.28,24.66c-1.99,0-3.61-1.62-3.61-3.61s1.62-3.61,3.61-3.61,3.61,1.62,3.61,3.61-1.62,3.61-3.61,3.61ZM41.28,19.19c-1.03,0-1.86.84-1.86,1.86s.84,1.86,1.86,1.86,1.86-.84,1.86-1.86-.84-1.86-1.86-1.86Z"/><path class="cls-1" d="M59.66,36.53c-1.99,0-3.61-1.62-3.61-3.61s1.62-3.61,3.61-3.61,3.61,1.62,3.61,3.61-1.62,3.61-3.61,3.61ZM59.66,31.06c-1.03,0-1.86.84-1.86,1.86s.84,1.86,1.86,1.86,1.86-.84,1.86-1.86-.84-1.86-1.86-1.86Z"/><path class="cls-1" d="M51.21,45.08c-1.99,0-3.61-1.62-3.61-3.61s1.62-3.61,3.61-3.61,3.61,1.62,3.61,3.61-1.62,3.61-3.61,3.61ZM51.21,39.61c-1.03,0-1.86.84-1.86,1.86s.84,1.86,1.86,1.86,1.86-.84,1.86-1.86-.84-1.86-1.86-1.86Z"/></g></svg>