<?xml version="1.0" encoding="UTF-8"?><svg id="Layer_2" xmlns="http://www.w3.org/2000/svg" viewBox="0 0 90 90"><defs><style>.cls-1{fill:#5289b1;fill-rule:evenodd;}.cls-1,.cls-2,.cls-3{stroke-width:0px;}.cls-2{fill:#fff;}.cls-3{fill:red;}</style></defs><g id="Overlay"><path class="cls-1" d="M41.14,40.43l8.71-5.05s18.64,32,19.45,34.39c.01,0-.02,3.71-3.66,2.95-3.82-3.67-24.5-32.29-24.5-32.29h0ZM26.62,30.97c.06-.55-.15-1.04-.58-1.32-2.35-1.68-6.21-4.18-7.93-4.38-2.57-.3-4.86,1.58-5.15,4.12-.29,2.49,1.52,4.81,4.08,5.11,1.72.2,5.98-1.39,8.72-2.44.49-.21.81-.64.86-1.09h0ZM24.65,15.42s9.61,1.37,7.34,9.84c-2.3,8.58,7.55,13.29,7.55,13.29l10.48-5.99c-3.23-20.53-25.37-17.16-25.37-17.16v.02Z"/><rect class="cls-3" x=".97" y="42.74" width="89" height="5.47" transform="translate(-18.84 45.27) rotate(-44.83)"/><path class="cls-2" d="M75.09,13.75l2.27,2.28L15.84,77.19l-2.27-2.28L75.09,13.75M75.1,10.57l-1.6,1.59L11.98,73.31l-1.6,1.59,1.59,1.6,2.27,2.28,1.59,1.59,1.6-1.59,61.52-61.15,1.6-1.59-1.59-1.6-2.27-2.28-1.59-1.6h0Z"/><path class="cls-3" d="M45,90C20.19,90,0,69.81,0,45S20.19,0,45,0s45,20.19,45,45-20.19,45-45,45ZM45,3.22C21.96,3.22,3.22,21.96,3.22,45s18.74,41.78,41.78,41.78,41.78-18.74,41.78-41.78S68.04,3.22,45,3.22Z"/></g></svg>