<?xml version="1.0" encoding="UTF-8"?><svg id="Layer_2" xmlns="http://www.w3.org/2000/svg" viewBox="0 0 90 90"><defs><style>.cls-1{fill:#5289b1;}.cls-1,.cls-2,.cls-3{stroke-width:0px;}.cls-2{fill:#fff;}.cls-3{fill:red;}</style></defs><g id="Overlay"><circle class="cls-1" cx="45" cy="23.06" r="3.04"/><circle class="cls-1" cx="36.53" cy="30.34" r="3.04" transform="translate(-4.39 6.24) rotate(-9.22)"/><circle class="cls-1" cx="38.14" cy="38.54" r="3.04"/><circle class="cls-1" cx="30.44" cy="38.54" r="3.04"/><circle class="cls-1" cx="36.53" cy="46.21" r="3.04" transform="translate(-6.93 6.45) rotate(-9.22)"/><circle class="cls-1" cx="52.88" cy="46.21" r="3.04" transform="translate(-6.72 9.07) rotate(-9.22)"/><circle class="cls-1" cx="65.13" cy="46.21" r="3.04" transform="translate(-6.56 11.03) rotate(-9.22)"/><circle class="cls-1" cx="24.9" cy="46.21" r="3.04" transform="translate(-7.08 4.59) rotate(-9.22)"/><circle class="cls-1" cx="45" cy="51.04" r="3.04"/><circle class="cls-1" cx="59.56" cy="51.64" r="3.04"/><circle class="cls-1" cx="30.44" cy="51.64" r="3.04"/><path class="cls-1" d="M70.8,56.8c-.52.93-1.48,1.59-2.62,1.59s-2.1-.66-2.62-1.59h-10.95c-.31,1.35-1.46,2.38-2.91,2.38s-2.6-1.03-2.91-2.38h-7.74c-.31,1.35-1.46,2.38-2.91,2.38s-2.6-1.03-2.91-2.38h-10.74c-.52.93-1.48,1.59-2.62,1.59s-2.1-.66-2.62-1.59h-5.05l3.45,9.06c.95,2.49,3.33,4.13,5.99,4.13h42.24c2.55,0,4.86-1.51,5.88-3.85l4.07-9.33h-5.02Z"/><path class="cls-1" d="M24.9,55.35c0-1.68-1.36-3.04-3.04-3.04s-3.04,1.36-3.04,3.04c0,.54.18,1.02.42,1.46h5.24c.24-.44.42-.92.42-1.46Z"/><path class="cls-1" d="M71.22,55.35c0-1.68-1.36-3.04-3.04-3.04s-3.04,1.36-3.04,3.04c0,.54.18,1.02.42,1.46h5.24c.24-.44.42-.92.42-1.46Z"/><path class="cls-1" d="M41.18,56.14c0-1.68-1.36-3.04-3.04-3.04s-3.04,1.36-3.04,3.04c0,.23.08.44.13.66h5.82c.05-.22.13-.43.13-.66Z"/><path class="cls-1" d="M54.73,56.14c0-1.68-1.36-3.04-3.04-3.04s-3.04,1.36-3.04,3.04c0,.23.08.44.13.66h5.82c.05-.22.13-.43.13-.66Z"/><circle class="cls-1" cx="59.56" cy="38.54" r="3.04"/><circle class="cls-1" cx="51.69" cy="38.54" r="3.04"/><circle class="cls-1" cx="45" cy="32.45" r="3.04"/><circle class="cls-1" cx="45" cy="42.25" r="3.04"/><circle class="cls-1" cx="52.88" cy="30.34" r="3.04" transform="translate(-4.18 8.86) rotate(-9.22)"/><rect class="cls-3" x=".97" y="42.74" width="89" height="5.47" transform="translate(-18.84 45.27) rotate(-44.83)"/><path class="cls-2" d="M75.09,13.75l2.27,2.28L15.84,77.19l-2.27-2.28L75.09,13.75M75.1,10.57l-1.6,1.59L11.98,73.31l-1.6,1.59,1.59,1.6,2.27,2.28,1.59,1.59,1.6-1.59,61.52-61.15,1.6-1.59-1.59-1.6-2.27-2.28-1.59-1.59h0Z"/><path class="cls-3" d="M45,90C20.19,90,0,69.81,0,45S20.19,0,45,0s45,20.19,45,45-20.19,45-45,45ZM45,3.22C21.96,3.22,3.22,21.96,3.22,45s18.74,41.78,41.78,41.78,41.78-18.74,41.78-41.78S68.04,3.22,45,3.22Z"/></g></svg>