<?xml version="1.0" encoding="UTF-8"?><svg id="Layer_2" xmlns="http://www.w3.org/2000/svg" xmlns:xlink="http://www.w3.org/1999/xlink" viewBox="0 0 2399.98 682.34"><defs><style>.cls-1{clip-path:url(#clippath);}.cls-2{fill:none;}.cls-2,.cls-3{stroke-width:0px;}.cls-4{opacity:.15;}.cls-3{fill:#fff;}</style><clipPath id="clippath"><rect class="cls-2" width="2399.98" height="682.34"/></clipPath></defs><g id="Design"><g class="cls-1"><g class="cls-4"><path class="cls-3" d="M1682.62,33.53c3.19,11.59,1.53,22.56-3.27,33.1-1.39,3.06-3.05,6-4.68,8.95-3.04,5.5-5.75,11.26-9.35,16.38-4.13,5.86-8.6,11.65-13.78,16.57-9.1,8.65-17.15,17.53-21.1,30.02-3.43,10.85-11.16,18.04-23.29,19.31-1.22.13-2.31,1.82-3.39,2.85-7.41,7.07-13.78,16-22.44,20.78-10.64,5.86-22.33,12.07-35.67,8.89-8.66-2.06-17.03-4.54-20.48-14.37-.68-1.93-3.24-4.4-5.07-4.53-10.5-.72-13.96-8.6-17.78-16.32-.85-1.72-1.6-3.87-3.05-4.85-10.51-7.12-14.4-17.74-15.42-29.58-.72-8.32-1.05-16.8-.27-25.09.49-5.18,3.44-10.11,5.16-15.2,4.33-12.85,12.42-23.38,19.76-34.58,12.17-18.55,32.03-21.4,50.22-27.34,18.59-6.08,37.8-10.29,56.83-14.97,7-1.72,14.29-2.21,21.34-3.74,5.21-1.13,10.19-3.99,15.38-4.26,4.25-.22,9.5,1.16,12.77,3.76,4.43,3.52,8.33,4.22,13.55,3.04,33.86-7.64,68.16-11.63,102.88-11.91,2.06-.02,4.13.96,6.19,1.48-.91,1.94-1.5,4.14-2.81,5.76-3.08,3.81-6.35,7.51-9.82,10.97-6.3,6.29-14.8,6.08-22.8,7.2-23.49,3.29-46.83,7.13-69.61,17.7ZM1651.98,2.71c-8.31-3.22-11.83,3.01-16.31,8.16,1.02,1.08,1.81,2.11,2.79,2.92,5.89,4.88,7.76,9.68,2.3,16.7-2.54,3.27-2.75,8.36,3.39,11.01,3.6,1.56,6.29,5.21,9.88,8.34-2.78,1.87-4.54,3.05-6.3,4.23.02.63.04,1.27.06,1.9,3.73.45,7.46.9,11.18,1.36-2.77-3.68-1.55-8.19,3.08-10.08-2.35-.8-4.23-1.43-6.78-2.29,1.94-.77,3-1.19,4.7-1.87-1.85-.73-2.94-1.15-4.03-1.58.26-.55.51-1.11.77-1.66,2.42,1.27,5.78,1.97,7.02,3.97,1.32,2.13.65,5.5.85,8.33,1.23-2.07,1.33-4.19,1.61-6.28.22-1.61.65-3.2.99-4.8,2.48.81,5.15,1.29,7.39,2.54,1.35.75,3.19,3.47,2.86,3.96-2.54,3.7-1.3,8.15-2.74,11.9-1.85,4.82-2.09,11.04-9.22,12.38,2.92,5.08,6.09,3.56,7.83-.21,4.13-8.96,8.75-17.88,7.49-28.37-.75-6.25-4.5-8.91-10.5-7.54,2.77,1.7,5.95,3.66,9.69,5.95-10.34-1.56-19.56-2.95-29.06-4.38,4.87-.67,9.87-1.35,16.33-2.24-5.48-.73-9.71-1.29-13.95-1.86.02-.4.04-.81.06-1.21h22.29c-9.64-2.26-19.26-3.91-29.16-.26,3.53-1.79,7.05-3.57,10.58-5.36-.12-.34-.25-.68-.37-1.02-4.09,1.35-8.19,2.71-12.28,4.06-.18-.47-.36-.94-.54-1.41,4.81-1.96,9.61-3.93,13.9-5.68-2.76-1.33-5.73-2.76-8.91-4.29,1.3-.98,2.66-2,5.23-3.94-3.53.5-5.37.76-8.43,1.2,2.37-1.93,3.68-3,4.99-4.07l-.6-.94c-2.5.82-4.99,1.64-7.49,2.46-.14-.39-.29-.78-.43-1.17,3.22-1.65,6.44-3.29,9.66-4.94,3.75.47,7.49.95,12.59,1.59-3.1,2.84-5.28,4.85-6,5.51,2.35,2.47,5.23,5.5,7.5,7.89.33-4.55,1.08-10.36.94-16.15-.04-1.5-2.8-4.06-4.45-4.17-3.42-.23-6.93.84-10.41,1.38ZM1534.72,171.2l-.2-.19c.83,3.14,1.65,6.28,2.48,9.42-.4.28-.79.56-1.19.84-1.36-1.93-2.72-3.86-4.76-6.77.32,8.75,12.36,14.26,24.48,12.79-.53-.86-1.06-1.73-1.73-2.81,14.66,2.21,26.18-2.29,35.82-12.68,3.86-4.16,3.69-8.25,1.55-12.82-.86-1.83-1.88-3.58-2.83-5.36-.24.08-.49.15-.73.23.52,4.02,1.04,8.04,1.56,12.06-.44.13-.88.26-1.32.39-1.49-3.13-2.98-6.25-4.47-9.38-.34.14-.69.27-1.03.41.85,4.48,1.7,8.95,2.54,13.43-.34.15-.68.3-1.03.44-2.21-3.59-4.42-7.19-6.64-10.78-.48.21-.97.42-1.45.63,1.33,4.55,2.67,9.09,4,13.64-.5.19-1.01.37-1.51.56-2.1-3.61-4.2-7.21-6.3-10.82l-.79.45,1.86,12.43c-.46.12-.92.23-1.38.35-1.84-3.79-3.68-7.59-5.52-11.38-.29.1-.58.21-.87.31.73,4.13,1.46,8.27,2.19,12.4-.41.13-.82.27-1.23.4-1.71-3.54-3.42-7.08-5.14-10.63-.33.15-.65.31-.98.46.77,4.11,1.53,8.21,2.3,12.32-.58.15-1.15.3-1.73.45-1.62-3.69-3.25-7.38-4.87-11.07l-.67.14c.43,3.55.87,7.11,1.3,10.66-.56.17-1.12.34-1.68.52-1.48-4-4.83-8.56-3.86-11.84.81-2.75,6.74-3.87,10.28-5.94,8.29-4.84,16.5-9.82,24.75-14.74,1.53-.91,3.11-1.76,4.66-2.64.95,1.84,2.34,3.58,2.77,5.53,1.01,4.64,1.56,9.37,2.59,15.92,2.37-7.26,10.84-10.59,6.12-19.86-.52,2.24-.81,3.48-1.1,4.72-.71-.14-1.42-.27-2.13-.41.67-4.65-.11-10.3,2.28-13.75,6.78-9.78,14.86-18.66,22.54-28.03-5.89-.37-8.1,6.06-12.57,8.6,4.99-4.65,9.7-9.66,15.07-13.83,5.12-3.98,12-6.19,12.3-15.87-4.47,4.75-7.99,8.48-11.5,12.22-.24-.22-.48-.43-.72-.65,1.36-2.41,2.72-4.82,4.09-7.23-.34-.3-.67-.59-1.01-.89-2.33,2.22-4.66,4.45-7.21,6.87,1.24-3.85,2.26-7.03,3.28-10.21-.65-.26-1.31-.51-1.96-.77-4.54,2.87-9.08,5.74-13.89,8.79,1.86-3.55,3.67-7,5.47-10.44-.26-.16-.53-.32-.79-.48-2.08,2.53-4.17,5.05-7.54,9.14,1.47-4.21,2.29-6.58,3.11-8.94-.31-.17-.61-.34-.92-.51-2.63,3.09-5.27,6.17-7.9,9.26-.28-.17-.56-.34-.85-.51,1.89-3.57,3.78-7.15,5.67-10.72-.27-.14-.54-.28-.81-.43-1.79,2.11-3.58,4.23-5.37,6.34-.3-.16-.59-.33-.89-.49.86-2.3,1.71-4.61,2.57-6.91-6.72,5.66-12.59,11.86-18.49,18.02-.18.19-.73.02-1.67.02,3.73-5.98,7.28-11.67,10.84-17.36,6.88-10.99,16.44-12.47,26.28-4.15.81.69,2.17.77,2.9,1.5,6.05,6.13,18.11-2.55,20.71,8.34,4.9-6.3,9.63-12.37,14.57-18.71-4.25-.2,1.6-9.01-6.14-8.69-3.4.14-6.86-1.03-10.67-1.66,2.94-4.09,6.11-8.52,9.29-12.94-.14-.2-.29-.41-.43-.61-2.27,1.82-4.55,3.64-7.88,6.31.99-2.68,1.52-4.14,2.38-6.45-2.45,1.79-3.95,2.9-6.79,4.97,1.73-3.6,2.74-5.72,4.08-8.5-1.88.73-2.95,1.15-4.34,1.69.4-2.11.71-3.77,1.07-5.62-1.53.45-2.63.77-4.42,1.3,1.64-3.5,2.93-6.27,4.51-9.65-1.66.88-2.72,1.45-4.7,2.51,1.53-2.75,2.45-4.39,3.37-6.03-.25-.19-.49-.38-.74-.57-1.33,1.13-2.66,2.26-3.99,3.38-.21-.17-.41-.35-.62-.52,1.64-2.94,3.29-5.88,4.93-8.82-.77-.65-1.54-1.29-2.3-1.94-2.18,2.82-4.37,5.63-6.55,8.45-.15-.16-.3-.33-.45-.49,3.17-4.18,6.34-8.37,9.5-12.55-.32-.29-.63-.58-.95-.87-2.29,1.98-4.59,3.97-6.88,5.95-.14-.19-.27-.39-.41-.58,1.71-2.54,3.42-5.08,5.12-7.62-.33-.25-.67-.5-1-.75-3.76,3.34-7.52,6.67-11.27,10.01-.23-.21-.46-.42-.69-.64,3.38-4.41,6.75-8.83,10.13-13.24-.29-.23-.58-.46-.86-.69-4.24,4.05-8.48,8.11-12.71,12.16-.25-.25-.49-.5-.74-.75,2.3-2.89,4.59-5.77,6.89-8.66-.6-.6-1.21-1.19-1.81-1.79-2.7,3.59-5.39,7.19-8.09,10.78-.42-.41-.84-.83-1.26-1.24,1.31-1.81,2.62-3.62,3.94-5.43-.25-.23-.5-.46-.75-.68-2.63,2.21-5.27,4.43-7.9,6.64-.19-.25-.37-.5-.56-.75,1.85-2.65,3.7-5.29,5.55-7.94-.39-.33-.79-.65-1.18-.98-3.83,4.02-7.65,8.04-11.48,12.06-.31-.25-.61-.51-.92-.76,2.22-3.28,4.45-6.56,6.67-9.84-.92-.79-1.85-1.58-2.77-2.37-2.85,4.02-5.7,8.03-8.55,12.05-.35-.34-.7-.68-1.05-1.02,1.29-2.12,2.57-4.25,3.86-6.37l-1.3-1.03c-4.12,4.48-8.24,8.95-12.35,13.43l-.74-.53c2.22-3.45,4.44-6.91,6.66-10.36-.55-.43-1.09-.86-1.64-1.29-2.88,3.27-5.77,6.55-8.65,9.82-.22-.15-.44-.31-.67-.46.88-1.82,1.76-3.65,2.65-5.47-.35-.23-.7-.46-1.04-.68-4.74,5.11-9.48,10.21-14.21,15.32-.27-.25-.55-.51-.82-.76,2.34-3.31,4.69-6.61,7.03-9.92-.51-.46-1.02-.91-1.53-1.37-4.18,4.91-8.36,9.82-12.54,14.73-.49-.45-.99-.9-1.48-1.35,2.67-3.54,5.33-7.09,8-10.63-.44-.37-.88-.73-1.32-1.1-4.64,5.02-9.28,10.04-13.93,15.07-.27-.23-.54-.46-.81-.69,2.6-3.98,5.2-7.95,7.8-11.93-.54-.44-1.08-.87-1.62-1.31-4.97,6.35-9.94,12.69-14.91,19.04-.31-.24-.62-.47-.93-.71,2.9-4.54,5.79-9.09,8.69-13.63-.46-.35-.93-.71-1.39-1.06-3.05,3.24-6.11,6.48-10.21,10.82,1.22-3.18,1.9-4.93,2.22-5.76-14.55,2.12-24.14,10.82-29.78,23.63,2.02.34,4.31.26,6.16,1.13,8.99,4.23,17.71,3.23,26.95.42,4.27-1.3,9.4.23,15.97.57-7.6,10.36-13.8,18.83-20,27.29-.36-.24-.73-.48-1.09-.71,3.18-5.84,6.35-11.69,9.53-17.53-.43-.25-.86-.49-1.29-.74-3.36,3.96-6.72,7.92-10.08,11.89-.3-.22-.6-.45-.89-.67,3.2-5.22,6.4-10.44,9.6-15.66-.39-.25-.79-.51-1.18-.76-6.8,9.36-13.61,18.73-20.41,28.09-.24-.18-.48-.36-.72-.54,2.05-4,4.11-8.01,6.16-12.01-.41-.23-.82-.46-1.24-.69-3,3.98-6.01,7.96-9.01,11.94-.35-.23-.71-.45-1.06-.68,3.54-6.78,7.08-13.56,10.62-20.34-.22-.13-.43-.26-.65-.38-4.91,6.14-9.82,12.29-14.73,18.43-.27-.12-.55-.24-.82-.35,1.94-4.01,3.88-8.02,5.82-12.03-.3-.15-.6-.3-.91-.45-3.51,4.87-7.01,9.74-10.52,14.61-.3-.16-.6-.32-.91-.47,1.79-4.12,3.58-8.24,5.37-12.35-.34-.16-.68-.32-1.02-.48-5.12,8.66-10.24,17.32-15.36,25.98,4-9.39,8-18.78,12.01-28.17-3.36,4.34-6.11,9.02-8.73,13.77-2.95,5.36-7.52,10.57-8.25,16.24-1.12,8.74.15,17.85.94,26.75.75,8.48,5.14,15.14,11.51,20.76,3,2.65,5.25,6.14,7.42,8.75,1.62-.18,4.09-1.27,5.33-.46,8.01,5.2,18.51,7.05,23.2,16.8ZM1679.13,18.28c.09.24.18.48.26.72,9.73-2.85,19.46-5.71,29.19-8.56.12.44.25.88.37,1.32-9.04,3-18.07,6-27.11,8.99,11.29-1.32,22.32-3.43,33.31-5.73,6.87-1.44,13.68-3.15,20.52-4.74.07.33.13.66.2.98-13.19,3.88-26.37,7.76-39.56,11.64.08.22.15.45.23.67,20.32-4.64,40.63-9.27,60.95-13.91l-.03-.58h-10.16c2.42-1.07,4.15-1.83,5.87-2.58-.11-.3-.22-.59-.33-.89-4.74.62-9.47,1.24-12.54,1.64,10.23-3.59,21.98-7.71,33.72-11.83-15.48-3.68-98.07,6.99-97.3,10.78,1.26.34,2.52.68,4.13,1.11-3.83,1.38-7.1,2.55-9.94,3.57,4.62,1.51,9.01,2.94,13.91,4.54-2.35,1.17-4.02,2.01-5.69,2.85ZM1614.3,131.97l-1.2.15c.64,5.03,1.28,10.06,1.92,15.08-.33.14-.67.27-1,.41-1.26-2.42-2.53-4.84-4.44-8.5v11.89c-1.09-1.53-1.55-2.21-2.05-2.87-.48-.64-1.01-1.25-1.91-2.37.2,8.78,1.88,10.7,6.68,8.71,9.65-4.01,15.5-11.73,17.85-21.26,2.5-10.14,8.4-17.28,16-23.52,10.09-8.28,17.97-17.97,21.62-32.1-3.09,2.7-5.28,4.61-6.8,5.94-.54-.68-1.34-1.68-3.22-4.04-.26,5.5-.41,8.52-.56,11.53-.29.04-.57.07-.86.11-.87-3.11-1.73-6.22-2.6-9.33-.26.08-.52.16-.78.24v13.12l-.79.28c-1.14-2.73-2.28-5.46-3.43-8.2-.26.07-.51.13-.77.2.37,4.02.75,8.03,1.12,12.05-.39.06-.79.11-1.18.17-.91-1.59-1.81-3.19-3.76-6.62v10.47c-.31.01-.61.03-.92.04-.71-2.33-1.41-4.65-2.12-6.98-.38.09-.76.17-1.13.26.36,4.1.72,8.2,1.08,12.3-.48.11-.95.21-1.43.32-.8-2.56-1.6-5.12-2.4-7.68-.38.08-.75.17-1.13.25v11.5c-.34.04-.67.07-1.01.11-.74-2.69-1.48-5.38-2.22-8.07-.39.09-.78.18-1.17.27.3,4.4.59,8.81.89,13.21-.43.04-.86.08-1.28.11-.66-1.1-1.32-2.2-2.72-4.52v11.34c-.3.08-.61.16-.91.24-.76-1.78-1.53-3.57-2.29-5.35-.28.08-.57.15-.85.23v8.32c-1.01-1.23-1.58-1.94-3.33-4.09.64,5.29,1.08,8.9,1.52,12.51-.25.07-.5.15-.74.22-1.42-4.07-2.84-8.14-4.25-12.21l-.92.23c.82,5.16,1.64,10.33,2.46,15.49-.38.06-.75.12-1.13.19-1.29-3.26-2.57-6.53-3.86-9.79ZM1670.01,43.73c-.27,2.61-.58,4.23-.58,5.85,0,6.07-4.57,14.61-7.84,13.42-3.23-1.18-4.15.32-3.65,1.69.51,1.41,3.28,2.92,4.92,2.78,2-.16,4.21-1.66,5.7-3.19,4.24-4.35,4.98-13.22,1.44-20.55ZM1762.95,9.74c3.97,4.16,11.63-.58,16.64-13.47-5.44,4.41-10.89,8.82-16.64,13.47Z"/><path class="cls-3" d="M1745.37,93.09c1.08,2.54,2.16,5.09,3.68,8.67,2.27-5.65,4.25-10.57,6.91-17.19v10.73c.36.33.72.65,1.08.98,3.5-5.21,7-10.41,10.54-15.67.09,1.25.2,2.86.36,5.08,1.61-.1,3.27-.2,6.33-.38-2.7,2.12-4.36,3.42-6.4,5.03,1.19.97,2.29,1.86,3.31,2.69-4.7,1.2-9.61,2.46-14.53,3.72.14.64.28,1.28.41,1.92,1.32.62,2.65,1.24,4.42,2.06-4.11,1.41-7.59,2.61-12.31,4.23,3.26,1.2,5.36,1.97,7.46,2.75-.04.37-.07.74-.11,1.1h-12.28c2.15,2.5,3.72,4.33,5.48,6.39-3.66-.48-7.09-.93-10.51-1.38-.09.7-.17,1.4-.26,2.11,1.92,1.65,3.84,3.31,5.99,5.17-4.83,2.07-9.83-6.1-14.22,1.77,3.17.97,5.84,1.79,9.82,3.01-3.37.75-5.53,1.41-7.74,1.68-2.24.27-4.7-.36-6.75.33-2.15.73-3.91,2.58-6.42,4.34,2.91,1.15,4.91,1.94,8.63,3.4-4.78,1.19-7.96,1.99-12.03,3,2.5,1.3,4.1,2.14,6.61,3.45-7.07,1.94-15.05-1.21-18.87,6.94,1.89,1.12,3.89,2.31,7.34,4.35-5.17.35-8.8.59-12.05.81,1.94,3.81,3.88,7.63,5.84,11.47,1.04-2,2.52-4.84,4.79-9.2v7.71q4.32-.48,3.94-11.63c2.08,2.56,3.75,4.62,6.44,7.94.64-4.84,1.03-7.81,1.42-10.78l1.4-.19c.43,2.16.85,4.32,1.28,6.48q2.92-.31,6.78-12.17c1.79,2.79,3.14,4.89,4.99,7.79,1.76-3.04,3.98-6.85,6.82-11.76.17,2.84.28,4.62.37,6.06,9.6,2.49,8.4-7.62,13.33-11.67v6.61c1.86-.58,3.68-1.15,5.29-1.65v7.95c-4.68.56-10.13,1.22-16.57,1.99,1.77,2.2,3,3.72,4.11,5.1-4.34-.4-8.6-.79-12.87-1.18-.15.69-.3,1.38-.45,2.06,1.78,1.49,3.55,2.99,6.74,5.67-5.88-1.43-10.05-2.44-14.22-3.46l-.57,1.95c1.33,1.02,2.66,2.04,4.86,3.73h-14.75c3.64,2.2,5.78,3.49,8.74,5.27-6.66,1.65-13.45-5.53-18.25,2.85,1.75,1.12,3.71,2.38,5.7,3.66q-1.88,2.38-16.59.88c.97,2.31,2.01,4.79,3.42,8.16-4.95-1.39-8.43-2.37-11.91-3.35-.19.38-.37.75-.56,1.13,1.8,2.1,3.59,4.2,4.62,5.39-2.92,1.89-5.42,3.51-8.5,5.51-1.19-1.46-3.11-3.8-5.16-6.31-2.14.96-4.08,1.83-5.73,2.56,1.17,3.07,2.27,5.94,3.87,10.16-5.66-2.31-9.38-3.82-14.66-5.98,1.39,3.04,1.89,4.14,2.36,5.16-4.29,2.74-9.96-4.98-13.46,2.5,2.54.66,4.96,1.29,8.88,2.31-8.07,2.33-14.58,4.21-19.97,5.77.39-3.82.96-9.46,1.56-15.36,1.04,1.71,2.3,3.8,3.56,5.89.56-.07,1.12-.15,1.68-.22-1.19-6.24-2.38-12.48-3.57-18.72l.71-.8c.88,1.77,1.76,3.54,2.64,5.31.45-.4.89-.79,1.34-1.19.14-2.23.29-4.45.47-7.29,1.37,1.12,2.3,1.89,4.51,3.7-1.69-5.28-2.95-9.2-4.46-13.92,1.39.56,2.33.95,3.64,1.48-.1-1.81-.2-3.62-.31-5.43.76-.68,1.53-1.37,2.29-2.05,1.16,1.91,2.32,3.81,3.49,5.72.25-.05.49-.09.74-.14-1.01-3.22-2.03-6.43-3.3-10.47,1.37.66,2.34,1.13,3.28,1.58.54-4.51,1.09-9.15,1.77-14.88,2.84,2.41,4.48,3.8,6.12,5.19.6-.24,1.21-.47,1.81-.71-1.27-5.3-2.54-10.59-3.8-15.81.27.1,1.49.56,2.94,1.1-.45-2.12-.84-3.98-1.24-5.85.39-.19.77-.39,1.16-.58,1.64,2.64,3.28,5.27,5.01,8.06.61-2.82,1.12-5.22,1.91-8.9-.81-1.01-2.73-3.42-5.86-7.34,2.97.87,4.18,1.22,5.65,1.65-.28-1.55-.55-2.99-.9-4.92,1.86,1.01,3.15,1.72,4.45,2.42.39-.26.79-.52,1.18-.78-1.96-3.52-3.92-7.05-6.08-10.94h8.83c-.99-4.19-1.87-7.94-2.98-12.65,1.86,1.66,3.07,2.73,4.48,3.98.73-2.12,1.35-3.92,2.03-5.9,6.61,6.07-2.2,9.03-2.06,13.71,1.72,1.3,3.56,2.7,4.89,3.7-2.54,2.88-4.91,5.56-7.29,8.24,1.02.33,2.04.66,3.35,1.09-.81,1.3-1.58,2.53-2.59,4.16,2.02-.42,3.65-.76,5.28-1.1l.61,1.03c-3.5,2.72-7.01,5.44-11.66,9.06h7.48c-2.08,1.8-3.34,2.88-5.18,4.46,2.07.17,3.64.3,6.46.53-4.54,2.12-7.95,3.72-11.37,5.32.14.39.27.78.41,1.16h5.8c.14.4.28.79.41,1.19-2.66,1.24-5.32,2.48-7.99,3.72.49.21.98.43,1.46.64-.63,1.29-1.25,2.57-1.86,3.81.83.22,1.89.5,3.53.94-2.79,1.96-5.15,3.62-8.55,6.02,2.95-.55,4.81-.9,8.31-1.56-5.62,5.29-10.11,9.53-15.35,14.46,2.56-.44,4.46-.77,6.65-1.15.2,3,.38,5.8.57,8.6.47.01.94.03,1.41.04v-13.09c3.39,1.88,5.95,3.3,8.92,4.95.59-5.56,1.19-11.22,1.78-16.8,3.3,2.38,6.16,4.44,9.02,6.51.33-.23.67-.47,1-.7-1.6-3.72-3.2-7.44-5.41-12.6,4.58,1.96,7.65,3.27,10.72,4.58.81-4.47,1.76-9.76,2.71-15.05.62.03,1.24.06,1.85.09.26,2.47.52,4.94.83,7.92,2.03-.94,3.98-1.85,6.6-3.06-.32-6.02-.66-12.5-1.02-19.25,3.04,2.69,5.96,5.26,9.35,8.26.47-3.38.83-5.95,1.19-8.53.3.01.61.02.91.03.18,2.81.36,5.61.54,8.44q4.56-2.24,5.9-16.74c1.73,2.14,3.03,3.74,4.48,5.53,1.32-.67,2.69-1.36,4.36-2.21-1.15-2.73-2.25-5.35-3.35-7.97.26-.36.53-.71.79-1.07,2.28,1.6,4.56,3.19,8.4,5.88-.8-4.33-1.34-7.29-2-10.88,1.21.69,2.16,1.23,3.81,2.17.26-1.65.51-3.22.82-5.2,1.13.57,2.15,1.09,3.65,1.85-.13-2.71-.25-5.06-.36-7.42.45-.18.9-.37,1.34-.55Z"/><path class="cls-3" d="M1611.23,119.57c-11.61,13.62-27.11,22.13-41.97,31.33-6.4,3.96-13.89,6.36-21.14,8.66-2.97.94-6.67.07-9.95-.51-17.5-3.07-33.43-9.32-44.32-24.28-2.24-3.08-3.32-7.27-4.09-11.11-1.14-5.74-1.85-11.61-2.09-17.46-.1-2.33,1.55-4.74,2.4-7.11v13.57c2.67-3.02,4.48-5.07,6.29-7.12l.67.3c-2.13,4.46-4.26,8.91-6.39,13.37.4.22.8.45,1.21.67,3.55-5.44,7.11-10.89,10.66-16.33.34.18.68.35,1.02.53-3.3,6.93-6.61,13.85-9.91,20.78.37.23.74.45,1.11.68,3.48-5.4,6.95-10.8,10.43-16.21.3.16.61.33.91.49-3.53,7.08-7.06,14.17-10.6,21.25.27.15.54.3.81.46,4.3-6.92,8.59-13.83,12.89-20.75.37.19.74.38,1.12.57-4,7.91-8.01,15.83-12.01,23.74.43.27.85.54,1.28.81,4.33-6.92,8.66-13.84,13-20.75l.8.42c-3.79,7.93-7.58,15.86-11.38,23.79.44.25.89.49,1.33.74,1.71-2.18,3.42-4.36,6.32-8.06-1.35,4.4-2.15,7.02-2.95,9.64.32.15.64.29.96.44,2.31-3.73,4.62-7.46,6.93-11.2.42.2.84.4,1.26.6-2.09,4.53-4.17,9.06-6.26,13.59.46.27.92.55,1.38.82,4.02-6.49,8.04-12.98,12.06-19.46.42.19.83.39,1.25.58-2.34,4.96-4.67,9.92-7.01,14.88.24.12.48.25.72.37,3.91-6.18,7.81-12.37,11.72-18.55.48.28.95.56,1.43.84-4.39,8.12-8.78,16.24-13.17,24.37.42.22.84.45,1.25.67,5.83-8.6,11.66-17.21,17.49-25.81.39.23.78.46,1.17.69-5.09,8.97-10.17,17.95-15.26,26.92.47.28.94.55,1.41.83,6.1-9.93,12.2-19.86,18.3-29.79.42.23.84.46,1.26.69-3.44,7.16-6.89,14.32-10.33,21.47.39.22.78.44,1.17.66,2.62-4.2,5.24-8.4,7.87-12.6.33.15.66.31.99.46-3.23,6.97-6.46,13.94-9.7,20.91.39.21.79.43,1.18.64,3.43-5.72,6.86-11.44,10.3-17.17.36.18.73.35,1.09.53-2.54,5.8-5.08,11.6-7.62,17.41.39.18.78.36,1.17.54,1.66-2.85,3.31-5.7,5.95-10.24-.53,3.66-.8,5.49-1.3,8.96,4.35-7.13,7.82-12.83,11.3-18.53.37.17.75.34,1.12.51-2.22,5.01-4.45,10.02-6.67,15.03.31.16.61.32.92.48,1.97-2.83,3.95-5.67,5.92-8.5.24.12.48.25.71.37-1.21,2.75-2.42,5.5-3.62,8.24.38.25.76.49,1.14.74,4.71-7.44,9.42-14.87,14.12-22.31.33.18.65.35.98.53-3.06,6.33-6.12,12.67-9.18,19l1.7,1.05c4.92-8.19,9.84-16.37,14.76-24.56.36.14.72.28,1.08.42-2.42,5.66-4.84,11.32-7.26,16.97.43.24.85.48,1.28.72,2.19-3.72,4.39-7.44,6.58-11.16.25.11.51.21.76.32-.75,2.25-1.5,4.49-2.25,6.74.32.25.64.5.97.76,4.16-6.32,8.32-12.63,12.48-18.95.35.17.71.33,1.06.5-2.02,4.41-4.03,8.82-6.05,13.23.32.19.63.38.95.56,3.6-5.18,7.21-10.37,10.81-15.55.34.14.68.28,1.01.42-.89,2.19-1.79,4.37-2.68,6.56.32.26.65.52.97.77,3.3-3.93,6.6-7.87,9.68-11.55,1.63.75,2.97,1.37,4.31,1.99Z"/><path class="cls-3" d="M1565.06,62.22c-6.03,7.41-12.06,14.83-18.09,22.24-.31-.19-.61-.38-.92-.56,4.44-7.27,8.88-14.55,13.33-21.82-.34-.21-.67-.43-1.01-.64-6.56,8.88-13.11,17.77-19.67,26.65-.45-.31-.91-.63-1.36-.94,6.42-9.9,12.84-19.79,19.76-30.46,2.7,2.02,5.22,3.89,7.74,5.77,0,0,.23-.24.23-.24Z"/><path class="cls-3" d="M1573.35,77.31c-4.44,4.85-8.88,9.71-13.32,14.56-.25-.13-.5-.26-.75-.4,3.24-5.35,6.48-10.71,9.71-16.06-.32-.2-.64-.4-.96-.59-2.54,3.02-5.08,6.04-7.62,9.07l-.68-.37c2.71-5.29,5.43-10.57,8.14-15.86l-.24.24c1.32-1,2.64-1.99,4.6-3.46,1.78,2.63,3.38,4.99,4.97,7.35-1.28,1.84-2.57,3.67-3.85,5.51Z"/><path class="cls-3" d="M1573.35,77.31c1.28-1.84,2.57-3.67,3.85-5.51,1.27.11,2.55.22,5.25.46-5.64,6.94-10.61,13.06-15.57,19.18-.25-.14-.51-.27-.76-.41,2.41-4.57,4.82-9.14,7.23-13.72Z"/><path class="cls-3" d="M1567.87,67.66c-4.27,4.79-8.53,9.59-12.8,14.38-.19-.11-.38-.22-.57-.32,3.52-6.5,7.03-13,10.55-19.5,0,0-.23.24-.22.23,8.09-1.83,2.58,3.27,2.79,5.46,0,0,.25-.25.25-.25Z"/><path class="cls-3" d="M1534.72,171.2c.15-.87.29-1.74.42-2.52,10.29-.25,11.95,8.54,16.5,15.24-7.87,1.01-11.97-2.23-14-8.93-.45-1.5-2.04-2.66-3.12-3.98,0,0,.19.19.19.19Z"/><path class="cls-3" d="M1651.9,2.51c3.86.33,7.72.66,11.57.99.02.51.03,1.02.05,1.53-3.85.59-7.71,1.18-11.56,1.76-2.98.27-5.96.55-10.78.99,4.6-2.26,7.66-3.76,10.72-5.27Z"/></g><g class="cls-4"><path class="cls-3" d="M762.78,256.28c6.11-7.36,15.19-6.29,24.47-3.72,4.89,1.35,9.83,2.65,14.52,4.54,6.3,2.55,10.67,7.29,13.2,13.66,1.67,4.2,3.47,8.34,5.02,12.58,2.62,7.15.55,14.05-1.95,20.66-1.74,4.59-4.75,8.68-6.77,13.18-1.34,2.98-1.88,6.32-2.87,9.46-1.07,3.39-1.88,6.95-3.5,10.07-2.09,3.99-5.02,7.53-7.34,11.41-3.2,5.38-7.54,9.33-13,12.43-4.61,2.62-8.5,6.57-13.19,8.97-7.25,3.7-14.92,6.55-22.4,9.8-4.49,1.95-8.78,4.87-13.46,5.75-11.68,2.2-23.12,6.88-35.42,4.36-1.29-.26-3.03-.01-4.12.69-4.4,2.82-9.11,2.23-13.94,2.02-5.9-.26-12.1,1.18-17.69-.14-9.89-2.34-19.39-6.3-29.12-9.39-4.42-1.4-8.92-2.87-13.49-3.38-8.26-.93-16.59-1.29-24.9-1.65-6.99-.3-9.56-2.34-10.88-9.17-1.39-7.18-2.92-14.33-4.24-21.52-.27-1.47-.31-3.26.29-4.56,3.36-7.28,6.14-14.97,13.21-19.84,1.02-.7,1.96-2.08,2.18-3.28,1.65-8.87,5.55-16.59,12.71-22.05,9.84-7.5,19.9-14.79,30.27-21.53,7.12-4.63,15.05-7.99,22.4-12.28,5.95-3.47,11.76-7.24,17.3-11.34,9-6.65,18.87-9.07,29.83-7.36.96.15,2.07.35,2.8.92,6.55,5.21,14.25,2.91,21.51,3.39,7.71.51,15.58-.02,22.45,4.67,1.6,1.09,3.62,1.59,6.11,2.64ZM731.8,253.46c-.64-.02-1.44.2-1.9-.09-3.5-2.23-6.91-2.73-10.66-.37-2.51,1.58-5.34,2.66-8.96,4.41,1.94-2.28,3.3-3.71,4.44-5.28,1.24-1.71,1.08-3.59-1.19-3.88-5.66-.72-11.63-2.28-16.98-1.16-5.87,1.22-11.34,4.81-16.71,7.85-5.26,2.98-9.8,7.57-15.34,9.68-10.3,3.92-18.8,10.49-27.77,16.42-5.08,3.36-9.81,7.3-15.08,10.33-7.83,4.5-14.87,9.57-18.27,18.34-1.44,3.71-2.49,7.57-3.91,11.28-.43,1.12-1.34,2.27-2.34,2.92-6.7,4.34-9.71,11.2-12.52,18.17-.55,1.36-.74,3.06-.5,4.51,1.14,6.94,2.46,13.85,3.74,20.76,1.22,6.56,3.24,8.11,10.02,8.28,6.2.16,12.38.56,18.58.82.72.03,1.45-.22,2.18-.35-3.29-4.3-6.33-8.35-9.46-12.33-4.25-5.39-8.55-10.75-12.91-16.06-1.47-1.79-3.04-3.41-1.33-6.37,1.65,2.6,2.98,4.71,4.42,6.99.45-1.83.82-3.36,1.51-6.18,3.22,6.89,5.87,12.55,8.55,18.29.34-2.34.61-4.13.87-5.92.35.04.7.09,1.05.13,2.63,5.37,5.27,10.73,7.9,16.1-.67-3.7-2.44-6.94-3.41-10.4-2.34-8.36-2.18-8.41-1.1-9.31,4.61,8.47,9.26,17.13,14.06,25.7.66,1.17,2.12,1.89,3.21,2.81.25-.3.5-.59.75-.89-1.24-1.43-2.85-2.69-3.67-4.33-3.97-7.93-7.82-15.92-11.47-23.99-.53-1.17.22-2.91.38-4.38,1.63.78,2.12,1.46,2.52,2.2,5.37,10,7.55,21.64,15.57,30.29.99,1.07,1.46,3.13,2.58,3.49,9.07,2.95,18.12,6.17,27.43,8.14,5.1,1.08,10.69-.38,16.03-.17,4.7.19,9.26.83,13.47-2.15,1.05-.74,2.83-1.06,4.1-.78,12.92,2.78,24.76-3.07,37.13-4.54,1.36-.16,2.73-.76,3.96-1.41,8.04-4.27,16.29-8,24.62-11.68,9.68-4.28,18.4-11.37,26.43-18.48,5.14-4.56,8.33-11.35,12.29-17.2.69-1.02,1.35-2.41,1.24-3.56-.87-9.62,4.73-16.45,9.55-23.82,4.27-6.52,5.21-13.88,2.74-21.48-.63-1.95-1.71-2.75-3.69-1.76-.26-.22-.52-.44-.79-.66-.99-4.78-4.43-7.79-8.03-10.48-6.95-5.19-14.1-10.13-21.16-15.17.26-.44.52-.89.77-1.33,6.51,3.67,13.01,7.34,19.52,11.02l.27-.46c-.64-.71-1.27-1.42-2.55-2.85,2.97,1.42,4.95,2.37,6.93,3.34-.27,1.32-.55,2.63-.89,4.25,1.53,1.52,3.43,3.4,5.34,5.29.35-.26.7-.52,1.05-.79-1.86-2.88-3.72-5.75-5.58-8.63-.95-1.02-1.82-2.15-2.88-3.05-5.68-4.9-12.78-6.36-19.78-8.15-9.47-2.42-18.31-2.76-24.93,6.68-1.41-1.81-2.28-3.73-3.77-4.72-7.81-5.18-16.82-4.89-25.67-5.15-.03,0-.08.96-.12,1.47l.1-.13Z"/><path class="cls-3" d="M814.09,291.35c-1.3-2.54-2.16-5.47-3.99-7.55-7.87-9-17.38-16.05-27.49-22.35-2.47-1.54-4.77-3.33-7.15-5,.23-.39.47-.77.7-1.16,7.92,4.88,16.1,9.4,23.68,14.76,4.89,3.46,8.91,8.15,13.33,12.28.26.22.52.44.79.66,1.01,1.91,2.21,3.74,2.98,5.74,1.25,3.27-.37,3.55-2.95,2.49l.11.12Z"/><path class="cls-3" d="M759.84,363.47c-2.55-2.98-4.89-6.18-7.7-8.89-2.92-2.82-6.3-5.17-9.73-7.93-2.74,4.28-5.48,8.56-8.2,12.82-4.44-2.34-42.33-48.68-42.45-52.88,14.02,16.06,27.46,31.45,40.9,46.85.37-.29.75-.58,1.12-.87-.78-1.22-1.43-2.56-2.36-3.65-9.82-11.48-19.67-22.93-29.54-34.37-1.48-1.71-3.31-3.14-4.63-4.96-.91-1.26-1.22-2.96-1.8-4.47.5-.28,1-.55,1.49-.83,12.75,14.74,25.51,29.48,38.26,44.22.42-.36.84-.73,1.26-1.09-4.17-4.8-8.44-9.53-12.49-14.43-4.22-5.12-8.46-10.25-12.28-15.68-3.58-5.1-9.68-8.31-11.19-14.97,14.74,12.44,25.33,28.65,39.34,41.86-.87-1.37-1.58-2.88-2.62-4.1-10.14-11.77-20.37-23.46-30.48-35.26-1.1-1.29-1.56-3.13-2.32-4.71.52-.33,1.03-.65,1.55-.98,5.46,6.44,10.81,12.96,16.4,19.29,5.83,6.6,11.88,13.01,17.84,19.51,0,.01-.07-.1-.07-.1,4.62,4.81,9.15,9.7,13.88,14.39,3.35,3.32,6.98,6.36,11.22,10.19-2.37.4-3.92.66-5.48.92l.07.09Z"/><path class="cls-3" d="M703.31,378.89c-3.1-2.95-6.15-5.95-9.31-8.83-10.57-9.63-17.9-21.69-25.3-33.69-1.62-2.63-3-5.42-4.33-8.22-.75-1.58-1.19-3.31-1.03-5.28,6.37,9.78,12.43,19.78,19.21,29.27,6.84,9.59,15.16,17.87,25.53,23.93-7.51-8-15.57-15.57-22.38-24.13-6.78-8.53-13.39-17.4-17.37-27.74.33-.22.66-.43.99-.65,5.56,8.18,10.7,16.7,16.81,24.45,6.25,7.92,13.46,15.09,20.25,22.59.34-.3.67-.6,1.01-.9-6.29-7.86-12.97-15.43-18.74-23.65-5.69-8.1-12.61-15.57-15.72-25.28,14.75,17.64,25.35,38.64,45.51,52.45-5.14,3.47-9.56,6.03-15.13,5.69h.01Z"/><path class="cls-3" d="M807.82,308.07c1.46,4.67-3.1,4.98-5.25,6.81-1.25,1.06-3.49.94-4.31,1.12-9.32-9.31-18.38-18.37-27.44-27.43.39-.38.78-.76,1.16-1.14,11.17,6.58,19.39,16.5,28.51,25.47-6.59-13.81-20.17-20.97-30.61-31.1,9.14,3.13,26.09,17.64,34.28,27.9-.67-1.4-1.18-2.92-2.05-4.19-7.87-11.6-18.92-19.75-30.14-27.73-1.58-1.12-2.94-2.57-4.4-3.86.26-.33.51-.66.77-.99.88.53,1.84.96,2.62,1.6,9.73,7.97,19.57,15.82,29.08,24.05,3.11,2.69,5.34,6.38,7.97,9.62l-.18-.13Z"/><path class="cls-3" d="M703.3,378.9c-4.12.9-8.37,2.85-12.32,2.37-3.07-.38-6.19-3.41-8.54-5.95-5.63-6.09-11.04-12.43-16.08-19.02-1.6-2.09-1.76-5.29-1.9-8.32,8.39,13.15,17.18,25.56,32.57,32.66-7.6-7.68-15.23-14.24-21.41-21.96-6.08-7.59-10.66-16.37-14.24-25.45.51-.28,1.02-.55,1.54-.83.82,1.47,1.62,2.96,2.47,4.41,9.2,15.69,18.87,30.98,34.9,40.82.92.56,2.01.84,3.03,1.26,0,0,0,0,0,0Z"/><path class="cls-3" d="M751.31,305.78c1.54,1.01,3.3,1.8,4.58,3.08,8.79,8.76,17.46,17.65,26.23,26.44,1.23,1.24,1.7,4.22,4.76,2.28-.83-1.94-1.68-3.94-2.54-5.94.29-.2.57-.4.86-.6,1.26.74,2.51,1.48,4.33,2.56-1.96-3.68-3.65-6.85-5.34-10.03.42-.32.83-.63,1.25-.95,1.77,1.6,3.53,3.21,5.3,4.81.28-.21.56-.43.83-.64-2.38-3.26-4.76-6.52-7.52-10.29,6.09,1.08,8.62,5.58,11,9.55.96,1.59-.19,5.1-1.36,7.18-2,3.55-4.74,6.69-7.28,9.92-.25.32-1.27.05-1.93.05l.1.09c-1.63-2.04-3.07-4.26-4.92-6.07-3.84-3.75-8.17-7.02-11.79-10.95-5.89-6.41-11.37-13.2-17.02-19.82.13-.24.29-.46.46-.67Z"/><path class="cls-3" d="M784.49,343.2c-1.82,2.34-3.63,4.68-5.45,7.03-5.79-5.23-11.43-10.23-16.96-15.36-3.62-3.36-7.07-6.89-10.58-10.36-1.75-1.73-4.05-3.3-2.38-6.23,9.81,9.2,19.57,18.35,29.32,27.5.36-.38.72-.76,1.08-1.13-2.56-2.42-5.24-4.74-7.66-7.29-6.59-6.94-13.15-13.92-19.54-21.04-1.23-1.37-1.64-3.47-2.43-5.23l-.13.18c1.76,1.23,3.95,2.13,5.21,3.75,8.48,10.91,18.08,20.6,29.63,28.27,0,0-.1-.09-.1-.09Z"/><path class="cls-3" d="M745.02,338.7c2.92,1.97,6.02,3.72,8.7,5.97,4.35,3.64,8.42,7.61,12.6,11.43.45-.49.89-.97,1.34-1.46-3.95-3.61-7.97-7.17-11.85-10.86-3.16-3-6.26-6.09-9.18-9.32-.76-.84-.74-2.38-1.07-3.59.36-.21.72-.42,1.09-.63,8.7,8.06,17.4,16.11,26.43,24.48-2.21,2.46-4.22,4.7-6.45,7.19-2.31-2.25-4.48-4.43-6.72-6.54-3.8-3.58-7.81-6.96-11.4-10.73-1.55-1.63-2.27-4.05-3.37-6.1,0,0-.12.16-.12.16Z"/><path class="cls-3" d="M765.71,309.01c1.74,2.86,2.97,7.53,5.34,8.22,5.01,1.46,6.37,6.02,9.78,8.65,1.46,1.12,2.07,3.34,2.42,5.59-6.38-5.06-12.52-10.07-17.6-16.51-5.05-6.4-11.4-11.76-16.86-17.86-5.23-5.84-10.29-11.87-15.77-17.56l1.63-1.26c10.39,10.27,20.79,20.55,31.18,30.82l-.13-.1Z"/><path class="cls-3" d="M726.56,360.4c-1.07-1.44-2.06-2.93-3.21-4.3-5.24-6.24-10.55-12.42-15.79-18.67-3.98-4.75-7.95-9.51-11.82-14.35-2.01-2.51-3.8-5.2-5.69-7.81.5-.39,1.01-.77,1.51-1.16,13.39,15.69,26.79,31.38,40.53,47.47-1.05,1.22-2.65,3.1-4.65,5.43-1.01-1.18-1.84-2.15-2.91-3.39,1.49-.94,2.59-1.63,4.26-2.68-1.13-.3-1.7-.44-2.26-.59v.04Z"/><path class="cls-3" d="M742.07,332.23c.98,2.16,1.97,4.32,2.95,6.48,0,0,.12-.16.12-.17-1.88,1.56-3.52,1.18-4.98-.65,0-.01.07.1.06.09-3.18-4.42-6.19-8.97-9.56-13.22-4.65-5.85-9.52-11.53-14.4-17.18-2.85-3.3-5.95-6.39-8.85-9.66-.98-1.1-1.69-2.45-2.52-3.68.4-.32.79-.64,1.19-.96,5.56,5.67,11.3,11.17,16.63,17.05,6.15,6.79,11.91,13.92,17.88,20.88.42.49,1.11.77,1.67,1.14l-.18-.13Z"/><path class="cls-3" d="M726.55,360.36c-2.03,1.96-4.11,2.44-6.11,0-11-13.38-22-26.75-32.91-40.19-1.03-1.27-1.43-3.04-2.13-4.58.35-.22.7-.44,1.05-.66,3.31,3.67,7.08,7.03,9.85,11.07,7.6,11.07,15.87,21.54,25.52,30.88,1.4,1.35,3.14,2.35,4.73,3.51,0,0,0-.03,0-.03Z"/><path class="cls-3" d="M767.5,261.04c15.91,9.05,31.22,18.83,42.56,33.56,1.92,2.5,4.67,5.07,2.15,9.88-9.97-20.16-29.43-29.59-44.71-43.44Z"/><path class="cls-3" d="M717.82,255.22c20.12,7.65,34.5,21.7,44.76,40.35-.29.36-.57.71-.86,1.07-1.01-.85-2.27-1.52-2.99-2.57-5.55-7.98-10.54-16.48-18.6-22.3-6.87-4.96-13.98-9.6-21.02-14.32-.67-.45-1.6-.54-2.4-.79.37-.48.75-.96,1.12-1.43Z"/><path class="cls-3" d="M813.98,291.23c.65,1.91,1.38,3.81,1.88,5.76.09.36-.68,1.29-1.15,1.37-.48.08-1.39-.44-1.58-.91-4.48-11.19-13.83-17.88-23.03-24.55-6.86-4.98-14.24-9.25-20.87-14.55,8.95,1.09,36.32,21.96,44.85,32.99,0,.01-.1-.11-.1-.11Z"/><path class="cls-3" d="M622.61,341.39c8.62,12.93,11.81,29.02,23.75,40.03-.3.38-.59.77-.89,1.15-1.73-1.05-3.99-1.72-5.1-3.23-3.3-4.51-6.4-9.2-9.09-14.09-3.39-6.16-6.39-12.55-9.35-18.93-.64-1.38-.39-3.17-.55-4.78.41-.05.82-.1,1.24-.15Z"/><path class="cls-3" d="M680.81,322.13c9.55,11.96,18.57,23.28,27.62,34.58,1.15,1.43,2.61,2.62,3.61,4.14.7,1.08.86,2.52.76,4.01-13.22-11.14-21.49-26.11-32.01-39.25-.5-.63-.02-2.06.02-3.48Z"/><path class="cls-3" d="M808,308.19c-2.93-10.57-10.94-17.23-18.8-23.83-6.49-5.45-13.51-10.26-20.22-15.44-1.39-1.07-2.5-2.52-3.56-3.95,11.75,5.87,32.78,22.66,40.28,32.1,1.83,2.3,3.3,4.93,4.6,7.57,1.1,2.25.97,4.18-2.48,3.43,0,0,.17.12.17.12Z"/><path class="cls-3" d="M742.25,332.35c-5.77-7.56-11.36-15.27-17.38-22.62-3.91-4.77-8.48-9-12.65-13.56-.9-.98-1.39-2.33-1.28-4.1.43.26.94.45,1.27.8,10.45,11.2,20.95,22.36,31.28,33.68,2.62,2.88,2.02,4.48-1.42,5.67,0,0,.18.13.18.13Z"/><path class="cls-3" d="M599.48,366.88c.57,1.99,1.14,3.97,1.7,5.96q-8.08.09-10.67-7.23c-.52-1.46-.93-2.96-1.43-4.43-.45-1.32-.97-2.62-.78-4.34,1.76,3.03,3.51,6.06,5.27,9.09.44-.23.88-.45,1.32-.68-2.91-6.24-5.81-12.49-8.75-18.78,4.9,2.1,6.41,6.82,8.47,11.21,1.1,2.34,2.72,4.44,4.11,6.65.25.85.51,1.7.76,2.54Z"/><path class="cls-3" d="M722.37,253.56c17.04,5.09,39.9,25.67,38.78,34.42-5.6-6.36-10.73-13.42-17.1-19.08-6.48-5.75-14.18-10.13-21.67-15.33Z"/><path class="cls-3" d="M719.06,361.73c-3.32,1.03-5.13-1.12-6.89-3.65-2.13-3.05-4.33-6.06-6.69-8.93-7.87-9.56-15.84-19.04-23.71-28.6-.45-.55-.31-1.57-.58-3.16,12.93,15.14,25.37,29.7,37.87,44.34Z"/><path class="cls-3" d="M777.4,352.04c-.41.48-.91,1.16-1.52,1.75-.28.27-.73.37-.74.37-8.03-7.53-15.97-14.84-23.73-22.36-2.16-2.1-3.75-4.79-5.6-7.2.46-.39.91-.78,1.37-1.16,9.91,9.38,19.83,18.77,30.22,28.6Z"/><path class="cls-3" d="M765.84,309.11c-3.42-4.02-6.77-8.1-10.26-12.05-5.4-6.13-10.93-12.15-16.3-18.3-.55-.63-.37-1.88-.53-2.84.36-.23.72-.45,1.08-.68,2.33,2.29,5.11,4.28,6.89,6.94,5.44,8.12,10.93,16.06,19.67,21.12,1.21.7,2.15,2.62,2.39,4.1.4,2.56-1.05,2.89-3.05,1.62,0,0,.12.1.12.1Z"/><path class="cls-3" d="M754.6,365.46c-3.32,3.12-6.97,5.15-11.71,3.47l.15.14c-1.59-2.16-3.27-4.26-4.72-6.52-.63-.98-.77-2.27-1.14-3.42.37-.11.74-.21,1.11-.32,2.91,2.37,5.82,4.74,8.72,7.11.28-.24.56-.49.85-.73-1.96-4.08-7.97-5.49-7.6-11.34,4.81,3.9,9.62,7.8,14.43,11.7,0,0-.09-.08-.09-.08Z"/><path class="cls-3" d="M744.2,324.3c-.88-.76-1.87-1.42-2.63-2.29-8.76-10.09-17.48-20.22-25.73-30.74,10.94,9.67,22.29,18.96,29.64,31.79-.43.41-.85.83-1.28,1.24Z"/><path class="cls-3" d="M669.2,382.85c-4.57,1.84-5.74-2.67-8.6-4.71-4.75-3.39-7.12-8.17-9.84-12.82-.88-1.5-.7-3.61-.06-5.37,6.19,7.67,12.39,15.34,18.49,22.9Z"/><path class="cls-3" d="M665.3,359.55c5.42,10.04,13.84,16.84,24.29,22.41-4.14,1.32-6.94,1.46-9.66-1.55-4.78-5.3-10.02-10.19-14.83-15.47-.99-1.09-.92-3.15-1.34-4.76.51-.21,1.03-.42,1.54-.63Z"/><path class="cls-3" d="M731.7,253.59c4.01,1.69,8.03,3.37,12.04,5.06,1.23.82,2.46,1.63,3.69,2.45,4.27,4.6,8.54,9.21,12.8,13.81l-.18-.13c.79,2.06,1.58,4.12,2.37,6.18-.32.2-.64.39-.96.59-.66-.36-1.72-.57-1.91-1.1-3.38-9.17-11.3-14.04-18.43-19.67-3.1-2.45-6.23-4.87-9.33-7.31,0,0-.09.13-.09.13Z"/><path class="cls-3" d="M772.79,295.04c8.69,4.84,14.5,12.86,21.37,19.77-3.53,2.29-5.01.66-7.24-2.24-3.74-4.87-8.56-8.91-12.89-13.34-.93-.95-1.68-2.09-2.51-3.14.42-.35.84-.7,1.26-1.06Z"/><path class="cls-3" d="M654.88,382.33c-5.51,1.07-8.12-2.62-10.11-5.75-4.12-6.46-7.49-13.39-11.08-20.18-.32-.6.04-1.57.16-3.6,7.11,10.65,11.08,21.92,21.03,29.53Z"/><path class="cls-3" d="M716.91,284.97c9.7,7.67,18.27,16.37,24.19,27.49-8.49-8.85-16.99-17.71-25.48-26.56.43-.31.86-.61,1.29-.92Z"/><path class="cls-3" d="M661.97,368.12c.77.04,1.85-.24,2.28.16,4.94,4.73,9.78,9.55,14.37,14.08-4.58,1.69-5.22,1.69-10.25-3.85-2.74-3.02-7.41-5.14-6.28-10.55l-.12.16Z"/><path class="cls-3" d="M759.78,363.38c-1.2,2.01-2.6,3.49-5.18,2.07,0,0,.09.08.09.08-2.65-2.99-5.26-6.02-7.97-8.96-1.24-1.34-2.85-2.36-3.95-3.78-.63-.81-.56-2.15-.81-3.26.34-.13.69-.27,1.03-.4,5.61,4.78,11.22,9.55,16.84,14.34,0,0-.06-.08-.06-.08Z"/><path class="cls-3" d="M714.93,258.19c5.75,3.51,11.57,6.93,17.23,10.6,1.99,1.29,3.65,3.12,5.3,4.84.38.39.12,1.39.15,2.11-.73-.14-2.08-.27-2.09-.43-.07-2.7-2.48-2.54-3.98-3.6-5.79-4.1-11.41-8.42-17.09-12.67l.47-.86Z"/><path class="cls-3" d="M747.44,261.1c-1.23-.82-2.46-1.63-3.69-2.45-.64-1.05-1.27-2.09-1.91-3.14.14-.27.28-.54.41-.81,2.37,1.48,5.05,2.63,7.06,4.5,4.26,3.98,8.22,8.29,12.19,12.58,1.71,1.84,1.83,3.32-1.43,3l.18.13c-2.17-6.55-7.29-10.36-12.8-13.81Z"/><path class="cls-3" d="M647.8,366.84c4.8,5.31,9.3,10.29,14.14,15.64-7.7-.62-15.8-9.71-14.14-15.64Z"/><path class="cls-3" d="M751.31,305.78c-.18.21-.33.43-.46.67-3.24-3.22-6.49-6.42-9.72-9.65-1.4-1.4-2.93-2.7-4.06-4.3-.9-1.27-1.28-2.91-.99-4.81,4.46,4.68,8.99,9.3,13.34,14.08.95,1.04,1.28,2.66,1.89,4.01Z"/><path class="cls-3" d="M716.73,363.17c1.86.11,3.05-.17,3.72.3,1.87,1.31,3.52,2.93,5.26,4.43-1.78,1.37-4.06,4.19-5.25,3.79-2.45-.82-4.39-3.31-6.37-5.28-.26-.26.49-1.54.86-2.6,2.13,1.71,3.85,3.09,5.57,4.48.22-.21.43-.42.65-.62-1.27-1.28-2.53-2.56-4.45-4.49Z"/><path class="cls-3" d="M639.21,344.96c-1.68-4.24-3.43-8.45-4.99-12.74-.25-.69.31-1.69.49-2.54.75.39,1.88.6,2.19,1.21,1.77,3.48,3.56,6.99,4.86,10.66.35.99-.96,2.57-1.51,3.87-.35-.16-.69-.31-1.04-.47Z"/><path class="cls-3" d="M742.89,368.92c-.5,1.99-6.73,5.23-8.59,3.98-1.31-.88-1.74-3.07-2.56-4.68.36-.24.72-.48,1.09-.72,1.04.49,2.08.98,3.22,1.52-.84-1.66-1.58-3.11-2.31-4.55.32-.19.64-.38.96-.56,2.78,1.72,5.56,3.44,8.34,5.16,0,0-.15-.14-.15-.14Z"/><path class="cls-3" d="M631.38,354.06c-1.29-5.88-5.59-10.79-6.2-16.89.49-.24.98-.49,1.46-.73.83,1.12,1.86,2.15,2.46,3.39,1.54,3.16,3.13,6.33,4.22,9.66.45,1.37-.33,3.14-.54,4.73-.47-.05-.93-.1-1.4-.16Z"/><path class="cls-3" d="M645.68,367.29c-3.03-5.63-8.2-10.29-7.88-17.31,3.19,5.54,9.15,9.83,7.88,17.31Z"/><path class="cls-3" d="M749.88,311.09c-1.65-1.12-3.49-2.05-4.92-3.41-2.86-2.71-5.58-5.57-8.18-8.53-.91-1.04-1.28-2.55-1.44-4.14,5.69,4.72,11.75,8.98,14.42,16.25,0,0,.13-.18.13-.18Z"/><path class="cls-3" d="M646.45,341.96c-1-.62-2.63-1.05-2.9-1.91-1.32-4.18-2.29-8.47-3.35-12.63,4.36-.24,8.73,9.22,6.16,14.67l.09-.14Z"/><path class="cls-3" d="M771.08,308.68c5.21,3.85,10.82,7.4,11.55,15.97-4.53-5.74-9.63-9.67-11.55-15.97Z"/><path class="cls-3" d="M634.94,350.52c-2.1-6.08-3.99-11.53-5.88-16.99.38-.12.76-.24,1.14-.35,4.96,5.33,7.61,13.56,4.74,17.34Z"/><path class="cls-3" d="M662.09,367.96c-1.68,1.13-2.89,1.1-3.89-1.01-1.37-2.91-3.24-5.59-4.52-8.53-.56-1.29-.18-2.99-.23-4.5.59-.12,1.19-.24,1.78-.36,2.24,4.86,4.48,9.71,6.72,14.57,0,0,.13-.16.13-.16Z"/><path class="cls-3" d="M648.04,360.53c-4-4.71-6.85-13.32-5-15.09,4.57,4.52,7.07,12.07,5,15.09Z"/><path class="cls-3" d="M600.94,337.34c6.46,4.73,10.37,13.89,7.4,16.42-2.38-5.29-4.75-10.56-7.4-16.42Z"/><path class="cls-3" d="M658.26,347.84c1.94,4.38,5.84,7.73,4.54,13.12-4.13-1.53-7.13-9.61-4.54-13.12Z"/><path class="cls-3" d="M646.36,342.1c1.7-.44,3.06-.56,3.64,1.75.5,2.02,1.75,3.85,2.27,5.86.38,1.51.12,3.18.14,4.78l-1.87.25c-1.36-4.26-2.72-8.51-4.08-12.78,0,0-.09.13-.09.13Z"/><path class="cls-3" d="M761.08,267.39c-2.15-2.21-4.25-4.48-6.47-6.62-2.39-2.31-4.88-4.51-6.42-5.92,3.61-.03,12.71,7.05,12.89,12.54Z"/><path class="cls-3" d="M733.01,295.73c-3.05-2.83-6.19-5.57-9.08-8.56-.54-.55-.05-2.09.49-3.36,2.4,4.44,9.37,5.16,8.59,11.92Z"/><path class="cls-3" d="M612.18,349.84c-2.25-5.03-4.28-9.56-6.3-14.08,6.45,4.07,9.04,10.37,6.3,14.08Z"/><path class="cls-3" d="M649.76,337.12c-2.49-4.45-4.61-8.24-6.92-12.36,2.8.22,8.11,5.71,8.5,8.58.15,1.11-.96,2.38-1.58,3.79Z"/><path class="cls-3" d="M619.56,323.25c1.94,2.85,3.98,5.64,5.72,8.61.34.58-.48,1.85-.77,2.8-.74-.41-1.83-.63-2.17-1.26-1.65-3.07-4.23-5.84-4.18-9.55.47-.2.93-.4,1.4-.6Z"/><path class="cls-3" d="M711.27,264.22c5.24-1,12.97,4.5,12.58,8.32-4.3-2.85-8.44-5.58-12.58-8.32Z"/><path class="cls-3" d="M661.61,288.42c3.45,3.28,6.94,6.52,10.3,9.88.4.4.16,1.45.21,2.2-.64,0-1.59.28-1.89-.04-3.29-3.62-6.48-7.32-9.7-11.01.36-.35.71-.69,1.07-1.04Z"/><path class="cls-3" d="M659.9,305.76c-4.68-4.35-9.35-8.71-14.03-13.06.34-.39.67-.79,1.01-1.18,4.79,4.2,9.58,8.41,14.38,12.61-.45.54-.9,1.09-1.36,1.63Z"/><path class="cls-3" d="M599.48,366.88c-.25-.85-.51-1.7-.76-2.54.74-.64,1.49-1.28,2.23-1.92,1.86,3.53,3.73,7.06,5.59,10.6-.62.37-1.25.74-1.87,1.11-1.73-2.41-3.46-4.83-5.19-7.24Z"/><path class="cls-3" d="M654.4,287.32c4.96,4.78,9.93,9.56,15.28,14.71-3.09.49-9.53-5.56-15.28-14.71Z"/><path class="cls-3" d="M652.89,332.79c-2.06-4.21-3.84-7.83-6.09-12.42,6.64,3.19,8.42,6.95,6.09,12.42Z"/><path class="cls-3" d="M664.21,304.8c-4.97-4.97-9.94-9.95-14.91-14.92,6.21,3.64,11.44,8.35,16.08,13.67-.39.42-.78.83-1.18,1.25Z"/><path class="cls-3" d="M612.39,333.6c2.33,3.16,5.21,6.18,3.97,11.61-2.84-4-5.71-6.93-3.97-11.61Z"/><path class="cls-3" d="M653.99,348.06c-.58-3.44-1.15-6.88-1.73-10.32.35-.07.7-.14,1.05-.21,1.68,3.23,3.95,6.35.68,10.53Z"/><path class="cls-3" d="M616.84,330.24c4.97,5.45,5.28,7.27,1.77,10.56-.58-3.48-1.09-6.53-1.77-10.56Z"/><path class="cls-3" d="M638.68,298.85c2.91,1.54,5.87,3,8.7,4.69.6.36.72,1.54,1.07,2.34-.85.02-1.95.39-2.5,0-2.7-1.91-5.25-4.03-7.85-6.08.2-.32.4-.63.59-.95Z"/><path class="cls-3" d="M666.08,287.89c2.8,3.27,7.63,4.46,9.63,8.56-.46.47-.91.94-1.37,1.41-3.04-3.04-6.08-6.08-9.13-9.11l.86-.86Z"/><path class="cls-3" d="M715.03,273.2c-2.4-1.85-4.79-3.7-7.6-5.86,2.75-2.09,4.29.5,5.89,1.43,1.2.7,1.93,2.2,2.86,3.34l-1.16,1.08Z"/><path class="cls-3" d="M639.12,306.7c-2.81-1.85-5.63-3.69-8.44-5.54.23-.41.47-.82.7-1.23,2.95,1.61,5.9,3.22,8.85,4.83-.37.65-.74,1.29-1.11,1.94Z"/><path class="cls-3" d="M645.12,297.32c3.64,2.52,7.27,5.04,10.91,7.56-.41.56-.82,1.11-1.22,1.67-1.67-1.4-3.32-2.83-5.03-4.18-1.75-1.38-3.56-2.68-5.34-4.02.23-.34.46-.69.69-1.03Z"/><path class="cls-3" d="M766.85,295.72c-1.26-2.19-2.52-4.37-3.78-6.56.41-.23.82-.47,1.23-.7,2.52,1.49,4.89,3.08,3.97,6.58-.47.23-.95.46-1.42.69Z"/><path class="cls-3" d="M694.68,292.15c-2.11-2.11-4.22-4.22-6.32-6.33.34-.31.67-.61,1.01-.92,2.88,1.41,5.66,2.91,6.28,6.37-.32.3-.64.59-.97.89Z"/><path class="cls-3" d="M689.44,265.77c2.23.82,4.51,1.54,6.64,2.56.46.22.39,1.54.56,2.36-1.01-.01-2.31.37-2.97-.11-1.63-1.2-2.96-2.8-4.41-4.24.06-.19.12-.37.17-.56Z"/><path class="cls-3" d="M690.1,295.13c-1.48-1.81-4.49-2.81-3.47-5.91.52-.27,1.03-.55,1.55-.82,1.11,1.99,2.21,3.98,3.32,5.98-.47.25-.93.5-1.4.76Z"/><path class="cls-3" d="M764.27,295.74c2.48,1.16,5.4,2.01,3.39,7.28-1.75-2.66-3-4.58-4.26-6.49.29-.26.58-.53.86-.79Z"/><path class="cls-3" d="M623.13,321.19c1.91,1.73,3.89,3.4,5.68,5.25.41.43.18,1.49.24,2.25-.72-.1-1.78.07-2.1-.35-1.65-2.11-3.1-4.38-4.62-6.59.27-.19.53-.38.8-.57Z"/><path class="cls-3" d="M598.35,361.27c-1.47-2.8-2.95-5.59-4.81-9.13,3.63,2.66,5.37,5.4,6.58,8.43-.59.24-1.18.47-1.76.71Z"/><path class="cls-3" d="M733.4,289.09c-1.49-1.6-2.99-3.19-4.48-4.79.12-.33.24-.66.36-.99,1.14.35,2.62.39,3.35,1.14,1.02,1.06,1.47,2.65,2.16,4.02-.46.2-.93.41-1.39.61Z"/><path class="cls-3" d="M676.59,271.8c3.59,1.85,6.29,3.13,8.85,4.66.49.29.39,1.56.57,2.38-1-.21-2.26-.11-2.94-.69-2-1.7-3.78-3.66-6.47-6.35Z"/><path class="cls-3" d="M633.64,312.63c2.04,1.53,4.09,3.07,6.13,4.6-.29.39-.59.78-.88,1.17-3.2,0-4.27-2.83-5.95-4.83.24-.31.47-.63.71-.94Z"/><path class="cls-3" d="M670.55,320.73c-1.16-2.1-2.33-4.19-3.49-6.29.58-.3,1.16-.59,1.75-.89,1.15,2.11,2.3,4.22,3.45,6.33-.57.28-1.14.56-1.71.84Z"/><path class="cls-3" d="M683.38,271.17c1.68.89,3.47,1.62,4.97,2.74.61.45.58,1.76.85,2.68-.85-.14-1.94,0-2.5-.47-1.42-1.22-2.61-2.72-3.89-4.1.19-.28.38-.57.57-.85Z"/><path class="cls-3" d="M709.94,275.3c-1.84-1.45-3.67-2.9-6.49-5.13,1.88-.05,2.98-.42,3.52-.02,1.57,1.17,2.91,2.65,4.34,4.01-.45.38-.91.76-1.36,1.14Z"/></g><g class="cls-4"><path class="cls-3" d="M1326,452.59c18.75-.85,34.48,5.59,47.67,18.99,2.78,2.82,6.85,5.16,10.7,6,10.55,2.31,18.49,8.68,25.89,15.68,15.64,14.82,28.13,32.14,37.07,51.72,7.36,16.11,9.51,33.47,7.56,50.94-1.22,10.93-5.19,21.53-6.75,32.45-4.42,30.94-22.28,53.55-45.2,72.58-13.95,11.58-30.77,18.13-48.72,21.51-6.99,1.32-13.84,3.4-20.77,5.05-9.63,2.29-19.36,2.57-29.09.94-11.47-1.92-23.11-3.34-34.28-6.41-6.83-1.88-12.93-6.44-19.34-9.85-2.96-1.58-5.7-3.68-8.79-4.87-12.84-4.92-23.18-13.2-32.65-22.95-12.23-12.58-20.87-27.27-27.16-43.51-2.51-6.49-6.44-12.67-7.66-19.36-3.59-19.79-3.63-39.5,5.79-58.13.39-.78.82-1.63.86-2.47.66-13.99,8.91-24.78,15.33-36.31,5.62-10.1,13.33-18.35,22.6-25.27,2.77-2.07,4.89-5.01,7.29-7.57,15.02-16.02,34.16-25.01,54.48-32.05,14.65-5.08,29.75-7.08,45.18-7.09ZM1321.27,617.61c-4.06-4.11-8.22-8.07-13.38-10.64-.35.48-.69.96-1.04,1.45,4.74,3.13,9.48,6.26,14.22,9.39,2.28,2.8,4.02,6.56,6.95,8.23,9.86,5.63,20.12,10.57,30.29,15.64,1.76.88,3.84,1.12,5.77,1.66-.11-1.2-.49-1.62-.95-1.83-5.95-2.73-12.18-4.96-17.8-8.24-8.25-4.82-16.06-10.39-24.06-15.64ZM1339.76,590.8l.11.1c.2-1.24.79-2.56.52-3.69-1.19-5.06-9.59-11.1-16.1-11.22,2.45,9.42,3.79,18.93,10.32,26.63-8.69-6.87-9.15-17.7-13.05-26.9.79,10.31,1.76,20.57,8.8,28.83,3.3,3.87,6.87,7.61,10.79,10.85,6.85,5.67,13.94,11.08,21.18,16.23,2,1.42,4.93,3.14,7.89.14-.91-.62-1.44-1.21-2.07-1.37-9.71-2.4-16.04-9.28-21.58-16.85-1.73-2.36-2.19-5.83-2.65-8.88-.58-3.86-.38-7.83-.95-11.69-.13-.86-2.09-1.45-3.21-2.17ZM1215.73,678.24c-.18.81-.77,1.84-.47,2.4,3.28,6.06,7.64,7.96,13.73,6.05,2.28-.72,4.49-1.68,6.74-2.52.16.41.32.83.48,1.24-3.61,1.5-7.23,3-10.85,4.5,4.01,5.31,5.31,5.77,10.95,3.62,4.42-1.68,8.78-3.49,13.17-5.24l.34.77c-5.28,2.31-10.56,4.61-15.94,6.96,5.44,7.3,8.87.11,13.55-.72-.53,1.43-1.9,1.8-2.72,2.67-.84.89-1.14,2.28-1.68,3.45,1.45-.02,3.31.53,4.27-.16,3.89-2.8,8.17-5.45,11.08-9.12,6.04-7.63,11.4-15.81,16.85-23.89,6.82-10.12,13.45-20.36,20.3-30.76.48.35-.4-.18-.35-.28,2.59-5.5,5.26-10.97,7.92-16.44-8.21,11.1-18.01,20.45-29.75,27.66,8.24-7.78,17.72-14.32,23.55-24.47-1.87,1.78-3.74,3.56-5.61,5.35-.18-.21-.36-.41-.54-.62,3.05-4.33,6.09-8.66,9.14-12.98-.46-.41-.92-.82-1.38-1.23-4.57,3.28-6.67,9.08-11.07,12.53-4.67,3.66-9.32,7.35-13.98,11.02-.21-.26-.41-.53-.62-.79,6.5-5.84,12.99-11.68,19.49-17.52-.36-.52-.72-1.03-1.08-1.55-4.67,2.22-9.28,4.57-14.01,6.64-4.71,2.06-9.54,3.84-14.32,5.74-.12-.31-.25-.63-.37-.94,9.78-4.54,19.55-9.09,29.33-13.63l-.52-1.27c-5.74,2.18-11.47,4.35-17.21,6.53-.1-.21-.19-.41-.29-.62,2.16-1.32,4.33-2.65,6.49-3.97-10.82,1.47-20.54,5.84-30.4,10.07-12.95,5.57-26.25,10.34-39.51,15.16-4.2,1.53-8.88,1.75-13.09,3.26-1.77.63-3.98,3.02-4.05,4.69-.11,2.51,1.99,4.4,5.07,4.16,2.76-.21,5.52-.34,8.29-.48.82-.04,1.64,0,2.46,0,.03.39.06.79.09,1.18-3.75.65-7.49,1.31-12.7,2.22,2.38,2.08,3.69,4.13,5.42,4.59,6.84,1.82,13.8,3.16,20.72,4.64,1.22.26,2.47.34,3.71.5-8.45,2.29-16.04-.85-24.04-2.87,1.9,3.49,2.65,7.83,7.59,8.51,3.87.53,7.74,1,11.61,1.5-.04.38-.07.76-.11,1.13h-10.21c-.02.31-.04.63-.06.94,1.48.84,2.96,1.68,4.44,2.52l.11-.13ZM1331.73,526.33c.56-.02,1.13-.03,1.69-.05-1.08,12.35-2.15,24.71-3.11,35.75,1.04-2.04,2.79-5.45,4.53-8.86.34.17.68.33,1.01.5-.59,2.15-1.18,4.3-1.76,6.46.54.17,1.07.34,1.61.51,3.16-7.79,6.32-15.59,9.48-23.38-1.16,12.09-6.01,22.63-13.11,32.33,8.44-7.6,14.18-17.01,18.51-27.41.58.36,1.17.71,1.75,1.07-4.49,7.76-8.97,15.53-13.46,23.29.36.25.71.5,1.07.75,4.03-5.72,8.63-11.13,11.98-17.22,10.52-19.13,14.95-40.36,19.51-61.41.95-4.37-1.31-9.43-2.09-14.17-.43.04-.86.09-1.29.13-1.03,2.86-2.06,5.72-3.09,8.58-.27-3.39.4-6.5.47-9.63.03-1.36-1.15-2.75-1.78-4.13-1.28.72-3.01,1.14-3.75,2.23-2.25,3.33-4.11,6.92-6.12,10.41l-.81-.38c2.27-4.74,4.53-9.47,6.83-14.28-8.17-6.86-9.09,2.14-12.95,5.38,1.13-2.88,2.25-5.76,3.37-8.62-4.66-2.55-5.59-2.4-7.56,2.22-1.47,3.45-2.4,7.13-3.57,10.7-.24-.07-.49-.13-.73-.2,1.29-5,2.58-10,4.05-15.69-2.09-.23-5.04-1.33-5.79-.49-2.37,2.67-3.92,6.07-6.13,9.77.78-3.81,1.45-7.1,2.12-10.39-8.32-1.39-9.26-.69-10.17,7.16-.2,1.76-.41,3.52-.61,5.29-.54-.04-1.08-.08-1.62-.12.26-4.13.52-8.26.82-13.04-2.53.36-6.45.2-6.69,1.07-.81,2.91-.31,6.19-.31,10.37-1.06-3.06-2.1-5.14-2.48-7.34-.42-2.44-1.62-2.99-3.87-3.02-9.1-.14-10.98,1.86-9.42,10.57.31,1.7.91,3.36,1.44,5.01,1.95,6.1,4.14,12.13,5.85,18.3,2.67,9.66,5.59,19.3,7.34,29.14,1.93,10.9,2.61,22.03,3.96,33.04.38,3.12,1.23,6.19,1.86,9.28.41-.07.83-.14,1.24-.21,2.26-12.67,2.05-25.41.56-38.2,4.04,11.98,1.99,24.36,3.24,36.64,1-4.7,2-9.4,3-14.09.25-.01.49-.02.74-.03.26,1.64.53,3.28.79,4.92.47,0,.95,0,1.42,0,.68-9.5,1.35-19.01,2.03-28.51ZM1291.59,525.77c6.97,6.85,11.57,15.25,15.97,24.76.28-1.99.44-3.08.77-5.43,1.61,4.93,2.82,8.64,4.04,12.34l1.36-.32c-.85-7.94-1.53-15.9-2.58-23.82-2.88-21.81-10.75-42.22-17.96-62.81-1.14-3.26-3.06-4.2-6.74-3.9,1.14,2.7,2.15,5.08,3.54,8.36-4.08-3.06-3.17-9.49-8.49-9.21-3.88.21-7.67,2.05-11.29,3.1,2.49,5.2,4.67,9.75,6.84,14.3-.4.17-.8.34-1.21.52-1.24-2.59-2.5-5.18-3.73-7.79-1.29-2.74-2.76-5.46-6.4-4.69-4,.84-4.65,4.05-4.33,7.49.39,4.24,1.01,8.45,1.53,12.68-.36.05-.71.1-1.07.15-.74-5.54-1.48-11.08-2.23-16.66-6.89,2.57-6.92,2.57-6.23,9.23.24,2.35.65,4.67.98,7.01-.34.05-.68.1-1.02.16-.56-3.77-1.12-7.55-1.69-11.41-6.93,2.52-7.37,3.11-6.11,9.39.62,3.11,1.57,6.15,2.38,9.22-.34.1-.67.2-1.01.3-1.35-4.28-2.71-8.56-4.24-13.43-2.9,2.18-5.71,3.67-7.61,5.93-1.51,1.79-2.99,4.75-2.58,6.8,1.14,5.65,2.42,11.58,5.19,16.54,9.4,16.82,21.76,31.45,35.93,44.44,4.17,3.82,9.44,6.43,14.2,9.59.33-.41.66-.82.99-1.24-8.85-7.62-16.25-16.35-21.01-27.12,8.73,9.32,14.82,21.21,27.11,26.92-1.52-2.3-3.04-4.6-4.55-6.9.16-.07.31-.14.47-.22,3.65,3.02,7.3,6.05,10.95,9.07.33-.36.67-.73,1-1.09-1.08-1.7-2.22-3.35-3.23-5.09-4.16-7.18-8.38-14.33-12.33-21.63-.84-1.56-.64-3.68-1.07-6.61,4.96,8.96,9.24,16.68,13.51,24.41.43-.22.86-.44,1.29-.67-.95-2.29-1.9-4.59-2.85-6.88.42-.22.84-.43,1.25-.65,2.54,4.56,5.08,9.12,7.62,13.67-.82-14.71-8.41-26.53-15.34-38.82ZM1273.27,706.7c.22,3.99-.81,8.4.92,10.41,1.95,2.25,6.41,2.32,10.58,3.58-.54-3.93-.93-6.72-1.41-10.19,3.09,4.77,1.84,12.68,10.75,11.47-.45-1.77-.9-3.28-1.21-4.82-.3-1.5-.46-3.03-.68-4.55,5.98,11.36,7.25,12.37,14,10.28-2.6-4.8-5.18-9.55-7.84-14.46.67-.09.9-.17.92-.12,1.95,3.21,3.81,6.49,5.84,9.65,4.32,6.75,6.86,7.64,15.17,5.32-2.75-3.93-5.44-7.77-8.13-11.6,5.37,3.94,7.49,11.63,16.41,11.79-2.47-5.26-4.68-9.94-6.88-14.63,1.28-.02,1.66.39,1.93.87,2.1,3.66,3.99,7.48,6.41,10.92.69.97,2.93.85,4.46,1.23.22-1.28.89-2.69.57-3.81-1.16-4.05-2.75-7.98-4.01-12.01-1.41-4.51-2.64-9.09-3.94-13.63.34-.09.68-.18,1.03-.27.59,1.92,1.05,3.9,1.79,5.77,2.61,6.64,5.21,13.29,8.1,19.8.42.95,2.41,1.21,3.67,1.79.54-1.39,1.83-3,1.49-4.11-.96-3.18-2.53-6.19-3.97-9.22-8.39-17.69-11.89-36.8-16.34-55.64-1.29-5.47-2.99-10.85-4.49-16.28-.38.09-.76.19-1.14.28,2.11,12.43,4.22,24.85,6.33,37.28-.41.08-.81.15-1.22.23-2.2-12.7-4.41-25.41-6.61-38.11-1.58,6.52-2.3,13.06-3.92,19.37-1.59,6.22-4.09,12.2-6.19,18.29-.47-.14-.94-.27-1.41-.41,5.19-14.06,9.94-28.2,8.16-43.86-1.8,1.08-3.46,2.34-4.31,4-1.37,2.71-2.01,5.77-3.29,8.54-2.56,5.53-5.34,10.96-8.03,16.43-.35-.17-.69-.34-1.04-.51,3.03-6.6,6.06-13.2,9.09-19.81-8.49,6.83-15.34,14.61-20.82,23.74-6.73,11.23-14.29,21.97-21.5,32.91-2.09,3.17-4.51,6.15-6.25,9.49-3.54,6.8-2.35,8.85,5.49,10.47,1.32-3.47,2.65-6.95,3.97-10.42.45.19.9.37,1.36.56-.71,1.68-1.45,3.36-2.14,5.06-2.41,6-.91,8.1,5.66,7.98.85-2.84,1.69-5.68,2.69-9.02ZM1186.77,632.81c-.13.5-.26.99-.39,1.49,3.22,1.23,6.43,3.5,9.65,3.5,11.29,0,22.23-1.99,32.69-6.79,11.9-5.47,24.07-10.37,36.21-15.3,7.62-3.09,15.4-5.77,23.1-8.65.51-.19.98-.48,1.48-.72-5.27.56-9.99,2.08-14.82,2.57-11.77,1.2-11.79,1-15.09-1.36,8.29-.66,16.36.35,23.52-4.28-4.13-.27-8.25-.54-12.38-.81.04-.33.08-.65.12-.98,5.19-.36,10.39-.72,15.58-1.07.03-.73.07-1.47.1-2.2-11.94,2.63-23.11.3-33.96-4.16,9.96.53,19.84,3.51,29.93,1.13-2.81-1.59-5.66-2.57-8.58-3.3-26.84-6.71-53.98-12.37-79.63-23.15-1.6-.67-3.31-1.33-5.01-1.46-1.46-.11-2.97.53-4.46.84-.01.48-.02.95-.03,1.43,4.7,2.11,9.4,4.22,14.09,6.32-.14.34-.28.67-.42,1.01-3.43-1.41-6.88-2.76-10.27-4.24-4.87-2.13-5.89-1.75-6.15,3.56-.09,1.86,1,4.27,2.35,5.61,2.31,2.3,5.26,3.96,7.94,5.89-.19.32-.37.65-.56.97-3.33-1.83-6.65-3.66-9.99-5.49-2.56,5.84-1.87,8.08,3.32,10.74,2.6,1.33,5.26,2.57,7.9,3.84-.14.32-.28.64-.42.96-3.8-1.72-7.6-3.45-11.53-5.23-1.41,5.75-.72,9.71,4.57,11.95,5.38,2.28,10.63,4.88,15.88,7.32-7.78.83-13.47-5.13-20.98-7.6.19,2.93.67,5.37.45,7.75-.49,5.27,1.96,7.85,6.92,8.75,2.83.51,5.6,1.35,8.39,2.05-.12.49-.24.99-.36,1.48-4.39-1.01-8.77-2.02-13.16-3.04-.98,5.97,0,8.61,3.39,8.81,6.85.4,13.7.73,20.56.85,2.61.05,5.22-.54,7.83-.84-9.03,3.87-18.48,1.58-27.76,1.86ZM1417.85,561.71c-.18-.36-.35-.72-.53-1.09,5.94-3.61,11.87-7.23,17.82-10.82,2.57-1.55,3.22-3.23,1.49-6.07-2.91-4.78-3.93-5.25-9.32-2.53-1.55.78-3.04,1.75-4.43,2.8-17.8,13.38-37.05,23.6-59.07,28.25-4.18.88-8.04,3.23-12.05,4.89.24.65.48,1.3.72,1.95,10.39-3.09,20.79-6.19,31.18-9.28.1.31.21.63.31.94-9.35,3.1-18.7,6.19-28.05,9.29.08.27.16.54.25.81,1.71-.2,3.41-.4,5.12-.59.08.3.16.6.24.9-2.09.91-4.18,1.83-6.26,2.74.06.24.11.48.17.72h7.53c.03.36.06.71.09,1.07-4.64.5-9.28,1.01-13.93,1.51.02.15.04.29.07.44,4.31.27,8.62.54,12.93.81-.03.51-.05,1.02-.08,1.53h-12.38c-.02.29-.05.58-.07.88,7.38.62,14.76,1.24,22.14,1.85-.05.6-.1,1.19-.15,1.79-6.57-.44-13.15-.88-19.72-1.32-.06.55-.12,1.09-.19,1.64,1.4.34,2.81.67,4.2,1.02,12.23,3.09,24.7,5.47,36.64,9.44,15.28,5.09,30.32,10.51,46.78,9.02,5.3-.48,7.89-3.13,8.05-9.6-1.56,1.59-3.12,3.17-4.73,4.82-.18-1.11-.35-2.14-.55-3.33-3.95.53-7.59,1.03-11.23,1.52,3.98-1.92,9.2-1.59,11.81-4.04,2.44-2.29,2.11-7.53,3.2-12.33-5.41,1.57-9.36,2.71-13.31,3.86,4.47-4.5,14.53-1.52,14.29-11.98.42,1.26.85,2.53,1.28,3.83,3.51-1.81,4.27-7.87,1.41-13.01-1.15,1.72-2.13,3.18-3.1,4.64-.1-.4-.2-.79-.29-1.19-4.74,1.78-9.49,3.56-14.23,5.34,3.13-2.41,6.54-4.04,10.01-5.51,3.75-1.59,4.56-4.12,2.74-7.83h-4.94c5.73-3.98,6.03-6.87,1.52-12.29-5.16,3.33-10.33,6.66-15.5,10,3.96-3.87,8.36-6.96,12.82-9.98,3.28-2.22,3.01-4.56.34-7.41-7.04,3.98-14.03,7.94-21.03,11.9ZM1289.89,582.79c.26-.45.51-.9.77-1.35-5.48-3.15-10.98-6.25-16.42-9.45-5.58-3.28-11.12-6.65-16.67-9.98.33-.53.66-1.07.99-1.6,3.07,1.82,6.11,3.71,9.23,5.45,3.31,1.85,6.66,3.66,10.06,5.33,3.05,1.5,6.2,2.79,9.3,4.17.25-.42.49-.85.74-1.27-26.68-18.23-45.35-43.18-60.56-71.3-3.04,7.16,3.09,12.41,4.36,18.59-.39.11-.77.23-1.16.34-2.19-5.4-4.39-10.8-6.58-16.2-9.03,4.4-9.54,5.55-6.2,14.24,1.15,2.99,2.5,5.91,3.75,8.85-.41.17-.83.35-1.24.52-2.16-5.24-4.33-10.49-6.5-15.75-7.36,4.96-8.07,7.77-4.01,15.06,1.31,2.36,2.55,4.76,3.83,7.14-.4.19-.8.38-1.21.57-2.34-4.7-4.67-9.41-7.01-14.13-6.59,4.56-6.83,5.94-2.78,12.37,1.23,1.94,2.03,4.15,3.02,6.24-.44.23-.89.46-1.33.69-1.85-3.36-3.69-6.73-5.56-10.12-5.51,4.55-5.85,7.34-1.56,12.27,1.75,2.01,3.58,3.96,5.38,5.93-.36.31-.72.61-1.07.92-2.81-3.09-5.61-6.19-8.42-9.28-.51.1-1.02.21-1.53.31-.73,5.55-1.61,11.09-2.08,16.66-.09,1.07,1.16,2.76,2.24,3.34,7.07,3.76,13.91,8.48,21.47,10.65,19.4,5.58,39.09,10.17,58.76,14.76,5.13,1.2,10.59.95,16.84,1.44-11.74-6.16-22.29-11.7-32.85-17.23.21-.42.42-.84.63-1.26,11.26,4.01,20.44,13.62,33.39,13.09ZM1389.48,501.66c-.24-.11-.49-.21-.73-.32.48-1.12.98-2.24,1.44-3.37,2.83-6.95,1.76-8.77-5.64-10.48-2.22-.51-3.34-.13-3.73,2.15-.22,1.29-.61,2.55-.91,3.82-1.91,8.14-3.83,16.29-5.74,24.43-.39-.09-.77-.17-1.16-.26,2.12-9.48,4.24-18.97,6.37-28.45-.59-.2-1.17-.39-1.76-.59-8.34,28.49-16,57.28-33.98,81.72,4.97-5.45,9.56-11.11,13.48-17.2,3.89-6.05,7.09-12.55,10.6-18.85.46.27.93.54,1.39.82-6.01,10.3-12.02,20.61-18.02,30.89,8.86-5.43,17.8-10.92,26.75-16.4.18.31.36.62.54.93-9.68,6.36-19.35,12.71-29.03,19.07.29.49.59.98.88,1.46,13.63-2.55,25.21-10.44,38.36-14.53-5.71,2.9-11.42,5.8-17.13,8.69.16.34.32.69.48,1.03,4.2-1.55,8.37-3.18,12.61-4.62,16.3-5.52,30.12-15.21,43.41-25.76,3.14-2.5,3.31-3.62,2.19-6.58-4.5,3.96-8.76,8.39-13.69,11.87-4.9,3.46-10.46,5.97-15.74,8.9-.22-.4-.44-.8-.66-1.2,2.18-1.13,4.55-2.01,6.52-3.43,6.69-4.86,13.53-9.58,19.73-15.02,3.87-3.4,3.04-7.34-1.93-11.84-3.74-3.38-3.99,2.21-6.21,2.96-.35.12-.69.28-1.22.51q4.75-8.54.08-10.88c-2.39,1.95-4.72,3.86-7.06,5.77-.18-.23-.35-.46-.53-.69,1.93-2.5,3.86-5,5.91-7.64-2.43-2.64-4.57-4.97-6.88-7.47-1.85,2.06-3.1,3.45-4.35,4.84,3.35-6.62,3.15-7.09-4.79-10.24-1.97,3.1-3.99,6.27-6,9.44q2.93-12.04.34-12.81c-1.4,3.09-2.8,6.2-4.21,9.32ZM1393.13,644.59c-.19.41-.38.82-.58,1.23-4.03-1.82-8.08-3.58-12.08-5.47-2.08-.98-3.78-1.48-4.93,1.29-1.01,2.42-1.4,4.1,1.6,5.65,4.86,2.5,9.43,5.58,14.12,8.42-.19.32-.38.64-.58.96-4.36-2.53-8.82-4.9-13.05-7.63-3.35-2.17-5.52-1.51-7.3,2.09,4.81,3.15,9.53,6.24,14.25,9.34-.22.34-.45.69-.67,1.03-5.75-3.64-11.5-7.28-17.25-10.93-.28.42-.56.84-.84,1.26,2.7,2.4,5.57,4.63,8.05,7.23,7.74,8.12,15.26,16.45,23.01,24.57,6.62,6.93,12.04,6.23,17.26-2.12-1.89-2.32-3.82-4.7-5.75-7.08,8.78,6.26,9.31,6.15,15.17-3.27.44-.7.73-1.49.88-1.8-4.33-7.5-8.45-1.82-12.71-.42,1.68-1.62,3.36-3.23,5.06-4.87-.5-1.08-.95-2.04-1-2.14,1.71-.46,4-.39,4.59-1.36,2.42-3.98,9.59-6.17,5.02-13.01,2.28.86,2.95.3,9.69-7.17-1.39,3.11-2.77,6.23-4.19,9.41,2.51,3.08,4.85,2.65,6.06-.86,1.7-4.93,3.03-10.02,4.14-15.12,1.32-6.06-.62-9.48-6.54-11.43-5.79-1.91-11.72-3.43-17.61-5.06-15.99-4.42-31.97-8.89-47.99-13.16-4.88-1.3-9.92-2.03-14.89-3.02-.06.33-.12.67-.19,1,10.1,2.96,20.19,5.92,30.29,8.88-.15.54-.29,1.09-.44,1.63-9.27-2.4-18.54-4.8-27.82-7.2-.2.57-.41,1.14-.61,1.71,8.45,3.91,16.91,7.82,25.36,11.74-.05.35-.11.71-.16,1.06-1.85-.12-3.89.23-5.51-.43-6.47-2.64-12.81-5.61-19.21-8.44-.89-.39-1.82-.71-2.73-1.06,10.31,8.9,23,11.78,35.74,14.55-.05.47-.1.93-.15,1.4-3.64-.26-7.27-.51-10.35-.73-1.03,10.04,8.91,7.38,13.65,11.05-.18.44-.36.88-.53,1.31-4.45-1.24-8.9-2.47-13.33-3.7-1.81,2.6-.4,3.71,1.79,4.68,4.43,1.95,8.81,4,13.21,6.02ZM1340.88,647.85c5.8,13.16,13.87,25.28,16.62,39.69-6.14-17.34-14.87-33.2-25.9-47.78-.32.18-.65.35-.97.53,3.38,5.68,6.76,11.36,10.13,17.04-.33.19-.65.39-.98.58-1.1-1.29-2.19-2.58-3.97-4.67,2.6,8.01,4.87,15.04,7.15,22.06-.35.12-.7.23-1.05.35-2.56-7.25-5.11-14.49-7.67-21.74-.67.04-1.34.07-2.01.11-.27,1.72-1.08,3.56-.72,5.14,2.61,11.5,5.01,23.09,8.39,34.37,2.06,6.87,5.26,13.53,8.84,19.77,2.62,4.56,7.73,5.4,13.45,3.57-1.99-2.95-3.94-5.82-5.89-8.7,2.96,2.01,4.97,4.79,7.55,6.85,3.71,2.94,6.18-1.01,9.81-2.15-3.24-3.75-6.12-7.09-9-10.43,4.33,2.87,7.05,7.51,13.18,7.76-1.73-2.61-3.46-5.23-5.19-7.84,8.78,8.07,9.51,8.23,13.51,2.41-2.42-2.65-4.87-5.33-7.32-8.01,2.72,1.43,4.68,3.62,7.08,5.12,1.24.78,3.24.34,4.9.45-.17-1.66.05-3.5-.61-4.94-.8-1.74-2.33-3.14-3.55-4.69.37-.3.74-.61,1.1-.91,2.07,2.35,4.14,4.7,6.2,7.05.48,0,.95,0,1.43,0,.43-2.01,1.7-4.32,1.12-5.98-1.31-3.78-2.84-7.89-5.51-10.71-9.4-9.98-19.22-19.59-29.1-29.09-2.63-2.53-6.08-4.21-9.15-6.29-.16.19-.33.38-.49.57,1.03,1.93,2.06,3.87,3.08,5.8-4.75-4.19-8.11-9.49-13.92-12.2,7.29,7.93,13.73,16.35,18.19,26.14-5.75-7.7-11.5-15.4-17.25-23.1-.36.27-.71.53-1.07.8,2.01,3.11,4.01,6.22,6.02,9.33-.32.21-.64.42-.95.62-1.83-2.29-3.66-4.58-5.49-6.87ZM1350,631.2c.33-.57.66-1.14.98-1.71-18.42-13.12-31.13-30.9-41.89-50.31-.45-.81-1.86-1.08-2.83-1.61-.04,1.27-.54,2.75-.06,3.77,7.39,15.7,19.47,28.11,29.98,41.55,3.09,3.95,9.13,5.6,13.82,8.31ZM1301.31,587.96c-.57.58-1.14,1.16-1.71,1.75,11.05,8.82,17.57,22.32,30.66,29.06-4.41-5.45-8.77-10.85-13.14-16.24-.36-.45-.94-1.32-1.12-1.25-4.46,1.81-4.35-2.66-6.13-4.45-2.9-2.91-5.71-5.91-8.56-8.88ZM1434.36,653.05c-2.55,0-4.9-.69-5.68.12-3.09,3.22-5.7,6.92-8.47,10.42,5.2,4.44,5.88,4.33,8.89-1.15,1.47-2.68,2.98-5.33,5.27-9.39ZM1313.87,597.39c-2.85-4.67-6.45-10.57-10.05-16.47-.57.09-1.14.18-1.71.28-.18,1.76-1.18,4.32-.39,5.14,4.11,4.22,8.69,7.98,12.15,11.06ZM1450.35,588.78c-3.54,1.96-5.23,8.87-3.76,14.3,3.86-.99,5.55-7.11,3.76-14.3ZM1446.45,551.68c-4.84,4.38-.97,7.56-.59,10.75.08.68,1.21,1.24,1.85,1.86.55-.91,1.7-1.93,1.54-2.69-.62-3.03-1.65-5.98-2.8-9.91ZM1375.43,624.07c-5.69-2.12-11.37-4.24-18.16-6.77,5.24,6.42,11.12,7.92,18.16,6.77ZM1439.45,545.74c.45-.04.9-.07,1.36-.11.27-1.08,1.12-2.6.7-3.15-1.21-1.6-2.93-2.81-4.45-4.18-.46.42-.91.84-1.37,1.26,1.26,2.06,2.51,4.12,3.77,6.18ZM1317.12,581.14c.37-.2.73-.4,1.1-.6-1.15-2.39.38-6.7-5.31-5.87,1.4,2.16,2.81,4.31,4.21,6.47Z"/><path class="cls-3" d="M1355.95,527.86c2.46-12.15,4.92-24.37,7.36-36.45,1.61,5-3.91,32.47-7.36,36.45Z"/><path class="cls-3" d="M1313.97,500.99c-3.05-11.7-6.1-23.4-9.15-35.1.13-.07.26-.13.39-.2.9,2.04,2.07,4.01,2.66,6.14,2.36,8.67,4.59,17.38,6.73,26.11.23.94-.49,2.1-.77,3.16l.14-.11Z"/><path class="cls-3" d="M1313.83,501.1c.66,1.56,1.52,3.06,1.92,4.68.72,2.89,1.16,5.84,1.72,8.77-.47.08-.94.16-1.4.24-.7-4.6-1.39-9.21-2.1-13.81,0,0-.14.11-.14.11Z"/><path class="cls-3" d="M1241.2,491.42c4.01,14.05,7.18,28.35,16.02,40.51-6.91-3.43-18.27-32.63-16.02-40.51Z"/><path class="cls-3" d="M1292.39,483.76c3.34,9.5,6.68,18.99,10.02,28.49-.41.14-.81.29-1.22.43-3.4-9.47-6.8-18.95-10.2-28.42.47-.16.94-.33,1.41-.49Z"/><path class="cls-3" d="M1238.17,507.45c-1-3.98-2-7.96-3-11.95.37-.1.74-.2,1.11-.29,1.03,3.97,2.07,7.95,3.1,11.92-.41.11-.81.21-1.22.32Z"/><path class="cls-3" d="M1250.69,636.51c-8.56,3.97-17.12,7.93-25.68,11.9-.17-.36-.34-.72-.5-1.08,8.5-3.99,17-7.98,25.51-11.97.23.38.45.77.68,1.15Z"/><path class="cls-3" d="M1215.62,678.38c5.37,1.39,10.74,2.79,16.11,4.18-5.78.3-11.24-.63-16-4.32,0,0-.11.13-.11.13Z"/><path class="cls-3" d="M1262.98,661.35c-3.65,3.25-7.3,6.49-10.95,9.74-.23-.25-.45-.5-.68-.75,3.59-3.28,7.18-6.57,10.78-9.85.29.29.57.57.86.86Z"/><path class="cls-3" d="M1280.63,676.62c-3.02,5.21-6.04,10.42-9.06,15.64,1.89-5.88,4.21-11.5,9.15-15.55l-.09-.08Z"/><path class="cls-3" d="M1280.72,676.7c2.3-4.05,4.6-8.11,6.9-12.16.32.2.65.4.97.6-1.99,4.23-3.78,8.6-7.96,11.48,0,0,.09.09.09.09Z"/><path class="cls-3" d="M1241.16,617.52c-12.96,6.49-26.41,10.16-35.55,9.78,11.69-3.21,23.72-6.52,35.55-9.78Z"/><path class="cls-3" d="M1239.01,611.71c-7.8,1.85-15.61,3.7-23.41,5.54-.09-.38-.18-.77-.27-1.15,7.79-1.92,15.57-3.83,23.36-5.75.11.45.21.91.32,1.36Z"/><path class="cls-3" d="M1232.72,605.79h-21.84c-.01-.2-.03-.41-.04-.61h21.91c-.01.2-.02.41-.03.61Z"/><path class="cls-3" d="M1238.38,600.46c-6.94-1.23-13.88-2.47-20.83-3.7.04-.28.09-.55.13-.83,6.92,1.07,13.85,2.15,20.77,3.22-.03.44-.05.87-.08,1.31Z"/><path class="cls-3" d="M1225.07,585.44c-6.51-1.92-13.01-3.85-19.52-5.77.2-.59.41-1.18.61-1.77,6.27,2.54,12.53,5.08,18.8,7.61l.1-.07Z"/><path class="cls-3" d="M1224.97,585.51c5.59.94,11.19,1.87,16.78,2.81-.12.55-.24,1.1-.36,1.65-5.43-1.52-10.86-3.03-16.31-4.54,0,0-.11.08-.11.08Z"/><path class="cls-3" d="M1417.1,607.27c-12.45.08-22.97-7.39-34.85-10.27.15-.49.3-.99.45-1.48,11.54,3.94,23.08,7.88,34.4,11.75Z"/><path class="cls-3" d="M1431.09,545.28c-10.07,6.5-20.13,13-30.2,19.5-.23-.36-.46-.72-.7-1.07,10.02-6.49,20.03-12.98,30.05-19.47.28.35.57.7.85,1.05Z"/><path class="cls-3" d="M1405.36,568.25c-7.1,2.93-14.21,5.85-21.31,8.78-.16-.39-.32-.77-.48-1.16,7.1-2.96,14.2-5.92,21.3-8.88.16.42.33.84.49,1.25Z"/><path class="cls-3" d="M1197.48,552.88c13.7,8.92,26.34,19.76,44.01,22.19-7.21,2.86-37.4-12.57-44.01-22.19Z"/><path class="cls-3" d="M1257.63,556.56c-7.15-8.65-14.31-17.3-21.46-25.95.35-.29.7-.58,1.04-.87,7.17,8.66,14.34,17.33,21.51,25.99-.36.28-.73.55-1.09.83Z"/><path class="cls-3" d="M1393.79,613.97c14.05,3.15,27.95,6.67,40.64,14.69-13.82-5-27.23-9.84-40.64-14.69Z"/><path class="cls-3" d="M1403.42,667.23c-3.37-3.93-6.62-7.73-9.76-11.4,4.91,1.11,9.61,6.4,9.76,11.4Z"/><path class="cls-3" d="M1399.23,629.29c6.74,1.48,13.49,2.95,20.23,4.43-.08.38-.17.75-.25,1.13-6.8-1.45-13.61-2.9-20.41-4.35.15-.4.29-.8.44-1.21Z"/><path class="cls-3" d="M1408.53,659.23c-4.22-3.41-8.43-6.83-12.65-10.24.24-.31.49-.62.73-.94,4.31,3.31,8.61,6.62,12.92,9.92-.34.42-.67.83-1.01,1.25Z"/><path class="cls-3" d="M1415.97,645.77c-4.71-2.21-9.41-4.41-14.12-6.62.16-.35.32-.71.48-1.06,4.73,2.15,9.47,4.29,14.2,6.44-.19.41-.37.83-.56,1.24Z"/><path class="cls-3" d="M1394.66,665.53c3.55,3.62,7.1,7.24,10.64,10.86-.08.08-.15.15-.23.23-3.38-3.77-6.76-7.55-10.15-11.32-.09.08-.18.16-.27.23Z"/><path class="cls-3" d="M1339.76,590.8c.62,2.92,1.28,5.84,1.83,8.78.27,1.44.32,2.93-.28,4.63-1.97-8.45-4.64-16.45-11.08-22.67.43-.31.86-.61,1.28-.92,2.78,3.42,5.56,6.85,8.35,10.27,0,0-.1-.1-.1-.1Z"/></g></g></g></svg>