<?xml version="1.0" encoding="UTF-8"?><svg id="Layer_2" xmlns="http://www.w3.org/2000/svg" viewBox="0 0 132.14 142.13"><defs><style>.cls-1{fill:#3f4b5c;}.cls-1,.cls-2,.cls-3,.cls-4,.cls-5,.cls-6,.cls-7,.cls-8,.cls-9,.cls-10,.cls-11,.cls-12,.cls-13,.cls-14,.cls-15,.cls-16{stroke-width:0px;}.cls-2{fill:#070707;}.cls-3{fill:#ac891e;}.cls-4{fill:#af8915;}.cls-5{fill:#a98312;}.cls-6{fill:#b8bfcd;}.cls-7{fill:#b9c0cd;}.cls-8{fill:#848b96;}.cls-9{fill:#fec210;}.cls-10{fill:#fe9e06;}.cls-11{fill:#919cb1;}.cls-12{fill:#fdc210;}.cls-13{fill:#040403;}.cls-14{fill:#060401;}.cls-15{fill:#060606;}.cls-16{fill:#050506;}</style></defs><g id="Design"><path class="cls-13" d="M63.17,142.13c-2.42-.08-4.45-.57-6.3-1.62-2.07-1.17-3.22-3.17-4.29-5.2-.43-.81-.77-1.66-1.17-2.48-.06-.13-.21-.24-.34-.3-1.41-.64-2.82-1.28-4.24-1.88-1.29-.55-1.8-1.68-2.14-2.9-.59-2.1-.61-4.24-.15-6.38.04-.17-.02-.39-.1-.55-1.21-2.57-1.27-5.19-.31-7.84.03-.08.05-.21.01-.26-1.3-1.73-.69-3.6-.41-5.44.13-.88.3-1.72,1-2.39.19-.18.28-.66.19-.92-.78-2.29-1.41-4.67-2.49-6.82-1.13-2.26-2.73-4.28-4.09-6.42-1.75-2.75-3.38-5.58-5.22-8.27-2.21-3.22-3.76-6.78-5.64-10.17-.28-.5-.34-.96.15-1.39.08-.07.08-.3.03-.43-1.21-3.41-1.4-6.92-1.02-10.49.09-.87.39-1.81.18-2.61-.6-2.29.74-4.07,1.41-5.99.68-1.97,1.64-3.85,2.57-5.72.91-1.83,1.98-3.58,2.9-5.41.88-1.77,2.25-3.08,3.7-4.34,1.48-1.28,3.03-2.48,4.49-3.78,2.86-2.54,6.16-4.2,9.8-5.3,1.93-.59,3.84-1.21,5.88-1.25,2.37-.04,4.76-.33,7.1-.09,2.22.23,4.43.9,6.58,1.57,2.51.78,5.04,1.6,7.4,2.73,2.13,1.02,4.05,2.46,6.05,3.74.81.52,1.63,1.05,2.36,1.67.31.26.39.78.57,1.19.05.11.08.25.16.31.68.52,1.29,1.07,2.11,1.47.88.42,1.47,1.59,2.04,2.52,1.06,1.74,1.97,3.56,3.03,5.3.96,1.58,1.89,3.15,2.38,4.97.32,1.15,1.05,2.19,1.41,3.33,1.23,3.86,1.99,7.78,1.48,11.88-.12,1,.21,2.05.18,3.07-.02.82-.17,1.66-.42,2.44-1.34,4.16-3.15,8.12-5.28,11.94-.16.28-.56.42-.85.62-.08.06-.2.11-.23.19-.88,2.5-2.58,4.49-4.15,6.55-2.25,2.97-4.49,5.94-6.72,8.92-.9,1.2-1.31,2.59-1.54,4.06-.1.62-.5,1.19-.76,1.79-.04.1-.08.23-.05.34.34,1.56.79,3.1,1.02,4.68.29,1.94.51,3.93-1.19,5.48-.09.08-.06.34-.03.5.48,1.99.32,3.88-.6,5.76-.23.47.09,1.25.24,1.87.3,1.26.16,2.47-.27,3.68-.31.89-.45,1.87-.89,2.69-.29.55-.91,1.08-1.5,1.28-1.03.35-2.15.43-3.22.65-.13.03-.31.25-.31.38,0,3.83-2.14,6.86-5.79,8.13-.81.28-1.64.54-2.49.71-.83.17-1.68.21-2.25.27ZM51.22,127.44c-.09.02-.18.04-.27.05-.68.38-1.37.76-2.05,1.13-.44.24-.99.52-1.25-.05-.12-.27.17-.86.44-1.17.48-.56,1.09-1.02,1.64-1.53.09-.08.14-.21.2-.32-.12.03-.26.03-.37.08-1.03.57-2.06,1.14-3.09,1.72-.05.03-.11.15-.09.19.24.49.37,1.16.77,1.41,1.38.86,2.77,1.84,4.29,2.28,3.32.95,6.73,1.42,10.21,1.01,2.33-.28,4.67-.42,7.01-.62,2.19-.26,4.39-.49,6.57-.81.66-.1,1.65-.31,1.86-.76.82-1.76,1.7-3.57,1.24-5.62-.02-.07-.23-.18-.31-.15-1.61.54-3.19,1.22-4.83,1.61-1.29.31-2.67.27-4.01.38-2.21.04-4.42.09-6.63.11-3.24.02-6.31-.78-9.37-1.77-2.33-.75-4.83-.99-7.01-2.22-.05-.03-.28.12-.28.18,0,.93.04,1.86.07,2.79,0,.08.08.15.12.22.29-.38.6-.75.87-1.14.11-.16.09-.53.19-.55.45-.1.93-.14,1.39-.12.1,0,.28.33.28.51,0,.52-.02.52.59.31.21-.07.42-.18.62-.16.4.04,1.01.05,1.13.29.15.3-.08.81-.16,1.22-.02.09-.09.17-.14.26l-.05.1s.08-.01.12-.02c.42-.14.84-.34,1.28-.41.31-.05.64.09.96.15-.07.33-.12.67-.21,1-.03.12-.16.21-.24.31-.06.09-.11.19-.17.29.11,0,.22-.03.32-.01.28.05.7.04.78.2.12.24.09.65-.04.9-.27.49-.62.95-.99,1.37-.2.23-.53.35-.79.51-.05-.35-.12-.71-.15-1.06,0-.1.08-.21.12-.31.02-.02.04-.03.06-.05-.01-.01-.02-.02-.03-.03-.02.02-.03.04-.05.06-.26.09-.53.24-.79.25-.28.02-.74,0-.83-.17-.12-.21-.02-.63.12-.87.18-.32.5-.57.77-.84.06-.05.12-.09.18-.14,0-.03,0-.05,0-.08-.01,0-.02,0-.03,0,.02.03.04.05.06.08ZM68.27,133.3c-1.17.16-2.34.34-3.51.48-2.29.28-4.59.65-6.9.1-.15-.03-.31,0-.47,0,.06.22.11.44.21.65.01.03.25-.02.38-.07.83-.32,1.35-.14,1.56.51.03.1.29.21.4.17.62-.18,1.32-.32,1.49.45.13.58-.02,1.2.67,1.52.08.04.15.31.1.42-.5,1.14.29.68.76.62.08-.01.19-.05.24-.02.29.18.8.39.8.59,0,.3-.3.76-.58.87-.72.27-1.5.41-2.27.56-.69.13-1.12-.16-1.22-.89-.01-.08-.19-.18-.31-.2-.34-.06-.78.02-1-.16-.2-.16-.18-.61-.24-.94-.02-.09.02-.18.02-.27-.08.03-.15.06-.23.1-.47.24-.98.63-1.44.09-.46-.55.04-.98.33-1.41.03-.04.05-.09.07-.13.01,0,.02-.01.03-.02,0,0,0-.02,0-.02,0,.02-.01.03-.02.05-.38.15-.75.36-1.14.44-.37.07-.76.01-1.14,0,.1-.35.2-.7.29-1.05.03-.13.1-.37.05-.39-.65-.37-.4-.73.03-1.02.3-.2.66-.31.99-.46.07-.03.15-.07.22-.1-.08-.04-.16-.11-.24-.12-1.03-.19-2.06-.38-3.09-.56-.09-.02-.19,0-.28,0,.02.09.04.19.07.28.21.51.44,1.01.64,1.52,1.76,4.4,6.18,6.05,9.95,5.49,3.15-.28,6.02-1.11,7.6-4.18.46-.89.66-1.92.92-2.9.04-.14-.32-.55-.46-.53-1.11.14-2.22.36-3.33.55ZM47.91,110.75c-.54.26-1.06.58-1.62.76-.74.23-.43.56-.08.75,1.54.85,3.02,1.95,4.67,2.4,4.05,1.11,8.16,1.96,12.45,1.47,2.05-.23,4.15,0,6.22.03,3.06.17,6.05-.02,8.83-1.5.95-.51,1.89-1.02,1.73-2.37-.15-1.23-.23-2.47-.36-3.71-.12-1.15-.63-1.37-1.64-.78-1.54.9-3.06,1.85-4.66,2.63-.99.48-2.12.67-3.19.99-.56.05-1.12.12-1.68.15-2.73.15-5.5.6-8.19.35-2.37-.22-4.66-1.26-7.01-1.87-2.72-.7-5.08-2.11-7.43-3.55-.05-.03-.35.18-.37.3-.12,1.02-.2,2.05-.28,3.08,0,.09.04.19.06.28.09-.05.22-.08.27-.16.41-.57.77-1.17,1.21-1.71.17-.2.54-.4.76-.35.2.05.4.41.47.68.04.16-.16.38-.25.58-.05.1-.09.2-.13.3.11-.02.22-.02.32-.05.52-.13,1.03-.3,1.55-.38.49-.07,1.04.19.82.68-.62,1.37.44.53.75.61.28.07.69-.07.86.08.29.25.68.74.6,1-.19.62-.03.56.46.5.26-.03.61.16.79.36.12.14.12.58,0,.71-.17.17-.51.16-.78.22-.23.05-.46.06-.68.12-.51.15-1,.4-1.52.48-.31.05-.85-.05-.93-.23-.11-.25.05-.69.21-.99.14-.26.46-.43.68-.65.09-.1.14-.24.21-.36-.13,0-.27,0-.39.03-.69.23-1.37.53-2.08.7-.27.06-.72-.08-.89-.29-.14-.18.01-.59.08-.89.02-.12.15-.21.23-.32.03-.03.05-.06.08-.09-.05,0-.1,0-.15,0ZM69.57,124.92c2.46-.13,4.86-.53,7.1-1.6,1.91-.91,3.17-4.22,2.32-6.1-.03-.06-.23-.11-.31-.07-2.67,1.24-5.47,1.96-8.42,2.08-1.03-.02-2.06,0-3.09-.06-2.87-.18-5.75-.22-8.58-.65-2.07-.31-4.07-1.1-6.07-1.76-2.23-.74-4.43-1.58-6.65-2.36-.08-.03-.29.09-.31.18-.52,1.82-.43,3.62.29,5.37.09.21.31.39.51.51.82.5,1.64,1.03,2.51,1.44.85.4,1.73.81,2.65.97,2.28.39,4.58.61,6.86.94,1.68.24,3.36.53,5.04.79.48.07,1.05-.05,1.17.65,0,.04.17.09.25.09,1.57-.13,3.15-.26,4.72-.4ZM43.96,32.81c-.82.66-1.76,1.22-2.43,2.01-2.01,2.36-3.89,4.81-5.86,7.2-.35.42-.84.87-1.33.97-.52.11-.72.35-.88.75-1.04,2.5-2.07,5.01-3.1,7.51-.62,1.51-1.49,2.96-1.81,4.53-.38,1.85-.51,3.81-.37,5.7.3,4.09.89,8.12,2.47,12,1.31,3.22,2.8,6.31,4.65,9.25.86,1.37,1.64,2.78,2.48,4.16.63,1.03,1.29,2.05,1.94,3.07.04.07.18.07.26.13.3.23.7.41.86.71.78,1.47,1.5,2.97,2.23,4.46.16.32.23.69.76.49.13-.05.51.19.57.36.78,2.54,1.53,5.08,2.28,7.63.28.94.5,1.81,1.43,2.48,2.7,1.94,5.97,2.28,8.96,3.39.07.03.28-.08.28-.14.03-.33.05-.66,0-.99-.22-1.87-.46-3.73-.69-5.6-.43-3.38-.9-6.77-1.29-10.15-.34-3-.81-6.01-.86-9.03-.13-7.08-.53-14.1-2.2-21.01-.12-.49-.15-.73-.65-.27-.15.14-.65.13-.78,0-.16-.18-.18-.58-.1-.83.07-.25.33-.45.54-.64.4-.38.48-.77.34-1.33-.35-1.42-.64-2.86-.86-4.3-.04-.26.3-.59.47-.89.24.22.63.4.7.66.3,1.12.51,2.27.75,3.41.02.11.08.2.12.31.08-.08.18-.15.23-.24.75-1.47,1.47-2.94,2.24-4.4.12-.22.4-.48.62-.49.17-.01.44.3.53.53,1.19,2.81,2.35,5.64,3.53,8.46.04.09.11.16.16.25.07-.09.17-.17.2-.27.36-1.28.74-2.55,1.04-3.83.4-1.67.62-3.4,1.14-5.03.31-.98,1.31-1.03,1.9-.16.52.76.97,1.61,1.24,2.48.5,1.64.83,3.32,1.24,4.98.04.16.14.3.22.44.11-.12.24-.22.31-.36.82-1.47,1.86-2.63,3.64-2.91.13-.02.31-.32.32-.5.03-1.27.02-2.53.01-3.8,0-.47-.03-1.05.58-.98.27.03.66.61.69.97.11,1.09.11,2.2.08,3.3-.01.61.13.71.74.59.59-.11,1.26-.05,1.85.1.18.05.36.67.29.96-.05.23-.49.46-.78.51-.52.09-1.08-.02-1.6.07-.22.04-.55.36-.56.57-.24,2.72-.43,5.45-.63,8.17-.33,4.48-.78,8.96-.93,13.45-.14,4.29.03,8.58.07,12.87,0,1.33-.01,2.66-.02,3.99-.02,3.21-.04,6.42-.07,9.63,0,.47-.35,1.2.7.65.44-.23,1.1-.01,1.61-.16,1.89-.52,3.58-1.38,4.77-3.02.24-.33.72-.62.76-.96.28-2.95,2.07-5.14,3.68-7.4,1.26-1.77,2.68-3.43,3.95-5.19,1.35-1.87,2.61-3.8,3.93-5.69,1.14-1.63,2.51-3.12,3.41-4.86,1.9-3.67,3.4-7.52,3.88-11.68.23-2.01.53-4.02.6-6.04.08-2.39-.28-4.75-.99-7.06-.5-1.63-.73-3.36-1.34-4.94-.52-1.35-.81-2.8-2.27-3.79-.99-.66-1.47-2.12-2.1-3.27-.57-1.05-.85-2.31-1.58-3.22-1.58-1.98-3.24-3.93-5.12-5.63-1.61-1.46-3.54-2.57-5.35-3.8-2.93-1.99-6.21-3.28-9.65-3.74-3.47-.47-7.03-.38-10.55-.49-1.21-.04-2.43-.01-3.64.1-.85.08-1.72.28-2.53.57-2.67.96-5.33,1.98-7.99,2.98-.64.24-1.34.44-1.32,1.34ZM62.77,110.33c2.02-.24,4.02-.47,6.01-.72.11-.01.26-.16.28-.26.21-1.21.54-2.42.57-3.64.05-2.11-.16-4.22-.15-6.33.02-4.01.07-8.02.19-12.03.18-6.15-.2-12.32.76-18.45.42-2.67.46-5.41.67-8.11.02-.32.02-.64.02-.97-.37.13-.76.22-1.11.39-.19.1-.34.31-.47.5-.49.7-.93,1.42-1.44,2.1-.58.77-1.33.78-1.91,0-.37-.5-.73-1.06-.91-1.65-.56-1.86-1.02-3.75-1.53-5.63-.03-.12-.11-.23-.17-.34-.05.11-.11.22-.13.34-.07.44-.15.89-.19,1.33-.23,2.69-.64,5.34-2.15,7.66-.25.38-.77.82-1.16.81-.33,0-.78-.56-.94-.97-1.05-2.64-2.03-5.31-3.04-7.97-.04-.12-.11-.22-.17-.34-.06.1-.12.19-.18.29-.77,1.36-1.54,2.72-2.29,4.08-.09.17-.14.4-.11.59.67,4.46,1.51,8.89,2,13.37.66,6.07.98,12.18,1.58,18.26.43,4.39,1.1,8.75,1.64,13.13.16,1.27.21,2.55.34,3.82.01.13.15.35.25.36,1.25.14,2.51.26,3.76.38Z"/><path class="cls-15" d="M14.58,33.75c-.01.8-.62,1.1-1.21.78-3.12-1.73-6.24-3.47-9.36-5.21-.87-.48-1.76-.94-2.6-1.47-.26-.17-.36-.57-.54-.86.34-.09.77-.36,1.02-.24,2.17,1.01,4.32,2.04,6.44,3.16,1.94,1.02,3.82,2.15,5.71,3.26.26.15.42.46.54.59Z"/><path class="cls-2" d="M121.85,91.08c-.25.3-.38.59-.56.63-.25.05-.59-.01-.81-.15-2.81-1.84-5.58-3.74-8.41-5.55-.93-.6-2.01-.96-2.98-1.5-.25-.14-.35-.57-.52-.86.31-.12.68-.41.91-.32.97.39,1.93.82,2.82,1.36,2.79,1.69,5.55,3.42,8.29,5.18.46.3.81.78,1.27,1.24Z"/><path class="cls-15" d="M100.73,5.88c.79.19.92.66.66,1.17-.6,1.22-1.14,2.5-1.93,3.6-1.69,2.36-3.52,4.64-5.32,6.92-.13.16-.48.14-.73.2-.04-.28-.21-.64-.09-.82,1.06-1.65,2.18-3.27,3.26-4.91,1.21-1.86,2.39-3.75,3.6-5.62.15-.23.4-.39.56-.54Z"/><path class="cls-2" d="M.45,80.5c-.13-.14-.48-.39-.45-.54.07-.27.33-.65.57-.71,1.26-.31,2.57-.42,3.8-.8,2.35-.72,4.65-1.59,6.99-2.34.32-.1.72.08,1.09.13-.18.32-.27.79-.54.94-3,1.74-6.29,2.56-9.69,3.03-.54.08-1.08.17-1.78.29Z"/><path class="cls-15" d="M122.85,45.17c-.14-.13-.54-.37-.52-.54.04-.29.32-.72.56-.77,1.61-.32,3.23-.59,4.86-.82,1.12-.16,2.25-.29,3.37-.32.33-.01.67.34,1.01.53-.26.29-.49.78-.79.83-1.85.3-3.72.49-5.59.72-.91.11-1.81.23-2.92.37Z"/><path class="cls-2" d="M46.23,1.47c0-.17-.08-.49.02-.75.11-.27.38-.48.58-.71.21.23.57.45.59.71.17,1.52.16,3.06.41,4.56.21,1.26.72,2.47,1.04,3.72.08.3-.09.66-.15.99-.3-.16-.72-.25-.87-.5-1.06-1.81-1.34-3.83-1.47-5.89-.04-.66-.1-1.33-.16-2.12Z"/><path class="cls-12" d="M71.16,94.52c-.04-4.29-.21-8.59-.07-12.87.15-4.49.61-8.97.93-13.45.2-2.72.39-5.45.63-8.17.02-.21.34-.53.56-.57.52-.09,1.08.01,1.6-.07.3-.05.73-.28.78-.51.07-.3-.11-.92-.29-.96-.59-.15-1.25-.22-1.85-.1-.61.12-.76.01-.74-.59.03-1.1.03-2.2-.08-3.3-.04-.36-.42-.94-.69-.97-.61-.07-.58.51-.58.98,0,1.27.01,2.53-.01,3.8,0,.18-.18.48-.32.5-1.78.28-2.82,1.44-3.64,2.91-.08.14-.21.24-.31.36-.07-.15-.18-.29-.22-.44-.41-1.66-.75-3.35-1.24-4.98-.27-.88-.72-1.72-1.24-2.48-.59-.87-1.59-.82-1.9.16-.51,1.63-.74,3.36-1.14,5.03-.31,1.29-.68,2.56-1.04,3.83-.03.1-.13.18-.2.27-.05-.08-.12-.16-.16-.25-1.17-2.82-2.34-5.65-3.53-8.46-.09-.22-.36-.54-.53-.53-.22.01-.5.27-.62.49-.77,1.46-1.49,2.93-2.24,4.4-.05.09-.15.16-.23.24-.04-.1-.1-.2-.12-.31-.25-1.14-.45-2.29-.75-3.41-.07-.26-.46-.45-.7-.66-.17.3-.51.62-.47.89.23,1.44.51,2.88.86,4.3.14.56.06.95-.34,1.33-.2.19-.46.4-.54.64-.08.26-.06.66.1.83.12.14.63.14.78,0,.5-.47.53-.23.65.27,1.67,6.91,2.07,13.94,2.2,21.01.05,3.01.52,6.02.86,9.03.39,3.39.86,6.77,1.29,10.15.24,1.87.47,3.73.69,5.6.04.32.02.66,0,.99,0,.06-.21.17-.28.14-2.99-1.12-6.26-1.45-8.96-3.39-.92-.66-1.15-1.53-1.43-2.48-.75-2.55-1.5-5.09-2.28-7.63-.05-.17-.44-.41-.57-.36-.53.21-.61-.17-.76-.49-.74-1.49-1.45-3-2.23-4.46-.16-.3-.56-.49-.86-.71-.08-.06-.21-.06-.26-.13-.66-1.02-1.31-2.03-1.94-3.07-.84-1.38-1.62-2.79-2.48-4.16-1.84-2.94-3.33-6.03-4.65-9.25-1.58-3.88-2.17-7.91-2.47-12-.14-1.89-.01-3.85.37-5.7.32-1.57,1.19-3.02,1.81-4.53,1.03-2.5,2.07-5.01,3.1-7.51.16-.4.36-.64.88-.75.49-.1.99-.55,1.33-.97,1.97-2.39,3.86-4.85,5.86-7.2.67-.79,1.61-1.35,2.43-2.01,1.37-.13,2.73-.29,4.1-.39,2.28-.16,4.57-.21,6.85-.43,3.16-.31,6.26.16,9.35.69,2.5.43,4.51,1.98,6.62,3.27,2.68,1.64,4.67,3.94,6.47,6.47,2.37,3.31,4.58,6.68,5.74,10.65.76,2.59,1.53,5.17,1.28,7.91-.12,1.29-.25,2.57-.4,3.85-.49,4.31-2.24,8.18-4.22,11.96-.87,1.66-1.84,3.27-2.71,4.93-.67,1.28-1.25,2.61-1.9,3.9-1.03,2.01-2.15,3.97-3.11,6-.43.9-.57,1.93-.84,2.9ZM47.44,86.09s.05.05.07.08c-.73.6-1.51,1.16-2.18,1.83-.3.3-.37.83-.54,1.26.45.1.93.37,1.33.28,1.08-.24,2.14-.63,3.2-.95.14-.04.29-.04.43-.05-.09.11-.17.23-.27.32-.69.6-1.42,1.16-2.08,1.79-.21.2-.36.68-.26.91.11.26.53.47.84.53.41.07.86-.03,1.29-.05.14,0,.29,0,.43,0-.09.11-.16.23-.26.33-.48.48-1.01.93-1.43,1.46-.17.21-.26.67-.15.88.11.22.52.35.81.39.28.04.58-.1.88-.15.09-.02.18,0,.27,0-.05.08-.09.17-.16.24-.45.49-.93.96-1.34,1.48-.43.55-.2,1.3.43,1.31,1.15,0,.54.41.25.8-.12.16-.24.33-.29.52-.16.54-.04,1.01.56,1.13.55.11.55.37.39.79-.38,1.01-.78,2.02-1.09,3.05-.08.26.19.61.3.92.26-.17.65-.28.75-.52.47-1.08.89-2.19,1.27-3.3.22-.65.33-1.33-.26-1.91-.08-.08-.1-.34-.03-.44.38-.58.86-1.1,1.15-1.72.1-.22-.2-.91-.39-.93-1.17-.18-.24-.54-.1-.8.09-.16.29-.27.33-.43.11-.41.34-.91.2-1.23-.13-.29-.68-.39-1.05-.57-.07-.03-.16-.02-.24-.02.05-.08.09-.17.15-.23.33-.37.75-.69.99-1.12.17-.3.23-.8.09-1.09-.11-.22-.6-.32-.94-.34-.36-.03-.72.1-1.08.15-.11.02-.23.02-.34.02.08-.1.14-.21.23-.29.6-.52,1.29-.97,1.79-1.57.28-.33.48-1,.32-1.35-.12-.27-.86-.44-1.28-.38-.88.13-1.74.44-2.6.68-.08.02-.16.02-.24.03.05-.07.1-.15.16-.2.62-.51,1.3-.95,1.84-1.53.3-.33.35-.88.52-1.33-.46-.13-.94-.42-1.38-.36-1.09.14-2.15.43-3.22.66-.13.03-.26.03-.39.05.08-.11.14-.25.24-.34,1.11-.98,2.28-1.9,3.32-2.95.28-.28.44-1.05.26-1.34-.19-.29-.91-.45-1.33-.35-.82.19-1.58.6-2.37.91-.04-.04-.08-.08-.12-.12.5-.34,1.02-.64,1.48-1.01.88-.71,1.76-1.42,2.55-2.22.21-.21.22-.82.06-1.11-.12-.23-.64-.35-.98-.35-.46,0-.93.11-1.37.25-1.77.57-3.53,1.18-5.3,1.77-.15.05-.32.05-.48.07.11-.14.19-.31.32-.41.95-.74,1.93-1.43,2.85-2.2,1.21-1.01,2.42-2.03,3.54-3.13.26-.26.35-.97.18-1.29-.15-.28-.8-.45-1.19-.4-.78.1-1.57.31-2.31.61-1.95.81-3.87,1.69-5.81,2.53-.13.06-.28.06-.42.08.09-.11.17-.24.28-.32,2.09-1.48,4.22-2.92,6.27-4.44,1.07-.79,2.05-1.7,3-2.63.24-.24.36-.85.23-1.15-.11-.25-.7-.47-1.03-.42-1,.15-2.02.33-2.95.69-2.56.98-5.09,2.06-7.63,3.1-.12.05-.25.05-.37.08.09-.09.16-.2.26-.27,2.03-1.48,4.07-2.95,6.09-4.45.85-.63,1.7-1.28,2.5-1.98.16-.14.23-.61.12-.79-.1-.17-.51-.24-.76-.21-.44.05-.89.17-1.3.33-2.77,1.08-5.54,2.18-8.31,3.28-.04-.04-.07-.09-.11-.13,2.43-1.73,4.87-3.43,7.28-5.19,1.46-1.07,2.89-2.2,4.29-3.35.19-.16.29-.7.17-.9-.13-.21-.61-.35-.88-.29-.84.18-1.7.39-2.49.72-2.9,1.21-5.78,2.48-8.66,3.73-.13.06-.28.08-.41.12.09-.12.16-.26.28-.35,2.71-1.94,5.43-3.85,8.13-5.8,1.24-.9,2.46-1.83,3.67-2.77.42-.33.87-.74.53-1.35-.33-.6-.88-.39-1.37-.22-.5.17-1.01.33-1.5.55-2.92,1.29-5.83,2.6-8.75,3.9-.25.11-.52.15-.78.22.19-.18.36-.38.57-.54,2.82-2.28,5.66-4.55,8.46-6.86.29-.24.55-.86.45-1.18-.19-.59-.77-.43-1.23-.22-1.85.87-3.7,1.75-5.55,2.62-.11.05-.23.05-.35.08.08-.08.16-.16.25-.23,1.02-.8,2.08-1.56,3.07-2.4,1.44-1.21,2.86-2.44,4.23-3.73.23-.22.33-.85.18-1.13-.12-.23-.77-.41-1.05-.29-1.6.69-3.17,1.46-4.72,2.25-.16.08-.16.47-.23.71.23.07.5.24.69.18.41-.13.77-.4,1.17-.56.57-.24,1.15-.44,1.73-.65h-.01c-.99.83-1.97,1.69-2.98,2.5-1.58,1.25-3.21,2.44-4.74,3.74-.28.24-.41.93-.27,1.3.08.23.84.45,1.17.34,1.35-.47,2.64-1.08,3.96-1.63.02.02.04.04.06.06-.57.46-1.15.9-1.7,1.38-1.72,1.49-3.46,2.97-5.13,4.51-.26.24-.44.93-.28,1.15.19.28.8.46,1.18.39.71-.12,1.41-.4,2.07-.7,2.68-1.21,5.35-2.46,8.02-3.69.05.05.09.1.14.15-2.97,2.06-5.96,4.09-8.89,6.21-1.13.81-2.14,1.8-3.14,2.77-.21.2-.31.77-.18,1,.12.22.65.37.96.31.58-.1,1.15-.34,1.69-.57,3.41-1.47,6.81-2.95,10.22-4.42.15-.06.33-.05.5-.07-.12.11-.22.25-.35.34-3.47,2.39-6.94,4.77-10.4,7.18-.68.47-1.33,1.01-1.9,1.6-.2.2-.23.75-.09,1.02.1.21.62.38.88.31.85-.23,1.68-.53,2.48-.88,2.7-1.17,5.39-2.36,8.08-3.55.02.02.04.04.05.05-1.39.97-2.77,1.95-4.17,2.9-2.27,1.54-4.56,3.05-6.83,4.61-.48.33-.98.79-.61,1.45.38.68,1.04.48,1.61.28.94-.33,1.91-.63,2.79-1.09,2.91-1.53,5.93-2.79,9.09-3.7.11-.03.22-.04.33-.06-.05.07-.09.15-.16.2-1.54,1.17-3.09,2.32-4.61,3.5-1.49,1.15-2.98,2.29-4.4,3.51-.24.21-.37.86-.23,1.13.15.28.73.51,1.07.45.86-.15,1.7-.43,2.53-.73,1.89-.68,3.77-1.41,5.65-2.12.02.03.05.05.07.08-1.28,1.06-2.57,2.11-3.83,3.19-.69.6-1.39,1.2-1.97,1.9-.25.3-.39.92-.23,1.23.14.28.73.45,1.13.46.5.02,1.02-.14,1.51-.29,1.37-.41,2.73-.86,4.09-1.29.11-.04.24-.02.37-.03-.07.08-.13.19-.22.25-1.04.77-2.1,1.53-3.12,2.32-.79.61-1.58,1.22-2.29,1.91-.2.19-.29.74-.17.98.14.27.58.46.91.51.34.05.73-.08,1.06-.22.9-.37,1.79-.79,2.68-1.2.02.02.05.05.07.07-.67.57-1.42,1.07-1.99,1.73-.33.38-.64,1.08-.5,1.49.12.36.85.56,1.34.74.22.08.53,0,.79-.06.87-.21,1.74-.44,2.61-.66Z"/><path class="cls-10" d="M71.16,94.52c.27-.97.42-2,.84-2.9.97-2.03,2.08-4,3.11-6,.66-1.29,1.23-2.62,1.9-3.9.87-1.66,1.84-3.27,2.71-4.93,1.99-3.78,3.73-7.65,4.22-11.96.15-1.28.28-2.57.4-3.85.25-2.75-.52-5.32-1.28-7.91-1.16-3.97-3.37-7.33-5.74-10.65-1.81-2.53-3.8-4.83-6.47-6.47-2.11-1.29-4.11-2.84-6.62-3.27-3.09-.53-6.18-1-9.35-.69-2.28.22-4.57.27-6.85.43-1.37.1-2.74.26-4.1.39-.02-.9.68-1.1,1.32-1.34,2.66-1,5.31-2.02,7.99-2.98.81-.29,1.67-.49,2.53-.57,1.21-.12,2.43-.14,3.64-.1,3.52.11,7.07.02,10.55.49,3.45.47,6.72,1.75,9.65,3.74,1.81,1.23,3.75,2.34,5.35,3.8,1.87,1.7,3.53,3.65,5.12,5.63.73.91,1.01,2.17,1.58,3.22.63,1.15,1.11,2.61,2.1,3.27,1.46.98,1.75,2.44,2.27,3.79.61,1.58.84,3.31,1.34,4.94.7,2.31,1.07,4.67.99,7.06-.07,2.02-.37,4.03-.6,6.04-.47,4.16-1.97,8.01-3.88,11.68-.9,1.74-2.28,3.24-3.41,4.86-1.32,1.89-2.58,3.83-3.93,5.69-1.28,1.76-2.69,3.42-3.95,5.19-1.61,2.27-3.4,4.45-3.68,7.4-.03.34-.51.63-.76.96-1.19,1.65-2.88,2.5-4.77,3.02-.52.14-1.17-.07-1.61.16-1.05.54-.71-.18-.7-.65.03-3.21.05-6.42.07-9.63,0-1.33.01-2.66.02-3.99Z"/><path class="cls-9" d="M62.77,110.33c-1.25-.12-2.51-.23-3.76-.38-.1-.01-.24-.23-.25-.36-.12-1.27-.18-2.55-.34-3.82-.54-4.38-1.2-8.74-1.64-13.13-.6-6.08-.92-12.19-1.58-18.26-.49-4.48-1.33-8.91-2-13.37-.03-.19.02-.42.11-.59.75-1.37,1.53-2.72,2.29-4.08.06-.1.12-.19.18-.29.06.11.12.22.17.34,1.01,2.66,1.99,5.33,3.04,7.97.16.41.62.97.94.97.39,0,.91-.43,1.16-.81,1.51-2.32,1.92-4.97,2.15-7.66.04-.45.12-.89.19-1.33.02-.12.09-.23.13-.34.06.11.14.22.17.34.51,1.88.98,3.77,1.53,5.63.18.59.53,1.15.91,1.65.58.77,1.33.76,1.91,0,.51-.68.95-1.4,1.44-2.1.13-.19.28-.4.47-.5.35-.17.74-.27,1.11-.39,0,.32,0,.65-.02.97-.21,2.71-.25,5.44-.67,8.11-.96,6.13-.58,12.3-.76,18.45-.12,4.01-.17,8.02-.19,12.03-.01,2.11.2,4.22.15,6.33-.03,1.22-.36,2.43-.57,3.64-.02.1-.17.25-.28.26-1.99.25-3.99.48-6.01.72Z"/><path class="cls-7" d="M69.57,124.92c-1.57.13-3.15.27-4.72.4-.08,0-.24-.04-.25-.09-.13-.71-.69-.58-1.17-.65-1.68-.26-3.36-.55-5.04-.79-2.29-.32-4.59-.55-6.86-.94-.91-.16-1.8-.57-2.65-.97-.87-.41-1.68-.94-2.51-1.44-.2-.12-.43-.31-.51-.51-.72-1.75-.8-3.55-.29-5.37.02-.09.23-.2.31-.18,2.22.78,4.42,1.62,6.65,2.36,2,.66,4,1.45,6.07,1.76,2.83.43,5.72.47,8.58.65,1.03.06,2.06.04,3.09.06-.05,1.92-1.25,3.7-.7,5.7ZM51.32,119.87s.04.05.07.07c-.23.28-.51.53-.69.83-.17.3-.25.65-.36.98.33.05.67.14,1,.14.18,0,.42-.09.54-.22.12-.13.15-.36.18-.55.04-.23,0-.47.06-.69.11-.45.25-.9.38-1.34-.45-.04-.9-.07-1.35-.11-.03,0-.06.02-.1.02-.11,0-.22,0-.34,0,.05-.1.11-.2.13-.31.06-.31.25-.72.12-.91-.16-.22-.58-.28-.9-.36-.15-.04-.33.03-.49.05-.26.03-.51.07-.77.1.12-.2.29-.38.34-.6.06-.28.13-.64,0-.84-.14-.21-.51-.34-.78-.34-.16,0-.35.29-.47.48-.17.28-.25.63-.45.88-.23.3-.62.49-.79.82-.18.35-.19.79-.28,1.19.41.06.85.23,1.23.15.63-.13,1.22-.43,1.82-.65.02.03.05.05.07.08-.39.36-.81.68-1.14,1.09-.2.25-.24.63-.36.96.36.03.75.17,1.06.06.78-.27,1.51-.65,2.26-.99Z"/><path class="cls-7" d="M51.03,127.58c-.26.28-.58.52-.77.84-.14.25-.24.66-.12.87.09.16.54.19.83.17.27-.02.53-.16.79-.25l.02.02c-.04.1-.13.21-.12.31.03.36.1.71.15,1.06.27-.17.59-.29.79-.51.37-.42.73-.88.99-1.37.13-.25.16-.66.04-.9-.08-.16-.51-.15-.78-.2-.1-.02-.22,0-.32.01.06-.1.11-.2.17-.29.08-.11.21-.2.24-.31.09-.33.14-.67.21-1-.32-.06-.65-.19-.96-.15-.44.07-.85.27-1.28.41-.02-.03-.05-.06-.07-.09.05-.09.12-.17.14-.26.08-.41.32-.92.16-1.22-.12-.23-.73-.24-1.13-.29-.2-.02-.42.09-.62.16-.62.2-.59.2-.59-.31,0-.18-.17-.51-.28-.51-.46-.02-.94.02-1.39.12-.1.02-.08.39-.19.55-.27.4-.57.76-.87,1.14-.04-.07-.11-.15-.12-.22-.04-.93-.07-1.86-.07-2.79,0-.06.23-.21.28-.18,2.19,1.23,4.68,1.47,7.01,2.22,3.06.98,6.13,1.79,9.37,1.77,2.21-.02,4.42-.07,6.63-.11-.17.67-.45,1.33-.5,2.01-.08,1.11-.02,2.23-.02,3.34-2.34.2-4.68.35-7.01.62-3.49.42-6.9-.05-10.21-1.01-1.53-.44-2.92-1.42-4.29-2.28-.4-.25-.53-.93-.77-1.41-.02-.04.04-.16.09-.19,1.03-.58,2.05-1.15,3.09-1.72.11-.06.25-.06.37-.08-.07.11-.11.24-.2.32-.55.51-1.15.97-1.64,1.53-.27.31-.57.89-.44,1.17.26.57.81.29,1.25.05.68-.38,1.37-.76,2.05-1.13.03.03.06.06.08.09Z"/><path class="cls-6" d="M69.56,116.17c-2.08-.03-4.18-.27-6.22-.03-4.29.49-8.4-.36-12.45-1.47-1.65-.45-3.14-1.55-4.67-2.4-.35-.19-.66-.53.08-.75.56-.18,1.08-.5,1.62-.76.03.03.05.06.08.09-.08.11-.21.2-.23.32-.06.3-.21.71-.08.89.16.21.61.35.89.29.71-.17,1.38-.47,2.08-.7.12-.04.26-.02.39-.03-.07.12-.12.26-.21.36-.22.23-.54.39-.68.65-.16.29-.32.73-.21.99.08.19.62.28.93.23.52-.08,1.01-.32,1.52-.48.22-.07.46-.07.68-.12.27-.06.61-.05.78-.22.13-.13.13-.57,0-.71-.18-.21-.54-.39-.79-.36-.49.06-.65.12-.46-.5.08-.26-.31-.75-.6-1-.18-.15-.58,0-.86-.08-.31-.08-1.37.76-.75-.61.22-.49-.33-.76-.82-.68-.52.08-1.03.25-1.55.38-.11.03-.22.03-.32.05.04-.1.08-.2.13-.3.09-.19.29-.42.25-.58-.07-.26-.26-.63-.47-.68-.22-.05-.6.14-.76.35-.44.54-.8,1.14-1.21,1.71-.06.08-.18.11-.27.16-.02-.09-.07-.19-.06-.28.08-1.03.16-2.06.28-3.08.01-.12.32-.33.37-.3,2.35,1.44,4.71,2.85,7.43,3.55,2.35.6,4.64,1.65,7.01,1.87,2.7.25,5.46-.2,8.19-.35.56-.03,1.12-.1,1.68-.15-.06.49-.1.98-.18,1.47-.17,1.09-.35,2.19-.53,3.28Z"/><path class="cls-11" d="M69.56,116.17c.18-1.09.36-2.18.53-3.28.07-.49.12-.98.18-1.47,1.07-.32,2.2-.51,3.19-.99,1.6-.77,3.12-1.73,4.66-2.63,1.02-.6,1.52-.38,1.64.78.13,1.24.21,2.48.36,3.71.16,1.35-.78,1.86-1.73,2.37-2.77,1.49-5.77,1.68-8.83,1.5Z"/><path class="cls-11" d="M69.57,124.92c-.55-2,.65-3.78.7-5.7,2.95-.12,5.75-.84,8.42-2.08.08-.04.28.01.31.07.85,1.89-.41,5.19-2.32,6.1-2.24,1.07-4.64,1.47-7.1,1.6Z"/><path class="cls-11" d="M68.67,131.62c0-1.11-.07-2.23.02-3.34.05-.68.32-1.34.5-2.01,1.34-.11,2.72-.07,4.01-.38,1.65-.39,3.22-1.07,4.83-1.61.08-.03.29.08.31.15.46,2.06-.42,3.87-1.24,5.62-.21.45-1.2.66-1.86.76-2.18.33-4.38.55-6.57.81Z"/><path class="cls-8" d="M57.16,136.32s-.04.09-.07.13c-.29.43-.79.86-.33,1.41.46.54.97.15,1.44-.09.07-.04.15-.07.23-.1,0,.09-.04.19-.02.27.06.32.04.77.24.94.23.18.66.1,1,.16.12.02.3.12.31.2.1.74.53,1.02,1.22.89.77-.14,1.54-.29,2.27-.56.28-.11.58-.57.58-.87,0-.2-.51-.4-.8-.59-.06-.04-.16,0-.24.02-.47.06-1.25.52-.76-.62.05-.11-.01-.38-.1-.42-.69-.32-.55-.94-.67-1.52-.17-.77-.87-.64-1.49-.45-.11.03-.37-.08-.4-.17-.22-.64-.74-.82-1.56-.51-.12.05-.36.1-.38.07-.1-.2-.15-.43-.21-.65.16,0,.32-.03.47,0,2.31.55,4.6.18,6.9-.1,1.17-.14,2.34-.32,3.51-.48-.33.68-.58,1.43-1.02,2.04-1.2,1.7-2.47,3.35-3.72,5.02-3.77.56-8.18-1.09-9.95-5.49-.2-.51-.43-1.01-.64-1.52-.04-.09-.05-.19-.07-.28.09,0,.19-.02.28,0,1.03.18,2.06.37,3.09.56.08.02.16.08.24.12-.07.03-.15.07-.22.1-.33.15-.69.26-.99.46-.43.29-.68.65-.03,1.02.04.03-.02.26-.05.39-.09.35-.19.7-.29,1.05.38,0,.77.07,1.14,0,.39-.08.76-.29,1.14-.44h0Z"/><path class="cls-1" d="M63.53,140.36c1.24-1.67,2.52-3.32,3.72-5.02.43-.61.68-1.36,1.02-2.04,1.11-.19,2.21-.41,3.33-.55.14-.02.49.4.46.53-.26.98-.46,2.01-.92,2.9-1.58,3.07-4.45,3.9-7.6,4.18Z"/><path class="cls-7" d="M51.21,127.44c-.06.05-.12.09-.18.14-.03-.03-.06-.06-.08-.09.09-.02.18-.04.27-.05h-.01Z"/><path class="cls-7" d="M50.92,126.28s-.08.01-.12.02c.02-.03.03-.07.05-.1.02.03.05.06.07.09Z"/><path class="cls-7" d="M51.22,127.44s-.04-.05-.06-.08c.01,0,.02,0,.03,0,0,.03,0,.05.01.08,0,0,.01,0,.01,0Z"/><path class="cls-7" d="M51.76,129.21s.03-.04.05-.06c.01.01.02.02.03.03-.02.02-.04.03-.06.05,0,0-.02-.02-.02-.02Z"/><path class="cls-8" d="M57.17,136.32s.01-.03.02-.05c0,0,0,.02,0,.02,0,0-.02.02-.03.02,0,0,0,0,0,0Z"/><path class="cls-6" d="M47.91,110.75c.05,0,.1,0,.15,0-.03.03-.05.06-.08.09-.03-.03-.05-.06-.08-.09Z"/><path class="cls-14" d="M45.12,72.97c-1.88.71-3.76,1.43-5.65,2.12-.82.3-1.67.58-2.53.73-.34.06-.92-.18-1.07-.45-.15-.27-.02-.92.23-1.13,1.43-1.22,2.92-2.36,4.4-3.51,1.53-1.18,3.08-2.33,4.61-3.5.07-.05.1-.13.16-.2-.11.02-.22.03-.33.06-3.16.91-6.17,2.17-9.09,3.7-.88.46-1.85.76-2.79,1.09-.57.2-1.23.39-1.61-.28-.37-.67.13-1.13.61-1.45,2.26-1.55,4.56-3.06,6.83-4.61,1.4-.95,2.78-1.93,4.17-2.9.02-.03.05-.05.07-.08-.04,0-.08.02-.12.02-2.69,1.19-5.38,2.38-8.08,3.55-.8.35-1.64.65-2.48.88-.26.07-.78-.1-.88-.31-.13-.27-.1-.82.09-1.02.57-.6,1.22-1.13,1.9-1.6,3.46-2.41,6.93-4.79,10.4-7.18.13-.09.24-.22.35-.34-.17.02-.35.01-.5.07-3.41,1.47-6.81,2.95-10.22,4.42-.55.24-1.11.47-1.69.57-.31.05-.83-.09-.96-.31-.13-.24-.03-.8.18-1,1-.97,2.01-1.96,3.14-2.77,2.93-2.11,5.92-4.14,8.89-6.21.13-.1.26-.21.39-.31.01,0,.02-.02.03-.03,0,0,0-.02-.01-.03,0,.02-.01.04-.02.06-.18.05-.36.11-.54.16-2.67,1.23-5.34,2.48-8.02,3.69-.66.3-1.36.58-2.07.7-.38.07-.98-.11-1.18-.39-.16-.22.02-.91.28-1.15,1.68-1.54,3.41-3.02,5.13-4.51.55-.48,1.13-.92,1.7-1.38.03-.03.06-.06.1-.08-.05,0-.11.01-.16.02-1.32.56-2.61,1.16-3.96,1.63-.33.12-1.09-.1-1.17-.34-.13-.37,0-1.06.27-1.3,1.54-1.3,3.17-2.48,4.74-3.74,1.02-.81,1.99-1.66,2.98-2.5,0-.03,0-.05,0-.08-.01,0-.02.02-.03.03.02.02.04.04.05.05-.58.22-1.16.41-1.73.65-.4.17-.76.44-1.17.56-.19.06-.46-.11-.69-.18.07-.24.07-.63.23-.71,1.56-.79,3.12-1.56,4.72-2.25.28-.12.94.06,1.05.29.15.28.05.91-.18,1.13-1.37,1.29-2.79,2.52-4.23,3.73-.99.83-2.05,1.6-3.07,2.4-.09.07-.17.15-.25.23.12-.02.25-.03.35-.08,1.85-.87,3.7-1.75,5.55-2.62.46-.22,1.04-.37,1.23.22.1.32-.16.94-.45,1.18-2.8,2.32-5.63,4.58-8.46,6.86-.2.16-.38.36-.57.54.26-.07.54-.11.78-.22,2.92-1.3,5.83-2.61,8.75-3.9.49-.22,1-.38,1.5-.55.49-.17,1.04-.38,1.37.22.34.61-.11,1.02-.53,1.35-1.21.94-2.42,1.88-3.67,2.77-2.7,1.95-5.42,3.86-8.13,5.8-.12.08-.19.23-.28.35.14-.04.28-.06.41-.12,2.89-1.25,5.76-2.51,8.66-3.73.79-.33,1.64-.54,2.49-.72.28-.06.76.08.88.29.12.2.02.74-.17.9-1.4,1.15-2.82,2.28-4.29,3.35-2.41,1.76-4.85,3.46-7.28,5.19-.11.09-.21.18-.32.26.14-.04.29-.09.43-.13,2.77-1.1,5.54-2.2,8.31-3.28.42-.16.86-.28,1.3-.33.26-.03.67.04.76.21.11.19.04.65-.12.79-.8.7-1.64,1.35-2.5,1.98-2.02,1.49-4.06,2.96-6.09,4.45-.1.07-.17.18-.26.27.12-.03.26-.03.37-.08,2.54-1.04,5.07-2.12,7.63-3.1.94-.36,1.95-.54,2.95-.69.33-.05.92.17,1.03.42.13.31.01.91-.23,1.15-.94.93-1.93,1.84-3,2.63-2.06,1.53-4.18,2.96-6.27,4.44-.11.08-.19.21-.28.32.14-.03.29-.03.42-.08,1.94-.85,3.86-1.73,5.81-2.53.73-.3,1.52-.51,2.31-.61.39-.05,1.04.12,1.19.4.17.32.08,1.03-.18,1.29-1.12,1.1-2.33,2.12-3.54,3.13-.92.77-1.9,1.46-2.85,2.2-.13.1-.21.27-.32.41.16-.02.33-.02.48-.07,1.77-.59,3.53-1.2,5.3-1.77.44-.14.91-.25,1.37-.25.34,0,.85.12.98.35.16.29.15.9-.06,1.11-.79.8-1.67,1.51-2.55,2.22-.46.38-.99.68-1.48,1.01-.15.12-.29.24-.44.35.19-.08.37-.16.56-.23.79-.32,1.55-.72,2.37-.91.42-.1,1.14.06,1.33.35.18.29.02,1.05-.26,1.34-1.05,1.04-2.21,1.97-3.32,2.95-.1.09-.16.22-.24.34.13-.02.26-.02.39-.05,1.07-.23,2.14-.52,3.22-.66.44-.06.92.23,1.38.36-.16.45-.22,1-.52,1.33-.54.58-1.22,1.02-1.84,1.53-.06.05-.11.13-.16.2.08,0,.16,0,.24-.03.87-.23,1.72-.55,2.6-.68.42-.06,1.15.1,1.28.38.15.34-.04,1.01-.32,1.35-.51.6-1.19,1.05-1.79,1.57-.09.08-.15.2-.23.29.11,0,.23,0,.34-.02.36-.05.73-.18,1.08-.15.33.03.83.12.94.34.14.29.08.79-.09,1.09-.24.42-.65.75-.99,1.12-.06.07-.1.16-.15.23.08,0,.17,0,.24.02.37.18.92.28,1.05.57.14.32-.09.82-.2,1.23-.05.16-.24.27-.33.43-.15.27-1.07.63.1.8.19.03.49.72.39.93-.29.62-.77,1.14-1.15,1.72-.07.1-.05.36.03.44.6.58.49,1.26.26,1.91-.38,1.12-.8,2.22-1.27,3.3-.1.24-.5.35-.75.52-.11-.31-.38-.67-.3-.92.3-1.03.7-2.04,1.09-3.05.16-.43.15-.68-.39-.79-.6-.12-.71-.6-.56-1.13.05-.19.17-.36.29-.52.3-.39.9-.79-.25-.8-.62,0-.85-.76-.43-1.31.41-.52.89-.99,1.34-1.48.06-.07.11-.16.16-.24-.09,0-.19-.02-.27,0-.29.05-.6.19-.88.15-.29-.04-.7-.17-.81-.39-.11-.22-.03-.67.15-.88.43-.53.95-.97,1.43-1.46.1-.1.18-.22.26-.33-.14,0-.29,0-.43,0-.43.02-.87.13-1.29.05-.31-.06-.73-.27-.84-.53-.1-.23.05-.71.26-.91.65-.64,1.38-1.2,2.08-1.79.11-.09.18-.22.27-.32-.14.02-.3.01-.43.05-1.07.32-2.12.71-3.2.95-.4.09-.89-.17-1.33-.28.17-.43.24-.96.54-1.26.66-.67,1.45-1.22,2.18-1.83.03-.04.06-.08.09-.12-.05.01-.11.03-.16.04-.87.22-1.74.45-2.61.66-.26.06-.56.15-.79.06-.49-.19-1.22-.38-1.34-.74-.14-.4.17-1.11.5-1.49.57-.65,1.32-1.16,1.99-1.73.02-.03.04-.07.05-.1-.04,0-.08.02-.13.03-.89.4-1.78.82-2.68,1.2-.33.14-.72.27-1.06.22-.33-.04-.77-.24-.91-.51-.13-.24-.04-.78.17-.98.71-.69,1.5-1.3,2.29-1.91,1.03-.79,2.08-1.54,3.12-2.32.09-.06.14-.17.22-.25-.12,0-.25,0-.37.03-1.36.43-2.72.88-4.09,1.29-.49.15-1.01.3-1.51.29-.4-.01-1-.18-1.13-.46-.15-.31-.01-.94.23-1.23.58-.7,1.28-1.31,1.97-1.9,1.26-1.08,2.55-2.13,3.83-3.19.01-.03.03-.07.04-.1-.04,0-.08.02-.12.03ZM41.03,78.34l-.02.03h.03s-.01-.03-.01-.03ZM33.73,59.7s.02-.02.04-.03c-.02-.01-.04-.03-.06-.03,0,0-.02.02-.03.03.02.01.04.02.06.03Z"/><path class="cls-4" d="M43.03,51.18c.18-.05.36-.11.54-.16h0c-.13.1-.26.2-.39.31-.05-.05-.09-.1-.14-.15Z"/><path class="cls-3" d="M45.28,81.03c-.19.08-.37.16-.56.23.15-.12.29-.24.44-.35.04.04.08.08.12.12Z"/><path class="cls-16" d="M49.42,118.67c-.61.23-1.2.52-1.82.65-.38.08-.82-.09-1.23-.15.09-.4.1-.84.28-1.19.17-.32.56-.51.79-.82.2-.26.28-.6.45-.88.12-.19.32-.48.47-.48.27,0,.64.14.78.34.13.2.06.57,0,.84-.05.21-.22.4-.34.6.26-.03.51-.07.77-.1.16-.02.34-.09.49-.05.32.08.74.14.9.36.13.19-.06.6-.12.91-.02.11-.09.21-.13.31.11,0,.22,0,.34,0,.03,0,.07-.02.1-.02.45.04.9.07,1.35.11-.13.45-.27.89-.38,1.34-.05.22-.02.46-.06.69-.03.19-.06.42-.18.55-.12.13-.36.22-.54.22-.33,0-.67-.09-1-.14.12-.33.19-.68.36-.98.18-.31.45-.56.69-.83.02-.02.04-.05.06-.07-.04,0-.08,0-.13,0-.75.34-1.49.72-2.26.99-.31.11-.7-.03-1.06-.06.11-.32.16-.7.36-.96.32-.41.75-.73,1.14-1.09.01-.03.03-.07.04-.1-.04,0-.08.02-.12.02ZM50.63,119.08l.02-.03h-.03s.01.03.01.03Z"/><path class="cls-5" d="M34.69,64.91c-.14.04-.29.09-.43.13.11-.09.21-.18.32-.26.04.04.07.09.11.13Z"/><path class="cls-12" d="M47.44,86.09c.05-.01.11-.03.16-.04-.03.04-.06.08-.09.12-.02-.03-.05-.05-.07-.08Z"/><path class="cls-12" d="M45.13,82.78s.08-.02.13-.03c-.02.03-.04.07-.05.1-.02-.02-.05-.05-.07-.07Z"/><polygon class="cls-12" points="41.03 78.34 41.05 78.37 41.01 78.36 41.03 78.34"/><path class="cls-12" d="M45.12,72.97s.08-.02.12-.03c-.01.03-.03.07-.04.1-.02-.03-.05-.05-.07-.08Z"/><path class="cls-12" d="M43.02,62.57s.08-.02.12-.02c-.02.03-.05.05-.07.08-.02-.02-.04-.04-.05-.05Z"/><path class="cls-12" d="M33.73,59.7s-.04-.02-.06-.03c.01-.01.02-.03.03-.03.02,0,.04.02.06.03-.01.01-.02.02-.04.03Z"/><path class="cls-4" d="M43.57,51.02s.01-.04.02-.06c0,0,.01.02.01.03,0,.01-.02.02-.03.03h0Z"/><path class="cls-12" d="M38.82,48.07c.05,0,.11-.01.16-.02-.03.03-.06.06-.1.08-.02-.02-.04-.04-.06-.06Z"/><path class="cls-12" d="M41.7,41.83s-.04-.04-.05-.05c.01,0,.02-.02.03-.03,0,.03,0,.05,0,.08,0,0,.01,0,.01,0Z"/><path class="cls-7" d="M49.42,118.67s.08-.02.12-.02c-.01.03-.03.07-.04.1-.02-.03-.05-.05-.07-.08Z"/><polygon class="cls-7" points="50.63 119.08 50.62 119.05 50.65 119.05 50.63 119.08"/><path class="cls-7" d="M51.32,119.87s.08,0,.13,0c-.02.02-.04.05-.06.07-.02-.02-.05-.05-.07-.07Z"/></g></svg>