<?xml version="1.0" encoding="UTF-8"?><svg id="Layer_2" xmlns="http://www.w3.org/2000/svg" viewBox="0 0 65.25 61.97"><defs><style>.cls-1{fill:none;stroke:#5289b1;stroke-miterlimit:10;stroke-width:1.9px;}</style></defs><g id="Design"><path class="cls-1" d="M48.67,27.01c0-5.15,3.51-9.35,7.82-9.35s7.82,4.19,7.82,9.35c0,5.15-3.51,9.35-7.82,9.35-4.31,0-7.82-4.19-7.82-9.35Z"/><path class="cls-1" d="M8.77,17.66c4.31,0,7.82,4.19,7.82,9.35,0,5.15-3.51,9.35-7.82,9.35-4.31,0-7.82-4.19-7.82-9.35,0-5.15,3.51-9.35,7.82-9.35Z"/><path class="cls-1" d="M42.57,19.58c-.31,0-.63-.02-.95-.07-2.07-.3-3.87-1.55-5.08-3.51-1.2-1.96-1.67-4.39-1.31-6.86.74-5.1,4.81-8.74,9.08-8.12,4.27.62,7.13,5.27,6.39,10.37-.69,4.72-4.23,8.19-8.13,8.19Z"/><path class="cls-1" d="M23.63,19.51c-.33.05-.67.08-1,.08-1.73,0-3.43-.68-4.88-1.96-1.72-1.52-2.87-3.72-3.25-6.18-.77-5.09,2.06-9.77,6.32-10.41,4.26-.65,8.36,2.97,9.13,8.06.37,2.46-.07,4.9-1.26,6.87-1.19,1.97-2.99,3.23-5.06,3.55Z"/><path class="cls-1" d="M14.5,37.82l.03-.02h0c.74-.55,1.55-1.04,2.39-1.45.8-.39,1.54-.9,2.21-1.54.02-.01.04-.03.06-.05.69-.66,1.27-1.43,1.72-2.29l.12-.22c.21-.39.37-.75.49-1.08.34-.92.75-1.8,1.21-2.61,2.29-4,5.96-6.39,9.81-6.39,3.82,0,7.35,2.24,9.68,6.15l.02.03c.53.89.98,1.86,1.35,2.87.36.99.9,1.89,1.6,2.66l.11.12c.95,1.01,2.06,1.83,3.28,2.44,4.66,2.32,7.55,6.8,7.55,11.67,0,4.33-2.31,8.4-6.17,10.89h0c-1.11.71-2.32,1.28-3.59,1.68h0s-.03,0-.03,0c-1.07.22-2.28.34-3.5.34-2.13,0-4.17-.36-5.6-.99h-.03c-.33-.16-.62-.32-.88-.49-.9-.61-1.8-.97-2.69-1.07-.48-.06-.99-.07-1.48-.05-1.05.05-2.05.37-2.88.91-1.42.93-4.15,1.51-7.13,1.51-.48,0-.96-.01-1.43-.04-1.33-.08-2.63-.44-3.87-1.07-.89-.45-2.1-1.11-2.79-1.67-3.11-2.52-4.89-6.15-4.89-9.96,0-4,1.94-7.75,5.31-10.29Z"/><path class="cls-1" d="M34.88,30.81h-4.42c-.76,0-1.37.62-1.37,1.37v6.25h-6.25c-.76,0-1.37.62-1.37,1.37v4.43c0,.76.62,1.37,1.37,1.37h6.25v6.25c0,.76.62,1.37,1.37,1.37h4.42c.76,0,1.37-.62,1.37-1.37v-6.25h6.25c.76,0,1.37-.62,1.37-1.37v-4.43c0-.76-.62-1.37-1.37-1.37h-6.25v-6.25c0-.76-.62-1.37-1.37-1.37Z"/></g></svg>