<?xml version="1.0" encoding="UTF-8"?><svg id="Layer_2" xmlns="http://www.w3.org/2000/svg" viewBox="0 0 98.96 52"><defs><style>.cls-1{fill:#5289b1;stroke-width:0px;}</style></defs><g id="Design"><path class="cls-1" d="M71.24,46.52h-27.66l-.16-.81s0-.05-.01-.07c0-.02,0-.03,0-.05-.64-2.92-3.27-5.03-6.26-5.03s-5.62,2.11-6.26,5.03c0,.02,0,.04-.01.05,0,.02,0,.05-.01.07l-.16.81h-14.25v-18.52c0-.56.45-1.01,1.01-1.01s1.01.45,1.01,1.01v16.5h10.61c.49-1.59,1.44-3.02,2.75-4.08,1.5-1.22,3.39-1.89,5.32-1.89s3.82.67,5.32,1.89c1.3,1.06,2.26,2.49,2.75,4.08h24.02V2.02H18.45v3.07c0,.56-.45,1.01-1.01,1.01s-1.01-.45-1.01-1.01V0h54.82v46.52Z"/><path class="cls-1" d="M94.23,46.52h-4.56l-.17-.81s-.01-.05-.02-.08c0-.02,0-.03,0-.05-.64-2.92-3.27-5.03-6.26-5.03s-5.62,2.11-6.26,5.03c0,.02,0,.04-.01.05,0,.03,0,.05-.01.08l-.16.81h-7.55v-30.14h9.26c2.57,0,5.02.96,6.91,2.7l13.57,12.49v10.22c0,2.61-2.12,4.73-4.73,4.73ZM91.28,44.5h2.95c1.49,0,2.71-1.22,2.71-2.71v-9.33l-12.92-11.89c-1.52-1.39-3.48-2.16-5.54-2.16h-7.23v26.09h3.9c.49-1.59,1.44-3.02,2.75-4.08,1.5-1.22,3.39-1.89,5.32-1.89s3.82.67,5.32,1.89c1.3,1.06,2.26,2.49,2.75,4.08Z"/><path class="cls-1" d="M37.13,52c-2.77,0-5.03-2.26-5.03-5.03,0-.37.04-.74.12-1.09.24-1.1.86-2.1,1.74-2.81.89-.73,2.02-1.13,3.17-1.13s2.28.4,3.17,1.13c.88.72,1.5,1.72,1.74,2.82.08.35.12.72.12,1.08,0,2.77-2.26,5.03-5.03,5.03ZM37.13,43.96c-1.4,0-2.64.99-2.93,2.36-.05.21-.07.43-.07.65,0,1.66,1.35,3.01,3.01,3.01s3.01-1.35,3.01-3.01c0-.22-.02-.44-.07-.65-.3-1.37-1.53-2.36-2.94-2.36Z"/><path class="cls-1" d="M83.21,52c-2.77,0-5.03-2.26-5.03-5.03,0-.37.04-.73.12-1.09.24-1.1.86-2.1,1.74-2.81.89-.73,2.02-1.13,3.17-1.13s2.28.4,3.17,1.13c.88.72,1.5,1.72,1.74,2.82.08.35.12.72.12,1.08,0,2.77-2.26,5.03-5.03,5.03ZM83.21,43.96c-1.4,0-2.64.99-2.93,2.36-.05.21-.07.43-.07.65,0,1.66,1.35,3.01,3.01,3.01s3.01-1.35,3.01-3.01c0-.22-.02-.44-.07-.65-.3-1.37-1.53-2.36-2.94-2.36Z"/><path class="cls-1" d="M96.14,31.75c-.05,0-.1,0-.16-.01l-21.67-3.35v-7.34c0-.56.45-1.01,1.01-1.01s1.01.45,1.01,1.01v5.61l19.96,3.08c.55.09.93.6.85,1.15-.08.5-.51.86-1,.86Z"/><path class="cls-1" d="M25.75,10.59H1.01c-.56,0-1.01-.45-1.01-1.01s.45-1.01,1.01-1.01h24.74c.56,0,1.01.45,1.01,1.01s-.45,1.01-1.01,1.01Z"/><path class="cls-1" d="M29.7,17.42h-13.49c-.56,0-1.01-.45-1.01-1.01s.45-1.01,1.01-1.01h13.49c.56,0,1.01.45,1.01,1.01s-.45,1.01-1.01,1.01ZM9.46,17.42h-2.02c-.56,0-1.01-.45-1.01-1.01s.45-1.01,1.01-1.01h2.02c.56,0,1.01.45,1.01,1.01s-.45,1.01-1.01,1.01Z"/><path class="cls-1" d="M33.64,24.26H8.9c-.56,0-1.01-.45-1.01-1.01s.45-1.01,1.01-1.01h24.74c.56,0,1.01.45,1.01,1.01s-.45,1.01-1.01,1.01Z"/><path class="cls-1" d="M51.17,17.42c-.31,0-.61-.14-.81-.4l-4.36-5.77c-.34-.45-.25-1.08.2-1.42.45-.34,1.08-.25,1.42.2l4.36,5.77c.34.45.25,1.08-.2,1.42-.18.14-.4.2-.61.2Z"/><path class="cls-1" d="M57.3,17.55s-.01,0-.02,0l-6.13-.13c-.56-.01-1-.47-.99-1.03.01-.55.46-.99,1.01-.99,0,0,.01,0,.02,0l6.13.13c.56.01,1,.47.99,1.03-.01.55-.46.99-1.01.99Z"/><path class="cls-1" d="M51.17,27.49h0s-.09,0-.14,0c-.56,0-1.01-.46-1-1.02,0-.56.46-1,1.01-1,0,0,0,0,0,0,.04,0,.08,0,.12,0,.56,0,1.01.45,1.01,1.01s-.45,1.01-1.01,1.01ZM54.96,26.75c-.4,0-.78-.24-.94-.63-.21-.52.04-1.11.56-1.32,1.09-.44,2.06-1.08,2.91-1.91.01-.01.03-.03.04-.04.01-.01.03-.03.04-.04.83-.83,1.49-1.8,1.94-2.88.22-.51.81-.76,1.33-.54.51.22.76.81.54,1.33-.56,1.32-1.36,2.51-2.38,3.53-.02.02-.03.03-.05.05-.02.02-.03.03-.05.05-1.03,1.01-2.23,1.79-3.56,2.33-.12.05-.25.08-.38.08ZM47.26,26.71c-.13,0-.26-.03-.39-.08-1.32-.56-2.51-1.36-3.53-2.37-.02-.02-.03-.03-.05-.05-.02-.02-.03-.03-.05-.05-1.01-1.03-1.79-2.23-2.33-3.56-.21-.52.04-1.11.55-1.32s1.11.04,1.32.55c.44,1.09,1.08,2.06,1.91,2.91.01.01.03.03.04.04.01.01.03.03.04.04.83.83,1.8,1.49,2.88,1.94.51.22.76.81.54,1.33-.16.39-.54.62-.93.62ZM61.23,17.55s0,0-.01,0c-.56,0-1.01-.47-1-1.02,0-.04,0-.08,0-.12v-.02c0-.56.45-1.01,1.01-1.01s1.01.45,1.01,1.01v.02s0,.09,0,.14c0,.55-.46,1-1.01,1ZM41.1,17.43c-.56,0-1.01-.45-1.01-1.01h0c0-.05,0-.1,0-.14,0-.55.46-1,1.01-1h.01c.56,0,1.01.46,1,1.02,0,.04,0,.07,0,.11h0c0,.57-.45,1.02-1.01,1.02ZM60.49,13.61c-.4,0-.78-.24-.94-.63-.44-1.08-1.09-2.06-1.91-2.9-.01-.01-.03-.03-.04-.04-.01-.01-.03-.03-.04-.04-.83-.83-1.81-1.48-2.89-1.94-.52-.22-.76-.81-.54-1.32.22-.52.81-.76,1.32-.54,1.32.56,2.51,1.35,3.53,2.37.02.02.03.03.05.05.02.02.03.03.05.05,1.01,1.03,1.79,2.23,2.34,3.55.21.52-.04,1.11-.55,1.32-.13.05-.26.08-.38.08ZM41.88,13.52c-.13,0-.26-.03-.39-.08-.52-.22-.76-.81-.54-1.33.56-1.32,1.35-2.51,2.37-3.53.02-.02.03-.03.05-.05.02-.02.03-.03.05-.05,1.03-1.01,2.23-1.79,3.55-2.34.52-.21,1.11.04,1.32.55.21.52-.04,1.11-.55,1.32-1.08.44-2.06,1.09-2.91,1.91-.01.01-.03.03-.04.04-.01.01-.03.03-.04.04-.83.83-1.48,1.8-1.94,2.89-.16.39-.54.62-.93.62ZM51.28,7.36h-.01s-.07,0-.1,0h-.02c-.56,0-1.01-.45-1.01-1.01s.45-1.01,1.01-1.01h.02s.08,0,.12,0c.56,0,1.01.46,1,1.02,0,.55-.46,1-1.01,1Z"/></g></svg>