<?xml version="1.0" encoding="UTF-8"?><svg id="Layer_2" xmlns="http://www.w3.org/2000/svg" viewBox="0 0 91.62 75.1"><defs><style>.cls-1{fill:#5289b1;stroke-width:0px;}</style></defs><g id="Design"><path class="cls-1" d="M91.31,2.94c-.35-.49-.56-1.43-1.33-1.03,0,0,0,0,0,0,0,0,0,0,0,0-.61,1.4-1.51,1.15-.2.08,0,0,0,0,0,0,.02-.02.05-.03.08-.05-2.32.47-5.79,2.45-7.55.02-.72-.5-1.44-1.01-2.29-1.26,0,0,0,0,0,0-2.93-.58-6.28.75-8.26,2.92,0,0,0,0,0-.01-.44.82-.15-1.07.45-1.21,2.8-1.79,7.84-4.12,10.09-.44,3.73,2.43,9.52-3.52,9.01.98Z"/><path class="cls-1" d="M88.97,3.06c.46-.28.99.31,1.48.08.05-.02.14-.08.19-.03.04.02,0,.17-.02.12-.25.59-.92.29-1.28-.02,0,0,0,0,0,0-.08-.05-.17-.11-.26-.14,0,0,0,0,0,0-.02,0-.05-.01-.07-.02,0,0,0,0,0,0,0,0,0,0,0,0,0,0,0,0,0,0-.02,0-.03,0-.04,0Z"/><path class="cls-1" d="M91.39,4.32c-.17.16-.54.23-.28-.06,0,0,0,0,0,0,.07-.36.02-.77.19-1.12.09.37.31.83.09,1.18Z"/><path class="cls-1" d="M90.44,4.29c.79.77-1.09-.07-1.18-.58.41.13.82.34,1.18.58Z"/><path class="cls-1" d="M89.46,2.68s0-.01.01-.02c0,0,0,.01-.01.02Z"/><path class="cls-1" d="M91.28,5.26c-.13-.94.14-.59.33.08.12,1-.36.78-.33-.08Z"/><path class="cls-1" d="M80.17,4.46c.3-.5.69-1.16,1.34-1.18.33.08.73.4.12.25.07.05.05.16.07.24,0,0,0,0,0,0,0,0,0,.02,0,.03.31-.53.29.91-1.15.55-.12.05-.26.09-.39.11Z"/><path class="cls-1" d="M80.63,4.37s0,0,.01,0c0,0,0,0-.01,0Z"/><path class="cls-1" d="M81.84,3.77s0,0,0,0c0,0,0,0,0,0Z"/><path class="cls-1" d="M80.87,3.45c-.21.19-.44.39-.71.48.05-.46.82-.91,1.1-.81,0,0,0,0,0,0-.14.1-.26.22-.39.33Z"/><path class="cls-1" d="M81.36,2.43c.35.14.65.48.62.88-.41-.27-.68-.72-1.13-.94h0s0,0,0,0c0,0,0,0,0,0,0-.1.39,0,.51.06Z"/><path class="cls-1" d="M65.74,12.01c1.36-2.98,3.72-5.2,5.45-7.93,0,0,0,0,0,.01.03-.05.06-.09.08-.14,0,0,0,0,0,0,.02-.04.05-.08.07-.12,0,0,0,0,0,0,.21-.38.13-.09.07.17-.41,1.77-1.68,3.05-2.87,4.34-.97,1.04-1.28,2.52-2.29,3.52-.33.3-.97.95-.51.13Z"/><path class="cls-1" d="M72.14,17.75c3.19,4.64,4.11-2.27,3.03-4.67-.27-1.74-3.79-5.28-2.1-6.49h0s-.07.04-.09.07c0,0,0,0,0,0-.02.06-.04.12-.05.18,0,0,0,0,0,0,0,0,0,0,0,0,0,0,0,0,0,0,.1,2.48,2.47,4.3,2.92,6.75.37,1.86.81,6.32-1.92,6.35-.66-.17-1.3-.52-1.7-1.08-.31-.69-1.6-2.64-.08-1.1Z"/><path class="cls-1" d="M70.68,15.91s0-.01,0-.02c0,0,0,.01,0,.02Z"/><path class="cls-1" d="M70.44,15.44c.37.44.26,1.14.66,1.55,0,0,0,0,0,0,.04.02.07.04.11.05,0,0,0,0,0,0,.01,0,.03,0,.04.01,0,0,0,0,0,0-.44.46-1.18-.99-.8-1.6Z"/><path class="cls-1" d="M69.72,10.07c.69,1.37,1.09,3.03.75,4.56,0,0,0,0,0-.01,0,0,0,.02,0,.03,0,0,0,0,0,0-.52,2.79-.39-3.58-.71-4.3h0s0-.08-.01-.13h0s0-.05,0-.08c0,0,0,0,0,0,0,0,0,0,0,0h0s0-.03,0-.04c0,0,0,0,0,0,0,0,0-.01,0-.02h0s0,0,0,0Z"/><path class="cls-1" d="M70.83,8.57s0-.01,0-.02c0,0,0,.01,0,.02Z"/><path class="cls-1" d="M70.46,9.07c-.05-.65.31-1.4.91-1.69-.35.54-.43,1.24-.91,1.69Z"/><path class="cls-1" d="M73.63,6.56s0,0,0,0c.38-.15.94.94.69,1.46-.33-.39-.31-.93-.6-1.34,0,0,0,0,0,0,0,0,0,0,0,0,0,0,0,0,0,0-.03-.04-.06-.08-.09-.12Z"/><path class="cls-1" d="M73.77,8.85c-.5-.49-.64-1.34-.47-1.96h0s.01.03.02.04c0,0,0,0,0,0,.03.07.06.15.08.22,0,0,0,0,0,0,.08.24.16.48.23.73,0,0,0-.01,0-.02.02.07.05.13.07.2,0,0,0-.01,0-.02.09.26.12.55.1.82Z"/><path class="cls-1" d="M85.75,12.65c-1.53,1.57-3.34,2.88-4.61,4.68,0,0,0-.01.01-.02-.76,1.32-6.07,9.23-2.9,3.58,1.93-3.14,4.01-6.64,7.48-8.25"/><path class="cls-1" d="M83.5,12.55c-1.28.04-2.28,1.56-3.61.98.67-.28,1.26-.74,1.88-1.14,1.78-1.03,3.93-.22,5.71-1.35,1.51-1.21,3.16-2.89,3.86-4.93,0,0,0,0,0,0,0-.03,0-.06,0-.08,0,0,0,0,0,0,.58.71-.76,2.88-1.53,3.69-1.31,1.88-3.27,2.86-5.33,2.75,0,0,0,0,0,0-.33.01-.66.03-.99.07"/><path class="cls-1" d="M77.25,16.21s0,0,0,0c0,0,0,0,0,0Z"/><path class="cls-1" d="M79.24,17.92c.81-1.66,2.8-3.63,4.32-4.09,0,0,0,0,0,0-.05.03-.09.07-.13.1,0,0,0,0,0,0-.13.12-.26.24-.4.36,0,0,0,0,0,0-1.33,1.14-2.34,2.64-3.79,3.63Z"/><path class="cls-1" d="M79.16,3.25c-.77.38.3-.83.71-.85-.18.31-.41.63-.71.85Z"/><path class="cls-1" d="M79.76,2.59s0,0,0,0c0,0,0,0,0,0Z"/><path class="cls-1" d="M78.73,5.34c-.24.13-.39.4-.67.44,0-.31.63-.67.72-.46,0,0,0,0,0,0,0,0,0,0,0,0,0,0,0,0,0,0-.01,0-.03.01-.04.02Z"/><path class="cls-1" d="M79.66,5.43c.01-.41.35-.71.64-.97-.07.38-.27.8-.64.97Z"/><path class="cls-1" d="M64.25,14.12c-3.16,3.05-7.37,4.96-11.74,5.27-1.83.23-3.35,1.64-5.2,1.62-1.93-.12.33-.56,1.11-.84,1.17-.48,2.31-1.06,3.57-1.32,2.23-.38,4.49-.58,6.53-1.63,1.68-.12,9.31-7.1,5.73-3.1Z"/><path class="cls-1" d="M44.43,21.31s.02,0,.03,0c-4.53.67-9.01,1.74-13.37,3.14,0,0,.01,0,.02,0-.01,0-.02,0-.03,0,.01,0,.02,0,.03-.01-3.25.82-6.12,2.72-9.32,3.55,1.88-1.65,4.45-2.31,6.74-3.24,5.06-1.74,10.29-3.14,15.59-3.91,1.85-.11,2.88-.04.32.46Z"/><path class="cls-1" d="M.36,26.99c.62-1.57,3.81,1.24,5.03,1.31,5.41,1.52,11.08.72,16.44-.58-3.88,2.2-8.84,2.09-13.18,1.79.01,0,.02,0,.04,0-1.55-.21-3.13-.4-4.57-1.06-.63-.08-3.67-2.3-3.53-1h0c-.05.07-.26-.34-.22-.47Z"/><path class="cls-1" d="M15.47,31.77c1.41-1.57,1.26-1.23.37.38,0,0,0,0,0,0-2.99,5.95-.62,12.81-2.57,18.99-.37,2.07-2.08,4.86-.88.73,0,0,0,0,0,0,.64-2.03,1.06-4.11,1.06-6.24,0,0,0,0,0,.01,0-.06,0-.12,0-.17,0,0,0,0,0,0,0-.01,0-.03,0-.04,0,0,0,0,0,0,0,0,0,0,0,0,0,0,0,0,0,0,0-.01,0-.03,0-.04,0,0,0,0,0,0,.15-4.46-.47-9.34,1.82-13.38"/><path class="cls-1" d="M14.16,32.85c-1.33-.39-2.78-.19-4.14-.49-1.61-.23-3.17-.77-4.7-1.33-1.94-.83-4.26-1.57-5.32-3.54.12.07.23.17.34.26.03.03.06.05.1.08,0,0,0,0,0,0,0,0,0,0,.01,0,0,0,0,0,0,0,2.63,2.06,5.83,3.27,9.08,3.95,1.34.46,3.97-.09,4.82.93"/><path class="cls-1" d="M17.38,42.64s0,.02,0,.02c0,0,0-.02,0-.02Z"/><path class="cls-1" d="M17.41,46.18s0-.03.01-.04c0,.01,0,.03-.01.04Z"/><path class="cls-1" d="M26.58,45.08s-.01.02-.02.03c0-.01.01-.02.02-.03Z"/><path class="cls-1" d="M30.3,40.73s0,0-.01.01c0,0,0,0,.01-.01Z"/><path class="cls-1" d="M12.53,63.78c1.75-6.07,8.01-9.35,11.22-14.56,0,.01-.02.02-.02.03,2.46-3.26,5.32-9.26,9.12-9.68,0,0,0,0,0,0-.05.03-.11.07-.16.1,0,0,0,0,0,0-4.44,2.65-6.55,7.55-9.6,11.51-1.63,2.34-3.92,4.08-5.79,6.21-1.89,1.91-3.04,4.38-4.78,6.38Z"/><path class="cls-1" d="M8.87,60.5s0,.03,0,.04c0-.01,0-.03,0-.04Z"/><path class="cls-1" d="M13.18,57.17c-.71,1.2-1.37,2.54-2.58,3.32.17-1.12,4.38-6.46,2.58-3.32Z"/><path class="cls-1" d="M12.88,73.15s.01.02.02.04c-.27-.48-.81-.69-1.14-1.12-.67-.23-1.34-.5-2.02-.68.47-.11.98-.17,1.45-.03-.53-1.2.07-2.47.19-3.69.17-1.33.24-2.98,1.08-3.99h0c-.44,2.33-.37,4.76-1.04,7.06,0,0,0-.02,0-.03-.03.14-.06.28-.1.41,0,0,0,0,0-.01-.02.09-.04.18-.07.27.09.03.18.05.27.08-.03-.25.03-.09.11.04.34.13.91.44,1.03.67.74.19,1.56,1.96.68,2.11,0,0,0,0,0,0,.18-.21-.02-.4-.13-.59,0,0,0,0,0,0-.12-.18-.24-.36-.36-.55Z"/><path class="cls-1" d="M7.67,71.94c.44-2.46,1.2-4.88,1.16-7.41,0,.01,0,.03,0,.04.09-1.97-.46-4.2.76-5.92,1.72-1.81,2.78-4.1,4.49-5.91.22-.23.98-1.48.73-.77,0,0,0,0,0,0-.01.05-.03.1-.04.14,0,0,0,0,0,0-1.07,2.67-3.1,4.92-4.81,7.22-.86,1.61-.42,3.52-.52,5.26,0-.01,0-.03,0-.04-.12,2.63-.33,5.39-1.53,7.76.37.65,1.16.95,1.42,1.69.39.57,1.19.36,1.77.52.19-.56-.4-1.13-.48-1.69,0,0,0,0,0,0,0-.02-.01-.04-.02-.05,0,0,0,0,0,0,.42.35,1.41,1.2.82,1.82.23.06.45.13.67.21.12-.13.28-.23.39-.38-.14-.55-.99-2.19-.09-1.14,1.99,1.98-1.36,1.98-2.67,1.74-.97-.17-1.91-2.07-2.09-2.97,0,0,0,0,0,0-.01-.04-.03-.08-.04-.12,0,0,0,0,0,0-.08-.13.02-.03.08.03Z"/><path class="cls-1" d="M24.42,58.26c-1.05,2.73-1.35,5.7-1.33,8.61.7.78,1.77,1.12,2.41,1.93.39.66.12,1.58-.62,1.84,0,0,.02,0,.02.01-.06-.02-.18.11-.11,0-.98-.08-2.03.21-2.97-.18-.49-.23-2.06-1.15-.79-.83-.56-.71-1.43-1.32-1.16-2.34.38-3.58-.52-7.28-.25-10.77.35-1.42,1.78-2.24,2.49-3.48,0,0,0,0,0,0,.17-.25.36-.5.49-.78-.12,1.62-1.36,2.83-2.33,4.03,0,0,0,0,0,0-.05.06-.11.12-.16.18,0,0,0,0,0,0-.16.17-.26.38-.33.6,0,0,0,0,0,0,0,.01,0,.03-.01.04,1.27,4.09.21,8.52,1.31,12.55.94.24,1.87.47,2.82.64-.21-.49-.06-1.04-.25-1.53,0,0,0,0,0,0,.4.08.63,1.11.5,1.6.23.07.45.15.67.26,1.08-1.54-1.25-2.11-1.65-3.4,0,0,0,0,0,0-.03-.04-.06-.08-.08-.13-.05.49-.01,1.13-.32.33-.74-2.26-.03-7.94,1.76-9.6"/><path class="cls-1" d="M25.05,57.94c.96-2.19,2.69-3.93,4.03-5.88,1.52-2.06,2.39-4.5,3.77-6.63,0,0,0,0,0,0-1.04,3.82-3.76,7.42-6.18,10.66-.47.82-1.03,1.57-1.73,2.19"/><path class="cls-1" d="M21.69,69.79s-.02,0-.04,0c.01,0,.02,0,.04,0Z"/><path class="cls-1" d="M20.27,56.29s.01-.01.02-.02c0,0-.01.01-.02.02Z"/><path class="cls-1" d="M21.26,58.62c-.24-1.32.64-2.51,1.55-3.36-.02.07-.05.14-.07.21,0,0,0,0,0,0-.46,1.06-.79,2.21-1.48,3.15Z"/><path class="cls-1" d="M21.39,58.44s0,0,0,0c0,0,0,0,0,0Z"/><path class="cls-1" d="M21.98,57.33s0,0,0,0c0,0,0,0,0,0Z"/><path class="cls-1" d="M32.25,43.01s0,.02-.01.03c0-.01,0-.02.01-.03Z"/><path class="cls-1" d="M53.09,50.14c-9.86,1.01-9.92,5.81-23.31,1.15,5.87,3.26,12.45,3.01,17.83.7,0,0,0,0,0,0,.01,0,.02,0,.03-.01,0,0-.01,0-.02,0,1.76-.75,3.68-1.08,5.47-1.73"/><path class="cls-1" d="M53.38,49.96c.11-.84.84-1.49.86-2.39,0,0,0,.01,0,.02.06-.38.1-.77.06-1.15,0,0,0,0,0,0,0-.06-.01-.12-.02-.18,0,0,0,0,0,0,.45.55.48,1.89.11,2.67-.17.46-.54.85-.45,1.37.73,4.86,1.21,9.8.79,14.7,0,0,0,0,0,0-.63,2.75-.5-.25-.38-1.16,0,0,0,0,0,.01.11-2.28.09-4.56-.09-6.83,0,0,0,.01,0,.02-.13-2.35-.6-4.65-.89-6.98"/><path class="cls-1" d="M34.63,39.63s-.02,0-.02,0c0,0,.02,0,.02,0Z"/><path class="cls-1" d="M34.64,39.62s0,0,0,0c0,0,0,0,0,0Z"/><path class="cls-1" d="M56.56,63.04s0,0,0,0c0,0,0,0,0,0Z"/><path class="cls-1" d="M68.13,37.32c-1.4,4.72-5.08,8.33-6.34,13.12-.47-3.12,1.94-5.69,3.42-8.22,1.17-1.8,1.94-3.81,2.96-5.69,0,0,0,0,0,0,.13-.32.03.61-.04.79Z"/><path class="cls-1" d="M57.93,60.09c.42.71.34,1.59.29,2.39,0,0,0,0,0,0-.05.78-.2,1.59-.57,2.28-.35-1.49.3-2.96.29-4.45,0,0,0,0,0,0,0-.07,0-.15,0-.22Z"/><path class="cls-1" d="M57.57,63.16s0,.02,0,.04c0-.01,0-.02,0-.04Z"/><path class="cls-1" d="M57.81,71.02c-.07-.25-.17-.48-.33-.69-.73-3.01-4.25-.72-2.4-4.64.78-2.89.41.62.29,1.61.31.78,1.81.32,2.23,1.45.42.67.39,1.49.31,2.24"/><path class="cls-1" d="M58.25,69.88c.55.96.44,2.11.73,3.1,2.04,1.03,1.39,1.52,4.06,1.44-.33-.57-.6-1.18-1.04-1.68,0,0,0,0,0,0,.5.07,1.16,1.07,1.69,1.47.54-.1,1.04.19,1.55.28.11-.1.23-.18.32-.29-.58-.51-.98-1.17-1.45-1.77,0,0,0,0,0,0-.01-.02-.03-.03-.04-.05,0,0,0,0,0,0,.56.15,1.4.96,1.99,1.41,0,0,.01-.01.02-.02,0,0,0,0,0,0-1.44-2.07-3.16-1.78-4.35-3.39-2.58-2.45-.87-16.45.22-20.11.3,2.48-.51,4.91-.61,7.38-.35,4.24-.46,8.5.38,12.68,1.44,1.01,3.64.85,4.34,2.77.12.23.49.67.06.79.24.42-.23.77-.61.82-.14.02-.77.17-.49-.03-.32.03-.66,0-.97-.08-.24.99-2.3.26-2.93-.1-.68.29-1.2-.09-1.68-.53-2.09-.45-.91-2.58-1.29-4.07"/><path class="cls-1" d="M62.33,64.42c.89,2.15,1.05,4.53,2.77,6.22-1.85-.57-1.99-1.48-2.47-3.18-.19-.67-1.39-5.24-.7-3.94,0,0,0,0,0-.01.14.3.27.61.4.91Z"/><path class="cls-1" d="M65.71,71.47c-.37-.1-.69-.37-.66-.77.38.71,1.47.42,2.15.57-.01,0-.03,0-.04,0,.76-.02,1.52-.03,2.28-.01-.04-.05-.09-.11-.13-.16,0,0,0,0,.01.01-.52-.42-2.4-1.99-.71-1.03,0,0-.01,0-.02,0,.03.01.06.03.09.04,0,0,0,0,0,0,.5.14.94.59.81,1.14-.68.81-2.67.78-3.78.22Z"/><path class="cls-1" d="M69.8,70.72c-.12-.26-.25-.5-.38-.75,0,0,0,0,0,0-.32-.82-1.4-.76-1.83-1.48.45.27.98.26,1.48.36.77.23,1.2,1.22.95,1.96-.07.11-.19.15-.32.19.04-.09.12-.18.08-.28Z"/><path class="cls-1" d="M66.04,67.09c.43.65,1.24.94,1.64,1.63-1.45.05-2.31-2.46-1.72-1.75,0,0,0,0,0,0,.03.04.06.08.08.12Z"/><path class="cls-1" d="M65.86,55.1s0-.03,0-.04c0,.01,0,.03,0,.04Z"/><path class="cls-1" d="M67.76,49.12c5.55-3.04,7.48-9.2,8.38-15.07.9-4.17,2.1-8.26,3.59-12.25,1.55-4.1,0-1.58-1.06.44-1.83,4.38-2.84,9.07-3.85,13.69-.7,4.51-2.5,8.93-6.41,11.57,0,0,0,0,.01,0-.02.02-.05.04-.07.06.1-.38-2.21,2.29-1.23,1.78M67.01,56.79s0,.04,0,.06c0-.02,0-.04,0-.06Z"/><path class="cls-1" d="M75.49,24.44c-1.06,7.4-2.72,5.33,0,0,0,0,0,0,0,0Z"/><path class="cls-1" d="M73.17,27.62s0,.03,0,.04c0-.01,0-.02,0-.04Z"/><path class="cls-1" d="M67.66,41.44c-1.79,3.32-2.2,7.1-2.23,10.81.12,1.68-.64,15.9.64,14.19,0,0,0,0,0,0,.17-1.75-.25-3.49-.13-5.24,0,0,0,0,0,0,.07-1.28,0-2.56.05-3.83,0,.01,0,.03,0,.04,0-.11,0-.21.01-.32,0,0,0,.02,0,.02.14-5.23-.27-10.61,2.11-15.45-.01-.44-.46-.23-.46-.23Z"/></g></svg>