<?xml version="1.0" encoding="UTF-8"?><svg id="Layer_2" xmlns="http://www.w3.org/2000/svg" viewBox="0 0 91.25 75.1"><defs><style>.cls-1{fill:#5289b1;stroke-width:0px;}</style></defs><g id="Design"><path class="cls-1" d="M90.95,2.94c-.35-.49-.56-1.43-1.33-1.03,0,0,0,0,0,0,0,0,0,0,0,0-.61,1.4-1.51,1.15-.2.08,0,0,0,0,0,0,.02-.02.05-.03.08-.05-2.32.47-5.79,2.45-7.55.02-.72-.5-1.44-1.01-2.29-1.26,0,0,0,0,0,0-2.93-.58-6.28.75-8.26,2.92,0,0,0,0,0-.01-.44.82-.15-1.07.45-1.21,2.8-1.79,7.84-4.12,10.09-.44,3.73,2.43,9.52-3.52,9.01.98Z"/><path class="cls-1" d="M88.61,3.06c.46-.28.99.31,1.48.08.05-.02.14-.08.19-.03.04.02,0,.17-.02.12-.25.59-.92.29-1.28-.02,0,0,0,0,0,0-.08-.05-.17-.11-.26-.14,0,0,0,0,0,0-.02,0-.05-.01-.07-.02,0,0,0,0,0,0,0,0,0,0,0,0,0,0,0,0,0,0-.02,0-.03,0-.04,0Z"/><path class="cls-1" d="M91.04,4.18c-.15.14-.48.2-.25-.06,0,0,0,0,0,0,.06-.32.02-.68.17-.98.08.32.27.73.08,1.04Z"/><path class="cls-1" d="M90.21,4.15c.69.67-.96-.06-1.04-.51.36.12.72.3,1.04.51Z"/><path class="cls-1" d="M89.11,2.68s0-.01.01-.02c0,0,0,.01-.01.02Z"/><path class="cls-1" d="M90.95,5c-.12-.82.13-.52.29.07.11.87-.32.69-.29-.07Z"/><path class="cls-1" d="M79.81,4.46c.3-.5.69-1.16,1.34-1.18.33.08.73.4.12.25.07.05.05.16.07.24,0,0,0,0,0,0,0,0,0,.02,0,.03.31-.53.29.91-1.15.55-.12.05-.26.09-.39.11Z"/><path class="cls-1" d="M80.28,4.37s0,0,.01,0c0,0,0,0-.01,0Z"/><path class="cls-1" d="M81.48,3.77s0,0,0,0c0,0,0,0,0,0Z"/><path class="cls-1" d="M80.51,3.45c-.21.19-.44.39-.71.48.05-.46.82-.91,1.1-.81,0,0,0,0,0,0-.14.1-.26.22-.39.33Z"/><path class="cls-1" d="M81,2.43c.35.14.65.48.62.88-.41-.27-.68-.72-1.13-.94h0s0,0,0,0c0,0,0,0,0,0,0-.1.39,0,.51.06Z"/><path class="cls-1" d="M65.38,12.01c1.36-2.98,3.72-5.2,5.45-7.93,0,0,0,0,0,.01.03-.05.06-.09.08-.14,0,0,0,0,0,0,.02-.04.05-.08.07-.12,0,0,0,0,0,0,.21-.38.13-.09.07.17-.41,1.77-1.68,3.05-2.87,4.34-.97,1.04-1.28,2.52-2.29,3.52-.33.3-.97.95-.51.13Z"/><path class="cls-1" d="M71.78,17.75c3.19,4.64,4.11-2.27,3.03-4.67-.27-1.74-3.79-5.28-2.1-6.49h0s-.07.04-.09.07c0,0,0,0,0,0-.02.06-.04.12-.05.18,0,0,0,0,0,0,0,0,0,0,0,0,0,0,0,0,0,0,.1,2.48,2.47,4.3,2.92,6.75.37,1.86.81,6.32-1.92,6.35-.66-.17-1.3-.52-1.7-1.08-.31-.69-1.6-2.64-.08-1.1Z"/><path class="cls-1" d="M70.32,15.91s0-.01,0-.02c0,0,0,.01,0,.02Z"/><path class="cls-1" d="M70.08,15.44c.37.44.26,1.14.66,1.55,0,0,0,0,0,0,.04.02.07.04.11.05,0,0,0,0,0,0,.01,0,.03,0,.04.01,0,0,0,0,0,0-.44.46-1.18-.99-.8-1.6Z"/><path class="cls-1" d="M69.36,10.07c.69,1.37,1.09,3.03.75,4.56,0,0,0,0,0-.01,0,0,0,.02,0,.03,0,0,0,0,0,0-.52,2.79-.39-3.58-.71-4.3h0s0-.08-.01-.13h0s0-.05,0-.08c0,0,0,0,0,0,0,0,0,0,0,0h0s0-.03,0-.04c0,0,0,0,0,0,0,0,0-.01,0-.02h0s0,0,0,0Z"/><path class="cls-1" d="M70.47,8.57s0-.01,0-.02c0,0,0,.01,0,.02Z"/><path class="cls-1" d="M70.1,9.07c-.05-.65.31-1.4.91-1.69-.35.54-.43,1.24-.91,1.69Z"/><path class="cls-1" d="M73.27,6.56s0,0,0,0c.38-.15.94.94.69,1.46-.33-.39-.31-.93-.6-1.34,0,0,0,0,0,0,0,0,0,0,0,0,0,0,0,0,0,0-.03-.04-.06-.08-.09-.12Z"/><path class="cls-1" d="M73.41,8.85c-.5-.49-.64-1.34-.47-1.96h0s.01.03.02.04c0,0,0,0,0,0,.03.07.06.15.08.22,0,0,0,0,0,0,.08.24.16.48.23.73,0,0,0-.01,0-.02.02.07.05.13.07.2,0,0,0-.01,0-.02.09.26.12.55.1.82Z"/><path class="cls-1" d="M75.78,19.08c1.78-2.89,3.69-6.11,6.89-7.6-1.35.05-2.41,1.39-3.81.89.71-.25,1.34-.66,1.99-1.02,1.89-.92,4.14-.23,6.03-1.24,1.6-1.08,3.36-2.57,4.11-4.37,0,0,0,0,0,0,0-.02,0-.05,0-.07,0,0,0,0,0,0,.61.62-.82,2.54-1.65,3.26-1.4,1.66-3.47,2.54-5.63,2.47,0,0,0,0,0,0-.35.01-.7.03-1.04.07-1.41,1.44-3.08,2.65-4.24,4.31,0,0,0-.01.01-.02-.7,1.22-5.59,8.5-2.67,3.3Z"/><path class="cls-1" d="M76.89,16.21s0,0,0,0c0,0,0,0,0,0Z"/><path class="cls-1" d="M76.68,16.34c.75-1.53,2.57-3.35,3.98-3.77,0,0,0,0,0,0-.04.03-.08.06-.12.09,0,0,0,0,0,0-.12.11-.24.22-.37.33,0,0,0,0,0,0-1.22,1.05-2.15,2.43-3.49,3.34Z"/><path class="cls-1" d="M78.8,3.25c-.77.38.3-.83.71-.85-.18.31-.41.63-.71.85Z"/><path class="cls-1" d="M79.4,2.59s0,0,0,0c0,0,0,0,0,0Z"/><path class="cls-1" d="M78.37,5.34c-.24.13-.39.4-.67.44,0-.31.63-.67.72-.46,0,0,0,0,0,0,0,0,0,0,0,0,0,0,0,0,0,0-.01,0-.03.01-.04.02Z"/><path class="cls-1" d="M79.3,5.43c.01-.41.35-.71.64-.97-.07.38-.27.8-.64.97Z"/><path class="cls-1" d="M63.9,14.12c-3.16,3.05-7.37,4.96-11.74,5.27-1.83.23-3.35,1.64-5.2,1.62-1.93-.12.33-.56,1.11-.84,1.17-.48,2.31-1.06,3.57-1.32,2.23-.38,4.49-.58,6.53-1.63,1.68-.12,9.31-7.1,5.73-3.1Z"/><path class="cls-1" d="M44.07,21.31s.02,0,.03,0c-4.53.67-9.01,1.74-13.37,3.14,0,0,.01,0,.02,0-.01,0-.02,0-.03,0,.01,0,.02,0,.03-.01-3.25.82-6.12,2.72-9.32,3.55,1.88-1.65,4.45-2.31,6.74-3.24,5.06-1.74,10.29-3.14,15.59-3.91,1.85-.11,2.88-.04.32.46Z"/><path class="cls-1" d="M0,26.99c.62-1.57,3.81,1.24,5.03,1.31,5.41,1.52,11.08.72,16.44-.58-3.88,2.2-8.84,2.09-13.18,1.79.01,0,.02,0,.04,0-1.55-.21-3.13-.4-4.57-1.06-.63-.08-3.67-2.3-3.53-1h0c-.05.07-.26-.34-.22-.47Z"/><path class="cls-1" d="M.88,27.94s.1.05.14.08c0,0,0,0,0,0,0,0,.01,0,.02,0,0,0,0,0,0,0,3.9,2.02,8.33,2.8,12.69,2.88,1.85.27,5.11-1.1,6.45.02,1.47-1.32,1.29-1.02.31.39,0,0,0,0,0,0-3.38,5.24-1.87,11.87-4.3,17.43-.55,1.9-2.42,4.32-.9.6,0,0,0,0,0,0,.8-1.83,1.4-3.72,1.62-5.71,0,0,0,0,0,.01,0-.05.01-.11.02-.16,0,0,0,0,0,0,0-.01,0-.03,0-.04,0,0,0,0,0,0,0,0,0,0,0,0,0,0,0,0,0,0,0-.01,0-.03,0-.04,0,0,0,0,0,0,.59-4.14.5-8.74,3.04-12.28-1.81-.17-3.64.44-5.47.39-2.14.1-4.28-.22-6.38-.56-2.71-.59-5.89-.98-7.73-3.27.17.06.34.16.5.25Z"/><path class="cls-1" d="M17.02,42.64s0,.02,0,.02c0,0,0-.02,0-.02Z"/><path class="cls-1" d="M17.05,46.18s0-.03.01-.04c0,.01,0,.03-.01.04Z"/><path class="cls-1" d="M26.22,45.08s-.01.02-.02.03c0-.01.01-.02.02-.03Z"/><path class="cls-1" d="M29.94,40.73s0,0-.01.01c0,0,0,0,.01-.01Z"/><path class="cls-1" d="M12.17,63.78c1.75-6.07,8.01-9.35,11.22-14.56,0,.01-.02.02-.02.03,2.46-3.26,5.32-9.26,9.12-9.68,0,0,0,0,0,0-.05.03-.11.07-.16.1,0,0,0,0,0,0-4.44,2.65-6.55,7.55-9.6,11.51-1.63,2.34-3.92,4.08-5.79,6.21-1.89,1.91-3.04,4.38-4.78,6.38Z"/><path class="cls-1" d="M8.52,60.5s0,.03,0,.04c0-.01,0-.03,0-.04Z"/><path class="cls-1" d="M12.82,57.17c-.71,1.2-1.37,2.54-2.58,3.32.17-1.12,4.38-6.46,2.58-3.32Z"/><path class="cls-1" d="M14.77,52.75c-.18,2.27-1.77,2.32-.07.09,0,0,0,0,0,0,.02-.03.05-.06.07-.1Z"/><path class="cls-1" d="M12.52,73.15s.01.02.02.04c-.27-.48-.81-.69-1.14-1.12-.67-.23-1.34-.5-2.02-.68.47-.11.98-.17,1.45-.03-.53-1.2.07-2.47.19-3.69.17-1.33.24-2.98,1.08-3.99h0c-.44,2.33-.37,4.76-1.04,7.06,0,0,0-.02,0-.03-.03.14-.06.28-.1.41,0,0,0,0,0-.01-.02.09-.04.18-.07.27.09.03.18.05.27.08-.03-.25.03-.09.11.04.34.13.91.44,1.03.67.74.19,1.56,1.96.68,2.11,0,0,0,0,0,0,.18-.21-.02-.4-.13-.59,0,0,0,0,0,0-.12-.18-.24-.36-.36-.55Z"/><path class="cls-1" d="M7.31,71.94c.44-2.46,1.2-4.88,1.16-7.41,0,.01,0,.03,0,.04.09-1.97-.46-4.2.76-5.92,1.72-1.81,2.78-4.1,4.49-5.91.22-.23.98-1.48.73-.77,0,0,0,0,0,0-.01.05-.03.1-.04.14,0,0,0,0,0,0-1.07,2.67-3.1,4.92-4.81,7.22-.86,1.61-.42,3.52-.52,5.26,0-.01,0-.03,0-.04-.12,2.63-.33,5.39-1.53,7.76.37.65,1.16.95,1.42,1.69.39.57,1.19.36,1.77.52.19-.56-.4-1.13-.48-1.69,0,0,0,0,0,0,0-.02-.01-.04-.02-.05,0,0,0,0,0,0,.42.35,1.41,1.2.82,1.82.23.06.45.13.67.21.12-.13.28-.23.39-.38-.14-.55-.99-2.19-.09-1.14,1.99,1.98-1.36,1.98-2.67,1.74-.97-.17-1.91-2.07-2.09-2.97,0,0,0,0,0,0-.01-.04-.03-.08-.04-.12,0,0,0,0,0,0-.08-.13.02-.03.08.03Z"/><path class="cls-1" d="M19.52,67.3c.38-3.58-.52-7.28-.25-10.77.35-1.42,1.78-2.24,2.49-3.48,0,0,0,0,0,0,.17-.25.36-.5.49-.78-.12,1.62-1.36,2.83-2.33,4.03,0,0,0,0,0,0-.05.06-.11.12-.16.18,0,0,0,0,0,0-.16.17-.26.38-.33.6,0,0,0,0,0,0,0,.01,0,.03-.01.04,1.27,4.09.21,8.52,1.31,12.55.94.24,1.87.47,2.82.64-.21-.49-.06-1.04-.25-1.53,0,0,0,0,0,0,.4.08.63,1.11.5,1.6.23.07.45.15.67.26,1.08-1.54-1.25-2.11-1.65-3.4,0,0,0,0,0,0-.03-.04-.06-.08-.08-.13-.05.49-.01,1.13-.32.33-.74-2.26-.03-7.94,1.76-9.6,1.03-2.98,3.1-5.45,4.66-8.16,1.77-2.87,2.65-6.17,4.22-9.12,0,0,0,0,0,0-.95,5.13-4.12,10.15-6.95,14.67-.52,1.13-1.19,2.17-2.03,3.07-1.05,2.73-1.35,5.7-1.33,8.61.7.78,1.77,1.12,2.41,1.93.39.66.12,1.58-.62,1.84,0,0,.02,0,.02.01-.06-.02-.18.11-.11,0-.98-.08-2.03.21-2.97-.18-.49-.23-2.06-1.15-.79-.83-.56-.71-1.43-1.32-1.16-2.34Z"/><path class="cls-1" d="M21.33,69.79s-.02,0-.04,0c.01,0,.02,0,.04,0Z"/><path class="cls-1" d="M19.91,56.29s.01-.01.02-.02c0,0-.01.01-.02.02Z"/><path class="cls-1" d="M20.91,58.62c-.24-1.32.64-2.51,1.55-3.36-.02.07-.05.14-.07.21,0,0,0,0,0,0-.46,1.06-.79,2.21-1.48,3.15Z"/><path class="cls-1" d="M21.03,58.44s0,0,0,0c0,0,0,0,0,0Z"/><path class="cls-1" d="M21.62,57.33s0,0,0,0c0,0,0,0,0,0Z"/><path class="cls-1" d="M31.89,43.01s0,.02-.01.03c0-.01,0-.02.01-.03Z"/><path class="cls-1" d="M55.6,40.52c-9.67-1.09-9.75-6.11-22.86-1.28,5.74-3.39,12.2-3.11,17.48-.68,0,0,0,0,0,0,.01,0,.02,0,.03.01,0,0-.01,0-.02,0,1.73.79,3.61,1.14,5.37,1.83"/><path class="cls-1" d="M55.16,44.69c.17-1.02,1.08-1.79,1.15-2.88,0,0,0,.01,0,.02.09-.46.15-.93.12-1.4,0,0,0,0,0,0,0-.08-.01-.15-.02-.22,0,0,0,0,0,0,.53.68.51,2.32.03,3.25-.23.55-.69,1.02-.6,1.65.69,5.95,1.07,12,.36,17.96,0,0,0,0,0-.01-.88,3.32-.6-.33-.41-1.43,0,0,0,.01,0,.02.23-2.77.3-5.56.17-8.33,0,0,0,.02,0,.03-.06-2.86-.54-5.69-.79-8.54"/><path class="cls-1" d="M34.27,39.63s-.02,0-.02,0c0,0,.02,0,.02,0Z"/><path class="cls-1" d="M34.28,39.62s0,0,0,0c0,0,0,0,0,0Z"/><path class="cls-1" d="M39.03,34.11s0,0,0,0c0,0,0,0,0,0Z"/><path class="cls-1" d="M39.03,34.14s0,0,0,0c0,0,0,0,0,0Z"/><path class="cls-1" d="M38.84,35.81c-1.19-3.23-.37-7.49,2.44-9.61-1.08,1.92-2.18,3.98-2.28,6.23,0-.01,0-.02,0-.03-.02,1.14.13,2.3-.15,3.42Z"/><path class="cls-1" d="M42.26,29.81c-.45,1.1-.91,2.24-1.72,3.12-.18-1.65,3.74-7.85,1.97-3.72,0,0,0,0,0-.01-.08.21-.17.41-.26.61Z"/><path class="cls-1" d="M42.05,29s0,0,0,0c0,0,0,0,0,0Z"/><path class="cls-1" d="M44.48,29.66c.37-.71.77-1.44,1.32-2.03-.29,1.15-.7,2.29-1.22,3.36-1.18,2.05-.69-.39-.1-1.33Z"/><path class="cls-1" d="M56.2,63.04s0,0,0,0c0,0,0,0,0,0Z"/><path class="cls-1" d="M67.77,37.32c-1.4,4.72-5.08,8.33-6.34,13.12-.47-3.12,1.94-5.69,3.42-8.22,1.17-1.8,1.94-3.81,2.96-5.69,0,0,0,0,0,0,.13-.32.03.61-.04.79Z"/><path class="cls-1" d="M57.57,60.09c.42.71.34,1.59.29,2.39,0,0,0,0,0,0-.05.78-.2,1.59-.57,2.28-.35-1.49.3-2.96.29-4.45,0,0,0,0,0,0,0-.07,0-.15,0-.22Z"/><path class="cls-1" d="M57.22,63.16s0,.02,0,.04c0-.01,0-.02,0-.04Z"/><path class="cls-1" d="M55.63,65.46c.62-2.41.33.52.24,1.34.25.65,1.44.27,1.78,1.21.34.56.31,1.24.25,1.87.55.96.44,2.11.73,3.1,2.04,1.03,1.39,1.52,4.06,1.44-.33-.57-.6-1.18-1.04-1.68,0,0,0,0,0,0,.5.07,1.16,1.07,1.69,1.47.54-.1,1.04.19,1.55.28.11-.1.23-.18.32-.29-.58-.51-.98-1.17-1.45-1.77,0,0,0,0,0,0-.01-.02-.03-.03-.04-.05,0,0,0,0,0,0,.56.15,1.4.96,1.99,1.41,0,0,.01-.01.02-.02,0,0,0,0,0,0-1.44-2.07-3.16-1.78-4.35-3.39-2.58-2.45-.87-16.45.22-20.11.3,2.48-.51,4.91-.61,7.38-.35,4.24-.46,8.5.38,12.68,1.44,1.01,3.64.85,4.34,2.77.12.23.49.67.06.79.24.42-.23.77-.61.82-.14.02-.77.17-.49-.03-.32.03-.66,0-.97-.08-.24.99-2.3.26-2.93-.1-.68.29-1.2-.09-1.68-.53-2.38-.51-.51-3.2-1.56-4.65-.59-2.51-3.38-.6-1.92-3.87Z"/><path class="cls-1" d="M61.97,64.42c.89,2.15,1.05,4.53,2.77,6.22-1.85-.57-1.99-1.48-2.47-3.18-.19-.67-1.39-5.24-.7-3.94,0,0,0,0,0-.01.14.3.27.61.4.91Z"/><path class="cls-1" d="M65.35,71.47c-.37-.1-.69-.37-.66-.77.38.71,1.47.42,2.15.57-.01,0-.03,0-.04,0,.76-.02,1.52-.03,2.28-.01-.04-.05-.09-.11-.13-.16,0,0,0,0,.01.01-.52-.42-2.4-1.99-.71-1.03,0,0-.01,0-.02,0,.03.01.06.03.09.04,0,0,0,0,0,0,.5.14.94.59.81,1.14-.68.81-2.67.78-3.78.22Z"/><path class="cls-1" d="M69.44,70.72c-.12-.26-.25-.5-.38-.75,0,0,0,0,0,0-.32-.82-1.4-.76-1.83-1.48.45.27.98.26,1.48.36.77.23,1.2,1.22.95,1.96-.07.11-.19.15-.32.19.04-.09.12-.18.08-.28Z"/><path class="cls-1" d="M65.68,67.09c.43.65,1.24.94,1.64,1.63-1.45.05-2.31-2.46-1.72-1.75,0,0,0,0,0,0,.03.04.06.08.08.12Z"/><path class="cls-1" d="M65.5,55.1s0-.03,0-.04c0,.01,0,.03,0,.04Z"/><path class="cls-1" d="M67.76,40.78c3.59-2.18,4.68-6.32,5.1-10.24.47-2.79,1.14-5.54,2.01-8.23.9-2.77-.05-1.05-.69.32-1.08,2.96-1.61,6.1-2.14,9.19-.33,3.01-1.39,6-3.9,7.87,0,0,0,0,0,0-.02.01-.03.03-.05.04.06-.26-1.65,1.78-1.02,1.42-1.79,3.32-2.2,7.1-2.23,10.81.12,1.68-.64,15.9.64,14.19,0,0,0,0,0,0,.17-1.75-.25-3.49-.13-5.24,0,0,0,0,0,0,.07-1.28,0-2.56.05-3.83,0,.01,0,.03,0,.04,0-.11,0-.21.01-.32,0,0,0,.02,0,.02.14-5.23-.27-10.61,2.11-15.45.07-.2.14-.4.21-.6ZM65.43,56.79s0,.04,0,.06c0-.02,0-.04,0-.06Z"/><path class="cls-1" d="M56.82,52.12c-.38-.92-.33-2.03.09-2.92.1.97.3,1.99-.09,2.92Z"/><path class="cls-1" d="M70.84,26.84c-1.06,7.4-2.72,5.33,0,0,0,0,0,0,0,0Z"/><path class="cls-1" d="M72.81,27.62s0,.03,0,.04c0-.01,0-.02,0-.04Z"/></g></svg>