<?xml version="1.0" encoding="UTF-8"?><svg id="Layer_2" xmlns="http://www.w3.org/2000/svg" viewBox="0 0 54.23 63.09"><defs><style>.cls-1{fill:none;}.cls-1,.cls-2{stroke:#5289b1;stroke-linecap:round;stroke-linejoin:round;stroke-width:1.09px;}.cls-2,.cls-3{fill:#fff;}.cls-4{fill:#5289b1;}.cls-4,.cls-3{stroke-width:0px;}</style></defs><g id="Design"><path class="cls-4" d="M35.01,38.38c.58-.56.89-1.17.83-1.82-.02-.22-.09-.45-.2-.66l-1.66-5.32s0-.08,0-.12c-.1-1.05-1.42-1.83-3.83-2.26-.06-.01-.12-.02-.19-.03-.01-.06-.02-.12-.04-.18-.08-.31-.32-.71-.97-.81-.04,0-.09-.02-.14-.03-.03,0-.06-.01-.1-.02l-.13.44.09-.45s-.04-.01-.07-.02c-.01,0-.03-.01-.04-.02,0,0,0,0,0,0,0,0-.01,0-.02-.01h0s0-.08,0-.12c0-.04,0-.09,0-.14,0-.06-.02-.11-.04-.16,0-.02-.01-.04-.02-.06-.01-.03-.03-.06-.05-.1l-.03-.05s-.03-.05-.05-.07c-.01-.01-.02-.03-.04-.04-.02-.02-.04-.04-.06-.06-.01-.01-.03-.02-.03-.03-.02-.02-.04-.03-.07-.05,0,0-.03-.02-.03-.02-.02-.01-.04-.03-.06-.04,0,0-.02-.01-.03-.02-.03-.02-.06-.03-.08-.05-.03-.02-.06-.03-.09-.05-.04-.02-.09-.04-.13-.06l-.04-.02s-.09-.04-.13-.05c0,0-.02,0-.03-.01-.05-.02-.11-.03-.16-.05h-.04s-.1-.03-.14-.04c0,0-.03,0-.04,0-.06,0-.13,0-.19,0-.02,0-.03,0-.05,0-.03,0-.05,0-.09,0-.03,0-.05.01-.08.02-.02,0-.04,0-.06.02-.08.03-.15.06-.21.1-.05.03-.09.07-.14.11-.01-.04-.02-.09-.04-.13,0-.01-.02-.04-.02-.05-.07-.16-.17-.28-.31-.37-.06-.04-.11-.06-.18-.09-.02,0-.04-.01-.05-.01-.05-.01-.09-.02-.14-.02-.01,0-.04,0-.05,0-.06,0-.12,0-.17.02-.05.01-.11.03-.16.05-.04.02-.08.04-.12.06l-.04.02s-.05.03-.08.05c0,0-.02.01-.02.01-.06.04-.13.08-.19.13l-.06.04.26.38h0s-.28-.37-.28-.37c-.02.01-.04.03-.07.04,0,0,0,0-.01,0-.03-.05-.07-.11-.13-.17-.11-.11-.3-.25-.59-.26-.36-.11-.68-.12-.99-.02-.07.02-.14.05-.2.07-.05.02-.1.04-.15.06-.12.03-.2,0-.4-.1-.1-.05-.21-.1-.34-.14-.02,0-.05-.02-.07-.02,0,0,0,0-.01,0-.06-.02-.13-.03-.18-.03-.01,0-.04,0-.05,0-.08,0-.15.01-.22.03-.07.02-.13.05-.2.09-.05.03-.1.07-.15.11-.09.08-.15.16-.21.24-.03.05-.09.11-.1.12h-.04s-.04,0-.06-.01h-.03s-.04-.02-.07-.03l-.27-.1c-.09-.03-.17-.06-.24-.07-.02,0-.04,0-.08-.02-.03,0-.05-.01-.07-.01-.04,0-.09-.01-.13-.01-.08,0-.16,0-.24.01-.04,0-.07.01-.11.02-.03,0-.06.02-.07.02,0,0-.02,0-.03.01-.05.02-.1.04-.16.07,0,0-.02.01-.02.01l-.13.07s-.08.04-.12.06c0,0-.02,0-.02,0-.04.02-.09.04-.14.06,0,0,0,0,0,0-.01,0-.02,0-.03,0-.06,0-.15,0-.25,0-.22-.02-.5-.04-.77.11-.07.04-.13.08-.19.14-.19.13-.37.29-.49.46-.06.08-.1.16-.14.23-.04.06-.09.16-.12.18-.02.01-.05.02-.08.03-.03,0-.06,0-.09,0-.16,0-.32.06-.46.15-.19.11-.33.29-.41.53-.04.12-.06.25-.05.37l-.04.03c-.07.05-.17.09-.29.13-.21.08-.47.17-.69.42-.1.1-.17.22-.24.31-.08.11-.15.22-.21.26-.03.02-.07.03-.1.05-.1.04-.24.1-.36.22-.19.17-.26.39-.31.57,0,0,0,.02,0,.03-1.62.75-2.45,1.59-2.42,2.46l-.66,5.79c-.06.21-.08.42-.06.62.12,1.26,1.58,2.22,4.24,2.78,2.32.49,5.31.62,8.47.37.18-.01.35-.03.53-.05,2.41-.22,4.86-.67,6.94-1.3,0,0,2.38-1.03,4.69-2.34ZM30.89,30.28c.37.18.49.34.5.43,0,0,0,0,0,.01-.14-.17-.33-.3-.5-.41,0-.01,0-.02,0-.03ZM27.95,26.62l-.26.3-.05.03s0,0,0,0l.31-.32ZM14.06,31.66c.03-.07.07-.13.09-.21,0,0,.02-.01.03-.02.05-.04.11-.1.16-.17.02.01.03.02.05.03.06.03.12.04.18.03l.27-.02s.09-.02.13-.04c.04-.02.08-.04.11-.08.03-.03.05-.07.06-.12.02-.04.02-.09.02-.14,0-.03-.01-.06-.02-.09-.02-.06-.05-.11-.1-.15-.02-.02-.05-.03-.07-.05-.06-.03-.12-.04-.18-.03l-.27.02s-.06,0-.08.02c-.02-.05-.05-.1-.09-.14-.06-.06-.13-.15-.17-.21,0-.01,0-.03.01-.04.02-.09.04-.12.04-.12,0,0,0,0,0,0,.01-.01.07-.03.1-.05.06-.03.14-.06.21-.1.24-.15.39-.36.5-.53.05-.08.1-.15.15-.2.07-.07.16-.11.33-.17.15-.06.34-.13.53-.26.02-.01.03-.02.05-.04.02-.02.04-.03.06-.05.05-.04.1-.09.14-.15.01-.01.02-.03.03-.04.05.11.17.18.28.15h.04c.14-.03.23-.17.21-.31-.02-.14-.17-.23-.3-.21h-.04s-.03.02-.05.03c0-.05,0-.1,0-.15,0-.02,0-.04,0-.08,0-.01,0-.02.01-.03.01,0,.02-.01.03-.02,0,0,.02,0,.02,0,.04,0,.08,0,.11,0,.15-.02.32-.06.49-.18.22-.14.33-.34.41-.5.03-.05.05-.1.09-.14.06-.09.17-.18.28-.25.03-.02.07-.05.1-.08.05-.02.17,0,.27,0,.14.01.29.02.45,0,.07-.01.14-.03.2-.05,0,0,0,0,0,0,.08-.03.14-.06.21-.08,0,0,.02-.01.02-.01.06-.03.11-.05.15-.08l.14-.07s.04-.02.06-.03c0,0,0,0,.01,0h.04s.03-.01.04-.01c.01,0,.02,0,.04,0h.03s.03.01.03.01c.04.01.09.02.15.05l.12.05s.07.03.11.04l.05.02s.07.02.12.04h.05c.06.03.13.04.18.05.04,0,.07,0,.12,0,.17,0,.33-.03.47-.11.19-.11.31-.27.4-.38.02-.03.05-.06.07-.09.07.02.14.06.21.09.25.12.58.28,1.05.15.08-.02.17-.06.25-.09.04-.02.09-.04.13-.05.14-.04.29-.03.49.04.05.02.11.03.16.03,0,0,0,.02.01.02.05.08.11.18.23.27.05.04.11.07.17.1.01,0,.04.02.05.02.05.02.09.03.14.03.01,0,.04,0,.05,0,.11,0,.22,0,.33-.05l.04-.02s.06-.02.09-.04l.04-.02s.07-.04.11-.06c.03-.02.06-.04.11-.07,0,0,.02-.01.02-.01l.06-.04c.05-.04.11-.07.18-.12h0s0,.04.01.07c0,.04.01.07.02.1.02.09.05.18.09.26.02.04.04.08.07.12.06.09.14.17.22.23.05.04.11.07.17.09.14.05.29.06.44,0,.07-.02.14-.06.2-.11.01,0,.04-.03.05-.04.04-.04.08-.08.12-.13.03-.04.05-.07.08-.13,0,0,.01-.02.01-.03l.03-.06s.01-.03,0-.02c0,0,0,0,.01,0,0,0,.01,0,.01,0,.02,0,.03,0,.04,0,0,0,.02,0,.02,0,.02,0,.04,0,.08.02.03,0,.06.02.1.03.03,0,.05.02.08.03,0,0,.02.01.03.01.03.01.06.03.09.04l.06.03s.03.02.06.04l.03.02s.03.02.03.02h0s0,.02,0,.03v.04s0,0,0,.01c0,.05,0,.11,0,.16,0,.09.03.18.06.26.03.08.08.15.13.21.05.06.1.11.17.15,0,0,0,0,0,0,.05.04.11.07.17.1,0,0,0,0,0,0,.04.02.08.03.12.05.04.02.08.03.14.05h.05s.1.04.15.05c.06.01.12.02.18.03.2.03.21.09.23.16.05.15.03.4.02.63,0,.08,0,.15-.01.22,0,.04,0,.08,0,.13-.03.07-.04.16-.03.24.07.57.43.81.72.91.06.02.12.04.18.05,0,.06,0,.13.02.21.05.17.17.26.22.29.06.05.13.09.21.14.08.05.24.15.29.21,0,.03.02.07.02.11-1.47.88-4.6,1.65-8.1,1.97-3.54.33-6.87.12-8.42-.5,0-.06,0-.13,0-.18.01-.32.03-.7-.14-1,0-.01.01-.03.02-.04ZM30.18,39.8c-1.87.58-4.21,1.05-6.88,1.3-3.27.3-6.36.19-8.73-.31-2.13-.45-3.44-1.18-3.51-1.96,0-.09,0-.2.04-.31,0-.03.01-.05.02-.08l.51-4.49c.23.19.51.37.85.51.07.03.14.04.21.03.17-.01.32-.12.39-.29.03-.07.04-.14.03-.21-.02-.17-.12-.32-.29-.39-.72-.29-1.01-.78-1.04-1.1-.03-.32.38-.85,1.53-1.44,0,.02-.02.04-.03.07-.52.4-.79.83-.75,1.3.04.48.4.87,1.05,1.18,0,0,.01,0,.02.01,0,0,.02,0,.03.01.09.04.18.08.27.12.01,0,.03,0,.04.01.1.04.2.07.31.11,0,0,.01,0,.02,0,0,0,0,0,.01,0,.44.14.95.25,1.55.34.06,0,.12.02.18.02,0,0,0,0,0,0,.51.07,1.05.12,1.63.15,0,0,0,0,0,0,.74.04,1.52.05,2.34.04.07,0,.15,0,.22,0,.15,0,.3,0,.44-.02.12,0,.25-.01.38-.02.12,0,.24-.01.36-.02.22-.01.45-.03.67-.05.03,0,.06,0,.09,0,.17-.01.34-.03.51-.04.2-.02.41-.04.61-.06.06,0,.11-.01.17-.02.19-.02.38-.04.57-.07.06,0,.12-.02.18-.02.13-.02.27-.04.4-.05.08-.01.15-.02.23-.03.18-.03.36-.05.53-.08.04,0,.09-.01.13-.02.17-.03.33-.06.5-.09.03,0,.06-.01.08-.02,1.92-.36,3.66-.86,4.81-1.47.03-.02.07-.04.1-.05.01,0,.02-.01.04-.02.07-.04.14-.08.21-.13.03-.02.06-.03.08-.05.05-.02.1-.06.14-.1.58-.42.9-.88.85-1.38-.05-.52-.47-.95-1.25-1.27,1.41.38,1.97.86,2,1.2.04.43-.28.91-.85,1.26-.15.1-.23.27-.21.43,0,.07.03.14.07.2.13.22.42.28.64.15.3-.18.55-.4.75-.63l1.33,4.26s.02.06.04.09c.07.12.1.23.11.34.03.31-.13.65-.46.99-.83.73-4.29,2.17-4.29,2.17Z"/><path class="cls-4" d="M24.55,35.06c-.35.02-.62.4-.6.85.02.45.33.8.69.78.35-.02.62-.4.6-.85-.02-.45-.33-.8-.69-.78Z"/><path class="cls-4" d="M21.47,36.08c-.02-.45-.33-.8-.69-.78-.35.02-.62.4-.6.85.02.45.33.8.69.78.35-.02.62-.4.6-.85Z"/><path class="cls-4" d="M24.44,38.91c-.08-.03-.17.02-.2.1-.08.26-.42.5-.75.42-.17-.04-.32-.18-.4-.36-.04-.09-.06-.2-.08-.3.49-.15,1.1-.51.73-.8-.07-.05-.16-.05-.24-.05-.27,0-.54.02-.82.03-.23,0-.52.07-.73.17-.03.02-.07.04-.08.08,0,.03,0,.05.01.08.12.28.38.5.68.57.02,0,.06,0,.09,0,0,.09-.02.18-.04.26-.06.19-.2.34-.36.4-.31.11-.68-.09-.79-.34-.03-.08-.13-.12-.21-.08-.08.03-.12.13-.08.21.14.32.54.58.94.56.08,0,.16-.02.24-.05.22-.08.4-.26.5-.48.13.21.32.37.55.42.08.02.16.03.24.02.41-.02.77-.32.88-.66.03-.08-.02-.17-.1-.2Z"/><path class="cls-1" d="M33.73,50.62c2.12,2.53-2.96,5.02-3.35,8.97-.39,3.95,5.74,2.8,5.74,2.8.36.06.73.1,1.09.1.97,0,1.93-.27,2.79-1.03.98-.86,1.23-2.56.55-3.72-.48-.81-1.21-1-1.85-1.17-.18-.05-.36-.09-.53-.15,1.31-1.32,4.03-4.46,4-7.55,0-.12,0-.24-.02-.36v-.05c-.01-.11-.03-.21-.05-.34v-.06c-.03-.1-.05-.19-.08-.32l-.02-.06c-.03-.12-.07-.24-.11-.36-.04-.12-.09-.23-.13-.34l-.05-.12c-.03-.07-.06-.14-.09-.22l-.06-.13c-.03-.06-.06-.12-.09-.18l-.08-.15c-.03-.05-.05-.1-.08-.15-.02-.05-.05-.09-.07-.13-.03-.05-.06-.1-.09-.15l-.08-.13s-.06-.1-.1-.15l-.08-.12s-.07-.09-.1-.14l-.08-.11s-.07-.08-.11-.14l-.08-.09c-.05-.06-.1-.12-.15-.18l-.06-.06c-.06-.06-.12-.13-.18-.18l-.08-.07s-.08-.08-.13-.12c.38-.4,1.44-1.03,1.76-1.52.08-.11.15-.22.24-.34.43-.6.97-1.34,1.94-3.84.01-.03.85-2.8.19-3.19-.13-.08-.4-.15-.72.22-.47.54-3.52,3.92-4.02,4.28-.62.46-1.99,1.04-2.67,1.36.17-2.16-.02-4.19-.58-6.19-.4-1.43-.94-2.88-1.88-3.93.32-.79.55-1.58.79-2.56.11-.46.12-1.19.13-1.95,0-.79.02-1.68.16-2.07.22-.62.72-1.07,1.24-1.55.5-.45,1.01-.92,1.33-1.56.8-1.59,1.1-3.32,1.29-4.8.19-1.49.21-3.07.05-4.6.27.02.53.02.8.03.48.01.97.03,1.44.09.63.62,1.15,1.38,1.69,2.18.77,1.14,1.57,2.33,2.76,3.09.29.19.6.34.92.46.99.38,2.05.57,3.01.57.42,0,.83-.04,1.19-.12,1.19-.26,2.13-.97,2.5-1.9.52-1.31-.08-1.8-.77-2.38-.08-.06-.16-.13-.24-.2-1.45-1.23-2.86-2.77-3.77-4.12l-.24-.35c-1.19-1.76-2.06-3.03-4.19-4.21-1.38-.76-2.41-.63-3.6-.38-.43.09-1.08.1-1.76.11-1.11.02-2.32.03-3.24.37-1.02-.83-2.25-1.42-3.63-1.59-.83-.1-1.59.12-2.33.34-.63.18-1.23.36-1.77.29-.94-.12-1.77-.55-2.65-1.01-.95-.5-1.92-1.01-3.11-1.15-.84-.1-1.59-.11-2.32.03-.86-.47-2.07-.66-3.17-.83-.68-.11-1.32-.2-1.73-.35-1.15-.41-2.15-.69-3.62-.13-2.27.87-3.31,2-4.74,3.58l-.29.31c-1.1,1.2-2.71,2.53-4.32,3.55-.09.06-.18.11-.27.17-.77.47-1.44.88-1.1,2.25.24.98,1.07,1.81,2.21,2.23.65.24,1.43.36,2.25.36.64,0,1.31-.07,1.97-.22.33-.07.66-.18.98-.33h0c1.29-.58,2.25-1.64,3.17-2.67.65-.72,1.27-1.4,1.98-1.92.19,0,.39.01.58.03-.69,1.69-1.06,3.6-1.05,5.59,0,1.48.44,2.97.87,4.41.33,1.13.65,2.21.75,3.22.12,1.25-.1,2.35-.3,3.41-.28,1.44-.56,2.92,0,4.68"/><path class="cls-1" d="M8.99,45.47c-3.29,5.4,2.43,10.32,2.43,10.32-.17.06-.35.11-.53.15-.65.17-2.85.36-3.32,1.17-.68,1.15-.43,2.85.55,3.72.86.76,1.83,1.03,2.79,1.03,1.37,0,2.12.09,3.25-.35.25-.1.49-.19.71-.27,1.06-.39,3.05-1.25,4.29-2.03"/><path class="cls-4" d="M28.37,19.44c-.13-2.35-1.79-2.34-3.65-2.65-1.5-.25-4.67-.36-4.75,2.23-.08,2.87,8.61,4.2,8.39.42Z"/><path class="cls-4" d="M21.79,13.58c.15-1.77-.59-3.23-1.79-3.38-1.19-.15-2.44,1.04-2.97,2.75.74-.51,1.64-.76,2.55-.65.92.12,1.69.59,2.21,1.28Z"/><path class="cls-4" d="M31.65,11.9c-1.19-.15-2.44,1.04-2.97,2.75.74-.51,1.64-.76,2.55-.65.93.12,1.69.6,2.21,1.28.15-1.77-.59-3.23-1.79-3.38Z"/><path class="cls-4" d="M27.43,22.15c-.09-.08-.21-.12-.33-.1-.12.02-.24.09-.31.19-.12.17-.36.35-.67.51-.15.05-.3.11-.44.16-.13.05-.25.09-.35.13-.05,0-.09.02-.13.02-.43.04-.79-.05-1.2-.3l.22-1.83-.9-.07-.21,1.8c-.44.15-.83.15-1.22.02-.13-.08-.26-.17-.4-.26-.17-.12-.35-.24-.51-.33-.23-.21-.4-.42-.46-.59-.05-.12-.14-.22-.26-.26-.11-.04-.24-.04-.34.02-.22.11-.32.39-.23.64.07.17.17.34.3.51-.24,1.17-.38,2.36-.42,3.52-.03.79.01,1.62.46,2.27.56.82,1.57,1.38,2.73,1.52.13.01.31.03.52.03.68,0,1.69-.15,2.49-.87.59-.53.81-1.32.97-2.1.24-1.17.38-2.37.42-3.57.15-.12.27-.25.36-.38.15-.21.12-.51-.07-.67ZM26.35,23.7c-.06.99-.18,1.97-.38,2.92-.13.65-.31,1.3-.73,1.67-.81.74-1.95.7-2.42.64-.91-.11-1.72-.55-2.15-1.18-.32-.47-.34-1.14-.32-1.8.03-.96.14-1.93.31-2.9.32.25.67.45.94.54.19.07.38.11.57.13.08.01.16.01.22.01.37.09.74.07,1.08-.04.29.18.64.28.98.29.07.01.15.03.22.04.18.02.38.02.59,0,.25-.02.66-.13,1.09-.33Z"/><circle class="cls-4" cx="28.44" cy="26.81" r=".74"/><circle class="cls-4" cx="18.53" cy="20.25" r=".47"/><circle class="cls-4" cx="16.88" cy="22.27" r=".74"/><circle class="cls-4" cx="30.26" cy="23.69" r=".99"/><path class="cls-1" d="M15.89,53.67s-.7,4.34,4.16,5.49c2.22.53,5.56,1.12,10.64-.8"/><path class="cls-4" d="M13.13,28.88c.03-.07.07-.13.09-.21,0,0,.02-.01.03-.02.05-.04.11-.1.16-.17.02.01.03.02.05.03.06.03.12.04.18.03l.27-.02s.09-.02.13-.04c.04-.02.08-.04.11-.08.03-.03.05-.07.06-.12.02-.04.02-.09.02-.14,0-.03-.01-.06-.02-.09-.02-.06-.05-.11-.1-.15-.02-.02-.05-.03-.07-.05-.06-.03-.12-.04-.18-.03l-.27.02s-.06,0-.08.02c-.02-.05-.05-.1-.09-.14-.06-.06-.13-.15-.17-.21,0-.01,0-.03.01-.04.02-.09.04-.12.04-.12,0,0,0,0,0,0,.01-.01.07-.03.1-.05.06-.03.14-.06.21-.1.24-.15.39-.36.5-.53.05-.08.1-.15.15-.2.07-.07.16-.11.33-.17.15-.06.34-.13.53-.26.02-.01.03-.02.05-.04.02-.02.04-.03.06-.05.05-.04.1-.09.14-.15.01-.01.02-.03.03-.04.05.11.17.18.28.15h.04c.14-.03.23-.17.21-.31-.02-.14-.17-.23-.3-.21h-.04s-.03.02-.05.03c0-.05,0-.1,0-.15,0-.02,0-.04,0-.08,0-.01,0-.02.01-.03.01,0,.02-.01.03-.02,0,0,.02,0,.02,0,.04,0,.08,0,.11,0,.15-.02.32-.06.49-.18.22-.14.33-.34.41-.5.03-.05.05-.1.09-.14.06-.09.17-.18.28-.25.03-.02.07-.05.1-.08.05-.02.17,0,.27,0,.14.01.29.02.45,0,.07-.01.14-.03.2-.05,0,0,0,0,0,0,.08-.03.14-.06.21-.08,0,0,.02-.01.02-.01.06-.03.11-.05.15-.08l.14-.07s.04-.02.06-.03c0,0,0,0,.01,0h.04s.03-.01.04-.01c.01,0,.02,0,.04,0h.03s.03.01.03.01c.04.01.09.02.15.05l.12.05s.07.03.11.04l.05.02s.07.02.12.04h.05c.06.03.13.04.18.05.04,0,.07,0,.12,0,.17,0,.33-.03.47-.11.19-.11.31-.27.4-.38.02-.03.05-.06.07-.09.07.02.14.06.21.09.25.12.58.28,1.05.15.08-.02.17-.06.25-.09.04-.02.09-.04.13-.05.14-.04.29-.03.49.04.05.02.11.03.16.03,0,0,0,.02.01.02.05.08.11.18.23.27.05.04.11.07.17.1.01,0,.04.02.05.02.05.02.09.03.14.03.01,0,.04,0,.05,0,.11,0,.22,0,.33-.05l.04-.02s.06-.02.09-.04l.04-.02s.07-.04.11-.06c.03-.02.06-.04.11-.07,0,0,.02-.01.02-.01l.06-.04c.05-.04.11-.07.18-.12h0s0,.04.01.07c0,.04.01.07.02.1.02.09.05.18.09.26.02.04.04.08.07.12.06.09.14.17.22.23.05.04.11.07.17.09.14.05.29.06.44,0,.07-.02.14-.06.2-.11.01,0,.04-.03.05-.04.04-.04.08-.08.12-.13.03-.04.05-.07.08-.13,0,0,.01-.02.01-.03l.03-.06s.01-.03,0-.02c0,0,0,0,.01,0,0,0,.01,0,.01,0,.02,0,.03,0,.04,0,0,0,.02,0,.02,0,.02,0,.04,0,.08.02.03,0,.06.02.1.03.03,0,.05.02.08.03,0,0,.02.01.03.01.03.01.06.03.09.04l.06.03s.03.02.06.04l.03.02s.03.02.03.02h0s0,.02,0,.03v.04s0,0,0,.01c0,.05,0,.11,0,.16,0,.09.03.18.06.26.03.08.08.15.13.21.05.06.1.11.17.15,0,0,0,0,0,0,.05.04.11.07.17.1,0,0,0,0,0,0,.04.02.08.03.12.05.04.02.08.03.14.05h.05s.1.04.15.05c.06.01.12.02.18.03.2.03.21.09.23.16.05.15.03.4.02.63,0,.08,0,.15-.01.22,0,.04,0,.08,0,.13-.03.07-.04.16-.03.24.07.57.43.81.72.91.06.02.12.04.18.05,0,.06,0,.13.02.21.05.17.17.26.22.29.06.05.13.09.21.14.08.05.24.15.29.21,0,.03.02.07.02.11-1.47.88-4.6,1.65-8.1,1.97-3.54.33-6.87.12-8.42-.5,0-.06,0-.13,0-.18.01-.32.03-.7-.14-1,0-.01.01-.03.02-.04Z"/><path class="cls-2" d="M37.45,50.21c1.7-1.19,2.54-3.63,2.27-5.66-.16-1.25-.57-2.47-1.08-3.62-.21-.47-.67-1.04-.79-1.54l-.21-.88c-.05-.25-.1-.51-.16-.74l-.11-.42c-.36-1.37-.7-2.67-.67-4.03v-.31c.05-1.72.09-3.35-1.64-4.93-1.15-1.04-2.59-1.45-4.06-1.16-1.49.3-2.8,1.3-3.41,2.61-.5,1.06-.74,2.74.07,4.28.49.93,1.56,2.12,3.86,2.57.01.58.1,1.81.33,4.53.05.64.1,1.23.15,1.76l-.02.03c-.06.11-.12.21-.18.32-.06.11-.12.23-.17.34-.01.02-.02.05-.04.09-.04.09-.07.19-.11.28l-.02.07c-.03.1-.06.21-.09.32v.04c-.04.11-.06.23-.09.39-.4,2.57.7,6.39,3.85,6.39.88,0,1.64-.27,2.29-.72Z"/><path class="cls-2" d="M3.68,45.24c-1.39-1.54-1.67-4.1-.97-6.02.44-1.18,1.1-2.28,1.85-3.29.31-.42.88-.86,1.11-1.32l.4-.81c.1-.23.21-.47.32-.69l.2-.38c.65-1.26,1.27-2.45,1.54-3.79l.06-.3c.34-1.69.66-3.29,2.69-4.44,1.35-.76,2.84-.85,4.21-.24,1.39.62,2.44,1.88,2.75,3.29.25,1.14.12,2.84-1.01,4.16-.69.8-1.99,1.72-4.33,1.66-.14.56-.5,1.74-1.31,4.34-.19.61-.37,1.17-.54,1.68v.03c.05.12.08.23.12.36.03.12.06.25.09.37,0,.03,0,.05.01.09.02.1.03.2.04.3v.07c.02.11.02.22.02.33v.04c0,.12,0,.23-.01.39-.17,2.6-2.09,6.08-5.17,5.39-.85-.19-1.54-.63-2.07-1.21Z"/><circle class="cls-3" cx="21.17" cy="29.19" r=".63"/><circle class="cls-3" cx="24.3" cy="30.5" r="1.31"/></g></svg>