<?xml version="1.0" encoding="UTF-8"?><svg id="Layer_2" xmlns="http://www.w3.org/2000/svg" viewBox="0 0 53.37 62.09"><defs><style>.cls-1{fill:none;}.cls-1,.cls-2{stroke:#5289b1;stroke-linecap:round;stroke-linejoin:round;stroke-width:1.07px;}.cls-2,.cls-3{fill:#f8f3eb;}.cls-3,.cls-4,.cls-5{stroke-width:0px;}.cls-4{fill:#5289b1;}.cls-5{fill:#fff;}</style></defs><g id="Design"><path class="cls-4" d="M34.45,37.77c.57-.55.88-1.15.82-1.79-.02-.22-.09-.44-.2-.65l-1.63-5.23s0-.08,0-.11c-.1-1.04-1.4-1.81-3.77-2.23-.06-.01-.12-.02-.18-.03-.01-.06-.02-.12-.04-.18-.08-.31-.31-.69-.95-.8-.04,0-.09-.02-.14-.03-.03,0-.06-.01-.1-.02l-.12.44.09-.45s-.04-.01-.07-.02c-.01,0-.03-.01-.04-.02,0,0,0,0,0,0,0,0-.01,0-.02-.01h0s0-.08,0-.11c0-.04,0-.09,0-.14,0-.06-.02-.11-.04-.16,0-.02-.01-.04-.02-.06-.01-.03-.03-.06-.05-.1l-.03-.04s-.03-.05-.05-.07c-.01-.01-.02-.03-.04-.04-.02-.02-.04-.04-.06-.06-.01-.01-.03-.02-.03-.03-.02-.02-.04-.03-.07-.05,0,0-.03-.02-.03-.02-.02-.01-.04-.03-.06-.04,0,0-.02-.01-.03-.02-.03-.02-.06-.03-.08-.05-.03-.02-.06-.03-.09-.05-.04-.02-.09-.04-.13-.06l-.04-.02s-.09-.04-.12-.05c0,0-.02,0-.03-.01-.05-.02-.1-.03-.16-.05h-.04s-.1-.03-.14-.04c0,0-.03,0-.04,0-.06,0-.12,0-.19,0-.02,0-.03,0-.05,0-.03,0-.05,0-.08,0-.03,0-.05.01-.08.02-.02,0-.04,0-.06.02-.08.03-.15.06-.21.1-.05.03-.09.07-.13.11-.01-.04-.02-.09-.04-.13,0-.01-.01-.04-.02-.05-.07-.16-.17-.28-.3-.37-.05-.04-.11-.06-.18-.08-.02,0-.04-.01-.05-.01-.05-.01-.09-.02-.14-.02-.01,0-.04,0-.05,0-.06,0-.11,0-.17.02-.05.01-.1.03-.16.05-.04.02-.08.04-.12.05l-.04.02s-.05.03-.08.05c0,0-.02.01-.02.01-.06.04-.13.08-.19.13l-.06.04.25.38h0s-.28-.36-.28-.36c-.02.01-.04.03-.07.04,0,0,0,0-.01,0-.03-.05-.07-.11-.13-.16-.11-.11-.29-.24-.58-.25-.35-.11-.67-.12-.98-.02-.07.02-.13.05-.2.07-.05.02-.1.04-.15.05-.12.03-.2,0-.4-.09-.1-.05-.2-.1-.33-.14-.02,0-.05-.02-.07-.02,0,0,0,0-.01,0-.06-.02-.12-.03-.17-.03-.01,0-.04,0-.05,0-.08,0-.15.01-.22.03-.07.02-.13.05-.19.09-.05.03-.1.07-.14.11-.08.08-.15.16-.2.24-.03.04-.08.11-.09.12h-.04s-.04,0-.06-.01h-.03s-.04-.02-.06-.03l-.27-.1c-.09-.03-.16-.06-.23-.07-.02,0-.04,0-.08-.02-.03,0-.05-.01-.07-.01-.04,0-.08-.01-.12-.01-.08,0-.16,0-.24.01-.04,0-.07.01-.11.02-.03,0-.06.02-.07.02,0,0-.02,0-.03.01-.05.02-.1.04-.15.07,0,0-.02.01-.02.01l-.13.07s-.08.04-.11.06c0,0-.02,0-.02,0-.04.02-.08.04-.13.05,0,0,0,0,0,0-.01,0-.02,0-.03,0-.06,0-.15,0-.25,0-.22-.02-.49-.04-.76.1-.07.04-.13.08-.19.14-.19.12-.36.29-.48.45-.06.08-.1.16-.14.23-.03.06-.09.16-.11.17-.02.01-.05.02-.08.03-.03,0-.06,0-.09,0-.16,0-.31.06-.45.15-.19.11-.33.28-.4.52-.04.12-.06.24-.05.37l-.04.03c-.07.05-.17.09-.29.13-.21.08-.46.17-.68.41-.09.1-.17.21-.23.31-.07.11-.14.21-.21.25-.03.02-.06.03-.1.05-.1.04-.23.1-.36.21-.18.17-.26.39-.3.56,0,0,0,.02,0,.03-1.59.74-2.41,1.56-2.38,2.42l-.65,5.7c-.06.21-.08.41-.06.61.11,1.24,1.56,2.18,4.17,2.73,2.28.48,5.23.61,8.34.36.17-.01.35-.03.52-.04,2.37-.22,4.78-.66,6.83-1.28,0,0,2.34-1.01,4.61-2.3ZM30.4,29.8c.36.18.49.34.49.42,0,0,0,0,0,.01-.14-.17-.33-.3-.49-.4,0-.01,0-.02,0-.03ZM27.51,26.19l-.25.3-.05.03s0,0,0,0l.31-.32ZM13.83,31.15c.03-.06.07-.13.09-.2,0,0,.02-.01.03-.02.05-.04.11-.1.16-.17.02.01.03.02.05.03.06.03.11.04.17.03l.26-.02s.09-.02.13-.04c.04-.02.08-.04.1-.08.03-.03.05-.07.06-.11.02-.04.02-.09.02-.13,0-.03-.01-.06-.02-.09-.02-.06-.05-.1-.1-.14-.02-.02-.05-.03-.07-.05-.06-.03-.11-.04-.18-.03l-.26.02s-.06,0-.08.02c-.02-.05-.05-.1-.09-.14-.06-.06-.13-.15-.17-.21,0-.01,0-.02,0-.04.02-.09.04-.12.04-.12,0,0,0,0,0,0,.01-.01.06-.03.1-.05.06-.03.13-.06.21-.1.24-.14.38-.35.49-.52.05-.08.1-.15.15-.2.07-.07.16-.11.32-.17.15-.06.34-.12.52-.26.02-.01.03-.02.05-.04.02-.02.04-.03.05-.05.05-.04.1-.09.14-.15.01-.01.02-.03.03-.04.05.11.17.17.28.15h.04c.14-.03.22-.17.21-.31-.02-.14-.17-.23-.3-.21h-.04s-.03.02-.05.03c0-.05,0-.1,0-.15,0-.02,0-.04,0-.08,0-.01,0-.02.01-.03.01,0,.02-.01.03-.02,0,0,.02,0,.02,0,.04,0,.07,0,.11,0,.14-.02.32-.06.48-.17.21-.14.32-.33.41-.49.03-.05.05-.1.09-.14.06-.09.17-.18.27-.25.03-.02.07-.05.09-.08.05-.02.17,0,.26,0,.13.01.28.02.45,0,.07-.01.14-.03.2-.05,0,0,0,0,0,0,.07-.03.14-.05.2-.08,0,0,.02,0,.02-.01.05-.03.1-.05.15-.07l.13-.07s.04-.02.06-.03c0,0,0,0,.01,0h.04s.03-.01.04-.01c.01,0,.02,0,.04,0h.03s.03.01.03.01c.04.01.09.02.15.05l.12.05s.07.03.11.04l.05.02s.07.02.12.04h.04c.06.03.12.04.18.05.04,0,.07,0,.12,0,.17,0,.32-.03.46-.11.19-.1.31-.26.39-.38.02-.03.05-.06.07-.09.07.02.13.06.21.09.24.12.58.28,1.03.15.08-.02.16-.05.25-.09.04-.02.09-.04.13-.05.14-.04.28-.03.48.04.05.02.11.02.16.03,0,0,0,.02.01.02.05.07.11.18.22.27.05.04.1.07.17.1.01,0,.04.02.05.02.05.02.09.03.14.03.01,0,.04,0,.05,0,.1,0,.21,0,.32-.04l.04-.02s.06-.02.09-.04l.04-.02s.07-.04.11-.06c.03-.02.06-.04.11-.07,0,0,.02-.01.02-.01l.06-.04c.05-.04.11-.07.17-.12h0s0,.04.01.07c0,.04.01.07.02.1.02.09.05.17.09.25.02.04.04.08.07.12.06.09.13.17.22.22.05.04.11.07.16.09.14.05.29.05.43,0,.07-.02.14-.06.2-.1.01,0,.04-.03.05-.04.04-.04.08-.08.12-.13.03-.04.05-.07.08-.12,0,0,.01-.02.01-.03l.03-.05s.01-.02,0-.02c0,0,0,0,.01,0,0,0,0,0,.01,0,.02,0,.03,0,.04,0,0,0,.02,0,.02,0,.02,0,.04,0,.08.02.03,0,.06.02.1.03.03,0,.05.02.08.03,0,0,.02.01.02.01.03.01.06.03.09.04l.06.03s.03.02.06.04l.03.02s.03.02.03.02h0s0,.02,0,.03v.04s0,0,0,.01c0,.05,0,.1,0,.16,0,.09.03.17.06.25.03.08.08.15.13.21.05.05.1.11.16.15,0,0,0,0,0,0,.05.04.11.07.17.1,0,0,0,0,0,0,.04.02.07.03.11.05.04.02.08.03.14.05h.05s.1.04.15.05c.06.01.12.02.18.03.19.03.21.08.23.16.05.15.03.39.02.62,0,.07,0,.15-.01.22,0,.04,0,.08,0,.12-.03.07-.04.15-.03.24.07.56.43.8.71.9.06.02.12.04.18.05,0,.06,0,.13.02.21.05.16.17.25.22.28.06.04.13.09.21.14.08.05.23.15.29.21,0,.03.02.07.02.11-1.44.87-4.53,1.62-7.97,1.94-3.48.32-6.76.12-8.29-.49,0-.06,0-.13,0-.18.01-.32.03-.69-.13-.98,0-.01.01-.03.02-.04ZM29.7,39.17c-1.84.57-4.14,1.04-6.77,1.28-3.21.3-6.26.19-8.59-.3-2.09-.44-3.39-1.16-3.46-1.93,0-.09,0-.19.04-.3,0-.03.01-.05.02-.08l.5-4.42c.22.19.5.36.84.5.07.03.14.04.2.03.17-.01.32-.12.39-.28.03-.07.04-.14.03-.21-.02-.16-.12-.31-.28-.38-.71-.29-1-.76-1.03-1.09-.03-.32.38-.84,1.5-1.42,0,.02-.02.04-.03.07-.51.39-.78.82-.74,1.28.04.47.39.86,1.03,1.16,0,0,.01,0,.02.01,0,0,.02,0,.03.01.08.04.17.08.27.11.01,0,.03,0,.04.01.1.04.2.07.31.11,0,0,.01,0,.02,0,0,0,0,0,.01,0,.43.13.94.24,1.53.33.06,0,.12.01.18.02,0,0,0,0,0,0,.5.07,1.03.12,1.6.15,0,0,0,0,0,0,.72.04,1.5.05,2.3.04.07,0,.14,0,.22,0,.14,0,.29,0,.44-.01.12,0,.25-.01.37-.02.12,0,.24-.01.36-.02.22-.01.44-.03.66-.04.03,0,.06,0,.09,0,.17-.01.33-.03.5-.04.2-.02.4-.04.6-.06.06,0,.11-.01.17-.02.19-.02.37-.04.56-.07.06,0,.12-.02.18-.02.13-.02.26-.04.39-.05.07-.01.15-.02.22-.03.18-.03.35-.05.52-.08.04,0,.08-.01.13-.02.16-.03.33-.06.49-.09.03,0,.06-.01.08-.02,1.89-.35,3.6-.84,4.73-1.45.03-.02.06-.04.1-.05.01,0,.02-.01.04-.02.07-.04.14-.08.21-.12.03-.02.06-.03.08-.05.05-.02.1-.06.14-.1.57-.41.89-.86.84-1.36-.05-.51-.46-.93-1.23-1.25,1.39.37,1.94.85,1.97,1.18.04.43-.27.89-.84,1.24-.15.09-.23.26-.21.43,0,.07.03.14.06.2.13.21.41.28.63.15.29-.18.54-.39.74-.62l1.31,4.19s.02.06.04.09c.07.11.1.22.11.33.03.31-.13.64-.45.97-.82.72-4.22,2.14-4.22,2.14Z"/><path class="cls-4" d="M24.16,34.5c-.35.02-.61.39-.59.83.02.44.33.79.67.77.35-.02.61-.39.59-.83-.02-.44-.33-.79-.67-.77Z"/><path class="cls-4" d="M21.13,35.5c-.02-.44-.33-.79-.67-.77-.35.02-.61.39-.59.83.02.44.33.79.67.77.35-.02.61-.39.59-.83Z"/><path class="cls-4" d="M24.05,38.29c-.08-.03-.17.02-.19.1-.08.26-.42.49-.73.41-.17-.04-.32-.17-.4-.35-.04-.09-.06-.2-.08-.3.48-.15,1.08-.5.72-.79-.06-.05-.16-.05-.24-.05-.27,0-.54.02-.8.03-.22,0-.52.07-.72.17-.03.02-.07.04-.08.08,0,.03,0,.05.01.07.12.28.38.49.67.56.02,0,.06,0,.09,0,0,.09-.02.17-.04.26-.06.19-.19.33-.36.39-.31.11-.67-.09-.77-.33-.03-.08-.12-.12-.2-.08-.08.03-.12.13-.08.2.14.31.53.57.93.55.08,0,.16-.02.24-.05.22-.08.39-.25.5-.47.13.21.32.36.54.42.08.02.16.03.24.02.4-.02.76-.32.86-.65.03-.08-.02-.17-.1-.19Z"/><path class="cls-1" d="M33.19,49.81c2.09,2.49-2.91,4.94-3.3,8.83-.38,3.89,5.64,2.76,5.64,2.76.36.06.72.1,1.07.1.95,0,1.9-.26,2.75-1.02.96-.85,1.21-2.52.54-3.66-.47-.8-1.19-.99-1.82-1.15-.18-.05-.36-.09-.52-.15,1.29-1.3,3.97-4.38,3.94-7.43,0-.12,0-.23-.02-.35v-.05c-.01-.11-.03-.21-.05-.34v-.05c-.03-.1-.05-.19-.08-.31l-.02-.06c-.03-.12-.07-.24-.11-.36-.04-.12-.09-.23-.13-.34l-.05-.11c-.03-.07-.06-.14-.09-.21l-.06-.13c-.03-.06-.06-.12-.08-.18l-.08-.15s-.05-.1-.08-.15c-.02-.04-.05-.09-.07-.13-.03-.05-.06-.1-.09-.15l-.08-.12s-.06-.1-.09-.14l-.08-.12s-.07-.09-.1-.14l-.08-.11s-.07-.08-.11-.14l-.07-.09c-.05-.06-.1-.12-.15-.17l-.06-.06c-.06-.06-.12-.12-.18-.18l-.08-.07s-.08-.08-.13-.12c.38-.4,1.42-1.02,1.74-1.5.07-.11.15-.22.23-.33.42-.59.95-1.31,1.9-3.78.01-.03.83-2.75.18-3.14-.13-.08-.39-.15-.71.22-.46.54-3.47,3.86-3.96,4.22-.61.45-1.96,1.02-2.62,1.34.17-2.12-.02-4.13-.57-6.09-.39-1.4-.92-2.84-1.85-3.87.32-.78.54-1.55.77-2.52.11-.45.12-1.17.13-1.92,0-.77.02-1.65.16-2.04.21-.61.7-1.05,1.22-1.53.49-.44.99-.9,1.31-1.53.78-1.57,1.08-3.27,1.27-4.72.19-1.47.2-3.02.05-4.53.26.01.53.02.79.03.47.01.96.03,1.42.09.62.61,1.13,1.36,1.67,2.15.76,1.13,1.54,2.29,2.72,3.04.29.18.59.33.91.45.98.37,2.02.56,2.96.56.42,0,.81-.04,1.17-.12,1.17-.25,2.09-.95,2.46-1.87.52-1.29-.08-1.77-.76-2.34-.08-.06-.16-.13-.24-.2-1.42-1.21-2.81-2.73-3.71-4.05l-.24-.35c-1.18-1.73-2.03-2.98-4.12-4.14-1.36-.75-2.37-.62-3.54-.38-.42.09-1.06.1-1.73.11-1.09.01-2.28.03-3.18.36-1.01-.82-2.21-1.39-3.58-1.57-.82-.1-1.57.12-2.3.33-.62.18-1.21.35-1.74.28-.93-.12-1.74-.55-2.6-1-.93-.49-1.89-1-3.06-1.13-.83-.09-1.56-.11-2.29.03-.85-.46-2.04-.65-3.12-.82-.67-.1-1.29-.2-1.7-.35-1.13-.41-2.11-.68-3.56-.12-2.24.85-3.26,1.97-4.66,3.52l-.28.31c-1.08,1.18-2.67,2.49-4.25,3.49-.09.06-.18.11-.26.16-.76.46-1.41.87-1.08,2.21.24.96,1.05,1.78,2.17,2.2.63.23,1.4.35,2.22.35.63,0,1.29-.07,1.94-.22.33-.07.65-.18.96-.32h0c1.27-.57,2.21-1.62,3.12-2.62.64-.71,1.25-1.38,1.95-1.89.19,0,.38.01.57.03-.67,1.67-1.04,3.54-1.03,5.51,0,1.46.44,2.92.86,4.34.33,1.12.64,2.17.73,3.17.11,1.23-.09,2.31-.29,3.36-.27,1.42-.55,2.87,0,4.61"/><path class="cls-1" d="M8.85,44.75c-3.24,5.32,2.39,10.16,2.39,10.16-.17.06-.34.1-.52.15-.64.17-2.8.35-3.27,1.15-.67,1.13-.42,2.81.54,3.66.85.75,1.8,1.02,2.75,1.02,1.34,0,2.08.09,3.2-.34.24-.09.48-.19.7-.27,1.04-.38,3-1.23,4.22-2"/><path class="cls-4" d="M27.92,19.13c-.13-2.31-1.76-2.3-3.59-2.61-1.47-.24-4.6-.36-4.67,2.19-.08,2.82,8.47,4.13,8.26.42Z"/><path class="cls-4" d="M21.44,13.37c.14-1.74-.58-3.17-1.76-3.32-1.18-.15-2.4,1.02-2.92,2.7.73-.5,1.62-.75,2.51-.64.91.12,1.67.59,2.17,1.26Z"/><path class="cls-4" d="M31.14,11.71c-1.18-.15-2.4,1.02-2.92,2.7.73-.5,1.62-.75,2.51-.64.91.12,1.67.59,2.17,1.26.14-1.74-.58-3.17-1.76-3.32Z"/><path class="cls-4" d="M27,21.8c-.09-.08-.21-.11-.33-.1-.12.02-.23.09-.31.19-.12.17-.36.35-.66.5-.15.05-.29.1-.44.16-.13.05-.25.09-.35.13-.04,0-.09.02-.13.02-.43.04-.78-.05-1.18-.29l.21-1.81-.88-.07-.21,1.77c-.44.15-.81.15-1.2.02-.13-.08-.26-.17-.39-.26-.17-.12-.35-.23-.51-.32-.23-.21-.39-.41-.45-.58-.05-.12-.14-.21-.25-.26-.11-.04-.23-.03-.34.02-.22.11-.32.39-.22.63.06.17.16.33.29.5-.24,1.16-.37,2.32-.41,3.47-.03.78.01,1.59.45,2.23.55.8,1.55,1.36,2.68,1.5.13.01.3.03.51.03.67,0,1.66-.14,2.45-.86.58-.52.8-1.3.96-2.06.24-1.15.37-2.33.41-3.52.14-.12.26-.25.35-.38.15-.21.12-.5-.07-.66ZM25.93,23.33c-.06.97-.18,1.94-.37,2.87-.13.64-.31,1.28-.72,1.65-.8.72-1.92.68-2.38.63-.9-.11-1.69-.54-2.12-1.17-.31-.46-.34-1.12-.32-1.77.03-.94.13-1.9.3-2.85.31.24.66.44.92.53.19.06.38.11.57.13.08,0,.16.01.22.01.37.09.73.07,1.06-.04.29.18.63.28.97.29.07.01.14.03.22.04.18.02.38.02.58,0,.24-.02.65-.13,1.07-.33Z"/><circle class="cls-4" cx="27.99" cy="26.39" r=".73"/><circle class="cls-4" cx="18.23" cy="19.92" r=".47"/><circle class="cls-4" cx="16.61" cy="21.92" r=".73"/><circle class="cls-4" cx="29.78" cy="23.31" r=".97"/><path class="cls-1" d="M15.64,52.82s-.69,4.27,4.09,5.41c2.18.52,5.47,1.1,10.47-.78"/><path class="cls-4" d="M12.92,28.42c.03-.06.07-.13.09-.2,0,0,.02-.01.03-.02.05-.04.11-.1.16-.17.02.01.03.02.05.03.06.03.11.04.17.03l.26-.02s.09-.02.13-.04c.04-.02.08-.04.1-.08.03-.03.05-.07.06-.11.02-.04.02-.09.02-.13,0-.03-.01-.06-.02-.09-.02-.06-.05-.1-.1-.14-.02-.02-.05-.03-.07-.05-.06-.03-.11-.04-.18-.03l-.26.02s-.06,0-.08.02c-.02-.05-.05-.1-.09-.14-.06-.06-.13-.15-.17-.21,0-.01,0-.02,0-.04.02-.09.04-.12.04-.12,0,0,0,0,0,0,.01-.01.06-.03.1-.05.06-.03.13-.06.21-.1.24-.14.38-.35.49-.52.05-.08.1-.15.15-.2.07-.07.16-.11.32-.17.15-.06.34-.12.52-.26.02-.01.03-.02.05-.04.02-.02.04-.03.05-.05.05-.04.1-.09.14-.15.01-.01.02-.03.03-.04.05.11.17.17.28.15h.04c.14-.03.22-.17.21-.31-.02-.14-.17-.23-.3-.21h-.04s-.03.02-.05.03c0-.05,0-.1,0-.15,0-.02,0-.04,0-.08,0-.01,0-.02.01-.03.01,0,.02-.01.03-.02,0,0,.02,0,.02,0,.04,0,.07,0,.11,0,.14-.02.32-.06.48-.17.21-.14.32-.33.41-.49.03-.05.05-.1.09-.14.06-.09.17-.18.27-.25.03-.02.07-.05.09-.08.05-.02.17,0,.26,0,.13.01.28.02.45,0,.07-.01.14-.03.2-.05,0,0,0,0,0,0,.07-.03.14-.05.2-.08,0,0,.02,0,.02-.01.05-.03.1-.05.15-.07l.13-.07s.04-.02.06-.03c0,0,0,0,.01,0h.04s.03-.01.04-.01c.01,0,.02,0,.04,0h.03s.03.01.03.01c.04.01.09.02.15.05l.12.05s.07.03.11.04l.05.02s.07.02.12.04h.04c.06.03.12.04.18.05.04,0,.07,0,.12,0,.17,0,.32-.03.46-.11.19-.1.31-.26.39-.38.02-.03.05-.06.07-.09.07.02.13.06.21.09.24.12.58.28,1.03.15.08-.02.16-.05.25-.09.04-.02.09-.04.13-.05.14-.04.28-.03.48.04.05.02.11.02.16.03,0,0,0,.02.01.02.05.07.11.18.22.27.05.04.1.07.17.1.01,0,.04.02.05.02.05.02.09.03.14.03.01,0,.04,0,.05,0,.1,0,.21,0,.32-.04l.04-.02s.06-.02.09-.04l.04-.02s.07-.04.11-.06c.03-.02.06-.04.11-.07,0,0,.02-.01.02-.01l.06-.04c.05-.04.11-.07.17-.12h0s0,.04.01.07c0,.04.01.07.02.1.02.09.05.17.09.25.02.04.04.08.07.12.06.09.13.17.22.22.05.04.11.07.16.09.14.05.29.05.43,0,.07-.02.14-.06.2-.1.01,0,.04-.03.05-.04.04-.04.08-.08.12-.13.03-.04.05-.07.08-.12,0,0,.01-.02.01-.03l.03-.05s.01-.02,0-.02c0,0,0,0,.01,0,0,0,0,0,.01,0,.02,0,.03,0,.04,0,0,0,.02,0,.02,0,.02,0,.04,0,.08.02.03,0,.06.02.1.03.03,0,.05.02.08.03,0,0,.02.01.02.01.03.01.06.03.09.04l.06.03s.03.02.06.04l.03.02s.03.02.03.02h0s0,.02,0,.03v.04s0,0,0,.01c0,.05,0,.1,0,.16,0,.09.03.17.06.25.03.08.08.15.13.21.05.05.1.11.16.15,0,0,0,0,0,0,.05.04.11.07.17.1,0,0,0,0,0,0,.04.02.07.03.11.05.04.02.08.03.14.05h.05s.1.04.15.05c.06.01.12.02.18.03.19.03.21.08.23.16.05.15.03.39.02.62,0,.07,0,.15-.01.22,0,.04,0,.08,0,.12-.03.07-.04.15-.03.24.07.56.43.8.71.9.06.02.12.04.18.05,0,.06,0,.13.02.21.05.16.17.25.22.28.06.04.13.09.21.14.08.05.23.15.29.21,0,.03.02.07.02.11-1.44.87-4.53,1.62-7.97,1.94-3.48.32-6.76.12-8.29-.49,0-.06,0-.13,0-.18.01-.32.03-.69-.13-.98,0-.01.01-.03.02-.04Z"/><path class="cls-2" d="M36.86,49.41c1.67-1.17,2.5-3.58,2.23-5.57-.16-1.23-.56-2.43-1.07-3.56-.21-.47-.66-1.02-.77-1.51l-.2-.87c-.05-.24-.1-.5-.16-.73l-.11-.41c-.35-1.35-.68-2.63-.65-3.97v-.3c.05-1.7.09-3.3-1.61-4.85-1.13-1.03-2.55-1.43-3.99-1.14-1.47.29-2.75,1.28-3.36,2.57-.49,1.04-.73,2.7.07,4.21.49.92,1.54,2.09,3.8,2.53.01.57.1,1.78.32,4.45.05.63.1,1.21.15,1.73l-.02.03c-.06.1-.12.21-.18.32-.06.11-.11.22-.16.33-.01.02-.02.05-.03.09-.04.09-.07.18-.11.28l-.02.07c-.03.1-.06.2-.09.31v.04c-.04.11-.06.22-.08.38-.4,2.53.69,6.29,3.79,6.29.86,0,1.62-.27,2.25-.71Z"/><path class="cls-2" d="M3.62,44.53c-1.37-1.51-1.65-4.04-.95-5.93.43-1.17,1.08-2.25,1.82-3.24.31-.41.87-.85,1.09-1.3,0,0,.39-.8.39-.8.1-.23.21-.46.32-.68l.19-.38c.64-1.24,1.25-2.41,1.51-3.73l.06-.3c.33-1.66.65-3.24,2.65-4.37,1.32-.75,2.8-.84,4.15-.23,1.37.61,2.41,1.85,2.71,3.24.25,1.13.11,2.79-1,4.09-.68.79-1.96,1.7-4.26,1.63-.14.55-.49,1.72-1.29,4.27-.19.6-.37,1.15-.53,1.66v.03c.05.11.08.23.12.35.03.12.06.24.09.36,0,.03,0,.05.01.09.02.1.03.19.04.29v.07c.02.11.02.21.02.32v.04c0,.11,0,.23-.01.39-.17,2.56-2.05,5.99-5.08,5.3-.84-.19-1.52-.62-2.04-1.19Z"/><circle class="cls-5" cx="20.83" cy="28.73" r=".62"/><circle class="cls-3" cx="23.91" cy="30.01" r="1.29"/></g></svg>