<?xml version="1.0" encoding="UTF-8"?><svg id="Layer_2" xmlns="http://www.w3.org/2000/svg" viewBox="0 0 60.03 54.85"><defs><style>.cls-1{fill:#5289b1;stroke-width:0px;}</style></defs><g id="Design"><path class="cls-1" d="M59.64,3.74c-.16-.08-.47-.13-.81.33-.5.69-3.74,4.99-4.29,5.47-.56.5-1.17.94-1.79,1.34-.01-.05-.02-.11-.04-.16-.57-2.27-1.67-4.43-3.17-6.22-3.15-3.78-7.6-5.24-11.72-3.92-3.01-.8-6.33-.7-9.18-.11-1.24.26-2.46.58-3.61,1.01-.37-.12-.76-.2-1.18-.23-3.78-.19-7.13,2.24-9.05,5.41-.21.05-.42.11-.63.16-.82.21-1.58.41-2.12.44-1.49.08-2.74.25-4.13,1.61-2.14,2.1-2.76,3.9-3.62,6.41l-.17.5c-.66,1.92-1.85,4.23-3.18,6.19-.08.11-.15.22-.22.32-.63.9-1.18,1.68-.17,3.06.69.94,1.9,1.48,3.28,1.48.08,0,.17,0,.26,0,1.49-.07,3.29-.78,4.81-1.89.34-.25.65-.53.94-.85,1.17-1.29,1.74-2.97,2.29-4.59.39-1.15.76-2.25,1.33-3.2.1-.04.2-.08.29-.12.19.62.4,1.23.6,1.83.28.81.56,1.65.78,2.47.36,1.35.4,2.6.35,4.18-.02.55-.11,1.12-.21,1.71-.13.78-.27,1.59-.22,2.39.12,2.04.31,3.36,1.06,5.38.47,1.26,1.15,2.29,2.04,3.09-.08.09-.15.16-.23.2-.05.02-.11.04-.16.06-.13.04-.29.1-.44.22-.23.18-.33.43-.4.63-.02.05-.04.11-.05.17-1.92.72-3.2,1.64-3.37,2.75,0,.01-.01.02-.01.03l-1.48,7.56c-.09.25-.14.51-.14.75.04,3.33,8.18,5.25,16.25,5.25.21,0,.43,0,.64,0,8.27-.11,16.79-2.26,16.75-5.68,0-.28-.07-.56-.19-.83l-1.63-7.14s0-.04,0-.05c-.02-1.34-1.63-2.47-4.65-3.29-.12-.03-.25-.06-.37-.1,0-.33-.07-.64-.28-.92-.02-.03-.04-.05-.07-.07-.28-.22-.52-.36-.71-.41.19-.21.38-.42.58-.65,1.61-1.84,2.03-3.52,2.14-5.13.52-.09,1.01-.2,1.47-.32.14.65.28,1.31.41,1.96.3,1.44.61,2.92.96,4.37.14.59.27,1.19.4,1.83.79,3.78,1.68,8.06,6.33,9.09.77.17,1.49.25,2.16.25,1.01,0,1.91-.19,2.68-.57.96-.47,1.6-1.3,1.68-2.16.06-.69-.25-1.33-.88-1.79h0c-.39-.29-.82-.42-1.26-.51.29.03.64.05,1,.05,1.19,0,2.59-.2,3.16-1,.26-.36.45-.98-.08-1.92-.42-.74-1.07-1.13-1.71-1.5-.4-.24-.77-.46-1.07-.76-.56-.56-.64-1.27-.73-2.1-.03-.27-.06-.55-.11-.83-.5-2.9-1.02-5.91-1.07-8.96-.01-.75,0-1.52.02-2.26.03-1.38.06-2.81-.08-4.23-.06-.64-.09-1.29-.1-1.93.13-.11.26-.23.39-.34,1.63-1.4,2.83-2.61,3.75-4.32.08-.14.16-.28.24-.42.44-.74,1-1.67,1.86-4.71,0-.03.68-3.36-.13-3.74ZM40.22,13.47c-.21-.4-.5-.84-.8-1.3-.88-1.36-1.98-3.05-1.55-4.17.22-.57.86-1.01,1.91-1.29.16-.04.33-.06.5-.06,2.23,0,5.09,3.48,6.13,5.22.38.63.57,1.34.77,2.09.2.75.41,1.52.82,2.22.47.8,1.1,1.31,1.67,1.76.74.59,1.33,1.06,1.43,2.03.2,1.89-1.11,3.63-2.37,5.32-.69.92-1.34,1.78-1.77,2.68-.11.22-.17.49-.25.77-.18.7-.34,1.21-.79,1.37-.66.24-1.2.22-1.65-.07-1.5-.96-1.81-4.57-1.94-6.12-.02-.24-.04-.44-.06-.61-.05-.44-.1-.89-.15-1.33-.11-.98-.23-2-.32-3-.19-2.16-.65-3.75-1.58-5.49ZM13.3,15.02c-.96,1.22-1.47,2.73-1.97,4.19-.55,1.61-1.06,3.14-2.12,4.3-.25.27-.52.52-.81.73-1.08.79-2.79,1.65-4.36,1.73-1.2.06-2.25-.37-2.81-1.13-.65-.89-.43-1.22.18-2.08.07-.11.15-.22.23-.33,1.37-2.01,2.59-4.4,3.28-6.39l.17-.5c.82-2.39,1.41-4.12,3.42-6.08,1.09-1.06,1.98-1.28,3.58-1.37.62-.03,1.43-.24,2.29-.46,1.06-.27,2.29-.59,3.29-.59.53,0,.99.09,1.33.32.36.25.58.65.66,1.24.29,2.17-1.4,3.11-3.35,4.21-1.12.63-2.28,1.28-3.02,2.22ZM19.03,12.05c-.18.39-.41.75-.64,1.04-.78.99-2.09,1.38-3.48,1.81-.16.05-.32.1-.48.15.62-.56,1.44-1.03,2.3-1.51.79-.44,1.61-.91,2.29-1.49ZM17.41,40.44s.04.04.06.06c.25.28-.15,1.04-.34,1.54-.41-.26-.59-.51-.6-.7,0-.23.25-.55.88-.9ZM38.6,38.6c.08.02.15.04.23.06,2.51.68,4.02,1.61,4.03,2.49,0,.57-.64,1.21-1.83,1.79-.18.09-.26.29-.22.48,0,.03,0,.05.02.08.1.21.35.3.56.19.77-.37,1.35-.78,1.73-1.2l1.38,6.07s.02.06.03.09c.09.18.13.36.13.53.03,2.23-6.36,4.7-15.92,4.83-9.55.13-16.01-2.19-16.04-4.42,0-.15.03-.3.09-.47,0-.02.02-.05.02-.07l1.22-6.23c.71.78,2.09,1.46,4.09,2,2.66.72,6.13,1.1,9.84,1.1.23,0,.45,0,.68,0,2-.03,3.94-.16,5.76-.4.23-.03.39-.24.36-.47,0-.02-.01-.03-.02-.05-.05-.2-.25-.34-.46-.31-1.79.24-3.7.37-5.66.4-3.89.05-7.54-.33-10.29-1.07-2.51-.68-4.02-1.61-4.03-2.49,0-.73.98-1.5,2.73-2.17.06.09.12.17.17.24-1.03.51-1.54,1.1-1.53,1.76.01,1.05,1.36,1.9,4.01,2.51,2.24.51,5.15.79,8.26.79.22,0,.45,0,.67,0,3.37-.04,6.53-.4,8.91-1.02,2.63-.68,3.96-1.55,3.94-2.61-.01-.9-.99-1.64-2.91-2.22,0-.06.02-.13.03-.19ZM38.24,39.58c1.75.51,2.4,1.08,2.4,1.45,0,.19-.17.44-.58.72-.01-.12-.03-.23-.05-.26-.14-.29-.56-.54-.8-.74-.03-.02-.06-.05-.07-.09-.02-.06.04-.12.06-.18.07-.15-.04-.33-.18-.42-.14-.09-.31-.11-.47-.18-.16-.07-.27-.16-.35-.27,0-.01.01-.02.02-.04ZM37.75,37.39c.13.22.08.64.02,1.04-.01.1-.03.19-.04.29,0,.05,0,.1,0,.16-.31.29-.39.68-.45,1-.02.08-.03.17-.06.24-.05.21-.2.35-.25.35-.04-.02-.13-.14-.19-.21-.15-.21-.38-.52-.8-.53h0c-.51,0-.74.44-.9.74-.04.07-.09.17-.13.23-.05-.07-.12-.19-.16-.26-.14-.25-.47-.84-1.06-.56-.32.15-.39.46-.43.65-.01.05-.03.13-.03.14-.05.02-.24-.04-.43-.2-.32-.28-.81-.7-1.39-.48-.31.12-.47.37-.6.57-.05.07-.09.14-.14.19-.14.15-.39.21-.57.13-.19-.08-.32-.3-.31-.5.01-.17-.08-.34-.24-.41-.06-.03-.12-.04-.18-.04-.11,0-.21.04-.29.12-.22.22-.44.41-.64.42-.05,0-.11-.05-.14-.09.09-.16.08-.35-.02-.5-.24-.35-.89-.24-.9-.24-.39.09-.51.4-.56.54,0,0,0,.02,0,.02-.2.12-.33.15-.38.16,0-.03-.02-.07-.03-.15,0-.04,0-.08,0-.13,0-.08.01-.17,0-.25-.02-.34-.23-.65-.55-.83-.32-.18-.69-.19-.99-.02-.04.02-.07.05-.1.08-.22.23-.36.54-.38.86v.02c-.17.05-.29.07-.4.05-.08-.02-.14-.07-.15-.1,0-.03,0-.11,0-.17.01-.13.03-.29-.01-.47-.12-.47-.64-.79-1.17-.7-.41.07-.73.33-.96.55l-.09.09c-.56.54-.77.64-1.02.45-.17-.13-.29-.37-.33-.66,0-.06-.03-.12-.06-.17-.12-.19-.32-.3-.55-.32-.29-.02-.63.14-.83.38-.06.07-.12.16-.17.24-.08.11-.16.23-.22.26-.04.02-.14,0-.26-.05-.09-.05-.17-.12-.24-.21-.11-.14-.24-.33-.26-.36,0-.02,0-.06.04-.16.02-.05.07-.19.13-.24.04-.03.12-.05.19-.08.09-.03.18-.06.27-.1.3-.15.48-.39.65-.59.08-.1.16-.2.24-.27.14-.13.31-.17.53-.24.2-.06.44-.12.66-.26l.06-.04s.03-.02.03-.02l.05-.04c.06-.05.12-.1.19-.16.1-.1.16-.2.19-.32.03-.12.02-.22.02-.29v-.03s0-.06.01-.08c.06-.13.07-.14.32-.15.19-.01.42-.03.66-.16.26-.14.41-.37.53-.55.05-.07.09-.14.14-.2.22-.26.63-.48.86-.45.05,0,.1.01.15.02h.04c.24.04.51.09.8,0,.24-.07.42-.14.57-.2.12-.05.21-.09.29-.1.01,0,.03,0,.04,0,.03,0,.06,0,.1,0,.02,0,.04,0,.07.01.08.02.18.06.3.11l.14.07c.19.09.41.2.64.25.07.01.14.02.21.03.16.01.31-.02.45-.09.23-.1.38-.28.5-.42l.03-.03c.05-.06.09-.1.13-.13.02-.02.04-.03.08-.03.12.05.24.11.37.19.3.18.68.39,1.23.29.11-.02.21-.05.31-.08.06-.02.13-.04.2-.06.24-.05.5-.01.82.14.13.06.16.09.24.2.06.07.13.16.25.27.48.45,1.04.12,1.41-.09.14-.08.29-.16.4-.2.02,0,.03,0,.07,0,0,.01.01.03.02.03,0,.02,0,.03.01.05.01.05.02.1.02.16v.1s.02.08.02.11c.01.1.04.21.08.3.1.25.26.43.46.52.14.07.3.08.45.04.15-.04.29-.12.41-.26.05-.06.09-.12.14-.19l.03-.05s.03-.05.05-.07c.01-.01.02-.02.03-.03.02-.01.04-.02.07-.02.16,0,.42.08.71.26l.08.05c.23.15.24.23.24.26,0,.03,0,.05-.01.08v.06s-.01,0-.01,0c0,.06-.02.12-.01.18,0,.1.02.2.05.29,0,.02.02.04.03.07,0,.01.02.05.03.06,0,.02.02.03.03.05.01.02.02.04.05.07l.03.04s.03.04.04.04c.01.02.03.03.06.06,0,0,.03.03.04.04.03.02.05.04.07.05,0,0,.02.02.03.02.03.02.05.04.1.06.03.02.05.03.06.03,0,0,.03.02.04.02.13.07.29.13.49.19h.04s.11-.39.11-.39l-.06.42.09.02s.17.07.37.23ZM39.95,24.63c-.44,1.51-.43,2.85-.42,4.16.02,2.18.03,4.06-1.97,6.36-.22.25-.42.47-.62.69,0-.01,0-.03,0-.04,0-.05,0-.1,0-.15,0-.08-.02-.16-.04-.23.52-1.44.3-3.05-.58-4.13-.07,1.05-.46,2.12-1.09,3.02-.08,0-.16-.01-.24,0-.15.01-.28.05-.4.12-.09.05-.17.11-.24.19-.05.06-.1.12-.14.18l-.03.04s0-.03-.01-.05l-.02-.19c0-.08-.02-.17-.04-.25-.01-.05-.02-.1-.04-.14-.02-.07-.05-.13-.09-.2-.06-.09-.12-.17-.2-.23-.18-.14-.4-.2-.63-.17-.06,0-.12.02-.19.04-.2.06-.39.17-.57.27-.13.08-.36.21-.42.21-.08-.07-.12-.13-.17-.19-.07-.09-.16-.19-.3-.29-.02-2.48-3.43-2.94-5.12-2.96-2.25-.03-4.19-.37-4.85,2.25-.15.61-.06,1.13.2,1.57-.08.11-.15.22-.22.26-.08.04-.19.05-.32.06-.29.02-.78.06-1.03.67-.06.14-.09.29-.08.45v.04s-.04.04-.07.06c0,0-.03.02-.04.03,0,0-.04.03-.04.03-.12.08-.27.12-.44.17-.24.07-.52.15-.77.35-.74-.67-1.37-1.58-1.81-2.77-.72-1.93-.89-3.15-1.01-5.14-.04-.71.08-1.44.21-2.2.1-.6.2-1.22.22-1.83.05-1.65,0-2.97-.38-4.42-.23-.85-.52-1.7-.8-2.52-.21-.61-.42-1.22-.6-1.84.2-.06.4-.13.6-.19,1.45-.44,2.95-.9,3.89-2.09.67-.85,1.28-2.16,1.29-3.35.18-.52.25-1.1.16-1.78-.11-.83-.45-1.44-1.02-1.82-.89-.6-2.19-.53-3.52-.27,1.74-2.48,4.43-4.31,7.46-4.31.13,0,.26,0,.38,0,.82.04,1.59.41,2.33.77.75.36,1.52.73,2.35.77,1.28.07,2.47-.3,3.62-.65,1.19-.36,2.33-.71,3.58-.63,2.28.14,3.46.66,4.86,2.15.48.51.91,1.08,1.29,1.68-.77-.34-1.54-.48-2.29-.28-1.32.35-2.15.96-2.47,1.8-.58,1.52.64,3.41,1.63,4.93.29.45.57.88.77,1.24.88,1.63,1.3,3.13,1.48,5.17.08.87.18,1.75.27,2.62-.53,1.01-1,1.99-1.29,2.98ZM55.05,43.9c.4.29.58.64.54,1.04-.05.56-.53,1.14-1.21,1.48-1.11.55-2.56.63-4.29.25-4.12-.91-4.91-4.74-5.68-8.44-.13-.62-.26-1.25-.41-1.85-.35-1.43-.65-2.91-.95-4.34-.17-.8-.33-1.6-.51-2.4-.02-.11-.1-.21-.2-.27-.07-.04-.14-.06-.22-.06-.04,0-.08,0-.12.02-.54.15-1.09.28-1.64.39,0-.31,0-.62,0-.93,0-.48,0-.96.01-1.45.46-.29.92-.62,1.38-.99.28,1.73.83,3.6,2.05,4.38.39.25.81.37,1.27.37.35,0,.72-.07,1.12-.21.9-.33,1.14-1.26,1.31-1.95.06-.24.12-.47.19-.62.39-.82,1.02-1.65,1.68-2.54.19-.25.37-.49.55-.74-.02.41-.05.82-.07,1.23-.07,1.11-.13,2.25-.12,3.38,0,.49.02.94.06,1.37.2,2.65.56,5.17.97,7.95.04.26.06.56.08.86.07.97.15,2.08.88,2.82.57.59,1.31.71,1.97.83.5.09.98.17,1.34.44ZM53.92,34.79c.05.26.07.53.1.78.1.9.21,1.84.98,2.6.38.37.81.63,1.23.88.56.33,1.09.65,1.41,1.2.38.67.19.93.13,1.01-.53.73-2.95.75-4.1.52-.72-.14-1.31-.41-1.82-.77-.09-.4-.12-.83-.15-1.26-.02-.33-.05-.63-.09-.93-.41-2.76-.77-5.26-.97-7.89-.03-.42-.05-.85-.05-1.31,0-1.1.06-2.23.12-3.32.05-.86.1-1.72.12-2.58.74-1.2,1.24-2.46,1.09-3.86-.14-1.32-.95-1.97-1.74-2.59-.35-.28-.7-.56-1.01-.91-.13-.2-.27-.39-.42-.57,0-.02-.02-.03-.03-.05-.35-.6-.54-1.29-.73-2.01-.21-.77-.42-1.57-.86-2.3-.09-.14-.19-.31-.31-.49-.36-1.53-.74-2.85-1.29-4.1-1.3-2.93-3.56-4.76-6.19-5.78,3.41-.58,6.95.85,9.55,3.97,1.42,1.7,2.46,3.74,3,5.89.12.46.21.94.3,1.41.05.25.1.5.15.75.26,1.22.29,2.5.31,3.73.02.81.04,1.65.12,2.48.14,1.36.11,2.77.08,4.13-.02.75-.03,1.52-.02,2.29.04,3.12.57,6.15,1.08,9.09ZM58.96,7.25c-.83,2.93-1.35,3.81-1.77,4.51-.09.15-.18.3-.26.45-.83,1.54-1.93,2.67-3.43,3.97-.03-1.08-.09-2.18-.32-3.27-.05-.24-.1-.49-.15-.74-.03-.14-.06-.28-.09-.42.76-.46,1.48-.99,2.16-1.58.57-.5,3.15-3.9,4.09-5.17-.02.78-.17,1.99-.23,2.25Z"/><path class="cls-1" d="M33.57,23.44c-1.12.12-2.21-.14-3.12-.65.65,1.72,2.17,2.93,3.63,2.77,1.47-.15,2.37-1.63,2.19-3.41-.63.69-1.57,1.17-2.7,1.29Z"/><path class="cls-1" d="M21.04,23.29c-1.14-.06-2.1-.49-2.76-1.15-.09,1.79.89,3.22,2.37,3.29,1.47.08,2.92-1.21,3.48-2.96-.88.56-1.96.87-3.08.82Z"/><path class="cls-1" d="M29.89,47.21c-.42-.01-.77.41-.79.95-.01.53.32.98.74.99.42.01.77-.41.79-.95.01-.53-.32-.98-.74-.99Z"/><path class="cls-1" d="M26.15,48.12c.01-.53-.32-.98-.74-.99-.42-.01-.77.41-.79.95-.01.53.32.98.74.99.42.01.77-.41.79-.95Z"/><path class="cls-1" d="M29.39,51.75c-.1-.04-.21,0-.24.11-.12.3-.55.55-.92.43-.2-.07-.37-.24-.44-.46-.04-.12-.06-.24-.06-.37.59-.13,1.35-.5.94-.88-.07-.07-.18-.08-.28-.08-.32-.01-.65-.03-.97-.04-.27-.01-.63.04-.88.13-.04.02-.09.04-.1.08,0,.03,0,.06.01.09.12.34.41.63.75.74.03,0,.07.01.11.02-.01.11-.04.21-.07.3-.09.22-.26.38-.47.44-.38.1-.8-.17-.9-.48-.03-.1-.14-.15-.24-.12-.1.03-.15.14-.12.24.13.39.58.74,1.06.75.1,0,.19,0,.29-.03.27-.07.5-.27.64-.52.13.26.35.46.61.55.09.03.19.05.29.05.48.01.95-.31,1.1-.7.04-.1,0-.21-.11-.24Z"/><path class="cls-1" d="M23.78,37.69c-.11-.06-.22-.11-.33-.15-.03-.06-.08-.11-.15-.15-.21-.11-.43-.15-.67-.15-.16,0-.26.12-.29.25-.13.18-.05.52.21.57.1.02.2.03.3.05.23.12.47.2.72.23.41.06.52-.46.2-.65Z"/><path class="cls-1" d="M20.58,37.8h-.06c-.19.03-.32.2-.31.38.01.19.2.32.38.31h.06c.19-.03.32-.2.31-.38-.01-.19-.2-.32-.38-.31Z"/><path class="cls-1" d="M21.22,36.18h-.06c-.19.03-.32.2-.31.38.01.19.2.32.38.31h.06c.19-.03.32-.2.31-.38-.01-.19-.2-.32-.38-.31Z"/><path class="cls-1" d="M34.37,38.89s-.07-.03-.1-.04c-.32-.04-.64-.05-.95-.03-.33.02-.43.54-.11.65.39.14.79.18,1.19.1.41-.08.38-.69-.03-.68Z"/><path class="cls-1" d="M36.17,38.34l-.05.06c-.12.14-.09.37.05.48.14.12.37.09.48-.05.02-.02.03-.04.05-.06.12-.14.09-.37-.05-.48-.14-.12-.37-.09-.48.05Z"/><path class="cls-1" d="M26.39,38.96l-.05.06c-.12.14-.09.37.05.48.14.12.37.09.48-.05.02-.02.03-.04.05-.06.12-.14.09-.37-.05-.48-.14-.12-.37-.09-.48.05Z"/></g></svg>