<?xml version="1.0" encoding="UTF-8"?><svg id="Layer_2" xmlns="http://www.w3.org/2000/svg" viewBox="0 0 96.12 50.51"><defs><style>.cls-1{fill:#9a9486;stroke-width:0px;}</style></defs><g id="Design"><path class="cls-1" d="M69.19,45.19h-26.87l-.16-.79s0-.05-.01-.07c0-.02,0-.03,0-.05-.62-2.84-3.18-4.89-6.08-4.89s-5.46,2.05-6.08,4.88c0,.02,0,.04-.01.05,0,.02,0,.05-.01.07l-.16.79h-13.84v-17.99c0-.54.44-.98.98-.98s.98.44.98.98v16.03h10.31c.47-1.54,1.4-2.93,2.67-3.96,1.45-1.18,3.29-1.84,5.17-1.84s3.71.65,5.17,1.84c1.26,1.03,2.19,2.42,2.67,3.96h23.33V1.97H17.92v2.99c0,.54-.44.98-.98.98s-.98-.44-.98-.98V0h53.24v45.19Z"/><path class="cls-1" d="M91.52,45.19h-4.43l-.16-.79s0-.05-.01-.08c0-.02,0-.03,0-.04-.62-2.84-3.18-4.89-6.08-4.89s-5.46,2.05-6.08,4.88c0,.02,0,.04-.01.05,0,.02,0,.05-.01.07l-.16.79h-7.33V15.92h8.99c2.49,0,4.88.93,6.72,2.62l13.18,12.13v9.93c0,2.53-2.06,4.6-4.6,4.6ZM88.66,43.22h2.86c1.45,0,2.63-1.18,2.63-2.63v-9.06l-12.55-11.55c-1.47-1.35-3.38-2.1-5.38-2.1h-7.02v25.34h3.79c.47-1.54,1.4-2.93,2.67-3.96,1.45-1.18,3.29-1.84,5.17-1.84s3.71.65,5.17,1.84c1.26,1.03,2.19,2.42,2.67,3.96Z"/><path class="cls-1" d="M36.06,50.51c-2.69,0-4.89-2.19-4.89-4.89,0-.36.04-.71.12-1.06.23-1.07.83-2.04,1.69-2.73.87-.71,1.96-1.09,3.08-1.09s2.21.39,3.08,1.09c.85.7,1.45,1.67,1.69,2.74.08.34.12.69.12,1.05,0,2.69-2.19,4.89-4.89,4.89ZM36.06,42.7c-1.36,0-2.56.96-2.85,2.29-.05.21-.07.42-.07.63,0,1.61,1.31,2.92,2.92,2.92s2.92-1.31,2.92-2.92c0-.21-.02-.42-.07-.63-.29-1.33-1.49-2.29-2.85-2.29Z"/><path class="cls-1" d="M80.82,50.51c-2.69,0-4.89-2.19-4.89-4.89,0-.36.04-.71.12-1.06.23-1.07.83-2.04,1.69-2.73.87-.71,1.96-1.09,3.08-1.09s2.21.39,3.08,1.09c.85.7,1.45,1.67,1.69,2.74.08.34.12.69.12,1.05,0,2.69-2.19,4.89-4.89,4.89ZM80.82,42.7c-1.36,0-2.56.96-2.85,2.29-.05.21-.07.42-.07.63,0,1.61,1.31,2.92,2.92,2.92s2.92-1.31,2.92-2.92c0-.21-.02-.42-.07-.63-.29-1.33-1.49-2.29-2.85-2.29Z"/><path class="cls-1" d="M93.38,30.84s-.1,0-.15-.01l-21.05-3.25v-7.13c0-.54.44-.98.98-.98s.98.44.98.98v5.45l19.38,2.99c.54.08.9.59.82,1.12-.08.49-.49.83-.97.83Z"/><path class="cls-1" d="M25.01,10.29H.98c-.54,0-.98-.44-.98-.98s.44-.98.98-.98h24.03c.54,0,.98.44.98.98s-.44.98-.98.98Z"/><path class="cls-1" d="M28.85,16.92h-13.11c-.54,0-.98-.44-.98-.98s.44-.98.98-.98h13.11c.54,0,.98.44.98.98s-.44.98-.98.98ZM9.19,16.92h-1.97c-.54,0-.98-.44-.98-.98s.44-.98.98-.98h1.97c.54,0,.98.44.98.98s-.44.98-.98.98Z"/><path class="cls-1" d="M32.68,23.56H8.65c-.54,0-.98-.44-.98-.98s.44-.98.98-.98h24.03c.54,0,.98.44.98.98s-.44.98-.98.98Z"/><path class="cls-1" d="M49.7,16.92c-.3,0-.59-.13-.79-.39l-4.23-5.6c-.33-.43-.24-1.05.19-1.38.43-.33,1.05-.24,1.38.19l4.23,5.6c.33.43.24,1.05-.19,1.38-.18.13-.39.2-.59.2Z"/><path class="cls-1" d="M55.65,17.05s-.01,0-.02,0l-5.96-.12c-.54-.01-.97-.46-.96-1,.01-.54.45-.96.98-.96,0,0,.01,0,.02,0l5.96.12c.54.01.97.46.96,1-.01.54-.45.96-.98.96Z"/><path class="cls-1" d="M49.7,26.7h0s-.09,0-.13,0c-.54,0-.98-.45-.97-.99,0-.54.44-.97.98-.97,0,0,0,0,0,0,.04,0,.08,0,.11,0,.54,0,.99.44.99.98s-.44.98-.98.98ZM53.39,25.98c-.39,0-.76-.23-.91-.61-.2-.5.04-1.08.54-1.28,1.05-.43,2-1.05,2.82-1.85.01-.01.03-.03.04-.04.01-.01.03-.03.04-.04.81-.81,1.44-1.75,1.89-2.8.21-.5.79-.73,1.29-.52.5.21.73.79.52,1.29-.54,1.28-1.32,2.44-2.31,3.43-.02.02-.03.03-.05.05-.02.02-.03.03-.05.05-1,.98-2.16,1.74-3.45,2.26-.12.05-.25.07-.37.07ZM45.9,25.94c-.13,0-.26-.02-.38-.08-1.28-.54-2.44-1.32-3.43-2.31-.02-.02-.03-.03-.05-.05-.02-.02-.03-.03-.05-.05-.98-1-1.74-2.16-2.27-3.45-.21-.5.04-1.08.54-1.28.5-.21,1.08.04,1.28.54.43,1.05,1.05,2,1.85,2.82.01.01.03.03.04.04.01.01.03.03.04.04.81.81,1.75,1.44,2.8,1.89.5.21.73.79.52,1.29-.16.38-.52.6-.91.6ZM59.48,17.05s0,0-.01,0c-.54,0-.98-.45-.97-.99,0-.04,0-.08,0-.11v-.02c0-.54.44-.98.98-.98s.98.44.98.98v.02s0,.09,0,.14c0,.54-.45.97-.98.97ZM39.92,16.93c-.54,0-.98-.44-.98-.98h0c0-.05,0-.09,0-.14,0-.54.45-.97.98-.97h.01c.54,0,.98.45.97.99,0,.03,0,.07,0,.1h0c0,.55-.44.99-.98.99ZM58.75,13.22c-.39,0-.75-.23-.91-.61-.43-1.05-1.06-2-1.86-2.82-.01-.01-.03-.03-.04-.04-.01-.01-.03-.03-.04-.04-.81-.81-1.75-1.44-2.8-1.88-.5-.21-.74-.79-.53-1.29.21-.5.79-.74,1.29-.53,1.28.54,2.44,1.31,3.43,2.3.02.02.03.03.05.05.02.02.03.03.05.05.98,1,1.74,2.16,2.27,3.45.21.5-.03,1.08-.54,1.28-.12.05-.25.07-.37.07ZM40.68,13.13c-.13,0-.26-.02-.38-.08-.5-.21-.74-.79-.52-1.29.54-1.28,1.32-2.44,2.3-3.43.02-.02.03-.03.05-.05.02-.02.03-.03.05-.05,1-.98,2.16-1.74,3.45-2.27.5-.21,1.08.04,1.28.54.21.5-.04,1.08-.54,1.28-1.05.43-2,1.05-2.82,1.85-.01.01-.03.03-.04.04-.01.01-.03.03-.04.04-.81.81-1.44,1.75-1.88,2.8-.16.38-.52.6-.91.6ZM49.81,7.14h-.01s-.07,0-.1,0h-.01c-.54,0-.98-.44-.98-.98s.44-.98.98-.98h.02s.08,0,.12,0c.54,0,.98.45.97.99,0,.54-.44.97-.98.97Z"/></g></svg>