<?xml version="1.0" encoding="UTF-8"?><svg id="Layer_2" xmlns="http://www.w3.org/2000/svg" viewBox="0 0 62.33 65.6"><defs><style>.cls-1{fill:#fff;stroke:#9a9486;stroke-linecap:round;stroke-linejoin:round;stroke-width:1.6px;}</style></defs><g id="Design"><path class="cls-1" d="M18.92,33.62c-1.45.18-2.21,1.04-2.22,2.53-.02,2.34,4.41,4.61,2.73,6.6"/><path class="cls-1" d="M25.96,28.03c-2.33.29-3.57,1.68-3.59,4.08-.03,3.78,7.11,7.44,4.4,10.64"/><rect class="cls-1" x="42" y="43.96" width="6.24" height="8.87" transform="translate(90.25 96.8) rotate(180)"/><path class="cls-1" d="M59.94,61.33v-3.2c0-3.21-2.06-6.06-5.12-7.06l-6.95-2.28h-5.5l-6.95,2.28c-3.05,1-5.12,3.85-5.12,7.06v3.2"/><line class="cls-1" x1="53.4" y1="56.06" x2="53.4" y2="61.33"/><line class="cls-1" x1="36.85" y1="56.06" x2="36.85" y2="61.33"/><polygon class="cls-1" points="52.7 50.36 49.37 53.7 45.12 51.39 45.12 48.78 47.87 48.78 52.7 50.36"/><polygon class="cls-1" points="37.55 50.36 40.88 53.7 45.12 51.39 45.12 48.78 42.37 48.78 37.55 50.36"/><line class="cls-1" x1="45.12" y1="51.39" x2="45.12" y2="58.7"/><path class="cls-1" d="M34.77,29.21v-8.58h20.72v8.58c4.29,0,4.11,6,.2,6v1.28c0,6.97-5.27,10.5-10.55,10.49-5.28.01-10.55-3.52-10.55-10.49v-1.28c-3.92,0-4.09-6,.2-6Z"/><line class="cls-1" x1="49.57" y1="29.6" x2="49.57" y2="30.73"/><line class="cls-1" x1="40.68" y1="29.6" x2="40.68" y2="30.73"/><path class="cls-1" d="M49.57,38.45c-.08,2.39-2.04,4.3-4.44,4.3s-4.36-1.91-4.44-4.3h8.89Z"/><path class="cls-1" d="M35.23,16.11s.27-6.6,5.75-6.24h8.29c5.48-.36,5.75,6.24,5.75,6.24,3.57,3.15,2.99,6.87,2.1,9.15-.53,1.37-1.93,2.2-3.39,2.06-5.06-.49-8.59-2.86-8.59-2.86,0,0-3.53,2.37-8.59,2.86-1.46.14-2.86-.69-3.39-2.06-.89-2.29-1.47-6,2.1-9.15Z"/><rect class="cls-1" x="31.82" y="17.95" width="26.61" height="5.07" transform="translate(90.23 41) rotate(-179.96)"/><path class="cls-1" d="M31.99,17.95c-1.96-1.29-3.27-3.51-3.27-6.07,0-5.04,5.04-8.56,9.79-6.79,1.13-2.53,3.67-4.3,6.62-4.3,2.95,0,5.49,1.77,6.62,4.3,4.75-1.77,9.79,1.75,9.78,6.8,0,2.54-1.31,4.75-3.25,6.05h-26.3Z"/><path class="cls-1" d="M54.2,9.86s1.46,6.73-5.49,8.08"/><path class="cls-1" d="M39.73,9.86s-2.65.46-3.02,2.75"/><path class="cls-1" d="M46.27,34.33c0-.59-.51-1.06-1.15-1.06s-1.15.48-1.15,1.06"/><rect class="cls-1" x=".8" y="61.33" width="59.82" height="3.47" rx=".8" ry=".8" transform="translate(61.42 126.13) rotate(180)"/><path class="cls-1" d="M15.8,60.51c5.83,0,10.55-4.72,10.55-10.55H5.25c0,5.83,4.72,10.55,10.55,10.55Z"/><path class="cls-1" d="M16.91,45.6c-.41-.4-1.31-.86-1.92-.86-.05,0-.09.01-.14.01-.43-1.49-1.8-2.57-3.42-2.57-.01,0-.03,0-.04,0-1.68.02-3.02,1.44-3.02,3.12v1.68"/><path class="cls-1" d="M25.25,49.96c.11-.25.18-.52.18-.82,0-1.08-.88-1.96-1.96-1.96-.65,0-1.23.32-1.59.81-.33-.31-.77-.51-1.25-.51-.04,0-.07,0-.11.01-.34-1.18-1.42-2.04-2.71-2.04-1.36,0-2.5.97-2.77,2.25-.12-.03-.24-.04-.36-.04-.44,0-.83.17-1.13.44-.29-.94-1.17-1.62-2.2-1.62-.7,0-1.32.31-1.75.8-.33-.19-.72-.3-1.14-.3-1.26,0-2.29,1.02-2.29,2.29,0,.24.04.47.11.69h18.97Z"/></g></svg>