<?xml version="1.0" encoding="UTF-8"?><svg id="Layer_2" xmlns="http://www.w3.org/2000/svg" viewBox="0 0 34.25 29.54"><defs><style>.cls-1{fill:#5289b1;stroke-width:0px;}</style></defs><g id="Design"><path class="cls-1" d="M11.73,20.12h-7.07c-.36,0-.65-.29-.65-.65s.29-.65.65-.65h7.07c.36,0,.65.29.65.65s-.29.65-.65.65Z"/><path class="cls-1" d="M7.71,16.59H.65c-.36,0-.65-.29-.65-.65s.29-.65.65-.65h7.07c.36,0,.65.29.65.65s-.29.65-.65.65Z"/><path class="cls-1" d="M11.73,13.06h-7.07c-.36,0-.65-.29-.65-.65s.29-.65.65-.65h7.07c.36,0,.65.29.65.65s-.29.65-.65.65Z"/><path class="cls-1" d="M20.65,29.54c-4.61,0-8.87-2.31-11.39-6.18-.2-.3-.11-.7.19-.9.3-.19.7-.11.9.19,2.28,3.5,6.14,5.59,10.31,5.59,6.78,0,12.3-5.52,12.3-12.3S27.44,3.65,20.65,3.65c-4.17,0-8.03,2.09-10.31,5.59-.2.3-.6.38-.9.19-.3-.2-.38-.6-.19-.9,2.52-3.87,6.78-6.18,11.39-6.18,7.5,0,13.59,6.1,13.59,13.59s-6.1,13.59-13.59,13.59Z"/><path class="cls-1" d="M25.36,8.44c-.11,0-.22-.03-.32-.09-2.66-1.54-6.12-1.54-8.77,0-.31.18-.7.07-.88-.24-.18-.31-.07-.71.24-.88,1.52-.88,3.26-1.35,5.03-1.35s3.51.47,5.03,1.35c.31.18.41.58.24.88-.12.21-.34.32-.56.32Z"/><path class="cls-1" d="M20.65,3.65c-.36,0-.65-.29-.65-.65V.65c0-.36.29-.65.65-.65s.65.29.65.65v2.35c0,.36-.29.65-.65.65Z"/><path class="cls-1" d="M21.83,1.29h-2.35c-.36,0-.65-.29-.65-.65s.29-.65.65-.65h2.35c.36,0,.65.29.65.65s-.29.65-.65.65Z"/><path class="cls-1" d="M27.13,5.38c-.11,0-.22-.03-.32-.09-.31-.18-.42-.57-.24-.88l1.18-2.04c.18-.31.58-.42.88-.24.31.18.42.57.24.88l-1.18,2.04c-.12.21-.34.32-.56.32Z"/><path class="cls-1" d="M29.32,3.93c-.11,0-.22-.03-.32-.09l-2.04-1.18c-.31-.18-.42-.57-.24-.88.18-.31.58-.42.88-.24l2.04,1.18c.31.18.42.57.24.88-.12.21-.34.32-.56.32Z"/><path class="cls-1" d="M14.18,5.38c-.22,0-.44-.12-.56-.32l-1.18-2.04c-.18-.31-.07-.71.24-.88.31-.18.71-.07.88.24l1.18,2.04c.18.31.07.71-.24.88-.1.06-.21.09-.32.09Z"/><path class="cls-1" d="M11.99,3.93c-.22,0-.44-.12-.56-.32-.18-.31-.07-.71.24-.88l2.04-1.18c.31-.18.71-.07.88.24.18.31.07.71-.24.88l-2.04,1.18c-.1.06-.21.09-.32.09Z"/><path class="cls-1" d="M20.65,18.95c-1.66,0-3-1.35-3-3s1.35-3,3-3,3,1.35,3,3-1.35,3-3,3ZM20.65,14.24c-.94,0-1.71.77-1.71,1.71s.77,1.71,1.71,1.71,1.71-.77,1.71-1.71-.77-1.71-1.71-1.71Z"/><path class="cls-1" d="M22.32,14.93c-.17,0-.33-.06-.46-.19-.25-.25-.25-.66,0-.92l4.98-4.98c.25-.25.66-.25.92,0,.25.25.25.66,0,.92l-4.98,4.98c-.13.13-.29.19-.46.19Z"/></g></svg>