<?xml version="1.0" encoding="UTF-8"?><svg id="Layer_2" xmlns="http://www.w3.org/2000/svg" viewBox="0 0 79.22 60.89"><defs><style>.cls-1{fill:#5289b1;stroke-width:0px;}</style></defs><g id="Design"><path class="cls-1" d="M65.28,16.49c-.91-.09-1.76,1.04-1.91,2.52-.14,1.49.47,2.76,1.38,2.86.91.09,1.76-1.04,1.91-2.52.15-1.49-.47-2.76-1.38-2.86Z"/><path class="cls-1" d="M78.05,25.35c-.53-.7-1.36-.97-2.17-1.23-.47-.15-.96-.31-1.38-.55-2.19-1.27-2.47-2.25-2.77-4.96-.07-.59-.17-1.14-.3-1.67.09-.06.19-.12.28-.19,1.86-1.37.28-5.72-.48-7.29-.3-.62-.75-1.15-1.18-1.66-.4-.48-.78-.93-1.04-1.44-.25-.5-.42-1.04-.59-1.56-.31-.97-.63-1.97-1.49-2.76-1.34-1.22-2.88-1.23-4.37-1.25-.83,0-1.61-.01-2.36-.21-.13-.03-.31-.12-.49-.2-.54-.25-1.27-.59-1.9-.22-.58.34-.9.8-.95,1.37-.16,1.72,2.24,3.83,3.53,4.96.15.13.27.24.37.33h0c.29.26.57.53.86.79.6.56,1.22,1.13,1.85,1.69.02.02.03.03.05.05-1.24-.4-2.51-.63-3.77-.69-1.23-1.16-2.67-2.06-3.44-2.46-.68-.35-1.39-.48-2.08-.6-.64-.12-1.25-.23-1.8-.5-.55-.27-1.06-.65-1.55-1.01-.93-.69-1.89-1.4-3.12-1.41h-.03c-1.88,0-3.03,1.35-4.14,2.65-.59.7-1.21,1.41-1.91,1.88-.12.08-.31.15-.51.23-.57.23-1.36.54-1.55,1.42-.2.92-.05,1.69.45,2.29,1.26,1.54,4.35,1.5,6,1.48.2,0,.37,0,.51,0,.39,0,.78.01,1.17.02.86.02,1.75.03,2.63.02.15,0,.29,0,.44,0-.06.08-.12.16-.19.24-.97,1.29-1.49,2.68-2.04,4.15-.13.36-.27.72-.41,1.08-.27.68-.77,1.21-1.26,1.72-.31.32-.62.65-.88,1.02-.2.09-.58.3-1.21.74-1.01.71-1.25,1.61-1.3,2.02-.36.24-.73.49-1.08.77l-.05.04c-1.31.29-2.79.38-4.51.29-1.6-.09-3.21-.44-4.91-1.07-.5-.19-.99-.45-1.47-.7-.38-.2-.77-.41-1.16-.57-1.14-.49-3.06-.96-4.7-.9-.12-.12-.23-.23-.35-.34-.6-.56-1.22-1.1-1.83-1.62-.3-.26-.6-.52-.9-.78-1.09-.96-2.12-2.16-2.97-3.47-.4-.61-2.48-5.21-2.71-5.75-.21-.48-.47-.52-.66-.47-.74.2-.57,2.91-.56,2.93.32,2.63.64,3.53.9,4.26.05.14.1.28.14.41.51,1.62,1.3,2.97,2.4,4.62.34.52.62.95.86,1.43.25.51.5.96.84,1.41-1.07,1.16-1.99,2.59-2.53,4.06-.88.46-1.7,1.05-2.62,1.71-.31.22-.63.45-.97.69-1.5,1.05-3.14,1.87-4.73,2.67-2.14,1.08-4.36,2.19-6.3,3.87-1.28,1.11-3.5,3.47-3.64,5.27-.11,1.35.48,1.94,1,2.2.32.16.69.23,1.09.23,1.01,0,2.17-.46,2.9-1.09.84-.72,1.34-1.08,2.24-1.32.29-.08.78-.21,1.36-.38,1.64-.47,4.38-1.24,5.13-1.26.69-.01,1.41.05,2.17.15-.61.45-1.2.94-1.77,1.49-.12.12-2.93,2.9-2.97,4.93-.02,1.23.54,1.74,1.02,1.95.26.11.54.16.84.16.96,0,2.04-.51,2.7-1.15.71-.68,1.12-1.04,1.9-1.29.26-.08.68-.23,1.19-.41,1.43-.51,3.82-1.35,4.48-1.4,1.38-.1,2.95.1,4.62.32.64.08,1.3.17,1.94.24,2.67.27,4.81-.32,6.28-1.67,3.62,1.94,6.8,3,9.59,3.2.12.22.25.45.38.69,2.19,4,5.49,10.05,6.89,11.61.67.75,2.17,1.24,3.62,1.24.25,0,.5-.01.74-.04,1.3-.16,2.28-.74,2.75-1.63.22-.41.27-.79.15-1.13-.21-.61-.89-.91-1.49-1.18-.3-.14-.59-.27-.77-.41-.39-.32-.74-.61-1-1.03-.27-.43-.49-.97-.71-1.49-.11-.26-.22-.52-.33-.76-.28-.6-.56-1.21-.83-1.81.19.13.38.25.57.38.33.23.67.48,1.01.72,1.86,1.35,3.96,2.88,6.06,2.91h.03c1.01,0,2.99-.81,3.83-2.11.5-.77.57-1.63.18-2.47-.39-.86-1.15-.76-1.61-.7-.17.02-.35.05-.45.02-1.42-.38-7.21-5.71-8.66-7.26-.16-.17-.32-.34-.47-.51.36-.54.66-1.09.92-1.68.15-.34.24-.72.33-1.08.1-.4.19-.77.35-1.08.27-.52.88-1.75,1.31-2.94.2.03.39.04.56.04.16,0,.31-.01.45-.03.93-.16,1.75-.42,2.42-.79.41-.22.83-.48,1.07-.86.03-.04.06-.08.08-.13.1-.15.21-.31.28-.5,0,0,0,0,0,0,.27.13.58.27.93.31.04,0,.09.01.14.02.11.02.23.04.36.04.09,0,.18-.01.27-.04.01,0,.02,0,.03-.01.34.21.65.46,1.03.81.29.26.71.47,1.08.66.12.06.24.12.34.17.43.23.77.36,1.23.45.11.02.23.05.34.07.44.1.89.19,1.34.19.19,0,.39-.02.58-.06.34-.08.61-.24.88-.4.1-.06.2-.12.3-.17l.19-.1c.34-.18.67-.34,1-.62.82-.67,1.48-1.37,1.95-2.09.08-.12.14-.24.21-.35.09-.16.16-.3.28-.43.15-.17.34-.32.53-.49.15-.13.3-.25.43-.38.58-.57,1.03-1.14,1.33-1.72.49-.18.85-.54.96-1.11.29-1.57-.33-2.35-1.1-2.76ZM63.96,8.73c-.62-.55-1.24-1.12-1.84-1.68-.29-.27-.57-.53-.86-.79-.1-.09-.23-.21-.38-.34-1.02-.89-3.4-2.99-3.27-4.31.03-.32.22-.57.58-.79.28-.17.77.06,1.19.25.22.1.42.2.62.25.85.23,1.71.23,2.55.24,1.41.01,2.74.02,3.86,1.05.71.65.99,1.51,1.28,2.42.17.55.35,1.11.63,1.67.3.59.72,1.1,1.14,1.59.42.5.81.97,1.07,1.51.86,1.76,1.95,5.42.71,6.33-.02.01-.03.02-.05.03-.76-2.29-2.23-4.03-4.52-5.38-.45-.26-.9-.5-1.35-.71-.4-.45-.85-.89-1.37-1.35ZM50.57,11.92c-.07,0-.13,0-.2,0-.87,0-1.75,0-2.61-.02-.39,0-.78-.01-1.17-.02-.14,0-.32,0-.53,0-1.42.02-4.37.06-5.4-1.2-.35-.42-.44-.96-.29-1.65.09-.44.49-.63,1.08-.87.24-.09.46-.18.65-.31.79-.53,1.44-1.29,2.07-2.02,1.04-1.22,2.03-2.38,3.56-2.38h.03c.98,0,1.8.61,2.67,1.26.52.38,1.06.78,1.67,1.08.65.32,1.34.45,2,.57.66.12,1.29.23,1.87.53,1.73.89,5.43,3.58,5.14,5.81-.14,1.04-.45,1.7-.94,1.94-.9.45-2.44-.41-3.67-1.1-.43-.24-.84-.47-1.21-.64-1.54-.7-2.92-.99-4.71-.99ZM20.64,22.42c-.25-.53-.56-1-.91-1.52h0c-1.06-1.6-1.82-2.89-2.3-4.43-.05-.15-.1-.29-.15-.44-.25-.69-.55-1.55-.86-4.09-.01-.18,0-.88.04-1.45.64,1.41,2.12,4.67,2.49,5.24.89,1.37,1.97,2.62,3.11,3.63.3.27.61.53.91.79.56.48,1.13.97,1.68,1.49-.21.04-.42.1-.61.17-.9.34-1.84.98-2.71,1.81-.27-.37-.47-.75-.69-1.19ZM29.94,45.06c-.64-.07-1.29-.15-1.92-.23-1.63-.21-3.32-.43-4.77-.32-.7.05-2.61.71-4.68,1.45-.5.18-.92.33-1.17.41-.96.31-1.47.76-2.2,1.47-.68.66-1.98,1.15-2.71.84-.39-.17-.58-.58-.56-1.23.03-1.28,1.65-3.33,2.74-4.4.72-.71,1.5-1.32,2.31-1.87.63.11,1.27.23,1.92.36.71.14,1.44.28,2.16.4,2.89.48,5.26.03,6.97-1.28,1.16.1,2.24.21,3.01.43,1.18.34,1.71.78,2.39,1.33.45.37.96.78,1.72,1.21.09.05.18.1.27.15-1.67,1.38-3.95,1.46-5.49,1.3ZM55.26,53.54c.11.23.21.48.32.73.23.54.47,1.11.77,1.59.32.52.74.88,1.17,1.22.25.2.6.36.94.51.46.2.97.44,1.08.73.05.13.01.31-.1.52-.48.9-1.56,1.16-2.17,1.23-1.53.19-3.15-.34-3.7-.95-1.34-1.49-4.75-7.73-6.78-11.46-.05-.1-.11-.19-.16-.29.02,0,.04,0,.06,0,.59,0,1.16-.04,1.71-.13,1.24.9,2.53,1.64,3.8,2.37.58.33,1.17.68,1.76,1.03.42.96.86,1.91,1.31,2.87ZM56.54,38.2c-.2.38-.31.82-.41,1.24-.09.35-.17.68-.29.96-.22.5-.46.95-.75,1.41,0,0,0,0,0,0-1.18-1.28-2.4-2.61-3.69-3.74-.16-.14-.4-.12-.54.04-.12.14-.12.34,0,.48.01.02.03.04.04.06,1.26,1.1,2.47,2.42,3.63,3.68.34.37.68.74,1.02,1.1,1.07,1.14,7.23,7,9.02,7.48.25.07.5.03.75,0,.49-.07.66-.06.81.26.28.61.24,1.18-.13,1.74-.72,1.1-2.46,1.76-3.19,1.76,0,0-.01,0-.02,0-1.86-.03-3.77-1.42-5.62-2.76-.34-.25-.68-.5-1.02-.73-1.17-.82-2.39-1.52-3.56-2.2-2.73-1.57-5.31-3.06-7.45-5.95,0,0,0,0,0,0-.13-.16-.36-.2-.53-.07-.17.13-.21.37-.08.54.92,1.24,1.93,2.24,2.98,3.09-3.27.25-7.23-.96-11.95-3.62-.71-.4-1.17-.78-1.62-1.14-.69-.56-1.33-1.09-2.66-1.47-.68-.19-1.53-.3-2.46-.39.68-.72,1.23-1.61,1.61-2.68.07-.2-.03-.42-.23-.49-.14-.05-.28-.01-.38.08-.05.04-.08.09-.11.15-1.22,3.39-4.24,4.87-8.51,4.16-.71-.12-1.44-.26-2.14-.4-1.81-.35-3.7-.71-5.33-.69-.78.01-2.97.61-5.33,1.28-.58.16-1.06.3-1.35.37-1.09.28-1.69.75-2.54,1.48-.81.7-2.33,1.17-3.14.75-.44-.23-.64-.72-.58-1.46.11-1.44,2.08-3.63,3.37-4.75,1.87-1.62,4.04-2.71,6.14-3.77,1.61-.81,3.28-1.65,4.82-2.73.34-.24.66-.47.98-.69,1.86-1.34,3.21-2.31,5.41-2.5.09,0,.16-.05.22-.1.09-.08.14-.19.13-.31-.02-.21-.19-.36-.41-.35-.81.07-1.51.24-2.16.48,1.1-2.38,3.18-4.56,5.03-5.26.44-.16.98-.23,1.57-.23,1.44,0,3.14.41,4.16.85.36.16.72.35,1.1.55.5.26,1.01.53,1.56.74,1.77.66,3.45,1.02,5.14,1.11,1.83.1,3.41,0,4.81-.32.06-.01.11-.04.16-.08l.11-.09c.19-.16.4-.31.61-.45.18,2.82,1.31,5.15,3.37,6.93,3.13,2.71,7.71,3.49,10.07,3.66.25.12.52.21.79.29-.3.8-.73,1.78-1.23,2.74ZM63.15,32.51c-.32.08-.41.39-.45.52v.03c-.04.11-.13.24-.22.37-.03.05-.07.1-.1.14-.17.26-.59.49-.79.6-.6.33-1.34.57-2.18.71-.83.14-2.46-.33-2.83-.93-.07-.12-.12-.28.07-.54,0,0,0,0,0,0,.1-.13.32-.15.67-.16.09,0,.17,0,.26-.01.5-.04,1.02-.14,1.6-.3.1-.03.2-.05.3-.07.1-.02.19-.04.29-.07.17-.05.31-.13.43-.21.04-.03.08-.05.13-.08.23-.12.43-.27.63-.41l.14-.1c.15-.11.29-.21.43-.25.06-.02.12-.02.19-.02.06,0,.12,0,.18.01-.14.12-.26.25-.38.38-.05.06-.11.12-.16.17-.5.51-1.16.86-1.87.98-.21.03-.35.23-.31.44.03.19.19.32.38.32.02,0,.04,0,.06,0,.87-.15,1.68-.57,2.29-1.2.06-.06.12-.13.18-.19.22-.24.43-.46.67-.52.08-.02.14-.07.19-.13l.04.02c.12.05.21.13.28.23.04.05.09.17.13.29-.08-.01-.16-.02-.25,0ZM64.62,32.93c-.07-.01-.14-.03-.2-.03-.06,0-.12-.02-.18-.04.03-.47-.33-1.08-.34-1.09-.15-.22-.36-.39-.6-.49l-.04-.02c-.11-.05-.27-.12-.45-.11-.02,0-.04,0-.07,0-.18-.14-.42-.17-.55-.18-.03,0-.05,0-.07,0-.23-.03-.53-.06-.81.02-.15.04-.28.11-.4.19-.13-.04-.26-.06-.37-.08-.27-.05-.44-.08-.63-.3-.18-.2-.32-.44-.4-.7.44.29.96.46,1.49.49.18,0,.36,0,.54,0,.12,0,.24-.01.36,0,.91.01,1.83.46,2.39,1.18.15.19.47.9.49,1.21-.05,0-.11-.02-.16-.03ZM76.32,30.39c-.12.12-.26.24-.4.35-.2.17-.41.35-.6.56-.18.2-.28.39-.39.58-.05.1-.11.2-.17.3-.43.65-1.03,1.3-1.79,1.91-.27.22-.55.36-.87.53l-.19.1c-.11.06-.23.13-.34.19-.22.13-.44.26-.65.31-.49.11-1.03,0-1.6-.13-.12-.03-.24-.05-.36-.08-.38-.08-.66-.18-1.02-.37-.11-.06-.23-.12-.36-.19-.33-.16-.7-.35-.91-.54-.42-.38-.76-.66-1.15-.9,0-.65-.52-1.58-.65-1.74-.71-.91-1.83-1.46-2.98-1.47-.13,0-.27,0-.4,0-.16,0-.31.01-.46,0-.66-.03-1.29-.37-1.68-.9-.09-.12-.25-.18-.4-.14-.15.04-.26.16-.29.31-.12.77.13,1.6.67,2.21.23.26.48.39.7.46-.03.01-.05.03-.08.05-.06.03-.12.07-.18.11-.08.05-.16.1-.22.12-.08.02-.15.04-.23.06-4.35-.32-8.98-2.53-11.25-5.42-1.34-1.71-1.81-3.51-1.41-5.35.22-.31.49-.6.78-.9.52-.54,1.1-1.15,1.42-1.97.14-.37.28-.73.41-1.09.53-1.42,1.03-2.76,1.93-3.96.17-.23.35-.45.51-.65,1.14.11,2.13.38,3.21.87.33.15.73.37,1.15.61,1.08.6,2.36,1.32,3.47,1.32.33,0,.64-.06.92-.21.74-.37,1.18-1.2,1.36-2.53.15-1.14-.45-2.29-1.33-3.31,1.95.21,3.9.86,5.76,1.96,2.85,1.67,4.29,3.91,4.67,7.24.3,2.68.56,4.03,3.15,5.54.32.19.67.33,1.01.44-.94-.05-1.75.19-1.75,1.41,0,1.93,2.15,3.23,3.83,3.28-.26.38-.57.73-.88,1.03Z"/></g></svg>