<?xml version="1.0" encoding="UTF-8"?><svg id="Layer_2" xmlns="http://www.w3.org/2000/svg" viewBox="0 0 82.49 53.06"><defs><style>.cls-1{fill:none;stroke:#5289b1;stroke-miterlimit:10;stroke-width:2px;}.cls-2{fill:#5289b1;stroke-width:0px;}</style></defs><g id="Design"><rect class="cls-1" x="1" y="7" width="74.49" height="45.06"/><polyline class="cls-1" points="7 1 81.49 1 81.49 46.06"/><path class="cls-2" d="M42.33,22.13c-.43-.6-.96-1.09-1.57-1.47-.62-.38-1.37-.56-2.26-.56s-1.66.13-2.24.38c-.58.25-1.01.62-1.28,1.09-.27.48-.41,1.07-.41,1.78,0,.87.26,1.58.79,2.14.52.56,1.21,1.04,2.05,1.44.84.4,1.74.78,2.7,1.15.62.23,1.28.52,1.98.89.71.36,1.37.82,1.98,1.35.62.54,1.12,1.2,1.5,1.98.39.79.58,1.73.58,2.82,0,1.35-.28,2.54-.84,3.57-.56,1.04-1.37,1.84-2.44,2.41-1.07.57-2.41.85-4,.85-1.3,0-2.51-.28-3.62-.84-1.12-.56-2.09-1.33-2.92-2.31-.83-.98-1.5-2.13-2-3.45l2.46-1.47c.48,1.09,1.01,2.04,1.61,2.84.59.8,1.27,1.41,2.03,1.85.76.43,1.64.65,2.62.65.91,0,1.67-.15,2.27-.46.6-.31,1.06-.75,1.37-1.33.31-.58.46-1.27.46-2.07,0-1.03-.28-1.87-.84-2.53-.56-.66-1.27-1.21-2.12-1.64-.85-.43-1.74-.81-2.65-1.13-.59-.21-1.24-.48-1.93-.82-.7-.34-1.35-.78-1.97-1.32-.62-.54-1.12-1.19-1.52-1.97-.4-.77-.6-1.71-.6-2.8s.31-2.08.92-2.96c.62-.88,1.45-1.57,2.5-2.09,1.05-.51,2.22-.77,3.52-.77s2.44.26,3.42.77c.98.51,1.81,1.16,2.48,1.95.67.79,1.17,1.59,1.49,2.41l-2.36,1.57c-.34-.66-.73-1.29-1.16-1.9ZM39.83,13.63v5.13h-2.53v-5.13h2.53ZM39.83,39.96v5.47h-2.53v-5.47h2.53Z"/></g></svg>