<?xml version="1.0" encoding="UTF-8"?><svg id="Layer_2" xmlns="http://www.w3.org/2000/svg" viewBox="0 0 57.85 63.9"><defs><style>.cls-1{fill:#5289b1;stroke:#5289b1;stroke-linecap:round;stroke-linejoin:round;}</style></defs><g id="Design"><path class="cls-1" d="M54.89,63.4H2.96V26.8h51.93v36.61ZM3.81,62.55h50.22V27.65H3.81v34.9Z"/><path class="cls-1" d="M57.35,27.65H.5v-11.07h56.85v11.07ZM1.35,26.8h55.14v-9.36H1.35v9.36Z"/><path class="cls-1" d="M32.38,63.4h-6.91V26.8h6.91v36.61ZM26.33,62.55h5.2V27.65h-5.2v34.9Z"/><path class="cls-1" d="M34.27,27.65h-10.69v-11.07h10.69v11.07ZM24.43,26.8h8.98v-9.36h-8.98v9.36Z"/><path class="cls-1" d="M33.23,17.43h-8.61v-.43c0-2.37,1.93-4.31,4.3-4.31s4.31,1.93,4.31,4.31v.43ZM25.5,16.58h6.85c-.21-1.7-1.67-3.02-3.42-3.02s-3.21,1.32-3.42,3.02Z"/><path class="cls-1" d="M22.02,17.53c-5.68,0-12.66-.91-13.83-5.25-.64-2.35.2-5.43,2.17-8.04,1.77-2.33,4.09-3.73,6.21-3.75h.05c2.76,0,4.75,2.2,6.67,4.32,1.54,1.71,3.03,5.71,4.01,8.76l.1.32-.28.18c-1.02.64-1.63,1.73-1.63,2.93h-.08v.43c-1.01.06-2.17.1-3.38.1ZM16.61,1.35h-.04c-1.86.02-3.93,1.29-5.53,3.41-1.79,2.36-2.59,5.23-2.03,7.3,1.24,4.6,10.83,4.77,15.63,4.55.11-1.23.74-2.34,1.74-3.08-1.31-4.04-2.63-6.93-3.73-8.14-1.8-1.99-3.65-4.04-6.04-4.04Z"/><path class="cls-1" d="M36.19,17.53c-1.22,0-2.38-.04-3.41-.1l-.4-.02v-.4c0-1.08-.5-2.09-1.37-2.75l-.24-.18.09-.29c.99-3.13,2.5-7.23,4.07-8.96,1.92-2.13,3.91-4.33,6.67-4.33h.05,0c2.12.02,4.44,1.42,6.21,3.75,1.98,2.61,2.81,5.69,2.17,8.04-1.17,4.33-8.15,5.25-13.83,5.25ZM33.21,16.6c4.68.23,14.71.18,15.99-4.54.56-2.07-.24-4.94-2.03-7.3-1.61-2.12-3.68-3.39-5.53-3.41h-.04c-2.38,0-4.24,2.06-6.04,4.04-1.12,1.24-2.47,4.21-3.81,8.38.84.73,1.35,1.73,1.45,2.83Z"/><rect class="cls-1" x="31.56" y="12.95" width="4.82" height=".85" transform="translate(.34 27.59) rotate(-44.41)"/><rect class="cls-1" x="22.14" y="11.08" width=".85" height="6.2" transform="translate(1.6 30.62) rotate(-70.24)"/></g></svg>