<?xml version="1.0" encoding="UTF-8"?><svg id="Layer_2" xmlns="http://www.w3.org/2000/svg" viewBox="0 0 65.5 60.43"><defs><style>.cls-1,.cls-2{fill:none;}.cls-1,.cls-2,.cls-3{stroke:#5289b1;stroke-miterlimit:10;}.cls-1,.cls-3{stroke-width:1.5px;}.cls-3{fill:#eef3f7;}.cls-4{fill:#5289b1;stroke-width:0px;}</style></defs><g id="Design"><path class="cls-4" d="M27.27,30.51c-.27-.41-.72-.66-1.21-.66-.28,0-.55.08-.78.23-5.1,3.29-8.34,8.14-9.88,10.86l-2.59-3.38c-.27-.36-.69-.57-1.15-.57-.32,0-.62.1-.88.3-.31.23-.5.57-.55.96-.05.38.05.76.28,1.07l3.97,5.2c.27.35.7.57,1.15.57.06,0,.12,0,.17-.01.51-.06.95-.39,1.15-.86.03-.07,3.29-7.44,9.88-11.7.32-.21.55-.53.63-.91.08-.38.01-.76-.2-1.09Z"/><path class="cls-4" d="M24.06,36.22c.35.94.54,1.94.54,2.97,0,2.25-.88,4.36-2.46,5.95-1.59,1.59-3.7,2.46-5.95,2.46s-4.36-.88-5.95-2.46c-1.59-1.59-2.46-3.7-2.46-5.95s.88-4.36,2.46-5.95c1.59-1.59,3.7-2.46,5.95-2.46,1.66,0,3.24.48,4.6,1.37.42-.4.86-.79,1.32-1.17-1.67-1.2-3.71-1.91-5.92-1.91-5.59,0-10.13,4.53-10.13,10.13s4.53,10.13,10.13,10.13,10.13-4.53,10.13-10.13c0-1.49-.33-2.91-.91-4.18-.47.39-.92.8-1.35,1.21Z"/><path class="cls-1" d="M4.75,4.68h56c2.21,0,4,1.79,4,4v43c0,4.42-3.58,8-8,8H8.75c-4.42,0-8-3.58-8-8V8.68c0-2.21,1.79-4,4-4Z"/><line class="cls-1" x1=".75" y1="19.04" x2="64.75" y2="19.04"/><rect class="cls-3" x="15.63" y=".75" width="5.28" height="12.02" rx="2.64" ry="2.64"/><rect class="cls-3" x="44.6" y=".75" width="5.28" height="12.02" rx="2.64" ry="2.64"/><rect class="cls-2" x="31.65" y="25.38" width="5.47" height="5.47" rx="1" ry="1"/><rect class="cls-2" x="39.12" y="25.38" width="5.47" height="5.47" rx="1" ry="1"/><rect class="cls-2" x="46.58" y="25.38" width="5.47" height="5.47" rx="1" ry="1"/><rect class="cls-2" x="54.05" y="25.38" width="5.47" height="5.47" rx="1" ry="1"/><rect class="cls-2" x="31.65" y="32.72" width="5.47" height="5.47" rx="1" ry="1"/><rect class="cls-2" x="39.12" y="32.72" width="5.47" height="5.47" rx="1" ry="1"/><rect class="cls-2" x="46.58" y="32.72" width="5.47" height="5.47" rx="1" ry="1"/><rect class="cls-2" x="54.05" y="32.72" width="5.47" height="5.47" rx="1" ry="1"/><rect class="cls-2" x="31.65" y="40.19" width="5.47" height="5.47" rx="1" ry="1"/><rect class="cls-2" x="39.12" y="40.19" width="5.47" height="5.47" rx="1" ry="1"/><rect class="cls-2" x="46.58" y="40.19" width="5.47" height="5.47" rx="1" ry="1"/><rect class="cls-2" x="54.05" y="40.19" width="5.47" height="5.47" rx="1" ry="1"/><rect class="cls-2" x="31.65" y="47.53" width="5.47" height="5.47" rx="1" ry="1"/><rect class="cls-2" x="39.12" y="47.53" width="5.47" height="5.47" rx="1" ry="1"/></g></svg>