<?xml version="1.0" encoding="UTF-8"?>
<svg id="_圖層_2" data-name="圖層 2" xmlns="http://www.w3.org/2000/svg" viewBox="0 0 35.03 33.94">
  <defs>
    <style>
      .cls-1 {
        fill: #fff;
        stroke-width: 0px;
      }
    </style>
  </defs>
  <g id="_圖層_1-2" data-name="圖層 1">
    <g>
      <path class="cls-1" d="M35.03,17.51c0-.3-.25-.55-.55-.55H.55C.25,16.97,0,17.21,0,17.51,0,24.5,4.38,30.47,10.54,32.84h-5.34c-.3,0-.55.25-.55.55s.25.55.55.55h24.63c.3,0,.55-.25.55-.55s-.25-.55-.55-.55h-5.34c6.15-2.37,10.54-8.34,10.54-15.33ZM1.11,18.06h32.82c-.02.51-.06,1.01-.13,1.51H1.23c-.07-.49-.11-1-.13-1.51ZM18.61,32.84h-2.19c-7.37,0-13.54-5.23-15-12.18h32.18c-1.46,6.95-7.62,12.18-15,12.18Z"/>
      <path class="cls-1" d="M10.83,9.22c.02.06.04.13.07.2.33-.16.67-.29,1.02-.41-.3-.82-.12-1.61.35-2.18-.13-.25-.19-.54-.16-.84.05-.53.37-.96.81-1.19-.16-.27-.25-.59-.21-.93.08-.78.74-1.37,1.52-1.37.05,0,.1,0,.16,0,.08-.78.74-1.37,1.52-1.37.05,0,.1,0,.16,0,.37.04.7.21.95.45.28-.32.69-.51,1.14-.51.05,0,.1,0,.16,0,.65.06,1.16.52,1.32,1.1.15-.06.31-.09.48-.09.42,0,.9.22,1.38.91,1.03,1.46.16,2.03.6,3.36.31-.23.66-.37,1.01-.44-.07-.29-.05-.53-.03-.83.06-.65.15-1.53-.69-2.73-.74-1.06-1.56-1.34-2.15-1.37-.43-.56-1.08-.93-1.82-1.01-.09,0-.18-.01-.27-.01-.41,0-.81.1-1.18.28-.25-.11-.53-.19-.81-.21-.09,0-.18-.01-.27-.01-1.03,0-1.92.58-2.35,1.44-1.04.27-1.83,1.16-1.94,2.27-.02.23-.02.46.02.68-.34.4-.56.9-.62,1.44-.03.27-.01.54.04.8-.41.76-.49,1.68-.22,2.55Z"/>
      <path class="cls-1" d="M24.87,11.45c-.14-.27-.46-.38-.73-.24-.27.14-.38.46-.24.73l1.97,3.94h4.62l.96-.27c.29-.08.46-.38.38-.68-.08-.29-.39-.46-.68-.38l-3.25.92c.37-.67.69-1.33.98-1.96l2.55-1.35c.27-.14.37-.47.23-.74-.14-.27-.47-.37-.74-.23l-1.37.72c.55-1.39.83-2.39.86-2.51.08-.29-.09-.59-.38-.67-.29-.08-.59.09-.67.38,0,.03-.34,1.2-1,2.8l-1.22-2.06c-.15-.26-.49-.35-.75-.19-.26.15-.35.49-.19.75l1.63,2.74c-.31.67-.66,1.37-1.05,2.07l-1.89-3.78Z"/>
      <path class="cls-1" d="M33.75,8.2c-.3-.31-.71-.47-1.23-.47h0c-.06,0-.12,0-.19,0-.01,0-.02,0-.03,0-.12,0-.22-.11-.49-.78-.23-.57-.62-1.54-1.66-1.54-.2,0-.4.04-.59.12-.06-.06-.12-.12-.17-.17-.35-.35-.78-.79-1.43-.79-.29,0-1,.1-1.36,1.06-.01.03-.03.06-.04.09-.17-.08-.39-.15-.65-.15h0c-.23,0-1.01.08-1.32,1.07-.08.26-.16.42-.21.5-.04-.01-.08-.02-.11-.03-.19-.06-.43-.14-.71-.14-.22,0-1.34.08-1.46,1.6,0,.08-.01.15-.01.23,0,.05,0,.12-.01.17-.07.01-.17.02-.32.03-.82.03-1.21.42-1.38.75-.39.73.02,1.45.33,1.94-.28.33-.39.77-.34,1.32-1.04.7-.87,1.78-.79,2.3.04.25.06.42.05.56h1.1c.03-.82-.43-1.51.29-1.97.99-.63-.07-1.35.81-1.67.88-.33-1.47-2.08-.03-2.13,1.45-.05,1.34-.67,1.4-1.43.04-.46.17-.59.37-.59.24,0,.58.2.93.2.39,0,.81-.25,1.14-1.29.07-.23.17-.3.28-.3.23,0,.53.32.86.32.27,0,.56-.21.85-.97.1-.26.21-.36.34-.36.42,0,.97,1.06,1.56,1.06.09,0,.19-.03.29-.09.14-.09.25-.13.35-.13.75,0,.6,2.32,2.16,2.32.03,0,.07,0,.1,0,.04,0,.08,0,.12,0,1.17,0-.12,1.28,1.09,2.46,1.24,1.21-1.72,1.68-.42,2.77,1.18.99-.98.34-.87,1.82h1.1s0-.01,0-.02c.05-.02.1-.04.14-.06.3-.12.94-.36,1.06-1.09.09-.55-.19-.97-.45-1.24.35-.34.84-.84.84-1.59,0-.5-.21-.97-.64-1.38-.25-.24-.25-.43-.23-.86.02-.39.05-.97-.4-1.44Z"/>
      <path class="cls-1" d="M6.92,15.87h1.13c.85-2.98,3.59-5.17,6.84-5.17,1.66,0,3.19.57,4.4,1.53.03-.2.09-.38.15-.54-.12-.26-.24-.56-.29-.89-1.24-.76-2.7-1.19-4.26-1.19-3.86,0-7.1,2.67-7.97,6.26Z"/>
      <path class="cls-1" d="M14.9,12.07c-1.57,0-2.99.63-4.03,1.65-.01.01-.03.02-.04.03-.01.01-.02.03-.03.04-.58.58-1.02,1.29-1.31,2.08h1.18c.15-.33.35-.65.57-.93l.93.93h1.55l-1.7-1.7c.66-.52,1.46-.86,2.33-.97v2.67h1.09v-2.67c.87.1,1.67.45,2.33.97l-1.7,1.7h1.55l.82-.82c-.04-.43-.04-1.01.2-1.59-1.01-.86-2.31-1.39-3.74-1.39Z"/>
      <path class="cls-1" d="M3.15,6.51s-.09-.04-.13-.06c0,0,0,0,0,0-.04-.01-.09-.02-.14-.02-.01,0-.02,0-.03,0-.05,0-.09,0-.13.02,0,0,0,0,0,0-.04.01-.09.04-.13.06,0,0-.01,0-.02,0,0,0,0,0-.01.01-.03.02-.06.05-.09.08,0,0,0,0-.01.01,0,0,0,0,0,0l-.03.04s-.03.03-.04.05C1.69,7.66-.48,10.91.1,14.48c.08.48.2.95.38,1.4.03,0,.05,0,.08,0h1.11c-.09-.2-.18-.4-.25-.61l1.86.61h1.98l.73-.72c.36-1.21.97-2.32,1.76-3.27-.35-.95-.87-1.8-1.44-2.52-.02-.04-.05-.07-.08-.1-1.2-1.49-2.56-2.43-2.97-2.7-.03-.02-.06-.04-.08-.05h0s0,0,0,0h0s-.01,0-.01,0ZM2.58,8.42l.54,3-1.58-.7c.3-.91.69-1.7,1.04-2.3ZM5.83,10.57c.44.64.81,1.37,1.04,2.17l-2.05,2.02-.41-2.29,1.42-1.91ZM5.14,9.67l-.99,1.33-.49-2.77c.45.37.98.85,1.48,1.44ZM3.34,12.72l.38,2.15-2.59-.85c-.09-.77-.03-1.52.11-2.24l2.09.93Z"/>
      <path class="cls-1" d="M14.91,8.51c1.57,0,3.04.4,4.34,1.09.04-.12.1-.25.17-.37.06-.1.14-.23.24-.35l.3-2.96c.03-.3-.19-.57-.49-.6-.3-.03-.57.19-.6.49l-.2,2.01c-.48-.61-.98-1.18-1.51-1.69-.22-.21-.57-.2-.77.02-.21.22-.2.56.02.77.5.48.97,1.02,1.43,1.6l-2.28-.41c-.28-.05-.55.13-.62.4Z"/>
    </g>
  </g>
</svg>