<?xml version="1.0" encoding="UTF-8"?>
<svg id="_圖層_2" data-name="圖層 2" xmlns="http://www.w3.org/2000/svg" viewBox="0 0 34.21 34.21">
  <defs>
    <style>
      .cls-1 {
        fill: none;
        stroke: #fff;
        stroke-linecap: round;
        stroke-linejoin: round;
        stroke-width: 1.19px;
      }
    </style>
  </defs>
  <g id="_圖層_1-2" data-name="圖層 1">
    <g>
      <line class="cls-1" x1="2.87" y1="5.15" x2="2.87" y2="13.69"/>
      <line class="cls-1" x1="5.15" y1="5.15" x2="5.15" y2="13.69"/>
      <path class="cls-1" d="M7.43,5.15v5.69c0,.72-.34,1.39-.91,1.82l-1.37,1.02h-2.28l-1.37-1.02c-.57-.43-.91-1.1-.91-1.82v-5.69"/>
      <path class="cls-1" d="M4.01,31.34h0c-.63,0-1.14-.51-1.14-1.14V13.69h2.28v16.51c0,.63-.51,1.14-1.14,1.14Z"/>
      <path class="cls-1" d="M33.61,22.23h-4.55c-1.26,0-2.28-1.02-2.28-2.28v-7.02c0-5.29,3.63-8.28,6.83-8.92h0v18.22Z"/>
      <polygon class="cls-1" points="30.2 22.23 30.2 29.06 29.06 29.06 29.06 31.34 33.61 31.34 33.61 29.06 33.61 22.23 30.2 22.23"/>
      <circle class="cls-1" cx="17.11" cy="17.11" r="7.4"/>
      <path class="cls-1" d="M8.73,31.34c2.45,1.45,5.32,2.28,8.37,2.28s5.92-.83,8.37-2.28"/>
      <path class="cls-1" d="M25.47,2.87c-2.45-1.45-5.31-2.27-8.37-2.27s-5.92.83-8.37,2.28"/>
    </g>
  </g>
</svg>