<?xml version="1.0" encoding="UTF-8"?>
<svg id="_圖層_2" data-name="圖層 2" xmlns="http://www.w3.org/2000/svg" viewBox="0 0 35.28 35.28">
  <defs>
    <style>
      .cls-1 {
        fill: #5289b1;
      }

      .cls-1, .cls-2 {
        stroke-width: 0px;
      }

      .cls-2 {
        fill: #fff;
      }
    </style>
  </defs>
  <g id="_圖層_1-2" data-name="圖層 1">
    <g>
      <g>
        <path class="cls-2" d="M17.64,35.28C7.91,35.28,0,27.37,0,17.64S7.91,0,17.64,0s17.64,7.91,17.64,17.64-7.91,17.64-17.64,17.64ZM17.64,1.26C8.61,1.26,1.26,8.61,1.26,17.64s7.35,16.38,16.38,16.38,16.38-7.35,16.38-16.38S26.67,1.26,17.64,1.26Z"/>
        <g>
          <rect class="cls-2" x=".38" y="16.75" width="34.89" height="2.14" transform="translate(-7.38 17.75) rotate(-44.83)"/>
          <path class="cls-1" d="M29.44,5.39l.89.89L6.21,30.26l-.89-.89L29.44,5.39M29.44,4.14l-.63.62L4.7,28.74l-.63.62.62.63.89.89.62.63.63-.62L30.95,6.91l.63-.62-.62-.63-.89-.89-.62-.63h0Z"/>
        </g>
      </g>
      <path class="cls-2" d="M14.76,5.73c-.31-.04-.55-.31-.55-.63,0-.35.29-.64.64-.64h5.26c.35,0,.64.29.64.64s-.24.59-.55.63v6.76s.33.68.33.68l-.45.45-.45-.93s-.03-.09-.03-.13v-6.82s-4.23,0-4.23,0v6.82s-.01.09-.03.13l-5.25,10.91-1.3,1.3,5.97-12.41v-6.76Z"/>
      <path class="cls-2" d="M10.56,28.89h13.84c.69,0,1.3-.35,1.64-.95.34-.59.34-1.3,0-1.9,0,0,0-.01-.01-.02l-4.74-9.87.45-.45,4.83,10.05c.45.78.44,1.71,0,2.49-.45.78-1.26,1.25-2.17,1.25h-13.84c-.71,0-1.36-.29-1.82-.79l.43-.43c.35.39.85.61,1.39.61Z"/>
      <polygon class="cls-2" points="18.92 14.78 11.78 21.92 15.21 14.78 18.92 14.78"/>
      <path class="cls-2" d="M25.34,26.41l-4.64-9.65-10.97,10.97c.15.17.41.38.83.38h13.84c.57,0,.86-.39.96-.55.1-.17.29-.61,0-1.1l-.02-.04Z"/>
    </g>
  </g>
</svg>