<?xml version="1.0" encoding="UTF-8"?>
<svg id="_圖層_2" data-name="圖層 2" xmlns="http://www.w3.org/2000/svg" viewBox="0 0 35.28 35.28">
  <defs>
    <style>
      .cls-1 {
        fill: #5289b1;
      }

      .cls-1, .cls-2 {
        stroke-width: 0px;
      }

      .cls-2 {
        fill: #fff;
      }
    </style>
  </defs>
  <g id="_圖層_1-2" data-name="圖層 1">
    <g>
      <g>
        <circle class="cls-2" cx="17.64" cy="9.04" r="1.19"/>
        <circle class="cls-2" cx="14.32" cy="11.89" r="1.19"/>
        <circle class="cls-2" cx="14.95" cy="15.11" r="1.19"/>
        <circle class="cls-2" cx="11.93" cy="15.11" r="1.19"/>
        <circle class="cls-2" cx="14.32" cy="18.12" r="1.19"/>
        <circle class="cls-2" cx="20.73" cy="18.12" r="1.19"/>
        <circle class="cls-2" cx="25.53" cy="18.12" r="1.19"/>
        <circle class="cls-2" cx="9.76" cy="18.12" r="1.19"/>
        <circle class="cls-2" cx="17.64" cy="20.01" r="1.19"/>
        <circle class="cls-2" cx="23.35" cy="20.24" r="1.19"/>
        <circle class="cls-2" cx="11.93" cy="20.24" r="1.19"/>
        <g>
          <path class="cls-2" d="M27.75,22.27c-.2.37-.58.62-1.03.62s-.82-.26-1.03-.62h-4.29c-.12.53-.57.93-1.14.93s-1.02-.4-1.14-.93h-3.03c-.12.53-.57.93-1.14.93s-1.02-.4-1.14-.93h-4.21c-.2.37-.58.62-1.03.62s-.82-.26-1.03-.62h-1.98l1.35,3.55c.37.97,1.31,1.62,2.35,1.62h16.56c1,0,1.91-.59,2.3-1.51l1.59-3.66h-1.97Z"/>
          <path class="cls-2" d="M9.76,21.7c0-.66-.53-1.19-1.19-1.19s-1.19.53-1.19,1.19c0,.21.07.4.17.57h2.06c.1-.17.17-.36.17-.57Z"/>
          <path class="cls-2" d="M27.92,21.7c0-.66-.53-1.19-1.19-1.19s-1.19.53-1.19,1.19c0,.21.07.4.17.57h2.06c.1-.17.17-.36.17-.57Z"/>
          <path class="cls-2" d="M16.14,22.01c0-.66-.53-1.19-1.19-1.19s-1.19.53-1.19,1.19c0,.09.03.17.05.26h2.28c.02-.09.05-.17.05-.26Z"/>
          <path class="cls-2" d="M21.46,22.01c0-.66-.53-1.19-1.19-1.19s-1.19.53-1.19,1.19c0,.09.03.17.05.26h2.28c.02-.09.05-.17.05-.26Z"/>
        </g>
        <circle class="cls-2" cx="23.35" cy="15.11" r="1.19"/>
        <circle class="cls-2" cx="20.26" cy="15.11" r="1.19"/>
        <circle class="cls-2" cx="17.64" cy="12.72" r="1.19"/>
        <circle class="cls-2" cx="17.64" cy="16.56" r="1.19"/>
        <circle class="cls-2" cx="20.73" cy="11.89" r="1.19"/>
      </g>
      <g>
        <path class="cls-2" d="M17.64,35.28C7.91,35.28,0,27.37,0,17.64S7.91,0,17.64,0s17.64,7.91,17.64,17.64-7.91,17.64-17.64,17.64ZM17.64,1.26C8.61,1.26,1.26,8.61,1.26,17.64s7.35,16.38,16.38,16.38,16.38-7.35,16.38-16.38S26.67,1.26,17.64,1.26Z"/>
        <g>
          <rect class="cls-2" x=".38" y="16.75" width="34.89" height="2.14" transform="translate(-7.38 17.75) rotate(-44.83)"/>
          <path class="cls-1" d="M29.44,5.39l.89.89L6.21,30.26l-.89-.89L29.44,5.39M29.44,4.14l-.63.62L4.7,28.74l-.63.62.62.63.89.89.62.63.63-.62L30.95,6.91l.63-.62-.62-.63-.89-.89-.62-.63h0Z"/>
        </g>
      </g>
    </g>
  </g>
</svg>