<?xml version="1.0" encoding="utf-8"?>
<!-- Generator: Adobe Illustrator 28.1.0, SVG Export Plug-In . SVG Version: 6.00 Build 0)  -->
<svg version="1.1" id="katman_1" xmlns="http://www.w3.org/2000/svg" xmlns:xlink="http://www.w3.org/1999/xlink" x="0px" y="0px"
	 viewBox="0 0 600 368" style="enable-background:new 0 0 600 368;" xml:space="preserve">
<style type="text/css">
	.st0{fill:#286CB4;}
	.st1{fill:#FFFFFF;}
</style>
<path class="st0" d="M566.7,0.2c18.4,0,33.3,15,33.3,33.5v300.9c0,18.4-15,33.5-33.3,33.5h-533c-18.4,0-33.3-15-33.3-33.5v-301
	c0-18.4,15-33.5,33.3-33.5h533"/>
<path class="st1" d="M133.8,155.7l12.8,31.1H121L133.8,155.7z M400.4,157h-49.3v13.8h48.5v20.6h-48.5v15.3h49.3V219l34.4-37.2
	l-34.4-38.9V157L400.4,157z M167.2,118.1h66.3l14.8,32.1l13.6-32.2h171.9l17.9,19.8l18.4-19.8H549l-58.3,63.9l57.8,63.4h-80.2
	l-17.9-19.8l-18.6,19.8H151.4l-8.1-19.8h-18.8l-8.1,19.8H51.6L106.1,118h56.8L167.2,118.1z M310.9,136.1h-37.2l-24.9,58.6
	l-26.9-58.6H185v79.7l-34.2-79.7h-33.1l-39.5,91.4h25.7l8.1-19.8h43.4l8.1,19.8h45.2v-65.3l29.1,65.3h19.8l28.9-65.1v65.1h24.2
	L310.9,136.1L310.9,136.1z M465.7,181.9l42-45.8h-30.2l-26.6,28.6l-25.7-28.6h-97.7v91.5h96.3l26.7-28.9l25.7,28.9h31.1L465.7,181.9
	L465.7,181.9z"/>
</svg>
