<?xml version="1.0" encoding="utf-8"?>
<!-- Generator: Adobe Illustrator 28.1.0, SVG Export Plug-In . SVG Version: 6.00 Build 0)  -->
<svg version="1.1" id="Layer_1" xmlns="http://www.w3.org/2000/svg" xmlns:xlink="http://www.w3.org/1999/xlink" x="0px" y="0px"
	 viewBox="0 0 700 430.2" style="enable-background:new 0 0 700 430.2;" xml:space="preserve">
<path id="XMLID_34_" d="M187.6,137.1c-6,7.1-15.6,12.7-25.2,11.9c-1.2-9.6,3.5-19.8,9-26.1c6-7.3,16.5-12.5,25-12.9
	C197.4,120,193.5,129.8,187.6,137.1 M196.3,150.9c-13.9-0.8-25.8,7.9-32.4,7.9c-6.7,0-16.8-7.5-27.8-7.3
	c-14.3,0.2-27.6,8.3-34.9,21.2c-15,25.8-3.9,64,10.6,85c7.1,10.4,15.6,21.8,26.8,21.4c10.6-0.4,14.8-6.9,27.6-6.9
	c12.9,0,16.6,6.9,27.8,6.7c11.6-0.2,18.9-10.4,26-20.8c8.1-11.8,11.4-23.3,11.6-23.9c-0.2-0.2-22.4-8.7-22.6-34.3
	c-0.2-21.4,17.5-31.6,18.3-32.2C217.3,152.9,201.7,151.3,196.3,150.9 M276.6,121.9v155.9h24.2v-53.3h33.5c30.6,0,52.1-21,52.1-51.4
	s-21.1-51.2-51.3-51.2L276.6,121.9L276.6,121.9z M300.8,142.3h27.9c21,0,33,11.2,33,30.9s-12,31-33.1,31h-27.8V142.3z M430.6,279
	c15.2,0,29.3-7.7,35.7-19.9h0.5v18.7h22.4v-77.6c0-22.5-18-37-45.7-37c-25.7,0-44.7,14.7-45.4,34.9h21.8
	c1.8-9.6,10.7-15.9,22.9-15.9c14.8,0,23.1,6.9,23.1,19.6v8.6l-30.2,1.8c-28.1,1.7-43.3,13.2-43.3,33.2
	C392.4,265.6,408.1,279,430.6,279z M437.1,260.5c-12.9,0-21.1-6.2-21.1-15.7c0-9.8,7.9-15.5,23-16.4l26.9-1.7v8.8
	C465.9,250.1,453.5,260.5,437.1,260.5z M519.1,320.2c23.6,0,34.7-9,44.4-36.3L606,164.7h-24.6l-28.5,92.1h-0.5l-28.5-92.1h-25.3
	l41,113.5l-2.2,6.9c-3.7,11.7-9.7,16.2-20.4,16.2c-1.9,0-5.6-0.2-7.1-0.4v18.7C511.3,320,517.3,320.2,519.1,320.2z"/>
</svg>
