<?xml version="1.0" encoding="utf-8"?>
<!-- Generator: Adobe Illustrator 28.1.0, SVG Export Plug-In . SVG Version: 6.00 Build 0)  -->
<svg version="1.1" id="Layer_1" xmlns="http://www.w3.org/2000/svg" xmlns:xlink="http://www.w3.org/1999/xlink" x="0px" y="0px"
	 viewBox="0 0 110 67" style="enable-background:new 0 0 110 67;" xml:space="preserve">
<style type="text/css">
	.st0{fill:#5F6368;}
	.st1{fill:#4285F4;}
	.st2{fill:#34A853;}
	.st3{fill:#FBBC04;}
	.st4{fill:#EA4335;}
</style>
<path class="st0" d="M52.8,34.2v9.3h-3v-23h7.8c1.9,0,3.7,0.7,5.1,2c1.4,1.2,2.1,3,2.1,4.9s-0.7,3.6-2.1,4.9s-3.1,2-5.1,2L52.8,34.2
	L52.8,34.2z M52.8,23.2v8h5c1.1,0,2.2-0.4,2.9-1.2c1.6-1.5,1.6-4,0.1-5.5l-0.1-0.1c-0.8-0.8-1.8-1.3-2.9-1.2H52.8L52.8,23.2z"/>
<path class="st0" d="M71.7,27.2c2.2,0,3.9,0.6,5.2,1.8c1.3,1.2,1.9,2.8,1.9,4.8v9.6H76v-2.2h-0.1C74.7,43,73,44,71,44
	c-1.7,0-3.2-0.5-4.4-1.5c-1.1-1-1.8-2.4-1.8-3.9c0-1.6,0.6-2.9,1.8-3.9s2.9-1.4,4.9-1.4c1.8,0,3.2,0.3,4.3,1v-0.7c0-1-0.4-2-1.2-2.6
	c-0.8-0.7-1.8-1.1-2.9-1.1c-1.7,0-3,0.7-3.9,2.1l-2.6-1.6C66.8,28.2,68.9,27.2,71.7,27.2z M67.9,38.7c0,0.8,0.4,1.5,1,1.9
	c0.7,0.5,1.5,0.8,2.3,0.8c1.2,0,2.4-0.5,3.3-1.4c1-0.9,1.5-2,1.5-3.2c-0.9-0.7-2.2-1.1-3.9-1.1c-1.2,0-2.2,0.3-3,0.9
	C68.3,37,67.9,37.8,67.9,38.7z"/>
<path class="st0" d="M95,27.8l-9.9,22.7h-3l3.7-7.9l-6.5-14.7h3.2l4.7,11.3h0.1l4.6-11.3L95,27.8L95,27.8z"/>
<path class="st1" d="M40.9,32.2c0-0.9-0.1-1.8-0.2-2.7H28.2v5.1h7.1c-0.3,1.6-1.2,3.1-2.6,4v3.3H37C39.5,39.5,40.9,36.2,40.9,32.2z"
	/>
<path class="st2" d="M28.2,45c3.6,0,6.6-1.2,8.8-3.2l-4.3-3.3c-1.2,0.8-2.7,1.3-4.5,1.3c-3.4,0-6.4-2.3-7.4-5.5h-4.4v3.4
	C18.7,42.2,23.2,45,28.2,45z"/>
<path class="st3" d="M20.8,34.4c-0.6-1.6-0.6-3.4,0-5.1v-3.4h-4.4c-1.9,3.7-1.9,8.1,0,11.9L20.8,34.4z"/>
<path class="st4" d="M28.2,23.9c1.9,0,3.7,0.7,5.1,2l0,0l3.8-3.8c-2.4-2.2-5.6-3.5-8.8-3.4c-5,0-9.6,2.8-11.8,7.3l4.4,3.4
	C21.8,26.2,24.8,23.9,28.2,23.9z"/>
</svg>
