<?xml version="1.0" encoding="utf-8"?>
<!-- Generator: Adobe Illustrator 28.1.0, SVG Export Plug-In . SVG Version: 6.00 Build 0)  -->
<svg version="1.1" id="Layer_1" xmlns="http://www.w3.org/2000/svg" xmlns:xlink="http://www.w3.org/1999/xlink" x="0px" y="0px"
	 viewBox="0 0 152.4 100" style="enable-background:new 0 0 152.4 100;" xml:space="preserve">
<style type="text/css">
	.st0{fill:none;}
	.st1{fill:#FF5F00;}
	.st2{fill:#EB001B;}
	.st3{fill:#F79E1B;}
</style>
<g>
	<rect y="-4" class="st0" width="152.4" height="108"/>
	<g>
		<rect x="60.4" y="21.7" class="st1" width="31.5" height="56.6"/>
		<path class="st2" d="M62.4,50c0-11,5.1-21.5,13.7-28.3c-15.6-12.3-38.3-9.6-50.6,6.1C13.3,43.4,16,66,31.7,78.3
			c13.1,10.3,31.4,10.3,44.5,0C67.5,71.5,62.4,61,62.4,50z"/>
		<path class="st3" d="M134.4,50c0,19.9-16.1,36-36,36c-8.1,0-15.9-2.7-22.2-7.7c15.6-12.3,18.3-34.9,6-50.6c-1.8-2.2-3.8-4.3-6-6
			c15.6-12.3,38.3-9.6,50.5,6.1C131.7,34.1,134.4,41.9,134.4,50z"/>
		<path class="st3" d="M131,72.3v-1.2h0.5v-0.2h-1.2v0.2h0.5v1.2H131z M133.3,72.3v-1.4h-0.4l-0.4,1l-0.4-1h-0.4v1.4h0.3v-1.1
			l0.4,0.9h0.3l0.4-0.9v1.1H133.3z"/>
	</g>
</g>
</svg>
