<?xml version="1.0" encoding="utf-8"?>
<!-- Generator: Adobe Illustrator 28.1.0, SVG Export Plug-In . SVG Version: 6.00 Build 0)  -->
<svg version="1.1" id="Layer_1" xmlns="http://www.w3.org/2000/svg" xmlns:xlink="http://www.w3.org/1999/xlink" x="0px" y="0px"
	 viewBox="0 0 380 233" style="enable-background:new 0 0 380 233;" xml:space="preserve">
<style type="text/css">
	.st0{fill:#E21836;}
	.st1{fill:#00447C;}
	.st2{fill:#007B84;}
	.st3{fill:#FEFEFE;}
</style>
<g>
	<path class="st0" d="M112,36.5h63.8c8.9,0,14.4,7.3,12.4,16.2l-29.7,127.5c-2.1,8.9-11,16.2-19.9,16.2H74.8
		c-8.9,0-14.4-7.3-12.4-16.2L92.1,52.7C94.2,43.8,103.1,36.5,112,36.5"/>
	<path class="st1" d="M170.5,36.5h73.3c8.9,0,4.9,7.3,2.8,16.2L217,180.2c-2.1,8.9-1.4,16.2-10.4,16.2h-73.3
		c-8.9,0-14.4-7.3-12.3-16.2l29.7-127.5C152.7,43.8,161.6,36.5,170.5,36.5"/>
	<path class="st2" d="M240.9,36.5h63.8c8.9,0,14.5,7.3,12.4,16.2l-29.7,127.5c-2.1,8.9-11,16.2-19.9,16.2h-63.7
		c-8.9,0-14.5-7.3-12.4-16.2L221,52.7C223.1,43.8,232,36.5,240.9,36.5"/>
	<path class="st3" d="M128.7,77.4c-6.6,0.1-8.5,0-9.1-0.1c-0.2,1.1-4.7,21.5-4.7,21.6c-1,4.1-1.6,7.1-4,9c-1.3,1.1-2.9,1.6-4.7,1.6
		c-2.9,0-4.6-1.4-4.9-4.2l-0.1-0.9c0,0,0.9-5.5,0.9-5.6c0,0,4.6-18.6,5.5-21.1c0-0.1,0.1-0.2,0.1-0.3c-9,0.1-10.6,0-10.8-0.1
		c-0.1,0.2-0.3,1.4-0.3,1.4l-4.7,21l-0.4,1.8l-0.8,5.8c0,1.7,0.3,3.1,1,4.3c2.2,3.8,8.3,4.3,11.8,4.3c4.5,0,8.7-1,11.6-2.7
		c4.9-2.9,6.2-7.5,7.4-11.5l0.5-2.2c0,0,4.8-19.3,5.6-21.8C128.6,77.5,128.7,77.4,128.7,77.4z M145,92.9c-1.2,0-3.3,0.3-5.2,1.2
		c-0.7,0.4-1.3,0.8-2,1.2l0.6-2.2l-0.3-0.4c-4,0.8-4.9,0.9-8.6,1.4l-0.3,0.2c-0.4,3.6-0.8,6.3-2.4,13.3c-0.6,2.6-1.2,5.2-1.9,7.8
		l0.2,0.3c3.8-0.2,5-0.2,8.3-0.1l0.3-0.3c0.4-2.1,0.5-2.7,1.4-7c0.4-2.1,1.3-6.6,1.8-8.2c0.8-0.4,1.6-0.8,2.4-0.8
		c1.9,0,1.6,1.6,1.6,2.3c-0.1,1.1-0.8,4.6-1.4,7.6l-0.5,2c-0.3,1.4-0.7,2.8-1,4.3l0.1,0.3c3.7-0.2,4.9-0.2,8.1-0.1l0.4-0.3
		c0.6-3.4,0.7-4.3,1.8-9.1l0.5-2.2c1-4.4,1.5-6.6,0.7-8.4C148.7,93.4,146.7,92.9,145,92.9z M163.2,97.5c-2,0.4-3.3,0.6-4.5,0.8
		c-1.3,0.2-2.5,0.4-4.4,0.6l-0.2,0.1l-0.1,0.1c-0.2,1.4-0.3,2.7-0.6,4.1c-0.2,1.5-0.6,3.2-1.1,5.7c-0.4,1.9-0.7,2.5-0.9,3.2
		s-0.5,1.3-1,3.2l0.1,0.2l0.1,0.2c1.8-0.1,3-0.1,4.2-0.2c1.2,0,2.5,0,4.4,0l0.2-0.1l0.2-0.2c0.3-1.7,0.3-2.1,0.5-2.9
		c0.2-0.9,0.5-2.1,1.2-5.3c0.3-1.5,0.7-3,1.1-4.6c0.4-1.5,0.7-3.1,1.1-4.6l-0.1-0.2L163.2,97.5z M163.2,91.3c-1.8-1.1-5-0.7-7.1,0.7
		c-2.1,1.4-2.4,3.5-0.6,4.6c1.8,1,5,0.7,7.1-0.8C164.7,94.4,165,92.4,163.2,91.3z M174.2,116.1c3.7,0,7.4-1,10.2-4
		c2.2-2.4,3.2-6,3.5-7.5c1.1-4.9,0.2-7.2-0.9-8.6c-1.7-2.1-4.6-2.8-7.7-2.8c-1.8,0-6.2,0.2-9.6,3.3c-2.5,2.3-3.6,5.4-4.3,8.3
		c-0.7,3-1.5,8.5,3.5,10.5C170.5,115.9,172.7,116.1,174.2,116.1z M173.9,105c0.8-3.7,1.8-6.9,4.4-6.9c2,0,2.1,2.3,1.3,6.1
		c-0.2,0.8-0.9,3.9-1.9,5.2c-0.7,1-1.5,1.6-2.4,1.6c-0.3,0-1.9,0-1.9-2.4C173.3,107.5,173.6,106.3,173.9,105z M197.1,115.6l0.3-0.3
		c0.4-2.1,0.5-2.7,1.4-7c0.4-2.1,1.4-6.6,1.8-8.2c0.8-0.4,1.6-0.8,2.4-0.8c1.8,0,1.6,1.6,1.5,2.3c-0.1,1.1-0.7,4.6-1.4,7.6l-0.4,2
		c-0.3,1.4-0.7,2.8-1,4.3l0.1,0.3c3.8-0.2,4.9-0.2,8.1-0.1l0.4-0.3c0.6-3.4,0.7-4.3,1.8-9.1l0.5-2.2c1-4.4,1.5-6.6,0.8-8.4
		c-0.8-2-2.8-2.5-4.5-2.5c-1.2,0-3.3,0.3-5.2,1.2c-0.7,0.4-1.3,0.8-2,1.2l0.6-2.2L202,93c-4,0.8-4.9,0.9-8.6,1.4l-0.3,0.2
		c-0.4,3.6-0.8,6.3-2.4,13.3c-0.6,2.6-1.2,5.2-1.9,7.8l0.2,0.3C192.6,115.5,193.8,115.5,197.1,115.6z M224.7,115.7
		c0.2-1.2,1.6-8,1.7-8c0,0,1.2-5,1.3-5.2c0,0,0.4-0.5,0.8-0.7h0.6c5.2,0,11.1,0,15.7-3.4c3.1-2.3,5.3-5.8,6.3-10
		c0.2-1,0.4-2.2,0.4-3.5c0-1.6-0.3-3.2-1.3-4.4c-2.4-3.3-7-3.4-12.5-3.4H235c-6.9,0.1-9.7,0.1-10.9-0.1c-0.1,0.5-0.3,1.4-0.3,1.4
		l-2.5,11.5c0,0-5.9,24.5-6.2,25.6C221.1,115.6,223.6,115.6,224.7,115.7z M229.3,95.3c0,0,2.6-11.5,2.6-11.4l0.1-0.6v-0.4l1.1,0.1
		c0,0,5.4,0.5,5.6,0.5c2.1,0.8,3,3,2.4,5.8c-0.6,2.6-2.2,4.7-4.4,5.7c-1.8,0.9-3.9,1-6.1,1h-1.4L229.3,95.3z M245.7,105.2
		c-0.7,3-1.5,8.4,3.5,10.3c1.6,0.7,3,0.9,4.5,0.8c1.5-0.1,2.9-0.8,4.2-1.9c-0.1,0.5-0.2,0.9-0.4,1.4l0.2,0.3
		c3.6-0.2,4.7-0.2,8.6-0.1l0.4-0.3c0.6-3.3,1.1-6.6,2.6-12.9c0.7-3,1.4-6.1,2.2-9.1l-0.1-0.3c-4,0.7-5.1,0.9-8.9,1.4l-0.3,0.2
		c0,0.3-0.1,0.6-0.1,0.9c-0.6-1-1.5-1.8-2.8-2.3c-1.7-0.7-5.7,0.2-9.2,3.3C247.5,99.2,246.4,102.2,245.7,105.2z M254.1,105.4
		c0.9-3.7,1.8-6.8,4.4-6.8c1.6,0,2.5,1.5,2.3,4c-0.1,0.6-0.3,1.3-0.5,2.1c-0.3,1.1-0.5,2.2-0.8,3.3c-0.3,0.7-0.6,1.4-0.9,1.9
		c-0.7,0.9-2.2,1.5-3.1,1.5c-0.3,0-1.8,0-1.9-2.3C253.6,107.9,253.8,106.7,254.1,105.4z M298,93.3l-0.3-0.4c-4,0.8-4.7,0.9-8.3,1.4
		l-0.3,0.3c0,0,0,0.1,0,0.2v-0.1c-2.7,6.2-2.6,4.9-4.8,9.8c0-0.2,0-0.4,0-0.6l-0.6-10.7l-0.3-0.4c-4.1,0.8-4.2,0.9-8.1,1.4l-0.3,0.3
		c0,0.1,0,0.3-0.1,0.4V95c0.5,2.4,0.4,1.9,0.8,5.8c0.2,1.9,0.5,3.8,0.7,5.7c0.4,3.1,0.6,4.7,1.1,9.5c-2.6,4.3-3.2,5.9-5.7,9.6l0,0
		l-1.8,2.8c-0.2,0.3-0.4,0.5-0.6,0.6c-0.3,0.1-0.6,0.2-1.1,0.2h-1l-1.4,4.8l5,0.1c2.9,0,4.7-1.4,5.7-3.2l3.1-5.3l0,0l0.3-0.4
		C282.1,120.6,298,93.3,298,93.3z M245.7,156.4h-2.1l7.8-25.7h2.6l0.8-2.7l0.1,2.9c-0.1,1.8,1.3,3.4,5.1,3.2h4.4l1.5-5h-1.6
		c-0.9,0-1.4-0.2-1.3-0.7l-0.1-3h-8.1l0,0c-2.6,0.1-10.4,0.3-12,0.7c-1.9,0.5-3.9,1.9-3.9,1.9l0.8-2.7h-7.5l-1.6,5.3l-7.9,26.1h-1.5
		l-1.5,4.9h15l-0.5,1.6h7.4l0.5-1.6h2.1L245.7,156.4z M239.6,135.9c-1.2,0.3-3.5,1.3-3.5,1.3l2-6.6h6l-1.4,4.8
		C242.6,135.4,240.8,135.5,239.6,135.9z M239.7,145.2c0,0-1.9,0.2-3.1,0.5c-1.2,0.4-3.5,1.5-3.5,1.5l2.1-6.8h6L239.7,145.2z
		 M236.3,156.4h-6l1.7-5.8h6L236.3,156.4z M250.8,140.5h8.7l-1.2,4h-8.8l-1.3,4.4h7.7l-5.8,8.2c-0.4,0.6-0.8,0.8-1.2,1
		s-0.9,0.4-1.6,0.4h-2.1l-1.5,4.8h5.6c2.9,0,4.6-1.3,5.9-3l4-5.5l0.9,5.5c0.2,1,0.9,1.6,1.4,1.9c0.6,0.3,1.1,0.8,1.9,0.8
		c0.9,0,1.5,0.1,1.9,0.1h2.7l1.6-5.4h-1.1c-0.6,0-1.7-0.1-1.9-0.3c-0.2-0.2-0.2-0.6-0.3-1.2l-0.9-5.6H262l1.6-1.9h8.8l1.3-4.4h-8.1
		l1.3-4h8.1l1.5-5h-24.1L250.8,140.5z M177.6,157.5l2-6.7h8.3l1.5-5h-8.3l1.3-4.1h8.1l1.5-4.8h-20.3l-1.5,4.8h4.6l-1.2,4.1H169
		l-1.5,5.1h4.6l-2.7,8.9c-0.4,1.2,0.2,1.6,0.5,2.2c0.3,0.5,0.7,0.9,1.5,1.1c0.8,0.2,1.4,0.3,2.1,0.3h9.4l1.7-5.5l-4.2,0.6
		C179.6,158.4,177.4,158.3,177.6,157.5z M178.6,125.3l-2.1,3.8c-0.5,0.8-0.9,1.3-1.2,1.6c-0.3,0.2-1,0.3-1.9,0.3h-1.1l-1.5,4.9h3.7
		c1.8,0,3.1-0.6,3.7-1c0.7-0.4,0.9-0.2,1.4-0.7l1.2-1.1h11.4l1.5-5.1h-8.3l1.5-2.8h-8.3L178.6,125.3L178.6,125.3z M195.4,157.6
		c-0.2-0.3-0.1-0.8,0.2-1.8l3.1-10.3h11.1c1.6,0,2.8,0,3.5-0.1c0.8-0.1,1.7-0.4,2.7-0.9s1.5-1.1,1.9-1.8c0.5-0.7,1.3-2.1,1.9-4.3
		l3.9-13l-11.5,0.1c0,0-3.5,0.5-5.1,1.1s-3.8,2.4-3.8,2.4l1-3.6h-7.1l-9.9,33c-0.4,1.3-0.6,2.2-0.6,2.8s0.8,1.2,1.3,1.6
		c0.6,0.4,1.5,0.4,2.3,0.4c0.9,0.1,2.1,0.1,3.9,0.1h5.5l1.7-5.7l-4.9,0.5C195.9,158.2,195.5,157.9,195.4,157.6z M200.8,138.6h11.6
		l-0.7,2.3c-0.1,0.1-0.4-0.1-1.5,0H200L200.8,138.6z M203.1,130.8h11.7l-0.8,2.8c0,0-5.5-0.1-6.4,0.1c-3.9,0.7-6.2,2.8-6.2,2.8
		L203.1,130.8z M211.9,148.6c-0.1,0.3-0.2,0.6-0.5,0.7c-0.2,0.2-0.6,0.2-1.2,0.2h-1.7l0.1-2.8h-6.9l-0.3,13.8c0,1,0.1,1.6,0.8,2
		c0.7,0.6,3,0.6,6,0.6h4.3l1.6-5.2l-3.8,0.2l-1.3,0.1c-0.2-0.1-0.3-0.1-0.5-0.3s-0.4-0.1-0.4-1.1v-3.5l3.9-0.2c2.1,0,3-0.7,3.8-1.4
		c0.7-0.6,1-1.4,1.3-2.3l0.7-3.1h-5.4L211.9,148.6z"/>
</g>
</svg>
