<?xml version="1.0" encoding="utf-8"?>
<!-- Generator: Adobe Illustrator 28.1.0, SVG Export Plug-In . SVG Version: 6.00 Build 0)  -->
<svg version="1.1" id="Layer_1" xmlns="http://www.w3.org/2000/svg" xmlns:xlink="http://www.w3.org/1999/xlink" x="0px" y="0px"
	 viewBox="0 0 900 600" style="enable-background:new 0 0 900 600;" xml:space="preserve">
<style type="text/css">
	.st0{fill:#1A1F71;}
</style>
<path class="st0" d="M601.3,206.2c-15.5-5.6-31.9-8.5-48.4-8.4c-53.3,0-91,26.9-91.3,65.4c-0.3,28.3,26.8,44.3,47.3,53.8
	c21,9.7,28.1,15.9,28,24.6c-0.1,13.2-16.8,19.2-32.3,19.2c-21.3,0-32.9-3-50.8-10.4l-6.6-3.1l-7.6,44.4c13,5.4,36.3,10,60.5,10.4
	c56.7,0,93.8-26.7,94.2-67.7c0.5-22.6-14.2-39.7-45.1-53.9c-18.8-9.2-30.4-15.3-30.4-24.6c0-8.2,10-17,30.8-17
	c13.9-0.3,27.6,2.3,40.4,7.6l5,2.2l7.6-42.9L601.3,206.2L601.3,206.2z M739.7,201.4H698c-13,0-22.7,3.6-28.4,16.4l-80.1,181.5h56.7
	l11.3-29.8l69.2,0.1c1.6,7,6.6,29.7,6.6,29.7h50L739.7,201.4L739.7,201.4z M385,199.8h54l-33.8,198.1h-54L385,199.8L385,199.8
	L385,199.8z M247.8,308.9l5.6,27.5l52.8-135h57.2l-85,197.7h-57.1l-46.7-167.4c-0.8-2.8-2.5-5.1-5-6.6
	c-16.8-8.7-34.6-15.3-53.1-19.6l0.7-4.2h87c11.8,0.5,21.3,4.2,24.5,16.8l19,91L247.8,308.9L247.8,308.9z M673,329.1l21.5-55.4
	c-0.3,0.6,4.4-11.4,7.2-18.9l3.7,17.1l12.5,57.1L673,329.1L673,329.1L673,329.1L673,329.1z"/>
</svg>
